<?xml version="1.0" encoding="UTF-8"?>
<!DOCTYPE svg PUBLIC "-//W3C//DTD SVG 1.1//EN" "http://www.w3.org/Graphics/SVG/1.1/DTD/svg11.dtd">
<!-- Creator: CorelDRAW X7 -->
<svg xmlns="http://www.w3.org/2000/svg" xml:space="preserve" width="120px" height="120px" version="1.1" style="shape-rendering:geometricPrecision; text-rendering:geometricPrecision; image-rendering:optimizeQuality; fill-rule:evenodd; clip-rule:evenodd"
viewBox="0 0 120 120"
 xmlns:xlink="http://www.w3.org/1999/xlink">
 <defs>
  <style type="text/css">
   <![CDATA[
    .str0 {stroke:black;stroke-width:2.08351}
    .fil0 {fill:none}
    .fil2 {fill:#FEFEFE}
    .fil3 {fill:#F58634}
    .fil7 {fill:#BAE5FA}
    .fil5 {fill:#00A859}
    .fil4 {fill:black}
    .fil1 {fill:#2887D2}
    .fil6 {fill:#FFF212;fill-rule:nonzero}
   ]]>
  </style>
 </defs>
 <g id="Layer_x0020_1">
  <metadata id="CorelCorpID_0Corel-Layer"/>
  <rect class="fil0" width="120" height="120"/>
  <g id="_911195968">
   <g>
    <g>
     <rect class="fil1" x="1" y="55" width="104.973" height="41.4766" rx="3" ry="2"/>
     <rect class="fil2" x="6" y="60" width="94.206" height="31.6924"/>
    </g>
    <rect class="fil3" x="12" y="74" width="85.0404" height="3.43777"/>
    <rect class="fil3" x="12" y="66" width="52.7576" height="3.43777"/>
    <path class="fil0 str0" d="M93 90c0,-1 -3,-9 -6,-9 -2,0 1,6 0,6 -2,1 -1,-5 -4,-5 -2,0 1,3 0,5 0,1 -3,0 -3,0"/>
    <circle class="fil4" cx="78" cy="86" r="1"/>
    <rect class="fil3" x="12" y="84" width="11.9562" height="4.87976"/>
    <rect class="fil3" x="26" y="84" width="10.3413" height="4.87976"/>
   </g>
   <g>
    <g>
     <rect class="fil1" x="12" y="23" width="106.991" height="41.4766" rx="3" ry="2"/>
     <rect class="fil2" x="42" y="28" width="72.3767" height="31.6924"/>
    </g>
    <rect class="fil1" x="15" y="25" width="70.6044" height="37.7947"/>
    <g>
     <circle class="fil5" cx="101" cy="44" r="13"/>
     <path class="fil6" d="M103 48c0,-1 0,-1 0,-2 -1,0 -1,0 -2,-1 -1,0 -1,0 -2,-1 -1,0 -1,0 -1,-1 -1,0 -1,0 -1,-1 -1,0 -1,-1 -1,-2 0,-1 1,-2 1,-3 1,0 2,-1 4,-1l0 -2 1 0 0 2c2,0 3,1 3,2 1,0 1,2 1,3l-3 0c0,-1 0,-1 0,-2 -1,0 -1,-1 -2,-1 0,0 -1,1 -1,1 0,0 -1,1 -1,1 0,1 1,1 1,2 0,0 1,0 2,1 0,0 1,0 2,1 0,0 1,0 1,1 1,0 1,0 1,1 0,0 0,1 0,2 0,1 0,2 -1,3 -1,0 -2,1 -3,1l0 2 -2 0 0 -2c-1,0 -2,-1 -3,-2 -1,0 -1,-2 -1,-3l3 0c0,1 0,1 0,2 1,0 1,1 2,1 1,0 1,-1 2,-1 0,0 0,-1 0,-1z"/>
    </g>
    <g>
     <rect class="fil7" x="48" y="34" width="32.5625" height="3.95039"/>
     <rect class="fil7" x="19" y="34" width="22.5763" height="3.95039"/>
     <rect class="fil7" x="19" y="42" width="61.7654" height="3.95039"/>
     <rect class="fil7" x="19" y="50" width="61.7654" height="3.95039"/>
    </g>
   </g>
  </g>
 </g>
</svg>
