<?xml version="1.0" encoding="UTF-8"?>
<!DOCTYPE svg PUBLIC "-//W3C//DTD SVG 1.1//EN" "http://www.w3.org/Graphics/SVG/1.1/DTD/svg11.dtd">
<!-- Creator: CorelDRAW X7 -->
<svg xmlns="http://www.w3.org/2000/svg" xml:space="preserve" width="121px" height="120px" version="1.1" style="shape-rendering:geometricPrecision; text-rendering:geometricPrecision; image-rendering:optimizeQuality; fill-rule:evenodd; clip-rule:evenodd"
viewBox="0 0 122 121"
 xmlns:xlink="http://www.w3.org/1999/xlink">
 <defs>
  <style type="text/css">
   <![CDATA[
    .str0 {stroke:#FEFEFE;stroke-width:0.907518}
    .fil0 {fill:none}
    .fil8 {fill:none;fill-rule:nonzero}
    .fil1 {fill:#FEFEFE}
    .fil3 {fill:#96989A}
    .fil9 {fill:#FEFEFE;fill-rule:nonzero}
    .fil11 {fill:#FEFEFE;fill-rule:nonzero}
    .fil2 {fill:#848688;fill-rule:nonzero}
    .fil7 {fill:#FAA954;fill-rule:nonzero}
    .fil6 {fill:#51A8B1;fill-rule:nonzero}
    .fil4 {fill:#0098DA;fill-rule:nonzero}
    .fil13 {fill:#4E901E;fill-rule:nonzero}
    .fil12 {fill:#7ED63E;fill-rule:nonzero}
    .fil5 {fill:#EBE5DD;fill-rule:nonzero}
    .fil10 {fill:#F8B77D;fill-rule:nonzero}
   ]]>
  </style>
 </defs>
 <g id="Layer_x0020_1">
  <metadata id="CorelCorpID_0Corel-Layer"/>
  <rect class="fil0" width="121" height="121"/>
  <g id="_496474104">
   <g>
    <path class="fil1" d="M70 30l-58 42c16,9 32,17 47,26l60 -55 -49 -13z"/>
    <path id="1" class="fil2" d="M11 71l58 -42 1 2 -57 42 -1 0 -1 -2zm1 2l-2 -1 1 -1 1 2zm47 24l1 2 -1 0 -2 -1 -1 -1 -2 0 -1 -1 -1 -1 -2 -1 -1 -1 -2 0 -1 -1 -2 -1 -1 -1 -2 -1 -1 0 -2 -1 -1 -1 -2 -1 -1 -1 -2 0 -1 -1 -2 -1 -1 -1 -2 -1 -1 0 -2 -1 -1 -1 -2 -1 -1 -1 -2 -1 -1 0 -1 -1 -2 -1 -1 -1 1 -2 1 1 2 1 1 1 2 0 1 1 2 1 1 1 1 1 2 1 1 0 2 1 1 1 2 1 1 1 2 0 1 1 2 1 1 1 2 1 1 0 2 1 1 1 2 1 1 1 2 0 1 1 2 1 1 1 2 1 1 0 2 1 1 1 -1 0zm1 2l0 0 -1 0 1 0zm60 -55l-60 55 -1 -2 60 -55 1 0 0 2zm0 -2l2 0 -2 2 0 -2zm-50 -13l50 13 -1 2 -50 -13 0 -2 1 0zm-1 0l1 0 0 0 -1 0z"/>
   </g>
   <g id="_496474272">
    <g>
     <path class="fil1" d="M69 23l-58 42c16,9 32,17 48,26l60 -55 -50 -13z"/>
     <path id="1" class="fil2" d="M10 64l58 -42 1 2 -57 42 -1 0 -1 -2zm1 2l-2 -1 1 -1 1 2zm47 24l1 2 -1 0 -2 -1 -1 -1 -1 0 -2 -1 -1 -1 -2 -1 -1 -1 -2 -1 -1 0 -2 -1 -1 -1 -2 -1 -1 -1 -2 0 -1 -1 -2 -1 -1 -1 -2 -1 -1 0 -2 -1 -1 -1 -2 -1 -1 -1 -2 0 -1 -1 -2 -1 -1 -1 -1 -1 -2 0 -1 -1 -2 -1 -1 -1 1 -2 1 1 2 1 1 1 2 0 1 1 2 1 1 1 2 1 1 0 1 1 2 1 1 1 2 1 1 0 2 1 1 1 2 1 1 1 2 0 1 1 2 1 1 1 2 1 1 1 2 0 1 1 2 1 1 1 2 1 1 0 2 1 1 1 -1 0zm1 2l0 0 -1 0 1 0zm60 -55l-60 55 -1 -2 60 -55 1 0 0 2zm0 -2l2 0 -2 2 0 -2zm-50 -13l50 13 -1 2 -49 -13 -1 -2 1 0zm-1 0l1 0 0 0 -1 0z"/>
    </g>
    <rect class="fil3" transform="matrix(0.505627 0.151288 -0.0921052 0.307835 67.5929 30.7909)" width="65.1233" height="11.0284" rx="6" ry="6"/>
    <rect class="fil3" transform="matrix(0.505627 0.151288 -0.0921052 0.307835 62.8545 36.1612)" width="65.1233" height="11.0284" rx="6" ry="6"/>
    <rect class="fil3" transform="matrix(0.47056 0.239 -0.145505 0.286486 33.4539 57.9266)" width="65.1233" height="11.0284" rx="6" ry="6"/>
    <rect class="fil3" transform="matrix(0.47056 0.239 -0.145505 0.286486 27.834 62.3662)" width="65.1233" height="11.0284" rx="6" ry="6"/>
    <g id="_496474008">
     <polygon class="fil4" points="2,23 15,23 15,52 2,52 "/>
     <path class="fil5" d="M8 43c-1,0 -3,1 -3,3 0,1 2,2 3,2 2,0 3,-1 3,-2 0,-2 -1,-3 -3,-3z"/>
     <polygon class="fil6" points="15,25 23,25 23,50 15,50 15,49 "/>
     <g>
      <path class="fil7" d="M57 46c0,0 0,0 0,-1 -2,-11 -17,-15 -24,-11 -2,1 -3,2 -4,4 2,-2 16,0 20,3l4 3c1,2 3,4 4,2z"/>
      <path id="1" class="fil8 str0" d="M57 46c0,0 0,0 0,-1 -2,-11 -17,-15 -24,-11 -2,1 -3,2 -4,4 2,-2 16,0 20,3l4 3c1,2 3,4 4,2z"/>
     </g>
     <g>
      <path class="fil7" d="M62 44c1,0 1,0 1,0 -2,-11 -18,-15 -25,-12 -2,2 -2,3 -3,5 2,-3 15,0 19,2l4 3c2,2 4,4 4,2z"/>
      <path id="1" class="fil8 str0" d="M62 44c1,0 1,0 1,0 -2,-11 -18,-15 -25,-12 -2,2 -2,3 -3,5 2,-3 15,0 19,2l4 3c2,2 4,4 4,2z"/>
     </g>
     <polygon class="fil9" points="15,42 19,42 19,44 15,44 "/>
     <g>
      <path class="fil7" d="M67 43c0,-1 0,0 0,-1 -2,-11 -17,-15 -24,-12 -2,2 -3,3 -4,5 2,-3 16,0 20,3l4 3c1,1 3,4 4,2z"/>
      <path id="1" class="fil8 str0" d="M67 43c0,-1 0,0 0,-1 -2,-11 -17,-15 -24,-12 -2,2 -3,3 -4,5 2,-3 16,0 20,3l4 3c1,1 3,4 4,2z"/>
     </g>
     <g>
      <path class="fil10" d="M71 41c0,0 0,0 0,0 -1,-8 -13,-16 -21,-16l-27 0 0 20c0,0 0,-1 3,-1l2 0c6,3 7,3 13,4 2,1 3,1 4,-1 1,-1 -4,-3 -6,-5 -2,-1 -2,-3 -3,-4 4,-2 7,-5 7,-5 5,-1 10,-2 14,0l9 7c2,2 4,3 5,1z"/>
      <path id="1" class="fil11" d="M70 41l1 0 0 0 0 0 0 0 0 0 0 0 0 0 0 0 0 0 0 0 0 0 0 0 0 0 0 0 0 0 0 0 0 0 0 0 0 0 0 0 0 0 0 0 0 0 0 0 0 0 0 0 0 0 0 0 0 1 0 0 0 0 0 0 0 0 0 0 -1 -1 0 0 0 0 0 0 0 0 0 0 0 0 0 0 0 0 0 0 0 0 0 0 0 0 0 0 0 0 0 0 0 0 0 0 0 0 0 0 0 0 0 0 0 0 0 0 0 0 0 0 0 0 0 0 0 0 0 0 0 0 0 0 0 0 0 0zm1 0l0 0 0 0 0 0zm-21 -16l0 -1 0 0 1 0 0 0 1 0 1 1 1 0 1 0 1 0 0 1 1 0 1 0 1 1 1 0 1 1 1 0 0 1 1 0 1 1 1 1 0 0 1 1 1 0 0 1 1 1 1 1 0 0 1 1 0 1 0 1 1 0 0 1 0 1 0 1 -1 0 0 -1 0 -1 0 0 -1 -1 0 -1 0 0 -1 -1 0 -1 -1 0 0 -1 -1 -1 -1 0 0 -1 -1 -1 -1 0 -1 -1 0 0 -1 -1 -1 0 -1 -1 0 0 -1 -1 -1 0 -1 0 -1 -1 -1 0 0 0 -1 0 -1 -1 -1 0 0 0 -1 0 0 0zm-27 -1l27 0 0 1 -27 0 -1 0 1 -1zm-1 1l0 -1 1 0 -1 1zm0 20l0 -20 1 0 0 20 0 0 -1 0zm1 0l-1 0 0 0 1 0zm3 -2l0 1 0 0 -1 0 0 0 0 0 0 0 0 0 0 0 -1 0 0 1 0 0 0 0 0 0 0 0 0 0 0 0 -1 0 0 0 0 0 0 0 0 0 0 0 0 0 0 0 0 0 0 0 0 0 0 0 0 0 0 0 0 0 0 0 0 0 0 0 -1 -1 0 0 0 0 0 0 0 0 0 0 0 0 1 0 0 0 0 0 0 0 0 0 0 0 0 0 0 0 0 0 0 0 0 0 0 0 0 0 0 0 1 0 0 0 0 0 0 0 0 -1 0 0 0 0 1 0 0 0 0 0 0 0 0 0 1 0zm-1 0l1 0 0 0 -1 0zm3 1l-2 0 0 -1 2 0 0 0 0 1zm0 -1l0 0 0 0 0 0zm13 5l0 1 0 0 -1 0 0 -1 -1 0 0 0 -1 0 0 0 0 0 -1 0 0 0 -1 0 0 0 0 -1 -1 0 0 0 0 0 -1 0 0 0 0 0 -1 0 0 0 0 0 -1 -1 0 0 -1 0 0 0 0 0 -1 0 0 -1 -1 0 0 0 -1 0 0 -1 0 -1 1 1 0 0 1 0 0 0 1 1 0 0 0 0 1 0 0 0 1 0 0 1 0 0 1 0 0 0 0 0 1 0 0 0 0 0 1 0 0 0 0 1 1 0 0 0 0 0 1 0 0 0 1 0 0 0 1 0 0 0 1 0 0 1 0 0zm0 1l0 0 0 0 0 0zm4 -2l1 0 0 0 0 0 0 1 -1 0 0 0 0 0 0 0 0 0 0 0 0 0 0 1 -1 0 0 0 0 0 0 0 0 0 0 0 -1 0 0 0 0 0 0 0 0 0 0 0 -1 0 0 0 0 0 0 0 0 0 0 0 -1 0 0 0 0 0 0 0 0 -1 0 0 1 0 0 0 0 0 0 0 0 0 0 0 0 0 1 0 0 0 0 0 0 0 0 0 0 0 0 0 0 0 1 0 0 0 0 0 0 0 0 0 0 0 0 0 0 -1 0 0 0 0 0 0 1 0 0 0 0 0 0 0 0 0 0 0zm0 0l0 0 0 -1 0 1zm-7 -5l1 -1 0 0 0 1 1 0 0 0 0 0 0 0 1 1 0 0 0 0 1 0 0 0 0 1 0 0 1 0 0 0 0 0 1 0 0 1 0 0 0 0 0 0 1 0 0 0 0 1 0 0 0 0 0 0 1 0 0 0 0 1 0 0 0 0 0 0 -1 0 0 0 0 0 0 0 0 0 0 0 0 0 0 0 -1 0 0 -1 0 0 0 0 0 0 0 0 -1 0 0 0 0 -1 0 0 -1 0 0 0 0 0 0 -1 -1 0 0 0 0 0 -1 0 0 0 0 -1 -1 0 0 0 0 0 0 -1 -1 0 0 0zm-2 -4l1 1 0 -1 0 0 0 0 0 0 0 0 0 0 0 0 0 1 0 0 0 0 0 0 0 0 0 0 0 0 0 0 1 0 0 1 0 0 0 0 0 0 0 0 0 0 0 0 0 0 0 1 0 0 0 0 0 0 1 0 0 0 0 0 0 0 0 0 -1 1 0 0 0 0 0 0 0 0 0 0 0 -1 -1 0 0 0 0 0 0 0 0 0 0 0 0 -1 0 0 0 0 0 0 0 0 0 0 -1 0 0 0 0 -1 0 0 0 0 0 0 0 0 0 0 0 0 0 0 0 0 0 0 0 0 0 -1 0 0zm0 0l0 0 0 0 0 0zm7 -5l0 1 0 0 0 0 0 0 0 0 0 0 0 0 0 0 0 0 0 0 -1 0 0 0 0 0 0 1 0 0 0 0 -1 0 0 0 0 0 0 1 -1 0 0 0 0 0 0 0 -1 1 0 0 0 0 0 0 -1 0 0 1 0 0 -1 0 0 0 0 1 -1 -1 0 0 1 -1 0 0 0 0 1 0 0 -1 0 0 0 0 1 0 0 0 0 -1 1 0 0 0 0 0 0 0 1 -1 0 0 0 0 0 0 0 0 0 0 1 0 0 -1 0 0 0 0 0 0 0 0 0 0 0 0 0 0 0 0 0 0 1 0zm-1 0l1 0 0 0 -1 0zm16 0l-1 1 0 0 0 0 -1 -1 0 0 -1 0 0 0 0 0 -1 0 0 0 -1 0 0 -1 0 0 -1 0 0 0 -1 0 0 0 -1 0 0 1 -1 0 0 0 0 0 -1 0 0 0 -1 0 0 0 -1 0 0 0 -1 0 0 0 -1 1 0 0 -1 0 0 0 0 -1 0 0 1 0 0 -1 1 0 0 0 0 0 1 0 0 0 1 0 0 0 1 0 0 0 1 0 0 0 1 -1 0 0 1 0 0 0 1 0 0 0 1 0 0 0 1 0 0 1 0 0 1 0 0 0 1 0 0 0 1 0 0 1 0 0 1 0zm-1 0l0 0 1 0 -1 0zm9 8l-9 -7 1 -1 9 7 0 0 -1 1zm1 -1l0 0 0 0 0 0zm3 1l1 1 0 0 0 0 0 0 0 0 0 0 0 1 0 0 -1 0 0 0 0 0 0 0 0 0 -1 0 0 0 0 0 0 0 0 0 0 0 -1 -1 0 0 0 0 0 0 0 0 0 0 -1 0 0 0 0 -1 0 0 0 0 0 0 -1 0 0 0 0 0 1 -1 0 0 0 0 0 0 0 0 1 0 0 1 0 0 0 0 0 0 0 0 1 0 0 0 0 0 0 1 0 0 0 0 0 0 0 0 1 0 0 0 0 0 0 0 0 0 0 0 0 0 0 0 0 0 0 0 0 0 0 0 0 -1 0 0 0 0zm0 0l0 0 0 0 0 0z"/>
     </g>
     <g>
      <g>
       <polygon class="fil12" points="41,61 85,61 85,37 41,37 "/>
       <path class="fil13" d="M83 44l0 11c-2,0 -4,2 -4,4l-32 0c0,-2 -2,-4 -4,-4l0 -11c2,0 4,-2 4,-4l32 0c0,2 2,4 4,4z"/>
       <path class="fil9" d="M67 49c0,3 -2,4 -4,4 -2,0 -4,-1 -4,-4 0,-2 2,-4 4,-4 2,0 4,2 4,4z"/>
       <path class="fil12" d="M41 46l0 15 15 0c-4,0 -8,-1 -11,-4 -3,-3 -4,-7 -4,-11z"/>
       <polygon class="fil9" points="72,50 76,50 76,48 72,48 "/>
       <polygon class="fil9" points="50,50 54,50 54,48 50,48 "/>
      </g>
      <g>
       <polygon class="fil12" points="36,65 80,65 80,41 36,41 "/>
       <path class="fil13" d="M78 47l0 11c-2,0 -4,2 -4,4l-32 0c0,-2 -2,-4 -4,-4l0 -11c2,0 4,-1 4,-4l32 0c0,3 2,4 4,4z"/>
       <path class="fil9" d="M62 53c0,2 -2,4 -4,4 -2,0 -4,-2 -4,-4 0,-3 2,-4 4,-4 2,0 4,1 4,4z"/>
       <path class="fil12" d="M36 50l0 15 15 0c-4,0 -8,-2 -11,-5 -2,-2 -4,-6 -4,-10z"/>
       <polygon class="fil9" points="67,54 71,54 71,52 67,52 "/>
       <polygon class="fil9" points="45,54 49,54 49,52 45,52 "/>
      </g>
     </g>
     <path class="fil10" d="M23 45l0 0c0,0 0,-1 3,-1l2 0c6,3 7,3 13,4 2,1 3,1 4,-1 1,-1 -3,-3 -6,-5 -2,-1 -2,-3 -3,-4l0 0c-5,1 -10,4 -13,7z"/>
    </g>
   </g>
  </g>
 </g>
</svg>
