<svg xmlns="http://www.w3.org/2000/svg" width="48" height="47" shape-rendering="geometricPrecision" text-rendering="geometricPrecision" image-rendering="optimizeQuality" fill-rule="evenodd" clip-rule="evenodd"><defs><style>.fil12{fill:#fff8af}.fil6,.fil7{fill:#ffcc29;fill-rule:nonzero}.fil6{fill:#000}</style></defs><g id="Layer_x0020_1"><g id="_780865664"><path d="M3 46h29c1 0 2-1 2-3V7c0-2-1-3-2-3H0v42h3z" fill="#2887d2"/><path fill="#fefefe" d="M3 5h29.71v38.884H3z"/><path d="M3 4l22-3c1-1 2 1 2 2v35c0 1-1 2-2 2L3 44V4z" fill="#1cc8eb"/><path d="M9 21h11v1l3-3-3-4v2H9v4zm0-2" fill="#0063d4" fill-rule="nonzero"/><path fill="#e32210" fill-rule="nonzero" d="M23 26H12v2l-3-3 3-4v2h11z"/><g><path d="M38 44s-1 1 0 1v1-1-1z"/><path class="fil6" d="M38 45h-1l-1-4h3l-1 4z"/><path class="fil7" d="M38 43v-2h-1-1l1 4h1l1-1s-1 0-1-1z"/><path class="fil6" d="M39 4h-2V1c0-1 0-1 1-1h1c1 0 1 1 1 1v3h-1z"/><path class="fil7" d="M39 2s-1 0-1-1V0c-1 0-1 0-1 1v3h3V2h-1z"/><path d="M39 42h-2c-1 0-1-1-1-2l1-35V4h2c1 0 1 0 1 1v35c0 1-1 2-1 2z" fill="#606062" fill-rule="nonzero"/><path class="fil6" d="M38 40V4h-1v1l-1 35c0 1 0 2 1 2h2s1-1 1-2h-2z"/><path class="fil7" d="M36 30h4v6h-4z"/><path class="fil7" d="M36 36v-6h2v6zM36 4h4v26h-4z"/><path class="fil6" d="M36 4v26h2V4z"/><path d="M39 4h3v5c-1 1-1 1-1 0V4h-2z"/></g><g><rect x="29" y="11" width="19.253" height="28.694" rx="2" ry="3" fill="#0098da"/><path d="M32 14h14v4H31v-4h1z" fill="#b8e5fa"/><path class="fil12" d="M43 21h2.32v2.789H43zM39 21h2.32v2.789H39zM35 21h2.32v2.789H35zM31 21h2.32v2.789H31zM43 27h2.32v2.789H43zM39 27h2.32v2.789H39zM35 27h2.32v2.789H35zM31 27h2.32v2.789H31z"/><path fill="#ed3237" d="M40 33h6.267v2.789H40z"/><path class="fil12" d="M35 33h2.32v2.789H35zM31 33h2.32v2.789H31z"/></g></g></g></svg>