<svg width="44" height="44" fill="none" xmlns="http://www.w3.org/2000/svg"><path fill-rule="evenodd" clip-rule="evenodd" d="M24.122 13.378s1.602-.693 3.551-.086c.736.216 16.5 10.696 13.728 13.425-.823.823-1.342.606-2.078.433l-.78-.217-.606-.563.173.044c.65.173 1.083.346 1.776-.347 2.381-2.382-11.174-11.346-11.78-11.563-1.213-.39-2.339-.13-2.815 0l-1.17-1.126z" fill="#2887D2"/><path fill-rule="evenodd" clip-rule="evenodd" d="M23.386 13.34s2.338-1.256 4.46-.693c.823.26 18.32 10.134 15.245 12.776-.91.78-1.473.606-2.339.39l-.823-.174-.693-.563.174.044c.736.173 1.212.346 1.992-.347 2.641-2.252-12.386-10.87-13.08-11.086-1.342-.347-2.554-.13-3.117 0l-1.82-.347z" fill="#2887D2"/><path fill-rule="evenodd" clip-rule="evenodd" d="M38.89 27.28c-.737.736-1.95.823-2.772.13l-6.41-5.283a1.983 1.983 0 01-1.732.996l-5.11-.13c-1.3-.044-2.598.13-3.854.476l-1.213.303c-1.083.303-2.165.39-3.291.303-3.638-.433-4.504-2.815-5.11-3.248-.174-.13-2.21-1.515-2.599-1.819l4.46-6.582c.434.303 2.859 1.862 3.205 1.992 1.69.52 6.583-1.17 9.745-1.126 1.948.043 3.464 1.126 4.417 1.905.823.78 10.177 9.138 10.177 9.138.433.39.65.91.693 1.473 0 .563-.217 1.082-.606 1.472z" fill="#FEFEFE"/><path fill-rule="evenodd" clip-rule="evenodd" d="M9.398 19.75c.606.476 1.472 2.858 5.153 3.29 1.083.087 2.209 0 3.291-.302l1.213-.303a12.893 12.893 0 013.854-.477l5.11.13c.737 0 1.386-.39 1.733-1.04l6.41 5.327c.519.433 1.255.563 1.905.39.65-.216 1.17-.736 1.342-1.386a1.979 1.979 0 01-.91 2.209c-.735.476-1.688.39-2.381-.173l-6.41-5.284a1.983 1.983 0 01-1.732.996l-5.11-.13c-1.3-.043-2.598.13-3.854.477l-1.213.303a9.36 9.36 0 01-3.291.303c-3.638-.433-4.504-2.815-5.11-3.248-.174-.13-2.21-1.516-2.599-1.819l.476-.693c.737.477 2.036 1.343 2.123 1.43z" fill="#fff"/><path fill-rule="evenodd" clip-rule="evenodd" d="M8.358 7.491l2.988 2.035c.693.477.91 1.473.39 2.166l-4.98 7.405c-.477.737-1.473.91-2.21.433l-2.944-2.035a1.55 1.55 0 01-.433-2.165l4.98-7.406a1.602 1.602 0 012.209-.433z" fill="#2887D2"/><path fill-rule="evenodd" clip-rule="evenodd" d="M8.488 10.783c-.087.476-.563.78-1.04.693-.476-.087-.779-.563-.692-1.04.086-.476.563-.78 1.04-.693.475.087.779.563.692 1.04z" fill="#2887D2"/><path fill-rule="evenodd" clip-rule="evenodd" d="M19.098 23.818a12.336 12.336 0 013.768-.476l5.11.13c.693 0 1.386-.303 1.82-.866l6.105 5.067c.953.822 2.382.736 3.248-.13a2.601 2.601 0 00.693-1.776c-.043-.65-.303-1.256-.78-1.689 0 0-9.397-8.358-10.22-9.138-.996-.866-2.598-1.948-4.634-1.992-1.515-.043-3.377.347-5.196.693-1.863.347-3.638.693-4.418.433-.216-.043-1.385-.78-2.858-1.732l.303-.433c.607-.91.39-2.079-.52-2.685L8.532 7.188a1.936 1.936 0 00-2.641.52L.866 15.113c-.563.867-.347 2.08.52 2.686l2.988 1.992c.433.303.953.39 1.429.303.433-.087.78-.303 1.083-.607 1.082.78 2.208 1.516 2.295 1.603.13.13.26.303.39.433a6.271 6.271 0 004.2 2.772c.217.043.433.086.693.13 1.17.086 2.339 0 3.422-.304l1.212-.303zM5.673 19.401c-.303.087-.65 0-.91-.173l-2.988-2.036c-.563-.346-.693-1.126-.303-1.689l4.98-7.405c.174-.26.477-.433.78-.52.347-.043.65.043.91.217l2.988 1.992c.563.39.736 1.169.346 1.732l-5.023 7.362a.995.995 0 01-.78.52zm8.878 4.33c-2.728-.303-3.811-1.732-4.417-2.598-.174-.216-.347-.433-.52-.606-.13-.087-1.602-1.083-2.339-1.603l4.071-6.02c1.083.737 2.685 1.733 3.032 1.863.953.303 2.728-.043 4.764-.433 1.775-.346 3.594-.693 5.066-.693 1.82.043 3.248 1.04 4.158 1.819.866.78 10.22 9.138 10.22 9.138.65.606.737 1.645.13 2.338-.606.693-1.645.78-2.338.217l-6.236-5.154c.26-.693.173-1.429-.217-2.078-.433-.607-1.126-.953-1.862-.997l-9.095-.216c-.216 0-.39.173-.39.347 0 .216.174.346.347.346l9.138.216c.563.044 1.04.347 1.299.78.303.476.303 1.083.043 1.559-.26.52-.823.823-1.386.823l-5.153-.13c-1.3-.043-2.642.13-3.941.476l-1.213.303a8.65 8.65 0 01-3.161.304z" fill="#2887D2"/><path fill-rule="evenodd" clip-rule="evenodd" d="M24.035 29.271c.346 0 .736.044 1.083.087v-1.342h-2.209v1.342a9.145 9.145 0 011.126-.087zM22.91 38.885h2.208v1.429h-2.209v-1.43z" fill="#FEFEFE"/><path fill-rule="evenodd" clip-rule="evenodd" d="M22.433 26.07h3.161c.78 0 1.43.65 1.43 1.43v.52h-6.02v-.52c0-.78.65-1.43 1.429-1.43zM24.035 29.275c-5.11 0-9.311 3.985-9.614 9.095a.5.5 0 00.52.52h18.145c.303 0 .563-.217.52-.52-.303-5.11-4.504-9.095-9.57-9.095zM13.598 40.315h20.787c.78 0 1.386.692 1.386 1.559 0 .822-.606 1.515-1.386 1.515H13.598c-.736 0-1.343-.693-1.343-1.516 0-.866.607-1.558 1.343-1.558z" fill="#2887D2"/><path fill-rule="evenodd" clip-rule="evenodd" d="M28.712 42.7h-2.988c-.476 0-.476.692 0 .692h2.988c.477 0 .477-.693 0-.693z" fill="#2887D2"/><path fill-rule="evenodd" clip-rule="evenodd" d="M34.429 39.97h-8.965v-.736h7.622c.26 0 .477-.086.65-.26a.715.715 0 00.217-.649c-.26-4.72-3.812-8.575-8.489-9.268v-.693h1.56a.373.373 0 00.346-.346v-.52c0-.996-.78-1.775-1.776-1.775h-3.161c-.996 0-1.776.78-1.776 1.775v.52c0 .173.173.346.347.346h1.559v.693c-4.677.693-8.229 4.548-8.488 9.268 0 .26.086.476.216.65.173.173.39.26.65.26h7.622v.736h-8.965c-.953 0-1.732.78-1.732 1.689 0 .952.78 1.732 1.732 1.732h10.784c.433 0 .433-.693 0-.693H13.598c-.563 0-.996-.476-.996-1.04a.98.98 0 01.996-.995h20.83c.564 0 1.04.433 1.04.996s-.476 1.039-1.04 1.039h-4.33c-.433 0-.433.693 0 .693h4.33c.954 0 1.733-.78 1.733-1.732 0-.91-.78-1.69-1.732-1.69zM21.393 27.499c0-.606.433-1.082 1.04-1.082h3.161c.607 0 1.083.476 1.083 1.082v.13h-5.284v-.13zm1.863.866h1.515v.607c-.26 0-.52-.044-.736-.044-.26 0-.52.044-.78.044v-.607zM14.81 38.498c-.044-.043-.044-.086-.044-.13.26-4.893 4.331-8.748 9.268-8.748 4.894 0 8.965 3.855 9.225 8.748 0 .044 0 .087-.044.13-.043.044-.086.044-.13.044H14.941c-.044 0-.087 0-.13-.044zm8.445 1.473v-.736h1.515v.736h-1.515zM37.2 34.215h-2.035c-.476 0-.476.693 0 .693H37.2c.477 0 .477-.693 0-.693zM34.862 32.61c.087.173.303.26.476.173l2.036-1.039c.39-.217.087-.866-.347-.65l-2.035 1.04c-.173.086-.217.303-.13.476zM37.374 37.37l-2.035-1.04c-.433-.216-.737.434-.347.607l2.036 1.083c.433.216.736-.433.346-.65z" fill="#2887D2"/><path d="M25.112 28.016H22.78v1.357h2.332v-1.357z" fill="#2887D2"/><path fill-rule="evenodd" clip-rule="evenodd" d="M10.913 34.215h2.035c.434 0 .434.693 0 .693h-2.035c-.476 0-.476-.693 0-.693zM13.252 32.61c-.087.173-.303.26-.477.173l-2.035-1.039c-.433-.217-.087-.866.303-.65l2.036 1.04c.173.086.26.303.173.476zM10.74 37.37l2.035-1.04c.434-.216.737.434.303.607l-2.035 1.083c-.39.216-.736-.433-.303-.65z" fill="#2887D2"/><path d="M23.602 28.54c3.248 0 5.89 2.64 5.89 5.932a5.896 5.896 0 01-5.89 5.89c-3.291 0-5.933-2.642-5.933-5.89a5.914 5.914 0 015.933-5.933z" fill="#ED3237"/><path d="M29.492 34.476a5.896 5.896 0 01-5.89 5.89c-1.905 0-3.55-.823-4.634-2.21a5.777 5.777 0 003.681 1.3 5.915 5.915 0 005.934-5.933 5.777 5.777 0 00-1.3-3.681c1.386 1.082 2.209 2.728 2.209 4.634z" fill="#D40000"/><path d="M26.287 37.16a.602.602 0 01-.823 0l-1.862-1.906-1.905 1.906a.602.602 0 01-.823 0 .602.602 0 010-.823l1.905-1.862-1.905-1.906a.602.602 0 010-.823.602.602 0 01.823 0l1.905 1.906 1.862-1.906a.602.602 0 01.823 0 .602.602 0 010 .823l-1.905 1.906 1.905 1.862a.602.602 0 010 .823z" fill="#FEFEFE"/><path fill-rule="evenodd" clip-rule="evenodd" d="M33.39 2.556c-.044-.563 0-1.602-.174-1.949l-6.28 4.201c.304.26 2.686 1.43 3.335 1.732l3.465 1.69c.13-.607-.303-1.733-.13-2.123 2.036.087 4.417.867 5.067 3.162.563 1.949-.563 4.374-2.425 5.5-2.339 1.342-3.248 1.082-3.854 1.386 3.984 2.858 14.767-6.41 6.799-11.91-1.386-.953-2.815-1.342-4.288-1.516l-1.515-.173z" fill="#FC4D44"/></svg>