<svg width="44" height="44" fill="none" xmlns="http://www.w3.org/2000/svg"><path d="M30.654 9.9H3.3a2.933 2.933 0 00-2.933 2.934v27.412A2.933 2.933 0 003.3 43.179h27.354a2.933 2.933 0 002.933-2.933V12.834A2.933 2.933 0 0030.654 9.9z" fill="#2887D2"/><path d="M4.4 13.934h26.033V38.5H4.4V13.934z" fill="#FEFEFE"/><path d="M30.067 39.601h-26.4c-.367 0-.734-.367-.734-.733V13.934c0-.366.367-.733.734-.733H7.7v1.467H4.767v12.466H7.7v1.467H4.767v9.534h9.166V28.6h-3.3v-1.466h8.8v-4.767H20.9v4.767h2.933V28.6H15.4v9.534h13.933V28.6h-2.2v-1.466h2.2V14.667H20.9v4.767h-1.467v-4.767h-8.8V13.2h19.434c.366 0 .733.367.733.733v24.934c0 .366-.367.733-.733.733z" fill="#FC4D44"/><path d="M12.467 16.135c-1.467-1.467-3.667-1.467-5.134 0-.733.733-1.1 1.833-1.1 2.933 0 1.1 0 1.834.734 2.567l2.933 4.4 2.933-4.4c1.1-1.466 1.1-4.033-.366-5.5zM9.9 20.17c-.733 0-1.1-.734-1.1-1.1 0-.734.367-1.467 1.1-1.467.733 0 1.1.733 1.1 1.466 0 .367-.367 1.1-1.1 1.1z" fill="#00A859"/><path d="M9.9 20.536a1.833 1.833 0 100-3.667 1.833 1.833 0 000 3.667z" fill="#FEFEFE"/><path d="M30.8 19.434c.367.367.367.367.733.367 5.134 1.1 10.267-1.833 11.734-6.967 1.1-5.133-1.834-10.266-6.967-11.733-5.133-1.1-10.267 1.833-11.733 6.967-.734 3.666.366 7.333 3.3 9.533-1.1 1.1-2.2 1.833-3.3 2.567 6.233-.734 4.4-.367 6.233-.734z" fill="#1CC8EB"/><path d="M36.667 15.4l-.367.734c-.367.366-1.1.366-1.1.366-.367.367-.733.367-1.1.367-.733 0-1.1-.367-1.467-.367-.366-.366-.733-.733-.733-1.466v-.367c0-.367.367-.367.367-.733l.366-2.2C33 11.367 33 11.367 33 11v-.366V9.9H31.167v-.733c.733 0 1.1-.367 1.466-.367.367 0 .734-.366 1.1-.366.734 0 1.1.366 1.467.733s.367.733.367 1.1v1.1l-.734 2.567v.366c-.366.367-.366.367-.366.734 0 .366.366.366.366.366 0 .367.367.367.734.367h.366c.367-.367.367-.367.734-.367zm0-9.533c0 .367 0 .733-.367 1.1-.367.367-.733.367-1.1.367-.367 0-.733 0-1.1-.367-.367-.367-.367-.733-.367-1.1 0-.367 0-.733.367-1.1.367-.367.733-.367 1.1-.367.367 0 .733 0 1.1.367.367.367.367.733.367 1.1z" fill="#FEFEFE"/></svg>