<svg width="40" height="40" fill="none" xmlns="http://www.w3.org/2000/svg"><path fill-rule="evenodd" clip-rule="evenodd" d="M9.09 4.959h18.844v26.446H9.09V4.96z" fill="#FEFEFE"/><path d="M27.934 5.62H9.09V4.296h18.843l.661.661-.661.661zm0-1.323h.661v.661l-.661-.661zm-.661 27.107V4.958h1.322v26.446l-.661.662-.661-.662zm1.322 0v.662h-.661l.661-.662zm-19.504-.66h18.843v1.322H9.09l-.661-.662.66-.66zm0 1.322H8.43v-.662l.66.662zm.661-27.108v26.446H8.43V4.958l.66-.661.662.661zm-1.322 0v-.661h.66l-.66.661z" fill="#966100"/><path fill-rule="evenodd" clip-rule="evenodd" d="M39.173 1.984L27.933 4.96v26.446l11.24 2.975V1.984z" fill="#FEFEFE"/><path d="M27.603 4.297l11.57-2.975.331 1.323-11.57 2.975-.661-.661.33-.662zm-.33.662v-.662h.33l-.33.662zm0 26.446V4.959h1.322v26.446l-.992.661-.33-.661zm.33.661h-.33v-.661l.33.661zm11.57 2.975l-11.57-2.975.33-1.322 11.571 2.975.33.661-.66.661zm.662-.66v.66h-.662l.662-.66zm0-32.398V34.38h-1.323V1.983l.661-.66.662.66zm-.662-.66h.662v.66l-.662-.66z" fill="#966100"/><path fill-rule="evenodd" clip-rule="evenodd" d="M16.364 9.917c.33.992 1.322 1.653 2.644 1.323.992-.331 1.653-1.323 1.323-2.645 0-.992-1.323-1.983-2.645-1.322-1.653.33-1.653 2.314-1.322 2.644zM15.703 15.537c0 .33-.331 10.909-.331 12.231 0 .33-.33.992 0 1.322.33.331 1.983.662 1.983-.66.331-.331.331-.992.331-1.323v-2.975c.33-.661.33-.992.33-1.653 0-.33 0-.992.662-.992.33.33.33.992.33 1.323l.33 4.297c0 .992 0 1.983.993 2.314 1.652 0 1.322-1.322 1.322-1.983-.33-1.984-.33-3.967-.33-6.281l-.331-4.628v-.662c0-.33 0-.33.33-.33.33.33.662 3.967.662 4.958.33.992 1.322.992 1.652.331.331-.661-.33-4.628-.33-5.29-.33-2.644-2.314-3.636-4.959-3.636-1.653 0-3.306.331-3.967 1.653-.661.661-.661 1.323-.661 2.314-.33.662-.33 1.653-.33 2.314-.331.662-.331 2.314-.331 2.645.33.661 1.653.661 1.653-.661l.66-4.298c0-.33 0-.33.332-.33z" fill="#2887D2"/><path d="M21.983 26.777H11.405v-3.636L1.157 30.413l10.248 6.942V33.72h10.578v-6.942z" fill="#D40000"/><path d="M11.405 26.446h10.579v.992H11.404l-.661-.662.661-.33zm0 .992h-.661v-.662l.661.662zm.33-4.298v3.636h-.991V23.14l.33-.33.662.33zm-.66-.33l.66-.662v.992l-.66-.33zM.825 30.082l10.248-7.272.331.66-10.248 7.274h-.33v-.662zm0 .662l-.66-.331.66-.33v.66zm10.248 7.272L.826 30.744l.331-.662 10.248 6.943.33.33-.66.661zm.662-.661v.992l-.662-.33.662-.662zm0-3.636v3.636h-.992v-3.636l.661-.33.33.33zm-.992 0v-.33h.661l-.661.33zm11.24.66H11.404v-.99h10.579l.33.33-.33.66zm.33-.66v.66h-.33l.33-.66zm0-6.943v6.943h-.661v-6.943l.33-.33.331.33zm-.33-.33h.33v.33l-.33-.33z" fill="#FEFEFE"/><path fill-rule="evenodd" clip-rule="evenodd" d="M37.52 15.207l-1.983.33v5.29l1.984.33v-5.95z" fill="#966100"/><path fill-rule="evenodd" clip-rule="evenodd" d="M35.868 16.86c.66 0 .991.66.991 1.322 0 .66-.33 1.322-.991 1.322s-1.323-.661-1.323-1.322c0-.662.662-1.323 1.323-1.323z" fill="#FEFEFE"/><path d="M35.868 16.86c.66 0 .991.66.991 1.322 0 .66-.33 1.322-.991 1.322s-1.323-.661-1.323-1.322c0-.662.662-1.323 1.323-1.323z" stroke="#966100" stroke-width=".899"/></svg>