<svg width="31" height="27" fill="none" xmlns="http://www.w3.org/2000/svg"><path d="M25.5547 0H6.80475C5.42656 0 4.30473 1.00907 4.30473 2.25002v2.25002h-.62502c-.34547 0-.62502.25159-.62502.56251s.27955.56252.62502.56252h2.50002c.34423 0 .62502.25212.62502.56252 0 .31034-.28079.56252-.62502.56252H4.92975c-.34547-.00011-.62502.25149-.62502.56241V10.125h-.62502c-.34547 0-.62502.2516-.62502.5625s.27955.5625.62502.5625h2.50002c.34423 0 .62502.2522.62502.5626 0 .3103-.28079.5624-.62502.5624H4.92975c-.34547 0-.62502.2516-.62502.5625V15.75h-.62502c-.34547 0-.62502.2516-.62502.5625 0 .311.27955.5626.62502.5626h2.50002c.34423 0 .62502.2521.62502.5625 0 .3103-.28079.5625-.62502.5625H4.92975c-.34547-.0001-.62502.2515-.62502.5624v2.8125h-.62502c-.34547 0-.62502.2516-.62502.5625s.27955.5625.62502.5625h2.50002c.34423 0 .62502.2521.62502.5625s-.28079.5626-.62502.5626H4.92975c-.34547-.0001-.62502.2515-.62502.5624v.5625c0 1.2409 1.12183 2.25 2.50002 2.25H25.5547c1.3782 0 2.5001-1.0091 2.5001-2.25V2.25002C28.0547 1.00907 26.9329 0 25.5547 0zm-1.25 17.8747c0 .6894-.6238 1.2503-1.3891 1.2503-7.5049 0-13.61089-5.4954-13.61089-12.24981 0-.6894.62379-1.25023 1.38909-1.25023h2.6734c.7654 0 1.3891.56083 1.3891 1.25023 0 .78116.1356 1.54744.4029 2.27855.1599.45594.028.94156-.3418 1.27446l-1.095 1.3123c.9412 1.5562 2.0447 2.5494 3.7866 3.4074l1.5234-1.0354c.3077-.283.8631-.4016 1.3599-.2478.8032.2384 1.6553.3609 2.5232.3609.7654 0 1.3891.5609 1.3891 1.2503v2.3988h.0001z" fill="#C4C4C4"/></svg>