<svg width="30" height="30" fill="none" xmlns="http://www.w3.org/2000/svg"><g clip-path="url(#clip0)"><path d="M0 21.39c0 1.839 1.49 3.329 3.33 3.329h23.34c1.839 0 3.33-1.49 3.33-3.33v-.172H0v.173z" fill="#222"/><path d="M10.376 12.44a.853.853 0 100-1.706.853.853 0 000 1.706z" fill="#000"/><path d="M26.67 5.28H3.33C1.49 5.28 0 6.77 0 8.61v8.857h30V8.609a3.33 3.33 0 00-3.33-3.329zm-5.344 6.582l-.85 1.219a.506.506 0 01-.41.214l-5.236.019c-.58 1.028-1.654 1.635-2.883 1.639-1.851.007-3.359-1.512-3.365-3.363a3.346 3.346 0 013.34-3.358 3.298 3.298 0 012.907 1.662l.683-.003c.08 0 .155.03.211.088a.295.295 0 01.088.21v.002a.252.252 0 00.432.177l.222-.225a.303.303 0 01.426-.002l.443.44a.3.3 0 00.423 0l.498-.5a.302.302 0 01.425 0l.5.498a.299.299 0 00.425 0l.455-.457a.302.302 0 01.457.037l.804 1.125a.5.5 0 01.005.578z" fill="#222"/></g><defs><clipPath id="clip0"><path fill="#fff" d="M0 0h30v30H0z"/></clipPath></defs></svg>