<svg width="30" height="31" fill="none" xmlns="http://www.w3.org/2000/svg"><g clip-path="url(#clip0)"><path fill-rule="evenodd" clip-rule="evenodd" d="M13.7599 1.50732c7.2934 0 13.2284 5.93504 13.2284 13.25788 0 7.3228-5.935 13.2283-13.2284 13.2283-7.32279 0-13.257825-5.9055-13.257825-13.2283 0-7.32284 5.935035-13.25788 13.257825-13.25788z" fill="#FEFEFE"/><path d="M27.4903 14.7655h-1.004v-.6792l-.059-.6201-.0886-.6496-.0886-.62-.1476-.6201-.1772-.6201-.2067-.5905-.2362-.56107-.2362-.56103-.2953-.56102-.2953-.5315-.3248-.53149-.3543-.50197-.3839-.47244-.4133-.47244-.4134-.44292-.4429-.41338-.4725-.38386-.4724-.38386-.502-.35433-.5315-.35433-.5315-.29527-.5315-.26575-.561-.26575-.5906-.23622-.5905-.20669-.5906-.14764-.62-.14764-.6496-.11811-.6201-.08858-.6496-.02953-.6496-.02953V1.00562l.7086.02952.6792.05906.6791.05905.6791.14764.6792.14764.6496.17716.6496.2067.6201.26574.5905.26575.6201.29528.561.35433.561.35433.5315.38386.5315.38386.502.44291.4724.44291.4429.50197.443.50197.4133.50197.3839.53149.3543.56103.3248.59055.2953.59055.2953.59055.2362.64956.2067.6201.2067.6496.1476.6792.1181.6791.0886.6791.0591.7087v.7087zM13.76 28.4958v-1.004h.6496l.6496-.059.6201-.0886.6496-.0886.62-.1476.5906-.1772.5905-.2067.5906-.2067.561-.2657.5315-.2953.5315-.2953.5315-.3248.502-.3543.4724-.3839.4725-.4134.4429-.4133.4134-.4429.4133-.4725.3839-.4724.3543-.502.3248-.502.2953-.561.2953-.5315.2362-.561.2362-.5906.2067-.5905.1772-.5906.1476-.62.0886-.6497.0886-.62.059-.6496v-.6496h1.004v.7086l-.0591.6792-.0886.7086-.1181.6791-.1476.6497-.2067.6496-.2067.6496-.2362.62-.2953.6201-.2953.5906-.3248.561-.3543.561-.3839.5315-.4133.5315-.443.502-.4429.4724-.4724.4429-.502.443-.5315.4133-.5315.3839-.561.3543-.561.3248-.6201.2953-.5905.2953-.6201.2362-.6496.2067-.6496.2067-.6792.1476-.6791.1181-.6791.0886-.6792.0591H13.76zM.00012207 14.7655H1.00406v.6496l.05905.6496.08859.62.11811.6497.11811.62.17716.5906.2067.5905.23622.5906.23622.561.29527.5315.29528.561.35433.502.35433.502.35433.4724.41339.4725.41338.4429.44292.4133.47244.4134.47244.3839.50197.3543.53149.3248.5315.2953.53149.2953.59056.2657.56102.2067.59055.2067.62009.1772.6201.1476.62.0886.6201.0886.6496.059h.6792v1.004h-.7087l-.7087-.0591-.6791-.0886-.6791-.1181-.6792-.1476-.64957-.2067-.62007-.2067-.64961-.2362-.59055-.2953-.59055-.2953-.59055-.3248-.56103-.3543-.53149-.3839-.5315-.4133-.47244-.443-.50197-.4429-.44291-.4724-.44292-.502-.38385-.5315-.38386-.5315-.38386-.561-.3248-.561-.29528-.5906-.26575-.6201-.265746-.62-.206693-.6496-.177166-.6496-.177165-.6497-.11811-.6791-.0885828-.7086-.0295276-.6792-.02952753-.7086zM13.76 1.00562v1.00393l-.6792.02953-.6496.02953-.6201.08858-.62.11811-.6201.14764-.62009.14764-.59055.20669-.56102.23622-.59056.26575-.53149.26575-.5315.29527-.53149.35433-.50197.35433-.47244.38386-.47244.38386-.44292.41338-.41338.44292-.41339.47244-.35433.47244-.35433.50197-.35433.53149-.29528.5315-.29527.56102-.23622.56103-.23622.56107-.2067.5905-.17716.6201-.11811.6201-.11811.62-.08859.6496-.05905.6201v.6792H.00012207l.02952753-.7087.0295276-.7087.0885828-.6791.11811-.6791.177165-.6792.177166-.6496.206693-.6201.265746-.64956.26575-.59055.29528-.59055.3248-.59055.38386-.56103.38386-.53149.38385-.50197.44292-.50197.44291-.50197.50197-.44291.47244-.44291.5315-.38386.53149-.38386.56103-.35433.59055-.35433.59055-.29528.59055-.26575.64961-.26574.62007-.2067.64957-.17716.6792-.14764.6791-.14764.6791-.05905.7087-.05906.7087-.02952z" fill="#2887D2"/><path d="M4.31118 22.1473c5.22637.0295 3.72047.0591 12.37202 0 .3544-.561.2067-1.2992-.2362-2.4803-.3839-1.063-3.1299-1.2992-3.3366-1.4173-.2658-.1182-.4134-.3544-.4134-.6201v-.9744c.0591-.0591.1476-.1477.2067-.2658.3543-.5019.6496-1.063.8563-1.6535.4134-.1772.6496-.5906.6496-1.063v-1.1516c0-.2657-.0886-.5315-.2657-.7677v-1.5059c0-.1476.059-1.12206-.6201-1.88977-.5906-.67914-1.565-1.03347-2.8642-1.03347-1.1811 0-2.18504.17717-3.01181 1.09252-.67913.79725-.47244 1.68312-.47244 1.83072v1.5059c-.17717.2362-.26575.502-.26575.7677v1.1516c0 .3543.14764.6791.41339.9153.26574 1.0335.91535 1.8012 1.12204 2.067v.9449c0 .2657-.26574.5019-.50196.62l-2.53938.7677c-1.03346.443-1.1811 2.5394-1.09251 3.1595zM23.1869 8.3877h-6.5037v1.14306h6.5037V8.3877zM23.1869 14.116h-6.5037v1.143h6.5037v-1.143zM23.1869 11.3992h-6.5037v1.143h6.5037v-1.143zM23.1888 17.0979h-4.4682v1.1431h4.4682v-1.1431z" fill="#00AFEF"/><path d="M11.6339 23.5943c-3.12987 0-3.1594-3.1595-3.1594-3.1595 0 3.1004-3.18898 3.1595-3.18898 3.1595 2.59843.0295 3.07087 2.0078 3.15945 2.8346.02953.1772.02953.3248.02953.3543 0-.0295 0-.1771.02953-.3543.11811-.8268.6496-2.8051 3.12987-2.8346zM14.5276 26.0157c-2.4507 0-2.4803-2.4508-2.4803-2.4508 0 2.3918-2.48028 2.4508-2.48028 2.4508 1.00398 0 1.62398.3839 1.97838.8563.5019.6792.5019 1.5355.5019 1.624 0-.0885.0296-.9448.5611-1.624.3543-.4724.9448-.8563 1.9192-.8563zM13.0513 20.8189c-1.4764 0-1.5059-1.5355-1.5059-1.5355 0 1.4764-1.5059 1.5355-1.5059 1.5355.6201 0 .9744.2362 1.1811.5019.3248.4134.3248.9449.3248 1.004 0-.0591.0295-.5906.3543-1.004.2067-.2657.5906-.5019 1.1811-.5019h-.0295z" fill="#FFF212"/><path fill-rule="evenodd" clip-rule="evenodd" d="M28.2875 10.5432s-1.5059.8268-2.4508 1.8307c-.9449.9744-1.9488 2.9823-1.9488 2.9823s-1.9488-.3839-3.0118.2067c-1.0925.561-1.4173 2.2146-3.0118 3.0118-1.624.7973-4.7835 1.4764-4.7835 1.4764s.1476 1.7421 1.7717 2.9232c1.5945 1.2106 8.2086 5.0197 8.2086 5.0197s4.6359-4.6063 5.4331-6.6142c.7972-2.0078-.2067-3.0118-.5906-3.4252l-.4133-.3838s2.0078-3.0118 2.0078-4.6359c0-1.5944-.2067-2.185-1.2106-2.3917z" fill="#FEFEFE"/><path fill-rule="evenodd" clip-rule="evenodd" d="M27.0769 20.9073c-.4429-.1181-5.0787-2.7756-5.9646-3.1004-.059.0295-1.2992 1.4173-1.3877 1.5059-.1772.1476-.3249.2657-.502.3838-.9449.6497-1.9488 1.063-3.0709 1.3288-.1181.0295-.2362.059-.3543.0886-.0591.0295-.3248.059-.3543.0886l2.7755 1.9488c.0886.059.0591.059.1772 0 .2953-.1477.6496-.3248.9449-.502.6496-.3839 1.2697-.7972 1.8602-1.2697.0296-.0295.0886-.0886.1477-.1181l-.4134.4429c-.1772.2067-.4134.4429-.5906.6201-.2067.2362-.5315.561-.7677.7677-.1476.1772-.3543.3839-.502.5315-.0295.0295-.0885.0295-.0885.0886l1.5649 1.0925c.0591.0591.0591.0886.1477.0295.3838-.2362.7677-.4724 1.122-.7086l.7973-.5906c.059-.0295.2066-.1771.2657-.1771-.0295.0295-.0591.0885-.0886.1181-.0295.059-.059.0886-.1181.1181-.059.0886-.1181.1772-.2067.2657-.2362.3248-.5315.6496-.8268.9449-.0295.0591-.059.0886-.0885.1181-.0296.0591-.0886.0886-.1182.1181l-.2066.2363c0 .0295.9448.6791 1.0925.7972.059.0295.3248.2362.3838.2362.1181-.0886 1.0335-1.0334 1.1516-1.1516l.6496-.7381c.2658-.3248.561-.6496.8268-1.004.059-.0886 1.7126-2.4212 1.7421-2.5098z" fill="#FCBC44"/><path fill-rule="evenodd" clip-rule="evenodd" d="M25.6596 18.3385c.0295-.059.0886-.1476.0886-.2067l.6201-1.3287c.1181-.2657.2362-.5315.3543-.7677.3543-.7677.7087-1.565 1.063-2.3032.1476-.2657.2362-.5019.3838-.7677.0591-.1476.1181-.2657.0296-.4429-.0296-.1181-.1477-.2067-.2953-.2362-.3543-.0591-.4724.2657-.6201.4724l-2.687 4.0748c-.1181.1772-.3543.502-.4429.6496-.0591 0-.2953-.1476-.3543-.1771-.1182-.0591-.2363-.1477-.3544-.2067-.2067-.1181-.5019-.2953-.7086-.3544-.7087-.1476-1.2107.2658-1.3878.7087 0 .0295.2952.1772.3543.2067.1181.0886.2362.1476.3543.2067.2363.1476.502.2657.7382.4134.2067.1181 4.311 2.4212 4.3701 2.4508.1476-.2658.2362-.502.1772-.8859-.0591-.2657-.2067-.561-.3544-.7086-.2067-.2067-.3838-.2658-.6496-.4134-.1181-.0591-.2067-.1181-.3248-.2067-.0886-.0295-.2952-.1476-.3543-.1772z" fill="url(#paint0_linear)"/><path fill-rule="evenodd" clip-rule="evenodd" d="M25.6596 18.3386c.0591.0296.2657.1477.3543.1772.1181.0886.2067.1476.3248.2067.2658.1476.4429.2067.6496.4134.1477.1476.2953.4429.3544.7086.059.3839-.0296.6201-.1772.8859-.0591-.0296-4.1634-2.3327-4.3701-2.4508-.2362-.1477-.5019-.2658-.7382-.4134-.1181-.0591-.2362-.1181-.3543-.2067-.0591-.0295-.3543-.1772-.3543-.2067.1771-.4429.6791-.8563 1.3878-.7087.2067.0591.5019.2363.7086.3544.1181.059.2363.1476.3544.2067.059.0295.2952.1771.3543.1771.0886-.1476.3248-.4724.4429-.6496l2.687-4.0748c.1477-.2067.2658-.5315.6201-.4724.1476.0295.2657.1181.2953.2362.0886.1772.0295.2953-.0296.4429-.1476.2658-.2362.502-.3838.7677-.3543.7382-.7087 1.5355-1.063 2.3032-.1181.2362-.2362.5019-.3543.7677l-.6201 1.3287c0 .0591-.0591.1477-.0886.2067zm-4.6949-1.0334c-.0295.0885-.1476.2657-.1476.3248l.2953.1771c.059 0 .1476.0591.1771.0886l1.2697.7087c.502.2657.9744.5315 1.4764.8267.502.2658.9449.5315 1.4468.7973l1.0926.6201c.1181.059.2657.1476.3838.2067.0591.0295.3248.1771.3543.2067.0296-.0296 0 0 .0296-.0591l.0295-.0295c.0886-.1477.2067-.3839.2657-.5315.0591-.1181.0591-.1181.0886-.2362.0296-.1772.0591-.3839.0296-.5906-.0296-.2067-.1477-.5315-.2658-.7087-.1181-.1476-.2362-.2952-.3839-.4133-.1181-.0886-.1771-.0886-.2952-.1772l-.3544-.2067c-.0295 0-.0295 0-.059-.0295l-.2067-.0886 1.0039-2.1851c.0886-.2066.2363-.5314.3544-.7677.0295-.0886.059-.1476.0885-.2067l.1477-.2952c0-.0296.0295-.0591.0295-.0886l.1476-.2953c0-.0591.0296-.0886.0296-.1181.059-.0591.059-.1181.0886-.2067.0885-.1772.2067-.4134.2952-.5906.0296-.059.0591-.1181.0886-.1771.0886-.2362.2067-.4429.1772-.6792-.0295-.1771-.0886-.2952-.1772-.4133-.0886-.0886-.2362-.2067-.3543-.2363-.3839-.1476-.7973 0-.9744.3248l-2.6575 4.0158c-.1476.2362-.2953.4724-.4724.6791-.3248-.1771-.8268-.5019-1.1516-.561-.3544-.1181-.7677-.0591-1.0925.0886-.0296.0295-.0591.0295-.0886.059l-.2067.1182c-.0295.0295-.0295.0295-.0591.059-.1476.1476-.2067.1772-.3248.4134-.0295.0295-.1181.1476-.1181.1772z" fill="#4E7AB5"/><path fill-rule="evenodd" clip-rule="evenodd" d="M27.3131 21.2622l-.6201.9744c-.2066.2657-.3543.4724-.5314.7382-.1772.2657-.3544.4724-.5611.7086l-.7677.9744c-.0295.0296-.059.0591-.0886.0886 0 .0296 0 .0296-.0295.0296l-.7087.7972c-.0295.0295-.059.0591-.0885.0886l-.2067.2362-.3248.3248-.5611.5315c-.0295.0295-.059.0591-.0885.0886-.0886-.0591-.1772-.1181-.2658-.1772l-2.0965-1.4764c-.2657-.2067-.561-.4429-.8563-.62l-4.37-3.1004c-.0886-.0591-.1772-.1181-.2658-.1772l-.2657-.1772c-.0591-.0295-.2362-.1771-.2658-.2067.0296 0 .4134-.0295.4725-.0295.5019-.0886.7972-.1181 1.2992-.2362.2657-.0886.5019-.1476.7677-.2362.1181-.0591.2362-.0886.3839-.1477l.3543-.1476c.059-.0295.1181-.0591.1771-.0886l.502-.2362.9154-.5906c.1771-.1476.2657-.2362.4429-.3543l.2362-.2362c.0591-.0295.1476-.1476.2067-.1772.1772-.2067.0886-.059.1476-.0295.1477 0 .1772.1476.2067.2362-.0295 0-.1476.1477-.2952.2953-.1772.1476-.3839.3543-.443.3839-.1771.1476-.3248.2657-.5019.3838-.9449.6496-1.9488 1.063-3.0709 1.3288l-.3543.0885c-.0591.0296-.3248.0591-.3544.0886l1.1516.7973c.4725-.1772.9449-.3248 1.3878-.5611l1.8898-.9153-2.6575 1.9193.561.4134c.0886.059.502.3543.6201.2952.2953-.1476.6496-.3248.9449-.5019.6496-.3839 1.2697-.7973 1.8602-1.2697.0295-.0295.0886-.0886.1477-.1181l-.4134.4429c-.1772.2067-.4134.4429-.5906.6201-.2067.2362-.5315.561-.7677.7677-.1476.1772-.3543.3838-.502.5315-.0295.0295-.0885.0295-.0885.0886l1.5649 1.0925c.0591.059.0591.0886.1477.0295.3838-.2362.7677-.4724 1.122-.7086l.7972-.5906c.0591-.0295.2067-.1772.2658-.1772-.0295.0296-.0591.0886-.0886.1181-.0295.0591-.059.0886-.1181.1182-.0591.0885-.1181.1771-.2067.2657-.2362.3248-.5315.6496-.8268.9449-.0295.059-.059.0886-.0885.1181-.0296.059-.0886.0886-.1182.1181l-.2067.2362c0 .0296.9449.6792 1.0926.7973.059.0295.3248.2362.3838.2362.1181-.0886 1.0335-1.0335 1.1516-1.1516l.6496-.7382c.2658-.3248.561-.6496.8268-1.0039.1771-.2362.5315-.7677.8858-1.2402.3248-.4724.6496-.8858.7382-1.122.059.0295.3248.1771.3543.2067z" fill="#967A44"/><path fill-rule="evenodd" clip-rule="evenodd" d="M20.1084 18.4272c.0886-.0295.1476-.059.2362 0 .0591.0591.0591.1477.1181.2067.0296-.0295.1477-.1772.1772-.2067.0591-.059.1181-.1181.1476-.2067.0886-.0886.2658-.3248.3248-.4134l-.2952-.1771c0-.0591.1181-.2362.1476-.3248-.0295.0295-.0295.059-.0591.0886-.2066.2952-.3248.4724-.561.7677l-.2362.2657z" fill="#967A44"/></g><defs><linearGradient id="paint0_linear" x1="22.4465" y1="19.6431" x2="27.126" y2="13.3474" gradientUnits="userSpaceOnUse"><stop stop-color="#1CC8EB"/><stop offset=".631373" stop-color="#0E96E0"/><stop offset="1" stop-color="#0063D4"/></linearGradient><clipPath id="clip0"><path fill="#fff" transform="translate(0 .00146484)" d="M0 0h30.0003v30H0z"/></clipPath></defs></svg>