<svg width="30" height="30" fill="none" xmlns="http://www.w3.org/2000/svg"><path fill-rule="evenodd" clip-rule="evenodd" d="M5.803 2.519h18.433c.933 0 1.695.88 1.695 1.956v6.85c0 .138-.012.271-.035.4a6.863 6.863 0 00-2.257-1.078l.018-1.964c.016-1.793-7.422-2.403-7.654-.19-.059.56-.085 1.242-.091 1.45l-.41-.01a2.09 2.09 0 00-.325-.014l-.192.002-.192-.002c-.1 0-.17.002-.222.004a23.058 23.058 0 00-.09-1.43c-.232-2.213-7.67-1.603-7.654.19l.017 1.837a6.58 6.58 0 00-2.707 1.16 2.241 2.241 0 01-.028-.354v-6.85c0-1.077.762-1.957 1.694-1.957z" fill="#222"/><path fill-rule="evenodd" clip-rule="evenodd" d="M6.967 11.23c2.497-.383 5.991-.525 7.5-.565a2.09 2.09 0 01.325-.015l.193.003.192-.003c.2 0 .288.007.325.015 1.509.04 5.002.182 7.5.566 3.512.54 6.307 4.11 6.277 8.287-.013 1.85.04 3.15-.172 3.333-.371.322-1.39.257-1.404-.458-.005-.29.093-2.615-.106-3.318-.199-.703-.795-.871-1.285-.902-.397-.025-7.945-.01-10.79-.003v.003l-.461-.002h-.153l-.46.002v-.003c-2.846-.007-10.394-.022-10.792.003-.49.03-1.085.199-1.284.902-.199.703-.1 3.027-.106 3.318-.013.715-1.033.78-1.404.458-.212-.183-.159-1.483-.172-3.333-.03-4.177 2.765-7.747 6.277-8.287z" fill="#222"/><path fill-rule="evenodd" clip-rule="evenodd" d="M5.067 18.825h19.84a2.27 2.27 0 012.263 2.263v1.529a2.27 2.27 0 01-2.263 2.263H5.067a2.27 2.27 0 01-2.263-2.263v-1.529a2.27 2.27 0 012.263-2.263z" fill="#222"/><path fill-rule="evenodd" clip-rule="evenodd" d="M5.743 24.88h1.748v2.63H5.743v-2.63zm16.738 0h1.748v2.63H22.48v-2.63z" fill="#222"/><path d="M6.22 21.642h17.691" stroke="#fff" stroke-width=".003" stroke-miterlimit="2.613"/></svg>