<svg width="44" height="44" fill="none" xmlns="http://www.w3.org/2000/svg"><path d="M22 42.533c11.34 0 20.533-9.193 20.533-20.533C42.533 10.66 33.34 1.467 22 1.467 10.66 1.467 1.467 10.66 1.467 22c0 11.34 9.193 20.533 20.533 20.533z" fill="#FEFEFE" stroke="#2887D2" stroke-width="1.372" stroke-miterlimit="22.926"/><path d="M7.333 33.366c8.067 0 5.867.367 19.067 0 .733-.733.367-1.833-.367-3.666-.366-1.834-4.766-2.2-5.133-2.2-.367-.367-.367-.734-.367-1.1v-1.834c.734-.733 1.1-1.833 1.467-2.567.733-.366 1.1-1.1 1.1-1.833V18.7c0-.734-.367-1.1-.367-1.467v-2.2c0-.367 0-1.833-1.1-2.933-.733-1.1-2.566-1.467-4.4-1.467-1.833 0-3.3 0-4.766 1.467-1.1 1.466-.734 2.566-.734 2.933v2.2c-.366.366-.366.733-.366 1.466v1.467c0 .733.366 1.1.733 1.467.367 1.833 1.467 2.933 1.833 3.3v1.466c0 .367-.733.734-.733 1.1l-4.033 1.1c-1.834.734-1.834 4.034-1.834 4.767zM36.48 12.1H26.4v1.771h10.08V12.1zM36.48 20.9H26.4v1.772h10.08V20.9zM36.48 16.865H26.4v1.772h10.08v-1.772zM36.626 25.666H29.7v1.772h6.926v-1.772z" fill="#00AFEF"/><path fill-rule="evenodd" clip-rule="evenodd" d="M22.083.596c11.816 0 21.395 9.579 21.395 21.396 0 11.816-9.579 21.396-21.395 21.396-11.817 0-21.396-9.58-21.396-21.396C.687 10.175 10.266.596 22.083.596zm0 1.742c10.854 0 19.653 8.8 19.653 19.653 0 10.855-8.799 19.654-19.653 19.654-10.855 0-19.654-8.8-19.654-19.654s8.8-19.653 19.654-19.653z" fill="#2887D2"/></svg>