<svg width="44" height="44" fill="none" xmlns="http://www.w3.org/2000/svg"><path d="M19.25 34.375v5.5h5.5v-5.5" fill="#C3C6C7"/><path d="M30.938 39.875H13.063a.687.687 0 110-1.375h17.874a.687.687 0 110 1.375z" fill="#DADCDE"/><path d="M39.188 8.25H4.812A2.75 2.75 0 002.063 11v20.625a2.75 2.75 0 002.75 2.75h34.376a2.75 2.75 0 002.75-2.75V11a2.75 2.75 0 00-2.75-2.75z" fill="#8FBAD9"/><path d="M41.938 28.875v2.75a2.75 2.75 0 01-2.75 2.75H4.812a2.75 2.75 0 01-2.75-2.75v-2.75h39.876z" fill="#E1E3E6"/><path d="M37.813 28.875V5.5a1.375 1.375 0 00-1.376-1.375H7.564A1.375 1.375 0 006.188 5.5v23.375h31.625z" fill="#A3D4F7"/><path d="M37.813 5.5v4.125H6.186V5.5a1.375 1.375 0 011.375-1.375h28.875A1.375 1.375 0 0137.813 5.5z" fill="#3397E8"/><path d="M23.375 32.313h-2.75a.687.687 0 110-1.376h2.75a.687.687 0 110 1.375z" fill="#C3C6C7"/><path d="M26.125 12.375h2.75v2.75h-2.75v-2.75zM20.625 12.375h2.75v2.75h-2.75v-2.75zM15.125 12.375h2.75v2.75h-2.75v-2.75zM31.625 12.375h2.75v2.75h-2.75v-2.75zM15.125 17.875h2.75v2.75h-2.75v-2.75zM15.125 23.375h2.75v2.75h-2.75v-2.75zM26.125 23.375h2.75v2.75h-2.75v-2.75zM9.625 23.375h2.75v2.75h-2.75v-2.75zM9.625 17.875h2.75v2.75h-2.75v-2.75zM20.625 23.375h2.75v2.75h-2.75v-2.75z" fill="#3397E8"/><path d="M11 7.563H9.625a.688.688 0 110-1.375H11a.687.687 0 010 1.375zM34.375 7.563H33a.687.687 0 010-1.375h1.375a.687.687 0 010 1.375zM25.438 7.563h-6.875a.687.687 0 010-1.375h6.875a.687.687 0 010 1.375z" fill="#A3D4F7"/><path d="M20.625 21.313a.687.687 0 01-.486-1.174l2.75-2.75a.687.687 0 11.972.972l-2.75 2.75a.687.687 0 01-.486.201z" fill="#266FAB"/><path d="M23.375 21.313a.687.687 0 01-.486-.202l-2.75-2.75a.687.687 0 11.972-.972l2.75 2.75a.687.687 0 01-.486 1.174zM26.125 21.313a.687.687 0 01-.486-1.174l2.75-2.75a.687.687 0 11.972.972l-2.75 2.75a.687.687 0 01-.486.201z" fill="#266FAB"/><path d="M28.875 21.313a.686.686 0 01-.486-.202l-2.75-2.75a.687.687 0 11.972-.972l2.75 2.75a.687.687 0 01-.486 1.174zM31.625 21.313a.687.687 0 01-.486-1.174l2.75-2.75a.687.687 0 11.972.972l-2.75 2.75a.687.687 0 01-.486.201z" fill="#266FAB"/><path d="M34.375 21.313a.687.687 0 01-.486-.202l-2.75-2.75a.687.687 0 11.972-.972l2.75 2.75a.687.687 0 01-.486 1.174z" fill="#266FAB"/></svg>