<svg width="30" height="31" fill="none" xmlns="http://www.w3.org/2000/svg"><path d="M26.036.338L2.257 4.018c-.48.074-.792.683-.696 1.36l1.756 12.37c.096.677.564 1.166 1.044 1.091l23.78-3.68c.48-.074.791-.683.695-1.36L27.08 1.43C26.984.752 26.517.264 26.036.338z" fill="#FFCC29"/><path d="M28.376 6.35H3.72c-.489 0-.885.647-.885 1.446V22.59c0 .799.396 1.447.885 1.447h24.656c.49 0 .886-.648.886-1.447V7.796c0-.799-.397-1.446-.886-1.446z" fill="#1CC8EB"/><path d="M28.376 7.652H3.72c-.489 0-.885.648-.885 1.447v14.793c0 .8.396 1.447.885 1.447h24.656c.49 0 .886-.647.886-1.447V9.1c0-.799-.397-1.447-.886-1.447z" fill="#2887D2"/><path d="M15 12.61c0-.768.266-1.388.768-1.86.502-.502 1.151-.738 1.948-.738.827 0 1.506.236 2.008.708.502.473.739 1.122.739 1.95v.62c0 .767-.237 1.417-.739 1.889-.502.473-1.18.709-1.978.709-.827 0-1.476-.236-1.978-.739-.502-.472-.768-1.092-.768-1.919v-.62zm1.654.68c0 .354.118.649.324.856.177.206.443.324.768.324s.59-.118.768-.324a1.45 1.45 0 00.295-.886v-.65c0-.354-.118-.62-.295-.856-.177-.207-.443-.325-.797-.325-.296 0-.561.118-.768.325-.177.207-.296.502-.296.886v.65zm4.37 6.407c0-.797.236-1.418.767-1.89.502-.472 1.152-.709 1.95-.709.826 0 1.476.237 1.977.709.532.472.768 1.122.768 1.949v.62c0 .768-.236 1.388-.738 1.86-.502.473-1.152.709-1.978.709-.827 0-1.506-.236-2.008-.709-.502-.472-.738-1.122-.738-1.89v-.65zm1.653.679c0 .325.118.59.325.827.207.236.443.325.768.325.708 0 1.063-.384 1.063-1.182v-.65c0-.354-.118-.649-.296-.856a1.09 1.09 0 00-.797-.324c-.325 0-.56.118-.768.325-.206.206-.295.501-.295.856v.679zm-4.429 1.476l-1.24-.679 6.142-9.832 1.24.65-6.142 9.861z" fill="#FFF212"/><path d="M11.87 7.652V25.34" stroke="#FFF212" stroke-width=".176" stroke-dasharray="0.88 0.53"/><path d="M9.655 9.568H5.05v13.82h4.606V9.567z" fill="#1CC8EB"/><path fill-rule="evenodd" clip-rule="evenodd" d="M7.057 14.943c3.484 0 6.29 2.835 6.29 6.32 0 3.483-2.806 6.318-6.29 6.318a6.307 6.307 0 01-6.319-6.319 6.307 6.307 0 016.32-6.319zm4.252 6.23c.03 1.92-1.21 4.105-4.134 4.37-2.953.237-4.488-2.037-4.606-4.37-.236-4.576 8.622-6.23 8.74 0z" fill="#F0A71F"/><path fill-rule="evenodd" clip-rule="evenodd" d="M11.398 24.01l4.015 4.015c.532.532-.856 2.038-1.417 1.477l-3.986-3.986c-.65-.65.797-2.097 1.388-1.506z" fill="#F0A71F"/><path d="M6.939 25.545a4.37 4.37 0 100-8.74 4.37 4.37 0 000 8.74z" fill="url(#paint0_radial)"/><defs><radialGradient id="paint0_radial" cx="0" cy="0" r="1" gradientUnits="userSpaceOnUse" gradientTransform="translate(6.94 21.17) scale(4.23837)"><stop stop-color="#FEFEFE"/><stop offset=".651" stop-color="#E7F4FA"/><stop offset="1" stop-color="#D1EBF7"/></radialGradient></defs></svg>