<svg width="30" height="31" fill="none" xmlns="http://www.w3.org/2000/svg"><path d="M23.71.414H4.667c-.881 0-1.595.767-1.595 1.713v11.28c0 .945.714 1.712 1.595 1.712H23.71c.88 0 1.594-.767 1.594-1.713V2.126c0-.945-.714-1.712-1.594-1.712z" fill="#4E8AC8"/><path fill-rule="evenodd" clip-rule="evenodd" d="M23.297 22.737l.856 1.949h1.83l.621-2.038-3.307.089z" fill="#2887D2"/><path fill-rule="evenodd" clip-rule="evenodd" d="M23.859 23.061l.56 1.3h1.211l.443-1.359-2.214.059z" fill="#FEFEFE"/><path fill-rule="evenodd" clip-rule="evenodd" d="M1.624 22.263l1.27 2.923h2.745l.945-3.041-4.96.118z" fill="#306FB6"/><path fill-rule="evenodd" clip-rule="evenodd" d="M2.451 22.737l.856 1.949H5.11l.65-2.008-3.308.059z" fill="#FEFEFE"/><path fill-rule="evenodd" clip-rule="evenodd" d="M2.273 15.945h24.45c.176 0 1.446.65 1.446 1.21v5.08a.99.99 0 01-.974 1.004H1.329c-.532 0-.945-.443-.945-1.004v-4.96c0-.562 1.358-1.33 1.89-1.33z" fill="#306FB6"/><path fill-rule="evenodd" clip-rule="evenodd" d="M3.07 10.394l-2.686 6.88 27.785-.119-2.923-6.909-22.175.148z" fill="#306FB6"/><path fill-rule="evenodd" clip-rule="evenodd" d="M3.484 11.015l-2.48 6.023 26.515-.118-2.716-6.053-21.319.148zM4.696 6.498s-.266-.561 0-.738c.236-.178.708-.178.944-.119.266.09.355.207.355.207s.177-.236.62-.236c.384 0 2.244-.089 2.746-.06.502-.029 2.392.06 2.746.06.443 0 .62.236.62.236s.118-.118.354-.207c.266-.059.709-.059.975.119.236.177 0 .738 0 .738s-.266.059-.384.295c-.118.207 0 2.982 0 2.982l.325.118c.295.119.177.532.059.68-.118.177-.945-.207-1.004-.089-.06.089-.797.06-.797.06H6.497s-.738.029-.798-.06c-.088-.118-.885.266-1.003.089-.148-.148-.266-.561.059-.68l.295-.118s.148-2.775 0-2.982a.593.593 0 00-.354-.295zM14.675 6.498s-.266-.561 0-.738c.236-.178.708-.178.974-.119.236.09.325.207.325.207s.207-.236.62-.236c.384 0 2.244-.089 2.746-.06.502-.029 2.392.06 2.746.06.443 0 .65.236.65.236s.088-.118.325-.207c.265-.059.738-.059.974.119.236.177 0 .738 0 .738s-.236.059-.384.295c-.118.207 0 2.982 0 2.982l.325.118c.295.119.177.532.059.68-.118.177-.945-.207-1.004-.089-.06.089-.797.06-.797.06h-5.758s-.738.029-.797-.06c-.06-.118-.886.266-1.004.089-.118-.148-.266-.561.059-.68l.295-.118s.148-2.775 0-2.982a.593.593 0 00-.354-.295z" fill="#FEFEFE"/><path d="M21.525 29.587a8.09 8.09 0 100-16.18 8.09 8.09 0 000 16.18z" fill="url(#paint0_linear)"/><path d="M15.65 22.029c-.09-.798 0-1.565.206-2.303.708-2.392 2.894-4.134 5.492-4.164v-1.565c0-.088.118-.147.177-.088l3.219 2.362c.059.059.059.118 0 .177l-3.19 2.362c-.088.03-.206 0-.206-.088v-1.565c-1.713.03-3.16 1.092-3.809 2.569a4.42 4.42 0 00-.325 1.86c.06.886.384 1.712.945 2.391a.813.813 0 01-.177 1.152c-.354.266-.827.177-1.093-.148a5.53 5.53 0 01-1.24-2.952zm9.3-2.983c.532.65.857 1.506.916 2.392.03.65-.089 1.27-.325 1.83-.65 1.507-2.096 2.57-3.81 2.6v-1.566c0-.088-.117-.147-.176-.088l-3.219 2.362c-.059.059-.059.118 0 .177l3.219 2.362c.059.03.177 0 .177-.088v-1.565c2.598-.03 4.783-1.802 5.492-4.193a5.903 5.903 0 00.207-2.303 5.535 5.535 0 00-1.24-2.924c-.266-.324-.739-.413-1.093-.147a.784.784 0 00-.148 1.151z" fill="#FEFEFE"/><path d="M5.878 12.992h-1.98v1.98h1.98v-1.98zM9.716 12.992h-1.98v1.98h1.98v-1.98zM13.554 12.992h-1.98v1.98h1.98v-1.98z" fill="#FC4D44"/><defs><linearGradient id="paint0_linear" x1="16.678" y1="14.971" x2="26.397" y2="28.047" gradientUnits="userSpaceOnUse"><stop stop-color="#1CC8EB"/><stop offset=".631" stop-color="#0E96E0"/><stop offset="1" stop-color="#0063D4"/></linearGradient></defs></svg>