<svg width="40" height="40" fill="none" xmlns="http://www.w3.org/2000/svg"><path fill-rule="evenodd" clip-rule="evenodd" d="M9 5.168h19v26.333H9V5.168z" fill="#FEFEFE"/><path d="M28 5.502H9v-1h19l.333.667-.333.333zm0-1h.333v.667L28 4.502zm-.667 27V5.169h1v26.333l-.333.667-.667-.667zm1 0v.667H28l.333-.667zM9 30.835h19v1.334H9l-.667-.667.667-.667zm0 1.334h-.667v-.667l.667.667zm.667-27v26.333H8.333V5.169L9 4.502l.667.667zm-1.334 0v-.667H9l-.667.667z" fill="#966100"/><path fill-rule="evenodd" clip-rule="evenodd" d="M39.334 2.168L28 5.168v26.333l11.334 2.667v-32z" fill="#FEFEFE"/><path d="M27.667 4.502l11.333-3 .333 1.333-11.333 3-.667-.666.334-.667zm-.334.667v-.667h.334l-.334.667zm0 26.333V5.169h1v26.333l-.666.667-.334-.667zm.334.667l-.334-.334v-.333l.334.667zM39 34.835L27.667 32.17 28 30.835l11.333 2.667.667.667-1 .666zm1-.666v1l-1-.334 1-.666zm0-32v32h-1.333v-32L39 1.502l1 .667zm-1-.667h1v.667l-1-.667z" fill="#966100"/><path d="M22 26.835H11.333v-3.667L1 30.501l10.333 7v-3.666H22v-7z" fill="#D40000"/><path d="M11.333 26.168H22v1.333H11.333l-.666-.666.666-.667zm0 1.333h-.666v-.666l.666.666zM12 23.168v3.667h-1.333v-3.667l.333-.333 1 .333zm-1-.333l1-.667v1l-1-.333zm-10.333 7l10.333-7 .667 1-10.334 7H.667v-1zm0 1L0 30.5l.667-.666v1zM11 38.168L.667 30.835l.666-1 10.334 7L12 37.5l-1 .667zm1-.667v1.334l-1-.667 1-.667zm0-3.666V37.5h-1.333v-3.666l.666-.667.667.667zm-1.333 0v-.667h.666l-.666.667zM22 34.5H11.333v-1.333H22l.667.667L22 34.5zm.667-.666v.666H22l.667-.666zm0-7v7h-1.334v-7l.667-.667.667.667zM22 26.168h.667v.667L22 26.168z" fill="#FEFEFE"/><path fill-rule="evenodd" clip-rule="evenodd" d="M37.667 15.168l-2.334.667v5l2.334.333v-6z" fill="#966100"/><path fill-rule="evenodd" clip-rule="evenodd" d="M35.667 17.168c.666 0 1.333.333 1.333 1s-.667 1.333-1.333 1.333c-.667 0-1.334-.666-1.334-1.333 0-.667.667-1 1.334-1z" fill="#FEFEFE"/><path d="M35.667 17.168c.666 0 1.333.333 1.333 1s-.667 1.333-1.333 1.333c-.667 0-1.334-.666-1.334-1.333 0-.667.667-1 1.334-1z" stroke="#966100" stroke-width=".894"/><path d="M9.667 21.836h10.666c.334-.667.334-1 0-2.333-.333-.667-3-1-3-1-.333 0-.333-.334-.333-.667v-.667-.333c.333-.333.667-1 1-1.333.333-.334.333-.667.333-1v-1-2s0-1-.666-1.667c-.667-.667-1.334-1-2.334-1-1.333 0-2 0-2.666 1C12 10.503 12 11.503 12 11.503v3c0 .333 0 .666.333.666.334 1 .667 1.667 1 2v.667c0 .333-.333.333-.666.667l-2 .666c-1 .334-1 2-1 2.667z" fill="#2887D2"/><path d="M20 21.502l.667.333-.334.334H9.667v-.667H20.333 20zm.667.333v.334h-.334l.334-.334zm-.667-2l.667-.333v1H21v1.333h-.333L20 21.502h.333v-.667L20 20.502v-.667zm-3-1l.333-.666h1l.334.333h.666l.334.333H20v.334h.333v.333h.334l-.667.333-.333-.333h-.334v-.333h-1v-.334H17zm-.333-1h.666v.334l-.333.666v-.333h-.333v-.667zm.666-.666v.666h-.666v-1l.666.334zm-.666 0v-.334.334zm.333-.667l.333.667-.666-.334v-.333H17zm0 0h-.333H17zm.667-1.333l.333.666.333-.333H18v.667l-.333.333v.333h-.334v.334L17 16.502v-.333h.333v-.667l.334-.333zm.333-.667h.667v.667l-.334.333H18v.333l-.333-.666.333-.334v-.333zm.667-1v1H18v-1h.667zM18 12.835h.667l-.334-.333h.334v1H18v-.667zm0 .334v-.334.334zm.667-1.667v1.333H18v-1.333h.667zm-1.334-1.333L18 9.502v.333h.333v1h.334v.667H18v-.333l-.333-.334v-.666h-.334zm-2-1v-.667H16v.333h1l.333.334h.334v.333H18l-.667.667v-.334H17v-.333h-1l-.333-.333h-.334zm-2.333 1l-.667-.334v-.333h.334v-.333H13v-.334h1v-.333h1.333v.667h-1v.333h-1v.333H13v.334zm-.333 1.333h-1v-1H12v-.667h.333l.667.334h-.333v.666h-.334v.667h.334zm-1 1.333v-1.333h1v1.333l-.334.334-.666-.334zm1 0l-.334.334.334-.334zm-.334.667h-.666v-.667l.333-.333.333.667v.333zm-.666 1v-1h.666v1h-.666zm1 .667l-.667.333v-.333h-.333v-.667h.666v.333h.334v.334zm0-.334v.334-.334zm1 2.334h-1v-.667h-.334v-.333L12 15.835v-.333l.667-.333v.666H13v.334l.333.333v.333h.334v.334zm0-.334v.334-.334zm-.667 1v-.666h.667v.666H13zm0 1l-.333-.666v-.334h1v.334h-.334v.333H13v.333zm-2.333 0l2-.666.333.666-2.333.667-.334-.667h.334zm-.334 0h.334-.334zm-.666 2.667v.667l-.334-.334V20.17h.334v-.667l.333-.333v-.334h.333l.334.667h-.334v.667l-.333.333v1.333l-.333-.333zm0 .667h-.334v-.334l.334.334z" fill="#FEFEFE"/><path d="M16.334 21.836H27c.334-.667.334-1-.333-2.333-.334-.667-2.667-1-2.667-1-.333 0-.333-.334-.333-.667v-.667-.333c.333-.333.666-1 .666-1.333.334-.334.667-.667.667-1v-1c0-.334 0-.667-.333-.667v-1.333s.333-1-.334-1.667c-.666-.667-1.333-1-2.666-1-1 0-1.667 0-2.667 1-.333.667-.333 1.667-.333 1.667v1.333s-.334.333-.334.667v1c0 .333.334.666.667.666 0 1 .667 1.667 1 2v.667c0 .333-.333.333-.666.667l-2 .666c-1 .334-1 2-1 2.667z" fill="#2887D2"/><path d="M26.667 21.502l.666.333-.333.334H16.333v-.667H27h-.333zm.666.333v.334H27l.334-.334zm-1-2l.667-.333.334.333v1h.333v.667h-.334v.333l-.666-.333v-1.667h-.334zm-2.666-1L24 18.17h1v.333h1v.333h.667v.334H27v.333l-.666.333v-.333H26v-.333h-1v-.334h-1.333zm-.334-1H24v.334l-.333.666v-.333h-.334v-.667zM24 17.17v.666h-.666v-1l.666.334zm-.666 0v-.334.334zm0-.667l.666.667h-.333l-.334-.334v-.333zm1-1.333l.333.666v-.333.667h-.334v.666H24v.334l-.666-.667h.333v-.667H24v-.666h.334zm-.334 0h.334H24zm.667-.667h.666v.667H25v.333h-.333v.333l-.334-.666v-.334h.334v-.333zm.666-1v1h-.666v-1h.666zm-1-.667H25v-.333.333h.334v.667h-.667v-.333l-.334-.334zm.334.334l-.334-.334.334.334zM25 11.502v1.333h-.666v-1.333H25zm-1-1.333l.667-.667v.667H25v1.333h-.666v-1L24 10.169zm-2.333-1v-.667h1v.333h1v.334h.667v.333h.333l-.667.667v-.334h-.333l-.334-.333h-1v-.333h-.666zm-2.334 1L19 9.835v-.333h.334v-.333h.333v-.334h1v-.333h1v.667H21l-.333.333H20v.333h-.333l-.334.334zM19 11.502h-.666v-1l.333-.333v-.334H19l.334.334v.333H19v1zm-.666 1.333v-1.333H19v1.667l-.666-.334zm.666 0v.334-.334zm0 .667h-1v-.333h.334v-.667l.666.667v.333zm-1 1v-1h1v1h-1zm1.334.667l-.667.333h-.334v-.667H18v-.333h1v.333l.334.334zM19 14.835l.334.334-.334-.334zm1.334 2.334h-1 .333-.334v-.334H19v-.666h-.333v-.667l.666-.333v.666h.334v.667H20v.333l.334.334zM20 16.835h.334v.334L20 16.835zm-.666 1v-.666h1v.666h-1zm.333 1l-.334-.666v-.334h1L20 18.17v.333h-.333v.333zm-2.667 0l2.334-.666.333.666-2.334.667-.333-.667zm-.666 2.667v.667L16 21.835v-2h.334v-.666h.333v-.334H17l.334.667H17v.667h-.333v1.666l-.334-.333zm0 .667H16v-.334l.334.334z" fill="#FEFEFE"/><path d="M13 23.837c4.333.333 3.333.333 10.667 0 .333-.334.333-1 0-2-.667-1-3-1-3-1.334-.334 0-.334-.333-.334-.333v-1c.334-.667.667-1 .667-1.667.667 0 .667-.333.667-1v-1s0-.333-.334-.666v-1c.334-.334.334-1-.333-1.667s-1.333-1-2.667-1c-1 0-1.666 0-2.333 1-.667.667-.667 1.333-.667 1.667v2.666c0 .334 0 .667.334 1 0 .667.666 1.667 1 1.667v1s-.334.333-.667.333l-2 .667c-1 .333-1 2.333-1 2.667z" fill="#2887D2"/><path d="M23.333 23.836l.667.333-.333.334H13v-1h2.333v.333H20.667l.666-.333h2.334l-.334.333zm.667.333v.334h-.333l.333-.334zm-.667-2.333H24v1h.333v1H24v.333l-.667-.333v-.333h.334v-.334h-.334v-1.333zm-3-1l.334-.667.333.334h1.333v.333H23l.333.333h.334v.667H23v-.333h-1v-.334h-1.333v-.333h-.334zM20 20.169h.667l-.334.667H20v-.667zm.667-1v1H20v-1h.667zM20 18.836l.667.333v.334L20 19.169v-.333zm1-1.667l.333.667v.667H21v.333l-.333.333-.667-.333h.333v-.667h.334v-.666l.333-.334zm-.333.334l.333-.334-.333.334zm.666-1H22v1h-.333v.333h-.334L21 17.169h.333v-.666zm.667-1v1h-.667v-1H22zm-1-.667h1-.333H22v.667h-.667v-.334L21 14.836zm.333.333H21v-.333l.333.333zM22 13.836v1h-1v-1.333l1 .333zm-1 0v-.333.333zm-.333-1.667l.666-.333v.333h.334v1H22v.667l-1-.333v-1h-.333v-.334zm-2.334-.666v-.667H20v.333h.667v.334H21v.333h.333l-.666.333h-.334v-.333h-.666v-.333h-1.334zM16 12.169l-.333-.333.333-.333.333-.334h.334v-.333h1.666v.667H17v.333h-.667v.333H16zm-.333 1.667H15v-1l.333-.333v-.334l.334-.333.333.333v.667h-.333v1zm0-.333v.333-.333zM15 14.836v-1h.667v1.333L15 14.836zm.667 0v.333-.333zm0 .667H15v-.667h.333l.334.333v.334zm-.667 1v-1h.667v1H15zm1 1h-.667v.333-.333H15v-1h.667v.666l.333.334zm-.333-.334H16v.334l-.333-.334zm1.333 2h-.667v.334L16 19.169v-.333h-.333v-.667h-.334v-.666H16v.333l.333.333v.334h.334v.666H17zm-.333 0H17h-.333zm-.334 1v-1H17v1h-.667zm0 .667L16 20.169h1l-.333.334v.333h-.334zm-2.666 0L16 20.169l.333.667-2.333.667-.333-.667zM13 23.503v1l-.333-.334v-2H13v-.666h.333v-.334h.334v-.333l.333.667v.333h-.333v.333l-.334.334v1.333L13 23.503zm0 1h-.333v-.334l.333.334z" fill="#FEFEFE"/></svg>