<svg width="30" height="30" fill="none" xmlns="http://www.w3.org/2000/svg"><path fill-rule="evenodd" clip-rule="evenodd" d="M28.654 11.888l-1.307-7.225a2.507 2.507 0 00-2.012-2.012L18.11 1.344a2.498 2.498 0 00-2.21.692L2.009 15.928a2.5 2.5 0 000 3.53l8.531 8.532c.487.486 1.126.73 1.765.73.64 0 1.279-.244 1.766-.73l13.892-13.893a2.497 2.497 0 00.692-2.21v0z" fill="#222" stroke="#000" stroke-width=".003" stroke-miterlimit="22.926"/><path fill-rule="evenodd" clip-rule="evenodd" d="M26.826 12.961L12.934 26.854a.89.89 0 01-1.257 0l-8.53-8.532a.89.89 0 010-1.256L17.038 3.173a.89.89 0 01.786-.246l7.225 1.307c.363.065.65.353.716.716l1.306 7.225a.89.89 0 01-.246.786z" fill="#222" stroke="#000" stroke-width=".003" stroke-miterlimit="22.926"/><path fill-rule="evenodd" clip-rule="evenodd" d="M11.504 21.738l-1.242-1.242.727-.727a.268.268 0 00.082-.255.49.49 0 00-.14-.255.501.501 0 00-.267-.147.27.27 0 00-.253.08l-.727.727-.813-.814 1.247-1.247a.264.264 0 00.07-.262.618.618 0 00-.176-.297.61.61 0 00-.284-.168.262.262 0 00-.265.072l-1.67 1.67a.605.605 0 00-.172.292.27.27 0 00.075.267l3.057 3.058c.074.074.168.094.282.06a.773.773 0 00.325-.205.776.776 0 00.204-.325c.034-.114.014-.207-.06-.281v0zm4.041-4.302a.206.206 0 00-.11-.063l-1.652-.477c.238-.539.106-1.059-.395-1.56-.687-.686-1.425-.635-2.214.155l-.997.997a.311.311 0 00-.099.233.313.313 0 00.094.224l3.062 3.062c.074.074.168.094.282.06a.773.773 0 00.325-.204.774.774 0 00.204-.325c.034-.114.014-.208-.06-.282l-1.16-1.16.318-.318 1.94.62c.141.046.268.012.38-.1a.701.701 0 00.195-.446c.018-.184-.02-.323-.113-.416v0zm2.844-2.314a.61.61 0 00-.169-.284.617.617 0 00-.296-.176.265.265 0 00-.262.07l-1.29 1.29-.82-.818.723-.722a.269.269 0 00.082-.255.49.49 0 00-.14-.256.5.5 0 00-.267-.146.271.271 0 00-.253.079l-.722.722-.814-.814 1.29-1.29a.264.264 0 00.07-.262.617.617 0 00-.175-.296.61.61 0 00-.284-.169.262.262 0 00-.265.072l-1.714 1.714a.605.605 0 00-.17.292.27.27 0 00.074.267l3.057 3.057a.269.269 0 00.267.075.603.603 0 00.291-.171l1.714-1.714a.262.262 0 00.073-.265h0zm2.596-2.594a.61.61 0 00-.169-.284.618.618 0 00-.296-.175.265.265 0 00-.262.07l-1.29 1.29-.82-.819.723-.722a.268.268 0 00.082-.255.49.49 0 00-.14-.255.501.501 0 00-.267-.147.271.271 0 00-.253.08l-.722.721-.814-.813 1.29-1.29a.264.264 0 00.07-.263.618.618 0 00-.175-.296.61.61 0 00-.284-.169.262.262 0 00-.265.073l-1.714 1.714a.605.605 0 00-.17.29.27.27 0 00.074.268l3.057 3.057a.27.27 0 00.267.075.603.603 0 00.291-.17l1.715-1.715a.262.262 0 00.072-.265h0zM23.66 6.32a2.203 2.203 0 00-3.113 0 2.203 2.203 0 000 3.113c.429.429.993.643 1.556.643.564 0 1.127-.214 1.556-.643.416-.416.645-.969.645-1.556 0-.588-.229-1.141-.645-1.557h0z" fill="#FEFEFE" stroke="#000" stroke-width=".003" stroke-miterlimit="22.926"/><path fill-rule="evenodd" clip-rule="evenodd" d="M12.686 17.039l-.477.476-.895-.895.476-.477c.142-.141.284-.214.427-.219.142-.005.294.073.454.233.161.161.239.313.234.455-.005.143-.078.285-.219.427zm9.8-8.747a.594.594 0 11-.838-.84.594.594 0 01.838.84h0z" fill="#222" stroke="#000" stroke-width=".003" stroke-miterlimit="22.926"/></svg>