<svg xmlns="http://www.w3.org/2000/svg" width="120" height="120" xmlns:xlink="http://www.w3.org/1999/xlink" shape-rendering="geometricPrecision" text-rendering="geometricPrecision" image-rendering="optimizeQuality" fill-rule="evenodd" clip-rule="evenodd"><defs><linearGradient id="id0" gradientUnits="userSpaceOnUse" x1="16.741" y1="77.311" x2="29.331" y2="60.372"><stop offset="0" stop-color="#1cc8eb"/><stop offset=".631" stop-color="#0e96e0"/><stop offset="1" stop-color="#0063d4"/></linearGradient><linearGradient id="id1" gradientUnits="userSpaceOnUse" xlink:href="#id0" x1="109.161" y1="76.375" x2="115.531" y2="67.805"/><linearGradient id="id2" gradientUnits="userSpaceOnUse" xlink:href="#id0" x1="90.373" y1="76.11" x2="100.583" y2="62.374"/><linearGradient id="id3" gradientUnits="userSpaceOnUse" xlink:href="#id0" x1="75.4" y1="76.35" x2="81.736" y2="67.827"/><linearGradient id="id4" gradientUnits="userSpaceOnUse" x1="99.148" y1="28.844" x2="92.019" y2="60.528"><stop offset="0" stop-color="#1cc8eb"/><stop offset=".451" stop-color="#0e96e0"/><stop offset="1" stop-color="#0063d4"/></linearGradient><linearGradient id="id5" gradientUnits="userSpaceOnUse" xlink:href="#id0" x1="50.989" y1="111.393" x2="69.013" y2="87.144"/><style>.fil11,.fil9{fill:#fefefe}.fil8{fill:#2887d2}.fil5{fill:#f9d0b4}.fil10,.fil4{fill:#fefefe;fill-rule:nonzero}.fil10{fill:#2887d2}</style></defs><g id="Layer_x0020_1"><path fill="none" d="M0 0h120v120H0z"/><g id="_492146608"><path d="M120 60h-2v-6l-1-3v-3l-1-2-1-3-1-3-1-3-1-2-1-3-1-2-2-2-2-3-1-2-2-2-2-2-2-2-2-2-2-1-3-2-2-2-2-1-3-1-2-1-3-1-3-1-3-1-2-1h-3l-3-1h-6V0h6l3 1h3l3 1 3 1 3 1 2 1 3 1 3 1 2 2 3 1 2 2 2 2 2 2 2 2 2 2 2 2 2 2 2 2 1 3 2 2 1 3 1 3 1 2 1 3 1 3 1 3v3l1 3v6zm-60 60v-2h6l3-1h3l2-1 3-1 3-1 3-1 2-1 3-1 2-1 2-2 3-2 2-1 2-2 2-2 2-2 2-2 1-2 2-3 2-2 1-2 1-3 1-2 1-3 1-3 1-3 1-2v-3l1-3v-6h2v6l-1 3v3l-1 3-1 3-1 3-1 2-1 3-1 3-2 2-1 3-2 2-2 2-2 2-2 2-2 2-2 2-2 2-2 2-3 1-2 2-3 1-3 1-2 1-3 1-3 1-3 1h-3l-3 1h-6zM0 60h2v6l1 3v3l1 2 1 3 1 3 1 3 1 2 1 3 1 2 2 2 2 3 1 2 2 2 2 2 2 2 2 2 2 1 3 2 2 2 2 1 3 1 2 1 3 1 3 1 3 1 2 1h3l3 1h6v2h-6l-3-1h-3l-3-1-3-1-3-1-2-1-3-1-3-1-2-2-3-1-2-2-2-2-2-2-2-2-2-2-2-2-2-2-2-2-1-3-2-2-1-3-1-3-1-2-1-3-1-3-1-3v-3l-1-3v-6zM60 0v2h-6l-3 1h-3l-2 1-3 1-3 1-3 1-2 1-3 1-2 1-2 2-3 2-2 1-2 2-2 2-2 2-2 2-1 2-2 3-2 2-1 2-1 3-1 2-1 3-1 3-1 3-1 2v3l-1 3v6H0v-6l1-3v-3l1-3 1-3 1-3 1-2 1-3 1-3 2-2 1-3 2-2 2-2 2-2 2-2 2-2 2-2 2-2 2-2 3-1 2-2 3-1 3-1 2-1 3-1 3-1 3-1h3l3-1h6z" fill="#2887d2" fill-rule="nonzero"/><g id="_492150016"><path d="M68 23H44c-3 0-6 3-6 7v17c0 3 3 6 6 6h8l7 6-3-6h12c4 0 7-3 7-6V30c0-4-3-7-7-7z" fill="#1cc8eb" fill-rule="nonzero"/><path d="M73 25H49c-3 0-6 3-6 7v17c0 4 3 7 6 7h6l7 6 1-6h10c4 0 7-3 7-7V32c0-4-3-7-7-7z" fill="#fc4d44" fill-rule="nonzero"/><path class="fil4" d="M74 41H51c-1 0-2 0-2-1 0 0 1-1 2-1h23c1 0 1 1 1 1 0 1 0 1-1 1zM74 48s-1 0-1-1v-1l1-1 1 1v1c0 1-1 1-1 1zM70 48H51c-1 0-2-1-2-1 0-1 1-2 2-2h19s1 1 1 2l-1 1zM67 35H51c-1 0-2 0-2-1s1-1 2-1h16s1 0 1 1-1 1-1 1z"/></g><g id="_492148672"><path class="fil5" d="M14 41h0c-2 0-2 2-2 4 0 0 0 1 1 2 0 1 0 1 1 1 0 2 2 5 3 6s1 1 1 2v3c2 0 2 0 9 1h1v-4l1-1s0 0 0 0 1 0 1-1c1-1 2-4 2-6 1 0 1 0 2-1v-4s0 0 0 0v-1-1l-1 1v2s0 0 0 0c-1-1-1-2-1-3s0 0-1 0-1 0-2-1c-2 0-4-1-5-1-3-2 2 0-1-1 0 0 0 0 0 0-2-1-4-2-5-3-1 0-1 0-1 1 0 0-1 3-1 4l-1 1s-1-1-1 1v-1z" stroke="#2887d2" stroke-width=".9"/><path d="M33 79V58h-1c0 3-1 6-2 8-1 1-2 1-3 2-7 3-13-3-13-10h-1v21h20z" fill="url(#id0)"/><path id="1" d="M34 67v12h-1V67h1zm-1 0zm1-9v9h-1v-9h1zm-1 0h1-1zm0 0h-1 1v1-1zm-1 0zm-2 8l-1-1h1v-1h1v-3h1v-3h1v3l-1 1v2h-1v1l-1 1zm-3 2v-1h1v-1h1v-1l1 1v1h-1v1h-2zm-13-9v-1h1v4l1 1v1l1 1v1h1l1 1h1v1h6l1-1v2h-7l-1-1h-1v-1h-1v-1h-1v-1l-1-1v-1h-1v-5 1zm0-1h1-1zm-1 0h1v1h-1l-1-1h1zm-1 0h1-1zm0 21V58h1v22l-1-1zm1 1h-1v-1l1 1zm20-1h1l-1 1H13v-1h20zm1 0v1h-1l1-1z" fill="#2887d2" fill-rule="nonzero"/><path class="fil8" d="M14 41v1c0-2 1-1 1-1l1-1c0-1 1-4 1-4 0-1 0-1 1-1 1 1 3 2 5 3l1 1c1 0 3 1 5 1 1 1 1 1 2 1s1-1 1 0 0 2 1 3v-2l1-1c1-1 1-9 0-10 0-1-2-3-3-2-1-2-4-4-8-5-7 0-13 9-11 16 1 1 2 1 2 1z"/><path class="fil9" d="M13 58h1c0 7 6 13 13 10 1-1 2-1 3-2 3-4 1-8 3-8v9h1v-7c0-2 0-2-1-2h-4c-3 0-5 3-11 0-1 1-2 0-4 0h-1z"/><path id="1" class="fil10" d="M14 59h-1v-1h1v1zm0-1zm13 10l-1 1h-5l-1-1h-1l-1-1h-1v-1l-1-1v-1h-1v-1l-1-1v-4 2l1 1v2l1 1v1l1 1h1v1h1v1h2l1 1h3v-1h2zm3-2h-1v1h-1v1h-1v-1h2v-1h1zm0 0zm4-8h-1v2h-1v3l-1 1v1h-1v1-1l1-1v-1h1v-4h1v-1h1zm-1 0h1-1zm0 9v-9h1v9h-1zm1 0h-1 1zm-1 0h1-1 1-1zm1 0zm0-7v7h-1v-7h1zm-1-2h1v2h-1v-2zm0 0zm-4 0h4-4zm0 0zm-11 0h1v1h7v-1h3-1v1h-9l-1-1zm0 0zm-4 0h4-1v1h-1v-1h-2zm0 0zm-1 0h1-1zm0 0zm0 0v1l-1-1h1zm0 1h-1v-1l1 1z"/><g><path class="fil9" d="M34 79h5c0-11 4-21-5-21v21z"/><path id="1" class="fil10" d="M38 79l1 1h-5v-1h5-1zm1 1h-1 1zm0-1h1-1v1l-1-1h1zm1 0zm-6-21h-1 4v1h2v1l1 1v1l1 1v7l-1 1v8h-1v-9l1-1v-5l-1-1v-2h-1v-1h-1v-1h-3v-1zm-1 0h1-1zm1 21v1l-1-1V58h1v21zm0 1h-1v-1l1 1z"/></g><g><path class="fil9" d="M7 79h5c0-1 0-8 1-12v-5-4c-8 0-7 14-6 21z"/><path id="1" class="fil10" d="M12 79h1l-1 1H7v-1h5zm1 0v1h-1l1-1zm-1-12h1v12h-1V67zm1 0zm0-5v5h-1v-5h1zm-1 0zm1-3v-1 4h-1v-4l1 1zm0-1zM7 79v1-1H6V65l1-1v-2l1-1v-1l1-1h1l1-1h2v1h-2l-1 1H9v1l-1 1v3l-1 1v13h1-1zm0 1v-1 1z"/></g><path class="fil8" d="M22 63v6h2v-4s0-2 1-3c1 0-1-2-2-1-2 0-1 1-1 2z"/><g><path class="fil11" d="M21 64l2-3 2 3c1-2 3-5 4-6s-5 1-6 1-6-1-6-1c0 1 4 6 4 6z"/><path id="1" class="fil10" d="M23 61l-1 3h-1l2-3zm0 0v-1 1zm1 3l-1-3 2 3h-1zm1 0h-1 1zm4-6v1h-1v1l-1 1v1h-1v1h-1v1h-1l1-1v-1h1v-1h1v-1h1v-2h1zm-6 1h2l1-1h3-2v1h-4zm-5-1h-1 3v1h3-5v-1h-1 1zm3 6h1-1v-1h-1v-1h-1v-1h-1v-1l-1-1v-1h1v2h1v1h1v1l1 1v1z"/></g></g><path class="fil11" d="M60 77c11 0 20 9 20 20s-9 20-20 20-20-9-20-20 9-20 20-20z"/><path id="1" class="fil10" d="M81 97h-2v-6l-1-1v-1l-1-1v-1l-1-1v-1h-1l-1-1v-1h-1l-1-1v-1h-1l-1-1h-1l-1-1h-1l-1-1h-5l-1-1v-1h3l1 1h3l1 1h1l1 1h1l1 1 1 1h1l1 1v1l1 1h1v1l1 1v1l1 1v1l1 1v3l1 1v3zm-21 21v-2h5l1-1h2v-1h1l1-1h1l1-1 1-1h1v-1l1-1 1-1 1-1v-2l1-1 1-1v-6h2v3l-1 1v3l-1 1v1l-1 1v1l-1 1-1 1-1 1v1h-1l-1 1-1 1-1 1h-1l-1 1h-2l-1 1h-3l-1 1h-2zM39 97h2v6l1 1 1 1v2l1 1 1 1 1 1v1h1l1 1 1 1h1l1 1h1v1h2l1 1h5v2h-2l-1-1h-3l-1-1h-2l-1-1h-1l-1-1-1-1-1-1h-1v-1l-1-1-1-1-1-1v-1l-1-1v-1l-1-1v-3l-1-1v-3zm21-21v1l-1 1h-5l-1 1h-1l-1 1h-1l-1 1h-1v1l-1 1h-1v1l-1 1h-1v1l-1 1v1l-1 1v1l-1 1v6h-2v-3l1-1v-3l1-1v-1l1-1v-1l1-1v-1h1l1-1v-1l1-1h1l1-1 1-1h1l1-1h1l1-1h3l1-1h3z"/><path d="M47 111h1c0 1 0 1 1 1l1 1h1c0 1 0 1 1 1 1 1 3 1 5 2h7c1-1 3-1 4-2 1 0 1 0 2-1 0 0 1 0 1-1 1 0 1 0 1-1h1c-2-2-5-3-8-4v-4-1c1-1 1-2 2-3s1-1 1-2v-3-5s0-2-2-4c-1-2-3-2-6-2s-3 1-4 1c-1 1-1 0-2 1-2 2-1 4-1 4v3c-1 1-1 1-1 2v3s0 1 1 2c0 2 2 3 2 4v2c0 1 0 1-1 1l-5 3-2 2z" fill="url(#id5)" fill-rule="nonzero"/><g><path class="fil11" d="M82 79c11 0 16 1 27 0v-6H82v6z"/><path d="M108 61c-1 1-2 0-3 0-2 0-2 0-4-1-1 0 0-1-1 0-3 2-6 2-9 0-1-1 0 0-3 1-2 0-3 1-4 1 0-1-1-3 0-5s-1-3-1-5c1-1 0-1 0-3 0-1 0-3 1-5v-3c0-3 1-4 2-7 1 0 1-1 2-1 1-1 0-1 1-2 1 0 2-1 2-1 1-1 2-2 4-2s4 1 5 2c0 1 0 0 1 1l1 1c1 1 0 1 1 1 2 1 1 1 2 2 3 3 2 8 2 9v1c1 1 1 3 1 4v7c1 3-1 5 0 5z" fill="url(#id4)"/><path class="fil5" d="M95 59c-3 0-6-3-7-6-1-1-1-2-2-3-1 0-1 0-1-1v-2-1c1 0 1-1 1-2 1-1 1 0 2-1 0 0 2-1 3-1 2 0 4 0 6-2 1 0 2-1 3-2v1s0-1 0 0 0 3 2 4c2 3 4 2 4 3v3c0 1-1 1-2 2 0 1-1 2-2 3-1 2-4 5-7 5z"/><path d="M88 63s-1 1-2 1-1 0-2 1v8c3 2 8 3 11 3 4 0 9-1 12-3v-8l-4-2c-2 2-5 2-7 2s-3 0-5-1c-1 0-1 0-2-1h-1z" fill="url(#id2)"/><path d="M82 79V66c-1 0-4 1-5 1-1 1-2 3-2 5 0 3-1 3 2 5 1 0 4 2 5 2z" fill="url(#id3)"/><path d="M109 79c1-1 3-1 4-2 3-1 3-2 3-3 0-3 0-5-3-7-1 0-3-1-4-2v14z" fill="url(#id1)"/><path d="M90 34s-2 1-2 2c2 0 4-1 7-1s6 1 8 1c1-1-2-2-2-2 0-1 0-1-1-2h-1l-1-1-2-2c-1 0-2 1-2 1l-2 2s0-1-1 0-1 1-1 2z" fill="#f7f7f7"/></g></g></g></svg>