<svg width="30" height="30" fill="none" xmlns="http://www.w3.org/2000/svg"><path fill-rule="evenodd" clip-rule="evenodd" d="M14.985 1.534c7.444 0 13.478 6.034 13.478 13.478S22.429 28.49 14.985 28.49 1.507 22.456 1.507 15.012 7.541 1.534 14.985 1.534z" fill="#222"/><path d="M17.335 19.007c0-.63-.174-1.135-.525-1.506-.35-.374-.945-.717-1.785-1.032-.84-.316-1.56-.63-2.168-.942a6.881 6.881 0 01-1.565-1.072 4.299 4.299 0 01-1.016-1.427c-.245-.548-.363-1.198-.363-1.951 0-1.3.414-2.369 1.246-3.2.831-.832 1.935-1.317 3.314-1.455V4.497h.002a.596.596 0 01.593-.546h.659c.31 0 .567.242.593.546h.002v1.961c1.36.193 2.428.76 3.196 1.702.748.918 1.126 1.74 1.145 3.17l.003.066c0 .603-.493 1.096-1.096 1.096h-1.146a1.1 1.1 0 01-1.092-1.02v-.001l-.003-.075.001-.05v-.006c-.017-.823-.205-1.148-.567-1.583-.38-.456-.89-.686-1.529-.686-.63 0-1.12.177-1.466.536-.347.355-.52.851-.52 1.478 0 .583.169 1.052.508 1.407.339.35.97.713 1.888 1.083.922.367 1.675.714 2.27 1.04a6.577 6.577 0 011.502 1.113c.405.41.717.882.934 1.41.216.528.323 1.14.323 1.841 0 1.312-.41 2.373-1.226 3.189-.816.82-1.94 1.3-3.37 1.446v.814a.583.583 0 01.006.084v.805a.597.597 0 01-.595.595h-.659a.596.596 0 01-.595-.595v-.805c0-.028.002-.056.007-.084v-.802c-1.577-.17-2.799-.73-3.666-1.68-.867-.949-1.28-1.775-1.28-3.355h.006a1.099 1.099 0 011.092-1.024h1.146c.579 0 1.056.455 1.093 1.024h.002v.099c.015.835.213 1.095.633 1.566.434.487 1.06.733 1.876.733.678 0 1.21-.177 1.604-.536.394-.358.587-.84.587-1.446z" fill="#FEFEFE"/></svg>