<svg width="28" height="30" fill="none" xmlns="http://www.w3.org/2000/svg"><path d="M19.1931 17.1094c0 .6472-.5274 1.1718-1.1779 1.1718H5.88296c-.65054 0-1.17788-.5246-1.17788-1.1718 0-.6473.52734-1.1719 1.17788-1.1719H18.0152c.6505 0 1.1779.5246 1.1779 1.1719zM5.88296 13.5938c-.65054 0-1.17788-.5247-1.17788-1.1719 0-.6473.52734-1.1719 1.17788-1.1719h7.36834c.6505 0 1.1778.5246 1.1778 1.1719 0 .6472-.5273 1.1719-1.1778 1.1719H5.88296z" fill="#2887D2"/><path d="M8.65092 2.34375H4.71154c-1.29897 0-2.35577 1.05141-2.35577 2.34375v20.625c0 1.2923 1.0568 2.3437 2.35577 2.3437H19.193c1.299 0 2.3558-1.0514 2.3558-2.3437v-7.207c0-.6473.5273-1.1719 1.1778-1.1719.6506 0 1.1779.5246 1.1779 1.1719v7.207c0 2.5847-2.1136 4.6875-4.7115 4.6875H4.71154C2.1136 30 0 27.8972 0 25.3125V4.6875C0 2.10281 2.1136 0 4.71154 0h3.93938C9.30146 0 9.8288.524649 9.8288 1.17188c0 .64722-.52734 1.17187-1.17788 1.17187z" fill="#2887D2"/><path d="M25.9904 13.0328c-1.3778 1.3708-3.6195 1.3708-4.9964.001l-6.4668-6.41955c-.1373-.13634-.2386-.30427-.295-.48896L12.8238 1.5125c-.1248-.40898-.016-.853066.284-1.158982.2247-.229161.53-.3535552.8432-.3535552.1047 0 .2105.0139446.3143.0425968L19.0196 1.35277c.1956.05391.3739.15721.5176.29995l6.4533 6.40821c1.3777 1.37074 1.3777 3.60107-.0001 4.97187zm-7.8982-9.50362L15.7004 2.87l.7 2.29271 4.3634 4.33154 1.6661-1.65762-4.3377-4.30745zm6.2333 6.18972l-.2282-.22658-1.6658 1.65728.2274.2259c.4593.4569 1.2065.4569 1.6658 0 .4593-.457.4593-1.2004.0008-1.6566zM18.0152 22.9688H5.88296c-.65054 0-1.17788-.5247-1.17788-1.1719 0-.6473.52734-1.1719 1.17788-1.1719H18.0152c.6505 0 1.1779.5246 1.1779 1.1719 0 .6472-.5274 1.1719-1.1779 1.1719z" fill="#2887D2"/><path d="M19.1931 17.1094c0 .6472-.5274 1.1718-1.1779 1.1718H5.88296c-.65054 0-1.17788-.5246-1.17788-1.1718 0-.6473.52734-1.1719 1.17788-1.1719H18.0152c.6505 0 1.1779.5246 1.1779 1.1719zM5.88296 13.5938c-.65054 0-1.17788-.5247-1.17788-1.1719 0-.6473.52734-1.1719 1.17788-1.1719h7.36834c.6505 0 1.1778.5246 1.1778 1.1719 0 .6472-.5273 1.1719-1.1778 1.1719H5.88296z" fill="#C5C6C6"/><path d="M8.65092 2.34375H4.71154c-1.29897 0-2.35577 1.05141-2.35577 2.34375v20.625c0 1.2923 1.0568 2.3437 2.35577 2.3437H19.193c1.299 0 2.3558-1.0514 2.3558-2.3437v-7.207c0-.6473.5273-1.1719 1.1778-1.1719.6506 0 1.1779.5246 1.1779 1.1719v7.207c0 2.5847-2.1136 4.6875-4.7115 4.6875H4.71154C2.1136 30 0 27.8972 0 25.3125V4.6875C0 2.10281 2.1136 0 4.71154 0h3.93938C9.30146 0 9.8288.524649 9.8288 1.17188c0 .64722-.52734 1.17187-1.17788 1.17187z" fill="#C5C6C6"/><path d="M25.9904 13.0328c-1.3778 1.3708-3.6195 1.3708-4.9964.001l-6.4668-6.41955c-.1373-.13634-.2386-.30427-.295-.48896L12.8238 1.5125c-.1248-.40898-.016-.853066.284-1.158982.2247-.229161.53-.3535552.8432-.3535552.1047 0 .2105.0139446.3143.0425968L19.0196 1.35277c.1956.05391.3739.15721.5176.29995l6.4533 6.40821c1.3777 1.37074 1.3777 3.60107-.0001 4.97187zm-7.8982-9.50362L15.7004 2.87l.7 2.29271 4.3634 4.33154 1.6661-1.65762-4.3377-4.30745zm6.2333 6.18972l-.2282-.22658-1.6658 1.65728.2274.2259c.4593.4569 1.2065.4569 1.6658 0 .4593-.457.4593-1.2004.0008-1.6566zM18.0152 22.9688H5.88296c-.65054 0-1.17788-.5247-1.17788-1.1719 0-.6473.52734-1.1719 1.17788-1.1719H18.0152c.6505 0 1.1779.5246 1.1779 1.1719 0 .6472-.5274 1.1719-1.1779 1.1719z" fill="#C5C6C6"/></svg>