<svg width="43" height="44" fill="none" xmlns="http://www.w3.org/2000/svg"><g clip-path="url(#clip0)"><path d="M30.885 9.777H3.01A3.009 3.009 0 000 12.786v27.936a3.009 3.009 0 003.009 3.009h27.876a3.009 3.009 0 003.009-3.009V12.786a3.009 3.009 0 00-3.009-3.009z" fill="#2887D2"/><path d="M3.009 13.162h28.58V40.24H3.01V13.162z" fill="#FEFEFE"/><path fill-rule="evenodd" clip-rule="evenodd" d="M4.137 18.803l13.538 1.88v10.154l-13.538 1.88V18.803zm1.128 1.128l11.658 1.88v8.274l-11.658 1.88V19.931z" fill="#FC4D44"/><path fill-rule="evenodd" clip-rule="evenodd" d="M30.462 19.18l-13.539 1.88v9.778l13.539 1.88V19.18zm-1.129.752l-11.658 1.88v8.274l11.658 1.88V19.932z" fill="#FC4D44"/><path fill-rule="evenodd" clip-rule="evenodd" d="M17.3 39.11l13.162-6.393-13.163-2.256-13.162 2.256 13.162 6.394zm0-1.128l10.905-5.265-10.906-1.88-10.906 1.88L17.3 37.982zM6.393 24.443l3.76.752v6.394l-3.76.376v-7.522zM27.829 23.691l-3.76.753v3.384l3.76.376v-4.513zM12.034 25.195h3.009v1.88h-3.009v-1.88zM20.308 24.444l3.384-.376v3.761h-3.384v-3.385z" fill="#FC4D44"/><path fill-rule="evenodd" clip-rule="evenodd" d="M20.308 25.947h7.145v.376h-7.145v-.376z" fill="#FEFEFE"/><path d="M9.026 28.58a.376.376 0 100-.752.376.376 0 000 .752z" fill="#FEFEFE"/><path d="M30.085 18.803c.377.377.377.377.753.377 4.889 1.504 10.53-1.88 11.658-7.146C44 7.145 40.616 1.504 35.726.376c-5.264-1.504-10.53 1.88-12.034 6.77-.752 3.76.376 7.52 3.009 10.153-.752.752-1.88 1.505-3.009 2.257 6.393-.753 4.137-.376 6.393-.753z" fill="#1CC8EB"/><path d="M35.727 14.667v.752c-.753.376-1.129.376-1.505.752h-1.128c-.376 0-1.128 0-1.504-.376-.376-.376-.376-.752-.376-1.128v-.752-.752l.752-2.257c0-.376 0-.376.376-.752v-.376c0-.376 0-.376-.376-.752H30.46v-.752c.377 0 .753 0 1.129-.376h1.128c.752 0 1.128 0 1.504.376.376.376.752.752.752 1.128v.752s0 .376-.376.376l-.376 2.633c-.376 0-.376.376-.376.376v.752c0 .376 0 .376.376.752H35.35s.377 0 .377-.376zm.376-9.778c0 .376-.377.752-.753 1.128 0 .376-.376.376-1.128.376-.376 0-.752 0-1.128-.376 0-.376-.376-.752-.376-1.128 0-.376.376-.752.376-1.128.376 0 .752-.376 1.128-.376.752 0 1.128.376 1.128.376.377.376.753.752.753 1.128z" fill="#FEFEFE"/></g><defs><clipPath id="clip0"><path fill="#fff" d="M0 0h42.872v44H0z"/></clipPath></defs></svg>