<svg width="30" height="30" viewBox="0 0 30 30" fill="none" xmlns="http://www.w3.org/2000/svg">
<path d="M26.2498 5.71436H3.75C1.67893 5.71436 0 7.63314 0 10.0001V18.7661C0 21.133 1.67893 23.0518 3.75 23.0518H26.2498C28.3209 23.0518 29.9998 21.133 29.9998 18.7661V10.0001C29.9998 7.63314 28.3209 5.71436 26.2498 5.71436Z" fill="url(#paint0_linear)"/>
<path fill-rule="evenodd" clip-rule="evenodd" d="M7.5 17.8572H22.5V30H7.5V17.8572Z" fill="#FEFEFE"/>
<path d="M22.5 17.8572H7.5H22.5H23.125H22.5ZM22.5 17.8572H23.125H22.5ZM22.5 30V17.8572H23.125V30H22.5ZM23.125 30H22.5H23.125ZM7.5 29.2857H22.5V30H7.5H6.875L7.5 29.2857ZM7.5 30H6.875H7.5ZM7.5 17.8572V30H6.875V17.8572H7.5ZM6.875 17.8572H7.5H6.875Z" fill="#1CC8EB"/>
<path d="M26.25 13.5714C27.2855 13.5714 28.125 12.612 28.125 11.4285C28.125 10.245 27.2855 9.28564 26.25 9.28564C25.2145 9.28564 24.375 10.245 24.375 11.4285C24.375 12.612 25.2145 13.5714 26.25 13.5714Z" fill="#FEFEFE"/>
<path d="M5.625 0V0.714286V1.42857V2.14286V2.85714V3.57143V4.28571V5H5H5.625H5V4.28571V3.57143V2.85714V2.14286V1.42857V0.714286L5.625 0ZM26.25 0.714286H5.625V0H26.25V0.714286ZM26.25 0V0.714286V0ZM25.625 5V0.714286H26.25V5H25.625Z" fill="#0063D4"/>
<defs>
<linearGradient id="paint0_linear" x1="8.79037" y1="25.2849" x2="23.5993" y2="6.0207" gradientUnits="userSpaceOnUse">
<stop stop-color="#1CC8EB"/>
<stop offset="0.631373" stop-color="#0E96E0"/>
<stop offset="1" stop-color="#0063D4"/>
</linearGradient>
</defs>
</svg>
