<svg width="40" height="40" fill="none" xmlns="http://www.w3.org/2000/svg"><path d="M30.945 3.822H.669v30.276h30.276V3.822z" fill="#FCE550"/><path d="M26.26 11.182H5.354v2.19H26.26v-2.19zM26.26 19.057H5.354v2.19H26.26v-2.19zM26.26 26.89H5.354v2.19H26.26v-2.19z" fill="#BDBFC1"/><path d="M5.563 1.262H3.74v5.077h1.823V1.262zM10.012 1.262H8.189v5.077h1.823V1.262zM14.46 1.262h-1.822v5.077h1.822V1.262zM18.949 1.262h-1.823v5.077h1.823V1.262zM23.398 1.262h-1.823v5.077h1.823V1.262zM27.886 1.262h-1.823v5.077h1.823V1.262z" fill="#BDBFC1" stroke="#BDBFC1" stroke-width=".176"/><path fill-rule="evenodd" clip-rule="evenodd" d="M13.543 23.23l.197-7.756s.512-2.126 1.85-2.402c1.3-.276 18.23.04 18.23.04s1.85.275 2.4 1.574c.513 1.339-.354 9.095-.157 9.095.158 0 3.071 2.48 3.268 6.575.157 4.055-1.969 4.763-1.969 4.763l-2.834 1.063v2.48s-18.583-.511-18.583 0c0 .552-.787-2.677-.787-2.677s-2.678.158-3.898-1.771c-1.22-1.969-1.22-8.858 2.284-10.984z" fill="#FEFEFE"/><path fill-rule="evenodd" clip-rule="evenodd" d="M17.401 15.28h16.497c.826 0 1.496.787 1.496 1.77v6.143c0 .118 0 .236-.04.354-.59-.472-1.299-.787-2.008-.984V20.79c.04-1.575-6.614-2.126-6.81-.157-.08.511-.08 1.102-.119 1.299h-1.181c0-.236-.04-.788-.079-1.3-.196-1.968-6.85-1.417-6.85.158v1.654a5.505 5.505 0 00-2.401 1.063c0-.118-.04-.237-.04-.315V17.05c0-.984.709-1.772 1.535-1.772z" fill="#2887D2"/><path fill-rule="evenodd" clip-rule="evenodd" d="M18.425 23.074c2.244-.315 5.355-.472 6.733-.472.039-.04.118-.04.275-.04h.355c.157 0 .236 0 .275.04 1.339 0 4.488.157 6.732.472 3.11.512 5.63 3.701 5.59 7.441 0 1.654.04 2.795-.157 2.953-.315.315-1.22.236-1.26-.394 0-.275.08-2.322-.078-2.952-.197-.63-.709-.788-1.142-.827H15.473c-.434.04-.985.197-1.142.826-.197.63-.079 2.678-.079 2.953-.04.63-.945.709-1.26.394-.197-.158-.157-1.3-.157-2.953-.04-3.74 2.48-6.929 5.59-7.44z" fill="#1CC8EB"/><path d="M34.725 29.883h-18.19c-1 0-1.81.899-1.81 2.008v1.417c0 1.109.81 2.008 1.81 2.008h18.19c1 0 1.81-.9 1.81-2.008v-1.417c0-1.11-.81-2.008-1.81-2.008z" fill="#2887D2"/><path d="M18.886 35.28h-1.563v2.351h1.563V35.28zM33.886 35.28h-1.563v2.351h1.563V35.28z" fill="#46A6D6"/><path d="M17.756 32.404h15.827" stroke="#fff" stroke-width=".076"/></svg>