<svg width="40" height="40" fill="none" xmlns="http://www.w3.org/2000/svg"><path fill-rule="evenodd" clip-rule="evenodd" d="M27.913 28.822v8.78c0 .708-.55 1.259-1.26 1.259H2.757c-.709 0-1.26-.551-1.26-1.26V3.664c0-.709.551-1.26 1.26-1.26h23.898c.708 0 1.26.551 1.26 1.26v25.158z" fill="#2887D2"/><path fill-rule="evenodd" clip-rule="evenodd" d="M20.354 2.404v2.52c0 .67-.55 1.22-1.26 1.22h-8.78c-.708 0-1.259-.55-1.259-1.22v-2.52c0-.708.551-1.26 1.26-1.26h8.78c.708 0 1.26.552 1.26 1.26z" fill="#2887D2"/><path fill-rule="evenodd" clip-rule="evenodd" d="M20.354 4.92c0 .67-.551 1.22-1.26 1.22h-8.78c-.708 0-1.26-.55-1.26-1.22H4.017v31.417h21.378V4.92h-5.04z" fill="#2887D2"/><path fill-rule="evenodd" clip-rule="evenodd" d="M28.543 3.663a1.89 1.89 0 00-1.89-1.89h-5.787c-.236-.748-.945-1.26-1.772-1.26h-8.78c-.826 0-1.535.512-1.77 1.26H2.755c-1.063 0-1.89.827-1.89 1.89V37.6c0 1.063.827 1.89 1.89 1.89h23.898a1.89 1.89 0 001.89-1.89V3.663zm-20 1.89c.236.709.945 1.22 1.772 1.22h8.78c.826 0 1.535-.511 1.771-1.22h3.898v30.158H4.646V5.553h3.897zm18.74-1.89a37.7 37.7 0 01-.118 3.229h.08v22.795h-.158c.118 1.89.196 4.527.196 7.913 0 .355-.275.63-.63.63H2.757a.622.622 0 01-.63-.63V3.663c0-.354.276-.63.63-.63h5.67v1.26h-5.04V36.97h22.638c0-3.15.039-5.59.157-7.283h-.04V7.837c-.078-.827-.117-2.008-.117-3.544h-5.04v-1.26h5.67c.354 0 .63.276.63.63zM9.685 2.403c0-.354.276-.63.63-.63h8.78c.354 0 .63.276.63.63v2.52c0 .315-.276.63-.63.63h-8.78a.647.647 0 01-.63-.63v-2.52z" fill="#FEFEFE"/><path fill-rule="evenodd" clip-rule="evenodd" d="M5.906 31.418h15.078v1.26H5.906v-1.26zM5.906 27.012h17.598v1.22H5.906v-1.22z" fill="#FEFEFE"/><path d="M26.614 2.876c-.354-.354-.905-.354-1.3-.039l-11.101 11.22-5.945-3.582a.967.967 0 00-1.22.197c-.316.315-.355.826-.08 1.22l6.457 9.095c.158.275.473.433.788.433.315 0 .59-.158.787-.394l11.732-16.89c.276-.393.236-.945-.118-1.26z" fill="#00A859"/><path d="M25.748 3.232l-.827-.827.04-.039.039-.04.079-.039.04-.04.078-.038.04-.04.078-.04h.079l.04-.039.078-.039h.157l.04-.04h.512l.039.04h.079l.078.04h.04l.078.039h.08l.039.04.078.039.079.039.04.04.039.039.078.04.04.078-.787.866-.04-.04-.04-.039h-.039l-.039-.04H25.826v.04h-.078v.04h-.04l.04-.04zm-.827-.827v-.039h.04l-.04.04zM13.78 13.625L24.92 2.406l.827.827-11.102 11.22-.748.119-.118-.945zm.866.828l-.315.354-.433-.236.748-.118zM8.583 9.964l5.945 3.583-.63 1.024-5.945-3.583.63-1.024zM7.48 11.067l-.866-.827.04-.04.078-.039.04-.039.039-.04.079-.039.04-.04.078-.039.04-.039.078-.04h.04l.078-.039h.04l.078-.039h.04l.078-.04h.591l.079.04h.039l.079.04h.078l.04.039.079.04h.039l.079.038-.63 1.024h-.04v-.04h-.276l-.039.04H7.56v.04h-.04v.039H7.48zm-.04.472l-.944.67-.04-.04-.039-.079-.04-.039-.038-.079v-.039l-.04-.079-.04-.04v-.157l-.039-.039V11.027l.04-.078v-.04l.04-.078v-.08l.039-.038v-.08l.039-.039.04-.078.039-.04.04-.079.038-.039.04-.04.04-.078.865.827v.04h-.04v.039l-.038.039v.275h.039v.08zm0 0v-.04.04zm5.513 9.803L6.496 12.21l.945-.67 6.457 9.134-.945.67zm1.26-.511v1.18h-.198l-.039-.039h-.158l-.038-.039h-.08l-.039-.04h-.039l-.04-.039h-.039l-.04-.04h-.078l-.04-.038-.039-.04-.039-.04-.04-.039h-.039l-.039-.039-.04-.04-.039-.039h-.04v-.04l-.039-.038-.039-.04-.04-.04v-.039l.946-.669h.039v.04h.04v.039h.039v.04h.118v.039h.079zm0 1.18v-1.18 1.18zm.315-1.338l.944.67-.039.039v.04l-.04.038-.039.04-.039.04-.04.039v.039h-.039l-.04.04-.038.039-.04.04h-.04l-.039.039H15l-.04.039-.039.04h-.04l-.039.039h-.079l-.039.039h-.118l-.04.04h-.118l-.039.039h-.197V20.83h.08l.039-.04h.078v-.04h.04v-.039h.04v-.039h.039zM27.205 4.492l-11.733 16.85-.944-.669L26.26 3.823v-.04l.945.709zm-.945-.67v-.039.04zm-.04-.511l.788-.866.079.04.039.039.04.078.039.04.04.078.038.04.04.078.04.04.039.079v.078l.039.04v.078l.04.08V3.35l.039.079v.276l-.04.078v.118l-.04.08v.078l-.038.04v.078l-.04.079-.04.04-.038.078-.04.079-.04.039-.944-.709.04-.039v-.079h.039v-.158l-.04-.039V3.39h-.04V3.35l-.038-.04zm.788-.866v-.04.04z" fill="#FEFEFE"/><path d="M39.134 21.697H15V38.43h24.134V21.697z" fill="#FEFEFE"/><path fill-rule="evenodd" clip-rule="evenodd" d="M37.834 23.107v14.056l-8.228-7.008c.276-.158.551-.315.787-.552l7.441-6.496zM24.645 30.315l-8.543 7.284V22.992l7.717 6.732c.236.237.512.433.826.591zM37.126 37.404L17.4 37.56l8.071-6.85c.473.276 1.063.394 1.614.394.59 0 1.142-.119 1.654-.394l8.386 6.693zM29.212 29.646c-.59.354-1.26.512-1.929.512-.708 0-1.378-.158-1.968-.512-.276-.118-.512-.315-.748-.512l-7.087-6.18h19.606L30 29.133a3.374 3.374 0 01-.788.512z" fill="#1CC8EB"/></svg>