<svg width="30" height="30" fill="none" xmlns="http://www.w3.org/2000/svg"><path d="M26.2498 5.71436H3.75C1.67893 5.71436 0 7.63314 0 10.0001v8.766c0 2.3669 1.67893 4.2857 3.75 4.2857h22.4998c2.0711 0 3.75-1.9188 3.75-4.2857v-8.766c0-2.36696-1.6789-4.28574-3.75-4.28574z" fill="url(#paint0_linear)"/><path fill-rule="evenodd" clip-rule="evenodd" d="M7.5 17.8572h15V30h-15V17.8572z" fill="#FEFEFE"/><path d="M22.5 17.8572h-15 15.625-.625zm0 0h.625-.625zM22.5 30V17.8572h.625V30H22.5zm.625 0H22.5h.625zM7.5 29.2857h15V30H6.875l.625-.7143zM7.5 30h-.625.625zm0-12.1428V30h-.625V17.8572H7.5zm-.625 0H7.5h-.625z" fill="#1CC8EB"/><path d="M26.25 13.5714c1.0355 0 1.875-.9594 1.875-2.1429s-.8395-2.14286-1.875-2.14286c-1.0355 0-1.875.95936-1.875 2.14286 0 1.1835.8395 2.1429 1.875 2.1429z" fill="#FEFEFE"/><path d="M5.625 0v5H5h.625H5V.714286L5.625 0zM26.25.714286H5.625V0H26.25v.714286zM26.25 0v.714286V0zm-.625 5V.714286h.625V5h-.625z" fill="#0063D4"/><path d="M26.2498 5.71436H3.75C1.67893 5.71436 0 7.63314 0 10.0001v8.766c0 2.3669 1.67893 4.2857 3.75 4.2857h22.4998c2.0711 0 3.75-1.9188 3.75-4.2857v-8.766c0-2.36696-1.6789-4.28574-3.75-4.28574z" fill="#C4C4C4"/><path fill-rule="evenodd" clip-rule="evenodd" d="M7.5 17.8572h15V30h-15V17.8572z" fill="#fff"/><path d="M22.5 17.8572h-15 15.625-.625zm0 0h.625-.625zM22.5 30V17.8572h.625V30H22.5zm.625 0H22.5h.625zM7.5 29.2857h15V30H6.875l.625-.7143zM7.5 30h-.625.625zm0-12.1428V30h-.625V17.8572H7.5zm-.625 0H7.5h-.625z" fill="#C5C6C6"/><path d="M26.25 13.5714c1.0355 0 1.875-.9594 1.875-2.1429s-.8395-2.14286-1.875-2.14286c-1.0355 0-1.875.95936-1.875 2.14286 0 1.1835.8395 2.1429 1.875 2.1429z" fill="#FEFEFE"/><path d="M5.625 0v5H5h.625H5V.714286L5.625 0zM26.25.714286H5.625V0H26.25v.714286zM26.25 0v.714286V0zm-.625 5V.714286h.625V5h-.625z" fill="#C5C6C6"/><defs><linearGradient id="paint0_linear" x1="8.79037" y1="25.2849" x2="23.5993" y2="6.0207" gradientUnits="userSpaceOnUse"><stop stop-color="#1CC8EB"/><stop offset=".631373" stop-color="#0E96E0"/><stop offset="1" stop-color="#0063D4"/></linearGradient></defs></svg>