<svg width="30" height="21" fill="none" xmlns="http://www.w3.org/2000/svg"><path d="M0 4.00439C0 1.79526 1.79086.00439453 4 .00439453h22c2.2091 0 4 1.79086547 4 3.99999547V16.0044c0 2.2091-1.7909 4-4 4H4c-2.20914 0-4-1.7909-4-4V4.00439z" fill="#C4C4C4"/><path d="M15.3486 5.55984c0-.61365.4975-1.11111 1.1111-1.11111h8.9406c.6137 0 1.1111.49746 1.1111 1.11111s-.4974 1.11111-1.1111 1.11111h-8.9406c-.6136 0-1.1111-.49746-1.1111-1.11111zM15.3486 10.0042c0-.61367.4975-1.11113 1.1111-1.11113h6.1499c.6137 0 1.1111.49746 1.1111 1.11113 0 .6136-.4974 1.1111-1.1111 1.1111h-6.1499c-.6136 0-1.1111-.4975-1.1111-1.1111zM15.3486 14.449c0-.6136.4975-1.1111 1.1111-1.1111h8.9406c.6137 0 1.1111.4975 1.1111 1.1111 0 .6137-.4974 1.1111-1.1111 1.1111h-8.9406c-.6136 0-1.1111-.4974-1.1111-1.1111z" fill="#fff"/><path d="M3.79102 4.96729c0-.55229.44771-1 1-1h7.16278c.5523 0 1 .44771 1 1V15.0414c0 .5522-.4477 1-1 1H4.79102c-.55229 0-1-.4478-1-1V4.96729z" fill="#C4C4C4" stroke="#fff" stroke-width="2"/><path d="M8.54141 5.99887c-1.14556-.00261-2.08017.95166-2.0834 2.12722-.00323 1.17556.92612 2.13411 2.07168 2.13671 1.14556.0026 2.08021-.95169 2.08341-2.12725.0032-1.17556-.92613-2.13407-2.07169-2.13668zM11.072 12.309c-.5828-.6476-1.35684-1.0053-2.17944-1.0072l-.94898-.0022c-.82258-.0019-1.59851.3522-2.18483.9971-.58345.6417-.9061 1.4898-.90852 2.3881-.00039.1427.10553.2586.23655.2589l6.64292.0154c.131.0003.2375-.1151.2379-.2578.0024-.8983-.3156-1.7479-.8956-2.3923z" fill="#fff"/></svg>