<svg width="40" height="40" fill="none" xmlns="http://www.w3.org/2000/svg"><path fill-rule="evenodd" clip-rule="evenodd" d="M14 5.332v31h25c.333-3.667 0-15.333 0-22.333.333-1.334-.334-2-.334-2.667l-4.333-5.667v-.333H14z" fill="#FEFEFE"/><path d="M13.333 36.333l.334-31h1l-.334 31-.333.666-.667-.666zm.667.666h-.667v-.666l.667.666zm23.667-1.333v1.333H14v-1.333H37.667zm1 .667h1l-.667.666h-1.333v-1.333H39l-.333.667zm0-22.334h1V36.333h-1V13.999zM38 12l1-1v.667h.333v.667l.334.333v1.333h-1v-1.333h-.334v-.667H38zm-3-6.666l4 5.666-1 1-4-6 .667-.666H35zm-.333 0H35h-.333zm0-.334v.334L34 5.999l.333-1.333.334.333zm-.334-.333l.334.333-.334-.333zm-19.666.667h-1L14 4.666h20.333v1.333H14l.667-.666z" fill="#1CC8EB"/><path fill-rule="evenodd" clip-rule="evenodd" d="M34.333 5.665l-.333 4s0 1.334.666 1.667h4l-4.333-6v.333z" fill="#1CC8EB"/><path d="M31.722 9H18.667v2.011h13.055V9zM35.608 14.332H18.667v2.011h16.94v-2.011zM35.608 19.666H18.667v2.011h16.94v-2.011zM35.608 24.666H18.667v2.011h16.94v-2.011zM35.608 30H18.667v2.011h16.94V30z" fill="#1CC8EB"/><path fill-rule="evenodd" clip-rule="evenodd" d="M8.667 23.334v3c0 .334.666.334 1 .334 2 .333 2 2 2 3.333v6c0 .667 0 1-.667 1.333 0 .334-.333.334-.333.667-.334 0-.667 0-1 .333 0 .667 0 .334-1.334.334-.666 0-.666 0-.666-.334H5c0 .334 0 .334-.667.334-1 0-1.333.333-1.333-.334-1.667-.333-2-1-2-2.333 0-1.667-.333-6.333 0-8 0-.333.333-.667 1-1 .333-.333 1-.333 2-.333v-4c0-.667-.333-1.667.667-2 .666-.334 3 0 3.333 0 1 .666.667 1.666.667 2.666zM3 29.668c.333 0 .667.333 1 .666l.333 4.334c.334.333-.333.666-.666.666-.334 0-1-.333-1-.666l-.334-4c-.333-.667 0-1 .667-1zm3.333 0c-.666 0-1 .333-1 .666v4.334c0 .333.334.666 1 .666.334 0 .667-.333.667-.666v-4.334c0-.333-.333-.666-.667-.666zm3 0c-.333 0-1 .333-1 .666l-.666 4.334c0 .333.333.666 1 .666.333 0 .666-.333 1-.666l.333-4c0-.667-.333-1-.667-1zm-2-7v3.666H5v-4.666h2.333c.334.333 0 1 0 1zM10.667 15v2c0 1-.334.334 0 5.334C11 24 13 23.667 13 22.667c.333-.666 0-3.333 0-4.333V14h1c0 2-.333 23.333 0 24 .333.666 1.333 1 2 .666 1.667 0 1.333-2 1.333-4v-11h1c-.333 4.334 0 9 0 13.667 0 2 2.334 1.667 3 .667.334-.334.334-1.667.334-2.334 0-1.333-.334-21 0-21.666h.666c.334.666 0 6.666 0 8.333 0 1 1 1.333 1.667 1 1-.333 1-1 1-2v-8.667c-.333-1.666-1.333-2.666-2.667-3.333h-5.666c-2 0-3.667-.333-5 1-1.334 1-1 3-1 4.667z" fill="#2887D2"/><path d="M17.666 8.333a3.667 3.667 0 100-7.333 3.667 3.667 0 000 7.333z" fill="#2887D2"/></svg>