<svg width="40" height="35" fill="none" xmlns="http://www.w3.org/2000/svg"><path fill-rule="evenodd" clip-rule="evenodd" d="M33.333 24.166s.834.833 2.5.833c1.667 0 1.667-.833 2.5-1.666 0-1.667 0-5.834-.833-8.334-.833-1.666-2.5-5-5.833-4.166-2.5 0-5 2.5-5.834 5v8.333c.834.833.834.833 1.667.833.833 0 2.5-.833 2.5-.833.833 0-.833 0-.833-.833-.834-.834-1.667-2.5-1.667-4.167 0-1.667.833-1.667 1.667-1.667 0 0 1.666 0 2.5-.833.833-.833.833-.833.833-1.667l1.667 1.667s1.666.833 1.666 1.667c.834.833 0 3.333-.833 4.166 0 .834-.833 1.667-1.667 1.667z" fill="#2887D2"/><path fill-rule="evenodd" clip-rule="evenodd" d="M28.333 15s1.667-2.5 3.334-2.5c.833 0 4.166 1.667 3.333 2.5 0 0-.833-.833-2.5-.833-1.667-.834-4.167 0-4.167.833z" fill="#fff"/><path fill-rule="evenodd" clip-rule="evenodd" d="M29.167 25.832v3.333h5v-3.333s0 .833-1.667.833H30.833c-1.666 0-1.666-.833-1.666-.833zM26.667 25.833v.834c-.834.833-1.667 1.666-2.5 3.333-.834 1.667-.834 4.167-.834 4.167h5v-8.334s0-.833-.833 0h-.833zM35.833 25.832s1.667.833 3.334 4.167c1.666 3.333.833 4.166.833 4.166h-5v-8.333h.833z" fill="#2887D2"/><path d="M.833 22.5c0-.833.834-.833 1.667-.833v-.833h.833v.833s.834 0 .834.834H.833z" fill="#2887D2"/><path d="M.833 22.5h3.334v.833H.833V22.5z" fill="#2887D2"/><path fill-rule="evenodd" clip-rule="evenodd" d="M9.167 11.666s-.834 0-2.5 1.667c-.834.833-.834 1.666-.834 2.5v7.5h15v-7.5c0-.834 0-1.667-1.666-2.5-.834-1.667-2.5-1.667-2.5-1.667L15 14.166l-1.667-1.667-2.5 1.667-1.666-2.5z" fill="#2887D2"/><path fill-rule="evenodd" clip-rule="evenodd" d="M9.167 11.667h1.666c.834 0 1.667.834 2.5.834.834-.834 3.334-1.667 3.334-1.667s-6.667 0-7.5.833z" fill="#2887D2"/><path d="M21.505 24.166H.833a.833.833 0 00-.833.833v.767c0 .46.373.833.833.833h20.672c.46 0 .833-.373.833-.833V25a.833.833 0 00-.833-.833z" fill="#2887D2"/><path d="M19.167 31.667h-12.5v2.5l-3.334-3.334L6.667 27.5v1.667h12.5v2.5zM21.667 7.5h12.5v1.667l3.333-2.5-3.333-3.333v1.667h-12.5v2.5z" fill="#FC4D44"/><path d="M9.167 5v-.834.833zm4.166 5h-2.5v-.834H10V7.499h-.833V5 6.666l.833.833V9.166h.833l.834.833h1.666zM17.5 4.165v2.5h-.833V8.333h-.834v.833H15v.833H13.333 15v-.833h.833v-.833h.834V6.666l.833-.833V4.166zm-2.5 0h2.5H15zm-5.833 0H15 9.167z" fill="#2887D2"/><path fill-rule="evenodd" clip-rule="evenodd" d="M9.167 4.167H17.5S17.5 0 13.333 0C10 0 9.167 2.5 9.167 4.167z" fill="#2887D2"/><path fill-rule="evenodd" clip-rule="evenodd" d="M13.333 5.833H15c.833 0 1.667-.834 2.5-1.667H9.167v1.667c1.666 0 1.666-.834 4.166 0z" fill="#2887D2"/></svg>