<svg width="31" height="20" fill="none" xmlns="http://www.w3.org/2000/svg"><g clip-path="url(#clip0)" fill="#C4C4C4"><path d="M29.9248 7.5H1.17482c-.374996 0-.625015.25002-.625015.62502V16.875c0 1.75 1.375015 3.1249 3.124985 3.1249H27.4248c1.75 0 3.1249-1.375 3.1249-3.1249V8.12502c.0001-.375-.2499-.62502-.6249-.62502zm-24.99998 5H9.9248c.375 0 .625.25.625.625s-.25.6251-.625.6251H4.92482c-.375-.0001-.62502-.2501-.62502-.6251s.25002-.625.62502-.625zm8.74998 3.75H4.92482c-.375 0-.62502-.25-.62502-.625S4.54982 15 4.92482 15h8.74998c.375 0 .625.25.625.625s-.25.625-.625.625zm10.625 0c-.5 0-.875-.125-1.25-.375-.375.25-.75.375-1.25.375-1.375 0-2.5-1.125-2.5-2.5s1.125-2.5 2.5-2.5c.5 0 .875.125 1.25.375.375-.25.75-.375 1.25-.375 1.375 0 2.5 1.125 2.5 2.5s-1.125 2.5-2.5 2.5zM27.4248 0H3.67479C1.92482 0 .549805 1.37502.549805 3.12503v1.24998c0 .375.250019.62502.625015.62502H29.9248c.375 0 .6251-.25002.6251-.62502V3.12503C30.5498 1.37502 29.1748 0 27.4248 0z"/></g><defs><clipPath id="clip0"><path fill="#fff" transform="translate(.549805)" d="M0 0h30.0001v20H0z"/></clipPath></defs></svg>