<svg width="44" height="34" fill="none" xmlns="http://www.w3.org/2000/svg"><path fill-rule="evenodd" clip-rule="evenodd" d="M2.339 7.39h29.275c.693 0 1.256.607 1.256 1.343v21.654c0 .736-.563 1.299-1.213 1.299H2.295c-.693 0-1.212-.563-1.212-1.3V8.734c0-.736.563-1.342 1.256-1.342z" fill="#fff" stroke="#2887D2" stroke-width=".353"/><path fill-rule="evenodd" clip-rule="evenodd" d="M2.642 4.05h28.626c.91 0 1.602.737 1.602 1.603v4.158H1.083V5.653c0-.866.693-1.602 1.559-1.602z" fill="#FC4D44"/><path d="M6.886.676h-.91c-.263 0-.476.29-.476.65v5.357c0 .359.213.65.476.65h.91c.263 0 .477-.291.477-.65V1.325c0-.358-.214-.65-.477-.65zM11.087.676h-.91c-.263 0-.476.29-.476.65v5.357c0 .359.213.65.476.65h.91c.263 0 .476-.291.476-.65V1.325c0-.358-.213-.65-.476-.65zM24.166.676h-.91c-.263 0-.477.29-.477.65v5.357c0 .359.214.65.477.65h.91c.263 0 .476-.291.476-.65V1.325c0-.358-.213-.65-.476-.65zM28.41.676h-.91c-.263 0-.476.29-.476.65v5.357c0 .359.213.65.476.65h.91c.263 0 .476-.291.476-.65V1.325c0-.358-.213-.65-.476-.65zM9.001 11.283h-4.02v4.094H9v-4.094zM16.32 11.283H12.3v4.094h4.02v-4.094zM23.682 11.283h-4.02v4.094h4.02v-4.094zM31.002 11.283H26.98v4.094H31v-4.094zM9.001 18.041h-4.02v4.094H9v-4.094zM16.32 18.041H12.3v4.094h4.02v-4.094zM23.682 18.041h-4.02v4.094h4.02v-4.094zM31.002 18.041H26.98v4.094H31v-4.094zM9.001 24.793h-4.02v4.094H9v-4.094zM16.32 24.793H12.3v4.094h4.02v-4.094zM23.682 24.793h-4.02v4.094h4.02v-4.094zM31.002 24.793H26.98v4.094H31v-4.094z" fill="#1CC8EB"/><path fill-rule="evenodd" clip-rule="evenodd" d="M30.921 12.023s-5.543-.823-6.886.52c-1.299 1.342-.086 4.07-2.035 4.157-1.906.044-5.673 3.811-6.15 6.8-.52 2.988.044 4.157.044 4.157-2.642.65-2.642 2.165-2.642 3.594.043 2.08 1.602 1.69 4.98 1.95 3.378.259 22.217.302 23.3-1.04 1.039-1.3.26-2.815 0-4.114-.304-1.343 2.035-.26 1.515-3.898-.52-3.595 1.949-4.2.39-5.76-1.602-1.602-5.587 2.079-8.532-.563-2.901-2.642-2.555-5.976-3.984-5.803z" fill="#FEFEFE"/><path fill-rule="evenodd" clip-rule="evenodd" d="M27.717 17.001c.39 0 .823 0 1.213.044v-1.473h-2.426v1.473c.39-.044.823-.044 1.213-.044zM26.504 27.48h2.426v1.56h-2.426v-1.56z" fill="#FEFEFE"/><path fill-rule="evenodd" clip-rule="evenodd" d="M25.984 13.49h3.465c.866 0 1.515.693 1.515 1.516v.563h-6.539v-.563c0-.823.693-1.516 1.56-1.516zM27.717 17c-5.587 0-10.177 4.33-10.48 9.874-.044.347.216.606.562.606h19.835c.346 0 .563-.26.563-.606C37.894 21.331 33.303 17 27.717 17zM16.327 29.037h22.736c.823 0 1.472.736 1.472 1.69 0 .909-.65 1.688-1.472 1.688H16.327c-.78 0-1.473-.78-1.473-1.689 0-.953.693-1.689 1.473-1.689z" fill="#2887D2"/><path fill-rule="evenodd" clip-rule="evenodd" d="M32.827 31.592h-3.248c-.52 0-.52.78 0 .78h3.248c.52 0 .52-.78 0-.78z" fill="#2887D2"/><path fill-rule="evenodd" clip-rule="evenodd" d="M39.106 28.649H29.32v-.78h8.315c.26 0 .52-.13.693-.303.173-.173.26-.433.26-.693-.304-5.153-4.158-9.397-9.268-10.134v-.78h1.646c.216 0 .39-.172.39-.389v-.563c0-1.04-.867-1.905-1.906-1.905h-3.465a1.894 1.894 0 00-1.905 1.905v.563c0 .217.173.39.346.39h1.69v.736a10.936 10.936 0 00-9.268 10.177c0 .26.086.52.26.693.173.173.432.303.692.303h8.315v.78h-9.787c-1.04 0-1.862.823-1.862 1.862 0 1.04.822 1.862 1.862 1.862h11.78c.476 0 .476-.78 0-.78h-11.78a1.072 1.072 0 01-1.083-1.082c0-.606.476-1.083 1.083-1.083h22.78c.606 0 1.082.477 1.082 1.083s-.476 1.083-1.083 1.083h-4.72c-.52 0-.52.78 0 .78h4.72c1.04 0 1.862-.824 1.862-1.863 0-1.04-.822-1.862-1.862-1.862zM24.815 15.007c0-.65.52-1.126 1.17-1.126h3.464c.65 0 1.17.476 1.17 1.126v.173h-5.804v-.173zm2.079.953h1.645v.693c-.26-.044-.563-.044-.822-.044-.304 0-.563 0-.823.044v-.693zm-9.225 11.086c-.043-.043-.043-.086-.043-.13.303-5.37 4.72-9.57 10.09-9.57s9.788 4.2 10.091 9.57c0 .044 0 .087-.043.13-.044.044-.087.044-.13.044H17.799c-.043 0-.086 0-.13-.044zm9.225 1.603v-.78h1.645v.78h-1.645zM42.138 22.371h-2.252c-.477 0-.477.736 0 .736h2.252c.476 0 .476-.736 0-.736zM39.583 20.635c.087.173.303.26.476.13l2.252-1.126c.434-.217.087-.91-.346-.693l-2.252 1.169c-.173.087-.26.303-.13.52zM42.311 25.834l-2.252-1.17c-.433-.216-.78.477-.346.693l2.252 1.17c.433.216.78-.477.346-.693z" fill="#2887D2"/><path d="M28.922 15.572h-2.548v1.483h2.549v-1.483z" fill="#2887D2"/><path fill-rule="evenodd" clip-rule="evenodd" d="M13.382 22.371h2.209c.52 0 .52.736 0 .736h-2.209c-.52 0-.52-.736 0-.736zM15.937 20.635c-.086.173-.303.26-.52.13l-2.208-1.126c-.433-.217-.087-.91.346-.693l2.252 1.169c.173.087.26.303.13.52zM13.209 25.834l2.208-1.17c.477-.216.823.477.39.693l-2.252 1.17c-.433.216-.78-.477-.346-.693z" fill="#2887D2"/></svg>