<svg width="40" height="40" fill="none" xmlns="http://www.w3.org/2000/svg"><path d="M.945 21.023H22.4v-.906H.945v.906zM.512 32.64h22.362V21.025H.512V32.64z" fill="#98CA69"/><path d="M15.276 26.807a3.57 3.57 0 01-3.583 3.583 3.546 3.546 0 01-3.583-3.583 3.57 3.57 0 013.583-3.582 3.596 3.596 0 013.583 3.582z" fill="#75AA40"/><path d="M19.173 22.56a3.195 3.195 0 002.126 2.126v4.29c-1.023.276-1.81 1.103-2.126 2.087h-15c-.315-.984-1.102-1.81-2.126-2.086v-4.291a3.195 3.195 0 002.126-2.127h15zm.788-.867H3.425c0 1.22-1.023 2.205-2.244 2.205v5.827c1.22 0 2.244 1.023 2.244 2.244h16.536c0-1.22.984-2.244 2.244-2.244v-5.827c-1.26 0-2.244-.984-2.244-2.205z" fill="#75AA40"/><path d="M12.126 26.377h-.905a.437.437 0 01-.433-.433c0-.276.196-.473.433-.473h.905c.236 0 .433.197.433.473h.906c0-.748-.59-1.339-1.339-1.339v-.472h-.905v.472c-.709 0-1.339.59-1.339 1.339 0 .709.63 1.338 1.339 1.338h.905c.236 0 .433.197.433.433a.437.437 0 01-.433.434h-.905a.437.437 0 01-.433-.434h-.906c0 .748.63 1.34 1.339 1.34v.432h.905v-.433c.748 0 1.339-.59 1.339-1.338 0-.748-.59-1.34-1.339-1.34z" fill="#98CA69"/><path d="M.945 21.021H22.4v-.472H.945v.472z" fill="#75AA40"/><path d="M1.378 20.116h20.59v-.905H1.378v.905z" fill="#98CA69"/><path d="M1.378 20.115h20.59v-.433H1.378v.433z" fill="#75AA40"/><path fill-rule="evenodd" clip-rule="evenodd" d="M2.047 24.683s.867-.237 1.536-1.024c.67-.787.59-1.102.59-1.102h15s.315.866.788 1.338c.512.473 1.338.788 1.338.788v4.291s-.984.315-1.378.827c-.354.472-.748 1.26-.748 1.26h-15s-.196-.63-.787-1.3c-.551-.669-1.339-.787-1.339-.787v-4.291z" fill="#4E901E"/><path fill-rule="evenodd" clip-rule="evenodd" d="M11.693 23.348a3.445 3.445 0 013.465 3.464c0 1.93-1.536 3.504-3.465 3.504a3.512 3.512 0 01-3.504-3.504c0-1.929 1.575-3.464 3.504-3.464z" fill="url(#paint0_linear)"/><path d="M12.284 27.876c0-.197-.04-.315-.119-.393-.118-.119-.275-.197-.472-.276a3.835 3.835 0 01-.551-.236c-.158-.08-.315-.197-.433-.276a.818.818 0 01-.236-.394c-.08-.118-.119-.315-.119-.511 0-.315.119-.591.315-.827.237-.197.512-.315.867-.355v-.511c0-.08.078-.119.157-.119h.197c.079 0 .118.04.118.119v.511c.354.04.63.197.827.433.196.237.315.473.315.827v.04c0 .118-.119.275-.276.275h-.315a.27.27 0 01-.275-.275v-.04c0-.197-.04-.275-.158-.393a.485.485 0 00-.394-.197c-.157 0-.275.04-.354.157-.118.079-.158.197-.158.355 0 .157.04.275.158.393.079.079.236.158.472.276.237.079.434.197.591.275.157.08.276.158.394.276.078.118.196.236.236.354.04.158.079.315.079.473 0 .354-.119.63-.315.827-.197.236-.512.354-.866.393V29.49a.17.17 0 01-.158.158h-.157c-.118 0-.158-.079-.158-.158V29.057c-.433-.04-.748-.197-.945-.433-.236-.236-.354-.472-.354-.866.04-.157.157-.275.276-.275h.314a.27.27 0 01.276.275c0 .236.079.315.157.433a.68.68 0 00.512.197.602.602 0 00.394-.158c.118-.078.158-.196.158-.354z" fill="#FFF212"/><path fill-rule="evenodd" clip-rule="evenodd" d="M14.96 35.118s-2.165-.433-2.165-2.244c0-1.811 1.969-2.362 1.969-2.362s-.472-3.071 1.3-5.197c1.81-2.087 4.487-3.465 4.487-3.465s-.59-2.244.63-2.874c1.22-.59 5.512-.59 6.339 0 .787.63.59 2.874.59 2.874s3.268 2.638 3.662 3.071c.433.394 1.457 2.835 1.654 4.488.314 2.599 2.086.355 2.44 4.882 0 0-.826.827-3.07 1.024-2.245.197-17.835-.197-17.835-.197z" fill="#FEFEFE"/><path fill-rule="evenodd" clip-rule="evenodd" d="M23.898 9.88s1.299-.591 2.874-.08c.59.158 13.307 8.623 11.063 10.827-.67.67-1.063.512-1.693.355l-.59-.158-.512-.472.118.04c.55.117.905.275 1.456-.276 1.93-1.93-8.976-9.174-9.488-9.331-.984-.315-1.89-.118-2.283 0l-.945-.906z" fill="#2887D2"/><path fill-rule="evenodd" clip-rule="evenodd" d="M23.307 9.844s1.89-1.024 3.622-.551c.63.157 14.764 8.189 12.284 10.315-.748.63-1.181.472-1.89.314l-.67-.157-.55-.433h.157c.59.157.945.276 1.575-.276 2.165-1.81-10-8.78-10.551-8.937a4.607 4.607 0 00-2.48 0l-1.497-.275z" fill="#2887D2"/><path fill-rule="evenodd" clip-rule="evenodd" d="M35.827 21.1c-.63.59-1.575.63-2.244.078l-5.158-4.252a1.5 1.5 0 01-1.417.788l-4.134-.079a10.495 10.495 0 00-3.11.354l-.945.276c-.866.236-1.771.315-2.677.236-2.953-.354-3.661-2.283-4.134-2.638-.118-.118-1.771-1.22-2.086-1.456l3.582-5.315c.354.236 2.323 1.535 2.638 1.614 1.339.433 5.276-.945 7.835-.906 1.574.04 2.795.906 3.543 1.536.67.63 8.228 7.362 8.228 7.362.355.315.552.748.552 1.181 0 .473-.158.906-.473 1.22z" fill="#FEFEFE"/><path fill-rule="evenodd" clip-rule="evenodd" d="M12.047 15.039c.473.354 1.142 2.283 4.134 2.598.866.079 1.772.04 2.638-.236l.984-.236a11.821 11.821 0 013.11-.394l4.134.118c.591 0 1.103-.315 1.378-.826l5.197 4.29c.433.355.985.473 1.536.316.511-.158.945-.59 1.102-1.142.158.709-.118 1.417-.748 1.811a1.665 1.665 0 01-1.93-.157l-5.157-4.252a1.5 1.5 0 01-1.417.787l-4.134-.079a10.495 10.495 0 00-3.11.355l-.945.275a7.65 7.65 0 01-2.677.236c-2.953-.354-3.661-2.283-4.134-2.637-.118-.118-1.771-1.22-2.086-1.457l.393-.59c.59.432 1.614 1.141 1.732 1.22z" fill="#fff"/><path fill-rule="evenodd" clip-rule="evenodd" d="M11.181 5.117l2.402 1.614c.59.394.748 1.181.354 1.772l-4.055 5.984c-.393.59-1.18.709-1.771.315l-2.402-1.614a1.272 1.272 0 01-.354-1.772L9.41 5.471a1.272 1.272 0 011.771-.354z" fill="#2887D2"/><path fill-rule="evenodd" clip-rule="evenodd" d="M11.26 7.754a.686.686 0 01-.827.552c-.354-.08-.63-.434-.55-.827.078-.355.432-.63.826-.551.393.078.63.433.551.826z" fill="#2887D2"/><path fill-rule="evenodd" clip-rule="evenodd" d="M19.843 18.266a9.841 9.841 0 013.031-.354l4.134.079c.59.04 1.102-.236 1.457-.67l4.96 4.095c.748.63 1.89.59 2.599-.118.354-.394.551-.906.551-1.417 0-.512-.236-1.024-.63-1.378 0 0-7.559-6.772-8.228-7.363-.827-.708-2.126-1.574-3.74-1.614-1.22-.04-2.756.276-4.213.551-1.496.276-2.913.552-3.543.355-.158-.04-1.142-.63-2.323-1.418l.236-.354c.512-.709.315-1.653-.394-2.165L11.34 4.88a1.575 1.575 0 00-2.166.433l-4.015 5.944a1.532 1.532 0 00.393 2.166l2.402 1.614c.354.236.748.315 1.181.236.315-.04.63-.236.827-.472.905.63 1.81 1.22 1.89 1.299.118.079.196.236.275.354a5.084 5.084 0 003.425 2.205c.158.04.355.079.551.118.945.079 1.89 0 2.756-.236l.985-.276zM9.016 14.723c-.236.04-.512 0-.748-.157L5.866 12.95a1.043 1.043 0 01-.275-1.378L9.646 5.63c.157-.237.354-.394.63-.433.275-.04.512 0 .748.157l2.401 1.614c.433.315.551.945.276 1.378L9.646 14.33c-.158.197-.355.355-.63.394zm7.165 3.504c-2.205-.276-3.07-1.417-3.582-2.126-.119-.157-.276-.315-.394-.472-.118-.08-1.3-.867-1.89-1.3l3.268-4.842c.905.59 2.205 1.417 2.44 1.496.788.236 2.206-.04 3.859-.354 1.417-.276 2.913-.552 4.095-.552 1.456.04 2.637.827 3.346 1.496.709.591 8.228 7.323 8.228 7.323.551.512.63 1.378.118 1.93-.472.55-1.338.63-1.89.157l-5-4.134a1.968 1.968 0 00-.196-1.693c-.354-.472-.906-.787-1.496-.787l-7.362-.197a.27.27 0 00-.276.275.27.27 0 00.276.276l7.362.197c.433 0 .826.236 1.063.63.197.354.236.827 0 1.22-.197.433-.63.67-1.103.67l-4.134-.08a11.136 11.136 0 00-3.228.355l-.945.276c-.826.236-1.693.315-2.559.236z" fill="#2887D2"/><path fill-rule="evenodd" clip-rule="evenodd" d="M23.82 22.72c.314 0 .59 0 .905.039v-1.103h-1.811v1.103c.314-.04.59-.04.905-.04zM22.914 30.469h1.81v1.141h-1.81V30.47z" fill="#FEFEFE"/><path fill-rule="evenodd" clip-rule="evenodd" d="M22.52 20.12h2.598c.59 0 1.103.511 1.103 1.14v.395h-4.803v-.394c0-.63.472-1.142 1.102-1.142zM23.82 22.717a7.74 7.74 0 00-7.756 7.323c0 .236.196.433.433.433h14.645a.437.437 0 00.433-.433c-.236-4.134-3.661-7.323-7.756-7.323zM15.433 31.615h16.772c.59 0 1.063.551 1.063 1.26 0 .67-.473 1.22-1.063 1.22H15.433c-.63 0-1.102-.55-1.102-1.22 0-.709.472-1.26 1.102-1.26z" fill="#2887D2"/><path fill-rule="evenodd" clip-rule="evenodd" d="M27.599 33.506h-2.402c-.354 0-.354.59 0 .59H27.6c.393 0 .393-.59 0-.59z" fill="#2887D2"/><path fill-rule="evenodd" clip-rule="evenodd" d="M32.245 31.338H25v-.59h6.142a.635.635 0 00.512-.237.749.749 0 00.197-.512c-.236-3.78-3.071-6.929-6.85-7.48v-.59h1.22a.27.27 0 00.275-.276v-.394c0-.787-.63-1.417-1.377-1.417H22.52c-.787 0-1.417.63-1.417 1.417v.394c0 .157.157.275.315.275h1.22v.591c-3.78.551-6.653 3.7-6.85 7.48 0 .197.04.394.197.512a.635.635 0 00.511.236h6.142v.59h-7.244a1.37 1.37 0 00-1.378 1.379c0 .748.63 1.378 1.378 1.378h8.7c.395 0 .395-.59 0-.59h-8.7a.79.79 0 01-.787-.788c0-.473.354-.827.787-.827h16.85c.434 0 .788.354.788.827a.79.79 0 01-.787.787H28.74c-.394 0-.394.59 0 .59h3.504c.748 0 1.377-.63 1.377-1.377a1.37 1.37 0 00-1.377-1.378zM21.693 21.259c0-.472.355-.866.827-.866h2.599c.433 0 .826.394.826.866v.118h-4.252v-.118zm1.496.67h1.26v.511h-1.26v-.512zm-6.81 8.228c0-.04-.04-.079-.04-.118a7.473 7.473 0 017.48-7.048 7.473 7.473 0 017.48 7.048c0 .039-.039.078-.039.118-.04 0-.079.04-.118.04H16.496c-.039 0-.078-.04-.118-.04zm6.81 1.18v-.59h1.26v.59h-1.26zM34.449 26.693h-1.614a.276.276 0 000 .551h1.614a.276.276 0 000-.55zM32.56 25.393c.078.157.235.197.393.118l1.653-.827c.315-.197.08-.67-.275-.512L32.677 25c-.118.079-.197.276-.118.394zM34.607 29.251l-1.654-.866c-.354-.157-.59.354-.275.512l1.653.827c.354.197.59-.315.276-.473z" fill="#2887D2"/><path d="M24.717 21.656h-1.882v1.096h1.882v-1.096z" fill="#2887D2"/><path fill-rule="evenodd" clip-rule="evenodd" d="M13.229 26.693h1.653c.354 0 .354.551 0 .551H13.23a.276.276 0 010-.55zM15.118 25.393c-.078.157-.236.197-.393.118l-1.614-.827c-.355-.197-.08-.67.236-.512L15 25c.158.079.197.276.118.394zM13.11 29.251l1.615-.866c.354-.157.63.354.275.512l-1.653.827c-.315.197-.59-.315-.236-.473z" fill="#2887D2"/><path d="M16.142 19.018a.612.612 0 00.157-.63.592.592 0 00-.551-.393h-1.732v-6.3c0-.314-.276-.55-.59-.55H9.92a.538.538 0 00-.551.55v6.3H7.598c-.236 0-.433.157-.55.394 0 .078-.04.118-.04.197 0 .157.079.314.236.433l4.055 3.464a.505.505 0 00.394.158c.118 0 .275-.04.354-.158l4.095-3.465z" fill="#FC4D44"/><path d="M15.866 18.426l.866-.078v.118l.04.039v.197h-.04v.118l-.04.04v.079h-.038v.038l-.04.04v.04l-.04.039h-.039v.039h-.039v.04l-.709-.276v-.04h.04v-.04l.04-.038v-.04l.038-.04V18.466l-.039-.039zm.866-.078l-.04-.04.04.04zm-.984-.08v-.511h.197l.04.04h.118l.039.039h.078l.04.04h.04v.038h.078l.04.04.039.04.039.038.04.04h.039v.04h.04v.039l.039.039v.04l.039.039v.04l.04.038-.867.08v-.04l-.04-.04v-.039h-.039v-.04h-.079.04-.04.04zm-1.732-.511h1.732v.512h-1.732l-.433-.276.433-.236zm0 .512h-.433v-.276l.433.276zm.433-6.575v6.3h-.866v-6.3h.866zm-1.024-.315v-.512h.079l.04.04h.196l.04.039h.078l.04.04h.039l.04.039h.039l.04.039.038.04h.04l.04.039.039.04v.039h.039l.04.039v.04l.039.039v.039h.039v.079l.04.04v.157h.039v.039h-.866v-.079l-.04-.04v-.078h-.04v-.04h-.039v-.039h-.039v-.039h-.04.04zm-3.504-.512h3.504v.512H9.921v-.512zm-.157.827h-.827v-.157l.04-.04v-.079l.039-.039.04-.04V11.3l.038-.04v-.038h.04l.04-.04v-.04l.039-.039h.039l.04-.039.039-.04h.039l.04-.039h.039l.079-.04h.039l.04-.038h.196l.079-.04h.04v.512h.039-.04v.04h-.04v.039h-.039v.04l-.039.039v.079l-.04.039v.039zm-.827 6.3v-6.3h.827v6.3l-.394.275-.433-.276zm.827 0v.275H9.37l.394-.276zm-2.166-.237H9.37v.512H7.598v-.512zm-.118.67l-.826-.08v-.079h.039v-.078h.04v-.04l.039-.039.039-.04.04-.039.039-.039.04-.04h.038v-.039h.08l.039-.039h.039l.04-.04h.079l.038-.039h.08l.039-.039h.197v.512h.039-.04l-.039.04v.038h-.04v.04H7.48v.04zm-.826-.08v-.039.04zm.787.237h-.827v-.198l.04-.038.826.078v.079h-.04v.079zm.157.315l-.708.275h-.04v-.04h-.039v-.038l-.04-.04h-.039v-.079h-.04v-.079h-.038v-.079h-.04V18.584h.827v.08l.04.039v.079h.039v.079h.039v.039h.04zm3.347 3.74L6.89 19.174l.708-.275 4.055 3.464-.708.276zm0 0h.04-.04zm.748-.236v.472h-.276l-.04-.04H11.3l-.04-.039h-.078l-.04-.039h-.039l-.039-.04h-.04v-.039h-.039v-.04h-.04l.71-.275h.039v.04zm0 .472v-.472.472zm0-.512l.709.276-.04.04h-.04v.039h-.039v.039h-.079v.04h-.079l-.038.039h-.118l-.04.04H11.692v-.473h-.039.04-.04l.04-.04-.04.04.04-.04zm4.803-3.189l-4.094 3.465-.71-.276 4.095-3.464.709.275zm0 0h-.04.04z" fill="#FEFEFE"/><defs><linearGradient id="paint0_linear" x1="8.308" y1="27.68" x2="15.05" y2="25.97" gradientUnits="userSpaceOnUse"><stop stop-color="#04870F"/><stop offset="1" stop-color="#03690C"/></linearGradient></defs></svg>