<svg width="40" height="40" fill="none" xmlns="http://www.w3.org/2000/svg"><path fill-rule="evenodd" clip-rule="evenodd" d="M38.307 15.829l-3.74-.512a11.627 11.627 0 00-.945-2.284l2.284-3.031c.393-.551.354-1.339-.158-1.811l-3.937-3.937c-.472-.512-1.26-.551-1.811-.158L26.968 6.38a11.622 11.622 0 00-2.283-.945l-.512-3.74c-.118-.67-.708-1.181-1.378-1.181h-5.59c-.67 0-1.26.511-1.378 1.18l-.512 3.74c-.787.237-1.575.552-2.284.946L10 4.096c-.551-.393-1.339-.354-1.811.158L4.252 8.19c-.512.472-.551 1.26-.157 1.81l2.283 3.032a11.622 11.622 0 00-.945 2.284l-3.74.512c-.67.118-1.181.708-1.181 1.378v5.59c0 .67.512 1.26 1.18 1.378l3.741.512c.236.787.551 1.575.945 2.283l-2.283 3.032c-.394.551-.355 1.338.157 1.81l3.937 3.938c.472.512 1.26.551 1.811.157l3.031-2.283c.71.394 1.497.709 2.284.945l.512 3.74c.118.67.708 1.181 1.378 1.181h5.59c.67 0 1.26-.512 1.378-1.181l.512-3.74a11.62 11.62 0 002.284-.945L30 35.907c.551.394 1.339.355 1.811-.157l3.937-3.937c.512-.473.551-1.26.158-1.811l-2.284-3.032a11.63 11.63 0 00.945-2.283l3.74-.512c.67-.118 1.181-.709 1.181-1.378v-5.59c0-.67-.512-1.26-1.18-1.378zM20 25.592c-2.244 0-4.291-1.377-5.158-3.464-.866-2.087-.393-4.488 1.221-6.063 1.575-1.614 3.976-2.087 6.063-1.22 2.087.865 3.465 2.913 3.465 5.157 0 3.07-2.52 5.59-5.591 5.59z" fill="#1CC8EB"/><path fill-rule="evenodd" clip-rule="evenodd" d="M20 7.559c6.89 0 12.44 5.55 12.44 12.44S26.89 32.442 20 32.442 7.559 26.889 7.559 19.998c0-6.89 5.551-12.44 12.44-12.44zm0 2.283c5.59 0 10.157 4.567 10.157 10.158 0 5.59-4.567 10.157-10.157 10.157S9.842 25.59 9.842 20C9.842 14.409 14.41 9.842 20 9.842z" fill="#2887D2"/><path d="M20 31.107c6.132 0 11.103-4.97 11.103-11.102 0-6.132-4.971-11.103-11.103-11.103S8.898 13.873 8.898 20.005c0 6.131 4.97 11.102 11.102 11.102z" fill="#FEFEFE"/><path d="M13.504 26.54c5.394.039 3.858.078 12.795 0 .355-.552.197-1.339-.236-2.56-.394-1.063-3.228-1.338-3.465-1.456a.675.675 0 01-.433-.63V20.87c.08-.079.158-.157.237-.275a7.61 7.61 0 00.866-1.693c.433-.197.708-.63.708-1.103v-1.18c0-.276-.118-.591-.315-.788v-1.575c.04-.157.08-1.142-.63-1.968-.63-.71-1.614-1.063-2.952-1.063-1.26 0-2.244.197-3.11 1.141-.71.827-.512 1.733-.512 1.89v1.575a1.36 1.36 0 00-.276.787V17.8c0 .355.158.71.433.945.276 1.063.945 1.85 1.142 2.126v.985c0 .275-.236.511-.473.63l-2.637.826c-1.063.433-1.22 2.599-1.142 3.229z" fill="#2887D2"/></svg>