<svg width="44" height="44" fill="none" xmlns="http://www.w3.org/2000/svg"><path fill-rule="evenodd" clip-rule="evenodd" d="M16.5 2.2h27.133v39.233H16.5V2.199zm1.467 1.466H41.8v37.767H17.967V3.666z" fill="#2887D2"/><path fill="#fff" d="M15 29h4v13h-4z"/><path fill-rule="evenodd" clip-rule="evenodd" d="M31.167 7.334v31.533l8.433 2.2V4.4l-8.433 2.934z" fill="#2887D2"/><path d="M33.367 24.932c.405 0 .733-.492.733-1.1 0-.607-.328-1.1-.733-1.1-.405 0-.734.493-.734 1.1 0 .608.329 1.1.734 1.1z" fill="#FEFEFE"/><path fill-rule="evenodd" clip-rule="evenodd" d="M.733 27.868s-.366-2.2 0-2.934c.734-.733 3.3-1.833 4.034-1.833.366-.367 2.566-.367 2.933-.367s2.567 0 2.933.367c.734 0 3.3 1.1 4.034 1.833.366.734 0 2.934 0 2.934a88.374 88.374 0 01-13.934 0zM16.867 27.868s0-2.2.366-2.934c.734-.733 3.3-1.833 4.034-1.833.366-.367 2.566-.367 2.933-.367s2.567 0 2.933.367c.367 0 3.3 1.1 3.667 1.833.733.734.367 2.934.367 2.934a93.08 93.08 0 01-14.3 0z" fill="#FEFEFE"/><path d="M12.467 24.567l-2.567-1.1c-.367-.366-.367-.733-.367-1.1v-1.1-.366c.367-.367.734-1.1 1.1-1.467 0 0 .367-.367.367-.733v-1.1c0-.367 0-.734-.367-.734v-1.466S11 12.834 7.7 12.834s-2.933 2.567-2.933 2.567c0 .733-.367 1.833-.367 2.2v1.1c0 .366 0 .366.367.733a5.167 5.167 0 001.1 1.833v1.1c0 .367-.367.734-.734 1.1l-2.2 1.1c-.733.367-1.466 1.1-1.466 2.2v.734h12.466v-.734c0-1.1-.733-1.833-1.466-2.2z" fill="#FFBB8A"/><path fill-rule="evenodd" clip-rule="evenodd" d="M7.333 24.568l2.567-1.1s1.1.367 1.467.734c.733 0 1.466.366 1.833.733.367.733.733.733.733 1.467v1.1H1.467s0-1.467.366-1.834c.367-.366.734-1.1 2.2-1.833 1.467-.367.734-.367 1.1-.367.734-.366.367-.366.367-.366l1.833 1.466z" fill="#00A859"/><path fill-rule="evenodd" clip-rule="evenodd" d="M4.767 17.968s.366-2.2.366-2.934c.367-.366 1.467-1.1 2.2-1.1.734 0 2.2 0 2.567.734.367 1.1.367 1.833.367 2.2.366.733.366.367.366.367s.367-1.467 0-2.2c0-.734-1.1-1.834-2.2-1.834-1.466 0-2.2 0-2.566.367-.367.367-1.1 1.1-1.1 1.466v1.1c0 .367-.367 1.467-.367 1.467l.367.367z" fill="#FFA87D"/><path fill-rule="evenodd" clip-rule="evenodd" d="M4.4 16.5s-.367-1.832-.367-2.932l.367-1.1.367.366v-1.466c0-.367.733-.367 1.1-.734H7.7c0-.366-.367-.366-.367-.366s.734.366 1.1.366c.367.367.734.367 1.467.734.733 0 1.1 1.466 1.467 1.833v1.833c-.367.734-.367 1.834-.734 1.834V16.5v-.367c0-.366 0-.733-.366-1.1-.367-.733-.367-1.1-.734-1.1H8.8s.367-.366-.733-.733c-.734 0-1.467.367-2.2.367-.734.366-1.1 2.566-1.1 2.566v.367H4.4z" fill="#000"/><path d="M29.333 24.567l-2.933-1.1c0-.366-.367-.733-.367-1.1v-1.1l.367-.366c.367-.367.367-1.1.733-1.467.367 0 .367-.367.367-.733v-1.1-2.2s.367-2.567-3.3-2.567c-3.3 0-2.933 2.567-2.933 2.567 0 .733-.367 1.833-.367 2.2v1.1c0 .366.367.366.367.733a5.168 5.168 0 001.1 1.833v1.1c0 .367 0 .734-.367 1.1l-2.567 1.1c-.733.367-1.1 1.1-1.1 2.2v.734h12.1v-.734c0-1.1-.366-1.833-1.1-2.2z" fill="#FFBB8A"/><path fill-rule="evenodd" clip-rule="evenodd" d="M24.2 24.568l2.2-1.1s1.1.367 1.467.734c.733 0 1.466.366 1.833.733.367.733.733.733.733 1.467v1.1h-12.1s-.366-1.467 0-1.834c.367-.366.734-1.1 2.2-1.833 1.834-.367.734-.367 1.467-.367.367-.366 0-.366 0-.366l2.2 1.466z" fill="#F0A71F"/><path fill-rule="evenodd" clip-rule="evenodd" d="M21.267 17.968s.366-2.2.733-2.934c.367-.366 1.467-1.1 2.2-1.1.367 0 1.833 0 2.2.734.367 1.1.367 1.833.733 2.2.367.733 0 .367 0 .367.367 0 .367-1.467.367-2.2-.367-.734-1.1-1.834-2.567-1.834-1.1 0-1.833 0-2.566.367-.367.367-.734 1.1-1.1 1.466 0 0 .366.367 0 1.1v1.834z" fill="#FFA87D"/><path fill-rule="evenodd" clip-rule="evenodd" d="M21.267 16.5s-.734-1.832-.367-2.932v-1.1l.367.366s0-1.1.366-1.466c0-.367.367-.367 1.1-.734H24.2v-.366s.367.366.733.366c.367.367 1.1.367 1.467.734.733 0 1.467 1.466 1.467 1.833v1.833c0 .734-.367 1.834-.367 1.834V16.5v-.367c0-.366-.367-.733-.367-1.1-.366-.733-.733-1.1-1.1-1.1H25.3s.367-.366-.367-.733c-.733 0-1.833.367-2.566.367-.367.366-1.1 2.566-1.1 2.566v.367z" fill="#000"/><path fill-rule="evenodd" clip-rule="evenodd" d="M6.967 29.334s-.367-2.933.366-3.666c.367-1.1 4.034-2.567 4.767-2.934h8.067c.733.367 4.4 1.834 5.133 2.934.733.733.367 3.666.367 3.666h-18.7z" fill="#FEFEFE"/><path d="M22 25.3l-3.3-1.832c-.367 0-.733-.367-.733-1.1v-1.1c0-.367.366-.367.366-.367l1.1-2.2c.367 0 .734-.733.734-1.1v-1.467c0-.366-.367-.366-.367-.733v-1.833s.367-3.3-4.033-3.3c-4.034 0-3.667 3.3-3.667 3.3 0 1.1-.367 2.2-.367 2.566v1.467c0 .367 0 .733.367 1.1.367 1.467 1.467 2.567 1.467 2.567v1.1c0 .733-.367 1.1-.734 1.1l-3.3 1.833c-.733.367-1.466 1.467-1.466 2.567v1.1h15.4v-1.1c0-1.1-.367-2.2-1.467-2.567z" fill="#FFBB8A"/><path fill-rule="evenodd" clip-rule="evenodd" d="M15.4 24.934l3.3-1.466s1.1 1.1 1.833 1.1c.734.366 1.834.733 2.2 1.466.367.367.734.734.734 1.467v1.467h-15.4s0-1.834.366-2.2c.367-.734.734-1.467 2.567-2.2 2.2-1.1 1.1-.734 1.833-1.1.367-.367.367 0 .367 0-.367 0 2.2 1.466 2.2 1.466z" fill="#E32210"/><path fill-rule="evenodd" clip-rule="evenodd" d="M12.1 16.868s.367-2.567.733-3.667c.367-.733 1.834-1.466 2.567-1.466 1.1 0 2.567 0 3.3 1.1.367 1.1.367 2.2.733 2.933.367.367 0 0 0 0 .367 0 .367-1.833.367-2.567-.367-.733-1.467-2.566-2.933-2.566-1.834 0-2.567.366-3.3.733-.734.733-1.467 1.1-1.467 1.467V14.3c0 .734-.367 1.834-.367 1.834l.367.733z" fill="#FFA87D"/><path fill-rule="evenodd" clip-rule="evenodd" d="M11.733 15.034s-.733-2.2-.366-3.667V9.534l.733.733s0-1.1.367-1.833c0-.367.733-.367 1.466-.733h1.834v-.367s.733.367 1.1.367c.366.366 1.1.366 1.833.733.733.367 1.467 2.2 1.467 2.567.366.366.366 1.833.366 2.2-.366.733-.733 2.566-.733 2.2v-.367-.367c0-.366-.367-1.1-.733-1.466-.367-.734-.367-1.467-1.1-1.467h-.733s.366-.367-.734-.733c-1.1-.367-2.2 0-2.933.366-.733.367-1.467 3.3-1.467 3.3 0 .734-.367.367-.367.367z" fill="#000"/><path d="M1.1 36.3h22v2.567l5.5-4.766-5.5-4.767v2.933h-22v4.034z" fill="#2887D2"/></svg>