<svg xmlns="http://www.w3.org/2000/svg" width="44" height="49" viewBox="0 0 44 50" xmlns:xlink="http://www.w3.org/1999/xlink" shape-rendering="geometricPrecision" text-rendering="geometricPrecision" image-rendering="optimizeQuality" fill-rule="evenodd" clip-rule="evenodd"><defs><linearGradient id="id0" gradientUnits="objectBoundingBox" x1="67.983%" y1="99.455%" x2="32.017%" y2=".545%"><stop offset="0" stop-color="#119e54"/><stop offset=".62" stop-color="#13bc69"/><stop offset="1" stop-color="#15db7f"/></linearGradient><linearGradient id="id1" gradientUnits="userSpaceOnUse" xlink:href="#id0" x1="7.384" y1="13.5" x2="3.896" y2="5.855"/><linearGradient id="id2" gradientUnits="userSpaceOnUse" xlink:href="#id0" x1="15.526" y1="12.996" x2="13.136" y2="7.759"/><style>.fil3,.fil4,.fil7{fill:#2887d2;fill-rule:nonzero}.fil4,.fil7{fill:#fcbc44}.fil7{fill:url(#id0)}</style></defs><g id="Layer_x0020_1"><g id="_462901560"><path d="M0 1v48s44-1 44 0-1-37-1-37L35 1h-1H0z" fill="#fefefe"/><path id="1" d="M0 49V1h1v48H0zm0 0zm44 0h-1v1-1H0v-1h44v1zm-1-37l1-1v38h-1 1-1V12zM35 1l9 10-1 1-9-11h1zm-1 0zm1-1v1h-1V0h1zm-1 0h1-1zM1 1H0l1-1h33l1 1H4L3 2H1V1z" fill="#0098da" fill-rule="nonzero"/><path d="M35 2v7s0 2 1 3h7L35 1v1z" fill="#2887d2"/><g id="_462902784"><path class="fil3" d="M5 47h3V32H5v15z"/><path class="fil4" d="M9 47h3V35H9v12z"/><path class="fil3" d="M18 47h3V24h-3v23z"/><path class="fil4" d="M22 47h3V30h-3v17z"/><path class="fil3" d="M32 47h3V35h-3v12z"/><path class="fil4" d="M36 47h3v-9h-3v9z"/></g><g id="_462902064"><path fill="url(#id1)" fill-rule="nonzero" d="M8 15H6V7L3 8V6l5-1z"/><path d="M10 11h6v2l2-3-2-2v1h-6v2zm0-1" fill="url(#id2)" fill-rule="nonzero"/><path class="fil7" d="M23 15h-2V7l-2 1V6l4-1z"/><path id="1" class="fil7" d="M32 15h-7v-2l3-3c0-1 1-1 1-1V8 6h-1s-1 0-1 1v1h-2V6l1-1c1 0 1-1 2-1s2 1 2 1c1 1 1 1 1 2v2s-1 1-1 2l-3 2h5v2z"/></g></g></g></svg>