<svg xmlns="http://www.w3.org/2000/svg" width="48" height="40" shape-rendering="geometricPrecision" text-rendering="geometricPrecision" image-rendering="optimizeQuality" fill-rule="evenodd" clip-rule="evenodd"><defs><style>.fil5{fill:#2887d2}.fil2{fill:#fff}.fil4{fill:#2887d2;fill-rule:nonzero}</style></defs><g id="Layer_x0020_1"><g id="_807755920"><path fill="#f0a71f" d="M0 15h29.706v25.099H0z"/><path d="M30 14v-4H1 0v4h30z" fill="#e32210"/><circle class="fil2" cx="3" cy="12" r="1"/><circle class="fil2" cx="6" cy="12" r="1"/><circle class="fil2" cx="9" cy="12" r="1"/><g><path fill="#fefefe" d="M14 6h34v29H14z"/><path id="1" class="fil4" d="M48 6H14h34zm0 0zm0 29V6v29zm0 0zm-34-1h34v1H14v-1zm0 1zm0-29v29V6zm0 0z"/><path class="fil5" d="M48 5V1c0-1-1-1-1-1H15s-1 0-1 1v4h34z"/><circle class="fil2" cx="17" cy="3" r="1"/><circle class="fil2" cx="21" cy="3" r="1"/><circle class="fil2" cx="24" cy="3" r="1"/><path class="fil4" d="M43 17H18v-1h25z"/><path class="fil4" d="M30 32V16h1v16zM22 15v-5h3c0 1 0 1 1 1v3c-1 0-1 0-1 1h-3zm1-4v3h1l1-1v-1-1h-2zM39 13c0 1 0 1-1 1 0 1 0 1-1 1s-1 0-1-1c-1 0-1-1-1-1v-1-1c1 0 1 0 1-1h1c1 0 1 0 1 1 1 0 1 0 1 1h-1v-1h-1-1v3h2v-1h1z"/><path class="fil5" d="M32 20h10.681v1.355H32zM32 23h10.681v1.355H32zM32 27h10.681v1.355H32zM18 31h10.681v1.355H18zM32 31h10.681v1.355H32z"/></g><g><path class="fil4" d="M47 34V6h1v28h-1zm0 1v-1h1v1h-1z"/></g><g><path class="fil4" d="M14 34V6h1v28h-1zm0 1v-1h1v1h-1z"/></g><path d="M0 27h23v3l7-7-7-6v3H0v7zm0-4" fill="#f0a71f" fill-rule="nonzero"/></g></g></svg>