<svg xmlns="http://www.w3.org/2000/svg" width="120" height="120" shape-rendering="geometricPrecision" text-rendering="geometricPrecision" image-rendering="optimizeQuality" fill-rule="evenodd" clip-rule="evenodd"><defs><style>.fil0{fill:none}.fil1{fill:#1cc8eb}.fil7{fill:#2887d2;fill-rule:nonzero}</style></defs><g id="Layer_x0020_1"><path class="fil0" d="M0 0h120v120H0z"/><path class="fil0" d="M35 35h49.999v49.999H35z"/><g id="_690104672"><path class="fil1" d="M2 53h13.107v13.107H2z"/><path fill="#f58634" d="M44 12h13.107v13.107H44z"/><path fill="#c73538" d="M44 53h13.107v13.107H44z"/><path fill="#2887d2" d="M44 95h13.107v13.107H44z"/><path fill="#e32210" d="M93 2h25.166v13.107H93z"/><path fill="#51a8b1" d="M93 23h25.166v13.107H93z"/><path class="fil7" d="M90 8L61 21l-1-1L89 7z"/><path class="fil7" d="M90 30l-1 1-29-10 1-1z"/><path fill="#0098da" d="M93 43h25.166v13.107H93z"/><path fill="#fcbc44" d="M93 64h25.166v13.107H93z"/><path class="fil7" d="M90 49L61 62l-1-1 29-13z"/><path class="fil7" d="M90 71l-1 1-29-10 1-1z"/><g><path fill="#ed3237" d="M93 84h25.166v13.107H93z"/><path class="fil1" d="M93 105h25.166v13.107H93z"/></g><g><path class="fil7" d="M90 91l-29 13-1-1 29-13z"/><path class="fil7" d="M90 113l-1 1-29-10 1-1z"/></g><g><path class="fil7" d="M42 18L18 60h-1l24-42zM42 101h-1L17 60h1z"/></g><g><path class="fil7" d="M17 59h22v1H17z"/></g></g></g></svg>