<svg xmlns="http://www.w3.org/2000/svg" width="47" height="48" viewBox="0 0 47 49" shape-rendering="geometricPrecision" text-rendering="geometricPrecision" image-rendering="optimizeQuality" fill-rule="evenodd" clip-rule="evenodd"><defs><style>.fil6{fill:#fefefe}.fil0{fill:#2887d2}.fil3{fill:#fcbc44}.fil7{fill:#e32210;fill-rule:nonzero}</style></defs><g id="Layer_x0020_1"><g id="_787210584"><path class="fil0" d="M1 8h32c1 0 1 1 1 1v26c0 1 0 1-1 1H1s-1 0-1-1V9l1-1z"/><circle cx="36" cy="37" r="4" fill="#fefefe"/><path class="fil0" d="M47 36h-1c-1 0-2-1-2-2s0-2 1-3v-1c-1 0-2-1-2-1 0-1-1-1-1 0-1 0-2 1-3 0-1 0-1-1-1-2l-1-1h-2c-1 0-1 1-1 1 0 1 0 2-1 2-1 1-3 0-3 0 0-1-1-1-1 0-1 0-1 1-2 1v1c1 1 1 2 1 3-1 1-1 1-3 1v4h1c1 0 1 1 2 2 0 1 0 2-1 2v1l2 2h1c0-1 2-1 3-1 0 1 1 2 1 3h4c0-1 0-2 1-3 1 0 2 0 3 1h1l2-2-1-1s-1-1 0-2c0-1 1-2 2-2h1v-3zm-11 5c-2 0-4-2-4-4s2-3 4-3 4 1 4 3-2 4-4 4z"/><path id="1" d="M46 36v-1h1v1h-1zm-3-2h2v1h1v1h-1v-1h-1v-1h-1zm0 0zm1-3l1 1h-1v2h-1v-2h1v-1zm1 1zm-1-1l1-1v2l-1-1zm1-1zm-2-1v-1 1h1v1h1l-1 1v-1h-1v-1zm0-1zm-1 1v-1h1v1h-1zm-3 1v-1h2l1-1v2h-3zm0 0zm-2-3h1v1h1v2-1h-1v-1h-1v-1zm0 0v-1h1v1h-1zm0-1zm-1 1v-1h1v1h-1zm0-1zm0 0v1-1zm0 0zm-1 1v-1h1v1h-1zm0 0zm0 0h-1v-1h1v1zm-1 0zm-1 3l-1-1h1v-1h1v-1h1v1h-1v1h-1v1zm-4-1l1-1v1h2l1 1h-3v-1h-1zm1-1zm-1 1v-1h1l-1 1zm0-1zm-1 3l-1-1v-1h1v-1h1v2h-1v1zm0 0h-1 1zm0 0l-1 1v-2l1 1zm0 3h-1 1v-2h-1l1-1v2h1-1v1zm0 0zm-3 2v-1h2v-1h1v1h-1v1h-2zm0 0zm0 0h-1l1-1v1zm-1 0zm1 1h-1v-1h1v1zm-1 0zm0 0h1-1zm0 0zm1 1l-1 1v-2h1v1zm0 0zm1 1v1h-1v-1h-1l1-1v1h1zm0 1zm2 0l-1 1v-1h-1v-1h2v1zm0 4l-1-1v-1h1v-1h-1l1-1v4zm-1-1zm1 1h-1v-1l1 1h-1 1zm-1 0h1-1zm2 2h-1v-1h-1v-1h1v1h1v1zm0 0h1v1h-1v-1zm1 0zm3-1l-1 1h-3l1-1h3zm1 3v-1h-1v-1h-1l1-1h1v3zm0 0zm1 0v1h-1v-1h1-1 1zm0 0h-1 1zm1 0v1h-1v-1h1zm1 0v1h-1v-1h1zm0 0h1v1h-1v-1zm1 0zm1-3v1h-1v2h-1v-2h1v-1h1zm0 0h1-1zm3 1h-3v-1h3v1zm0 0zm0 0h1v1h-1v-1zm1 0zm1-2l1 1h-1v1h-2 1v-1h1v-1zm0 0l1-1v2l-1-1zm1-1zm-2-3l1 1v2h1l-1 1v-1h-1v-3zm3-1v1h-2v1l-1-1h1v-1h2zm0 0zm0 1v-1 1zm0-1zm0 0h1v1h-1v-1zm0-3h1v3h-1v-1h1v-2h-1zm1 0zm-15 1h1v2l1 1h1v1h1-3v-1h-1v-3zm4-4v1h-2v1h-1v2h-1v-2h1v-1h1v-1h2zm4 4h-1v-2h-1l-1-1h-1v-1h2v1h1v1h1v2zm-4 4l1-1h1v-1h1v-2h1v2h-1v2h-3z" fill="#fefefe" fill-rule="nonzero"/><circle class="fil3" cx="36" cy="37" r="6"/><path d="M37 39v-1h-1-1c0-1 0-1-1-1v-1-2h2v-1 1c1 0 1 0 2 1v1h-1v-1h-1-1v1c1 0 1 1 1 1h1l1 1v2c-1 1-1 1-2 1v1-1c-1 0-2-1-2-1v-1h1c0 1 1 1 1 1h1v-1z" fill="#00a859" fill-rule="nonzero"/><path d="M2 4h30c1 0 2 1 2 2v5H0V6c0-1 1-2 2-2z" fill="#fc4d44"/><g id="_787197792"><rect class="fil0" x="7" width="2.68" height="7.801" rx="1" ry="1"/><rect class="fil0" x="13" width="2.68" height="7.801" rx="1" ry="1"/><rect class="fil0" x="19" width="2.68" height="7.801" rx="1" ry="1"/><rect class="fil0" x="25" width="2.68" height="7.801" rx="1" ry="1"/></g><path class="fil6" d="M8 13h2.733v3.511H8zM13 13h2.733v3.511H13zM18 13h2.733v3.511H18zM24 13h2.733v3.511H24zM29 13h2.733v3.511H29zM2 20h2.733v3.511H2zM8 20h2.733v3.511H8zM13 20h2.733v3.511H13zM18 20h2.733v3.511H18zM24 20h2.733v3.511H24zM29 20h2.733v3.511H29z"/><g id="_787211328"><path class="fil3" d="M0 27h10.73v9.815H0zM14 27h10.615v9.815H14z"/><path class="fil7" d="M6 35H5v-2H3v-2h2v-2h1v2h3v2H6zM20 33h-3-1v-1-1h5l1 1c0 1 0 1-1 1h-1z"/></g><g id="_787210824"><path class="fil3" d="M0 39h10.578v9.677H0zM14 39h10.465v9.677H14z"/><path class="fil7" d="M7 46l-1-2-1 2H4 3l1-1 1-1-1-2H3c0-1 0-1 1-1s1 0 1 1l1 1 1-1v-1h1v1l-1 2 1 1v1H7zM21 45h-5v-1h5v1zm0-2h-5v-1h5v1z"/></g></g></g></svg>