<svg xmlns="http://www.w3.org/2000/svg" width="116" height="115" shape-rendering="geometricPrecision" text-rendering="geometricPrecision" image-rendering="optimizeQuality" fill-rule="evenodd" clip-rule="evenodd"><defs><linearGradient id="id0" gradientUnits="userSpaceOnUse" x1="29.225" y1="77.57" x2="107.096" y2="41.792"><stop offset="0" stop-color="#2887d2"/><stop offset=".329" stop-color="#22a7de"/><stop offset="1" stop-color="#1cc8eb"/></linearGradient><style>.fil0{fill:#1dc0e8;fill-rule:nonzero}</style></defs><g id="Layer_x0020_1"><g id="_639945992"><path class="fil0" d="M113 60l-1-10h1v10zM110 58L75 78l34-21z"/><path d="M27 44s33-14 39-15c5-1 16 5 48 16 2 1 1 3-1 5-1 0-2 1-3 1-4 2-37 21-39 23s-3 7-1 10c1 2 8-2 12-4 20-12 28-18 30-20 1-1 2-1 3-1 0 0 1 0 1 1-1 2-16 12-21 15-5 4-21 14-24 15s-6 0-9-2c-2-2-36-25-39-27-3-3-3-9-2-12s6-5 6-5z" fill="url(#id0)"/><path d="M83 15S66 0 47 7C-14 27 3 128 57 107c16-6 27-18 27-18s-12 22-35 25C-17 124-15 10 48 0c16-2 31 8 35 10 1 2 3 3 3 3l7-4v19l-17-9 7-4z"/></g></g></svg>