<?xml version="1.0" encoding="UTF-8"?>
<!DOCTYPE svg PUBLIC "-//W3C//DTD SVG 1.1//EN" "http://www.w3.org/Graphics/SVG/1.1/DTD/svg11.dtd">
<!-- Creator: CorelDRAW X7 -->
<svg xmlns="http://www.w3.org/2000/svg" xml:space="preserve" width="120px" height="120px" version="1.1" style="shape-rendering:geometricPrecision; text-rendering:geometricPrecision; image-rendering:optimizeQuality; fill-rule:evenodd; clip-rule:evenodd"
viewBox="0 0 120 120"
 xmlns:xlink="http://www.w3.org/1999/xlink">
 <defs>
  <style type="text/css">
   <![CDATA[
    .str0 {stroke:#F0A71F;stroke-width:0.900018}
    .fil0 {fill:none}
    .fil1 {fill:#FEFEFE}
    .fil5 {fill:#FEFEFE}
    .fil7 {fill:#00A859}
    .fil3 {fill:#2887D2}
    .fil4 {fill:#F0A71F}
    .fil6 {fill:#FEFEFE;fill-rule:nonzero}
    .fil2 {fill:#2887D2;fill-rule:nonzero}
   ]]>
  </style>
 </defs>
 <g id="Layer_x0020_1">
  <metadata id="CorelCorpID_0Corel-Layer"/>
  <rect class="fil0" width="120" height="120"/>
  <g id="_576468160">
   <g>
    <g>
     <path class="fil1" d="M97 4l-59 0 -20 16c0,1 0,1 0,2l0 79c0,2 2,4 5,4l74 0c3,0 5,-2 5,-4l0 -93c0,-2 -2,-4 -5,-4z"/>
     <path id="1" class="fil2" d="M38 6l-1 -3 1 0 59 0 0 3 -59 0zm-1 -3l0 0 1 0 -1 0zm-18 18l-2 -2 0 0 20 -16 2 3 -20 15zm-2 -2l0 0 0 0 0 0zm-1 3l0 0 0 0 0 0 0 0 0 0 0 0 0 -1 0 0 0 0 0 0 0 0 0 0 0 0 0 0 0 0 0 0 0 0 0 0 0 -1 0 0 0 0 0 0 0 0 0 0 0 0 0 0 0 0 1 0 0 0 0 0 0 -1 0 0 0 0 3 2 0 0 0 0 0 0 0 0 0 0 -1 0 0 0 0 0 0 0 0 0 0 0 0 0 0 0 0 0 0 0 0 0 0 0 0 0 0 0 0 0 0 0 0 1 0 0 0 0 0 0 0 0 0 0 0 0 0 0 0 0 0 0 0 0 0 0 -3 0zm3 79l-3 0 0 -79 3 0 0 79zm4 5l0 0 -1 0 0 0 0 0 -1 0 0 0 0 0 -1 0 0 0 0 0 0 -1 -1 0 0 0 0 0 0 0 -1 0 0 0 0 -1 0 0 -1 0 0 0 0 0 0 -1 0 0 0 0 0 0 -1 -1 0 0 0 0 0 0 0 -1 0 0 0 0 3 0 0 0 0 0 0 0 0 0 0 0 0 0 0 0 0 1 1 0 0 0 0 0 0 0 0 0 0 0 0 0 0 0 0 0 0 1 1 0 0 0 0 0 0 0 0 0 0 0 0 0 1 0 0 0 0 0 0 0 0 0 0 0 1 0 0 0 0 3zm74 -3l0 3 -74 0 0 -3 74 0zm7 -2l0 0 0 0 0 0 0 1 0 0 -1 0 0 0 0 1 0 0 0 0 0 0 0 1 -1 0 0 0 0 0 0 0 0 1 -1 0 0 0 0 0 0 0 -1 0 0 0 0 1 0 0 -1 0 0 0 0 0 -1 0 0 0 0 0 -1 0 0 0 0 -3 0 0 0 0 1 0 0 0 0 0 0 0 0 0 0 0 1 0 0 0 0 0 0 0 0 0 0 0 0 -1 1 0 0 0 0 0 0 0 0 0 0 0 0 0 0 0 0 0 0 -1 0 0 0 0 0 0 0 0 0 0 0 0 0 0 0 0 4 0zm-4 -93l4 0 0 93 -4 0 0 -93zm-3 -5l0 0 0 0 1 0 0 0 0 0 1 0 0 0 0 0 1 0 0 0 0 1 0 0 1 0 0 0 0 0 0 0 1 0 0 1 0 0 0 0 0 0 1 0 0 1 0 0 0 0 0 0 0 1 0 0 1 0 0 0 0 1 0 0 0 0 -4 0 0 0 0 0 0 0 0 0 0 0 0 0 0 0 0 -1 0 0 0 0 0 0 0 0 0 0 0 0 0 0 0 0 -1 0 0 0 0 -1 0 0 0 0 0 0 0 0 -1 0 0 0 0 0 0 0 0 0 0 0 -1 0 0 0 0 0 0 0 0 -3z"/>
    </g>
    <rect class="fil3" x="50" y="17" width="34.6574" height="6.01822" rx="1" ry="2"/>
    <g>
     <polygon class="fil1" points="38,6 37,20 22,20 "/>
     <path id="1" class="fil2" d="M39 20l-1 1 -2 -1 0 -14 3 0 0 14zm0 0l0 1 -1 0 1 -1zm-17 2l-1 -3 1 0 15 -1 1 3 -16 1zm0 0l-4 0 3 -3 1 3zm15 -17l2 1 0 1 -16 14 -2 -2 16 -14zm0 0l2 -2 0 3 -2 -1z"/>
    </g>
    <rect class="fil3" x="31" y="30" width="54.1201" height="6.01822" rx="2" ry="2"/>
    <rect class="fil1" x="10" y="64" width="54.0999" height="43.4847" rx="5" ry="4"/>
   </g>
   <g>
    <path class="fil4" d="M22 64c12,8 5,32 -12,37 -8,2 -8,1 -8,1 4,7 18,9 25,6 5,-2 10,-6 12,-11 7,-15 0,-31 -17,-33z"/>
    <polygon class="fil4 str0" points="13,74 15,79 19,79 15,81 17,86 13,83 9,86 11,81 7,79 12,79 "/>
    <polygon class="fil4 str0" points="47,64 49,68 53,68 50,71 51,76 47,73 43,76 45,71 41,68 46,68 "/>
    <polygon class="fil4 str0" points="51,83 53,87 57,87 54,90 55,95 51,92 47,95 49,90 45,87 50,87 "/>
   </g>
   <g>
    <circle class="fil4" cx="104" cy="46" r="14"/>
    <g>
     <path class="fil5" d="M67 67l40 0c0,0 4,0 6,-2 2,-3 5,-6 3,-12 -1,-5 -5,-7 -8,-8 -4,0 -6,2 -6,2 0,0 -2,-5 -7,-7 -4,-2 -7,-1 -10,0 -3,2 -4,4 -5,5 -1,2 -1,4 -1,4 0,0 -3,-1 -5,0 -3,1 -4,3 -5,4 0,2 0,3 0,3 0,0 -3,0 -5,2 -2,2 -1,5 0,7 1,1 3,2 3,2z"/>
     <path id="1" class="fil2" d="M107 68l-40 0 0 -2 40 0 0 2zm5 -4l2 1 0 0 0 1 0 0 -1 0 0 0 0 1 -1 0 0 0 0 0 -1 0 0 0 0 1 0 0 -1 0 0 0 0 0 -1 0 0 0 0 0 0 0 -1 0 0 0 0 0 0 0 -1 0 0 0 0 0 0 0 0 0 0 0 0 0 0 0 0 0 0 -2 0 0 0 0 0 0 0 0 0 0 0 0 0 0 0 0 0 0 1 0 0 0 0 0 0 0 0 -1 1 0 0 0 0 0 0 0 0 0 1 0 0 0 0 0 0 0 1 0 0 0 0 0 0 -1 0 0 0 0 1 0 0 0 0 0 0 0zm3 -10l3 -1 0 0 0 1 0 0 0 1 0 0 0 1 0 0 0 1 0 0 0 1 0 0 0 1 0 0 0 0 -1 1 0 0 0 1 0 0 0 0 -1 1 0 0 0 0 0 1 0 0 -1 0 0 1 0 0 0 0 0 0 0 1 -1 0 0 0 0 0 -2 -1 0 -1 0 0 0 0 1 0 0 -1 0 0 0 0 0 0 0 -1 1 0 0 0 0 0 0 -1 0 0 0 0 1 0 0 -1 0 0 0 0 0 -1 0 0 0 0 0 -1 0 0 0 0 0 -1 0 0 0 -1 0 0 0 0 0 -1 0 0 0 0zm-7 -7l0 -3 0 0 0 0 1 0 0 0 1 0 0 0 0 0 1 1 0 0 0 0 1 0 0 0 0 0 1 1 0 0 1 0 0 0 0 1 1 0 0 0 0 1 0 0 1 0 0 1 0 0 0 1 1 0 0 0 0 1 0 0 0 1 1 1 0 0 -3 1 0 -1 0 0 0 -1 0 0 -1 0 0 -1 0 0 0 0 0 -1 0 0 -1 0 0 -1 0 0 0 0 -1 0 0 -1 0 0 0 0 -1 0 0 0 0 0 0 -1 -1 0 0 0 0 0 -1 0 0 0 0 0 0 0 -1 0 0 0 0 0 0 0zm-8 0l3 -1 -2 -1 0 0 0 0 0 0 0 0 0 0 0 0 0 0 0 0 1 0 0 0 0 0 0 0 0 0 0 0 1 0 0 -1 0 0 0 0 1 0 0 0 0 0 1 0 0 0 0 0 1 0 0 0 0 0 1 0 0 0 0 0 1 0 0 0 0 3 -1 0 0 0 0 0 0 0 -1 0 0 0 0 0 0 0 -1 0 0 0 0 0 0 0 -1 0 0 0 0 0 0 0 0 0 -1 0 0 0 0 0 0 0 0 0 0 0 0 0 0 1 -1 0 0 0 0 0 0 0 0 0 0 0 0 0 -2 -1zm-5 -6l1 -2 0 0 0 0 1 0 0 0 1 1 0 0 0 0 1 0 0 1 0 0 1 0 0 1 0 0 1 0 0 1 0 0 0 0 0 0 1 1 0 0 0 0 0 0 0 1 0 0 0 0 0 0 1 1 0 0 0 0 0 0 0 0 0 0 0 0 -3 1 0 0 0 0 0 0 0 0 0 0 0 0 0 0 0 -1 0 0 0 0 0 0 0 0 -1 -1 0 0 0 0 0 0 0 -1 0 0 -1 0 0 0 0 -1 0 0 0 0 -1 0 0 0 0 -1 -1 0 0 0 0 0 0 0 -1 -1 0 0 0 0zm-10 1l-1 -3 0 0 1 0 0 0 0 0 0 0 1 0 0 -1 0 0 1 0 0 0 0 0 1 0 0 0 0 0 1 0 0 0 1 0 0 0 0 0 1 0 0 0 0 0 1 0 0 0 1 0 0 0 0 0 1 0 0 0 1 0 0 0 1 1 0 0 -1 2 0 0 -1 0 0 0 0 0 -1 0 0 0 0 -1 -1 0 0 0 0 0 -1 0 0 0 0 0 -1 0 0 0 0 0 -1 0 0 0 0 0 0 0 -1 1 0 0 0 0 0 0 -1 0 0 0 0 0 -1 0 0 0 0 0 0 1 -1 0 0 0zm-4 4l-2 -1 0 0 0 -1 0 0 0 0 0 0 0 0 0 0 0 0 1 -1 0 0 0 0 0 0 0 0 0 0 0 -1 0 0 1 0 0 0 0 0 0 0 0 -1 0 0 1 0 0 0 0 0 0 -1 1 0 0 0 0 0 0 0 1 0 0 -1 0 0 1 3 0 0 0 0 0 0 -1 0 0 0 0 0 0 1 0 0 0 0 -1 0 0 0 0 0 0 0 0 1 0 0 0 0 -1 0 0 0 0 0 0 0 0 1 0 0 0 0 0 0 0 0 0 0 0 0 -1 0 0 1 0 0 0 0 0 0 0 0zm-2 4l1 -2 -2 1 0 0 0 0 0 0 0 0 0 0 0 0 0 0 0 0 0 -1 0 0 0 0 0 0 0 0 0 0 0 0 0 -1 0 0 0 0 0 0 0 0 0 0 0 -1 0 0 0 0 0 0 0 0 0 -1 0 0 1 0 0 0 0 0 0 0 2 1 0 0 0 0 0 0 0 0 0 0 0 0 0 1 0 0 0 0 0 0 0 0 0 0 0 0 0 1 0 0 0 0 0 0 0 0 0 0 0 0 0 0 0 1 0 0 0 0 0 0 0 0 0 0 0 0 0 0 0 0 0 0 0 0 -2 1zm-5 1l-1 -3 0 0 1 0 0 0 0 0 0 0 1 0 0 0 0 0 1 0 0 -1 0 0 0 0 1 0 0 0 0 0 0 0 1 0 0 0 0 0 0 1 0 0 1 0 0 0 0 0 0 0 0 0 0 0 0 0 0 0 0 0 1 0 0 0 0 0 -1 2 0 0 0 0 0 0 0 0 0 0 0 0 0 0 0 0 -1 0 0 0 0 0 0 0 0 0 0 0 0 0 -1 0 0 0 0 0 0 0 0 0 -1 0 0 0 0 0 0 0 0 0 -1 0 0 0 0 0 0 0 0 0 -1 1 0 0 0 0zm-3 3l-3 -1 0 0 0 0 0 -1 0 0 0 0 1 0 0 0 0 0 0 -1 0 0 0 0 0 0 0 0 0 0 1 -1 0 0 0 0 0 0 0 0 0 0 0 0 1 -1 0 0 0 0 0 0 0 0 1 0 0 0 0 -1 0 0 1 0 0 0 0 0 1 3 0 0 0 0 -1 0 0 0 0 0 0 0 0 0 0 0 0 0 -1 0 0 1 0 0 0 0 0 0 0 0 0 0 0 0 0 0 0 0 -1 0 0 0 0 1 0 0 0 0 0 0 0 0 0 0 0 0 0 0 0 1 0 0 0 0 0 0zm-3 3l1 -2 -2 1 0 0 0 0 0 0 0 0 0 0 0 0 0 0 0 0 0 0 0 0 0 0 0 0 0 -1 0 0 0 0 0 0 0 0 0 0 0 0 0 0 1 0 0 -1 0 0 0 0 0 0 0 0 0 0 0 0 0 -1 0 0 0 0 0 0 3 1 0 0 0 0 -1 0 0 0 0 1 0 0 0 0 0 0 0 0 0 0 0 0 0 0 0 0 0 1 0 0 0 0 0 0 0 0 0 0 0 0 0 0 0 0 0 0 0 0 0 0 0 0 0 0 0 0 0 0 0 0 0 0 0 0 -2 1zm-3 2l-2 -2 0 0 1 0 0 0 0 -1 0 0 1 0 0 0 0 0 0 0 0 -1 1 0 0 0 0 0 0 0 1 0 0 0 0 0 0 0 0 0 0 0 1 0 0 0 0 0 0 0 0 0 0 0 0 0 0 0 1 0 0 0 0 0 0 0 0 0 -1 2 0 0 0 0 0 0 0 0 0 0 0 0 0 0 0 0 0 0 0 1 0 0 0 0 0 0 0 0 0 0 0 0 -1 0 0 0 0 0 0 0 0 0 0 0 0 0 -1 0 0 0 0 0 0 0 0 0 0 0 0 1 -1 0 0 0 0 0zm0 5l-2 2 0 0 0 -1 0 0 0 0 -1 0 0 -1 0 0 0 0 0 0 0 0 0 -1 0 0 0 0 0 -1 0 0 0 0 0 0 0 -1 0 0 0 0 0 -1 0 0 0 0 0 0 0 -1 0 0 0 0 0 -1 1 0 0 0 0 -1 0 0 0 0 2 2 0 0 0 0 0 0 0 0 0 1 0 0 0 0 0 0 0 0 -1 0 0 1 0 0 0 0 0 0 0 0 0 0 0 1 0 0 0 0 0 0 1 0 0 1 0 0 0 0 0 0 0 0 0 0 0 1 0 0 0 0 0 0 0 0 0 0zm2 2l0 2 0 0 0 0 0 0 0 0 0 0 0 0 0 0 0 0 -1 0 0 0 0 0 0 0 0 0 0 0 0 0 0 0 -1 0 0 0 0 -1 0 0 0 0 0 0 -1 0 0 0 0 0 0 0 0 0 0 -1 0 0 -1 0 0 0 0 0 0 0 2 -2 0 0 0 0 0 0 0 0 1 0 0 1 0 0 0 0 0 0 0 0 0 0 0 0 0 0 1 0 0 0 0 0 0 0 0 0 0 0 0 0 0 1 0 0 0 0 1 0 0 0 0 0 0 0 0 0 0 0 0 0 0 0 0 0 -1 0zm0 2l0 0 0 0 0 0z"/>
    </g>
   </g>
   <g>
    <path class="fil6" d="M47 112l1 -5 0 0 1 0 0 0 1 0 1 0 1 0 1 0 1 0 1 -1 0 0 1 0 1 0 1 -1 0 0 1 0 1 -1 0 0 1 -1 1 0 0 -1 1 0 0 -1 1 -1 1 0 0 -1 1 -1 0 0 1 -1 1 -1 0 -1 1 0 0 -1 1 -1 4 3 0 1 -1 1 -1 0 0 1 -1 1 -1 1 0 1 -1 0 -1 1 0 1 -1 1 -1 0 -1 1 0 1 -1 0 -1 1 -1 0 -1 1 0 0 -1 1 -1 0 -1 1 -1 0 -1 0 -1 0 -1 1 -1 0 -1 0 -1 0 -1 0 -2 0 -1 0 0 0zm-2 -4l-4 2 2 -3 0 0 1 0 0 0 0 0 0 0 0 0 0 0 1 0 0 0 0 0 0 0 0 0 0 0 0 0 1 0 0 0 0 0 0 0 0 0 0 0 0 0 0 0 1 0 0 0 0 0 0 0 0 0 0 0 0 0 0 0 0 0 1 0 -1 5 0 0 0 0 0 0 0 0 -1 0 0 0 0 0 0 0 0 0 0 0 0 0 -1 0 0 0 0 0 0 0 0 0 0 0 0 0 -1 0 0 0 0 0 0 0 0 0 0 0 0 0 0 0 0 0 0 0 -1 0 0 0 0 0 0 0 2 -4zm-4 2l-2 -4 4 1 -2 3zm23 3l1 5 0 0 -1 0 0 0 -1 0 -1 0 -1 0 -1 0 -1 0 -1 0 -1 0 -1 0 0 0 -1 0 -1 -1 -1 0 -1 0 -1 0 -1 -1 0 0 -1 0 -1 0 -1 -1 -1 0 0 0 -1 -1 -1 0 0 -1 -1 0 0 -1 -1 0 0 -1 -1 0 0 -1 4 -2 1 0 0 0 0 1 0 0 0 0 1 0 0 1 1 0 0 0 1 0 0 1 1 0 1 0 0 0 1 1 1 0 0 0 1 0 1 0 1 1 0 0 1 0 1 0 1 0 0 0 1 0 1 0 1 0 0 0 1 0 1 0 0 0 0 0zm22 -12l-2 5 2 0 0 0 -1 1 -1 0 0 1 -1 0 0 1 -1 0 -1 1 0 0 -1 1 0 0 -1 1 -1 0 0 1 -1 0 0 0 -1 1 -1 0 0 1 -1 0 -1 0 0 1 -1 0 -1 0 0 0 -1 1 -1 0 0 0 -1 0 -1 0 -1 1 -1 0 -1 -5 1 0 1 -1 1 0 0 0 1 0 0 0 1 0 1 -1 0 0 1 0 0 0 1 -1 0 0 1 0 0 0 1 -1 0 0 1 0 0 -1 1 0 0 -1 1 0 1 0 0 -1 1 0 0 -1 1 0 0 -1 1 0 1 -1 0 -1 1 0 3 -1zm-3 1l1 -1 2 0 -3 1zm10 5l4 4 -3 0 0 0 -1 0 0 0 -1 0 0 0 -1 -1 0 0 0 0 -1 0 0 0 0 -1 -1 0 0 0 0 0 -1 0 0 -1 0 0 0 0 -1 0 0 0 0 0 0 -1 -1 0 0 0 0 0 0 0 -1 0 0 0 0 -1 -1 0 0 0 0 0 2 -5 0 0 0 1 1 0 0 0 1 0 0 0 0 1 1 0 0 0 0 0 1 0 0 1 0 0 0 0 1 0 0 0 0 1 0 0 1 0 0 0 0 0 0 0 1 1 0 0 0 0 1 0 0 0 0 0 0 0 1 0 0 1 0 0 -2 0zm4 4l-1 1 -2 -1 3 0zm-3 -21l5 0 0 0 0 1 0 1 0 0 0 1 0 1 0 0 0 1 0 1 0 0 0 1 0 1 0 1 0 0 0 1 0 1 0 0 0 1 0 0 0 1 0 1 0 0 0 1 0 1 0 0 0 1 -1 0 0 1 0 1 0 0 -1 1 0 0 0 1 -4 -4 0 0 0 0 0 0 0 0 0 -1 1 0 0 0 0 -1 0 0 0 -1 0 0 0 -1 0 0 0 -1 0 0 0 -1 0 0 0 -1 0 -1 0 0 0 -1 0 -1 0 0 0 -1 0 -1 0 0 0 -1 0 -1 0 -1 0 0 0 -1 0 -1 0 0zm-11 -9l-2 -5 0 0 2 0 1 -1 1 0 1 0 1 -1 1 0 1 0 1 -1 1 0 0 0 1 0 1 0 1 0 1 0 0 1 1 0 1 1 0 1 1 0 0 1 0 1 0 1 0 1 0 0 1 1 0 1 0 2 0 1 0 1 0 1 0 2 0 1 -5 0 0 -1 0 -2 0 -1 0 -1 0 -1 0 -1 0 -1 0 -1 -1 -1 0 0 0 -1 0 0 0 -1 0 0 0 0 0 0 0 0 0 0 0 0 0 0 -1 0 0 0 0 0 -1 0 -1 0 0 1 -1 0 -1 0 -1 1 -1 0 -1 1 -2 0 0 0zm-10 4l-2 -5 0 0 1 0 0 0 1 0 0 -1 0 0 1 0 0 0 0 0 1 0 0 0 0 0 1 -1 0 0 0 0 1 0 0 0 0 0 1 0 0 0 0 0 0 -1 1 0 0 0 0 0 1 0 0 0 0 0 0 0 1 0 0 0 0 -1 0 0 2 5 0 0 0 0 -1 0 0 0 0 0 0 1 -1 0 0 0 0 0 -1 0 0 0 0 0 0 0 -1 0 0 1 0 0 -1 0 0 0 0 0 -1 0 0 0 0 0 -1 1 0 0 0 0 -1 0 0 0 0 0 -1 0 0 0 0 1 -1 0 0 0zm1 11l-4 -3 1 3 -1 0 -1 -1 -1 0 -1 -1 -1 0 0 -1 -1 0 -1 -1 0 0 -1 -1 0 0 -1 -1 0 0 0 -1 -1 0 0 -1 0 -1 0 -1 1 -1 0 0 1 -1 0 0 1 -1 0 0 1 0 1 -1 0 0 1 0 1 -1 1 0 1 -1 1 0 2 5 -1 0 -1 0 -1 1 -1 0 -1 0 0 1 -1 0 0 0 -1 0 0 1 0 0 0 0 0 0 0 0 0 -1 0 0 0 0 0 0 0 0 0 0 0 0 1 0 0 1 1 0 0 1 1 0 0 0 1 1 1 1 1 0 1 1 1 0 0 4zm0 -4l2 2 -2 2 0 -4z"/>
    <path id="1" class="fil7" d="M72 94c-6,9 -13,16 -25,16 -1,-1 -2,-1 -4,-1 2,4 14,8 22,6 8,-1 12,-5 20,-11 4,1 5,4 10,5 3,-3 1,-11 1,-19 0,-16 0,-17 -14,-11 -2,1 -6,2 -10,3 -12,5 -10,5 0,12z"/>
   </g>
  </g>
 </g>
</svg>
