<svg xmlns="http://www.w3.org/2000/svg" width="250" height="141" viewBox="0 0 258 146" xmlns:xlink="http://www.w3.org/1999/xlink" shape-rendering="geometricPrecision" text-rendering="geometricPrecision" image-rendering="optimizeQuality" fill-rule="evenodd" clip-rule="evenodd"><defs><linearGradient id="id1" gradientUnits="userSpaceOnUse" x1="37.168" y1="137.028" x2="37.168" y2="3.764"><stop offset="0" stop-color="#eaeaea"/><stop offset=".902" stop-color="#acadb0"/><stop offset="1" stop-color="#acadb0"/></linearGradient><linearGradient id="id2" gradientUnits="userSpaceOnUse" xlink:href="#id1" x1="161.695" y1="114.338" x2="161.695" y2="3.764"/><linearGradient id="id3" gradientUnits="userSpaceOnUse" x1="164.884" y1="137.005" x2="164.884" y2="134.08"><stop offset="0" stop-color="#fefefe"/><stop offset=".251" stop-color="#cccbcb"/><stop offset="1" stop-color="#363435"/></linearGradient><linearGradient id="id4" gradientUnits="userSpaceOnUse" x1="164.884" y1="133.883" x2="164.884" y2="114.477"><stop offset="0" stop-color="#fefefe"/><stop offset="1" stop-color="#363435"/></linearGradient><clipPath id="id0" clip-rule="nonzero"><path d="M139 139c-6-1-11-2-15-3-9-2-15-3-20-4-1-1-2-1-3-1s-2 0-3-1h-2 3c1 0 7-1 8-1 4-1 2-1 7-1 0 0 1 0 2-1 3 1 7 1 11 1 8 1 17 2 34 3 3 1 5 1 9 1 5 1 11 2 17 2 4 1 10 2 15 2-3 0-6 1-8 1h-10c-3 1-5 1-8 1h-30c-2 1-5 1-7 1z"/></clipPath><style>.fil12{fill:#fefefe}.fil14{fill:#00a859}.fil15{fill:#2887d2}.fil13{fill:#9c9e9e}.fil7,.fil9{fill:#fefefe;fill-rule:nonzero}.fil9{fill:#f58634}</style></defs><g id="Layer_x0020_1"><g id="_920387024"><g clip-path="url(#id0)"><image x="96" y="127" width="105.85" height="11.609" xlink:href="settingtools-hover_Images\settingtools-hover_ImgID1.png"/></g><path fill="url(#id4)" d="M144 114h42l4 20h-50z"/><path d="M196 135l-6-1h-50l-6 1v2h62v-1-1z" fill="url(#id3)"/><path fill="#bfbebe" fill-rule="nonzero" d="M194 135l-4-1h-50l-4 1z"/><path d="M241 4H82c-2 0-4 2-4 5v100c0 3 2 5 4 5h159c3 0 5-2 5-5V9c0-3-2-5-5-5z" fill="url(#id2)"/><path d="M237 7H86c-2 0-4 2-4 5v94c0 3 2 5 4 5h151c3 0 5-2 5-5V12c0-3-2-5-5-5z" fill="#2d2d2d" fill-rule="nonzero"/><path d="M165 7c0 1-1 2-2 2 0 0-1-1-1-2s1-1 1-1c1 0 2 0 2 1z" fill="none" fill-rule="nonzero" stroke="#393939" stroke-width=".93"/><path fill="#fefefe" fill-rule="nonzero" d="M85 108h153V11H85z"/><g><path class="fil7" d="M88 96h145V15c0-1-1-3-3-3H90c-1 0-2 2-2 3v81z"/><path d="M119 96V12H90c-1 0-2 2-2 3v81h31z" fill="#2887d2" fill-rule="nonzero"/><path class="fil7" d="M94 34h14v2H94v-2zm0 12h12v2H94v-2zm0 11h20v3H94v-3zm0 12h17v2H94v-2zm0 12h20v2H94v-2zm0-59h20v3H94v-3z"/><path class="fil9" d="M135 23h20v-3h-20zM158 23h30v-3h-30zM135 31h20v-2h-20zM158 31h33v-3h-33zM197 31h5v-2h-5zM135 40h13v-3h-13zM152 40h26v-3h-26zM182 40h20v-3h-20zM135 48h20v-2h-20zM160 48h42v-2h-42zM204 48h17v-2h-17zM135 57h24v-3h-24zM164 57h24v-3h-24zM193 57h25v-3h-25zM135 65h20v-3h-20zM158 65h12v-3h-12zM173 65h12v-3h-12z"/></g><g id="_920387888"><rect x="4" y="4" width="66.115" height="133.264" rx="8" ry="8" fill="url(#id1)"/><path d="M16 8h44c4 0 7 3 7 7v109c0 4-4 8-8 8H15c-4 0-7-3-7-8L9 15c0-4 3-7 7-7z" fill="#4b4b4d" stroke="#fefefe" stroke-width="1.032"/><rect class="fil12" x="17" y="21" width="41.323" height="6.198" rx="2" ry="2"/><rect class="fil13" x="15" y="135" width="4.133" height="6.198" rx="1" ry="1"/><rect class="fil13" x="55" y="135" width="4.133" height="6.198" rx="1" ry="1"/><rect class="fil12" x="17" y="34" width="41.323" height="6.198" rx="2" ry="2"/><rect class="fil12" x="17" y="46" width="41.323" height="6.198" rx="2" ry="2"/><circle class="fil14" cx="38" cy="98" r="5"/><rect class="fil14" transform="matrix(0 .33347 -.33347 0 38.718 105.004)" width="41.323" height="6.198" rx="2" ry="2"/></g><path class="fil14" d="M233 82c-6 0-61 0-62 1-1 0-3 9-3 8v1c-1-2-4-16-5-18 0-2-1-5-2-5-1-1-2 4-3 6 0 2-1 6-2 7h-11c-2-2-2-3-5-3-6 0-5 9 0 9 3 0 3-2 5-4h13c1-2 2-7 3-9 1 2 2 9 3 12l2 9c1 3 2 3 3 1l3-13h61v-2zm-93-1c-4 2-1 6 1 4 3-1 1-5-1-4z"/><path class="fil15" d="M215 92h1c2 0 4-1 6-1l17 18 8-8-16-19c1-1 1-3 1-5v-1c0-8-6-15-14-15-3 0-5 0-7 1l10 11s1 1 1 2c1 2 0 4-1 5s-3 1-4 1h-2c-1 0-1-1-2-1l-9-11c-1 2-2 4-2 7-1 8 5 15 13 16z" stroke="#fefefe" stroke-width="3.098"/><path class="fil15" d="M220 102H82v4c0 3 2 6 5 6h153c5 0 5-5 5-9l1-1h-26 0z" stroke="#fefefe" stroke-width="3.098"/><path fill="none" d="M0 0h258v146H0z"/></g></g></svg>