<svg xmlns="http://www.w3.org/2000/svg" width="229" height="164" viewBox="0 0 287 205" shape-rendering="geometricPrecision" text-rendering="geometricPrecision" image-rendering="optimizeQuality" fill-rule="evenodd" clip-rule="evenodd"><defs><linearGradient id="id0" gradientUnits="userSpaceOnUse" x1="91.034" y1="87.614" x2="35.441" y2="113.727"><stop offset="0" stop-color="#91d8f7"/><stop offset=".702" stop-color="#77cfe4"/><stop offset="1" stop-color="#5cc6d0"/></linearGradient><style>.fil2{fill:#fefefe}.fil5{fill:#5cc6d0}.fil1{fill:#25a6d9}.fil0{fill:#2887d2}.fil6{fill:#fefefe;fill-rule:nonzero}</style></defs><g id="Layer_x0020_1"><g id="_667257648"><path class="fil0" d="M15 59h86c4 0 8 6 8 10v122c0 5-3 8-7 8H16c-4 0-8-3-8-8L7 76c-3-1-3-4-3-8-1-5 2-8 5-8 4-1 4-1 6-1z"/><path class="fil1" d="M21 59h82c4 0 7 4 7 8l1 122c0 4-3 7-8 7H21c-4 0-7-3-7-8L13 66c0-4 4-7 8-7z"/><path class="fil2" d="M24 63h78c4 0 7 3 7 7v116c0 4-3 8-7 8H24c-4 0-7-4-7-8V70c0-4 3-7 7-7z"/><path d="M27 77h73c4 0 7 3 7 7v34H20V84c0-4 4-7 7-7z" fill="#2887d2"/><path fill="url(#id0)" d="M23 92h81v17H23z"/><rect class="fil5" transform="rotate(.141 -974634.141 218711.817) scale(.33072)" width="40.043" height="18.77" rx="7" ry="7"/><rect class="fil5" transform="rotate(.141 -971771.9 341019.345) scale(.33072)" width="40.043" height="18.77" rx="7" ry="7"/><rect class="fil5" transform="rotate(.141 -968909.678 463326.095) scale(.33072)" width="40.043" height="18.77" rx="7" ry="7"/><rect class="fil5" transform="rotate(.141 -966047.437 585633.623) scale(.33072)" width="40.043" height="18.77" rx="7" ry="7"/><rect class="fil5" transform="rotate(.141 -963005.954 715559.003) scale(.33072)" width="40.043" height="18.77" rx="7" ry="7"/><rect class="fil0" transform="rotate(.141 -1051886.165 220519.383) scale(.33072)" width="41.295" height="32.535" rx="7" ry="7"/><rect class="fil0" transform="rotate(.141 -1049061.767 341218.568) scale(.33072)" width="41.295" height="32.535" rx="7" ry="7"/><rect class="fil0" transform="rotate(.141 -1046237.37 461917.753) scale(.33072)" width="41.295" height="32.535" rx="7" ry="7"/><rect class="fil5" transform="rotate(.141 -1043412.972 582616.938) scale(.33072)" width="41.295" height="32.535" rx="7" ry="7"/><rect class="fil5" transform="rotate(.141 -1040333.72 714147.55) scale(.33072)" width="41.295" height="32.535" rx="7" ry="7"/><rect class="fil0" transform="rotate(.141 -1154881.08 222929.547) scale(.33072)" width="41.295" height="32.535" rx="7" ry="7"/><rect class="fil0" transform="rotate(.141 -1152056.683 343628.732) scale(.33072)" width="41.295" height="32.535" rx="7" ry="7"/><rect class="fil0" transform="rotate(.141 -1149232.285 464327.917) scale(.33072)" width="41.295" height="32.535" rx="7" ry="7"/><rect class="fil5" transform="rotate(.141 -1146407.887 585027.102) scale(.33072)" width="41.295" height="32.535" rx="7" ry="7"/><rect class="fil5" transform="rotate(.141 -1143328.653 716556.936) scale(.33072)" width="41.295" height="32.535" rx="7" ry="7"/><rect class="fil0" transform="rotate(.141 -1257875.995 225339.71) scale(.33072)" width="41.295" height="32.535" rx="7" ry="7"/><rect class="fil0" transform="rotate(.141 -1255051.598 346038.896) scale(.33072)" width="41.295" height="32.535" rx="7" ry="7"/><rect class="fil0" transform="rotate(.141 -1252227.2 466738.08) scale(.33072)" width="41.295" height="32.535" rx="7" ry="7"/><path class="fil0" d="M74 162h9c1 0 2 1 2 3v20c0 1-1 2-2 2h-9c-1 0-2-1-2-2v-20c0-2 1-3 2-3z"/><rect class="fil5" transform="rotate(.141 -1246323.568 718967.1) scale(.33072)" width="41.295" height="32.535" rx="7" ry="7"/><rect class="fil0" transform="rotate(.141 -1368018.255 227917.268) scale(.33072)" width="41.295" height="32.535" rx="7" ry="7"/><rect class="fil0" transform="rotate(.141 -1365193.858 348616.453) scale(.33072)" width="41.295" height="32.535" rx="7" ry="7"/><rect class="fil0" transform="rotate(.141 -1362369.46 469315.638) scale(.33072)" width="41.295" height="32.535" rx="7" ry="7"/><rect class="fil5" transform="rotate(.141 -1356465.828 721544.657) scale(.33072)" width="41.295" height="32.535" rx="7" ry="7"/><path class="fil6" d="M33 171h-1v-6l-1 1v-1l2-1zM35 182c0 1-1 2-1 3h-3c0-1-1-2-1-3v-1c0-1 1-1 1-2h3c0 1 1 1 1 2v1zm-1-1s0-1-1-1v-1c-1 0-1 0-1 1-1 0-1 1-1 1v2s0 1 1 1c0 0 0 1 1 1v-1c1 0 1-1 1-1v-2zM50 171h-5v-1l3-2v-1c1 0 1 0 1-1 0 0-1 0-1-1h-1-1v1h-1s0-1 1-1l1-1c1 0 2 1 2 1v1c0 1 0 2-1 2l-2 2h4v1zM62 167h2v-1c0-1 0-1-1-1h-1v1h-1v-1c1 0 1-1 2-1s1 1 1 1c1 0 1 1 1 1v1c-1 0-1 1-1 1h1v1c0 1 0 1-1 2h-3v-2h1v1h2v-1-1h-2v-1zM34 156h1-1v2h-1v-2h-3l3-5h1v5zm-3 0h2v-4 1l-2 3zM46 155v-4h3v1h-2v2h2c1 1 1 1 1 2l-1 1c0 1-1 1-1 1-1 0-1 0-2-1v-1l1 1h2v-1c0-1 0-1-1-1v-1c-1 0-1 0-1 1h-1zM64 151v1c-1 0-1 0-1 1-1 0-1 0-1 1h3v3c-1 1-1 1-2 1s-1 0-1-1c-1 0-1-1-1-2s0-2 1-3c0 0 1-1 2-1zm-1 3h-1v3h2v-1-1c0-1-1-1-1-1zM35 138l-3 7h-1l3-6h-4v-1h5zM49 140v1h-1c1 0 1 1 1 1s1 0 1 1l-1 1s-1 1-2 1l-1-1-1-1c0-1 0-1 1-1v-1-1-2h3v2zm0 3c0-1 0-1-1-1h-1c-1 0-1 0-1 1l1 1h1l1-1zm-2-4c-1 0-1 0-1 1l1 1h1c0-1 1-1 1-1 0-1-1-1-1-1h-1zM64 142h-2c-1 0-1 0-1-1v-1-1l1-1h1c1 0 1 0 1 1 1 0 1 1 1 2s0 2-1 3c0 0-1 1-2 1v-1c1 0 1 0 2-1v-1zm-1 0l1-1v-1-1h-1-1v2c0 1 0 1 1 1zM47 182v-1c1 0 1 0 1 1h-1zM65 181h-4 4zm0 2h-4v-1h4v1zM79 174h2v1h-2v2h-1v-2h-2v-1h2v-2h1z"/><path transform="rotate(.141 -666097.565 192169.399) scale(.33072)" d="M0 0h60.066v11.262H0z"/><g><path d="M102 48c-1 0-4-1-6-1H83v11h18c2 0 4-1 4-1v-7c0-1-1-2-3-2z" fill="#d2d3d5" fill-rule="nonzero"/><path class="fil6" d="M46 47h50c-5 0-9 1-9 3v20H37V50c0-2 4-3 9-3z"/><path id="1" d="M96 48H46v-1h50v1zm-8 2h-1v-1h1v-1h4v-1h4v1h-7v1h-1v1zm-1 20V50h1v20h-1zm1 0h-1 1zm-51 0h50-50zm0 0zm1-20v20h-1V50h1zm8-3v1h-7v1h-1v1h-1v-1h1v-1h4v-1h4z" fill="#96989a" fill-rule="nonzero"/></g><path d="M253 110l-30 41h-99l35-41V62h94v48z" fill="#022e61"/><path class="fil2" d="M246 109l-28 35h-80l30-35V70h78z"/><path class="fil1" d="M174 76h25.23v4.931H174zM206 76h9.596v4.931H206zM174 89h25.23v4.931H174zM206 89h9.596v4.931H206zM174 100h25.23v4.931H174zM206 100h9.596v4.931H206z"/><g><path class="fil2" d="M180 156l79-47 21 39c2 3 1 7-3 9l-66 39c-4 2-8 1-10-2l-21-38z" stroke="#022e61" stroke-width="2.502"/><path d="M181 155l79-47 20 34c2 4 1 8-2 10l-67 39c-4 2-8 1-10-2l-20-34z" fill="#022e61"/></g><path d="M233 93c0-1-1-2-1-2-1-1-1-1-3-2-1 0-2-1-3-1s-1-1-2-2c-1 0-1-1-1-2-1 0-1-1-1-2 0-2 1-4 2-5s3-2 5-2v-3h2v3c2 0 4 1 5 3 1 1 1 2 1 4 0 1 0 2-1 2h-2c-1 0-1-1-1-2s-1-2-1-2c-1-1-1-1-2-1s-2 0-2 1c-1 0-1 1-1 2s0 1 1 2c0 0 1 1 2 1 2 1 3 1 3 2 1 0 2 1 3 1 0 1 1 2 1 2v3c0 2 0 3-1 4-2 2-3 2-5 2v3l-1 1h-1l-1-1v-3c-2 0-4-1-5-2s-2-2-2-5c0 0 1-1 2-1h1c1 0 2 1 2 1 0 2 0 2 1 3 0 0 1 1 3 1 0 0 1-1 2-1 0-1 1-1 1-2z" fill="#00a859" fill-rule="nonzero"/><path d="M211 166c0-1-1-2-1-2h-3c-1 0-3 1-4 1h-2c-1-1-2-1-3-1 0-1-1-2-1-3-1-1-2-3-1-4 0-2 1-3 3-5l-1-1-1-1v-1h1c1-1 1-1 1 0l1 1 1 1c2-1 3-1 5 0 2 0 3 1 4 3 0 1 0 2-1 2l-1 1c-1 0-2 0-2-1-1-1-1-1-2-1h-3c0 1-1 1-1 2s0 1 1 2c0 1 1 1 1 1 1 1 2 0 3 0h6c1 0 2 1 3 1 0 0 1 1 1 2 1 2 2 3 1 5 0 1-1 3-3 4l1 1 1 1s0 1-1 1v1c-1 0-1 0-2-1v-1l-1-1c-2 1-4 2-6 1-1 0-2-1-4-3 0-1 0-2 1-2l1-1c1 0 2 0 2 1h1c0 1 1 1 1 1h3l2-2c0-1 0-2-1-2z" fill="#fff212" fill-rule="nonzero"/><path class="fil1" d="M172 118h28.851v4.931H172zM207 118h9.596v4.931H207zM161 128h33.13v4.931H161zM202 128h9.596v4.931H202z"/><path fill="none" d="M0 0h287v205H0z"/></g></g></svg>