<svg xmlns="http://www.w3.org/2000/svg" width="204" height="140" viewBox="0 0 213 147" xmlns:xlink="http://www.w3.org/1999/xlink" shape-rendering="geometricPrecision" text-rendering="geometricPrecision" image-rendering="optimizeQuality" fill-rule="evenodd" clip-rule="evenodd"><defs><linearGradient id="id0" gradientUnits="userSpaceOnUse" x1="43.434" y1="132.055" x2="23.7" y2="112.321"><stop offset="0" stop-color="#e09200"/><stop offset="1" stop-color="#ffef94"/></linearGradient><linearGradient id="id1" gradientUnits="userSpaceOnUse" xlink:href="#id0" x1="45.188" y1="113.447" x2="21.952" y2="90.211"/><style>.fil4{fill:#033857}.fil1{fill:#2887d2}</style></defs><g id="Layer_x0020_1"><path fill="#f0a71f" d="M3 131h198.79v14.056H3z"/><g id="_759807120"><path class="fil1" d="M139 131v-27l10-10s-2-7-12-11-10-3-10-3l-10 30v21h22zM94 131v-27l-9-10v-1c1-2 4-7 11-10 10-4 10-3 10-3l11 30v21H94z"/><path fill="#ed9c7f" d="M126 78V67h-18v12l9 11z"/><path class="fil1" d="M83 100v31h11v-27l-9-10c-1 2-2 3-2 6zM150 100c0 2 1 20 1 20v11h-12v-27l10-10c0 2 1 3 1 6z"/><path d="M126 76s1 3 1 5c-1 2-10 29-10 29l-11-30s1-3 1-4c1 0 7 5 8 6 2 0 2 1 2 1s4-4 6-5c2-2 3-3 3-2z" fill="#fefefe" stroke="#727376" stroke-width=".193"/><path class="fil4" d="M123 82v6l-6-3v-1zM110 82v6l7-3v-1z"/><circle cx="117" cy="85" r="2" fill="#054f76"/><rect x="98" y="101" width="11.002" height="5.195" rx="1" ry="1" fill="#fefefe"/><path d="M93 54s3 8 8 12c5 3 11 6 13 6 2 1 3 1 3 1s1 0 3-1c2 0 8-3 12-6 5-4 8-12 8-12 1 0 4-1 6-4 1-3 0-7-1-8-2-1-4-1-4-1s-2-12-7-17c-6-4-17-3-17-3-3 0-12-1-17 3-6 5-8 17-8 17s-1 0-3 1c-1 1-2 5-1 8s4 4 5 4z" fill="#f5ac89"/><path d="M141 42s1 1 2-6c2-7 2-15-2-20-4-6-8-6-9-6s0-2-9-6c-10-3-16-1-20 1-3 2-13 9-14 19s1 15 2 17c1 1 4-7 6-10l2-3s-1 2-2 5l-1 2s3-6 4-7c1-2 0-3 3-3 2 0-2 2-2 2s3-2 4-2c2 0 2 1 7 2 4 0 12-1 13-1 2-1 3 1 3 2v1s1-3 0-4c0 0 1-1 3 0 2 0 2 1 3 4 1 4 0 4 0 4s1-6 0-6c0-1 4 5 5 10 1 4 2 5 2 5z"/></g><g id="_759809784"><path d="M13 119h41c1 0 2 1 2 2h2v5H9v-4-1h2c0-1 1-2 2-2z" fill="url(#id0)"/><path d="M13 112h3c0-9 7-17 16-17v-3h-3v-1c0-1 1-1 2-1h5c1 0 2 0 2 1v1h-3v3c9 0 16 8 17 17h3v2H13h-1v-2h1z" fill="url(#id1)"/></g><path fill="none" d="M0 0h213v147H0z"/></g></svg>