<svg xmlns="http://www.w3.org/2000/svg" width="347" height="143" viewBox="0 0 359 148" shape-rendering="geometricPrecision" text-rendering="geometricPrecision" image-rendering="optimizeQuality" fill-rule="evenodd" clip-rule="evenodd"><defs><style>.fil5{fill:#fff212}.fil4{fill:#000}.fil11{fill:#99562c}.fil9{fill:#fefefe;fill-rule:nonzero}.fil15,.fil7,.fil8{fill:#ed3237;fill-rule:nonzero}.fil7,.fil8{fill:#4e901e}.fil7{fill:#7ed63e}</style></defs><g id="Layer_x0020_1"><g id="_677648696"><path fill="none" d="M0 0h359v148H0z"/><path d="M209 25s-12-1-13 6c-1 8 0 12 6 13 6 2 51 1 51 1h64s10 0 13 1c2 0 4 1 4 1V31c0-4-3-6-30-6h-95z" fill="#bf774a"/><path d="M204 22h122c7 0 12 6 12 12v18c-6-2-4-3-12-3H204c-8 0-12-9-12-13v-2c0-6 5-12 12-12zm5 3s-12-1-13 6c-1 8 0 12 6 13 6 2 51 1 51 1h64s10 0 13 1c2 0 4 1 4 1V31c0-4-3-6-30-6h-95z" fill="#ad5f2f"/><rect x="212" y="9" width="79.168" height="47.501" rx="7" ry="7" fill="#4e8ac8"/><path class="fil4" d="M212 16h79.168v4.169H212z"/><path class="fil5" d="M217 30h4.679v5.201H217zM224 30h4.679v5.201H224zM230 30h4.679v5.201H230zM237 30h4.679v5.201H237zM243 30h4.679v5.201H243zM250 30h4.679v5.201H250z"/><g><rect x="199" y="16" width="79.168" height="47.501" rx="7" ry="7" fill="#00afef"/><path class="fil4" d="M199 24h79.168v4.169H199z"/><path class="fil5" d="M204 38h4.679v5.201H204zM210 38h4.679v5.201H210zM217 38h4.679v5.201H217zM223 38h4.679v5.201H223zM230 38h4.679v5.201H230zM236 38h4.679v5.201H236z"/></g><g><path class="fil7" d="M231 79l113-8-4-61-113 7z"/><path class="fil8" d="M335 27l2 27c-6 1-10 6-10 12l-80 5c0-6-6-10-12-10l-1-27c6 0 10-5 10-11l80-6c0 6 6 11 11 10z"/><path class="fil9" d="M296 44c0 5-4 10-10 11-5 0-10-4-11-10 0-6 4-11 10-11 5 0 10 4 11 10z"/><path class="fil7" d="M229 41l2 38 39-3c-11 1-21-2-28-9-8-7-13-16-13-26z"/><path class="fil9" d="M309 45h10v-6l-11 1zM252 49l11-1-1-5-10 1z"/><g><path class="fil7" d="M224 86l112-7-4-62-113 8z"/><path class="fil8" d="M328 35l2 27c-6 0-11 5-10 11l-81 6c0-6-5-11-11-10l-2-27c6 0 10-6 10-12l80-5c1 6 6 10 12 10z"/><path class="fil7" d="M221 48l3 38 38-2c-10 1-20-3-28-10-8-6-12-16-13-26z"/><path class="fil9" d="M301 53l10-1v-5l-10 1zM245 57l10-1v-5l-11 1z"/></g><path d="M286 56c0-1-1-2-1-2-1-1-2-1-3-2-2 0-3 0-4-1-1 0-2-1-3-1 0-1-1-2-2-3v-3c0-2 0-4 1-5 2-1 3-2 6-3l-1-1v-2l1-1h1c1 0 1 0 1 1v1l1 2c2 0 4 1 5 2 1 2 2 3 2 6 0 1-1 1-2 2h-1c-1 0-2-1-2-2s-1-2-1-3c-1 0-2-1-3-1-1 1-2 1-2 1-1 1-1 2-1 3s0 2 1 2c1 1 2 1 3 2 2 0 3 1 4 1 1 1 2 1 3 2 0 0 1 1 1 2 1 1 1 2 1 3 0 2 0 4-2 5-1 2-3 3-5 3v3s0 1-1 1h-1l-1-1v-1-2c-2 0-5-1-6-2-2-2-2-3-2-5 0-1 0-2 1-2h2c1 0 2 0 2 1 0 2 0 2 1 3s2 1 3 1 2-1 3-1c0-1 1-2 1-3z" fill="#fff212" fill-rule="nonzero"/></g><g><path class="fil11" d="M204 49h126c7 1 13 6 13 13v67c0 6-6 12-13 12H204c-7 0-12-6-12-12V37c2 5 5 12 12 12zM343 70s4 1 6 2c1 1 1 2 1 2s-4 2-5 3h-2v-7z"/><path d="M200 54s-1 70 0 70 0 7 8 7h119s7 1 8-6V62s1-6-7-6H206c-1-1-5-4-6-2z" fill="#ad5f2f"/><path class="fil11" d="M311 77s-7 0-14 6c-6 7-4 18-1 21 2 4 6 7 13 9 7 1 32 0 34 0 3 0 5 0 7-4 2-3 1-30 1-30s0-4-1-5l-1-1s1 2-4 4c-5 1-34 0-34 0z"/><path d="M345 74l2 2-4 1v-3h2z" fill="#6e3614"/><circle cx="317" cy="95" r="12" fill="#e09200"/></g><path class="fil15" d="M129 102c0-3-1-5-3-7-1-2-4-3-8-5-4-1-8-3-11-4-3-2-5-3-7-5s-4-5-5-7c-1-3-2-6-2-10 0-6 2-11 6-15s9-6 16-7v-9c0-2 1-3 3-3h3c2 0 3 1 3 3v9c7 1 12 4 15 8 4 5 6 9 6 16 0 3-2 5-5 5h-6c-3 0-5-2-5-5 0-4-1-6-3-8s-4-3-7-3-6 1-7 2c-2 2-3 4-3 7s1 5 3 7c1 2 4 4 9 5 4 2 8 4 11 5 3 2 5 4 7 6s3 4 4 6c1 3 2 6 2 9 0 7-2 12-6 16s-9 6-16 7v8c0 1-1 3-3 3h-3c-2 0-3-2-3-3v-8c-8-1-13-4-18-8-4-5-6-9-6-17 0-2 3-4 5-4h6c3 0 5 2 5 4v1c0 4 1 5 3 7 2 3 5 4 9 4s6-1 8-3c2-1 3-4 3-7zM22 100V65H9l26-36 25 36H47v35H22zm13 0"/></g></g></svg>