<svg xmlns="http://www.w3.org/2000/svg" width="250" height="188" viewBox="0 0 250 187" xmlns:xlink="http://www.w3.org/1999/xlink" shape-rendering="geometricPrecision" text-rendering="geometricPrecision" image-rendering="optimizeQuality" fill-rule="evenodd" clip-rule="evenodd"><defs><linearGradient id="id0" gradientUnits="userSpaceOnUse" x1="147.88" y1="162.686" x2="143.406" y2="114.465"><stop offset="0" stop-color="#37210a"/><stop offset="1" stop-color="#6e3614"/></linearGradient><linearGradient id="id1" gradientUnits="userSpaceOnUse" xlink:href="#id0" x1="106.358" y1="162.686" x2="101.827" y2="114.465"/><style>.str0{stroke:#373435;stroke-width:.899994}.fil0{fill:none}.fil12{fill:#fefefe}.fil7{fill:#91d8f7}.fil9{fill:#000}.fil5{fill:#6e3614}.fil4{fill:#f5f5f5}.fil3{fill:#fa0303}.fil13{fill:#fefefe;fill-rule:nonzero}.fil2{fill:#000;fill-opacity:.501961}</style></defs><g id="Layer_x0020_1"><g id="_643431080"><path class="fil0" d="M0 0h250v187H0z"/><path fill="#d8a182" d="M25 10h201v166H25z"/><path class="fil2" d="M61 56c3 1 0 0 2 1 3 2 6 6 12 2l4-3h1V12c-6-1-13 0-19 0v44zM117 56c4 6 13 6 17 0 1-2 1-40 0-43-2-2 0-1-3-1h-5c-3 0-7-1-9 0-2 5-1 17-1 22 0 4-1 21 1 22z"/><path class="fil2" d="M98 55l1 2c10 8 11 1 18-1-2-3 0-38 0-44-6-1-14 0-19 0v43zM29 59c6 2 7 2 12-1l2-2V12H25v39c0 5 0 7 4 8zM43 56c3 1 4 4 9 4 4 1 6-2 9-4V12H43v44zM80 56c4 5 14 7 18-1V12c-4-1-14-1-18 0v44zM190 56c-3 1-1 0-3 1-2 2-5 6-12 2l-3-3h-1V12c6-1 13 0 19 0v44zM153 55l-1 2c-11 8-11 1-18-1 1-7 0-31 0-44 6-1 14 0 19 0v43zM222 59c-6 2-7 2-12-1l-2-2V12h18v39c0 5-1 7-4 8zM208 56c-3 1-4 4-9 4-4 1-6-2-9-4V12h18v44zM171 56c-4 5-14 7-18-1V12c4-1 14-1 18 0v44z"/><g><path class="fil3" d="M58 52c3 1 0 0 2 1 3 1 6 5 13 2l4-3v-1h1L77 5c-5-1-13 0-19 0v47z"/><path class="fil4" d="M117 52c4 5 13 6 17 0 1-3 2-41 1-44-2-1-1 0-4-1h-5c-3 0-8 0-10 1-1 5 0 16 0 22 0 4-2 20 1 22z"/><path class="fil3" d="M96 51l2 1c11 9 11 2 19 0-2-4-1-41-1-46-5-2-14-1-20-1v46zM25 55c6 2 7 1 11-2 3-1 1 0 3-1V5H20v41c0 5 0 8 5 9z"/><path class="fil4" d="M39 52c3 1 5 4 9 4s7-2 10-4V7L39 8v44zM78 51c4 5 14 8 18 0V8c-4-1-14-1-19 0l1 43z"/><path class="fil3" d="M193 52c-3 1 0 0-2 1-3 1-6 5-13 2l-4-3v-1h-1l1-46c5-1 13 0 19 0v47zM155 51l-2 1c-11 9-11 2-19 0 1-8 1-33 1-46 5-2 14-1 19-1l1 46zM226 55c-6 2-7 1-11-2-3-1-1 0-3-1V5h19v41c0 5-1 8-5 9z"/><path class="fil4" d="M212 52c-3 1-5 4-9 4-5 0-7-2-10-4V7l19 1v44zM173 51c-4 5-14 8-18 0l-1-43c5-1 15-1 20 0l-1 43z"/></g><path class="fil5" d="M25 166h201.061v10.119H25z"/><path class="fil5" d="M3 176h244.711v10.119H3z"/><path fill="#a53235" d="M20 2h211.721v5.059H20z"/><g><path class="fil5" d="M86 63h39.499v101.108H86z"/><path class="fil7 str0" d="M90 70h28.593v39.326H90z"/><path fill="url(#id1)" d="M90 113h28.593v50.254H90z"/><rect class="fil9" x="121" y="101" width="1.945" height="13.248" rx="1" ry="2"/></g><g><path class="fil5" d="M125 63h39v101.108h-39z"/><path class="fil7 str0" d="M132 70h28.231v39.326H132z"/><path fill="url(#id0)" d="M132 113h28.231v50.254H132z"/><rect class="fil9" x="127" y="101" width="1.92" height="13.248" rx="1" ry="2"/></g><g><rect transform="rotate(.241 -19116.238 7867.471) scale(.33822)" width="118.999" height="66" rx="7" ry="7" fill="#fa0303"/><rect class="fil0" transform="rotate(.207 -19339.625 8250.327) scale(.30747)" width="118.999" height="66" rx="7" ry="7" stroke="#fefefe" stroke-width=".314"/><circle class="fil12" transform="rotate(.241 -19740.919 8692.215) scale(.33822)" r="3"/><path class="fil13" d="M45 100v-1c0-1 1-1 1-1s0-1 1-1h1c1 0 2 0 2 1 1 1 1 1 1 2s0 2-1 3h-4c-1-1-1-2-1-3zm1 0c0 1 0 1 1 2h2c0-1 1-1 1-2l-1-1c0-1-1-1-1-1-1 0-1 0-1 1-1 0-1 1-1 1z"/><path id="1" class="fil13" d="M52 103v-6h3c1 0 1 1 1 1l1 1-1 1v1h-1-2v2h-1zm1-5v2h2v-1-1h-2z"/><path id="2" class="fil13" d="M57 103l1-6h4v1h-3v2h3v1h-3v1h3v1z"/><path id="3" class="fil13" d="M63 103v-6h1l3 4v-4h1v6h-1l-3-4v4z"/><circle class="fil12" transform="rotate(.241 -19760.169 15710.425) scale(.33822)" r="3"/><path class="fil0" d="M41 92s11-11 16-11 16 11 16 11" stroke="#fefefe" stroke-width="2"/></g></g></g></svg>