<svg xmlns="http://www.w3.org/2000/svg" width="204" height="140" viewBox="0 0 213 147" xmlns:xlink="http://www.w3.org/1999/xlink" shape-rendering="geometricPrecision" text-rendering="geometricPrecision" image-rendering="optimizeQuality" fill-rule="evenodd" clip-rule="evenodd"><defs><linearGradient id="id0" gradientUnits="userSpaceOnUse" x1="43.758" y1="132.397" x2="24.023" y2="112.663"><stop offset="0" stop-color="#e09200"/><stop offset="1" stop-color="#ffef94"/></linearGradient><linearGradient id="id1" gradientUnits="userSpaceOnUse" xlink:href="#id0" x1="45.511" y1="117.299" x2="22.275" y2="94.064"/><style>.fil5{fill:#fefefe}.fil10{fill:#033857}.fil2{fill:#2887d2}.fil0{fill:#f0a71f}.fil7{fill:#febc9c}</style></defs><g id="Layer_x0020_1"><g id="_749863064"><path class="fil0" d="M3 131h198.79v14.056H3z"/><path d="M183 94s0-3 1-3c0 0 4 0 5-1s0-1 0-1l-11-5-6-3s0 3 2 5c2 1 3 1 3 2-1 1-2 3-2 3l8 3z" fill="#ef9e80"/><path class="fil2" d="M186 95l-11-6-14 24-15-22-7 7-7 6 26 23s2 2 5 2c4-1 5-2 6-3s17-31 17-31z" stroke="#2887d2" stroke-width=".278"/><path d="M183 62l23 12s3 2 3 4c1 2-4 9-4 9l-2 5s-3 2-4 2c-2-1-25-13-25-13s-3-1-4-3c0-2 6-14 6-14s2-5 7-2zm18 26c1 1 1 2 0 3s-2 1-3 0 0-3 0-3c1-1 3-1 3 0z" fill="#fc4d44"/><path d="M196 107s-4 0-7-3c-2-2-2-6-1-8s3-4 6-4c2-1 6 1 7 3 2 1 2 5 1 7s-1 2 0 3c0 1 8 13 8 13s0 1-1 1c-1 1-2 1-3 1l1-1s-2 0-2-1v-1s-1 0-1-1v-1s-1 0-1-1c-1 0 0-1 0-1s-3 0-2-1c0-1-1-2-1-2 0 1-1 0-1-1-1 0 0-1 0-1s-1-1-2-1h-1zm-4-11c1-1 2-1 3 0 1 0 1 2 1 3-1 1-2 1-3 0s-2-2-1-3z" fill="#f58634"/><path class="fil0" d="M189 106s-3-2-4-5c0-4 2-7 4-8 1 0 1-1 2-1s3 0 4 1c2 1 4 4 4 6 1 2-1 5-2 6-2 1-2 1-2 2s-1 15-1 15 0 1-1 0h-3c0-1 1-1 1-1l-1-1 1-1s-1-1-1-2h1s-1-1-1-2c1 0 1-1 1-1s-1-1-1-2c1 0 1-2 0-1v-2l1-1s-1 0-1-1l-1-1zm3-10c1-1 2 0 2 1 1 1 0 2-1 2-1 1-2 0-3-1 0-1 1-2 2-2z"/><path class="fil5" d="M202 93c1 2 0 4-1 5 1-1 1-3 1-5zm-1-2c-2-2-5-2-7 0-2 1-2 5-1 7 1 1 2 1 4 2-2 0-3-1-4-2-2-2-1-6 1-8 2-1 5-1 7 1z"/><path d="M176 79s3 0 5-1c1-1 1-4 0-4-2-1-6 0-7 0-1 1-3 1-3 1-1 1 1 7 2 9s2 3 3 2c1 0 3-3 1-5-1-1-1-2-1-2z" fill="#f7bc9a"/><path class="fil7" d="M199 68l-4 10s-1 1-2 1c-2-1-2-1-2-2s1-2 1-2l4-9s0-2 2-1 1 3 1 3zM195 65l-5 12s-1 1-2 1c-2 0-2-1-2-2s1-2 1-2l4-10s1-2 3-1 1 2 1 2zM190 63l-5 12s0 1-2 1l-2-2c0-1 1-2 1-2l4-10s1-2 3-2c2 1 1 3 1 3zM185 61l-4 12s-1 1-3 1c-1-1-1-1-1-2v-2l5-10s0-2 2-1c2 0 1 2 1 2z"/><g><path class="fil2" d="M139 131v-27l10-10s-3-7-12-11c-10-4-10-3-10-3l-10 30v21h22zM94 131v-27l-9-10v-1c1-2 4-7 11-10 10-4 10-3 10-3l11 30v21H94z"/><path fill="#ed9c7f" d="M126 78V67h-19v12l9 11z"/><path class="fil2" d="M83 100v31h11v-27l-9-10c-1 2-2 3-2 6z"/><path d="M126 76s1 3 1 5c-1 2-10 29-10 29l-11-30s1-3 1-4c1 0 7 5 8 6 1 0 2 1 2 1s4-4 6-5c2-2 3-3 3-2z" fill="#fefefe" stroke="#727376" stroke-width=".193"/><path class="fil10" d="M123 82v6l-6-3v-1zM110 82v6l7-3v-1z"/><circle cx="117" cy="85" r="2" fill="#054f76"/><rect class="fil5" x="98" y="101" width="11.002" height="5.195" rx="1" ry="1"/><path d="M93 54s3 8 8 12c5 3 11 6 13 6 2 1 3 1 3 1s1 0 3-1c2 0 8-3 12-6 5-4 8-12 8-12 1 0 4-1 6-4 1-3 0-7-2-8-1-1-3-1-3-1s-2-12-7-17c-6-4-17-3-17-3-3 0-12-1-17 3-6 5-8 17-8 17s-2 0-3 1c-2 1-3 5-1 8 1 3 4 4 5 4z" fill="#f5ac89"/><path d="M141 42s0 1 2-6 2-15-2-20c-4-6-8-6-9-6s0-2-10-6c-9-3-16-1-19 1s-14 9-14 19c-1 10 0 15 2 17 1 1 3-7 5-10l3-3s-1 2-2 5l-1 2s3-6 4-7c0-2 0-3 2-3 3 0-1 2-1 2s3-2 4-2c2 0 2 1 6 2 5 0 13-1 14-1 2-1 3 1 3 2v1s1-3 0-4c0 0 1-1 3 0 2 0 2 1 3 4v4s1-6 0-6c0-1 4 5 5 10 1 4 2 5 2 5z"/></g><g><path d="M14 119h40c1 0 2 1 2 2v1h3v3c0 1-1 1-1 1H10c-1 0-1 0-1-1v-3h3v-1c0-1 1-2 2-2z" fill="url(#id0)"/><path d="M13 116h3c0-10 8-17 17-18v-2h-3v-1c0-1 1-1 1-1h5c1 0 2 0 2 1v1h-3v2c9 1 16 8 17 18h3v2H13v-2z" fill="url(#id1)"/></g></g><path fill="none" d="M0 0h213v147H0z"/><path d="M18 85c3-3 8-5 13-6 6-1 11 1 16 5l-2 2c-4-3-9-5-14-4-4 0-8 2-11 5l-2-2zm7 5c2-1 4-2 7-2 3-1 7 0 10 2l-1 2c-3-2-6-3-9-3-2 1-4 1-6 2l-1-1zm-3-2c2-2 6-4 9-4 5-1 9 1 13 3l-1 2c-3-2-7-3-12-3-2 1-5 2-7 3l-2-1z" fill="#e09200"/></g></svg>