<?xml version="1.0" encoding="UTF-8"?>
<!DOCTYPE svg PUBLIC "-//W3C//DTD SVG 1.1//EN" "http://www.w3.org/Graphics/SVG/1.1/DTD/svg11.dtd">
<!-- Creator: CorelDRAW X7 -->
<svg xmlns="http://www.w3.org/2000/svg" xml:space="preserve" width="225px" height="196px" version="1.1" style="shape-rendering:geometricPrecision; text-rendering:geometricPrecision; image-rendering:optimizeQuality; fill-rule:evenodd; clip-rule:evenodd"
viewBox="0 0 208 181"
 xmlns:xlink="http://www.w3.org/1999/xlink">
 <defs>
  <style type="text/css">
   <![CDATA[
    .fil0 {fill:none}
    .fil3 {fill:#FAD493;fill-rule:nonzero}
    .fil1 {fill:#F6B333;fill-rule:nonzero}
    .fil5 {fill:#ECEBEC;fill-rule:nonzero}
    .fil2 {fill:#E4A237;fill-rule:nonzero}
    .fil10 {fill:#ACADAC;fill-rule:nonzero}
    .fil12 {fill:#A8AAAD;fill-rule:nonzero}
    .fil8 {fill:#616164;fill-rule:nonzero}
    .fil7 {fill:#282828;fill-rule:nonzero}
    .fil4 {fill:#2F8D4E;fill-rule:nonzero}
    .fil14 {fill:url(#id0)}
    .fil9 {fill:url(#id1)}
    .fil6 {fill:url(#id2)}
    .fil11 {fill:url(#id3)}
    .fil13 {fill:url(#id4)}
   ]]>
  </style>
  <linearGradient id="id0" gradientUnits="userSpaceOnUse" x1="33.2752" y1="63.1175" x2="61.8912" y2="63.1175">
   <stop offset="0" style="stop-opacity:1; stop-color:#FEFEFE"/>
   <stop offset="1" style="stop-opacity:1; stop-color:#737576"/>
  </linearGradient>
  <linearGradient id="id1" gradientUnits="userSpaceOnUse" xlink:href="#id0" x1="61.0885" y1="154.303" x2="65.8415" y2="154.303">
  </linearGradient>
  <linearGradient id="id2" gradientUnits="userSpaceOnUse" x1="103.902" y1="105.169" x2="148.712" y2="49.6384">
   <stop offset="0" style="stop-opacity:1; stop-color:#D2D2D3"/>
   <stop offset="1" style="stop-opacity:1; stop-color:#BCBDC0"/>
  </linearGradient>
  <linearGradient id="id3" gradientUnits="userSpaceOnUse" xlink:href="#id0" x1="124.176" y1="142.941" x2="124.176" y2="74.8944">
  </linearGradient>
  <linearGradient id="id4" gradientUnits="userSpaceOnUse" xlink:href="#id0" x1="185.03" y1="154.303" x2="189.776" y2="154.303">
  </linearGradient>
 </defs>
 <g id="Layer_x0020_1">
  <metadata id="CorelCorpID_0Corel-Layer"/>
  <rect class="fil0" width="208" height="181"/>
  <g id="_807708352">
   <path class="fil1" d="M155 41l-15 0c-1,0 -2,-1 -2,-2l0 -3c0,-1 1,-1 2,-1l15 0c0,0 1,0 1,1l0 3c0,1 -1,2 -1,2z"/>
   <path class="fil2" d="M155 38l-15 0c-1,0 -2,0 -2,-1l0 2c0,1 1,2 2,2l15 0c0,0 1,-1 1,-2l0 -2c0,1 -1,1 -1,1z"/>
   <path class="fil1" d="M149 3c7,1 12,7 12,14 0,8 -6,14 -14,14 -8,0 -14,-6 -14,-14 0,-7 5,-13 12,-14l4 0z"/>
   <path class="fil2" d="M137 17c0,-7 5,-13 12,-14l-4 0c-7,1 -12,7 -12,14 0,8 6,14 14,14 1,0 1,0 2,0 -7,-1 -12,-7 -12,-14z"/>
   <path class="fil3" d="M147 8c5,0 9,4 9,9 0,5 -4,9 -9,9 -5,0 -9,-4 -9,-9 0,-5 4,-9 9,-9z"/>
   <path class="fil1" d="M155 47l-15 0c-1,0 -2,-1 -2,-2l0 -3c0,-1 1,-1 2,-1l15 0c0,0 1,0 1,1l0 3c0,1 -1,2 -1,2z"/>
   <path class="fil2" d="M155 44l-15 0c-1,0 -2,0 -2,-1l0 2c0,1 1,2 2,2l15 0c0,0 1,-1 1,-2l0 -2c0,1 -1,1 -1,1z"/>
   <path class="fil1" d="M155 52l-15 0c-1,0 -2,0 -2,-1l0 -3c0,-1 1,-1 2,-1l15 0c0,0 1,0 1,1l0 3c0,1 -1,1 -1,1z"/>
   <path class="fil2" d="M155 50l-15 0c-1,0 -2,-1 -2,-1l0 2c0,1 1,1 2,1l15 0c0,0 1,0 1,-1l0 -2c0,0 -1,1 -1,1z"/>
   <path class="fil1" d="M155 58l-15 0c-1,0 -2,0 -2,-1l0 -3c0,-1 1,-2 2,-2l15 0c0,0 1,1 1,2l0 3c0,1 -1,1 -1,1z"/>
   <path class="fil2" d="M155 56l-15 0c-1,0 -2,-1 -2,-1l0 2c0,1 1,1 2,1l15 0c0,0 1,0 1,-1l0 -2c0,0 -1,1 -1,1z"/>
   <path class="fil1" d="M155 64l-15 0c-1,0 -2,0 -2,-1l0 -3c0,-1 1,-2 2,-2l15 0c0,0 1,1 1,2l0 3c0,1 -1,1 -1,1z"/>
   <path class="fil2" d="M155 62l-15 0c-1,0 -2,-1 -2,-2l0 3c0,1 1,1 2,1l15 0c0,0 1,0 1,-1l0 -3c0,1 -1,2 -1,2z"/>
   <path class="fil1" d="M155 70l-15 0c-1,0 -2,-1 -2,-1l0 -3c0,-1 1,-2 2,-2l15 0c0,0 1,1 1,2l0 3c0,0 -1,1 -1,1z"/>
   <path class="fil2" d="M155 68l-15 0c-1,0 -2,-1 -2,-2l0 3c0,0 1,1 2,1l15 0c0,0 1,-1 1,-1l0 -3c0,1 -1,2 -1,2z"/>
   <path class="fil1" d="M136 52l-15 0c-1,0 -2,0 -2,-1l0 -3c0,-1 1,-1 2,-1l15 0c0,0 1,0 1,1l0 3c0,1 -1,1 -1,1z"/>
   <path class="fil2" d="M136 50l-15 0c-1,0 -2,-1 -2,-1l0 2c0,1 1,1 2,1l15 0c0,0 1,0 1,-1l0 -2c0,0 -1,1 -1,1z"/>
   <path class="fil1" d="M136 58l-15 0c-1,0 -2,0 -2,-1l0 -3c0,-1 1,-2 2,-2l15 0c0,0 1,1 1,2l0 3c0,1 -1,1 -1,1z"/>
   <path class="fil2" d="M136 56l-15 0c-1,0 -2,-1 -2,-1l0 2c0,1 1,1 2,1l15 0c0,0 1,0 1,-1l0 -2c0,0 -1,1 -1,1z"/>
   <path class="fil1" d="M136 64l-15 0c-1,0 -2,0 -2,-1l0 -3c0,-1 1,-2 2,-2l15 0c0,0 1,1 1,2l0 3c0,1 -1,1 -1,1z"/>
   <path class="fil2" d="M136 62l-15 0c-1,0 -2,-1 -2,-2l0 3c0,1 1,1 2,1l15 0c0,0 1,0 1,-1l0 -3c0,1 -1,2 -1,2z"/>
   <path class="fil1" d="M136 70l-15 0c-1,0 -2,-1 -2,-1l0 -3c0,-1 1,-2 2,-2l15 0c0,0 1,1 1,2l0 3c0,0 -1,1 -1,1z"/>
   <path class="fil2" d="M136 68l-15 0c-1,0 -2,-1 -2,-2l0 3c0,0 1,1 2,1l15 0c0,0 1,-1 1,-1l0 -3c0,1 -1,2 -1,2z"/>
   <path class="fil1" d="M116 64l-15 0c0,0 -1,0 -1,-1l0 -3c0,-1 1,-2 1,-2l15 0c1,0 2,1 2,2l0 3c0,1 -1,1 -2,1z"/>
   <path class="fil2" d="M116 62l-15 0c0,0 -1,-1 -1,-2l0 3c0,1 1,1 1,1l15 0c1,0 2,0 2,-1l0 -3c0,1 -1,2 -2,2z"/>
   <path class="fil1" d="M116 70l-15 0c0,0 -1,-1 -1,-1l0 -3c0,-1 1,-2 1,-2l15 0c1,0 2,1 2,2l0 3c0,0 -1,1 -2,1z"/>
   <path class="fil2" d="M116 68l-15 0c0,0 -1,-1 -1,-2l0 3c0,0 1,1 1,1l15 0c1,0 2,-1 2,-1l0 -3c0,1 -1,2 -2,2z"/>
   <path class="fil4" d="M148 16c-1,0 -2,-1 -2,-2 0,-1 1,-2 2,-2 1,0 2,1 2,2 0,0 0,1 1,1 0,0 1,-1 1,-1 0,-2 -1,-4 -3,-4l0 -1c0,0 -1,-1 -1,-1 -1,0 -2,1 -2,1l0 1c-1,0 -3,2 -3,4 0,2 2,4 5,4 1,0 2,1 2,2 0,1 -1,2 -2,2l0 0c-1,0 -2,-1 -2,-2 0,-1 -1,-1 -2,-1 0,0 -1,0 -1,1 0,2 2,4 3,4l0 1c0,1 1,1 2,1 0,0 1,0 1,-1l0 -1c2,0 3,-3 3,-5 -1,-2 -3,-3 -4,-3z"/>
   <path class="fil4" d="M95 51c0,0 5,-1 11,-5 7,-4 10,-8 12,-10 2,-1 4,-5 4,-5l-3 -2c0,0 -1,0 0,-1 1,0 10,-5 10,-5 0,0 1,-1 1,-1 1,1 0,13 0,13 0,0 0,1 0,1 0,0 -4,-2 -4,-2 0,0 -4,5 -6,6 -2,2 -6,4 -10,6 -4,2 -9,4 -12,4 -3,1 -3,1 -3,1z"/>
   <path class="fil5" d="M179 68c0,0 -2,0 -4,0 -2,0 -39,0 -48,0 0,0 0,0 -2,0 -8,0 -45,0 -47,0 -3,0 -4,0 -4,0 -1,2 2,2 3,2 2,1 8,3 10,4 1,1 3,2 4,3 1,1 3,3 4,4 2,1 4,2 5,2 1,0 3,2 4,2 1,0 3,1 3,1l38 0c0,0 3,-1 4,-1 0,0 2,-2 3,-2 1,0 4,-1 5,-2 2,-1 3,-3 4,-4 1,-1 3,-2 5,-3 1,-1 8,-3 9,-4 2,0 5,0 4,-2z"/>
   <path class="fil6" d="M158 78c0,0 -5,4 -6,5 -1,0 -3,1 -3,1 -1,0 -8,0 -8,0l-14 0 -2 0 -14 0c0,0 -7,0 -7,0 0,0 -2,-1 -3,-1 -2,-1 -6,-5 -7,-5 0,-1 -1,-3 0,-3 2,-1 2,0 6,0 4,0 20,0 25,0l0 0c0,0 1,0 1,0 1,0 1,0 1,0l0 0c6,0 22,0 25,0 4,0 5,-1 6,0 1,0 1,2 0,3zm-8 -9l-23 0 -2 0 -23 0 -28 0c0,0 0,0 0,1 1,0 3,0 6,1 2,1 6,3 9,4 2,1 4,4 5,5 1,1 3,2 4,3 2,1 2,0 4,1 3,2 5,2 5,2l18 0 2 0 18 0c0,0 3,0 5,-2 2,-1 2,0 5,-1 1,-1 3,-2 4,-3 0,-1 3,-4 5,-5 2,-1 7,-3 9,-4 2,-1 5,-1 5,-1 1,-1 1,-1 1,-1l-29 0z"/>
   <path class="fil7" d="M56 167c0,4 3,8 7,8 4,0 7,-4 7,-8 0,-4 -3,-7 -7,-7 -4,0 -7,3 -7,7z"/>
   <path class="fil8" d="M58 167c0,3 3,5 5,5 3,0 5,-2 5,-5 0,-2 -2,-4 -5,-4 -2,0 -5,2 -5,4z"/>
   <path class="fil9" d="M62 166l0 -27 3 0 0 27c1,0 1,1 1,1 0,2 -1,3 -3,3 -1,0 -2,-1 -2,-3 0,0 0,-1 1,-1z"/>
   <g>
    <path class="fil10" d="M62 139l0 27 -1 0 0 -27 1 -1 0 1zm-1 0l0 -1 1 0 -1 1zm4 0l-3 0 0 -1 3 0 1 1 -1 0zm0 -1l1 0 0 1 -1 -1zm0 28l0 -27 1 0 0 27 -1 0 0 0zm0 0l0 0 0 0 0 0zm1 1l-1 0 0 0 0 0 0 0 0 0 0 0 0 0 0 0 0 0 0 0 0 0 0 0 0 0 0 0 0 0 0 0 0 0 0 0 0 0 0 0 0 0 0 0 0 0 0 0 0 -1 0 0 0 0 0 0 0 0 0 0 0 0 0 0 0 0 0 0 1 0 0 0 0 0 0 0 0 0 0 0 0 0 0 0 0 0 0 0 0 0 0 0 0 0 0 0 0 0 0 0 0 0 0 1 0 0 0 0 0 0 0 0 0 0 0 0 0 0 0 0 0 0 0 0 0 0 0 0 0 0 0 0 0 0 0 0zm-3 3l0 -1 0 0 1 0 0 0 0 0 0 0 0 0 0 0 0 0 0 0 0 0 0 0 0 0 1 0 0 0 0 0 0 0 0 0 0 0 0 0 0 -1 0 0 0 0 0 0 0 0 0 0 0 0 0 0 0 0 0 0 0 0 0 0 0 -1 0 0 1 0 0 0 0 1 0 0 0 0 0 0 0 0 0 0 0 0 0 1 0 0 0 0 0 0 0 0 0 0 0 0 -1 0 0 0 0 0 0 1 0 0 0 0 0 0 0 0 0 0 -1 0 0 0 0 0 0 0 0 0 0 0 0 0 -1 0 0 0zm-2 -3l1 0 0 0 0 0 0 1 0 0 0 0 0 0 0 0 0 0 0 0 0 0 0 0 0 0 0 0 0 0 0 1 0 0 0 0 0 0 0 0 0 0 0 0 0 0 1 0 0 0 0 0 0 0 0 0 0 0 0 0 0 0 0 0 0 0 0 0 0 1 0 0 0 0 0 0 0 0 0 0 0 0 0 0 -1 0 0 0 0 0 0 0 0 0 0 0 0 -1 0 0 -1 0 0 0 0 0 0 0 0 0 0 0 0 0 0 0 0 -1 0 0 0 0 0 0 0 0 0 0 0 0 0 -1 0 0 0 0zm0 -1l1 0 0 0 0 0 0 0 0 0 0 0 0 0 0 0 0 0 0 0 0 0 0 1 0 0 0 0 0 0 0 0 0 0 0 0 0 0 0 0 0 0 0 0 0 0 0 0 0 0 0 0 0 0 0 0 0 0 0 0 0 0 0 0 0 0 0 0 -1 0 0 0 0 0 0 0 0 0 0 0 0 0 0 0 0 0 0 0 0 0 0 0 0 0 0 0 0 0 0 0 0 -1 0 0 0 0 0 0 0 0 0 0 0 0 0 0 0 0 0 0 0 0 0 0 0 0 0 0 0 0 0 0 0 0 0 0zm1 0l0 0 0 0 0 0z"/>
   </g>
   <path class="fil11" d="M191 75l-133 0 0 64 6 0c0,0 1,3 4,3 4,1 106,1 106,1 0,0 4,0 5,-1 1,-2 1,-3 1,-3l11 0 0 -64z"/>
   <g>
    <path class="fil10" d="M58 74l133 0 0 1 -133 0 -1 0 1 -1zm-1 1l0 -1 1 0 -1 1zm0 64l0 -64 1 0 0 64 0 0 -1 0zm1 0l-1 0 0 0 1 0zm6 0l-6 0 0 -1 6 0 0 1 0 0zm0 -1l0 0 0 1 0 -1zm4 4l0 1 0 0 0 0 0 0 -1 -1 0 0 0 0 -1 0 0 0 0 0 0 0 -1 0 0 -1 0 0 0 0 0 0 0 0 -1 0 0 0 0 -1 0 0 0 0 0 0 0 0 0 0 0 0 0 -1 0 0 0 0 0 0 0 0 0 0 0 0 0 0 0 0 0 0 0 0 0 0 0 0 0 0 0 0 0 0 1 0 0 0 0 0 0 0 0 1 0 0 0 0 0 0 0 0 0 0 0 0 1 1 0 0 0 0 0 0 0 0 0 0 1 0 0 0 0 0 0 1 0 0 1 0 0 0 0 0 0 0zm0 1l0 0 0 0 0 0zm106 0l0 0 0 0 0 0 -1 0 -2 0 -1 0 -3 0 -3 0 -3 0 -3 0 -4 0 -4 0 -4 0 -5 0 -4 0 -5 0 -5 0 -5 0 -4 0 -5 0 -5 0 -5 0 -4 0 -5 0 -4 0 -4 0 -3 0 -4 0 -3 0 -2 0 -2 0 -2 0 -1 0 -1 0 0 -1 1 0 1 0 2 0 2 0 2 0 3 0 4 0 3 0 4 0 4 0 5 0 4 0 5 0 5 0 5 0 4 0 5 0 5 0 5 0 4 0 5 0 4 0 4 0 4 0 3 0 3 0 3 0 3 0 1 0 2 1 1 0 0 0 0 0zm0 0l0 0 0 0 0 0zm5 -2l0 1 0 0 0 0 0 0 0 0 0 0 -1 1 0 0 0 0 0 0 0 0 -1 0 0 0 0 0 0 0 -1 0 0 0 0 0 0 0 0 0 -1 0 0 0 0 0 0 0 0 0 0 0 -1 0 0 0 0 0 0 0 0 0 0 0 0 0 0 0 0 0 0 0 0 0 0 0 0 0 0 0 0 0 0 0 1 0 0 0 0 -1 0 0 0 0 0 0 1 0 0 0 0 0 0 0 0 0 1 0 0 0 0 0 0 0 0 0 0 0 1 0 0 0 0 0 0 0 0 0 0 0 0 -1 1 0 0 0zm0 1l0 0 0 0 0 0zm1 -4l0 1 1 0 0 0 0 0 0 0 0 0 0 0 0 0 0 0 0 0 0 0 0 0 0 0 0 1 0 0 -1 0 0 0 0 0 0 0 0 0 0 0 0 0 0 0 0 1 0 0 0 0 0 0 0 0 0 0 0 0 0 0 -1 1 0 0 0 0 0 -1 0 0 0 0 0 0 0 0 0 0 0 0 0 -1 0 0 0 0 0 0 0 0 0 0 0 0 1 0 0 0 0 0 0 -1 0 0 0 0 0 0 0 0 0 0 0 0 0 0 0 0 0 0 0 0 0 0 0 0 0 0 0 0 0 0 0 -1zm0 1l0 -1 0 0 0 1zm11 0l-11 0 0 -1 11 0 0 1 0 0zm0 0l0 0 0 0 0 0zm0 -64l0 64 -1 0 0 -64 1 -1 0 1zm0 -1l0 0 0 1 0 -1z"/>
   </g>
   <polygon class="fil12" points="180,88 183,139 180,139 "/>
   <polygon class="fil12" points="165,111 168,143 165,143 "/>
   <polygon class="fil12" points="62,139 64,114 64,139 "/>
   <polygon class="fil12" points="72,142 75,128 75,142 "/>
   <polygon class="fil12" points="79,143 81,131 81,143 "/>
   <polygon class="fil12" points="96,143 99,131 99,143 "/>
   <path class="fil7" d="M180 167c0,4 3,8 7,8 4,0 7,-3 7,-7l0 -1c0,-4 -3,-7 -7,-7 -4,0 -7,3 -7,7z"/>
   <path class="fil8" d="M182 167c0,3 2,5 5,5 3,0 5,-2 5,-5 0,-2 -2,-4 -5,-4 -3,0 -5,2 -5,4z"/>
   <path class="fil13" d="M185 166l0 -27 4 0 0 27c1,0 1,1 1,1 0,2 -1,3 -3,3 -1,0 -2,-1 -2,-3 0,0 0,-1 0,-1z"/>
   <g>
    <path class="fil10" d="M186 139l0 27 -1 0 0 -27 0 -1 1 1zm-1 0l0 -1 0 0 0 1zm4 0l-4 0 0 -1 4 0 1 1 -1 0zm0 -1l1 0 0 1 -1 -1zm0 28l0 -27 1 0 0 27 -1 0 0 0zm0 0l0 0 0 0 0 0zm1 1l-1 0 0 0 0 0 0 0 0 0 0 0 0 0 0 0 0 0 0 0 0 0 0 0 0 0 0 0 0 0 0 0 0 0 0 0 0 0 0 0 0 0 0 0 0 0 0 0 0 -1 0 0 0 0 0 0 0 0 0 0 0 0 0 0 0 0 0 0 1 0 0 0 0 0 0 0 0 0 0 0 0 0 0 0 0 0 0 0 0 0 0 0 0 0 0 0 0 0 0 0 0 0 0 1 0 0 0 0 0 0 0 0 0 0 0 0 0 0 0 0 0 0 0 0 0 0 0 0 0 0 0 0 0 0 0 0zm-3 3l0 -1 0 0 1 0 0 0 0 0 0 0 0 0 0 0 0 0 0 0 0 0 0 0 0 0 0 0 1 0 0 0 0 0 0 0 0 0 0 0 0 -1 0 0 0 0 0 0 0 0 0 0 0 0 0 0 0 0 0 0 0 0 0 0 0 -1 0 0 1 0 0 0 0 1 0 0 0 0 0 0 0 0 0 0 0 0 0 1 0 0 0 0 0 0 0 0 0 0 -1 0 0 0 0 0 0 0 0 1 0 0 0 0 0 0 0 0 -1 0 0 0 0 0 0 0 0 0 0 0 0 0 0 0 -1 0 0 0zm-2 -3l0 0 0 0 0 0 0 1 0 0 1 0 0 0 0 0 0 0 0 0 0 0 0 0 0 0 0 0 0 0 0 1 0 0 0 0 0 0 0 0 0 0 0 0 0 0 0 0 1 0 0 0 0 0 0 0 0 0 0 0 0 0 0 0 0 0 0 0 0 1 0 0 0 0 0 0 0 0 0 0 0 0 -1 0 0 0 0 0 0 0 0 0 0 0 0 0 0 -1 0 0 -1 0 0 0 0 0 0 0 0 0 0 0 0 0 0 0 0 -1 0 0 0 0 0 0 0 0 0 0 0 0 0 -1 0 0 0 0zm0 -1l1 0 0 0 0 0 0 0 0 0 0 0 0 0 0 0 0 0 0 0 0 0 0 1 0 0 0 0 0 0 0 0 0 0 0 0 0 0 0 0 0 0 0 0 0 0 -1 0 0 0 0 0 0 0 0 0 0 0 0 0 0 0 0 0 0 0 0 0 0 0 0 0 0 0 0 0 0 0 0 0 0 0 0 0 0 0 0 0 0 0 0 0 0 0 0 0 0 0 0 0 0 -1 0 0 0 0 0 0 0 0 0 0 0 0 0 0 0 0 0 0 0 0 0 0 0 0 0 0 0 0 0 0 0 0 0 0zm1 0l0 0 0 0 0 0z"/>
   </g>
   <polygon class="fil7" points="65,151 185,151 185,149 65,149 "/>
   <polygon class="fil7" points="65,155 185,155 185,152 65,152 "/>
   <path class="fil14" d="M62 75c0,0 -3,-12 -10,-17 -9,-7 -19,-7 -19,-7l0 4c0,0 11,1 17,7 6,7 8,13 8,13l4 0z"/>
   <g>
    <path class="fil10" d="M52 58l0 -1 0 0 1 1 1 0 0 1 1 1 0 0 1 1 0 1 1 0 0 1 1 1 0 1 1 0 0 1 0 1 1 0 0 1 0 1 1 0 0 1 0 1 0 0 0 1 1 0 0 1 0 0 0 1 0 0 0 0 0 0 0 1 0 0 0 0 -1 0 0 0 0 0 0 0 0 -1 0 0 0 0 0 0 0 -1 0 0 0 -1 -1 0 0 -1 0 -1 0 0 0 -1 -1 -1 0 0 0 -1 -1 -1 0 0 0 -1 -1 -1 0 0 -1 -1 0 -1 -1 0 0 -1 -1 -1 0 0 -1 -1 -1 -1 0 0 0 0zm-18 -7l-1 0 0 0 0 0 0 0 1 0 0 0 0 0 0 0 1 0 0 0 0 0 1 0 0 0 1 0 0 0 1 0 1 0 0 1 1 0 1 0 1 0 0 0 1 1 1 0 1 0 0 0 1 1 1 0 1 1 1 0 1 1 1 0 0 1 1 0 0 1 -1 -1 -1 0 -1 -1 -1 0 0 -1 -1 0 -1 0 -1 -1 -1 0 0 0 -1 -1 -1 0 -1 0 0 0 -1 0 -1 -1 0 0 -1 0 -1 0 0 0 -1 0 0 0 -1 0 0 0 0 0 -1 0 0 0 0 0 0 0 -1 0 0 0 0 0 1 -1zm-1 0l0 0 0 0 0 0zm0 4l0 -4 1 0 0 4 -1 0 0 0zm0 0l0 0 0 0 0 0zm17 7l0 1 0 0 -1 -1 0 -1 -1 0 -1 -1 0 0 -1 0 -1 -1 0 0 -1 -1 -1 0 0 0 -1 0 -1 -1 0 0 -1 0 -1 0 0 -1 -1 0 -1 0 0 0 -1 0 0 0 -1 0 0 0 0 0 -1 0 0 0 0 -1 0 0 -1 0 0 0 0 0 0 0 0 0 0 0 1 0 0 0 0 0 0 0 1 0 0 0 1 0 0 0 1 0 0 0 1 0 0 0 1 1 1 0 0 0 1 0 1 0 0 1 1 0 1 0 0 1 1 0 1 0 1 1 0 0 1 1 1 0 0 1 1 0 0 1 0 0zm8 12l0 1 0 0 0 0 0 0 0 0 0 0 -1 0 0 -1 0 0 0 0 0 0 0 -1 0 0 0 0 0 0 -1 -1 0 0 0 -1 0 0 -1 -1 0 0 0 -1 -1 0 0 -1 0 0 -1 -1 0 0 0 -1 -1 0 0 -1 -1 -1 0 0 -1 -1 0 0 0 -1 1 1 0 0 1 1 0 1 1 0 0 1 1 0 0 1 1 0 0 1 0 0 1 1 0 0 0 1 0 0 1 1 0 0 0 1 0 0 0 0 1 1 0 0 0 0 0 1 0 0 0 0 0 0 0 0 0 1 0 0 0 0 0 0 0 -1zm0 1l0 0 0 0 0 0zm4 0l-4 0 0 -1 4 0 0 1 0 0zm0 0l0 0 0 0 0 0z"/>
   </g>
   <polygon class="fil7" points="29,58 33,58 33,49 29,49 "/>
   <polygon class="fil7" points="14,56 29,56 29,52 14,52 "/>
  </g>
 </g>
</svg>
