<svg xmlns="http://www.w3.org/2000/svg" width="188" height="146" viewBox="0 0 189 147" shape-rendering="geometricPrecision" text-rendering="geometricPrecision" image-rendering="optimizeQuality" fill-rule="evenodd" clip-rule="evenodd"><defs><style>.str0{stroke:#0098da;stroke-width:.904817}.fil8{fill:#fefefe}.fil2{fill:#000}.fil3{fill:#033857}.fil4{fill:#054f76}.fil6{fill:#2887d2}.fil7{fill:#306fb6}.fil5{fill:#4e8ac8}</style></defs><g id="Layer_x0020_1"><g id="_757599712"><path d="M45 87v6s2 7 8 9c5 2 8 0 9-1 2-1 4-5 4-5V85H46l-1 2z" fill="#fac19b"/><path d="M69 87c2-2 7-8 9-10 1-3 2-5 2-6 1-2 1-6 1-6 0-1 1 0 1 0s2 1 3-4c0-5 1-6 0-7s-1-3-2-2-2 3-2 3 1-20 1-21c-1-1-2-1-7-2-5 0-17 1-19 1 0 0-16-1-21-1-5 1-7 1-7 2-1 1 0 21 0 21s0-2-1-3-1 1-2 2-1 2 0 7 3 4 3 4 1-1 1 0v6c1 1 2 3 3 6 1 2 7 8 9 10 9 5 19 5 28 0z" fill="#f9c9a9"/><path class="fil2" d="M81 56s1-10 2-13c0-4 1-9 1-10s-1-2 0-2c1-1 3-2 5-4 1-2 3-5 3-5 0-1-1 1-3 0s-3-1-6-3-8-7-13-8c-5-2-10-3-16-2-5 0-15 7-21 10-5 4-8 8-8 12s3 24 3 24 2-9 3-11c0-2 1-6 2-8 1-1 0 3 0 3v6s0-4 1-5c0-1 1 1 1 1s1-1 1-2c0-2 1 2 1 3-1 2 0 2 0 2v-4-4c0-1 1 1 1 2s1 1 1 1v-2c0-1 0-1 1-1 2 1 8 4 15 4 8-1 14-2 15-2 2-1 2 1 1 1l-1 1s1 0 2-1c1 0 1 1 1 2s-1 4-1 4 1-2 2-3c0-1 1-2 1-3v-2s1 3 0 3c0 1 1-1 1-2l1-2v3c0 3-1 5-1 5s2-2 2-4 1-4 1-4 1 9 1 13c1 3 1 7 1 7 0 1 0 0 0 0z"/><rect class="fil3 str0" x="18" y="50" width="7.887" height="15.115" rx="4" ry="3"/><rect class="fil4" x="18" y="52" width="7.887" height="13.184" rx="4" ry="3"/><rect class="fil5" x="21" y="48" width="7.887" height="19.041" rx="4" ry="4"/><path class="fil6" d="M24 48s-1-6 1-14 6-15 14-20c7-5 13-5 14-5h3s-4 0-6 1-6 2-10 5-6 7-7 10c-2 2-3 4-4 6-1 3-2 5-2 8v10l-3-1z"/><path class="fil7" d="M22 50s1-1 2-1 3 1 3 2c0 2 1 6 0 8v6s0 2-1 2-1 0 0 0l1-1c1 0 2-1 2-2V53s0-3-1-4c-2-1-2-1-3-1s-3 1-3 2z"/><g><rect class="fil3 str0" x="83" y="50" width="7.887" height="15.115" rx="4" ry="3"/><rect class="fil4" x="83" y="52" width="7.887" height="13.184" rx="4" ry="3"/><rect class="fil5" x="81" y="48" width="7.887" height="19.041" rx="4" ry="4"/><path class="fil6" d="M81 32s2 5 2 8v9h3v-7c-1-4-1-7-2-9 0-2-1-3-1-3l-2 2zM83 67s-1 4-1 5c-3 5-8 9-14 11-5 1-4 0-4 0v2s2 0 5-1 7-3 8-4c2-1 3-3 4-4s3-4 3-6c1-2 1-3 1-3h-2z"/><path class="fil7" d="M88 50s-1-1-2-1h-1c-1 0-2 1-3 2v14l1 2h1s-1 0-2-1c-1 0-1-1-1-2-1-1 0-11 0-11s-1-3 1-4 2-1 3-1 2 1 3 2z"/><rect class="fil4" x="55" y="82" width="8.39" height="4.975" rx="2" ry="2"/><rect class="fil3" x="57" y="83" width="6.87" height="3.889" rx="1" ry="1"/></g><path class="fil8" d="M41 94s1 19 6 36c6 16 9 14 9 14s10-14 12-20c2-7 1-27 0-27s-7 5-13 5c-5 0-14-8-14-8z"/><path d="M55 103s-4 2-4 3c-1 1 2 4 3 4s0 1 0 1-5 19-4 18c1 0 2 12 4 13 2 2 2 0 4-2 1-2 3-14 3-14s-3-13-3-15 3-3 3-4-1-5-6-4z" fill="#ed3237"/><path class="fil2" d="M107 144s-2-31-5-35c-3-5-9-8-21-12-13-3-14-3-14-3s1 15-4 26c-5 12-8 21-8 21v0s-3-9-8-21c-4-11-4-26-4-26l-13 3c-13 4-18 7-22 12-3 4-5 35-5 35h104z"/><path class="fil8" stroke="#96989a" stroke-width=".52" d="M45 92l10 10-5 9-7-9-4-7zM66 92l-11 10 6 9 7-9 4-7z"/><g><path class="fil6" d="M129 104l13-1 1 4h16v-4l13 1s5 18 7 25c1 6 0 8-2 11-2 2-6 2-6 2v1c0 1 0 1-1 1-1 1-8 1-9 0-1 0-1-2-1-2h-19s1 2-1 2c-1 1-7 1-8 0-1 0-2 0-2-1v-1s-4 0-6-2c-2-3-3-5-1-11 1-7 6-25 6-25z"/><circle class="fil8" cx="151" cy="123" r="10"/><circle class="fil6" cx="151" cy="123" r="7"/><path d="M115 109l18 1v-7s-1 0 0-1c0-1 7-3 10-4h14c3 1 10 3 10 4 1 1-1 1-1 1l1 7 18-1v-6c-1-2-5-8-13-10-8-3-22-3-22-3s-14 0-22 3c-9 2-12 8-13 10v6z" fill="#1cc8eb"/></g></g><path fill="none" d="M0 0h189v147H0z"/></g></svg>