<svg xmlns="http://www.w3.org/2000/svg" width="118" height="127" viewBox="0 0 121 130" shape-rendering="geometricPrecision" text-rendering="geometricPrecision" image-rendering="optimizeQuality" fill-rule="evenodd" clip-rule="evenodd"><defs><linearGradient id="id0" gradientUnits="userSpaceOnUse" x1="25.1" y1="106.221" x2="69.936" y2="10.158"><stop offset="0" stop-color="#005f96"/><stop offset="1" stop-color="#0090e3"/></linearGradient><style>.fil1,.fil2{fill:#fefefe;fill-rule:nonzero}.fil2{fill:#f7994b}</style></defs><g id="Layer_x0020_1"><g id="_687284912"><path d="M92 9v98c0 4-2 7-5 7H8c-3 0-5-3-5-7V9c0-4 2-7 5-7h79c3 0 5 3 5 7z" fill="url(#id0)" fill-rule="nonzero"/><path class="fil1" d="M28 85s-1-1-1-2V15c0-1 1-1 1-1 1 0 2 0 2 1v68c0 1-1 2-2 2z"/><path class="fil2" d="M28 26c5 0 8 3 8 7s-3 8-8 8c-4 0-7-4-7-8s3-7 7-7z"/><path class="fil1" d="M48 85c-1 0-2-1-2-2V36s1-1 2-1l1 1v47c0 1-1 2-1 2z"/><path class="fil1" d="M48 45c-1 0-2-2-2-4V15c0-2 3-2 3 0v26c0 2-1 4-1 4z"/><path class="fil2" d="M48 52c4 0 7 4 7 8s-3 8-7 8c-5 0-8-4-8-8s3-8 8-8z"/><path class="fil1" d="M67 85c-1 0-2-1-2-2V47c0-1 1-2 2-2 0 0 1 1 1 2v36c0 1-1 2-1 2zM67 38c-1 0-2-1-2-2V15c0-1 1-1 2-1 0 0 1 0 1 1v21c0 1-1 2-1 2z"/><path class="fil2" d="M67 49c-5 0-8-3-8-7 0-5 3-8 8-8 4 0 7 3 7 8 0 4-3 7-7 7z"/><path d="M115 98h-1l-6-1c0-1 0-2-1-3 1-1 1-2 2-3s1-1 1-2h1v-1l-6-6h-1l-5 4c-1-1-2-1-3-1l-1-6v-1h-8s-1 0-1 1-1 3-1 6c-1 0-2 0-3 1l-4-4h-1s-1 1-3 2c-2 2-3 3-3 4v1c1 2 2 3 3 5 0 1-1 2-1 3l-6 1c-1 0-1 0-1 1v7h1v1l6 1c0 1 1 2 1 3 0 0-1 1-1 2l-2 2v2l5 5h2l4-3c1 0 2 1 3 1l1 6 1 1h7c1 0 1-1 1-1 1-1 1-3 1-6 1 0 2-1 3-1l5 3c1 0 2 0 3-2 2-1 3-2 4-3v-1-1l-4-4c1-1 1-2 1-3l6-1h1v-8-1zm-19 10c-1 2-3 2-5 2-3 0-4 0-6-2s-2-3-2-6c0-2 0-4 2-5 2-2 3-3 6-3 2 0 4 1 5 3 2 1 3 3 3 5 0 3-1 4-3 6z" fill="#00afef" fill-rule="nonzero"/><circle cx="91" cy="102" r="8" fill="#fefefe"/><path class="fil1" d="M3 104v-1h58c1 0 2 0 2 1s-1 2-2 2H3v-2z"/><path fill="none" d="M0 0h121v130H0z"/></g></g></svg>