<?xml version="1.0" encoding="UTF-8"?>
<!DOCTYPE svg PUBLIC "-//W3C//DTD SVG 1.1//EN" "http://www.w3.org/Graphics/SVG/1.1/DTD/svg11.dtd">
<!-- Creator: CorelDRAW X7 -->
<svg xmlns="http://www.w3.org/2000/svg" xml:space="preserve" width="84px" height="120px" version="1.1" style="shape-rendering:geometricPrecision; text-rendering:geometricPrecision; image-rendering:optimizeQuality; fill-rule:evenodd; clip-rule:evenodd"
viewBox="0 0 84 120"
 xmlns:xlink="http://www.w3.org/1999/xlink">
 <defs>
  <style type="text/css">
   <![CDATA[
    .fil2 {fill:#FEFEFE}
    .fil0 {fill:url(#id0)}
    .fil1 {fill:url(#id1)}
   ]]>
  </style>
  <linearGradient id="id0" gradientUnits="userSpaceOnUse" x1="16.4219" y1="110.384" x2="68.2759" y2="40.6174">
   <stop offset="0" style="stop-opacity:1; stop-color:#8A0000"/>
   <stop offset="0.631373" style="stop-opacity:1; stop-color:#AF0000"/>
   <stop offset="1" style="stop-opacity:1; stop-color:#D40000"/>
  </linearGradient>
  <linearGradient id="id1" gradientUnits="userSpaceOnUse" xlink:href="#id0" x1="32.2438" y1="26.0873" x2="49.9717" y2="-2.8242">
  </linearGradient>
 </defs>
 <g id="Layer_x0020_1">
  <metadata id="CorelCorpID_0Corel-Layer"/>
  <g id="_595262744">
   <path class="fil0" d="M78 39l-6 81 -58 0 -7 -81 -2 0c-3,0 -4,-1 -4,-3l0 -1c0,-2 1,-4 4,-4l75 0c2,0 4,2 4,4l0 1c0,2 -2,3 -4,3l-2 0z"/>
   <path class="fil1" d="M3 15l32 -5 -1 -6c0,-1 1,-3 2,-3l6 -1c1,0 3,1 3,2l1 6 32 -6c2,0 4,1 4,3l0 1c1,2 -1,4 -3,4l-74 13c-2,1 -5,-1 -5,-3l0 0c0,-2 1,-4 3,-5z"/>
   <g>
    <rect class="fil2" x="22" y="54" width="6.50071" height="48.5788" rx="3" ry="3"/>
    <rect class="fil2" x="39" y="54" width="6.50071" height="48.5788" rx="3" ry="3"/>
    <rect class="fil2" x="56" y="54" width="6.50071" height="48.5788" rx="3" ry="3"/>
   </g>
  </g>
 </g>
</svg>
