<svg width="28" height="21" fill="none" xmlns="http://www.w3.org/2000/svg"><path fill-rule="evenodd" clip-rule="evenodd" d="M19.3516 0c1.6796 0 1.6796.560599 1.6796 1.6818v5.04539h5.0391c1.1198 0 1.6797 0 1.6797 1.6818 0 1.12119-.5599 1.68181-1.6797 1.68181h-5.0391v5.0454c0 1.1212 0 1.6818-1.6796 1.6818-1.1198 0-1.6797-.5606-1.6797-1.6818v-5.0454h-5.0391c-1.1198 0-1.6797-.56062-1.6797-1.68181 0-1.6818.5599-1.6818 1.6797-1.6818h5.0391V1.6818C17.6719.560599 18.2318 0 19.3516 0z" fill="url(#paint0_linear)"/><path d="M15.3427 12.333H.875v3.1063h14.4677V12.333z" fill="url(#paint1_linear)"/><path d="M15.3427 17.5186H.875v3.1062h14.4677v-3.1062z" fill="url(#paint2_linear)"/><path d="M9.83333 7.00732H.875v3.10628h8.95833V7.00732z" fill="url(#paint3_linear)"/><path fill-rule="evenodd" clip-rule="evenodd" d="M19.3516 0c1.6796 0 1.6796.560599 1.6796 1.6818v5.04539h5.0391c1.1198 0 1.6797 0 1.6797 1.6818 0 1.12119-.5599 1.68181-1.6797 1.68181h-5.0391v5.0454c0 1.1212 0 1.6818-1.6796 1.6818-1.1198 0-1.6797-.5606-1.6797-1.6818v-5.0454h-5.0391c-1.1198 0-1.6797-.56062-1.6797-1.68181 0-1.6818.5599-1.6818 1.6797-1.6818h5.0391V1.6818C17.6719.560599 18.2318 0 19.3516 0z" fill="#C4C4C4"/><path d="M15.3427 12.333H.875v3.1063h14.4677V12.333zM15.3427 17.5186H.875v3.1062h14.4677v-3.1062zM9.83333 7.00732H.875v3.10628h8.95833V7.00732z" fill="#C4C4C4"/><defs><linearGradient id="paint0_linear" x1="24.4304" y1="15.0622" x2="14.4167" y2="1.60694" gradientUnits="userSpaceOnUse"><stop stop-color="#1DEB23"/><stop offset=".631" stop-color="#11B919"/><stop offset="1" stop-color="#04870F"/></linearGradient><linearGradient id="paint1_linear" x1="3.69048" y1="15.9523" x2="3.79226" y2="12.9255" gradientUnits="userSpaceOnUse"><stop stop-color="#1CC8EB"/><stop offset=".631" stop-color="#0E96E0"/><stop offset="1" stop-color="#0063D4"/></linearGradient><linearGradient id="paint2_linear" x1="3.69048" y1="21.1379" x2="3.79226" y2="18.1111" gradientUnits="userSpaceOnUse"><stop stop-color="#1CC8EB"/><stop offset=".631" stop-color="#0E96E0"/><stop offset="1" stop-color="#0063D4"/></linearGradient><linearGradient id="paint3_linear" x1="2.61833" y1="10.6267" x2="2.78241" y2="7.60532" gradientUnits="userSpaceOnUse"><stop stop-color="#1CC8EB"/><stop offset=".631" stop-color="#0E96E0"/><stop offset="1" stop-color="#0063D4"/></linearGradient></defs></svg>