<svg xmlns="http://www.w3.org/2000/svg" width="250" height="188" viewBox="0 0 250 187" xmlns:xlink="http://www.w3.org/1999/xlink" shape-rendering="geometricPrecision" text-rendering="geometricPrecision" image-rendering="optimizeQuality" fill-rule="evenodd" clip-rule="evenodd"><defs><linearGradient id="id0" gradientUnits="userSpaceOnUse" x1="160.342" y1="162.686" x2="159.326" y2="114.465"><stop offset="0" stop-color="#37210a"/><stop offset="1" stop-color="#6e3614"/></linearGradient><linearGradient id="id1" gradientUnits="userSpaceOnUse" xlink:href="#id0" x1="90.48" y1="162.686" x2="89.417" y2="114.465"/><style>.str0{stroke:#373435;stroke-width:.899994}.fil1{fill:none}.fil10{fill:#fefefe}.fil14{fill:#a9abae}.fil3{fill:#727376}.fil4{fill:#606062}.fil5{fill:#4b4b4d}.fil6{fill:#373435}.fil13{fill:#f58634}.fil25{fill:#91d8f7}.fil2{fill:#2d2e2e}.fil8{fill:#000}.fil23{fill:#6e3614}.fil17{fill:#99562c}.fil16{fill:#ad5f2f}.fil18{fill:#e09200}.fil22{fill:#f5f5f5}.fil7{fill:#f9c9a9}.fil21,.fil9{fill:#fa0303}.fil28{fill:#fefefe;fill-rule:nonzero}.fil20{fill:#000;fill-opacity:.501961}</style></defs><g id="Layer_x0020_1"><g id="_643418960"><path fill="#e6e7e8" d="M95 63h60.297v101.109H95z"/><path class="fil1" d="M0 0h250v187H0z"/><path class="fil2 str0" d="M85 161h1v1h-1v-1z"/><path class="fil3 str0" d="M87 129s-1 1-1 2c-1 1-1 5 0 6l2 2h-2s-1-1-1-2c-1-1-1-3-1-4 0-2 1-3 1-4h1 1zM88 154l-2 7h-1l2-7h1z"/><path class="fil4 str0" d="M88 142v1h14v-2l-14 1z"/><path class="fil3 str0" d="M91 143l-3 11h-1l3-11h1z"/><path class="fil5 str0" d="M86 139v2s3 1 8 1h8c0-1 1-1 1-1v-2H86z"/><path class="fil2 str0" d="M93 163h1s0 1-1 1h-1v-1h1z"/><ellipse class="fil6 str0" cx="94" cy="139" rx="9" ry="1"/><path class="fil3 str0" d="M95 143l-2 20h-1l2-20h1z"/><path class="fil2 str0" d="M108 162s1 0 0 0c0 1-1 1-1 1v-1h1z"/><path class="fil6 str0" d="M95 150h-2v6c1 0 1-1 1-1l1-5z"/><path class="fil3 str0" d="M102 143l6 19h-1l-6-19h1z"/><path class="fil2 str0" d="M99 160h1v1h-1c-1 0-1-1 0-1z"/><path class="fil6 str0" d="M104 149l-1 1 2 5c1 0 1-1 1-1l-2-5z"/><path class="fil3 str0" d="M98 143l2 17h-1l-1-17z"/><path class="fil6 str0" d="M99 148h-1v5h1zM90 148l-2-1-1 6h1l2-5z"/><g><path class="fil7" d="M106 154c-1 0 0 3 0 3s2 2 3 2c1 1 2 1 2 1 1 0 1-1 1-1-1 0-2 0-2-1 0 0-1-1-2-1l-1-1s0-1 1-1l-2-1z"/><path class="fil8" d="M103 123s1-2 2-5v-8c0-1-1-4-2-5-1-2-3-5-5-6-1 0-3 1-3 2h-1-1c-1 0-2 2-2 4v17h11c0 1 1 1 1 1z"/><path class="fil7" d="M110 124l4-2s1 0 0 0c0-1 1-1 1-1h2c0 1 0 2-1 2h-2v1l-3 1-1-1zM88 133v7c0 1 0 2 1 2h2s-1-2-1-3c-1 0-1-1-1-1v-5h-1z"/><path class="fil9" d="M90 115s0-1 1-1l3-1h4c2 1 3 1 4 1 1 1 1 5 2 6 0 1 0 5 1 5v1l4-2 3-1 2 1-9 4s-1 1-2 1c-1-1-1-2-1-3 0-2-1-4-1-4l-1 9h-8l-1-9s-1 1-1 3v8h-2v-10c1-4 1-8 2-8z"/><path class="fil10" d="M94 113s-1 0 0 1c0 1 1 2 2 1h1c0-1-1-2-1-2s0 1-1 0h-1zM97 113v2s1 0 1-1c0 0 0-1-1-1z"/><path d="M92 131s-1 2-2 3c0 2-1 4 0 6 2 2 2 2 4 2s4 1 5 1 6 1 6 1v10c0 1 3 1 3 1v-6c0-1 1-5 1-7 0-1-1-2-2-3-1 0-4-1-5-2-1-2-2-6-2-6h-8z" fill="#0098da"/><path d="M101 134s5 0 6 1 0 2 0 2c0 1-5 11-5 11l-2 5-2-1s2-7 2-8c0-2 1-4 2-6 0-1 0-2-1-4z" fill="#00afef"/><path class="fil7" d="M94 109h-1c-1-1-1-2-1-3 0 0 1 0 1 1h1l2-1c1-1 2-3 2-3v-1s1 0 1 2c1 1 1 2 1 4-1 2-1 3-2 4-1 0-2 0-3-1l-1-2z"/><path class="fil7" d="M97 112v1l-1 1c-1 0-2-1-2-1v-2-2l3 3zM98 152l-1 2s-1 1-1 2c1 0 1 1 1 1 1 0 2 0 2-1v-1-1c0-1 1-1 1-1l-2-1z"/><path class="fil13" d="M106 160s0-1-1-1v-1s0-2 1-1c0 0 1 0 2 1 0 1 1 1 2 2 1 0 1 0 1-1 1 0-1-1-1-1l2 1c1 0 2 0 1 1 0 0-1 1-2 1s-2-1-4-2c-1-1-1 0-1 0v1zM97 153s0 1-1 1v3c0 1 0 2 1 2s1-1 1-1c1 0 1-1 1-1v-1s0 1-1 1c-2 0-1-3-1-4z"/></g><path class="fil14 str0" d="M85 120v9h4l1-1v-7s0-1-1-1h-4z"/><path d="M109 124h30c1 0 2 1 2 2 0 2-1 3-2 3h-13v26h1v1h2v2h-10v-2h2v-1h2v-26h-14c-1 0-1-1-1-3 0-1 0-2 1-2z" fill="#848688"/><g><path class="fil2 str0" d="M162 157h-1v1c1 0 1 0 1-1h1-1z"/><path class="fil14 str0" d="M162 116v9h-3c-1 0-2-1-2-2v-6s0-1 1-1h4z"/><path class="fil3 str0" d="M160 125l2 2c0 1 0 5-1 6l-2 2h2s1-1 1-2c1-1 1-3 1-5 0-1-1-2-1-3h-2zM160 150l1 7h1l-2-7z"/><path class="fil4 str0" d="M159 137v1s-3 1-6 1h-8v-2h14z"/><path class="fil3 str0" d="M157 139l2 11h2l-3-11h-1z"/><path class="fil5 str0" d="M161 135v2s-3 1-8 1-7 0-8-1h-1v-2h17z"/><path class="fil2 str0" d="M154 159v1s1 0 1-1h-1z"/><ellipse class="fil6 str0" cx="153" cy="135" rx="9" ry="1"/><path class="fil3 str0" d="M152 139l2 20h1l-2-20h-1z"/><path class="fil2 str0" d="M140 158h-1c0 1 1 1 1 1v-1z"/><path class="fil6 str0" d="M153 146h1l1 5h-1c-1 1-1 0-1 0v-5z"/><path class="fil3 str0" d="M145 139l-6 19h1l6-19h-1z"/><path class="fil2 str0" d="M148 156h-1 1c0 1 0 0 1 0h-1z"/><path class="fil6 str0" d="M143 145h1l-1 6h-1c-1 0-1-1-1-1l2-5z"/><path class="fil3 str0" d="M149 139l-1 17h1l1-17h-1z"/><path class="fil6 str0" d="M148 144h2l-1 5h-1zM158 144l1-1 1 6h-1l-1-5z"/><g><path class="fil7" d="M144 121l-5 2s-1 2-2 2l-2-2c0-2-2-10-2-10s-2-1-1-2c0-1 0-1 1-2 1 0 2 1 2 1s-1 1-1 2 4 9 4 9l4-3 2 3z"/><path class="fil13" d="M141 118l3 3 2-1v11l3 1 6 2 1-7s2-7 2-9c0-1-1-2-1-2-1-1-4-2-4-2s0 1-1 1-2-1-2-1-4 1-5 2-4 2-4 2z"/><path class="fil16" d="M147 131s-2 0-4 1c-1 0-5 1-6 3-1 1 0 2 1 3 0 1 7 5 7 5l10 6 1-2-13-12s1-1 2-1c1-1 4-3 4-2l-2-1z"/><path class="fil17" d="M155 133s1 2 0 3c0 1-1 1-2 2l-5 1-5-4 3-2c2-1 3-1 3-1l6 1zM138 138s-1 0-1 1c-1 1-1 2-1 3l4 4c2 1 5 4 6 5 2 2 3 4 3 4l2-1-6-10-2-3-5-3z"/><path class="fil7" d="M155 149l2 2c0 1 2 2 2 2 1 0 2 0 2-1v-3h-3c0-1-2-2-2-2l-1 2zM151 154s1 1 2 1c0 1 1 1 1 1s0 2-1 3c-1 2-2 2-3 2h-2l2-2c0-1 1-2 1-2l-2-2 2-1z"/><path class="fil18" d="M148 162l3-1c1 0 2-1 3-2s1-1 1-2l-1-1v1c-1 1-1 3-3 4-2 0-3-1-3-1l-1 1c-1 1-1 1 1 1zM161 150c0-1 1 0 1 0 1 1 2 2 2 3s-1 1-2 1h-1c-1 0-2-1-2-1s2 0 2-1v-2z"/><path class="fil7" d="M154 122l3 1s-2 5-2 6c-1 1-1 1-3 1-2 1-10 1-10 1s-2 1-2 0c-1 0-1-1 0-1 1-1 2 0 2 0l11-2 1-6z"/><path class="fil8" d="M153 101s-1-1-1-2c1-1 2-1 4 0 1 1 1 3 0 3h-1s1 1 1 3v2c0 1-1 1-1 1h-1s1-2 0-3-3-1-4-1l-2 2v2s-1-1-1-2c1-1 1-3 2-4 2-1 3-1 4-1z"/><path class="fil7" d="M154 110v2c-1 1-1 2-1 2v1s-1 1-2 0c-1 0-1-1-1-1l1-1 3-3z"/><path class="fil7" d="M151 104s1-1 2 0c2 1 2 2 2 3l-1 1h1c1 0 1 1 0 2h-1s-1 1-1 2c-1 1-2 1-3 1s-2-2-2-5 1-4 3-4z"/></g></g><path d="M25 10h201v166H25V10zm70 53h60v101H95V63z" fill="#d8a182"/><g><path class="fil20" d="M61 56c3 1 0 0 2 1 3 2 6 6 12 2l4-3h1V12c-6-1-13 0-19 0v44zM117 56c4 6 13 6 17 0 1-2 1-40 0-43-2-2 0-1-3-1h-5c-3 0-7-1-9 0-2 5-1 17-1 22 0 4-1 21 1 22z"/><path class="fil20" d="M98 55l1 2c10 8 11 1 18-1-2-3 0-38 0-44-6-1-14 0-19 0v43zM29 59c6 2 7 2 12-1l2-2V12H25v39c0 5 0 7 4 8zM43 56c3 1 4 4 9 4 4 1 6-2 9-4V12H43v44zM80 56c4 5 14 7 18-1V12c-4-1-14-1-18 0v44zM190 56c-3 1-1 0-3 1-2 2-5 6-12 2l-3-3h-1V12c6-1 13 0 19 0v44zM153 55l-1 2c-11 8-11 1-18-1 1-7 0-31 0-44 6-1 14 0 19 0v43zM222 59c-6 2-7 2-12-1l-2-2V12h18v39c0 5-1 7-4 8zM208 56c-3 1-4 4-9 4-4 1-6-2-9-4V12h18v44zM171 56c-4 5-14 7-18-1V12c4-1 14-1 18 0v44z"/></g><g><path class="fil21" d="M58 52c3 1 0 0 2 1 3 1 6 5 13 2l4-3v-1h1L77 5c-5-1-13 0-19 0v47z"/><path class="fil22" d="M117 52c4 5 13 6 17 0 1-3 2-41 1-44-2-1-1 0-4-1h-5c-3 0-8 0-10 1-1 5 0 16 0 22 0 4-2 20 1 22z"/><path class="fil21" d="M96 51l2 1c11 9 11 2 19 0-2-4-1-41-1-46-5-2-14-1-20-1v46zM25 55c6 2 7 1 11-2 3-1 1 0 3-1V5H20v41c0 5 0 8 5 9z"/><path class="fil22" d="M39 52c3 1 5 4 9 4s7-2 10-4V7L39 8v44zM78 51c4 5 14 8 18 0V8c-4-1-14-1-19 0l1 43z"/><path class="fil21" d="M193 52c-3 1 0 0-2 1-3 1-6 5-13 2l-4-3v-1h-1l1-46c5-1 13 0 19 0v47zM155 51l-2 1c-11 9-11 2-19 0 1-8 1-33 1-46 5-2 14-1 19-1l1 46zM226 55c-6 2-7 1-11-2-3-1-1 0-3-1V5h19v41c0 5-1 8-5 9z"/><path class="fil22" d="M212 52c-3 1-5 4-9 4-5 0-7-2-10-4V7l19 1v44zM173 51c-4 5-14 8-18 0l-1-43c5-1 15-1 20 0l-1 43z"/></g><path class="fil23" d="M25 166h201.061v10.119H25z"/><path class="fil23" d="M3 176h244.711v10.119H3z"/><path fill="#a53235" d="M20 2h211.721v5.059H20z"/><path class="fil16" d="M95 155h60v9H95z"/><g><path class="fil23" d="M164 56l-9 7v101h9z"/><path class="fil25 str0" d="M163 64l-6 6v39l6-4z"/><path fill="url(#id0)" d="M157 113h6.407v50.254H157z"/></g><g><path class="fil23" d="M86 56l9 7v101h-9z"/><path class="fil25 str0" d="M87 64l6 6v39l-6-4z"/><path fill="url(#id1)" d="M87 113h6.705v50.254H87z"/></g><g><rect class="fil9" transform="rotate(.241 -19116.238 7867.471) scale(.33822)" width="118.999" height="66" rx="7" ry="7"/><rect class="fil1" transform="rotate(.207 -19339.625 8250.327) scale(.30747)" width="118.999" height="66" rx="7" ry="7" stroke="#fefefe" stroke-width=".314"/><circle class="fil10" transform="rotate(.241 -19740.919 8692.215) scale(.33822)" r="3"/><path class="fil28" d="M45 100v-1c0-1 1-1 1-1s0-1 1-1h1c1 0 2 0 2 1 1 1 1 1 1 2s0 2-1 3h-4c-1-1-1-2-1-3zm1 0c0 1 0 1 1 2h2c0-1 1-1 1-2l-1-1c0-1-1-1-1-1-1 0-1 0-1 1-1 0-1 1-1 1z"/><path id="1" class="fil28" d="M52 103v-6h3c1 0 1 1 1 1l1 1-1 1v1h-1-2v2h-1zm1-5v2h2v-1-1h-2z"/><path id="2" class="fil28" d="M57 103l1-6h4v1h-3v2h3v1h-3v1h3v1z"/><path id="3" class="fil28" d="M63 103v-6h1l3 4v-4h1v6h-1l-3-4v4z"/><circle class="fil10" transform="rotate(.241 -19760.169 15710.425) scale(.33822)" r="3"/><path class="fil1" d="M41 92s11-11 16-11 16 11 16 11" stroke="#fefefe" stroke-width="2"/></g></g></g></svg>