<svg xmlns="http://www.w3.org/2000/svg" width="304" height="204" viewBox="0 0 256 172" shape-rendering="geometricPrecision" text-rendering="geometricPrecision" image-rendering="optimizeQuality" fill-rule="evenodd" clip-rule="evenodd"><defs><style>.str4{stroke:#fefefe;stroke-width:.841444}.str0,.str1{stroke:#373435;stroke-width:.757896}.str1{stroke:#db9570}.fil14{fill:none}.fil0{fill:#fefefe}.fil7{fill:#727376}.fil10{fill:#373435}.fil8{fill:#fff212}.fil5{fill:#f58634}.fil3{fill:#000}.fil1{fill:#f9c9a9}.fil13{fill:#606062;fill-rule:nonzero}</style></defs><g id="Layer_x0020_1"><g id="_681187288"><path class="fil0 str0" d="M97 56l-5 23 6 2 4-23-5-2z"/><path class="fil1 str1" d="M91 82l-5 18s-1 2 0 4c0 2 1 3 1 4s1 2 1 3c1 0 2 0 2-2s-1-3 0-5c0-3 4-8 4-10 1-3 2-6 2-8 1-1 1-3 1-3l-6-1z"/><path class="fil0 str0" d="M91 78l-1 4s-1 1 3 2h5l1-4c0-1-5-2-5-2h-3z"/><path fill="#eda57f" d="M99 48l2 2 6-3-2-3z"/><path class="fil1" d="M90 49s4 2 8 0c3-1 9-5 9-8 1-2 0-3 0-4s2-3 0-5-5-6-8-9c-2-2-4-3-6-2s-9 5-10 8c-2 3-2 4-2 6 1 2 3 7 4 8 0 1 2 2 3 3 1 2 2 3 2 3z" stroke="#eda57f" stroke-width=".758"/><path class="fil3 str0" d="M88 46s-4 2-7-8c-4-10 2-18 7-20 2-1 4-1 7-1s5 1 6 3c2 3 5 5 6 8s1 8 1 9c0 3 0 1-1-1 0 0 1-2 0-3s-1-2-2-2c-1 1-5 1-8-3-2-3-4-5-4-5s-4 6-7 9c-2 2-4 2-4 3 1 2 3 9 6 11z"/><path class="fil3" d="M108 40c-1 0 3 6 3 6s6 7 7 10c1 2 1 4 1 4v-7c-1-4 2 5 2 5s0-4-1-6 2 6 2 6 1-9-1-12c-1-2-9-11-10-15-2-5-5-10-8-11-2-2-5-3-8-3s4 6 4 6 7 6 8 8 0 7 1 9z"/><path class="fil0 str0" d="M82 22s2-5 6-7c3-1 6-1 9 0 3 2 5 4 5 4s-6-2-9-2-7 2-11 5z"/><path class="fil1 str1" d="M106 121s3 27 3 28 1 10 1 10h8l-5-38h-7zM126 122s0 4 1 6c1 3 6 12 6 12l8 16h8l-12-24s-3-5-4-6v-3l-7-1z"/><path class="fil0" d="M100 51l1 4 8-6-1-2s0-1-2 0-5 3-6 4z" stroke="#a9abae" stroke-width=".758"/><path class="fil0 str0" d="M101 120s-1 2 0 2 37 2 37 2 1 0 2-1v-2l-38-1h-1z"/><path class="fil3" d="M131 72c-4-3-6-10-6-10l-4-10s-5-8-6-7c-1 0-15 9-16 10-2 1-3 4-2 6 1 1 2 2 2 3 1 1 0 6 3 7s5 0 5 0l6 7 4 4c3-3 8-7 14-10z"/><path class="fil3" d="M102 120l38 1s2-16 1-25-6-17-9-22c-1 0-1-1-1-2-7 1-13 2-17 3 0 0-10 8-11 23-1 6-1 10-1 14v8z"/><path class="fil0" d="M117 111c5-2 8-4 9-11s-2-23-1-24c1-2-10-3-13 1-3 3-9 11-10 25-1 15-1 14 0 14l15-5z"/><path d="M99 97s5-7 12-11c8-3 20-7 30-3 11 3 20 12 22 16 5 8 4 12 7 21 3 7 5 13 14 17 9 5 10 5 13 5h2v3s-2 2-10-1c-29-11-19-28-30-44-5-7-12-12-21-14s-18 0-26 4c-8 5-10 10-10 10l-3-3z" fill="#2d2e2e"/><path class="fil5" d="M198 140v7h5v-7z"/><path d="M203 135h40v18s-40-1-40 0v-18z" fill="#ffcc29"/><rect class="fil7" x="200" y="152" width="45.166" height="13.727" rx="3" ry="3"/><path class="fil7" d="M203 122s1-10 11-12c9-2 16-2 20 0 3 2 7 4 8 8l1 4s2 1 3 1v10s0 2-2 2h-38s-4 0-5-3c-1-2 0-9 0-9s0-1 2-1z"/><circle class="fil8" cx="205" cy="129" r="2"/><circle class="fil8" cx="212" cy="129" r="2"/><path class="fil8" d="M218 126h24.054v1.771H218zM218 129h24.054v1.771H218z"/><circle class="fil3" cx="204" cy="165" r="5"/><circle class="fil3" cx="242" cy="163" r="8"/><ellipse class="fil8" cx="223" cy="112" rx="10" ry="2"/><circle cx="242" cy="163" r="5" fill="#484848"/><path class="fil10" d="M15 149l23 11s2 1 2 0-1-1 0-2c0-1 1-2 1-2-1-1-1-1-1-2 1 0 2-1 2-1l-2-3-4 3c-1 0-3-1-5-2s-7-3-8-3h-2c-2-1-3 0-4 0s-2-1-2 1z"/><path class="fil5" d="M22 149l8 4s1-1 1-2c1 0 1 0 0-1-1 0-9-3-9-1zM43 145l-3 3s-2 0 0 3l3 3c1-1 4-3 4-3 1-1 0-1-1-3s-3-3-3-3z"/><path class="fil10" d="M43 146l3 4 52-48-3-2z"/><path class="fil5" d="M98 95s-3 3-4 3c0 1 3 5 4 5 0 0 4-2 4-3l-2-4c-1-1-2-1-2-1z"/><g><path class="fil0 str0" d="M119 54l13 3s2 1 3 1c1-1 7-1 7-1s2-4-3-5-22-5-22-5-2-1-2 0l4 7z"/><path class="fil0 str0" d="M134 56l1 5h7s1-1 1-2c0 0 1-3 0-3-1-1-3 0-3 0h-6z"/><path class="fil1 str1" d="M132 77l3-12v-4l7-1s-3 13-3 14c0 2-1 2 0 3 0 1 2 4 2 6 0 1-3 2-5 2-1 1-3 2-4 1-2-1-3-4-3-6 0-1 1-2 3-3z"/></g><path class="fil3 str0" d="M98 164s1-4 3-4c1 0 3 1 4 0 1 0 4-1 7-1h7v5H98z"/><path class="fil0 str0" d="M97 165l1 1h21s0-1 1-1c0 0 0-1-1-1H98s-1 0-1 1z"/><path class="fil3 str0" d="M131 164s-2-2 1-3l8-4s0-1 3-1c4 0 6-1 6-1s1 1 2 1v4s-5 1-7 2c-3 0-13 3-13 2z"/><path class="fil0 str0" d="M130 165s0 1 1 0c2 0 12-2 12-2s7-1 8-2h1c0-1-5 0-5 0-1 0-16 3-16 3s-1 0-1 1z"/><path class="fil1 str1" d="M92 105s2-1 3-1l2 2s0 2-1 2c-1 1-4 2-4 2s-1 0-1-1c-1-1-1-1-1-2s2-2 2-2z"/><circle class="fil0" transform="rotate(-25.086 175.955 -211.67) scale(.29535)" r="3"/><circle class="fil0" transform="rotate(-25.086 183.615 -214.658) scale(.29535)" r="3"/><circle class="fil0" transform="rotate(-25.086 190.15 -217.565) scale(.29535)" r="3"/><g><path d="M9 158h1c-1-2 0-4 2-6 1 0 4-1 5 0h2c0 1 1 1 1 2l1-1c2-1 5-1 7 1 0 1 1 2 0 3 1 0 1 1 1 1 1 1 1 3-1 4h-1c0 1 0 2-1 2-2 1-4 1-6 0-1 1-2 1-3 0l-2 1c-2 1-5 1-7-1s-1-5 1-6z" fill="#9c9e9e" fill-rule="nonzero"/><path d="M9 158c0-2 0-4 3-6 1-1 3-1 5 0 0 0 1 0 0 0-2-1-4 0-5 1-2 1-3 3-2 5H9c-2 1-3 4-1 6s5 2 7 1l2-1h3c2 1 4 1 5 0 1 0 2-1 2-2h1c2-1 2-3 1-4 0 0-1 0-1-1s0-2-1-3-4-2-6-1c0 0 0 1-1 1 0-1-1-1-1-2 0 1 1 1 1 1h1c2-1 5-1 7 1 1 1 1 2 0 3 1 0 1 1 1 1 1 1 1 3-1 4h-1c0 1 0 2-1 2-2 1-4 1-6 0-1 1-2 1-3 0l-1 1c-3 1-6 1-8-1s-1-5 1-6z" fill="#373435" fill-rule="nonzero"/><path class="fil13" d="M9 158h1c-1-2 0-4 2-5 0-1 0-1 1-1-2 1-2 3-2 5-2 2-3 4-1 6 1 2 4 2 7 1l-2 1c-2 1-5 1-7-1s-1-5 1-6zM13 170h2v-1h-1c-1 0-1 1-1 1z"/><path class="fil13" d="M14 169h1v1c-1 1-1 0-2 0 0 0 0-1 1-1zm0 1c1 0 1 0 1-1h-1c-1 0-1 1 0 1zM2 158h1c1 0 1-1 1-1H2v1z"/><path class="fil13" d="M2 157h2v1H2v-1zm1 1c1 0 1-1 1-1H3c-1 0-1 0-1 1h1zM20 151h1c1 0 1-1 1-1h-2v1z"/><path class="fil13" d="M20 150h2v1h-2v-1zm1 1c1 0 1-1 0-1s-1 1-1 1h1zM31 160s1 1 1 0c1 0 1 0 1-1h-2v1z"/><path class="fil13" d="M31 159h2c0 1 0 1-1 1 0 1-1 1-1 0v-1zm1 1c1 0 1 0 0-1h-1v1h1zM17 167h1s1-1 0-1h-1v1z"/><path class="fil13" d="M17 166h1c1 0 1 1 0 1h-1c-1 0 0-1 0-1zm1 1v-1h-1v1h1zM5 154s1 1 1 0v-1H5s-1 1 0 1z"/><path class="fil13" d="M5 153h1c1 1 0 1 0 1 0 1-1 1-1 0-1 0-1-1 0-1zm1 1v-1H5v1h1zM6 158h1c1 0 1-1 0-1H6v1z"/><path class="fil13" d="M6 157h2s0 1-1 1H6v-1zm1 1s1-1 0-1H6v1h1zM13 150c0 1 1 1 1 0 1 0 1 0 0 0 0-1 0-1-1-1v1z"/><path class="fil13" d="M13 149h2c0 1 0 1-1 2 0 0-1 0-1-1v-1zm1 1c1 0 1 0 0 0 0-1 0-1-1-1v1h1z"/></g><path class="fil14 str4" d="M14 155h1c1 0 2 0 1-1s-3 0-4 0c0 1 2 3 4 3s9-2 9-2M18 160v1c1 0 2-1 1-1-1-1-2-1-3 0 0 1 1 2 3 2s8-2 8-2"/><path class="fil14" d="M0 0h256v172H0z"/></g></g></svg>