<svg xmlns="http://www.w3.org/2000/svg" width="120" height="120" shape-rendering="geometricPrecision" text-rendering="geometricPrecision" image-rendering="optimizeQuality" fill-rule="evenodd" clip-rule="evenodd"><defs><style>.fil4{fill:#2887d2}.fil1{fill:#fefefe;fill-rule:nonzero}</style></defs><g id="Layer_x0020_1"><path fill="none" d="M0 0h120v120H0z"/><g id="_1011183576"><path class="fil1" d="M94 10c0-1-1-3-3-3H24v86c0 1 1 3 3 3h64c2 0 3-2 3-3V10z"/><path id="1" d="M91 9V6h3v1h1v1l1 1v1h-4V9h-1zm0-3zM44 6h47v3H44V6zm0 1v2-2zM24 6h20v3H24l-2-2 2-1zm-2 1V6h2l-2 1zm0 19V7h4v19h-4zm2 0h2-2zm-2 5v-5h4v5h-4zm0 62V31h4v62h-4zm0 0zm5 1v4h-1v-1h-2v-1h-1v-1l-1-1v-1h4v1h1zm0 4zm17 0H27v-4h17v4zm47 0H44v-4h47v4zm1-5h4v1l-1 1v1h-1v1h-2v1h-1v-4h1v-1zm4-44v44h-4V49h4zm0-39v39h-4V10h4zm0 0z" fill="#ed3237" fill-rule="nonzero"/><path d="M75 40c0-1-1-2-1-3-1-1-2-1-3-2-1 0-3-1-4-1l-2-2-2-2v-3c0-3 0-4 2-6 1-1 3-2 5-2v-4h3v4c2 0 4 1 5 3 2 1 2 3 2 6h-5c0-2-1-3-1-4-1 0-2-1-3-1s-2 1-2 1c-1 1-1 2-1 3s0 1 1 2c0 0 1 1 3 2 1 0 3 1 4 1 1 1 1 2 2 2 1 1 1 2 2 3v3c0 2 0 3-2 5-1 1-3 2-5 2v4h-3v-4c-3 0-5-1-6-3-2-1-2-3-2-6h5c0 2 0 3 1 4 1 0 2 1 3 1s2 0 3-1c0-1 1-1 1-2z" fill="#00a859" fill-rule="nonzero"/><path class="fil4" d="M36 17h19.277v4.901H36zM36 30h19.277v4.901H36zM36 44h19.277v4.901H36z"/><g><path d="M79 69c9-2 15-3 22-3-2 7-1 4-3 10l20-15c-5-7-9-12-14-18 0 4 0 2-1 9-17 0-27-1-40 15-4 5-10 16-10 24 3-3 3-4 5-7 4-8 12-13 21-15z" fill="#fc4d44"/><path id="1" class="fil1" d="M102 66h-2l1 1h-8v1h-7l-1 1h-4l-1 1-1-3h5v-1h6v-1h11l1 1zm-1-1h1v1l-1-1zm-4 10l2 2-2-2v-2h1v-3h1v-4h3v1l-1 1v3h-1v3l-1 1v1l-2-1zm2 2l-3 2 1-4 2 2zm20-15L99 77l-2-2 20-14h2v1zm0-1l1 1h-1v-1zm-14-18h-2l2-1v1h1v1l1 1 1 1 1 1v1h1v1l1 1 1 1 1 1v1l1 1 1 1v1h1v1h1v1l1 1 1 1v1l-2 1v-1h-1v-1l-1-1-1-1-1-1v-1h-1v-1l-1-1v-1h-1v-1h-1v-1l-1-1-1-1v-1h-1v-1h-1v-1l-1-1-1-1 2-1zm-2 0v-3l2 2-2 1zm1 0h1-1zm-1 0v-3l2 2-2 1zm0 10v-2l-1 1v-5h1v-4h2v9l-2 1zm2-1v1h-2l2-1zM64 68l-2-2 1-1 1-2 2-1 1-1 1-1 1-1 2-1 1-1 1-1 1-1h1l2-1 1-1h2l1-1h4l1-1h17v2H89l-1 1h-5l-1 1h-2l-1 1h-1l-2 1h-1l-1 1-1 1h-1l-1 1-1 1-1 1-2 2-1 1-1 1-1 2zM52 90l2 1h-2v-4l1-1v-3l1-1v-2l1-1v-2h1v-2l1-1v-1h1v-2l1-1 1-1v-1h1v-1h1v-1l2 2h-1v1l-1 1-1 1v1l-1 1v1h-1v2l-1 1v1h-1v3l-1 1v1l-1 1v5h-1v2l-2-1zm2 1l-2 3v-3h2zm2-8l3 1-1 1v1h-1v2h-1v2h-1v1h-1l-2-1h1v-2h1v-1h1v-2h1v-2zm23-16l1 3h-3l-1 1h-1l-1 1h-2v1h-2l-1 1-1 1h-1v1h-1l-1 1-1 1h-1v1h-1v1l-1 1-1 1-1 1v1l-3-1h1v-1l1-1v-1h1l1-1v-1h1v-1h1v-1l1-1h1v-1h1l1-1h1v-1h1l1-1h1l1-1h1l1-1h3v-1h2l1-1z"/></g><path d="M35 55l28 28c6 6 7 17 0 22l-6 4c-7 4-16 6-22 0L7 81c-6-6-7-17 0-22l6-5c7-5 15-5 22 1z" fill="#fefefe"/><path d="M12 58c5-5 14-5 20 0l28 28c2 2 3 5 3 8s-1 5-3 8c-3 3-9 4-13 1h-1L18 75c-3-3-3-8 0-10 3-3 7-3 10 0l23 23c1 0 1 1 0 2s-2 1-2 0L26 67c-2-1-4-1-6 0-1 2-1 4 0 5l27 27c3 3 8 3 10 0 3-3 3-7 0-10L29 61c-4-4-11-4-15 0s-4 11 0 15l26 26v2c-1 1-2 1-3 0L12 79c-6-6-6-15 0-21z" fill="#2887d2" fill-rule="nonzero"/></g></g></svg>