<svg xmlns="http://www.w3.org/2000/svg" width="229" height="200" viewBox="0 0 235 205" shape-rendering="geometricPrecision" text-rendering="geometricPrecision" image-rendering="optimizeQuality" fill-rule="evenodd" clip-rule="evenodd"><defs><style>.str0{stroke:#6e3614;stroke-width:.924219}.fil4{fill:#fefefe}.fil13{fill:#ffcc29}.fil2{fill:#f5886c}.fil9{fill:#f58634}.fil1{fill:#e4684a}.fil3{fill:#91d8f7}.fil8{fill:#000}.fil6{fill:#6e3614}</style></defs><g id="Layer_x0020_1"><g id="_668049976"><ellipse cx="118" cy="172" rx="114" ry="30" fill="#96989a"/><path class="fil1" d="M157 44v110l-32-4V54z"/><path class="fil2" d="M157 44v110l31-4V54z"/><path class="fil3" d="M185 98l-23-5v7l23 5zM185 110l-23-4v7l23 4zM185 121l-23-3v7l23 3zM185 87l-23-6v7l23 5zM185 75l-23-6v7l23 5zM185 63l-23-6v7l23 5z"/><path class="fil4" d="M148 154c0 1 23-2 23-2v-14c1 0-20-4-22-4-1 0-1 20-1 20z"/><g><path fill="#e4684a" d="M115 3v156l-42-5V16z"/><path class="fil2" d="M115 3v156l42-5V16z"/><path class="fil3" d="M80 86l30-7v9l-30 7zM80 101l30-5v9l-30 5zM80 116l30-4v9l-30 4zM80 132l30-2v9l-30 2zM152 86l-29-7v9l29 7zM152 101l-29-5v9l29 5zM152 116l-29-4v9l29 4zM80 68l30-8v10l-30 7zM152 68l-29-8v10l29 7zM80 49l30-7v9l-30 7zM152 49l-29-7v9l29 7zM80 31l30-7v9l-30 7zM152 31l-29-7v9l29 7z"/></g><g><path class="fil6" d="M149 140v26h-1v2h6v-2h-1v-26h2v-4h-8v4z"/><path class="fil1 str0" d="M139 124h9.63v13.024H139z"/><path class="fil6" d="M198 137v21h-1v2h5v-2h-1v-21h2v-3h-6v3z"/><path class="fil1 str0" d="M139 124h47l17 10-55 3z"/><path class="fil6" d="M154 140v26h-1v2h5v-2h-1v-26h2v-4h-7v4zM194 137v21h-1v2h4v-23h1v-3h-6v3z"/></g><g><path d="M53 165c-4 4-5 6-5 12v12c0 1-1 4 0 5s15 2 23 2c7 0 13 1 13 1s3 0 3-1c2-1 3-1 6-2 0-18 5-19 7-7v4s18-8 20-8c0-4 0-11 2-13 1-2 3 2 3 3v7h2v-3c0-3 1-7 0-10 0-2-1-3-3-4s-7-1-7-1c-2-1-7-8-15-8-4-1-21-1-25 0s-6 1-10 2c-4 2-11 6-14 9z" fill="#0063d4"/><path class="fil3" d="M53 169c4 1 28 0 32-1l2-4c0-1 2-4 2-4H67c-3 0-3 0-5 1-1 1-2 2-3 2l-5 5c-1 0-1 0-1 1z"/><path class="fil8" d="M94 195l-7 2c0 2 1 5 2 5h7c2 0 3-2 3-4v-6c0-3 0-5-1-7 0-1-1-4-2-2-2 2-2 8-2 12zM120 183c-1 1-4 2-5 3v2c1 1 1 1 3 1h4c1 0 2-1 2-2 1-4 1-15-2-15-2 0-2 10-2 11z"/><path class="fil3" d="M97 159l2 3c0 1 0 3 1 4l6-1c0-2-4-7-5-7-1-1-3 0-4 1z"/><path class="fil8" d="M62 196c-6 0-7 0-12-1 0 2 1 5 1 6 1 2 3 1 4 1 2 0 4 1 5 0 1 0 2-5 2-6z"/><path class="fil3" d="M107 165l5-1h2c0-1 0-1-1-2l-2-1v-1c-1 0-1 0-1-1-2-1-4-2-7-2 0 0 3 4 4 8z"/><path class="fil9" d="M77 174s1 2 2 2c1 1 2 0 3 0s5 0 6-1l-1-2c-1-1-9 0-10 1z"/><path d="M96 198c3-1 2-9 1-10 0-1 0-2-1-1s-2 9 0 11z" fill="#fefefe"/><path class="fil3" d="M93 167l5-1c0-1-1-5-2-6-1 2-2 4-3 7z"/><path class="fil9" d="M49 175c1 1 3 1 5 1l1-2c-1-1-6-4-6 1z"/><ellipse class="fil4" cx="123" cy="180" rx="1" ry="5"/><path class="fil8" d="M109 168l2-1v1l-2 1-1-1h1z"/><path d="M55 178v6c0 1-1 4-1 4l27 1s-1-3-1-4c0-2 1-6 1-6l-26-1z" fill="#003a7d"/><path class="fil4" d="M59 182l14 1v3H59z"/></g><path d="M160 43l1-6h2l-1 2 3 1v-3h1l-1 6h-1v-2l-2-1v3h-2zm7-1v-2h1c0-1 1-1 1-1h1c1 0 2 1 2 1 1 1 1 2 1 3s-1 1-1 2h-3c-1 0-1 0-2-1v-2zm1 0v2h3v-2-1c0-1 0-1-1-1h-1c-1 1-1 1-1 2zm6 4l1-5h-2v-1h5v1h-2l-1 5h-1zm4 2v-6l5 1v1l-3-1-1 2h3v1h-3v1l3 1v1l-4-1zm6 2l1-6h1l-1 5h3v1h-4z" fill-rule="nonzero"/><path class="fil13" d="M125 9l1 4 4 1-4 2v4l-2-3-4 2 2-4-3-3 4 1zM139 12v4l4 1-4 2 1 4-3-3-4 2 2-4-3-3 5 1zM152 15v5l5 1-4 1v5l-3-4-4 2 3-4-3-3 4 1z"/><path fill="none" d="M0 0h235v205H0z"/></g></g></svg>