<svg xmlns="http://www.w3.org/2000/svg" width="276" height="197" viewBox="0 0 275 196" xmlns:xlink="http://www.w3.org/1999/xlink" shape-rendering="geometricPrecision" text-rendering="geometricPrecision" image-rendering="optimizeQuality" fill-rule="evenodd" clip-rule="evenodd"><defs><linearGradient id="id0" gradientUnits="userSpaceOnUse" x1="137.401" y1="31.705" x2="138.6" y2="-2.827"><stop offset="0" stop-color="#848688"/><stop offset="1" stop-color="#fff"/></linearGradient><linearGradient id="id1" gradientUnits="userSpaceOnUse" xlink:href="#id0" x1="136.191" y1="158.348" x2="139.809" y2="14.29"/><linearGradient id="id2" gradientUnits="userSpaceOnUse" x1="159.422" y1="47.84" x2="182.432" y2="47.84"><stop offset="0" stop-color="#91d8f7"/><stop offset="1" stop-color="#25a6d9"/></linearGradient><linearGradient id="id3" gradientUnits="userSpaceOnUse" xlink:href="#id2" x1="191.456" y1="47.84" x2="214.465" y2="47.84"/><style>.fil12{fill:#a98f71}.fil23{fill:#000}.fil13{fill:#ba9d72}.fil11{fill:#e4bf87}.fil15,.fil22{fill:#bdbfc1;fill-rule:nonzero}.fil22{fill:#f6b998}.fil16,.fil5,.fil7{fill:#eea880;fill-rule:nonzero}.fil5,.fil7{fill:#e8e9ec}.fil7{fill:#cdcfd6}.fil10,.fil25,.fil4{fill:#bbbbba;fill-rule:nonzero}.fil10,.fil4{fill:#a3a9b3}.fil10{fill:#9da2af}.fil14,.fil3,.fil9{fill:#4e4e53;fill-rule:nonzero}.fil14,.fil3{fill:#000}.fil3{fill:#2887d2}</style></defs><g id="Layer_x0020_1"><g id="_719097056"><path fill="none" d="M0 0h275v196H0z"/><path fill="url(#id1)" fill-rule="nonzero" d="M13 155h250V17H13z"/><path fill="url(#id0)" fill-rule="nonzero" d="M13 29h250V0H13z"/><path class="fil3" d="M275 19H1L8 0h260z"/><path class="fil4" d="M183 55h-25V42v12h25zM215 55h-25V42v12h25z"/><path class="fil5" d="M158 54h26V41h-26z"/><path fill="url(#id2)" fill-rule="nonzero" d="M159 53h23V43h-23z"/><path class="fil7" d="M170 53h1V43h-1z"/><path class="fil7" d="M159 48h23v-1h-23z"/><path class="fil5" d="M190 54h26V41h-26z"/><path fill="url(#id3)" fill-rule="nonzero" d="M191 53h23V43h-23z"/><path class="fil7" d="M202 53h1V43h-1z"/><path class="fil7" d="M191 48h23v-1h-23z"/><g><path class="fil5" d="M31 155h83V44H31z"/><path class="fil9" d="M30 45h85v-4H30zM31 155h83v-11H31z"/><path class="fil7" d="M33 68h79V45H33z"/><path class="fil10" d="M33 50h79v-1H33zM33 55h79v-2H33zM33 59h79v-2H33zM33 63h79v-1H33zM33 68h79v-2H33z"/></g><g><path class="fil11" d="M69 121h25.987v25.987H69z"/><path class="fil12" d="M78 123h8.469v1.508H78z"/><path class="fil13" d="M95 121l-6-2H64l5 2h26z"/><path class="fil13" d="M69 147l-5-3v-25l5 2v26z"/></g><g><path class="fil11" d="M40 121h25.987v25.987H40z"/><path class="fil12" d="M49 123h8.469v1.508H49z"/><path class="fil13" d="M66 121l-6-2H35l5 2h26z"/><path class="fil13" d="M40 147l-5-3v-25l5 2v26z"/></g><g><path class="fil11" d="M58 95h25.987v25.987H58z"/><path class="fil12" d="M67 96h8.469v1.508H67z"/><path class="fil13" d="M84 95l-6-3H53l5 3h26z"/><path class="fil13" d="M58 121l-5-4V92l5 3v26z"/></g><g><path class="fil14" d="M134 155c1-1 0-2-1-3s-2-2-3-2c0 0 0 2 1 3s3 2 3 2zm-8 5l4-7c-1-2-2-4-1-4s3 1 4 2c2 2 3 4 2 5 0 1-2 0-3-1l-4 5h-2z"/><path class="fil15" d="M146 158l5-8v-1s0-2-2-1h-1l-3 6h-9l-1 3 11 1z"/><path class="fil16" d="M135 154h1l-1 3c-1 0-2-1-2-2s1-1 2-1zM152 145v4h-3l1-5z"/><path d="M144 160l-7 3c0 1-1 1-1 2v9l5 1 1-8 7-1c2 0 3-1 3-3l1-3h-9z" fill="#a9abae" fill-rule="nonzero"/><path class="fil14" d="M140 175v2h-7s-1-2 3-3l4 1z"/><path d="M139 163l5-3c1-5 2-7 2-10l3-3h3c1 1 2 2 2 3 1 5 0 10 0 11l-1 2c0 2-1 3-2 3l-8 1-1 8h-5v-10l2-2z" fill="#727376" fill-rule="nonzero"/><path d="M144 158v1-1z" fill="#ebe1b6" fill-rule="nonzero"/><path d="M144 158c0-1 1-2 1-3 0 1-1 2-1 3z" fill="#d97839" fill-rule="nonzero"/><path d="M148 159h1l3-8c1-1 0-2-1-2h-1-1l-3 6h-1c0 1-1 2-1 3v1h4z" fill="#bfc3c4" fill-rule="nonzero"/><path class="fil15" d="M146 158h1l5-8c0-1 0-3-2-2-1 0-1 0-1 1l-3 5h-9l-1 3 10 1z"/><path class="fil22" d="M136 154h1l-1 3c-1 0-2-1-2-2 0 0 1-1 2-1z"/><path class="fil14" d="M152 133c2 0 3 1 4 1 1 2 2 4 1 7-1 2-3 2-3 2v-2-2 1h-1v-3h-4c-1 0-2-1-2-1-3-3 5-3 5-3z"/><path class="fil22" d="M153 137v2l1 1s0-1 1-1c0 0 1 0 1 1s-1 2-2 1v2c0 2-2 3-4 3s-4-2-4-4l1-6h2c4 1 4 0 4 1z"/><path class="fil14" d="M141 175v3l-6-1s-1-2 2-2h4z"/><path class="fil23" d="M152 136v1l-1 1s0 1 1 0 0-2 0-2zM151 135v2l-1 1s1 0 1-1c1-1 1-2 1-2h-1z"/><path class="fil23" d="M152 136s1 1 0 1v2l1-1v-2h-1zM149 136s-1 0-2 1v1s-1-1 0-1c0-1 1-2 1-2l1 1z"/><path class="fil23" d="M149 136l-1 1v1s-1-1 0-2l1-1v1zM148 135s-1 0-1 1l-1 1v-1c0-1 1-1 1-1h1z"/><path class="fil14" d="M96 184v-35h5v-23h11v10h-3v45h-8v-27 33H39v-3z"/><path class="fil3" d="M106 181h-2v-55h2z"/><path class="fil14" d="M126 125c1-2 2-3 5-3h38c2 0 3 1 3 2v29l-5 5v-29c0-1-1-2-3-2l-31-1c-2 0-3 2-4 4l-7 24v1h-5l9-30z"/><path class="fil14" d="M128 153l7 5v21h-9v-26zM154 161c0-1 1-5 2-9 0-2 1-3 3-3 1-1 3-1 4-1l1 1c0 5-1 14-4 17-5 6-10 14-10 14h-9l2-14s-1-2 8-3c1 0 2-1 3-2z"/><path d="M118 153h10s-2 23 2 23h19l15-25h8c6 0 10 3 13 9 1 2 2 5 2 8v14c0 4-1 6-5 6h-72c7-14-2-16-2-16s9-16 10-19z" fill="#00afef" fill-rule="nonzero"/><path class="fil14" d="M167 169c8 0 15 7 15 15v4h-4v-2c0-7-5-13-11-13-7 0-12 6-12 13 0 1 0 2 1 2h-4c0-1-1-2-1-4 0-8 7-15 16-15zM106 178l-3-5c3-2 7-4 11-4 9 0 16 7 16 15 0 2-1 3-1 4h-4c1 0 1-1 1-2 0-7-5-13-12-13-3 0-6 2-8 5z"/><path class="fil14" d="M102 184c0 7 6 12 12 12 7 0 12-5 12-12 0-6-5-12-12-12-6 0-12 6-12 12z"/><path class="fil25" d="M107 184c0 4 3 7 7 7s7-3 7-7-3-7-7-7-7 3-7 7z"/><path class="fil14" d="M155 184c0 7 5 12 12 12 6 0 12-5 12-12 0-6-6-12-12-12-7 0-12 6-12 12z"/><path class="fil25" d="M160 184c0 4 3 7 7 7s7-3 7-7-3-7-7-7-7 3-7 7z"/><path class="fil14" d="M111 184c0 2 1 3 3 3s3-1 3-3c0-1-1-3-3-3s-3 2-3 3zM164 184c0 2 1 3 3 3 1 0 3-1 3-3 0-1-2-3-3-3-2 0-3 2-3 3z"/></g></g></g></svg>