<svg width="26" height="30" viewBox="0 0 26 30" fill="none" xmlns="http://www.w3.org/2000/svg">
<path fill-rule="evenodd" clip-rule="evenodd" d="M0.5 0.499783V29.4998L25.5 29.7498V5.99978L20.5 0.499783C20.5 0.499783 0.5 0.249783 0.5 0.499783ZM2 1.99978L1.75 27.7498L24 27.9998L24.25 6.99978L19.5 1.99978H2Z" fill="url(#paint0_linear)"/>
<path fill-rule="evenodd" clip-rule="evenodd" d="M13.5 7.5L17.75 9.25L12 23L8.5 24.75L7.5 21L13.5 7.5Z" fill="url(#paint1_linear)"/>
<path fill-rule="evenodd" clip-rule="evenodd" d="M16 4.00004L18.75 5.25004C19.25 5.25004 19.5 5.75004 19.25 6.25004L18.5 8.25004L14 6.25004L15 4.25004C15 4.00004 15.5 3.75004 16 4.00004Z" fill="url(#paint2_linear)"/>
<path d="M20.475 25.75H5.5V26.4659H20.475V25.75Z" fill="url(#paint3_linear)"/>
<path d="M11.1766 19.4475L15.8965 8.63965L15.2404 8.35313L10.5206 19.1609L11.1766 19.4475Z" fill="#FEFEFE"/>
<defs>
<linearGradient id="paint0_linear" x1="4.25608" y1="25.5934" x2="24.6505" y2="7.58254" gradientUnits="userSpaceOnUse">
<stop stop-color="#1CC8EB"/>
<stop offset="0.631" stop-color="#0E96E0"/>
<stop offset="1" stop-color="#0063D4"/>
</linearGradient>
<linearGradient id="paint1_linear" x1="9.03999" y1="22.308" x2="19.8263" y2="15.6605" gradientUnits="userSpaceOnUse">
<stop stop-color="#1CC8EB"/>
<stop offset="0.631" stop-color="#0E96E0"/>
<stop offset="1" stop-color="#0063D4"/>
</linearGradient>
<linearGradient id="paint2_linear" x1="14.8035" y1="7.63374" x2="17.7636" y2="3.86222" gradientUnits="userSpaceOnUse">
<stop stop-color="#1CC8EB"/>
<stop offset="0.631" stop-color="#0E96E0"/>
<stop offset="1" stop-color="#0063D4"/>
</linearGradient>
<linearGradient id="paint3_linear" x1="7.7499" y1="26.3646" x2="7.796" y2="25.3644" gradientUnits="userSpaceOnUse">
<stop stop-color="#1CC8EB"/>
<stop offset="0.631" stop-color="#0E96E0"/>
<stop offset="1" stop-color="#0063D4"/>
</linearGradient>
</defs>
</svg>
