<svg xmlns="http://www.w3.org/2000/svg" width="226" height="158" viewBox="0 0 225 157" xmlns:xlink="http://www.w3.org/1999/xlink" shape-rendering="geometricPrecision" text-rendering="geometricPrecision" image-rendering="optimizeQuality" fill-rule="evenodd" clip-rule="evenodd"><defs><linearGradient id="id0" gradientUnits="userSpaceOnUse" x1="114.57" y1="86.909" x2="175.125" y2="86.909"><stop offset="0" stop-color="#91d8f7"/><stop offset="1" stop-color="#25a6d9"/></linearGradient><linearGradient id="id1" gradientUnits="userSpaceOnUse" xlink:href="#id0" x1="114.57" y1="27.042" x2="149.733" y2="27.042"/><linearGradient id="id2" gradientUnits="userSpaceOnUse" x1="57.15" y1="75.224" x2="29.977" y2="98.813"><stop offset="0" stop-color="#91d8f7"/><stop offset=".702" stop-color="#77cfe4"/><stop offset="1" stop-color="#5cc6d0"/></linearGradient><linearGradient id="id3" gradientUnits="userSpaceOnUse" xlink:href="#id0" x1="22.933" y1="27.067" x2="67.077" y2="27.067"/><linearGradient id="id4" gradientUnits="userSpaceOnUse" xlink:href="#id0" x1="22.933" y1="55.696" x2="67.077" y2="55.696"/><linearGradient id="id5" gradientUnits="userSpaceOnUse" xlink:href="#id0" x1="114.57" y1="58.054" x2="158.713" y2="58.054"/><style>.fil19{fill:none}.fil1{fill:#fefefe}.fil13{fill:#ffcc29}.fil6{fill:#5cc6d0}.fil0{fill:#2887d2}.fil14,.fil2,.fil7{fill:#fefefe;fill-rule:nonzero}.fil14,.fil2{fill:#00a859}.fil2{fill:#0098da}</style></defs><g id="Layer_x0020_1"><g id="_639413056"><path class="fil0" d="M195 22c0 1 1 111 0 117-1 7-30-8-50-8s-45 7-45 7-25-7-45-7c-21 0-49 16-50 6-2-9-1-114 0-115 2-1 22-10 54-8 32 1 40 4 40 4s29-7 50-6 45 9 46 10z"/><path class="fil1" d="M10 17L9 136s27-10 47-9c21 1 44 7 44 7L99 17s-32-8-50-6c-18 1-39 6-39 6z"/><path id="1" class="fil2" d="M8 136L9 17h2v119l-1 1-2-1zm2 1l-2 1v-2l2 1zm46-11v2h-7l-2 1h-6l-2 1h-4l-2 1h-2l-2 1h-4l-1 1h-2l-1 1h-2l-1 1h-3l-1 1h-2l-1 1h-1l-1-2h1l1-1h3l1-1h1l1-1h3l2-1h1l2-1h2l2-1h3l2-1h4l2-1h4l2-1h10zm42 8h3l-2 1h-1v-1h-4l-1-1h-3l-2-1h-4l-2-1h-3l-2-1h-5l-2-1h-8l-2-1h-4v-2h6l2 1h8l2 1h5l2 1h3l2 1h3l1 1h4l1 1h4v1h1l-2 1zm3-117v117h-3V17l2-1 1 1zm-1-1h1v1l-1-1zm-51-4v-2l1-1h6l2 1h11l2 1h4l2 1h6l2 1h3l2 1h3l1 1h4l1 1h1l-1 2h-1l-1-1h-3l-1-1h-5l-2-1h-3l-2-1h-4l-2-1h-7l-2-1H49zm-38 5H9v-1h2v-1h4l1-1h5l1-1h3l2-1h4l2-1h5l2-1h9v2h-7l-2 1h-5l-2 1h-4l-2 1h-4l-2 1h-4l-1 1h-3l-1 1h-2l1-1zm-2 0v-1 1z"/><path class="fil1" d="M189 17l1 119s-27-10-47-9c-21 1-43 7-43 7L99 17s33-8 51-6c18 1 39 6 39 6z"/><path id="1" class="fil2" d="M191 136l-2 1v-1l-1-119h2l1 119zm0 0v2l-2-1 2-1zm-48-10h10l2 1h4l2 1h4l2 1h4l1 1h2l2 1h1l2 1h3l1 1h1l2 1h2l1 1h1l-1 2h-1v-1h-3l-1-1h-3l-1-1h-2l-1-1h-2l-1-1h-4l-2-1h-2l-2-1h-3l-2-1h-6l-2-1h-8v-2zm-42 8l-2-1h1v-1h4l1-1h4l1-1h3l2-1h3l2-1h5l2-1h8l2-1h6v2h-4l-2 1h-8l-2 1h-5l-2 1h-3l-2 1h-4l-2 1h-3l-1 1h-4v1h-1l-2-1h3zM98 17l1-1 2 1v117h-3V17zm0 0v-1h1l-1 1zm52-5h-17l-2 1h-7l-2 1h-4l-2 1h-3l-2 1h-5l-1 1h-3l-1 1h-1l-1-2h1l1-1h4l1-1h3l2-1h3l2-1h6l2-1h4l2-1h11l2-1h6l1 1v2zm38 5l1 1h-2l-1-1h-3l-1-1h-4l-2-1h-4l-2-1h-4l-2-1h-5l-2-1h-7v-2h9l2 1h5l2 1h4l2 1h3l1 1h5l1 1h4v1h2v1h-2zm2-1v1-1z"/><path class="fil1" d="M15 11l-1 121s25-8 45-7c19 1 40 7 40 7V11S69 2 52 4c-18 1-37 7-37 7zM184 11l1 121s-25-8-45-7c-19 1-41 7-41 7V11s31-9 48-7c18 1 37 7 37 7z" stroke="#0098da" stroke-width="2.18"/><g id="_639773264"><rect transform="rotate(-17.619 266.464 9.158) scale(.278)" width="221" height="281" rx="17" ry="17" fill="#96989a"/><rect class="fil1" transform="matrix(.25282 -.0803 .0803 .25282 11.61 82.364)" width="221" height="281" rx="17" ry="17"/><path d="M17 82l46-14c2-1 4 0 5 3l6 18-54 17-5-18c-1-3 0-5 2-6z" fill="#2887d2"/><path fill="url(#id2)" d="M17 90l50-16 3 10-50 16z"/><rect class="fil6" transform="rotate(-17.619 367.822 -25.415) scale(.27013)" width="31.858" height="14.934" rx="5" ry="5"/><rect class="fil6" transform="rotate(-17.619 362.71 -58.386) scale(.27013)" width="31.858" height="14.934" rx="5" ry="5"/><rect class="fil6" transform="rotate(-17.619 357.602 -91.357) scale(.27013)" width="31.858" height="14.934" rx="5" ry="5"/><rect class="fil6" transform="rotate(-17.619 352.493 -124.327) scale(.27013)" width="31.858" height="14.934" rx="5" ry="5"/><rect class="fil6" transform="rotate(-17.619 347.063 -159.352) scale(.27013)" width="31.858" height="14.934" rx="5" ry="5"/><rect class="fil0" transform="rotate(-17.619 388.643 -28.643) scale(.27013)" width="32.855" height="25.885" rx="6" ry="6"/><rect class="fil0" transform="rotate(-17.619 383.603 -61.18) scale(.27013)" width="32.855" height="25.885" rx="6" ry="6"/><rect class="fil0" transform="rotate(-17.619 378.56 -93.717) scale(.27013)" width="32.855" height="25.885" rx="6" ry="6"/><rect class="fil6" transform="rotate(-17.619 373.516 -126.254) scale(.27013)" width="32.855" height="25.885" rx="6" ry="6"/><rect class="fil6" transform="rotate(-17.619 368.023 -161.711) scale(.27013)" width="32.855" height="25.885" rx="6" ry="6"/><rect class="fil0" transform="rotate(-17.619 416.41 -32.946) scale(.27013)" width="32.855" height="25.885" rx="6" ry="6"/><rect class="fil0" transform="rotate(-17.619 411.367 -65.483) scale(.27013)" width="32.855" height="25.885" rx="6" ry="6"/><rect class="fil0" transform="rotate(-17.619 406.323 -98.02) scale(.27013)" width="32.855" height="25.885" rx="6" ry="6"/><rect class="fil6" transform="rotate(-17.619 401.283 -130.557) scale(.27013)" width="32.855" height="25.885" rx="6" ry="6"/><rect class="fil6" transform="rotate(-17.619 395.787 -166.014) scale(.27013)" width="32.855" height="25.885" rx="6" ry="6"/><rect class="fil0" transform="rotate(-17.619 444.174 -37.249) scale(.27013)" width="32.855" height="25.885" rx="6" ry="6"/><rect class="fil0" transform="rotate(-17.619 439.13 -69.786) scale(.27013)" width="32.855" height="25.885" rx="6" ry="6"/><rect class="fil0" transform="rotate(-17.619 434.087 -102.323) scale(.27013)" width="32.855" height="25.885" rx="6" ry="6"/><path class="fil0" d="M62 123l6-2c1 0 2 1 2 1l4 13c0 1 0 1-1 2l-6 1c-1 1-1 0-2-1l-4-12c0-1 1-2 1-2z"/><rect class="fil6" transform="rotate(-17.619 423.55 -170.317) scale(.27013)" width="32.855" height="25.885" rx="6" ry="6"/><rect class="fil0" transform="rotate(-17.619 473.864 -41.85) scale(.27013)" width="32.855" height="25.885" rx="6" ry="6"/><rect class="fil0" transform="rotate(-17.619 468.824 -74.387) scale(.27013)" width="32.855" height="25.885" rx="6" ry="6"/><rect class="fil0" transform="rotate(-17.619 463.78 -106.925) scale(.27013)" width="32.855" height="25.885" rx="6" ry="6"/><rect class="fil6" transform="rotate(-17.619 453.244 -174.918) scale(.27013)" width="32.855" height="25.885" rx="6" ry="6"/><path class="fil7" d="M39 136l-1 1-1-4-1 1v-1l1-1h1zM42 143v2h-1c0 1-1 1-1 0l-1-1v-1-1s0-1 1-1h1c0 1 1 1 1 2zm-1 0v-1h-1c-1 0 0 1 0 1v2h2c0-1 0-1-1-1v-1zM49 133l-3 1 1-2v-1-1h-1v1h-1v-1h1c1-1 1-1 1 0h1v2l-1 1h2zM56 129v-1h1v-1h-1c-1 1-1 1 0 1h-1v-1h1c0-1 1-1 1 0h1c0 1 0 1-1 1 0 0 1 0 1 1v1s0 1-1 1h-1v-1h2v-1h-2zM36 127h1-1l1 1h-1v-1l-2 1 1-4 1 3zm-2 0h2l-1-2-1 2zM43 124v-2l2-1v1h-1v1h1c1 0 1 0 1 1v1l-1 1h-1v-1h2c0-1 0-1-1-1v-1h-1v1h-1zM54 118v1h-1v1h2l1 1v1h-1c-1 1-1 1-1 0-1 0-1 0-1-1v-2s0-1 1-1zm0 2v1h-1l1 1h1v-1-1h-1zM33 116v4h-1l1-4-2 1 2-1zM43 114v1h-1 1v2h-1-1v-1-1h-1v-1l1-1h1l1 1zm0 2l-1-1c0 1-1 1-1 1 0 1 1 1 1 1h1v-1zm-2-2v1h1v-1h-1zM52 112v1h-1-1v-1-1c0-1 0-1 1-1h1c0 1 0 1 1 1v2c-1 1-1 1-2 1 1 0 1 0 1-1v-1zm-1 0h1v-1h-1-1v1h1c0 1 0 1 0 0zM49 141v-1h1v1h-1zM60 137h-2l2-1v1zm1 1l-2 1-1-1 3-1v1zM68 130l1-1v1h-1v1l-1-1-1 1v-1h1v-2z"/><path transform="rotate(-17.619 285.333 -7.3) scale(.27013)" d="M0 0h47.788v8.96H0z"/></g><path d="M115 85c9-3 24-5 31-5s22 5 29 5v8c-7 0-20-3-27-4h-2c-7 0-23 3-31 4v-8z" fill="url(#id0)"/><g id="_638632864"><path d="M167 93s5-6 9-11c3-5 42-62 42-62l2-4-3-2-25 38-18 26-9 13-1 1s3 2 3 1z" fill="#484848"/><path d="M215 14s-5 6-9 10c-4 5-43 63-43 63l-2 4 3 2 26-38 18-26 8-13 2-1s-3-2-3-1z"/><path d="M156 104l2-2c1-1-2-1-2-1v3z" fill="#a9abae"/><path class="fil13" d="M167 93l-9 9-2-1 5-10 6 2zM215 14l5 2h1s0-1-1-1l-4-2c0-1-1 0-1 0v1z"/><path class="fil13" d="M221 16s1-2 1-3c0 0 0-2-2-2-2-1-2-1-3-1 0 1-2 3-2 3s5 3 6 3z"/><rect class="fil13" transform="matrix(-.3368 -.2274 .2274 -.3368 201.331 40.45)" width="6.97" height="60.731" rx="3" ry="3"/><path class="fil13" d="M189 50l7 4s1 0 1-1v-1l-7-4h-2c0 1 0 1 1 2z"/><path class="fil13" d="M190 48l7 4s1 0 1-1v-1l-7-4h-2c0 1 0 1 1 2z"/></g><path class="fil14" d="M80 32c0-1-1-1-1-2 0 0-1 0-2-1-1 0-1 0-2-1-1 0-1 0-2-1 0 0 0-1-1-1v-2c0-1 1-3 1-3 1-1 2-2 4-2v-2h2v2c1 0 2 1 3 2s1 2 1 3 0 1-1 1h-1c-1 0-1 0-1-1s-1-1-1-1c0-1-1-1-1-1h-2c0 1-1 1-1 2l1 1c0 1 1 1 2 1 1 1 2 1 2 2 1 0 1 0 2 1l1 1v2c0 1 0 2-1 3s-2 2-4 2v2h-1s-1 0-1-1h1v-1c-2 0-3-1-4-2s-2-2-2-3c1-1 1-1 2-1h1s1 0 1 1 0 1 1 1c0 1 1 1 1 1 1 0 2 0 2-1 0 0 1 0 1-1zM80 63l-1-1c0-1-1-1-2-1-1-1-1-1-2-1-1-1-1-1-2-1 0-1 0-1-1-2v-2c0-1 1-2 1-3 1-1 2-2 4-2v-2h2v2c1 1 2 1 3 2s1 2 1 3 0 2-1 2h-1c-1 0-1-1-1-1v-1l-1-1c0-1-1-1-1-1-1 0-2 0-2 1 0 0-1 0-1 1s1 1 1 2c0 0 1 0 2 1 1 0 2 0 2 1 1 0 1 0 2 1l1 1v2c0 1 0 3-1 3-1 1-2 2-4 2v2h-1-1v-1h1v-1c-2 0-3-1-4-2s-2-2-2-3c1-1 1-1 2-1h1s1 0 1 1 0 1 1 1c0 1 1 1 1 1h2c0-1 1-1 1-2z"/><path d="M23 24c9-3 14-3 22-3 7 0 15 3 22 3v9c-7-1-14-3-20-3h-2c-8 0-14 1-22 3v-9z" fill="url(#id3)"/><path d="M23 53c9-3 14-3 22-3 7 0 15 3 22 3v9c-7-1-14-3-20-4h-2c-8 0-14 2-22 4v-9z" fill="url(#id4)"/><path class="fil14" d="M169 40v-2c-1-1-2-1-3-2-2 0-3-1-4-1l-2-2c-1 0-1-1-2-2v-3c0-2 0-4 2-5 1-1 3-2 5-2v-4h3v4c2 0 4 1 5 2 1 2 2 3 2 5 0 1-1 2-2 2h-2c-1 0-2-1-2-1v-1-2c-1-1-2-1-3-1s-2 0-2 1c-1 0-1 1-1 2s0 2 1 2c0 1 1 1 3 2 1 0 2 1 3 1 1 1 2 2 3 2 0 1 1 2 1 2 1 1 1 2 1 3 0 2-1 4-2 5-2 2-3 2-6 3v3h-2v-3c-3-1-5-1-6-3-2-1-2-3-2-5 0-1 1-2 1-2h2c1 0 2 1 2 2s0 2 1 2c1 1 2 2 3 2s2-1 2-1c1-1 1-2 1-3z"/><path d="M115 24c9-3 10-3 18-3 7 0 9 2 17 2v9c-7-1-9-2-15-2h-2c-8 0-10 1-18 3v-9z" fill="url(#id1)"/><path d="M115 55c9-3 14-3 21-3 8 0 15 3 23 3v9c-7-1-14-3-21-3h-2c-7 0-13 1-21 3v-9z" fill="url(#id5)"/><path class="fil19" d="M0 0h225v157H0z"/></g><path class="fil19" d="M95 34c0-3 2-5 4-5 3 0 5 2 5 5M95 59c0-2 2-4 4-4 3 0 5 2 5 4M95 85c0-3 2-5 4-5 3 0 5 2 5 5M95 110c0-2 2-4 4-4 3 0 5 2 5 4" stroke="#00afef" stroke-width="3.982"/></g></svg>