<svg xmlns="http://www.w3.org/2000/svg" width="173" height="177" viewBox="0 0 171 175" shape-rendering="geometricPrecision" text-rendering="geometricPrecision" image-rendering="optimizeQuality" fill-rule="evenodd" clip-rule="evenodd"><defs><style>.str1{stroke:#373435;stroke-width:.889718}.fil4{fill:#f58634}.fil0{fill:#000}.fil2{fill:#484848;fill-rule:nonzero}</style></defs><g id="Layer_x0020_1"><g id="_808683872"><path class="fil0" d="M102 16v21h13V15c0-7-6-12-13-12H69c-6 0-12 5-12 12v22h13V16h32z"/><path fill="#ffef94" stroke="#f58634" stroke-width="1.977" d="M23 97h17v8H30l-20 27h153l-21-27h-9v-8h18l17-42H5z"/><path class="fil2" d="M38 106v1c1 1 3 2 4 2v37c-1 1-3 2-4 3v1c-5 5-5 12 0 17 2 1 3 2 5 3v-12-2c1-1 3-2 4-2s2 0 3 1c1 0 1 1 1 1 0 1 1 1 0 2v12c2-1 4-2 5-3 5-5 5-12 1-17l-1-1-3-3v-37c1 0 2-1 3-2l1-1c4-5 4-13-1-17-1-2-3-3-4-3v12s0 1-1 1c0 2-2 3-4 3-1 0-2-1-3-1v-2c-1 0-1-1-1-1V86c-2 0-3 1-5 3-4 4-5 12 0 17z"/><path d="M97 103s-3 0-3-2c0-3 1-11 9-14 7-2 20-1 20-1s0 3 1 3c1-1 1-3 3-3 1-1 6-1 6-1s1 10 1 11-2 1-4 2c-2 0-4 0-4-1s0-2-1-2c-1-1-2 0-2 0 0 1 0 1-1 2h-2v57h-12l2-57s-1 0-2-1-2-2-3-2c-1 1-4 1-6 3l-2 6z" fill="#484848"/><path class="fil2" d="M82 107l6-6-6-17h-6l-5 18 5 5v11h-5v43c0 5 4 9 9 9 4 0 8-4 8-9v-43h-6v-11z"/><path class="fil0" d="M10 132h153v29c0 7-5 12-12 12H22c-7 0-12-5-12-12v-29z"/><path class="fil4 str1" d="M32 136h11.054v11.054H32zM129 136h11.054v11.054H129z"/><path class="fil4" d="M5 26h163v29h-17v8c0 7-5 13-13 13h-8c-8 0-13-6-13-13v-8H55v8c0 7-5 13-13 13h-8c-8 0-13-6-13-13v-8H5V26z"/><path class="fil0 str1" d="M32 58h11.054v11.054H32zM129 58h11.054v11.054H129z"/><path fill="none" d="M0 0h171v175H0z"/></g></g></svg>