<svg width="28" height="28" fill="none" xmlns="http://www.w3.org/2000/svg"><path d="M25.2717.359375H.716553V24.9145H25.2717V.359375z" fill="#2887D2"/><path fill-rule="evenodd" clip-rule="evenodd" d="M3.00397 2.56641h5.34645v5.53937H3.00397V2.56641z" fill="#FEFEFE"/><path d="M8.35041 2.81421H3.00395V2.3457h5.34646l.19291.22048-.19291.24803zm0-.46851h.19291v.22048l-.19291-.22048zm-.22048 5.75985V2.56618h.41339v5.53937l-.19291.22047-.22048-.22047zm.41339 0v.22047h-.19291l.19291-.22047zm-5.53937-.22048h5.34646v.44095H3.00395l-.19291-.22047.19291-.22048zm0 .44095h-.19291v-.22047l.19291.22047zm.22047-5.75984v5.53937h-.41338V2.56618l.19291-.22048.22047.22048zm-.41338 0V2.3457h.19291l-.19291.22048z" fill="#FC4D44"/><path fill-rule="evenodd" clip-rule="evenodd" d="M10.4724 2.56641h5.3189v5.53937h-5.3189V2.56641z" fill="#FEFEFE"/><path d="M15.7914 2.81421h-5.3189V2.3457h5.3189l.2204.22048-.2204.24803zm0-.46851h.2204v.22048l-.2204-.22048zm-.193 5.75985V2.56618h.4134v5.53937l-.2204.22047-.193-.22047zm.4134 0v.22047h-.2204l.2204-.22047zm-5.5393-.22048h5.3189v.44095h-5.3189l-.2205-.22047.2205-.22048zm0 .44095h-.2205v-.22047l.2205.22047zm.2204-5.75984v5.53937h-.4409V2.56618l.2205-.22048.2204.22048zm-.4409 0V2.3457h.2205l-.2205.22048z" fill="#FC4D44"/><path fill-rule="evenodd" clip-rule="evenodd" d="M3.00397 10.1719h5.34645v5.5393H3.00397v-5.5393z" fill="#FEFEFE"/><path d="M8.35041 10.3921H3.00395v-.44093h5.34646l.19291.22043-.19291.2205zm0-.44093h.19291v.22043l-.19291-.22043zM8.12993 15.711v-5.5394h.41339v5.5394l-.19291.2205-.22048-.2205zm.41339 0v.2205h-.19291l.19291-.2205zm-5.53937-.2205h5.34646v.441H3.00395l-.19291-.2205.19291-.2205zm0 .441h-.19291v-.2205l.19291.2205zm.22047-5.7599v5.5394h-.41338v-5.5394l.19291-.22043.22047.22043zm-.41338 0v-.22043h.19291l-.19291.22043z" fill="#FC4D44"/><path fill-rule="evenodd" clip-rule="evenodd" d="M10.4724 10.1719h5.3189v5.5393h-5.3189v-5.5393z" fill="#FEFEFE"/><path d="M15.7914 10.3921h-5.3189v-.44093h5.3189l.2204.22043-.2204.2205zm0-.44093h.2204v.22043l-.2204-.22043zm-.193 5.75983v-5.5394h.4134v5.5394l-.2204.2205-.193-.2205zm.4134 0v.2205h-.2204l.2204-.2205zm-5.5393-.2205h5.3189v.441h-5.3189l-.2205-.2205.2205-.2205zm0 .441h-.2205v-.2205l.2205.2205zm.2204-5.7599v5.5394h-.4409v-5.5394l.2205-.22043.2204.22043zm-.4409 0v-.22043h.2205l-.2205.22043z" fill="#FC4D44"/><path fill-rule="evenodd" clip-rule="evenodd" d="M17.6378 2.56641h5.3189v5.53937h-5.3189V2.56641z" fill="#FEFEFE"/><path d="M22.9567 2.81421h-5.3189V2.3457h5.3189l.2205.22048-.2205.24803zm0-.46851h.2205v.22048l-.2205-.22048zm-.1929 5.75985V2.56618h.4134v5.53937l-.2205.22047-.1929-.22047zm.4134 0v.22047h-.2205l.2205-.22047zm-5.5394-.22048h5.3189v.44095h-5.3189l-.1929-.22047.1929-.22048zm0 .44095h-.1929v-.22047l.1929.22047zm.2205-5.75984v5.53937h-.4134V2.56618l.1929-.22048.2205.22048zm-.4134 0V2.3457h.1929l-.1929.22048z" fill="#FC4D44"/><path fill-rule="evenodd" clip-rule="evenodd" d="M17.6378 10.1719h5.3189v5.5393h-5.3189v-5.5393z" fill="#FEFEFE"/><path d="M22.9567 10.3921h-5.3189v-.44093h5.3189l.2205.22043-.2205.2205zm0-.44093h.2205v.22043l-.2205-.22043zm-.1929 5.75983v-5.5394h.4134v5.5394l-.2205.2205-.1929-.2205zm.4134 0v.2205h-.2205l.2205-.2205zm-5.5394-.2205h5.3189v.441h-5.3189l-.1929-.2205.1929-.2205zm0 .441h-.1929v-.2205l.1929.2205zm.2205-5.7599v5.5394h-.4134v-5.5394l.1929-.22043.2205.22043zm-.4134 0v-.22043h.1929l-.1929.22043z" fill="#FC4D44"/><path fill-rule="evenodd" clip-rule="evenodd" d="M3.00397 17.1445h5.34645v5.5394H3.00397v-5.5394z" fill="#FEFEFE"/><path d="M8.35041 17.3648H3.00395v-.441h5.34646l.19291.2205-.19291.2205zm0-.441h.19291v.2205l-.19291-.2205zm-.22048 5.7599v-5.5394h.41339v5.5394l-.19291.2204-.22048-.2204zm.41339 0v.2204h-.19291l.19291-.2204zm-5.53937-.2205h5.34646v.4409H3.00395l-.19291-.2204.19291-.2205zm0 .4409h-.19291v-.2204l.19291.2204zm.22047-5.7598v5.5394h-.41338v-5.5394l.19291-.2205.22047.2205zm-.41338 0v-.2205h.19291l-.19291.2205z" fill="#FC4D44"/><path fill-rule="evenodd" clip-rule="evenodd" d="M18.7953 17.9131c4.8504.1102 8.4882 4.8779 8.4882 4.8779s-3.6378 4.7402-8.4882 4.8504c-3.5827.0827-7.5787-2.2874-9.06694-4.8504 1.48824-2.563 5.48424-4.9331 9.06694-4.8779z" fill="#FEFEFE"/><path fill-rule="evenodd" clip-rule="evenodd" d="M18.7677 18.4893c4.2717.1103 7.4961 4.2993 7.4961 4.2993s-3.2244 4.1889-7.4961 4.2716c-3.1693.0827-6.6968-2.0118-8.0197-4.2716 1.3229-2.2599 4.8504-4.3544 8.0197-4.2993zm-.2756 1.5434c1.5433 0 2.7559 1.2401 2.7559 2.7559 0 1.5157-1.2126 2.7559-2.7559 2.7559-1.5157 0-2.7283-1.2402-2.7283-2.7559 0-1.5158 1.2126-2.7559 2.7283-2.7559z" fill="#F0A71F"/><path d="M18.4921 24.4716c.9285 0 1.6811-.7527 1.6811-1.6811 0-.9285-.7526-1.6811-1.6811-1.6811-.9284 0-1.6811.7526-1.6811 1.6811 0 .9284.7527 1.6811 1.6811 1.6811z" fill="#F0A71F"/></svg>