<svg xmlns="http://www.w3.org/2000/svg" width="44" height="49" shape-rendering="geometricPrecision" text-rendering="geometricPrecision" image-rendering="optimizeQuality" fill-rule="evenodd" clip-rule="evenodd"><defs><style>.fil2{fill:#fefefe}</style></defs><g id="Layer_x0020_1"><g id="_518715200"><path d="M40 3L9 0C8 0 8 0 8 1L4 45l32 4 1-1 2-22h2c1 0 1 0 1-1l2-17c0-1 0-1-1-1h-2V4s0-1-1-1z" fill="#2887d2"/><rect transform="matrix(.0602 .00508 -.0053 .05946 9.176 2.362)" width="511" height="705" rx="12" ry="12" fill="#c5c6c6"/><rect class="fil2" transform="matrix(.0604 .00178 -.00205 .05966 4.707 2.352)" width="511" height="705" rx="12" ry="12"/><rect transform="matrix(.05983 -.0034 .00307 .05913 -.038 3.115)" width="511" height="705" rx="12" ry="12" fill="#fab32f"/><path class="fil2" transform="matrix(.09514 -.00597 .00637 .08909 2.4 9.675)" d="M0 0h276.483v28.923H0z"/><path class="fil2" transform="matrix(.09514 -.00597 .00637 .08909 2.983 17.834)" d="M0 0h276.483v28.923H0z"/><path class="fil2" transform="matrix(.09514 -.00597 .00637 .08909 3.567 25.994)" d="M0 0h276.483v28.923H0z"/><path class="fil2" transform="matrix(.09514 -.00597 .00637 .08909 4.15 34.153)" d="M0 0h276.483v28.923H0z"/></g></g></svg>