<svg xmlns="http://www.w3.org/2000/svg" width="347" height="143" viewBox="0 0 359 148" shape-rendering="geometricPrecision" text-rendering="geometricPrecision" image-rendering="optimizeQuality" fill-rule="evenodd" clip-rule="evenodd"><defs><style>.fil4{fill:#fff212}.fil3{fill:#000}.fil0{fill:#99562c}.fil9{fill:#ad5f2f}.fil10{fill:#bf774a}.fil6,.fil7,.fil8{fill:#fefefe;fill-rule:nonzero}.fil6,.fil7{fill:#4e901e}.fil6{fill:#7ed63e}</style></defs><g id="Layer_x0020_1"><g id="_658569328"><rect class="fil0" x="42" y="22" width="297.114" height="30.298" rx="7" ry="11"/><path d="M199 22h-4s-92 1-117 1-28 3-28 10c-1 6-1 26-1 26s2-1 5-2 12-1 12-1h61s54 1 70-1c14 2 60 1 60 1h61s9 0 12 1 5 2 5 2-1-20-1-26c0-7-3-10-28-10s-107-1-107-1z" fill="#bf774a"/><rect x="68" y="18" width="79.168" height="47.501" rx="7" ry="7" fill="#4e8ac8"/><path class="fil3" d="M68 25h79.168v4.169H68z"/><path class="fil4" d="M73 40h4.679v5.201H73zM80 40h4.679v5.201H80zM86 40h4.679v5.201H86zM93 40h4.679v5.201H93zM99 40h4.679v5.201H99zM106 40h4.679v5.201H106z"/><rect x="55" y="26" width="79.168" height="47.501" rx="7" ry="7" fill="#00afef"/><path class="fil3" d="M55 33h79.168v4.169H55z"/><path class="fil4" d="M60 48h4.679v5.201H60zM66 48h4.679v5.201H66zM73 48h4.679v5.201H73zM79 48h4.679v5.201H79zM86 48h4.679v5.201H86zM92 48h4.679v5.201H92z"/><g><path class="fil6" d="M164 79h113V18H164z"/><path class="fil7" d="M272 35v27c-6 0-11 5-11 11h-81c0-6-5-11-10-11V35c5 0 10-5 10-11h81c0 6 5 11 11 11z"/><path class="fil8" d="M231 48c0 6-5 11-10 11-6 0-11-5-11-11 0-5 5-10 11-10 5 0 10 5 10 10z"/><path class="fil6" d="M164 41v38h39c-11 0-20-4-28-11-7-7-11-17-11-27z"/><path class="fil8" d="M244 51h10v-5h-10zM187 51h11v-5h-11z"/><g><path class="fil6" d="M156 86h113V25H156z"/><path class="fil7" d="M264 42v27c-6 0-11 5-11 11h-81c0-6-5-11-11-11V42c6 0 11-5 11-11h81c0 6 5 11 11 11z"/><path class="fil8" d="M223 55c0 6-5 11-11 11-5 0-10-5-10-11 0-5 5-10 10-10 6 0 11 5 11 10z"/><path class="fil6" d="M156 48v38h38c-10 0-20-4-27-11s-11-17-11-27z"/><path class="fil8" d="M236 58h10v-5h-10zM179 58h10v-5h-10z"/></g></g><g><path class="fil6" d="M216 83h113V22H216z"/><path class="fil7" d="M323 39v27c-6 0-11 5-11 11h-80c0-6-5-11-11-11V39c6 0 11-5 11-11h80c0 6 5 11 11 11z"/><path class="fil8" d="M282 53c0 5-4 10-10 10s-10-5-10-10c0-6 4-11 10-11s10 5 10 11z"/><path class="fil6" d="M216 45v38h38c-10 0-20-4-27-11s-11-17-11-27z"/><path class="fil8" d="M295 55h11v-5h-11zM239 55h10v-5h-10z"/><g><path class="fil6" d="M207 90h114V29H207z"/><path class="fil7" d="M315 46v27c-6 0-11 5-11 11h-80c0-6-5-11-11-11V46c6 0 11-5 11-11h80c0 6 5 11 11 11z"/><path class="fil8" d="M274 59c0 6-4 11-10 11s-10-5-10-11c0-5 4-10 10-10s10 5 10 10z"/><path class="fil6" d="M207 52v38h39c-10 0-20-4-27-11-8-7-12-17-12-27z"/><path class="fil8" d="M287 62h10v-5h-10zM231 62h10v-5h-10z"/></g></g><path class="fil0" d="M53 49h137c7 0 13 6 13 13v67c0 6-6 12-13 12H53c-7 0-11-6-11-13V39c2 5 3 10 11 10z"/><path class="fil0" d="M25 77s-7 0-13 6-4 18-1 21c2 4 6 7 13 9 6 1 28 0 33 0V77c-9 1-32 0-32 0zm4 10c5 0 8 4 8 9 0 4-3 7-8 7-4 0-7-3-7-8s3-8 7-8z"/><path class="fil9" d="M49 54s-1 70 0 70 0 7 8 7h119s7 1 8-6V62s1-6-7-6H55c-1-1-5-4-6-2z"/><g><path class="fil6" d="M195 72l113-8-5-61-112 8z"/><path class="fil7" d="M299 20l2 27c-6 1-10 6-10 12l-80 5c-1-6-6-10-12-10l-2-26c6-1 11-6 10-12l81-6c0 6 5 11 11 10z"/><path class="fil8" d="M259 37c1 5-4 10-9 11-6 0-11-4-11-10-1-6 4-10 9-11 6 0 11 4 11 10z"/><path class="fil6" d="M192 34l3 38 38-3c-10 1-20-2-28-9-7-7-12-16-13-26z"/><path class="fil8" d="M272 38h11l-1-5h-10zM216 42h10v-6l-10 1z"/><g><path class="fil6" d="M187 80l113-8-4-62-113 8z"/><path class="fil7" d="M291 28l2 27c-6 0-10 5-10 11l-80 6c-1-6-6-11-12-10l-1-27c5 0 10-5 10-11l80-6c0 6 6 10 11 10z"/><path class="fil6" d="M184 41l3 39 39-3c-11 1-21-3-28-9-8-7-13-17-14-27z"/><path class="fil8" d="M265 46l10-1v-5l-11 1zM208 50l11-1-1-5-10 1z"/></g></g><rect class="fil10" x="61" y="70" width="110.271" height="52.416" rx="4" ry="4"/><path d="M249 49c0-1 0-1-1-2 0-1-1-1-3-1-1-1-2-1-3-2-1 0-2-1-3-1-1-1-1-2-2-2 0-1-1-2-1-4s1-3 2-5c1-1 3-2 5-3v-3s0-1 1-1h1l1 1v3c2 0 4 1 6 3 1 1 2 2 2 5 0 1-1 2-2 2h-2c-1 0-2-1-2-2s0-2-1-2c0-1-1-1-2-1s-2 0-3 1v2c0 1 0 2 1 2 0 1 1 1 3 2 1 0 3 1 4 1 1 1 2 1 2 2l2 2c0 1 1 2 1 3 0 2-1 4-2 5-1 2-3 3-5 3v3s0 1-1 1h-1c-1 0-1 0-1-1v-3c-3 0-5-1-6-2-2-1-3-3-3-5 0-1 1-2 2-2h2c1 0 1 0 2 1 0 2 0 2 1 3s2 1 3 1 2-1 2-1c1-1 1-2 1-3z" fill="#fff212" fill-rule="nonzero"/><path class="fil0" d="M331 49H191c-7 0-12 6-12 13v67c0 6 5 12 12 12h140c6 0 8-6 8-12V59l-1-20c-2 6 0 10-7 10z"/><path class="fil9" d="M333 54s1 70 0 70 0 7-8 7H206s-7 1-8-6V62s-1-6 6-6h123c1-1 5-4 6-2z"/><rect class="fil10" x="210" y="70" width="110.271" height="52.416" rx="4" ry="4"/><path fill="none" d="M0 0h359v148H0z"/></g></g></svg>