<svg xmlns="http://www.w3.org/2000/svg" width="304" height="204" viewBox="0 0 256 172" shape-rendering="geometricPrecision" text-rendering="geometricPrecision" image-rendering="optimizeQuality" fill-rule="evenodd" clip-rule="evenodd"><defs><style>.str1,.str2{stroke:#373435;stroke-width:.757896}.str2{stroke:#db9570}.fil3{fill:#fefefe}.fil8{fill:#727376}.fil4{fill:#373435}.fil9{fill:#fff212}.fil5{fill:#f58634}.fil2{fill:#000}.fil1{fill:#f9c9a9}</style></defs><g id="Layer_x0020_1"><g id="_595411456"><path fill="#eda57f" d="M113 36v3h7l-1-4z"/><path class="fil1" d="M104 33s3 4 6 4c4 0 11-1 13-3 1-2 0-3 1-4 0-1 3-2 2-4-1-3-1-8-3-12-1-3-3-4-5-5-2 0-10 2-13 4-2 2-3 3-3 5-1 2-1 7-1 8 1 1 2 3 2 5 1 1 1 2 1 2z" stroke="#eda57f" stroke-width=".758"/><path class="fil2 str1" d="M103 31s-4-1-3-11c1-11 10-16 15-15 2 0 4 1 7 2 2 1 4 3 4 5 1 4 3 7 2 10 0 3-2 8-3 9-2 2-1 0-1-2 0 0 2-2 2-3s0-2-2-2c-1 0-4-2-5-6s-1-7-1-7-6 4-10 5c-4 2-5 1-6 2 0 1 0 9 1 13z"/><path class="fil2" d="M124 33c-1 0 0 7 0 7s3 8 2 12c0 3-1 4-1 4s2-2 3-6c1-5 0 5 0 5s2-4 2-6-1 6-1 6 5-8 4-11c0-3-3-14-3-18 0-5 0-10-2-13-1-3-4-5-6-6-3-1 1 7 1 7s4 9 4 11c0 1-3 6-3 8z"/><path class="fil3 str1" d="M108 6s4-4 8-4c3 0 6 1 8 4s3 6 3 6-5-5-7-6c-3-1-7-1-12 0z"/><path class="fil1 str2" d="M106 121s3 26 3 28c0 1 2 10 2 10h7l-5-38h-7zM126 122s0 4 1 6c1 3 6 12 6 12l8 16h9l-13-24s-3-5-4-6v-4h-7z"/><path class="fil3 str1" d="M105 46l-5 23 6 1 4-23-5-1z"/><path class="fil1 str2" d="M99 72l-5 18s-1 2 0 3c0 2 1 4 1 4 0 1 0 3 1 3 1 1 2 0 2-2-1-1-2-3-1-5l5-10c1-2 2-6 2-7v-3l-5-1z"/><path class="fil3 str1" d="M98 67l-1 5 4 1c3 1 4 1 4 1s2-4 2-5l-5-1-4-1z"/><path class="fil2 str1" d="M102 119l38 2s2-16 1-25-6-17-9-22-3-14-3-14l1-11s-1-8-2-9c-1 0-17 3-19 3s-5 2-4 4c0 2 1 3 1 5 0 1-2 4 0 6 2 3 4 3 4 3l2 8 2 6s-10 8-11 23c-1 6-1 10-1 13v8z"/><path class="fil3" d="M111 40v4l10-2v-3h-2c-3 0-6 0-8 1z" stroke="#a9abae" stroke-width=".758"/><path class="fil3 str1" d="M101 120s-1 2 0 2 37 2 37 2 1 0 2-1v-2l-38-2s-1 0-1 1z"/><path class="fil3" d="M117 110c5-2 9-5 9-11 1-7-1-24-1-25 1-1-9-2-11 1-3 3-11 12-12 26s-1 14 0 14l15-5z"/><path class="fil4" d="M50 161h25s2 0 2-1c0 0-1 0-1-1v-2c0-1-1-1-1-2l1-2-3-2s-2 4-3 5h-5c-2 0-7 1-8 1h-3c-1 1-2 2-3 2-1 1-2 0-1 2z"/><path class="fil5" d="M56 158h9s1-1 1-2h-1c-1 0-10 0-9 2zM73 146l-1 4s-1 1 2 2c2 1 3 2 4 1 0 0 2-3 2-4 0 0 0-1-2-2s-4-2-5-1z"/><path class="fil4" d="M74 147l4 2 27-65-3-1z"/><path class="fil5" d="M102 77s-1 4-2 5l5 3c1 0 3-4 3-5 0 0-2-1-3-2-2-1-3-1-3-1z"/><path d="M103 78s5-7 13-10c7-4 19-7 30-4 10 4 19 12 21 16 3 4 5 10 6 18 0 7-1 16 2 22 2 6 4 13 13 17s11 4 13 4h2v4s-2 1-10-2-14-7-19-15c-10-16 0-30-11-46-5-7-12-13-21-15s-17 0-26 5c-8 4-8 8-8 8l-5-2z" fill="#2d2e2e"/><path class="fil5" d="M202 140v7h5v-7z"/><path d="M207 135h41v18s-41-1-41 0v-18z" fill="#ffcc29"/><rect class="fil8" x="205" y="152" width="45.166" height="13.727" rx="3" ry="3"/><path class="fil8" d="M207 122s1-10 11-12c10-3 16-2 20 0 3 2 7 4 8 8l2 4 2 1v10s0 1-2 2c-2 0-38-1-38 0 0 0-4 0-5-3-1-2 0-9 0-9s0-1 2-1z"/><circle class="fil9" cx="210" cy="129" r="2"/><circle class="fil9" cx="216" cy="129" r="2"/><path class="fil9" d="M222 126h24.054v1.771H222zM222 129h24.054v1.771H222z"/><circle class="fil2" cx="208" cy="165" r="5"/><circle class="fil2" cx="246" cy="163" r="8"/><ellipse class="fil9" cx="227" cy="112" rx="10" ry="2"/><circle cx="246" cy="163" r="5" fill="#484848"/><g><path class="fil3 str1" d="M129 49l12 6s1 2 3 2c1 0 7 1 7 1s3-4-2-6c-4-2-20-11-20-11s-1-1-2 0l2 8z"/><path class="fil3 str1" d="M145 52l-3 4 5 4s1 1 2 0c0 0 2-1 2-2s-2-3-2-3l-4-3z"/><path class="fil1 str2" d="M128 64l11-6 3-2 5 4s-11 6-12 7-2 1-3 2c0 0-1 4-3 5-1 0-3-1-4-2-2-1-3-1-4-3 0-1 1-4 2-6 2-1 3 0 5 1z"/></g><path class="fil2 str1" d="M98 164s1-4 3-4c1 0 3 1 4 0 1 0 5-1 7-1h7v5H98z"/><path class="fil3 str1" d="M97 165h1c0 1 21 0 21 0h1s0-1-1-1H98s-1 0-1 1z"/><path class="fil2 str1" d="M131 164s-2-2 1-3c2-2 8-4 8-4s0-1 4-1c3 0 5-1 5-1s1 0 2 1v4s-5 1-7 2c-3 0-13 3-13 2z"/><path class="fil3 str1" d="M130 165h1c2 0 12-2 12-2s7-1 8-2c1 0 1 0 1-1l-5 1c-1 0-16 3-16 3s-1 0-1 1z"/><path class="fil1 str2" d="M99 93s2-1 3-1 2 2 2 2 0 2-1 3c-1 0-3 1-3 1s-1 0-2-1-1-1-1-2l2-2z"/><circle class="fil3" cx="116" cy="46" r="1"/><circle class="fil3" cx="117" cy="49" r="1"/><circle class="fil3" cx="117" cy="52" r="1"/><path fill="none" d="M0 0h256v172H0z"/></g></g></svg>