<svg xmlns="http://www.w3.org/2000/svg" width="226" height="158" viewBox="0 0 225 157" shape-rendering="geometricPrecision" text-rendering="geometricPrecision" image-rendering="optimizeQuality" fill-rule="evenodd" clip-rule="evenodd"><defs><linearGradient id="id0" gradientUnits="userSpaceOnUse" x1="59.926" y1="74.606" x2="24.134" y2="88.032"><stop offset="0" stop-color="#91d8f7"/><stop offset=".702" stop-color="#77cfe4"/><stop offset="1" stop-color="#5cc6d0"/></linearGradient><linearGradient id="id1" gradientUnits="userSpaceOnUse" x1="104.77" y1="107.946" x2="196.846" y2="35.398"><stop offset="0" stop-color="#1d7cc4"/><stop offset=".729" stop-color="#0f95d9"/><stop offset="1" stop-color="#00afef"/></linearGradient><style>.fil14{fill:#ffcc29}.fil7{fill:#5cc6d0}.fil0{fill:#00afef}.fil8{fill:#2887d2}.fil9{fill:#fefefe;fill-rule:nonzero}</style></defs><g id="Layer_x0020_1"><g id="_684187600"><rect class="fil0" x="107" y="2" width="98.223" height="138.408" rx="6" ry="6"/><rect x="102" y="2" width="98.223" height="138.408" rx="6" ry="6" fill="url(#id1)"/><rect class="fil0" x="89" y="27" width="30.573" height="9.655" rx="4" ry="4"/><rect class="fil0" x="89" y="53" width="30.573" height="9.655" rx="4" ry="4"/><rect class="fil0" x="89" y="79" width="30.573" height="9.655" rx="4" ry="4"/><rect class="fil0" x="89" y="106" width="30.573" height="9.655" rx="4" ry="4"/><path d="M158 85c0-2 0-4-1-5-2-1-3-2-6-3s-5-2-7-3-3-3-5-4c-1-1-2-3-3-4-1-2-1-4-1-6 0-5 1-8 4-11 2-2 6-4 10-4v-6c0-1 1-2 2-2h2c1 0 2 1 2 2v6c4 1 8 2 10 5s4 6 4 10v1c0 1-2 3-4 3h-3c-2 0-4-1-4-3v-1c0-2 0-3-2-5-1-1-2-2-4-2s-4 1-5 2-2 3-2 5c0 1 1 3 2 4s3 2 6 3c3 2 5 3 7 4s3 2 5 3c1 1 2 3 3 5 0 1 1 3 1 5 0 5-2 8-4 10-3 3-6 5-11 5v5c0 1-1 2-2 2h-2c-1 0-2-1-2-2v-5c-5 0-8-2-11-5s-4-6-4-11c0-2 2-3 3-3h4c2 0 3 1 3 3v1c0 2 1 3 2 4 2 2 4 3 6 3s4-1 5-2c2-1 2-3 2-4z" fill="#fff212" fill-rule="nonzero"/><rect transform="rotate(.844 -4371.63 898.89) scale(.26718)" width="221" height="281" rx="17" ry="17" fill="#96989a"/><rect transform="rotate(.834 -4487.175 987.484) scale(.25494)" width="221" height="281" rx="17" ry="17" fill="#fefefe"/><path d="M20 69l45 1c3 0 4 2 4 4v19l-54-1V73c0-2 2-4 5-4z" fill="#2887d2"/><path fill="url(#id0)" d="M17 76h50v11l-50-1z"/><rect class="fil7" transform="rotate(.885 -6445.285 1253.787) scale(.25962)" width="31.858" height="14.934" rx="5" ry="5"/><rect class="fil7" transform="rotate(.885 -6449.886 1909.23) scale(.25962)" width="31.858" height="14.934" rx="5" ry="5"/><rect class="fil7" transform="rotate(.885 -6454.487 2564.674) scale(.25962)" width="31.858" height="14.934" rx="5" ry="5"/><rect class="fil7" transform="rotate(.885 -6459.087 3220.11) scale(.25962)" width="31.858" height="14.934" rx="5" ry="5"/><rect class="fil7" transform="rotate(.885 -6463.97 3916.385) scale(.25962)" width="31.858" height="14.934" rx="5" ry="5"/><rect class="fil8" transform="rotate(.885 -6859.229 1250.88) scale(.25962)" width="32.855" height="25.885" rx="6" ry="6"/><rect class="fil8" transform="rotate(.885 -6863.818 1897.707) scale(.25962)" width="32.855" height="25.885" rx="6" ry="6"/><rect class="fil8" transform="rotate(.885 -6868.34 2544.534) scale(.25962)" width="32.855" height="25.885" rx="6" ry="6"/><rect class="fil7" transform="rotate(.885 -6872.863 3191.354) scale(.25962)" width="32.855" height="25.885" rx="6" ry="6"/><rect class="fil7" transform="rotate(.885 -6877.79 3896.225) scale(.25962)" width="32.855" height="25.885" rx="6" ry="6"/><rect class="fil8" transform="rotate(.885 -7411.238 1247.01) scale(.25962)" width="32.855" height="25.885" rx="6" ry="6"/><rect class="fil8" transform="rotate(.885 -7415.76 1893.836) scale(.25962)" width="32.855" height="25.885" rx="6" ry="6"/><rect class="fil8" transform="rotate(.885 -7420.283 2540.657) scale(.25962)" width="32.855" height="25.885" rx="6" ry="6"/><rect class="fil7" transform="rotate(.885 -7424.805 3187.484) scale(.25962)" width="32.855" height="25.885" rx="6" ry="6"/><rect class="fil7" transform="rotate(.885 -7429.8 3892.348) scale(.25962)" width="32.855" height="25.885" rx="6" ry="6"/><rect class="fil8" transform="rotate(.885 -7963.18 1243.139) scale(.25962)" width="32.855" height="25.885" rx="6" ry="6"/><rect class="fil8" transform="rotate(.885 -7967.703 1889.96) scale(.25962)" width="32.855" height="25.885" rx="6" ry="6"/><rect class="fil8" transform="rotate(.885 -7972.225 2536.786) scale(.25962)" width="32.855" height="25.885" rx="6" ry="6"/><path class="fil8" d="M48 120h6c1 0 1 1 1 2v12c0 1-1 2-1 2l-6-1c-1 0-1 0-1-1v-13s0-1 1-1z"/><rect class="fil7" transform="rotate(.885 -7981.742 3888.478) scale(.25962)" width="32.855" height="25.885" rx="6" ry="6"/><rect class="fil8" transform="rotate(.885 -8553.432 1238.993) scale(.25962)" width="32.855" height="25.885" rx="6" ry="6"/><rect class="fil8" transform="rotate(.885 -8557.954 1885.82) scale(.25962)" width="32.855" height="25.885" rx="6" ry="6"/><rect class="fil8" transform="rotate(.885 -8562.477 2532.647) scale(.25962)" width="32.855" height="25.885" rx="6" ry="6"/><rect class="fil7" transform="rotate(.885 -8571.993 3884.332) scale(.25962)" width="32.855" height="25.885" rx="6" ry="6"/><path class="fil9" d="M23 125h-1v-4l-1 1v-1h2zM23 132v1c0 1 0 1-1 1 0 0-1 0-1-1v-2-1h2v2zm0-1v-1h-1l-1 1v1c0 1 0 1 1 1h1v-2zM33 125h-3l2-2v-1-1c-1 0-1 0-1 1h-1l1-1h1c1 0 1 1 1 1s0 1-1 2l-1 1h2zM41 123h1v-1h-1-1v-1h2v4h-1-1v-1s0 1 1 1h1v-1c0-1-1-1-1-1zM23 115h1v1h-1v1-1h-2v-1l2-2v2zm-2 0h2v-2l-2 2zM31 115v-2h2-2v1h1s1 0 1 1v2h-2c0-1 0-1-1-1h3c0-1-1-1-1-1h-1zM42 113s-1 0-1 1v1c0-1 0-1 1-1v1c1 0 1 0 1 1l-1 1h-1-1v-2c0-1 0-1 1-2h1zm-1 2v2c1 0 1 0 1-1v-1h-1zM24 105l-2 3 1-3h-2v-1h3zM33 106h-1l1 1v1l-1 1c-1 0-1 0-1-1 0 0-1 0-1-1h1v-1-1s0-1 1-1c0 0 0 1 1 1v1zm0 1h-1-1v1h1s1 0 1-1zm-1-2h-1v1h1v-1zM42 107h-1-1v-1-1h2c1 0 1 1 1 1 0 1 0 2-1 2 0 1-1 1-1 1v-1h1v-1zm-1 0h1v-1-1h-1v2zM31 132h0zM42 132h-2v-1h2v1zm0 1h-2v-1h2v1zM51 127h1v1h-1v1-1h-1v-1h1v-1z"/><path transform="rotate(.885 -4788.688 1161.91) scale(.25962)" d="M0 0h47.788v8.96H0z"/><g><path d="M217 114s1-7 1-13V24h-4l1 44-1 30 1 15-1 2s3 0 3-1z" fill="#484848"/><path d="M212 25s-1 8-1 13v77h4V24l-3 1z"/><path d="M214 129s1-1 1-3c0-1-2 0-2 0l1 3z" fill="#a9abae"/><path class="fil14" d="M217 114l-2 12h-2l-2-11 6-1zM213 25l4-1h1c0-1 0-1-1-1l-5 1c0 1 0 1 1 1z"/><path class="fil14" d="M218 23v-2c-1 0-1-2-3-1-2 0-2 0-3 1v3s5 0 6-1z"/><rect class="fil14" transform="rotate(179.515 107.84 27.262) scale(.39057)" width="6.97" height="60.731" rx="3" ry="3"/><path class="fil14" d="M211 68l8-1v-1s0-1-1-1l-7 1c-1 0-1 0-1 1 0 0 0 1 1 1z"/><path class="fil14" d="M211 66l8-1v-1s0-1-1-1l-7 1c-1 0-1 0-1 1 0 0 0 1 1 1z"/></g><path fill="none" d="M0 0h225v157H0z"/></g></g></svg>