<svg xmlns="http://www.w3.org/2000/svg" width="278" height="175" viewBox="0 0 316 199" xmlns:xlink="http://www.w3.org/1999/xlink" shape-rendering="geometricPrecision" text-rendering="geometricPrecision" image-rendering="optimizeQuality" fill-rule="evenodd" clip-rule="evenodd"><defs><linearGradient id="id1" gradientUnits="userSpaceOnUse" x1="294.185" y1="25.381" x2="263.323" y2="35.528"><stop offset="0" stop-color="#91d8f7"/><stop offset=".702" stop-color="#77cfe4"/><stop offset="1" stop-color="#5cc6d0"/></linearGradient><linearGradient id="id2" gradientUnits="userSpaceOnUse" x1="295.658" y1="117.749" x2="269.188" y2="90.114"><stop offset="0" stop-color="#04870f"/><stop offset="1" stop-color="#03690c"/></linearGradient><linearGradient id="id3" gradientUnits="userSpaceOnUse" xlink:href="#id2" x1="293.197" y1="116.094" x2="266.727" y2="88.459"/><linearGradient id="id4" gradientUnits="userSpaceOnUse" xlink:href="#id2" x1="297.677" y1="120.45" x2="271.207" y2="92.815"/><linearGradient id="id5" gradientUnits="userSpaceOnUse" xlink:href="#id2" x1="269.246" y1="113.27" x2="257.558" y2="101.076"/><linearGradient id="id6" gradientUnits="userSpaceOnUse" xlink:href="#id2" x1="273.727" y1="117.628" x2="262.039" y2="105.431"/><linearGradient id="id7" gradientUnits="userSpaceOnUse" xlink:href="#id2" x1="271.708" y1="114.926" x2="260.019" y2="102.731"/><clipPath id="id0"><path d="M190 26v-1c0-1 1-9 1-9v-2c-1 0-2-1-2-3-1-1 0-2 0-3 1 0 3-1 4-2 2 0 3 1 4 2s2 2 1 3c0 1-1 2-2 3 0 1 1 9 1 9s1 1 1 2v2s-1-1-1-2c-1-1-1-4-2-5v-5-2l2-2c0-1 0-2-1-2 0-1-1-1-2-1-1-1-2 0-3 0-1 1-1 2-1 2s0 1 1 2c0 1 1 2 1 2 1 1 0 6 0 7 0 2-1 4-1 5s0 1-1 1v-1z"/></clipPath><style>.fil1,.fil14{fill:#fefefe}.fil0{fill:#d2d3d5}.fil10{fill:#bdbfc1}.fil195{fill:#727376}.fil188{fill:#ffcc29}.fil15{fill:#fcfcfd}.fil18{fill:#fbfafb}.fil19{fill:#f9fafb}.fil24{fill:#f7f6f8}.fil25{fill:#f5f5f7}.fil27{fill:#f4f4f6}.fil28{fill:#f3f3f6}.fil30{fill:#f2f2f5}.fil32{fill:#f1f1f4}.fil33{fill:#f0f0f3}.fil35{fill:#efeef2}.fil37{fill:#eeedf1}.fil38{fill:#ededf1}.fil41{fill:#ececf0}.fil43{fill:#ebebef}.fil46{fill:#eaeaee}.fil47{fill:#e9e9ed}.fil49{fill:#e8e7ed}.fil51{fill:#e7e6ec}.fil52{fill:#e6e6ec}.fil54{fill:#e5e5eb}.fil56{fill:#e4e4ea}.fil58{fill:#e3e3e9}.fil60{fill:#e2e2e8}.fil61{fill:#e1e1e8}.fil63{fill:#e0e0e8}.fil64{fill:#dfdfe6}.fil65{fill:#dedee6}.fil69{fill:#dcdde5}.fil71{fill:#dbdce4}.fil74{fill:#dadbe3}.fil75{fill:#d9d9e3}.fil77{fill:#d8d8e2}.fil78{fill:#d8d8e1}.fil80{fill:#d7d7e1}.fil82{fill:#d6d6e0}.fil84{fill:#d5d5df}.fil86{fill:#d4d4df}.fil88{fill:#d3d3de}.fil89{fill:#d2d3de}.fil90{fill:#d2d2dd}.fil91{fill:#d1d2dd}.fil93{fill:#d0d1dc}.fil95{fill:#cfd0dc}.fil97{fill:#cecfdb}.fil99{fill:#ceceda}.fil101{fill:#cdcdda}.fil102{fill:#cccdd9}.fil104{fill:#cbccd9}.fil105{fill:#cacbd8}.fil108{fill:#c9cad7}.fil110{fill:#c8c9d7}.fil114{fill:#c6c7d6}.fil115{fill:#c6c6d5}.fil116{fill:#c5c5d4}.fil118{fill:#c4c4d4}.fil119{fill:#c3c4d4}.fil121{fill:#c2c3d2}.fil123{fill:#c1c2d2}.fil125{fill:#c0c1d1}.fil127{fill:#c0c0d0}.fil128{fill:#bfc0d0}.fil130{fill:#bebfcf}.fil132{fill:#bdbecf}.fil133{fill:#bcbdcf}.fil136{fill:#bbbccd}.fil138{fill:#babccd}.fil141{fill:#babbcc}.fil142{fill:#b9bacc}.fil144{fill:#b8b9cc}.fil145{fill:#b8b9ca}.fil146{fill:#b7b8ca}.fil147{fill:#b6b8ca}.fil148{fill:#b5b7ca}.fil149{fill:#b5b7c9}.fil150,.fil151{fill:#b4b6c9}.fil152{fill:#b3b5c9}.fil153{fill:#b4b5c8}.fil154{fill:#b3b5c7}.fil155{fill:#b2b4c7}.fil156,.fil157{fill:#b1b3c7}.fil158{fill:#b1b3c6}.fil159{fill:#b0b3c6}.fil160{fill:#b0b2c6}.fil161{fill:#afb2c6}.fil162,.fil163,.fil164{fill:#afb1c5}.fil165{fill:#aeb0c4}.fil171,.fil172{fill:#5cc6d0}.fil167{fill:#51a8b1}.fil13{fill:#000}.fil176{fill:#2887d2}.fil189{fill:#ebb435}.fil168{fill:#fefefe;fill-rule:nonzero}.fil182,.fil183,.fil190,.fil191{fill:#fff212;fill-rule:nonzero}.fil191{fill:#e4684a}.fil178,.fil2,.fil4{fill:#000;fill-rule:nonzero}.fil2,.fil4{fill:#07ad89}.fil2{fill:#1996b0}.fil180,.fil7,.fil9{fill:#38393b;fill-rule:nonzero}.fil180,.fil9{fill:#4e901e}.fil9{fill:#5b6975}.fil3,.fil5,.fil6{fill:#b1b4ba;fill-rule:nonzero}.fil3,.fil5{fill:#eb5244}.fil3{fill:#fcb030}</style></defs><g id="Layer_x0020_1"><g id="_559936024"><path class="fil0" transform="translate(28.932 16.274) scale(.09886)" d="M0 0h1265v832H0z"/><path class="fil1" stroke="#96989a" stroke-width=".011171180000000001" d="M32.07 12.349l125.06-.32.211 82.252-125.06.32z"/><path class="fil2" d="M74 22v28l23-14c-5-8-13-14-23-14z"/><path class="fil3" d="M74 50v27c15 0 27-12 27-27 0-5-1-10-4-14L74 50z"/><path class="fil4" d="M74 23c-16 0-28 12-28 27 0 11 6 20 15 25l13-26V23z"/><path class="fil5" d="M74 49L61 74c4 2 8 3 13 3V49z"/><path class="fil6" d="M73 21c-16 0-29 13-29 29s13 30 30 30c16 0 29-14 29-30S90 21 73 21zm1 60c-17 0-31-14-31-31s13-31 30-31 31 14 31 31-13 31-30 31z"/><path class="fil7" d="M55 48v-1h1-1v-3l-2 3h2v1zm-2-1l1-2h1v2h-2zm5 2c1 0 1-1 1-2 0 0 0-1-1-1 1 0 1-1 1-1 0-1 0-1-1-1s-2 0-2 1l1 1-1 1c0 1 1 2 2 2zm0-1c-1 0-1 0-1-1 0 0 0-1 1-1l1 1c0 1-1 1-1 1zm0-4v2c-1 0-1-1-1-1s0-1 1-1zm3 0c-1 0-1 0-1 1s0 2 1 2c0 0 1-1 1-2s-1-1-1-1zm0 0v2c-1 0-1 0-1-1 0 0 0-1 1-1zm0 5l3-5h-1l-2 5zm3-3c-1 0-1 0-1 1s0 1 1 1c0 0 1 0 1-1s-1-1-1-1zm0 0v2c-1 0-1 0-1-1 0 0 0-1 1-1zM79 58c0 1 0 1 1 1s1-1 1-2c0 0 0-1-1-1 1 0 1 0 1-1 0 0 0-1-1-1h-1v1h2c0 1-1 1-1 1h-1 1l1 1c0 1 0 1-1 1h-1zm5-4c-1 0-2 1-2 2 0 2 1 3 2 3s1-1 1-3c0-1 0-2-1-2zm0 1s1 0 1 1-1 2-1 2c-1 0-1 0-1-2 0-1 0-1 1-1zm3-1c-1 0-1 1-1 1 0 1 0 2 1 2 0 0 1-1 1-2l-1-1zm0 0v2c-1 0-1 0-1-1 0 0 0-1 1-1zm0 5l3-5h-1l-2 5zm3-3c-1 0-1 0-1 1s0 2 1 2c0 0 1-1 1-2s-1-1-1-1zm0 0v2c-1 0-1 0-1-1 0 0 0-1 1-1zM76 36h1v-5h-1l-1 1h1v4zm5-5h-2v2c1 0 2 1 2 1 0 1-1 1-1 1h-1v1h1c1 0 1-1 1-2v-1h-1-1l1-1h1v-1zm2 0c-1 0-1 1-1 2s1 1 1 1c1 0 1 0 1-1s0-2-1-2zm0 1s1 0 1 1l-1 1-1-1c0-1 1-1 1-1zm0 4l3-5-3 5zm3-3c-1 0-1 1-1 2 0 0 0 1 1 1s1-1 1-2c0 0 0-1-1-1zm0 0l1 1c0 1-1 2-1 2l-1-1c0-1 1-2 1-2zM66 70h-2v2c1 0 2 1 2 1 0 1-1 1-1 1h-1c0 1 0 1 1 1s1-1 1-2v-1h-1-1l1-1h1v-1zm2 0s-1 1-1 2l1 1c1 0 1-1 1-2 0 0 0-1-1-1zm0 0c1 0 1 1 1 1 0 1 0 1-1 1v-1-1zm0 5l3-5-3 5zm3-3c-1 0-1 0-1 1s0 2 1 2 1-1 1-2 0-1-1-1zm0 0l1 1c0 1-1 1-1 1s-1 0-1-1l1-1z"/><path class="fil0" transform="matrix(.0682 .00012 -.00013 .0621 56.038 86.027)" d="M0 0h1196v1151H0z"/><path class="fil1" d="M59 83l82 1v71H59z"/><path id="1" d="M141 84H59v-1h82v1zm0-1v1-1zm-1 72V84h1v72l-1-1zm1 0v1-1zm-82-1l82 1v1l-82-1v-1zm0 1zm1-72v72h-1V83h1zm-1 0z" fill="#96989a" fill-rule="nonzero"/><path class="fil9" d="M78 124V90h36-36v35h36v-1zM78 119h36-36zM78 119zM78 113h36-36zM78 113zM78 107h36-36zM78 107z"/><path class="fil9" d="M78 102h36v-1H78zM78 102v-1z"/><path class="fil4" d="M81 124h6v-17h-6z"/><path class="fil5" d="M89 124h6V96h-6z"/><path class="fil2" d="M97 124h6v-22h-6z"/><path class="fil3" d="M105 124h7v-11h-7z"/><path class="fil9" d="M114 96v28H78v1h36V96H78zM114 124V90z"/><path class="fil7" d="M81 106h1v-3h-1v3zm3-3h-1v2h1c0 1 0 1-1 1 1 0 1 0 1-1v-1h-1 1v-1zm1 0v2c1 0 1 0 1-1 0 0 0-1-1-1zm0 1h1s0 1-1 1v-1zm1 2l1-3-2 3h1zm1-2l-1 1c0 1 1 1 1 1s1 0 1-1l-1-1zm0 1v0zM99 101v-1h-2 1c0-1 1-1 1-1 0-1-1-1-1-1h-1 1v1l-1 1v1h2zm1-3c-1 0-1 0-1 1s0 2 1 2c0 0 1-1 1-2s-1-1-1-1zm0 0v2s-1 0-1-1 1-1 1-1zm2 0c-1 0-1 0-1 1h1v-1zm0 0v1h-1c0-1 0-1 1-1zm0 3l1-3-1 3zm1-2v2c1 0 1-1 1-1 0-1 0-1-1-1zm0 0c1 0 1 0 1 1h-1v-1zM90 95v-1h-1c1 0 1-1 1-1 0-1 0-1-1-1 1 0 1 1 1 1s0 1-1 1v1h1zm2-3h-1v1c1 0 1 1 1 1h-1v1c1 0 1-1 1-1v-1h-1v-1h1zm1 0v2c1 0 1-1 1-1 0-1 0-1-1-1zm0 0c1 0 1 0 1 1h-1v-1zm0 3l2-3-2 3zm2-2s-1 0-1 1l1 1 1-1c0-1-1-1-1-1zm0 0v0zM105 112h1v-3h-1v3zm3-3c-1 0-1 1-1 2v1c1 0 1 0 1-1v-2zm0 1v2c-1 0-1-1-1-1 0-1 0-1 1-1zm1-1v2c1 0 1 0 1-1 0 0 0-1-1-1zm0 1h1s0 1-1 1v-1zm0 2l2-3-2 3zm2-2l-1 1c0 1 1 1 1 1s1 0 1-1l-1-1zm0 1v0z"/><path class="fil6" d="M65 131l-1 4h70v-4zM64 139v3h70v-3zM64 146v4h70v-4z"/><path class="fil10" transform="matrix(.1197 -.0003 .00025 .09886 113.899 25.656)" d="M0 0h305.344v54.689H0z"/><path class="fil10" transform="matrix(.1197 -.0003 .00025 .09886 113.933 38.666)" d="M0 0h305.344v54.689H0z"/><path class="fil10" transform="matrix(.1197 -.0003 .00025 .09886 113.966 51.675)" d="M0 0h305.344v54.689H0z"/><path class="fil10" transform="matrix(.1197 -.0003 .00025 .09886 113.999 64.685)" d="M0 0h305.344v54.689H0z"/><path class="fil10" transform="matrix(.1197 -.0003 .00025 .09886 114.033 77.695)" d="M0 0h305.344v54.689H0z"/><g><rect transform="matrix(.19897 -.00015 -.00035 .20314 138.497 19.422)" width="556" height="659" rx="25" ry="25" fill="#ba9d72"/><rect transform="matrix(.18988 -.00015 -.00033 .19386 141.018 22.475)" width="556" height="659" rx="25" ry="25" fill="#947d5b"/><path class="fil1" transform="matrix(.18251 -.00014 -.00032 .18634 143.062 24.95)" d="M0 0h556v659H0z"/><path class="fil13" d="M185 18l18-1v10h-5v-1c-1 0-1 1-1 1h-6l-1-1v2h-5V18z"/><g clip-path="url(#id0)"><path class="fil14" d="M193 17h1z"/><path id="1" class="fil14" d="M194 17zm-1 0h1-1z"/><path id="2" class="fil15" d="M193 17h1-1zm0 0h1-1z"/><path id="3" class="fil15" d="M193 17h1-1zm0 0h1-1z"/><path id="4" d="M193 17h1-1zm0 0h1-1z" fill="#fcfcfc"/><path id="5" d="M193 17h1-1zm0 0v-1l1 1h-1z" fill="#fbfcfc"/><path id="6" class="fil18" d="M193 17h1-1zm0 0v-1l1 1h-1z"/><path id="7" class="fil18" d="M193 17v-1l1 1h-1zm0 0v-1l1 1h-1z"/><path id="8" class="fil19" d="M193 17v-1l1 1h-1zm0 0v-1h1v1h-1z"/><path id="9" class="fil19" d="M193 17v-1h1v1h-1zm0 0v-1h1v1h-1z"/><path id="10" d="M193 17v-1h1v1h-1zm0 0v-1h1v1h-1z" fill="#f9f9fa"/><path id="11" d="M193 17v-1h1v1h-1zm0 0v-1h1v1h-1z" fill="#f8f8fa"/><path id="12" d="M193 17v-1h1v1h-1zm0 0v-1h1v1h-1z" fill="#f8f8f9"/><path id="13" d="M193 17v-1h1v1h-1zm0 0v-1h1v1h-1z" fill="#f8f7f8"/><path id="14" class="fil24" d="M193 17v-1h1v1h-1zm0 0v-1h1v2l-1-1z"/><path id="15" class="fil24" d="M193 17v-1h1v1h-1zm0 0v-1h1v2l-1-1z"/><path id="16" class="fil24" d="M193 17v-1h1v2l-1-1zm0 0v-1h1v2l-1-1z"/><path id="17" class="fil25" d="M193 17v-1h1v2l-1-1zm0 0v-1h1v2l-1-1z"/><path id="18" class="fil25" d="M193 17v-1h1v2l-1-1zm0 0v-1h1v2l-1-1z"/><path id="19" class="fil25" d="M193 17v-1h1v2l-1-1zm0 0v-1h1v2l-1-1z"/><path id="20" d="M193 17v-1h1v2l-1-1zm0 1v-2h1v2h-1z" fill="#f4f5f6"/><path id="21" class="fil27" d="M193 18v-2h1v2h-1zm0 0v-2h1v2h-1z"/><path id="22" class="fil27" d="M193 18v-2h1v2h-1zm0 0v-2h1v2h-1z"/><path id="23" class="fil28" d="M193 18v-2h1v2h-1zm0 0v-2h1v2h-1z"/><path id="24" class="fil28" d="M193 18v-2h1v2h-1zm0 0v-2h1v2h-1z"/><path id="25" d="M193 18v-2h1v2h-1zm0 0v-2h1v2h-1z" fill="#f3f2f5"/><path id="26" class="fil30" d="M193 18v-2h1v2h-1zm0 0v-2h1v2h-1z"/><path id="27" class="fil30" d="M193 18v-2h1v2h-1zm0 0v-3l1 1v2h-1z"/><path id="28" d="M193 18v-2h1v2h-1zm0 0v-3l1 1v2h-1z" fill="#f2f1f4"/><path id="29" class="fil32" d="M193 18v-3l1 1v2h-1zm0 0v-3l1 1v2h-1z"/><path id="30" class="fil32" d="M193 18v-3l1 1v2h-1zm0 0v-3l1 1v2h-1z"/><path id="31" class="fil32" d="M193 18v-3l1 1v2h-1zm0 0v-3l1 1v2h-1z"/><path id="32" class="fil33" d="M193 18v-3l1 1v2h-1zm0 0v-3l1 1v2h-1z"/><path id="33" class="fil33" d="M193 18v-3l1 1v2h-1zm0 0v-3l1 1v2h-1z"/><path id="34" class="fil33" d="M193 18v-3l1 1v2h-1zm0 0v-3l1 1v2h-1z"/><path id="35" d="M193 18v-3l1 1v2h-1zm0 0v-3l1 1v2h-1z" fill="#efeff3"/><path id="36" class="fil35" d="M193 18v-3l1 1v2h-1zm0 0v-3l1 1v3l-1-1z"/><path id="37" class="fil35" d="M193 18v-3l1 1v2h-1zm0 0v-3h1v4l-1-1z"/><path id="38" d="M193 18v-3l1 1v3l-1-1zm0 0v-3h1v4l-1-1z" fill="#eeeef2"/><path id="39" class="fil37" d="M193 18v-3h1v4l-1-1zm0 0v-3h1v4l-1-1z"/><path id="40" class="fil37" d="M193 18v-3h1v4l-1-1zm0 0v-3h2l-1 4-1-1z"/><path id="41" class="fil38" d="M193 18v-3h1v4l-1-1zm0 0v-3h2l-1 4-1-1z"/><path id="42" class="fil38" d="M193 18v-3h2l-1 4-1-1zm-1 0l1-3h2l-1 4-2-1z"/><path id="43" d="M193 18v-3h2l-1 4-1-1zm-1 0l1-3h2l-1 4-2-1z" fill="#edecf1"/><path id="44" d="M192 18l1-3h2l-1 4-2-1zm0 0l1-3h2l-1 4-2-1z" fill="#edecf0"/><path id="45" class="fil41" d="M192 18l1-3h2l-1 4-2-1zm0 0l1-3h2l-1 4-2-1z"/><path id="46" class="fil41" d="M192 18l1-3h2l-1 4-2-1zm0 0l1-3h2l-1 4-2-1z"/><path id="47" d="M192 18l1-3h2l-1 4-2-1zm0 0l1-3h2l-1 4-2-1z" fill="#ecebef"/><path id="48" class="fil43" d="M192 18l1-3h2l-1 4-2-1zm0 0l1-3h2l-1 4-2-1z"/><path id="49" class="fil43" d="M192 18l1-3h2l-1 4-2-1zm0 1l1-5 2 1-1 4h-2z"/><path id="50" d="M192 18l1-3h2l-1 4-2-1zm0 1l1-5 2 1-1 4h-2z" fill="#ebeaef"/><path id="51" d="M192 19l1-5 2 1-1 4h-2zm0 0l1-5 2 1-1 4h-2z" fill="#eaeaef"/><path id="52" class="fil46" d="M192 19l1-5 2 1-1 4h-2zm0 0l1-5 2 1-1 4h-2z"/><path id="53" class="fil46" d="M192 19l1-5 2 1-1 4h-2zm0 0l1-5 2 1-1 4h-2z"/><path id="54" class="fil47" d="M192 19l1-5 2 1-1 4h-2zm0 0l1-5 2 1-1 4h-2z"/><path id="55" class="fil47" d="M192 19l1-5 2 1-1 4h-2zm0 0l1-5 2 1-1 4h-2z"/><path id="56" class="fil47" d="M192 19l1-5 2 1-1 4h-2zm0 0l1-5 2 1-1 4h-2z"/><path id="57" d="M192 19l1-5 2 1-1 4h-2zm0 0l1-5 2 1-1 4h-2z" fill="#e8e8ed"/><path id="58" class="fil49" d="M192 19l1-5 2 1-1 4h-2zm0 0l1-5 2 1-1 5-2-1z"/><path id="59" class="fil49" d="M192 19l1-5 2 1-1 4h-2zm0 0l1-5 2 1-1 5-2-1z"/><path id="60" d="M192 19l1-5 2 1-1 5-2-1zm0 0l1-5 2 1-1 5-2-1z" fill="#e7e7ec"/><path id="61" class="fil51" d="M192 19l1-5 2 1-1 5-2-1zm0 0l1-5 2 1v5l-3-1z"/><path id="62" class="fil51" d="M192 19l1-5 2 1v5l-3-1zm0 0l1-5 2 1v5l-3-1z"/><path id="63" class="fil52" d="M192 19l1-5 2 1v5l-3-1zm0 0l1-5 2 1v5l-3-1z"/><path id="64" class="fil52" d="M192 19l1-5 2 1v5l-3-1zm0 0v-5l3 1v5l-3-1z"/><path id="65" d="M192 19l1-5 2 1v5l-3-1zm0 0v-5l3 1v5l-3-1z" fill="#e6e5eb"/><path id="66" class="fil54" d="M192 19v-5l3 1v5l-3-1zm0 0v-5l3 1v5l-3-1z"/><path id="67" class="fil54" d="M192 19v-5l3 1v5l-3-1zm0 0v-5h3v6l-3-1z"/><path id="68" d="M192 19v-5h3v6l-3-1zm0 0v-5h3v6l-3-1z" fill="#e5e5ea"/><path id="69" class="fil56" d="M192 19v-5h3v6l-3-1zm0 0v-5h3v6l-3-1z"/><path id="70" class="fil56" d="M192 19v-5h3v6l-3-1zm0 0v-5h3v6l-3-1z"/><path id="71" class="fil56" d="M192 19v-5h3v6l-3-1zm0 0v-6l3 1v6l-3-1z"/><path id="72" d="M192 19v-6l3 1v6l-3-1zm0 0v-6l3 1v6l-3-1z" fill="#e3e3ea"/><path id="73" class="fil58" d="M192 19v-6l3 1v6l-3-1zm0 0v-6l3 1v6l-3-1z"/><path id="74" class="fil58" d="M192 19v-6l3 1v6l-3-1zm0 0v-6l3 1v6l-3-1z"/><path id="75" d="M192 19v-6l3 1v6l-3-1zm0 0v-6l3 1v6l-3-1z" fill="#e2e2e9"/><path id="76" class="fil60" d="M192 19v-6l3 1v6l-3-1zm0 0v-6l3 1v6l-3-1z"/><path id="77" class="fil60" d="M192 19v-6l3 1v6l-3-1zm0 0v-6l3 1v6l-3-1z"/><path id="78" class="fil61" d="M192 19v-6l3 1v6l-3-1zm0 0v-6l3 1v6l-3-1z"/><path id="79" class="fil61" d="M192 19v-6l3 1v6l-3-1zm0 1v-7l3 1v6h-3z"/><path id="80" d="M192 20v-7l3 1v6h-3zm0 0v-7l3 1v7l-3-1z" fill="#e1e1e8"/><path id="81" class="fil63" d="M192 20v-7l3 1v7l-3-1zm0 0v-7l3 1v7l-3-1z"/><path id="82" class="fil63" d="M192 20v-7l3 1v7l-3-1zm0 0v-7l4 1-1 7-3-1z"/><path id="83" class="fil63" d="M192 20v-7l3 1v7l-3-1zm0 0v-7l4 1-1 7-3-1z"/><path id="84" class="fil64" d="M192 20v-7l4 1-1 7-3-1zm0 0v-7l4 1-1 7-3-1z"/><path id="85" class="fil64" d="M192 20v-7l4 1-1 7-3-1zm-1 0l1-7 4 1-1 7-4-1z"/><path id="86" class="fil64" d="M191 20l1-7 4 1-1 7-4-1zm0 0l1-7 4 1-1 7-4-1z"/><path id="87" class="fil65" d="M191 20l1-7 4 1-1 7-4-1zm0 0l1-7 4 1-1 7-4-1z"/><path id="88" class="fil65" d="M191 20l1-7 4 1-1 7-4-1zm0 0l1-7 4 1-1 7-4-1z"/><path id="89" class="fil65" d="M191 20l1-7 4 1-1 7-4-1zm0 0l1-7 4 1-1 7-4-1z"/><path id="90" d="M191 20l1-7 4 1-1 7-4-1zm0 0l1-7 4 1-1 7-4-1z" fill="#dddee6"/><path id="91" d="M191 20l1-7 4 1-1 7-4-1zm0 0l1-7 4 1-1 7-4-1z" fill="#dddde5"/><path id="92" d="M191 20l1-7 4 1-1 7-4-1zm0 0l1-7 4 1-1 7-4-1z" fill="#dddde5"/><path id="93" class="fil69" d="M191 20l1-7 4 1-1 7-4-1zm0 0l1-8 4 2-1 7-4-1z"/><path id="94" class="fil69" d="M191 20l1-8 4 2-1 7-4-1zm0 0l1-8 4 2-1 7-4-1z"/><path id="95" d="M191 20l1-8 4 2-1 7-4-1zm0 0l1-8 4 2-1 7-4-1z" fill="#dcdce4"/><path id="96" class="fil71" d="M191 20l1-8 4 2-1 7-4-1zm0 0l1-8 4 1-1 8-4-1z"/><path id="97" class="fil71" d="M191 20l1-8 4 2-1 7-4-1zm0 0l1-8 4 1-1 8-4-1z"/><path id="98" d="M191 20l1-8 4 1-1 8-4-1zm0 0l1-8 4 1-1 8-4-1z" fill="#dbdbe4"/><path id="99" d="M191 20l1-8 4 1-1 8-4-1zm0 0l1-8 4 1-1 8-4-1z" fill="#dadbe4"/><path id="100" class="fil74" d="M191 20l1-8 4 1-1 8-4-1zm0 0l1-8 4 1-1 8-4-1z"/><path id="101" class="fil74" d="M191 20l1-8 4 1-1 8-4-1zm0 0l1-8 4 1-1 8-4-1z"/><path id="102" class="fil75" d="M191 20l1-8 4 1-1 8-4-1zm0 0l1-8 4 1-1 9-4-2z"/><path id="103" class="fil75" d="M191 20l1-8 4 1-1 9-4-2zm0 0l1-8 4 1-1 9-4-2z"/><path id="104" class="fil75" d="M191 20l1-8 4 1-1 9-4-2zm0 0l1-8 4 1-1 9-4-2z"/><path id="105" d="M191 20l1-8 4 1-1 9-4-2zm0 0l1-8 4 1-1 9-4-2z" fill="#d9d9e2"/><path id="106" class="fil77" d="M191 20l1-8 4 1-1 9-4-2zm0 0l1-8 4 1-1 9-4-2z"/><path id="107" class="fil77" d="M191 20l1-8 4 1-1 9-4-2zm0 0l1-8 4 1-1 9-4-2z"/><path id="108" class="fil78" d="M191 20l1-8 4 1-1 9-4-2zm0 1l1-9 4 1-1 9-4-1z"/><path id="109" class="fil78" d="M191 20l1-8 4 1-1 9-4-2zm0 1l1-9 4 1-1 9-4-1z"/><path id="110" d="M191 21l1-9 4 1-1 9-4-1zm0 0l1-9 4 1-1 9-4-1z" fill="#d8d7e1"/><path id="111" class="fil80" d="M191 21l1-9 4 1-1 9-4-1zm0 0l1-9 4 1-1 9-4-1z"/><path id="112" class="fil80" d="M191 21l1-9 4 1-1 9-4-1zm0 0l1-9 4 1-1 9-4-1z"/><path id="113" d="M191 21l1-9 4 1-1 9-4-1zm0 0l1-9 4 1-1 9-4-1z" fill="#d7d6e0"/><path id="114" class="fil82" d="M191 21l1-9 4 1-1 9-4-1zm0 0l1-10 4 2-1 9-4-1z"/><path id="115" class="fil82" d="M191 21l1-9 4 1-1 9-4-1zm0 0l1-10 4 2-1 9-4-1z"/><path id="116" d="M191 21l1-10 4 2-1 9-4-1zm0 0l1-10 4 2-1 9-4-1z" fill="#d6d6e0"/><path id="117" class="fil84" d="M191 21l1-10 4 2-1 9-4-1zm0 0l1-10 4 2-1 9-4-1z"/><path id="118" class="fil84" d="M191 21l1-10 4 2-1 9-4-1zm0 0l1-10 4 2-1 9-4-1z"/><path id="119" class="fil84" d="M191 21l1-10 4 2-1 9-4-1zm0 0l1-10 4 2-1 9-4-1z"/><path id="120" d="M191 21l1-10 4 2-1 9-4-1zm0 0l1-10 4 2-1 9-4-1z" fill="#d4d5df"/><path id="121" class="fil86" d="M191 21l1-10 4 2-1 9-4-1zm0 0l1-10 4 2-1 9-4-1z"/><path id="122" class="fil86" d="M191 21l1-10 4 2-1 9-4-1zm0 0l1-10 4 2-1 9-4-1z"/><path id="123" d="M191 21l1-10 4 2-1 9-4-1zm0 0l1-10 4 2-1 9-4-1z" fill="#d3d4df"/><path id="124" class="fil88" d="M191 21l1-10 4 2-1 9-4-1zm0 0l1-10 4 2v10l-5-2z"/><path id="125" class="fil88" d="M191 21l1-10 4 2-1 10-4-2zm0 0l1-10 5 2-1 10-5-2z"/><path id="126" class="fil89" d="M191 21l1-10 5 2-1 10-5-2zm0 0l1-10 5 1-1 11-5-2z"/><path id="127" class="fil89" d="M191 21l1-10 5 1-1 11-5-2zm-1 0l1-10 6 1-1 11-6-2z"/><path id="128" class="fil90" d="M190 21l2-10 5 1-1 11-6-2zm0 0l1-10 6 1-1 11-6-2z"/><path id="129" class="fil90" d="M190 21l1-10 6 1-1 11-6-2zm0 0l1-10 6 1-1 11-6-2z"/><path id="130" class="fil91" d="M190 21l1-10 6 1-1 11-6-2zm0 0l1-10 6 1-1 11-6-2z"/><path id="131" class="fil91" d="M190 21l1-10 6 1-1 11-6-2zm0 0l1-10 6 1-1 11-6-2z"/><path id="132" d="M190 21l1-10 6 1-1 11-6-2zm0 0l1-10 6 1-1 11-6-2z" fill="#d1d1dc"/><path id="133" class="fil93" d="M190 21l1-10 6 1-1 11-6-2zm0 0l1-10 6 1-1 11-6-2z"/><path id="134" class="fil93" d="M190 21l1-10 6 1-1 11-6-2zm0 0l1-10 6 1-1 11-6-2z"/><path id="135" d="M190 21l1-10 6 1-1 11-6-2zm0 0l1-10 6 1-1 11-6-2z" fill="#d0d0dc"/><path id="136" class="fil95" d="M190 21l1-10 6 1-1 11-6-2zm0 0l1-11 6 2-1 11-6-2z"/><path id="137" class="fil95" d="M190 21l1-10 6 1-1 11-6-2zm0 0l1-11 6 2-1 11-6-2z"/><path id="138" class="fil95" d="M190 21l1-11 6 2-1 11-6-2zm0 1l1-12 6 2-1 11-6-1z"/><path id="139" d="M190 22l1-12 6 2-1 11-6-1zm0 0l1-12 6 2-1 11-6-1z" fill="#cecfdb"/><path id="140" class="fil97" d="M190 22l1-12 6 2-1 11-6-1zm0 0l1-12 6 2-1 11-6-1z"/><path id="141" class="fil97" d="M190 22l1-12 6 2-1 11-6-1zm0 0l1-12 6 2-1 11-6-1z"/><path id="142" d="M190 22l1-12 6 2-1 11-6-1zm0 0l1-12 6 2-1 11-6-1z" fill="#cecfdb"/><path id="143" class="fil99" d="M190 22l1-12 6 2-1 11-6-1zm0 0l1-12 6 2-1 11-6-1z"/><path id="144" class="fil99" d="M190 22l1-12 6 2-1 11-6-1zm0 0l1-12 6 2-1 11-6-1z"/><path id="145" d="M190 22l1-12 6 2-1 11-6-1zm0 0l1-12 6 2-1 12-6-2z" fill="#cdceda"/><path id="146" class="fil101" d="M190 22l1-12 6 2-1 11-6-1zm0 0l1-12 6 2-1 12-6-2z"/><path id="147" class="fil101" d="M190 22l1-12 6 2-1 12-6-2zm0 0l1-12 6 2-1 12-6-2z"/><path id="148" class="fil102" d="M190 22l1-12 6 2-1 12-6-2zm0 0l1-12 6 2-1 12-6-2z"/><path id="149" class="fil102" d="M190 22l1-12 6 2-1 12-6-2zm0 0l1-12 6 2-1 12-6-2z"/><path id="150" d="M190 22l1-12 6 2-1 12-6-2zm0 0l1-12 6 2-1 12-6-2z" fill="#ccccd9"/><path id="151" class="fil104" d="M190 22l1-12 6 2-1 12-6-2zm0 0l1-12 6 2-1 12-6-2z"/><path id="152" class="fil104" d="M190 22l1-12 6 2-1 12-6-2zm0 0l1-12 6 2-1 12-6-2z"/><path id="153" class="fil104" d="M190 22l1-12 6 2-1 12-6-2zm0 0l1-12 6 2-1 12-6-2z"/><path id="154" class="fil105" d="M190 22l1-12 6 2-1 12-6-2zm0 0l1-12 6 2-1 12-6-2z"/><path id="155" class="fil105" d="M190 22l1-12 6 2-1 12-6-2zm0 0l1-12 6 1-1 13-6-2z"/><path id="156" d="M190 22l1-12 6 2-1 12-6-2zm0 0l1-12 6 1-1 13-6-2z" fill="#cacbd8"/><path id="157" d="M190 22l1-12 6 1-1 13-6-2zm0 0l1-12 6 1-1 13-6-2z" fill="#c9cad7"/><path id="158" class="fil108" d="M190 22l1-12 6 1-1 13-6-2zm0 0l1-13 6 2-1 13-6-2z"/><path id="159" class="fil108" d="M190 22l1-12 6 1-1 13-6-2zm0 0l1-13 6 2-1 13-6-2z"/><path id="160" d="M190 22l1-13 6 2-1 13-6-2zm0 0l1-13 6 2-1 13-6-2z" fill="#c8c9d7"/><path id="161" class="fil110" d="M190 22l1-13 6 2-1 13-6-2zm0 0l1-13 6 2-1 13-6-2z"/><path id="162" class="fil110" d="M190 22l1-13 6 2-1 13-6-2zm0 0l1-13 6 2-1 13-6-2z"/><path id="163" d="M190 22l1-13 6 2-1 13-6-2zm0 0l1-13 6 2-1 13-6-2z" fill="#c7c8d7"/><path id="164" d="M190 22l1-13 6 2-1 13-6-2zm0 0l1-13 6 2-1 13-6-2z" fill="#c7c8d6"/><path id="165" d="M190 22l1-13 6 2-1 13-6-2zm0 0l1-13 6 2-1 13-6-2z" fill="#c7c8d6"/><path id="166" class="fil114" d="M190 22l1-13 6 2-1 13-6-2zm0 0l1-13 6 2-1 13-6-2z"/><path id="167" class="fil114" d="M190 22l1-13 6 2-1 13-6-2zm0 0l1-13 7 2-2 14-6-3z"/><path id="168" class="fil114" d="M190 22l1-13 7 2-2 13-6-2zm0 1l1-14 7 2-2 14-6-2z"/><path id="169" class="fil115" d="M190 23l1-14 7 2-2 14-6-2zm-1 0l2-14 7 2-2 14-7-2z"/><path id="170" class="fil115" d="M190 23l1-14 7 2-2 14-6-2zm-1 0l2-14 7 2-2 14-7-2z"/><path id="171" class="fil115" d="M189 23l2-14 7 2-2 14-7-2zm0 0l2-14 7 2-2 14-7-2z"/><path id="172" class="fil116" d="M189 23l2-14 7 2-2 14-7-2zm0 0l2-14 7 2-2 14-7-2z"/><path id="173" class="fil116" d="M189 23l2-14 7 2-2 14-7-2zm0 0l2-14 7 2-2 14-7-2z"/><path id="174" class="fil116" d="M189 23l2-14 7 2-2 14-7-2zm0 0l2-14 7 2-2 14-7-2z"/><path id="175" d="M189 23l2-14 7 2-2 14-7-2zm0 0l2-14 7 2-2 14-7-2z" fill="#c4c5d4"/><path id="176" class="fil118" d="M189 23l2-14 7 2-2 14-7-2zm0 0l2-14 7 2-2 14-7-2z"/><path id="177" class="fil118" d="M189 23l2-14 7 2-2 14-7-2zm0 0l2-14 7 2-2 14-7-2z"/><path id="178" class="fil119" d="M189 23l2-14 7 2-2 14-7-2zm0 0l2-14 7 2-2 14-7-2z"/><path id="179" class="fil119" d="M189 23l2-14 7 2-2 14-7-2zm0 0l2-14 7 2-2 14-7-2z"/><path id="180" d="M189 23l2-14 7 2-2 14-7-2zm0 0l2-15 7 3-2 14-7-2z" fill="#c3c4d2"/><path id="181" class="fil121" d="M189 23l2-15 7 3-2 14-7-2zm0 0l2-15 7 3-2 14-7-2z"/><path id="182" class="fil121" d="M189 23l2-15 7 3-2 14-7-2zm0 0l2-15 7 3-2 14-7-2z"/><path id="183" d="M189 23l2-15 7 3-2 14-7-2zm0 0l2-15 7 3-2 14-7-2z" fill="#c2c3d2"/><path id="184" class="fil123" d="M189 23l2-15 7 3-2 14-7-2zm0 0l2-15 7 3-2 14-7-2z"/><path id="185" class="fil123" d="M189 23l2-15 7 3-2 14-7-2zm0 0l2-15 7 2-2 15-7-2z"/><path id="186" class="fil123" d="M189 23l2-15 7 2-2 15-7-2zm0 0l2-15 7 2-2 15-7-2z"/><path id="187" d="M189 23l2-15 7 2-2 15-7-2zm0 0l2-15 7 2-2 15-7-2z" fill="#c0c1d2"/><path id="188" class="fil125" d="M189 23l2-15 7 2-2 15-7-2zm0 0l2-15 7 2-1 15-8-2z"/><path id="189" class="fil125" d="M189 23l2-15 7 2-1 15-8-2zm0 0l2-15 7 2-1 16-8-3z"/><path id="190" d="M189 23l2-15 7 2-1 15-8-2zm0 0l2-15 7 2-1 16-8-3z" fill="#c0c1d1"/><path id="191" class="fil127" d="M189 23l2-15 7 2-1 16-8-3zm0 0l1-15 8 2-1 16-8-3z"/><path id="192" class="fil127" d="M189 23l1-15 8 2-1 16-8-3zm0 0l1-15 8 2-1 16-8-3z"/><path id="193" class="fil128" d="M189 23l1-15 8 2-1 16-8-3zm0 0l1-15 8 2-1 16-8-3z"/><path id="194" class="fil128" d="M189 23l1-15 8 2-1 16-8-3zm0 0l1-15 8 2-1 16-8-3z"/><path id="195" d="M189 23l1-15 8 2-1 16-8-3zm0 0l1-15 8 2-1 16-8-3z" fill="#bfc0d0"/><path id="196" class="fil130" d="M189 23l1-15 8 2-1 16-8-3zm0 0l1-15 8 2-1 16-8-3z"/><path id="197" class="fil130" d="M189 23l1-15 8 2-1 16-8-3zm0 1l1-16 8 2-1 16-8-2z"/><path id="198" d="M189 23l1-15 8 2-1 16-8-3zm0 1l1-16 8 2-1 16-8-2z" fill="#bebfcf"/><path id="199" class="fil132" d="M189 24l1-16 8 2-1 16-8-2zm0 0l1-16 8 2-1 16-8-2z"/><path id="200" class="fil132" d="M189 24l1-16 8 2-1 16-8-2zm0 0l1-16 8 2-1 16-8-2z"/><path id="201" class="fil132" d="M189 24l1-16 8 2-1 16-8-2zm0 0l1-16 8 2-1 16-8-2z"/><path id="202" class="fil133" d="M189 24l1-16 8 2-1 16-8-2zm0 0l1-17 8 3-1 16-8-2z"/><path id="203" class="fil133" d="M189 24l1-17 8 3-1 16-8-2zm0 0l1-17 8 3-1 16-8-2z"/><path id="204" d="M189 24l1-17 8 3-1 16-8-2zm0 0l1-17 8 3-1 16-8-2z" fill="#bcbdce"/><path id="205" d="M189 24l1-17 8 3-1 16-8-2zm0 0l1-17 8 3-1 16-8-2z" fill="#bbbdce"/><path id="206" class="fil136" d="M189 24l1-17 8 3-1 16-8-2zm0 0l1-17 8 3-1 16-8-2z"/><path id="207" class="fil136" d="M189 24l1-17 8 3-1 16-8-2zm0 0l1-17 8 3-1 16-8-2z"/><path id="208" d="M189 24l1-17 8 3-1 16-8-2zm0 0l1-17 8 3-1 16-8-2z" fill="#babccd"/><path id="209" class="fil138" d="M189 24l1-17 8 3-1 16-8-2zm0 0l1-17 9 3-2 16-8-2z"/><path id="210" class="fil138" d="M189 24l1-17 8 3-1 16-8-2zm0 0l1-17 9 3-2 16-8-2z"/><path id="211" d="M189 24l1-17 9 3-2 16-8-2zm-1 0l2-17 9 3-2 17-9-3z" fill="#b9bbcd"/><path id="212" d="M189 24l1-17 9 3-2 17-8-3zm-1 0l2-17 9 3-2 17-9-3z" fill="#babbcc"/><path id="213" class="fil141" d="M188 24l2-17 9 3-2 17-9-3zm0 0l2-17 9 3-2 17-9-3z"/><path id="214" class="fil141" d="M188 24l2-17 9 3-2 17-9-3zm0 0l2-17 9 2-2 18-9-3z"/><path id="215" class="fil142" d="M188 24l2-17 9 3-2 17-9-3zm0 0l2-17 9 2-2 18-9-3z"/><path id="216" class="fil142" d="M188 24l2-17 9 2-2 18-9-3zm0 0l2-17 9 2-2 18-9-3z"/><path id="217" d="M188 24l2-17 9 2-2 18-9-3zm0 0l2-17 9 2-2 18-9-3z" fill="#b9bacc"/><path id="218" class="fil144" d="M188 24l2-17 9 2-2 18-9-3zm0 0l2-17 9 2-2 18-9-3z"/><path id="219" class="fil144" d="M188 24l2-17 9 2-2 18-9-3zm0 0l2-17 9 2-2 18-9-3z"/><path id="220" class="fil145" d="M188 24l2-17 9 2-2 18-9-3zm0 0l2-17 9 2-2 18-9-3z"/><path id="221" class="fil146" d="M188 24l2-17 9 2-2 18-9-3zm0 0l2-17 9 2-2 18-9-3z"/><path id="222" class="fil146" d="M188 24l2-17 9 2-2 18-9-3zm0 0l2-17 9 2-2 18-9-3z"/><path id="223" class="fil146" d="M188 24l2-17 9 2-2 18-9-3zm0 0l2-17 9 2-2 18-9-3z"/><path id="224" class="fil147" d="M188 24l2-17 9 2-2 18-9-3zm0 0l2-18 9 3-2 18-9-3z"/><path id="225" class="fil147" d="M188 24l2-18 9 3-2 18-9-3zm0 0l2-18 9 3-2 18-9-3z"/><path id="226" class="fil147" d="M188 24l2-18 9 3-2 18-9-3zm0 0l2-18 9 3-2 18-9-3z"/><path id="227" class="fil148" d="M188 24l2-18 9 3-2 18-9-3zm0 1l2-19 9 3-2 18-9-2z"/><path id="228" class="fil149" d="M188 25l2-19 9 3-2 18-9-2zm0 0l2-19 9 3-2 18-9-2z"/><path id="229" class="fil149" d="M188 25l2-19 9 3-2 18-9-2zm0 0l2-19 9 3-2 18-9-2z"/><path id="230" class="fil150" d="M188 25l2-19 9 3-2 18-9-2zm0 0l2-19 9 3-2 18-9-2z"/><path id="231" class="fil151" d="M188 25l2-19 9 3-2 18-9-2zm0 0l2-19 9 3-2 18-9-2z"/><path id="232" class="fil151" d="M188 25l2-19 9 3-2 18-9-2zm0 0l2-19 9 3-2 18-9-2z"/><path id="233" class="fil152" d="M188 25l2-19 9 3-2 18-9-2zm0 0l2-19 9 3-2 19-9-3z"/><path id="234" class="fil152" d="M188 25l2-19 9 3-2 19-9-3zm0 0l2-19 9 3-2 19-9-3z"/><path id="235" class="fil153" d="M188 25l2-19 9 3-2 19-9-3zm0 0l2-19 9 3-2 19-9-3z"/><path id="236" class="fil154" d="M188 25l2-19 9 3-2 19-9-3zm0 0l2-19 9 3-2 19-9-3z"/><path id="237" class="fil154" d="M188 25l2-19 9 3-2 19-9-3zm0 0l2-19 9 3-2 19-9-3z"/><path id="238" class="fil154" d="M188 25l2-19 9 3-2 19-9-3zm0 0l2-19 9 3-2 19-9-3z"/><path id="239" class="fil155" d="M188 25l2-19 9 3-2 19-9-3zm0 0l2-19 9 3-2 19-9-3z"/><path id="240" class="fil155" d="M188 25l2-19 9 3-2 19-9-3zm0 0l2-19 9 3-2 19-9-3z"/><path id="241" class="fil155" d="M188 25l2-19 9 3-2 19-9-3zm0 0l2-19 9 3-2 19-9-3z"/><path id="242" class="fil156" d="M188 25l2-19 9 3-2 19-9-3zm0 0l2-19 9 3-2 19-9-3z"/><path id="243" class="fil157" d="M188 25l2-19 9 3-2 19-9-3zm0 0l2-19 9 3-2 19-9-3z"/><path id="244" class="fil158" d="M188 25l2-19 9 3-2 19-9-3zm0 0l2-19 9 2-2 20-9-3z"/><path id="245" class="fil159" d="M188 25l2-19 9 2-2 20-9-3zm0 0l2-20 9 3-2 20-9-3z"/><path id="246" class="fil160" d="M188 25l2-19 9 2-2 20-9-3zm0 0l2-20 9 3-2 20-9-3z"/><path id="247" class="fil160" d="M188 25l2-20 9 3-2 20-9-3zm0 0l2-20 9 3-2 20-9-3z"/><path id="248" class="fil161" d="M188 25l2-20 9 3-2 20-9-3zm0 0l2-20 9 3-2 20-9-3z"/><path id="249" class="fil161" d="M188 25l2-20 9 3-2 20-9-3zm0 0l2-20 9 3-2 20-9-3z"/><path id="250" class="fil162" d="M188 25l2-20 9 3-2 20-9-3zm0 0l2-20 9 3-2 20-9-3z"/><path id="251" class="fil163" d="M188 25l2-20 9 3-2 20-9-3zm0 0l2-20 10 3-2 20-10-3z"/><path id="252" class="fil164" d="M188 25l2-20 9 3-2 20-9-3zm0 0l2-20 10 3-2 20-10-3z"/><path id="253" class="fil164" d="M188 25l2-20 10 3-2 20-10-3zm0 0l2-20 10 3-2 20-10-3z"/><path id="254" class="fil165" d="M188 25l2-20 10 3-2 20-10-3zm-1 0l2-20 11 3-2 20-11-3z"/><path id="255" d="M187 25l3-20 10 3-2 20-11-3zm0 0l2-20 11 3-2 21-11-4z" fill="#aeb0c4"/><path id="256" class="fil165" d="M187 25l2-20 11 3-2 21-11-4zm0 1l2-21 11 3-2 21-11-3z"/><path id="257" class="fil164" d="M187 25l2-20 11 3-2 21-11-4zm0 1l2-21 11 3-2 21-11-3z"/><path id="258" class="fil164" d="M187 26l2-21 11 3-2 21-11-3zm0 0l2-21 11 3-2 21-11-3z"/><path id="259" class="fil163" d="M187 26l2-21 11 3-2 21-11-3zm0 0l2-21 11 3-2 21-11-3z"/><path id="260" class="fil162" d="M187 26l2-21 11 3-2 21-11-3zm0 0l2-21 11 3-2 21-11-3z"/><path id="261" class="fil161" d="M187 26l2-21 11 3-2 21-11-3zm0 0l2-21 11 3-2 21-11-3z"/><path id="262" class="fil161" d="M187 26l2-21 11 3-2 21-11-3zm0 0l2-21 11 3-2 21-11-3z"/><path id="263" class="fil160" d="M187 26l2-21 11 3-2 21-11-3zm0 0l2-21 11 3-2 21-11-3z"/><path id="264" class="fil160" d="M187 26l2-21 11 3-2 21-11-3zm0 0l2-21 11 3-2 21-11-3z"/><path id="265" class="fil159" d="M187 26l2-21 11 3-2 21-11-3zm0 0l2-21 11 3-2 21-11-3z"/><path id="266" class="fil158" d="M187 26l2-21 11 3-2 21-11-3zm0 0l2-21 11 3-2 21-11-3z"/><path id="267" class="fil157" d="M187 26l2-21 11 3-2 21-11-3zm0 0l2-22 11 4-2 21-11-3z"/><path id="268" class="fil156" d="M187 26l2-21 11 3-2 21-11-3zm0 0l2-22 11 4-2 21-11-3z"/><path id="269" class="fil155" d="M187 26l2-22 11 4-2 21-11-3zm0 0l2-22 11 4-2 21-11-3z"/><path id="270" class="fil155" d="M187 26l2-22 11 4-2 21-11-3zm0 0l2-22 11 4-2 21-11-3z"/><path id="271" class="fil155" d="M187 26l2-22 11 4-2 21-11-3zm0 0l2-22 11 4-2 21-11-3z"/><path id="272" class="fil154" d="M187 26l2-22 11 4-2 21-11-3zm0 0l2-22 11 4-2 21-11-3z"/><path id="273" class="fil154" d="M187 26l2-22 11 4-2 21-11-3zm0 0l2-22 11 3-2 22-11-3z"/><path id="274" class="fil154" d="M187 26l2-22 11 4-2 21-11-3zm0 0l2-22 11 3-2 22-11-3z"/><path id="275" class="fil153" d="M187 26l2-22 11 3-2 22-11-3zm0 0l2-22 11 3-2 22-11-3z"/><path id="276" class="fil152" d="M187 26l2-22 11 3-2 22-11-3zm0 0l2-22 11 3-2 23-11-4z"/><path id="277" class="fil152" d="M187 26l2-22 11 3-2 22-11-3zm0 0l2-22 11 3-2 23-11-4z"/><path id="278" class="fil151" d="M187 26l2-22 11 3-2 23-11-4zm0 0l2-22 11 3-2 23-11-4z"/><path id="279" class="fil151" d="M187 26l2-22 11 3-2 23-11-4zm0 0l2-22 11 3-2 23-11-4z"/><path id="280" class="fil150" d="M187 26l2-22 11 3-2 23-11-4zm0 0l2-22 11 3-2 23-11-4z"/><path id="281" class="fil149" d="M187 26l2-22 11 3-2 23-11-4zm0 0l2-22 11 3-2 23-11-4z"/><path id="282" class="fil149" d="M187 26l2-22 11 3-2 23-11-4zm0 0l2-22 11 3-2 23-11-4z"/><path id="283" class="fil148" d="M187 26l2-22 11 3-2 23-11-4zm0 0l2-22 11 3-2 23-11-4z"/><path id="284" class="fil147" d="M187 26l2-22 11 3-2 23-11-4zm0 0l2-22 11 3-2 23-11-4z"/><path id="285" class="fil147" d="M187 26l2-22 11 3-2 23-11-4zm0 0l2-22 11 3-2 23-11-4z"/><path id="286" class="fil147" d="M187 26l2-22 11 3-2 23-11-4zm0 1l2-23 11 3-2 23-11-3z"/><path id="287" class="fil146" d="M187 27l2-23 11 3-2 23-11-3zm0 0l2-23 11 3-2 23-11-3z"/><path id="288" class="fil146" d="M187 27l2-23 11 3-2 23-11-3zm0 0l2-23 11 3-2 23-11-3z"/><path id="289" class="fil146" d="M187 27l2-23 11 3-2 23-11-3zm0 0l2-24 11 4-2 23-11-3z"/><path id="290" class="fil145" d="M187 27l2-23 11 3-2 23-11-3zm0 0l2-24 11 4-2 23-11-3z"/><path id="291" class="fil144" d="M187 27l2-24 11 4-2 23-11-3zm0 0l2-24 11 4-2 23-11-3z"/><path id="292" class="fil144" d="M187 27l2-24 11 4-2 23-11-3zm0 0l2-24 11 4-2 23-11-3z"/></g><path class="fil167" d="M239 42h-46v5h46z"/><path id="1" class="fil168" d="M193 42h46-46zm0 0zm0 5v-5 5zm0 0zm46 0h-46 46zm0 0zm0-5v5-5zm0 0z"/><path class="fil167" d="M222 51h-29v5h29z"/><path id="1" class="fil168" d="M193 51l29-1v1h-29zm0 0zm0 5v-5 5zm0 0zm29 0h-29 29zm0 0zm1-5l-1 5v-6l1 1zm-1-1h1v1l-1-1z"/><g><circle transform="matrix(.5688 -.00044 .00044 .5688 167.616 52.762)" r="32" fill="#00a859"/><path d="M170 58v-2c-1-1-1-1-2-1-1-1-2-1-3-2-1 0-1 0-2-1 0 0-1-1-1-2 0 0-1-1-1-2s1-3 2-4 2-1 4-2v-3h2v3c2 1 3 1 4 3 1 1 2 2 2 4h-5v-3h-4v4c1 0 1 1 2 1 2 1 2 1 3 1l2 2 1 1c0 1 1 2 1 3s-1 3-2 4-2 1-4 1v3h-2v-3c-2 0-4-1-5-2s-1-2-1-4h4c0 1 0 2 1 2 0 1 1 1 2 1s1 0 2-1v-1z" fill="#fff212" fill-rule="nonzero"/></g><g><path class="fil167" d="M147 80h9v7h-9z"/><path id="1" class="fil168" d="M156 80h-9 9zm0 0zm0 7v-7 7zm0 0zm-9 0h9-9zm0 0zm0-7v7-7zm0 0z"/><path class="fil167" d="M208 80h-52v7h52z"/><path id="1" class="fil168" d="M156 80h52-52zm0 0zm0 7v-7 7zm0 0zm52 0h-52 52zm0 0zm0-7v7-7zm0 0z"/><path class="fil167" d="M208 80h12v7h-12z"/><path id="1" class="fil168" d="M220 80h-12 12zm0 0zm-1 7v-7h1v7h-1zm1 0zm-12 0h12-12zm0 0zm0-7v7-7zm0 0z"/><path class="fil167" d="M228 80h-8v7h8z"/><path id="1" class="fil168" d="M220 80h-1 9-8zm-1 0h1-1zm1 7h-1v-7h1v7zm0 0h-1 1zm8 0h-8 8zm0 0zm0-7v7-7zm0 0z"/><path class="fil167" d="M228 80h12v7h-12z"/><path id="1" class="fil168" d="M240 80h-12 12zm0 0zm0 7v-7 7zm0 0zm-12 0h12-12zm0 0zm0-7v7-7zm0 0z"/><path class="fil171" d="M147 94h9v-7h-9z"/><path id="1" class="fil168" d="M156 94h-9 9zm0 0zm0-7v7-7zm0 0zm-9 0h9-9zm0 0zm0 7v-7 7zm0 0z"/><path class="fil171" d="M208 94h-52v-7h52z"/><path id="1" class="fil168" d="M156 94h52-52zm0 0zm0-7v7-7zm0 0zm52 0h-52 52zm0 0zm0 7v-7 7zm0 0z"/><path class="fil171" d="M208 94h12v-7h-12z"/><path id="1" class="fil168" d="M220 94h-12 12zm0 0zm-1-7h1v7l-1-7zm1 0zm-12 0h12-12zm0 0zm0 7v-7 7zm0 0z"/><path class="fil171" d="M228 94h-8v-7h8z"/><path id="1" class="fil168" d="M220 94h8-9 1zm0 0h-1 1zm0-7v7h-1v-7h1zm-1 0h1-1zm9 0h-8 8zm0 0zm0 7v-7 7zm0 0z"/><path class="fil171" d="M228 94h12v-7h-12z"/><path id="1" class="fil168" d="M240 94h-12 12zm0 0zm0-7v7-7zm0 0zm-12 0h12-12zm0 0zm0 7v-7 7zm0 0z"/><path class="fil171" d="M147 94h9v7h-9z"/><path id="1" class="fil168" d="M156 94h-9 9zm0 0zm0 7v-7 7zm0 0zm-9 0h9-9zm0 0zm0-7v7-7zm0 0z"/><path class="fil171" d="M208 94h-52v7h52z"/><path id="1" class="fil168" d="M156 94h52-52zm0 0zm0 7v-7 7zm0 0zm52 0h-52 52zm0 0zm0-7v7-7zm0 0z"/><path class="fil171" d="M208 94h12v7h-12z"/><path id="1" class="fil168" d="M220 94h-12 12zm0 0zm0 7v-7 7zm0 0zm-12 0h12-12zm0 0zm0-7v7-7zm0 0z"/><path class="fil171" d="M228 94h-8v7h8z"/><path id="1" class="fil168" d="M220 94h-1 9-8zm-1 0h1-1zm1 7l-1-7h1v7zm0 0zm8 0h-8 8zm0 0zm0-7v7-7zm0 0z"/><path class="fil171" d="M228 94h12v7h-12z"/><path id="1" class="fil168" d="M240 94h-12 12zm0 0zm0 7v-7 7zm0 0zm-12 0h12-12zm0 0zm0-7v7-7zm0 0z"/><path class="fil171" d="M147 108h9v-7h-9z"/><path id="1" class="fil168" d="M156 108h-9 9zm0 0zm0-7v7-7zm0 0zm-9 0h9-9zm0 0zm0 7v-7 7zm0 0z"/><path class="fil171" d="M208 108h-52v-7h52z"/><path id="1" class="fil168" d="M156 108h52-52zm0 0zm0-7v7-7zm0 0zm52 0h-52 52zm0 0zm0 7v-7 7zm0 0z"/><path class="fil171" d="M208 108h12v-7h-12z"/><path id="1" class="fil168" d="M220 108h-12 12zm0 0zm0-7v7-7zm0 0zm-12 0h12-12zm0 0zm0 7v-7 7zm0 0z"/><path class="fil171" d="M228 108h-8v-7h8z"/><path id="1" class="fil168" d="M220 108h8-8zm0 0zm0-7v7-7zm0 0zm8 0h-8 8zm0 0zm0 7v-7 7zm0 0z"/><g><path class="fil171" d="M228 108h12v-7h-12z"/><path id="1" class="fil168" d="M240 108h-12 12zm0 0zm0-7v7-7zm0 0zm-12 0h12-12zm0 0zm0 7v-7 7zm0 0z"/></g><g><path class="fil171" d="M147 108h9v7h-9z"/><path id="1" class="fil168" d="M156 108h-9 9zm0 0zm0 7v-7 7zm0 0zm-9 0h9-9zm0 0zm0-7v7-7zm0 0z"/></g><g><path class="fil171" d="M208 108h-52v7h52z"/><path id="1" class="fil168" d="M156 108h52-52zm0 0zm0 7v-7 7zm0 0zm52 0h-52 52zm0 0zm0-7v7-7zm0 0z"/></g><g><path class="fil171" d="M208 108h12v7h-12z"/><path id="1" class="fil168" d="M220 108h-12 12zm0 0zm0 7v-7 7zm0 0zm-12 0h12-12zm0 0zm0-7v7-7zm0 0z"/></g><g><path class="fil171" d="M228 108h-8v7h8z"/><path id="1" class="fil168" d="M220 108h8-8zm0 0zm0 7v-7 7zm0 0zm8 0h-8 8zm0 0zm0-7v7-7zm0 0z"/></g><g><path class="fil171" d="M228 108h12v7h-12z"/><path id="1" class="fil168" d="M240 108h-12 12zm0 0zm0 7v-7 7zm0 0zm-12 0h12-12zm0 0zm0-7v7-7zm0 0z"/></g><g><path class="fil171" d="M147 122h9v-7h-9z"/><path id="1" class="fil168" d="M156 122h-9 9zm0 0zm0-7v7-7zm0 0zm-9 0h9-9zm0 0zm0 7v-7 7zm0 0z"/></g><g><path class="fil171" d="M208 122h-52v-7h52z"/><path id="1" class="fil168" d="M156 122h52-52zm0 0zm0-7v7-7zm0 0zm52 0h-52 52zm0 0zm0 7v-7 7zm0 0z"/></g><g><path class="fil171" d="M208 122h12v-7h-12z"/><path id="1" class="fil168" d="M220 122h-12 12zm0 0zm0-7v7-7zm0 0zm-12 0h12-12zm0 0zm0 7v-7 7zm0 0z"/></g><g><path class="fil171" d="M228 122h-8v-7h8z"/><path id="1" class="fil168" d="M220 122h8-8zm0 0zm0-7v7-7zm0 0zm8 0h-8 8zm0 0zm0 7v-7 7zm0 0z"/></g><g><path class="fil171" d="M228 122h12v-7h-12z"/><path id="1" class="fil168" d="M240 122h-12 12zm0 0zm0-7v7-7zm0 0zm-12 0h12-12zm0 0zm0 7v-7 7zm0 0z"/></g><path class="fil167" d="M204 89h-45l-1 3h46zM199 96h-40v2l40 1z"/><path class="fil172" d="M205 82l-46 1v2h45z"/><path class="fil167" d="M203 104h-44v2l44 1z"/><path class="fil172" d="M154 83h-4l-1 2h5z"/><path class="fil167" d="M153 89h-4v3h4zM154 96h-4l-1 2 5 1zM154 103h-4v2h4z"/></g></g><g><rect transform="scale(.1925) rotate(1.319 -3333.86 57576.486)" width="253" height="321" rx="20" ry="20" fill="#96989a" stroke="#2887d2" stroke-width="2.537"/><rect class="fil1" transform="rotate(1.349 -669.717 11110.253) scale(.18771)" width="253" height="321" rx="20" ry="20"/><path d="M260 20l38 1c2 0 4 1 4 3l-1 16-45-1V23c0-2 2-3 4-3z" fill="#2887d2"/><path fill="url(#id1)" d="M258 25l42 1v10l-43-1z"/><rect class="fil171" transform="rotate(1.297 -1755.053 11248.192) scale(.19115)" width="36.459" height="17.09" rx="6" ry="6"/><rect class="fil171" transform="rotate(1.297 -1759.326 11607.758) scale(.19115)" width="36.459" height="17.09" rx="6" ry="6"/><rect class="fil171" transform="rotate(1.297 -1763.599 11967.28) scale(.19115)" width="36.459" height="17.09" rx="6" ry="6"/><rect class="fil171" transform="rotate(1.297 -1767.867 12326.844) scale(.19115)" width="36.459" height="17.09" rx="6" ry="6"/><rect class="fil171" transform="rotate(1.297 -1772.403 12708.79) scale(.19115)" width="36.459" height="17.09" rx="6" ry="6"/><rect class="fil176" transform="matrix(.1911 .0044 -.0044 .1911 258.298 48.5)" width="37.599" height="29.623" rx="7" ry="7"/><rect class="fil176" transform="rotate(1.297 -1986.356 11600.292) scale(.19115)" width="37.599" height="29.623" rx="7" ry="7"/><rect class="fil176" transform="rotate(1.297 -1990.572 11955.12) scale(.19115)" width="37.599" height="29.623" rx="7" ry="7"/><rect class="fil171" transform="rotate(1.297 -1994.785 12309.949) scale(.19115)" width="37.599" height="29.623" rx="7" ry="7"/><rect class="fil171" transform="rotate(1.297 -1999.38 12696.631) scale(.19115)" width="37.599" height="29.623" rx="7" ry="7"/><rect class="fil176" transform="rotate(1.297 -2284.918 11241.884) scale(.19115)" width="37.599" height="29.623" rx="7" ry="7"/><rect class="fil176" transform="rotate(1.297 -2289.135 11596.713) scale(.19115)" width="37.599" height="29.623" rx="7" ry="7"/><rect class="fil176" transform="rotate(1.297 -2293.352 11951.541) scale(.19115)" width="37.599" height="29.623" rx="7" ry="7"/><rect class="fil171" transform="rotate(1.297 -2297.564 12306.37) scale(.19115)" width="37.599" height="29.623" rx="7" ry="7"/><rect class="fil171" transform="rotate(1.297 -2302.156 12693.008) scale(.19115)" width="37.599" height="29.623" rx="7" ry="7"/><rect class="fil176" transform="rotate(1.297 -2587.698 11238.305) scale(.19115)" width="37.599" height="29.623" rx="7" ry="7"/><rect class="fil176" transform="rotate(1.297 -2591.914 11593.133) scale(.19115)" width="37.599" height="29.623" rx="7" ry="7"/><rect class="fil176" transform="matrix(.1911 .0044 -.0044 .1911 274.307 62.81)" width="37.599" height="29.623" rx="7" ry="7"/><path class="fil176" d="M284 63h4c1 0 2 1 2 1l-1 11c0 1 0 1-1 1h-5l-1-1V64s1-1 2-1z"/><rect class="fil171" transform="rotate(1.297 -2604.936 12689.428) scale(.19115)" width="37.599" height="29.623" rx="7" ry="7"/><rect class="fil176" transform="rotate(1.297 -2911.49 11234.438) scale(.19115)" width="37.599" height="29.623" rx="7" ry="7"/><rect class="fil176" transform="matrix(.1911 .0044 -.0044 .1911 265.97 70.073)" width="37.599" height="29.623" rx="7" ry="7"/><rect class="fil176" transform="rotate(1.297 -2919.918 11944.094) scale(.19115)" width="37.599" height="29.623" rx="7" ry="7"/><rect class="fil171" transform="rotate(1.297 -2928.727 12685.605) scale(.19115)" width="37.599" height="29.623" rx="7" ry="7"/><path class="fil168" d="M262 67v-3h-1 1zM263 73c0 1 0 1-1 1v1c-1 0-1-1-1-1v-1-2h1c1 1 1 1 1 2zm-1-1v-1c-1 0-1 0-1 1v2h1v-2zM271 67h-2l1-1v-1-1h-1v0h1c1 0 1 0 1 1 0 0-1 0-1 1l-1 1h2zM277 66h1v-1-1h-1v0h2v1c0 1-1 1-1 1h1v1c-1 0-1 1-1 1-1 0-1-1-1-1h1v-1h-1zM263 59v1h-1v-1h-1l1-2h1v2zm-2 0h1v-2l-1 2zM269 59v-2h2-1l-1 1h2v2h-1-1v-1 1h1l1-1h-1v-1s0 1-1 1zM279 57c-1 0-1 1-1 1s-1 0-1 1l1-1s1 0 1 1v1l-1 1-1-1v-1-1c1-1 1-1 2-1zm-1 2h-1c0 1 0 1 1 1s1 0 1-1h-1zM263 50l-1 3h-1l2-3h-2 2zM271 51s0 1-1 1h1v1h-1-1v-1-1-1h2v1zm0 1h-1-1v1h1c1 0 1 0 1-1zm-1-2c-1 0-1 1-1 1h2l-1-1zM279 52h-1-1v-1c0-1 0-1 1-1h1v3c-1 0-1 1-1 1h-1v-1h1c1 0 1-1 1-1zm-1 0h1v-1c-1 0-1-1-1-1v1h-1l1 1zM269 73h0zM279 73h-2v-1l2 1zm0 1h-2v-1l2 1zM286 69h1v1h-1v1-1h-1v-1h1v-1z"/><path transform="rotate(1.297 -846.03 11202.22) scale(.19115)" d="M0 0h54.689v10.254H0z"/><path class="fil178" d="M279 28h-3 3zm0 5h-3 3zm-3-3v-2h1v2h-1zm4 1v2l-1-1v-1h1zm-1-1v-2h1v2h-1zm0 0v1h-2l-1-1h3z"/><path id="1" class="fil178" d="M284 28h-3 3zm0 5h-3 3zm0-2v2l-1-1v-1h1zm-1-1v-2h1v2h-1zm0 0v1h-2v-1h2z"/><path id="2" class="fil178" d="M285 33z"/><path id="3" class="fil178" d="M290 28h-4 4zm0 5h-4 4zm-3-2v1l-1 1v-2h1zm2-1v-2h1v2h-1zm0 0v1h-2v-1h2z"/><path id="4" class="fil178" d="M294 28h-3 3zm0 5h-3 3zm-3-3v-2 2zm3 1v2l-1-1v-1h1zm-1-1h1l-1 1h-2v-1h2z"/><path id="5" class="fil178" d="M298 30v-2 2zm0-2h-3 3zm-2 2h-1v-2h1v2zm2 3v-2 2zm0 0h-3 3zm-2 0h-1v-2h1v2z"/></g><g><path fill="url(#id4)" fill-rule="nonzero" d="M259 120h50V93h-49z"/><path class="fil180" d="M307 101v12c-3 0-5 2-5 4h-35c0-3-2-5-5-5v-12c3 0 5-2 5-4h35c0 3 2 5 5 5z"/><path d="M260 103l-1 17h17c-4 0-8-2-12-5-3-3-4-8-4-12z" fill="url(#id6)" fill-rule="nonzero"/><path class="fil182" d="M295 108h4v-2h-4zM270 108h4v-3h-4z"/><path class="fil183" d="M286 109v-1h-2c0-1-1-1-1-1-1 0-1 0-1-1 0 0-1 0-1-1v-1c0-1 0-2 1-2 0-1 1-1 2-1v-2h1v2c1 0 2 0 3 1v2h-2v-1h-2c-1 0-1 0-1 1 0 0 0 1 1 1l1 1h1c1 1 1 1 2 1v2c0 1 0 2-1 3 0 0-1 1-2 1v1h-1v-1c-1 0-2-1-3-2 0 0-1-1-1-2h3v1c0 1 1 1 1 1 1 0 1 0 2-1v-1z"/></g><g><path fill="url(#id2)" fill-rule="nonzero" d="M257 117l50 1V91l-49-1z"/><path class="fil180" d="M305 98v12c-3 0-5 2-5 5l-35-1c0-2-3-4-5-4V98c3 0 5-2 5-5h35c0 3 2 5 5 5z"/><path d="M258 100l-1 17h17c-4 0-8-1-12-5-3-3-4-7-4-12z" fill="url(#id7)" fill-rule="nonzero"/><path class="fil182" d="M293 105h4v-2h-4zM268 105h4v-2h-4z"/><path class="fil183" d="M284 107v-1c-1-1-1-1-2-1 0 0-1 0-1-1h-1c0-1-1-1-1-1v-2c0-1 0-1 1-2 0-1 1-1 2-1v-2h1v2c1 0 2 1 3 1v3h-2v-2h-2c-1 0-1 1-1 1 0 1 0 1 1 1 0 0 0 1 1 1 0 0 1 0 1 1h1l1 1v2c0 1 0 1-1 2 0 1-1 1-2 1v2h-1v-2c-1 0-2-1-3-1 0-1-1-2-1-3h3v2h3v-1z"/></g><g><path fill="url(#id3)" fill-rule="nonzero" d="M255 116h50V89l-50-1z"/><path class="fil180" d="M303 97l-1 11c-2 0-4 3-4 5h-36c0-3-2-5-5-5l1-12c2 0 4-2 4-5l36 1c0 2 2 5 5 5z"/><path d="M255 99v17h17c-5 0-9-2-12-5-3-4-5-8-5-12z" fill="url(#id5)" fill-rule="nonzero"/><path class="fil182" d="M290 104h5v-3h-5zM265 103h5v-2h-5z"/><path class="fil183" d="M282 105l-1-1-1-1h-2c0-1 0-1-1-1v-1c-1 0-1-1-1-1 0-1 1-2 1-3 1 0 2-1 3-1v-1h1v1c1 0 2 1 2 2 1 0 1 1 1 2h-2c0-1-1-1-1-1 0-1 0-1-1-1 0 0-1 0-1 1v2h1c1 1 2 1 2 1l1 1s1 0 1 1v1c0 1 0 2-1 2-1 1-1 1-2 1v2h-2v-2c-1 0-2 0-2-1-1-1-1-1-1-3h2c0 1 0 2 1 2h2s1 0 1-1z"/></g><g><circle class="fil188" cx="264" cy="139" r="8"/><circle class="fil189" cx="264" cy="139" r="7"/><path class="fil190" d="M265 141c0-1-1-1-1-1h-1l-1-1v-1c-1 0-1 0-1-1l1-1s1-1 2-1v-1 1c1 0 2 1 2 1 0 1 1 1 1 2h-2v-1l-1-1-1 1v1l1 1h1c1 0 1 1 1 1l1 1c0 1-1 1-1 2 0 0-1 0-2 1v1h-1v-1c0-1-1-1-1-1-1-1-1-1-1-2h2v1h2v-1z"/></g><g><circle class="fil188" cx="281" cy="130" r="8"/><circle class="fil189" cx="281" cy="130" r="7"/><path class="fil190" d="M282 132v-1h-1c0-1-1-1-1-1h-1v-1-1-2h2v-1h1v1c1 0 1 0 1 1 1 0 1 1 1 1h-2v-1h-1c-1 0-1 1-1 1s0 1 1 1h1s0 1 1 1 1 1 1 1v1s0 1-1 1c0 1-1 1-1 1v1h-1v-1c-1 0-2 0-2-1 0 0-1-1-1-2h2v1l1 1h1v-1z"/></g><path class="fil191" d="M180 161h-8v22h-6v-22h-8v-5h22z"/><path id="1" class="fil191" d="M197 178h-10l-2 5h-6l10-27h6l10 27h-6l-2-5zm-8-5h7l-4-10-3 10z"/><path id="2" class="fil191" d="M218 166l5-10h6l-8 14 8 13h-6l-5-9-6 9h-6l8-13-8-14h6z"/><g><path d="M58 138l9 10-53 49-9-10 53-49zm79-47c2 4 3 8 3 13 0 20-16 35-36 35-15 0-28-9-33-23-1 0-2 0-2-1 0 2 1 4 2 6l-1 1 6 8c0-1-1-1-1-1-2-3-3-5-3-5s-1 3-1 5c-1-1-1-1-2 0v1h1l-1 1v-1h-1c-1 1-1 1 0 2l-5 5c-1-1-1-1-2 0v1h1-1-1c-1 1-1 1 0 2l6 6h1v-2c1 1 1 1 2 0v-1l5-5c0 1 1 1 1 0v-2c1 1 1 1 2 0v-1h5s-1 0-1-1c1 2 3 3 3 3s0-1 1-1c0 0 1 1 2 1 18 10 41 3 51-15 6-11 6-24 1-34-1 1-1 2-2 3z" fill="#a9abae"/><path fill="#f58634" d="M57 135l10 11-53 49-10-11z"/><path d="M70 127l-11 10 6 7 11-11h5l-7-7c-2-2-3-4-3-4s-1 3-1 5z" fill="#96989a"/><rect class="fil195" transform="matrix(.1558 .16628 -.11498 .11898 61.4 133.422)" width="46.713" height="11.393" rx="6" ry="6"/><rect class="fil195" transform="matrix(.15737 .16802 -.1183 .13581 59.558 134.932)" width="46.713" height="11.393" rx="6" ry="6"/><rect class="fil195" transform="matrix(.1558 .16628 -.11498 .11898 69.317 125.534)" width="46.713" height="11.393" rx="6" ry="6"/><rect class="fil195" transform="matrix(.15737 .16802 -.1183 .13581 67.475 127.045)" width="46.713" height="11.393" rx="6" ry="6"/><path d="M69 120l6 8 8 6s2-2 3-2c0-1-4-4-7-7s-5-7-5-7c-1-1-1-1-2-1l-3 3z" fill="#a9abae"/><path class="fil13" d="M122 68c18 10 25 33 15 51-10 19-33 26-51 16s-25-33-15-51c9-19 32-26 51-16zm-2 2c18 10 24 31 15 48s-31 24-48 15c-17-10-23-31-14-48s30-24 47-15z" stroke="#373435" stroke-width="2.374"/><path d="M120 70c18 10 24 31 15 48s-31 24-48 15c-17-10-23-31-14-48s30-24 47-15z" fill="#91d8f7" fill-opacity=".349"/></g><path fill="none" d="M0 0h316v199H0z"/></g></g></svg>