<svg xmlns="http://www.w3.org/2000/svg" width="229" height="164" viewBox="0 0 287 205" shape-rendering="geometricPrecision" text-rendering="geometricPrecision" image-rendering="optimizeQuality" fill-rule="evenodd" clip-rule="evenodd"><defs><linearGradient id="id0" gradientUnits="userSpaceOnUse" x1="91.034" y1="87.589" x2="35.441" y2="113.702"><stop offset="0" stop-color="#91d8f7"/><stop offset=".702" stop-color="#77cfe4"/><stop offset="1" stop-color="#5cc6d0"/></linearGradient><style>.fil16{fill:#96989a}.fil11{fill:#5cc6d0}.fil2{fill:#0d814b}.fil3{fill:#194440}.fil6{fill:#2887d2}.fil0{fill:#2cb156}.fil4{fill:#5ee1e9}.fil1{fill:#fcfcfc}.fil12{fill:#fefefe;fill-rule:nonzero}.fil18,.fil19,.fil20{fill:#ffcf46;fill-rule:nonzero}.fil18,.fil19{fill:#faac4a}.fil18{fill:#eb9e47}</style></defs><g id="Layer_x0020_1"><g id="_875014848"><path class="fil0" d="M133 140c1 0 4 1 5 2l8 5c2 1 3 1 4 2 3 2 6 4 9 5 1 1 3 2 4 3 1 0 4 2 5 2 3-1 5-3 8-5l60-34-25-15c-3-2-5-3-7-4-2-2-1-2-6 1l-16 9c-1 1-2 2-4 2-6 4-13 8-19 11-7 4-15 9-22 13-1 1-1 1-2 1l-2 2z"/><path class="fil1" d="M142 139c1 0 9 5 11 6 3 2 7 4 10 6 3 1 4 3 6 2s3-2 5-3c14-8 29-17 43-25 2-1 4-2 5-3 2 0 5-2 6-3l-24-14c-2 0-2-1-3 0-2 1-4 2-5 3l-54 31z"/><path class="fil0" d="M148 139l18 10c2 1 1 1 5-1 14-7 28-16 42-23l9-6c-1 0-16-9-19-10-1-1-1-2-2-1l-44 25-9 6z"/><path class="fil2" d="M168 159c-1 0-4-2-5-2-1-1-3-2-4-3-3-1-6-3-9-5-1-1-2-1-4-2l-8-5c-1-1-4-2-5-2v5l31 17c0 1 1 1 2 2 2 1 2 0 2 2-2-1-16-9-18-10-2-2-15-10-17-10v4l13 8c2 0 3 1 5 2 1 1 3 2 4 3 2 1 3 1 4 2 2 1 3 2 5 3s4 2 4 3l-35-20v4l33 19c2 1 2 1 2 2-1 0-4-2-5-2-1-1-3-2-4-3-3-1-6-3-9-5l-17-10v5l33 19c1 1 1 0 2 1v1c5-4 11-7 17-10l51-30v-1l-64 37c-1 1-3 2-4 3v-5l68-39v-1l-9 5c-2 1-5 3-8 5-6 3-11 6-17 10l-34 19c0-5-1-3 4-6 7-5 63-37 64-38v-1l-34 20c-6 4-12 7-17 10-2 1-16 10-17 10v-4c1-1 33-19 34-20l34-20v-1l-17 10c-6 3-11 7-17 10-3 2-6 3-9 5l-21 12c-1 1-3 2-4 3v-6z"/><path class="fil2" d="M168 182v5c-3-1-22-13-26-15l-9-5v4c1 1 4 2 5 3l22 13c1 0 2 1 4 2s4 2 4 3l-35-20v7c1 0 34 20 35 20v-4-3c3-2 13-7 17-10 3-1 6-3 8-5 3-1 41-24 43-24v-1c-1 0-3 1-4 2l-64 37v-4c1 0 3-2 4-2l13-8c11-7 23-13 34-20l17-10v-1l-68 40v-4z"/><path class="fil3" d="M168 199l26-15c7-4 17-10 25-15 3-1 6-3 9-5 1-1 2-1 4-2 1-1 3-2 4-3v-6c-2 0-40 23-43 24-2 2-5 4-8 5-4 3-14 8-17 10v7zM168 159v6c1-1 3-2 4-3l21-12c3-2 6-3 9-5 6-3 11-7 17-10l17-10v-5l-60 34c-3 2-5 4-8 5zM236 141v-4l-68 39v5c1-1 3-2 4-3l64-37zM236 130v-4l-34 20c-1 1-33 19-34 20v4c1 0 15-9 17-10 5-3 11-6 17-10l34-20zM236 136v-5c-1 1-57 33-64 38-5 3-4 1-4 6l34-19c6-4 11-7 17-10 3-2 6-4 8-5l9-5zM168 182v4l68-40v-4l-51 30c-6 3-12 6-17 10zM236 152v-5l-17 10c-11 7-23 13-34 20l-13 8c-1 0-3 2-4 2v4l64-37c1-1 3-2 4-2z"/><path class="fil1" d="M182 118c-8 1-19 6-14 13 7 14 43 7 36-6-3-6-14-9-22-7z"/><path class="fil2" d="M133 166c2 0 4 2 5 2l25 16c1 0 4 2 5 2v-4-1 1c-2-1-31-19-35-20v4z"/><path class="fil4" d="M202 116c-7 1-3 6 3 5s3-6-3-5zM166 136c-6 2-2 7 4 5 5-1 2-6-4-5z"/><path class="fil0" d="M133 167l9 5c4 2 23 14 26 15v-1c-1 0-4-2-5-2l-25-16c-1 0-3-2-5-2v1zM133 172l35 20c0-1-2-2-4-3s-3-2-4-2l-22-13c-1-1-4-2-5-3v1zM133 156l17 10c3 2 6 4 9 5 1 1 3 2 4 3 1 0 4 2 5 2 0-1 0-1-2-2l-33-19v1zM133 146c2 0 15 8 17 10 2 1 16 9 18 10 0-2 0-1-2-2-1-1-2-1-2-2l-31-17v1zM133 151l35 20c0-1-2-2-4-3s-3-2-5-3c-1-1-2-1-4-2-1-1-3-2-4-3-2-1-3-2-5-2l-13-8v1zM133 162c4 1 33 19 35 20v-1c-1-1-1 0-2-1l-33-19v1z"/><path d="M191 129c-1 0-1 0-2-1 0 0-1 1-2 1-1 1-2 1-2 1-1 0-2 0-3 1 0 0-1-1-2-1 0 0-1 0-1-1-2-1-2-2-2-4 0-1 0-2 1-4l-2-2 2-1 2 2c1-1 3-1 4-1s3 1 4 2l-3 2c-1 0-1-1-2-1s-1 0-2 1c0 0-1 1-1 2 1 0 1 1 1 1 1 1 1 1 2 1 0 0 1 0 2-1 1 0 2-1 3-1h4l2 2c1 1 1 2 1 3s0 3-1 4l2 2-2 1-2-1c-1 1-3 1-4 1-2 0-3-1-4-2l2-3c1 1 2 2 3 2 0 0 1-1 2-1 0-1 1-1 1-2s-1-1-1-2z" fill="#f58634" fill-rule="nonzero"/><path class="fil6" d="M15 59h86c4 0 8 6 8 10v122c0 5-3 8-7 8H16c-4 0-8-3-8-8L7 76c-3-1-3-4-3-8-1-5 2-8 5-8 4-1 4-1 6-1z"/><g><path d="M21 59h82c4 0 7 4 7 8l1 122c0 4-3 7-8 7H21c-4 0-7-4-7-8L13 66c0-4 4-7 8-7z" fill="#25a6d9"/><path d="M24 63h78c4 0 7 3 7 7v116c0 4-3 8-7 8H24c-4 0-7-4-7-8V70c0-4 3-7 7-7z" fill="#fefefe"/><path d="M27 77h73c4 0 7 3 7 7v34H20V83c0-3 4-6 7-6z" fill="#2887d2"/><path fill="url(#id0)" d="M23 92h81v17H23z"/><rect class="fil11" transform="rotate(.141 -974439.709 218707.242) scale(.33072)" width="40.043" height="18.77" rx="7" ry="7"/><rect class="fil11" transform="rotate(.141 -971577.468 341014.77) scale(.33072)" width="40.043" height="18.77" rx="7" ry="7"/><rect class="fil11" transform="rotate(.141 -968715.246 463321.52) scale(.33072)" width="40.043" height="18.77" rx="7" ry="7"/><rect class="fil11" transform="rotate(.141 -965853.005 585629.048) scale(.33072)" width="40.043" height="18.77" rx="7" ry="7"/><rect class="fil11" transform="rotate(.141 -962811.522 715554.428) scale(.33072)" width="40.043" height="18.77" rx="7" ry="7"/><rect class="fil6" transform="rotate(.141 -1051691.733 220514.808) scale(.33072)" width="41.295" height="32.535" rx="7" ry="7"/><rect class="fil6" transform="rotate(.141 -1048867.335 341213.993) scale(.33072)" width="41.295" height="32.535" rx="7" ry="7"/><rect class="fil6" transform="rotate(.141 -1046042.938 461913.178) scale(.33072)" width="41.295" height="32.535" rx="7" ry="7"/><rect class="fil11" transform="rotate(.141 -1043218.54 582612.363) scale(.33072)" width="41.295" height="32.535" rx="7" ry="7"/><rect class="fil11" transform="rotate(.141 -1040139.287 714142.975) scale(.33072)" width="41.295" height="32.535" rx="7" ry="7"/><rect class="fil6" transform="rotate(.141 -1154686.648 222924.972) scale(.33072)" width="41.295" height="32.535" rx="7" ry="7"/><rect class="fil6" transform="rotate(.141 -1151862.25 343624.157) scale(.33072)" width="41.295" height="32.535" rx="7" ry="7"/><rect class="fil6" transform="rotate(.141 -1149037.853 464323.342) scale(.33072)" width="41.295" height="32.535" rx="7" ry="7"/><rect class="fil11" transform="rotate(.141 -1146213.455 585022.527) scale(.33072)" width="41.295" height="32.535" rx="7" ry="7"/><rect class="fil11" transform="rotate(.141 -1143134.22 716552.36) scale(.33072)" width="41.295" height="32.535" rx="7" ry="7"/><rect class="fil6" transform="rotate(.141 -1257681.563 225335.136) scale(.33072)" width="41.295" height="32.535" rx="7" ry="7"/><rect class="fil6" transform="rotate(.141 -1254857.166 346034.32) scale(.33072)" width="41.295" height="32.535" rx="7" ry="7"/><rect class="fil6" transform="rotate(.141 -1252032.768 466733.506) scale(.33072)" width="41.295" height="32.535" rx="7" ry="7"/><path class="fil6" d="M74 162h9c1 0 2 1 2 3v20c0 1-1 2-2 2h-9c-1 0-2-1-2-2v-20c0-2 1-3 2-3z"/><rect class="fil11" transform="rotate(.141 -1246129.136 718962.525) scale(.33072)" width="41.295" height="32.535" rx="7" ry="7"/><rect class="fil6" transform="rotate(.141 -1367823.823 227912.693) scale(.33072)" width="41.295" height="32.535" rx="7" ry="7"/><rect class="fil6" transform="rotate(.141 -1364999.425 348611.878) scale(.33072)" width="41.295" height="32.535" rx="7" ry="7"/><rect class="fil6" transform="rotate(.141 -1362175.028 469311.063) scale(.33072)" width="41.295" height="32.535" rx="7" ry="7"/><rect class="fil11" transform="rotate(.141 -1356271.396 721540.082) scale(.33072)" width="41.295" height="32.535" rx="7" ry="7"/><path class="fil12" d="M33 171h-1v-6l-1 1v-1l2-1zM35 182c0 1-1 2-1 3h-3c0-1-1-2-1-3v-1c0-1 1-1 1-2h3c0 1 1 1 1 2v1zm-1-1s0-1-1-1v-1c-1 0-1 0-1 1-1 0-1 0-1 1v1c0 1 0 2 1 2 0 0 0 1 1 1v-1c1 0 1-1 1-1v-2zM50 171h-5v-1l3-2v-1c1 0 1-1 1-1s-1 0-1-1h-1-1v1h-1s0-1 1-1l1-1c1 0 2 1 2 1v1c0 1 0 2-1 2l-2 2h4v1zM62 167h2v-1c0-1 0-1-1-1h-1v1h-1v-1c1 0 1-1 2-1s1 1 1 1c1 0 1 1 1 1v1c-1 0-1 1-1 1h1v1c0 1 0 1-1 2h-3v-2h1v1h2v-1-1h-2v-1zM34 156h1-1v2h-1v-2h-3l3-5h1v5zm-3 0h2v-4 1l-2 3zM46 154v-3h3v1h-2v2h2c1 0 1 1 1 2l-1 1c0 1-1 1-1 1-1 0-1 0-2-1v-1l1 1h2v-1c0-1 0-1-1-1v-1h-1l-1 1v-1zM64 151v1c-1 0-1 0-1 1-1 0-1 0-1 1l1-1c1 0 1 1 2 1v3c-1 1-1 1-2 1s-1 0-1-1c-1 0-1-1-1-2s0-2 1-3c0 0 1-1 2-1zm-1 3h-1v3h2v-1-1c0-1-1-1-1-1zM35 138l-3 6h-1l3-5h-4v-1h5zM49 140v1h-1c1 0 1 1 1 1s1 0 1 1l-1 1s-1 1-2 1l-1-1-1-1c0-1 0-1 1-1v-1-1-2h3v2zm0 3c0-1 0-1-1-1h-1c-1 0-1 0-1 1l1 1h1l1-1zm-2-4c-1 0-1 0-1 1l1 1h1c0-1 1-1 1-1 0-1-1-1-1-1h-1zM64 142h-2c-1 0-1 0-1-1v-1-1l1-1h1c1 0 1 0 1 1 1 0 1 1 1 2s0 2-1 3c0 0-1 1-2 1v-1c1 0 1 0 2-1v-1zm-1 0l1-1v-1-1h-1-1v2c0 1 0 1 1 1zM47 182v-1c1 0 1 0 1 1h-1zM65 181h-4 4zm0 2h-4v-1h4v1zM79 174h2v1h-2v2h-1v-2h-2v-1h2v-2h1z"/><path transform="rotate(.141 -665902.355 192164.806) scale(.33072)" d="M0 0h60.066v11.262H0z"/></g><g><path d="M102 6c-1-1-4-2-6-2H83v37h18c2 0 4-1 4-3V12c0-2-1-4-3-6z" fill="#d2d3d5" fill-rule="nonzero"/><path class="fil12" d="M46 4h50c-5 0-9 4-9 8v58H37V12c0-4 4-8 9-8z"/><path id="1" d="M96 5H46V4h50v1zm-8 7h-1V9h1V8l1-1V6h1l1-1h1l1-1h3v1h-3v1h-1l-1 1h-1v1h-1v2h-1v2zm-1 58V12h1v58l-1 1v-1zm1 0v1h-1l1-1zm-51-1h50v2H37v-2zm0 2v-1 1zm1-59v58h-1V12h1zm8-8v1h-3v1h-2v1h-1v1h-1v1l-1 1v2h-1V9h1V7h1V6h1l1-1h1l1-1h3z" fill="#96989a" fill-rule="nonzero"/></g><path class="fil16" d="M43 18h25.027v6.284H43zM71 18h10.364v6.284H71zM43 32h25.027v6.284H43zM71 32h10.364v6.284H71zM43 46h25.027v6.284H43zM71 46h10.364v6.284H71z"/><path fill="none" d="M0 0h287v205H0z"/><g id="_875014872"><path class="fil18" d="M196 97c0 2-7 5-16 5-8 0-15-3-15-5v-7c1 2 7 4 15 4s16-2 16-5v8z"/><path class="fil19" d="M180 61v7c0 3-7 5-16 5-3 0-7 0-10-1-1-1-3-2-5-3v-8c0 2 7 4 15 4s16-2 16-4z"/><path class="fil20" d="M180 61c0 2-7 4-16 4-8 0-15-2-15-4 0-3 7-5 15-5 9 0 16 2 16 5z"/><path class="fil19" d="M165 90v-8c0 2 7 4 15 4s16-2 16-4v7c0 3-7 5-16 5-8 0-14-2-15-4z"/><path class="fil18" d="M155 95c1-2 3-4 4-7h6v8h-1c-3 0-6 0-9-1z"/><path class="fil19" d="M165 81v7h-6c0-1 1-3 1-5 0-1-1-2-1-3h5l1 1z"/><path class="fil18" d="M154 72c3 1 7 1 10 1 9 0 16-2 16-5v9c-8 0-14 2-15 4h-1c-2 0-3 0-4-1h-1c0-3-2-6-5-8z"/><path class="fil20" d="M159 80c0-3-2-6-5-8-1-2-3-3-5-3-2-1-3-1-5-1-9 0-16 7-16 15 0 9 7 16 16 16 4 0 8-1 11-4 2-2 3-4 4-7 0-1 1-3 1-4s-1-3-1-4zM196 81v1c0 2-7 4-16 4-8 0-15-2-15-4v-1c1-2 7-4 15-4 9 0 16 2 16 4z"/><path d="M146 88v-2c-1 0-1-1-2-1s-2-1-3-1l-1-1c-1-1-1-1-1-2-1-1-1-1-1-2 0-2 1-3 2-4s2-1 3-1v-3h2v3c2 0 3 1 4 2s1 2 1 4h-4v-3h-3c-1 1-1 1-1 2v1c1 1 2 1 3 2 1 0 1 0 2 1 1 0 1 1 2 1 0 1 1 1 1 2v2c0 1 0 2-1 3s-2 2-4 2v2h-2v-2c-2 0-3-1-4-2s-1-2-1-4h3c0 1 0 2 1 2 0 1 1 1 2 1s1 0 2-1v-1z" fill="#00a859" fill-rule="nonzero"/></g></g></g></svg>