<svg fill="none" xmlns="http://www.w3.org/2000/svg" viewBox="0 0 229 200">
  <g clip-path="url(#clip0)">
    <path d="M114.99 196.96c61.35 0 111.09-13.09 111.09-29.24 0-16.14-49.74-29.23-111.1-29.23-61.35 0-111.08 13.09-111.08 29.23 0 16.15 49.73 29.24 111.09 29.24z" fill="#96989A"/>
    <path fill-rule="evenodd" clip-rule="evenodd" d="M153 43v107.19l-31.2-3.9V52.74l31.2-9.75z" fill="#E4684A"/>
    <path fill-rule="evenodd" clip-rule="evenodd" d="M153 43v107.19l30.2-3.9V52.74L153 42.99z" fill="#F5886C"/>
    <path fill-rule="evenodd" clip-rule="evenodd" d="M180.28 95.61l-22.42-4.87v6.82l22.42 4.88V95.6zM180.28 107.3l-22.42-3.89v6.82l22.42 3.9v-6.82zM180.28 118.03l-22.42-2.93v6.83l22.42 2.92v-6.82zM180.28 84.9l-22.42-5.85v6.82l22.42 4.87V84.9zM180.28 73.2l-22.42-5.84v6.82l22.42 4.87V73.2zM180.28 61.5l-22.42-5.84v6.82l22.42 4.88V61.5z" fill="#91D8F7"/>
    <path fill-rule="evenodd" clip-rule="evenodd" d="M144.22 150.19c0 .97 22.41-1.95 22.41-1.95v-13.65c.98 0-19.48-3.9-21.43-3.9-.98 0-.98 19.5-.98 19.5z" fill="#FEFEFE"/>
    <path fill-rule="evenodd" clip-rule="evenodd" d="M112.06 3.04v152.02l-40.92-4.88V15.72l40.92-12.67z" fill="#E4684A"/>
    <path fill-rule="evenodd" clip-rule="evenodd" d="M112.06 3.04v152.02l40.93-4.88V15.72L112.06 3.04z" fill="#F5886C"/>
    <path fill-rule="evenodd" clip-rule="evenodd" d="M77.96 83.92l29.23-6.82v8.77l-29.23 6.82v-8.77zM77.96 98.54l29.23-4.87v8.77l-29.23 4.87v-8.77zM77.96 113.16l29.23-3.9v8.77l-29.23 3.9v-8.78zM77.96 128.75l29.23-1.95v8.77l-29.23 1.95v-8.77zM148.12 83.92l-28.26-6.82v8.77l28.26 6.82v-8.77zM148.12 98.54l-28.26-4.87v8.77l28.26 4.87v-8.77zM148.12 113.16l-28.26-3.9v8.77l28.26 3.9v-8.78zM77.96 66.38l29.23-7.8v9.75l-29.23 6.82v-8.77zM148.12 66.38l-28.26-7.8v9.75l28.26 6.82v-8.77zM77.96 47.87l29.23-6.83v8.77l-29.23 6.83v-8.77zM148.12 47.87l-28.26-6.83v8.77l28.26 6.83v-8.77zM77.96 30.33l29.23-6.83v8.77L77.96 39.1v-8.77zM148.12 30.33l-28.26-6.83v8.77l28.26 6.83v-8.77z" fill="#91D8F7"/>
    <path fill-rule="evenodd" clip-rule="evenodd" d="M149.1 141.41c-1.95 1.95-1.95 2.93-1.95 4.88v4.87c-.98 0-.98 1.95 0 1.95 0 0 5.84.97 8.76.97h6.83c.97 0 .97 0 1.94-.97 0-6.82 1.95-7.8 2.93-2.93v1.95s7.8-2.92 7.8-3.9c0-.97 0-3.9.97-4.87.97-.97.97.98.97 1.95 0 0 .98.98.98 1.95v-.97-3.9c0-.97 0-.97-.98-1.95h-2.92c-.97 0-2.92-3.9-5.85-3.9-1.95 0-8.77 0-9.74.98-1.95 0-2.93 0-3.9.97-1.95 0-4.87 1.95-5.85 2.92z" fill="#0063D4"/>
    <path fill-rule="evenodd" clip-rule="evenodd" d="M149.1 143.36c.97 0 10.71 0 12.66-.97l.98-.97v-1.95H152.02c0 .97 0 .97-.98.97l-1.95 1.95v.97z" fill="#91D8F7"/>
    <path fill-rule="evenodd" clip-rule="evenodd" d="M164.69 153.1l-1.95.98c0 .98 0 1.95.97 1.95 0 .98 1.95 0 1.95 0 .97 0 .97-.97 1.95-.97v-2.93c0-.97 0-1.94-.98-1.94 0-.98 0-1.95-.97-1.95-.97.97 0 3.9-.97 4.87zM175.4 149.21s-.97 0-1.94.97v.98h2.92c.97 0 .97 0 .97-.97 0-.98 0-5.85-.97-5.85-.98 0-.98 3.9-.98 4.87z" fill="#000"/>
    <path fill-rule="evenodd" clip-rule="evenodd" d="M166.63 138.5v1.94c.98 0 .98.97.98.97h1.95c0-.97-.98-2.92-.98-2.92h-1.95z" fill="#91D8F7"/>
    <path fill-rule="evenodd" clip-rule="evenodd" d="M152.02 154.08h-4.88c.98 0 .98 1.95.98 1.95 0 .98.97 0 1.95 0 0 0 .97.98 1.95 0v-1.95z" fill="#000"/>
    <path fill-rule="evenodd" clip-rule="evenodd" d="M170.53 141.41H173.46v-.97h-.98v-.97h-.97c-.98-.98-.98-.98-2.93-.98 0 0 .98.98 1.95 2.92z" fill="#91D8F7"/>
    <path fill-rule="evenodd" clip-rule="evenodd" d="M158.84 145.31v.98h1.95s1.95 0 1.95-.98v-.97c-.98 0-3.9.97-3.9.97z" fill="#F58634"/>
    <path fill-rule="evenodd" clip-rule="evenodd" d="M165.66 155.06c1.95-.98.97-3.9.97-3.9 0-.97 0-.97-.97-.97v4.87z" fill="#FEFEFE"/>
    <path fill-rule="evenodd" clip-rule="evenodd" d="M164.69 142.39h1.94c0-.97 0-2.92-.97-2.92 0 .97-.97 1.94-.97 2.92z" fill="#91D8F7"/>
    <path fill-rule="evenodd" clip-rule="evenodd" d="M147.15 145.31c.97.98.97.98 1.94.98v-.98c0-.97-1.94-1.95-1.94 0z" fill="#F58634"/>
    <path fill-rule="evenodd" clip-rule="evenodd" d="M171.5 142.39h.98l-.97.97-.98-.97h.98z" fill="#000"/>
    <path fill-rule="evenodd" clip-rule="evenodd" d="M149.1 147.26s.97.98.97 1.95c-.98 0-.98 1.95-.98 1.95h10.72v-1.95-1.95H149.1z" fill="#003A7D"/>
    <path fill-rule="evenodd" clip-rule="evenodd" d="M151.04 148.24h5.85v1.94h-5.85v-1.94z" fill="#FEFEFE"/>
    <path fill-rule="evenodd" clip-rule="evenodd" d="M145.2 136.54v25.34h-.98v1.95h5.85v-1.95h-.98v-25.34h1.95v-3.9h-7.8v3.9h1.96z" fill="#6E3614"/>
    <path d="M144.84 120.95h-9.39v12.7h9.39v-12.7z" fill="#E4684A" stroke="#6E3614" stroke-width=".9"/>
    <path fill-rule="evenodd" clip-rule="evenodd" d="M192.94 133.62v20.46h-.97v1.95h4.87v-1.95h-.97v-20.46h1.95v-2.92h-5.85v2.92h.97z" fill="#6E3614"/>
    <path fill-rule="evenodd" clip-rule="evenodd" d="M135.45 120.95h45.8l16.57 9.75-53.6 2.92-8.77-12.67z" fill="#E4684A" stroke="#6E3614" stroke-width=".9"/>
    <path fill-rule="evenodd" clip-rule="evenodd" d="M150.07 136.54v25.34h-.98v1.95h4.88v-1.95h-.98v-25.34h1.95v-3.9h-6.82v3.9h1.95zM189.05 133.62v20.46h-.98v1.95h3.9v-22.41h.97v-2.92h-5.84v2.92h1.95z" fill="#6E3614"/>
    <path d="M155.91 42.02l.98-5.85h1.95l-.98 1.95 2.93.98v-2.93h.97l-.97 5.85h-.98v-1.95l-1.95-.97v2.92h-1.95zm6.83-.98V39.1h.97c0-.98.97-.98.97-.98h.98c.97 0 1.95.98 1.95.98.97.97.97 1.94.97 2.92 0 .97-.97.97-.97 1.95h-2.93c-.97 0-.97 0-1.94-.98v-1.95zm.97 0V43h2.92v-2.92c0-.97 0-.97-.97-.97h-.97c-.98.97-.98.97-.98 1.94zm5.85 3.9l.97-4.87h-1.95v-.97h4.88v.97h-1.95l-.98 4.87h-.97zm3.9 1.95v-5.85l4.87.98v.97l-2.93-.97-.97 1.95h2.92v.97h-2.92v.98l2.92.97v.98l-3.9-.98zm5.84 1.95l.98-5.85h.97l-.97 4.88h2.92v.97h-3.9z" fill="#373435"/>
    <path fill-rule="evenodd" clip-rule="evenodd" d="M121.8 8.89l.98 3.9 3.9.97-3.9 1.95v3.9l-1.95-2.93-3.9 1.95 1.95-3.9-2.92-2.92 3.9.98 1.95-3.9zM135.45 11.81v3.9l3.9.97-3.9 1.95.98 3.9-2.93-2.92-3.9 1.95 1.95-3.9-2.92-2.93 4.87.98 1.95-3.9zM148.12 14.73v4.88l4.87.97-3.9.98v4.87l-2.92-3.9-3.9 1.95 2.93-3.9-2.93-2.92 3.9.97 1.95-3.9z" fill="#FFCC29"/>
  </g>
  <defs>
    <clipPath id="clip0">
      <path fill="#fff" d="M0 0h229v200H0z"/>
    </clipPath>
  </defs>
</svg>
