<svg xmlns="http://www.w3.org/2000/svg" width="223" height="208" viewBox="0 0 386 359" shape-rendering="geometricPrecision" text-rendering="geometricPrecision" image-rendering="optimizeQuality" fill-rule="evenodd" clip-rule="evenodd"><defs><linearGradient id="id0" gradientUnits="userSpaceOnUse" x1="190.281" y1="162.591" x2="51.052" y2="314.87"><stop offset="0" stop-color="#1cc8eb"/><stop offset=".631" stop-color="#0e96e0"/><stop offset="1" stop-color="#0063d4"/></linearGradient><style>.str1{stroke:#373435;stroke-width:1.55618}.fil2{fill:#d2d3d5}.fil3{fill:#4b4b4d}.fil8{fill:#0098da}.fil1{fill:#000}.fil10{fill:#1672a5}.fil9{fill:#e09200}.fil7{fill:#eda57f}</style></defs><g id="Layer_x0020_1"><g id="_642164584"><path d="M6 183c63-1 126 0 189 0 9-10 24-44 44-32 2 2 1 7 1 7s-8 0-14 2c-12 3-78 147-89 168 0 0 1 1-10 1H17l11-10h101l8-20H24s-9 1-11-6S1 191 1 191s-2-8 5-8zm127 95h12c0 1-4 10-4 10l-12-1s3-9 4-9c0 0 0 0 0 0zm15-31s12-1 12 0-10 25-10 25l-13-1s9-24 10-24h1zm12-27s14-1 14 0l-10 21h-14s8-21 9-21h1zm11-25s14-1 14 0-8 19-8 19l-15-1s7-18 8-18h1zm-58 83h16c0 1-4 10-4 10h-13v-10h1zm8-31s21-1 21 0l-9 24h-18l5-24h1zm6-27s27-1 27 0l-9 21h-24l6-21s0 0 0 0zm37-25c0 1-7 19-7 19h-28l5-19c4 0 30-1 30 0zm-74 83h20c0 1-3 10-3 10H89s0-10 1-10c0 0 0 0 0 0zm3-31s23-1 23 0-5 25-5 25H91l2-25s0 0 0 0zm3-27s27-1 27 0l-5 21H94l2-21s0 0 0 0zm32-25c0 1-4 19-4 19H97s1-19 2-19c3 0 29-1 29 0zm-64 83h21c0 1-1 10-1 10H63s-1-10 0-10h1zm-37 0h6l-1 9h-4l-2-9h1zm-3-30h9l-1 24h-7l-2-24h1zm-4-28h13l-1 21H21l-2-21h1zm17 58h21v10H36s-1-10 0-10h1zm0-31s23-1 23 0v25H36s-1-25 0-25h1zm0-27s24-1 24 0v21H36s-1-21 0-21h1zm28 27s23-1 23 0-2 25-2 25H64v-25h1zm3-27s24-1 24 0l-1 21H65s1-21 2-21h1zm0-25s26-1 26 0-1 19-1 19H67s-1-19 0-19h1zm-31 0s27-1 27 0v19H36s-1-19 0-19h1zm-20 0h15v19H17l-2-19h2z" fill="url(#id0)" stroke="#fefefe" stroke-width="1.354"/><circle class="fil1" cx="32" cy="337" r="19"/><circle class="fil1 str1" cx="134" cy="337" r="19"/><circle class="fil2" cx="32" cy="337" r="11"/><circle class="fil2 str1" cx="134" cy="337" r="11"/><circle class="fil3" cx="32" cy="337" r="6"/><circle class="fil3" cx="134" cy="337" r="6"/><path d="M213 156l12 9s1-6 11-7 11 1 11-2c0-2 0-6-1-8-2-2-11-2-18 0s-15 8-15 8z" fill="#f58634"/><path fill="none" d="M2 0h384v359H2z"/><g><path d="M321 49l8 11 8-6c1 0-1-7-2-7l-6-4-7 4-1 2z" fill="#d8a182"/><path class="fil7" d="M356 296l9 8 8-7-10-7zM253 139s-1 0-7 3c-7 2-12 4-10-1 1-6 10-9 13-10h2l2 8zM253 142l3 7s-8 4-10 6c-3 1-5 1-6 2-2 1-4 0-3-3 0-4 3-7 8-9s8-3 8-3zM303 310v10l10 1v-12z"/><path class="fil8" d="M300 312l15-1s1-23 1-29-1-23-1-26c0-2-6-29-3-40 2-10 9-37 9-37l-23-4s-11 39-10 62c0 23 9 46 10 54 1 9 2 21 2 21z" stroke="#373435" stroke-width=".672"/><path class="fil8" d="M300 168s-5 16-6 21c0 4-5 27-3 37 1 9 0 11 12 22s38 37 38 37l14 15 12-12s-10-12-16-20c-6-9-23-29-23-29s-8-7-9-9 0-3 5-15c6-11 14-27 17-35 3-9 2-12 2-10 0 1-43-2-43-2z" stroke="#373435" stroke-width=".672"/><path class="fil9" d="M251 130s3 0 7-2 34-16 34-16l11-4v-2c0-2-4-8-1-16s11-14 14-17c2-4 6-10 7-12 1-1 2-3 2-3l5-3 7-2s3 4 4 8 3 7 3 14-3 30-4 33-3 8-3 12c1 4 4 13 4 13s2 8 3 10c1 3 2 14 2 17-1 4-1 11-1 11s-4 1-9 1h-26c-4-1-8-2-10-2-1 1-3 0-3 0s1-14 3-20c2-5 3-15 4-16v-1l2-15s-28 12-34 15c-6 2-18 7-18 7l-3-10z" stroke="#6e3614" stroke-width=".672"/><path class="fil10" d="M369 294s4 1 10 5c5 4 5 7 3 9s-6 4-8 8c-3 4-4 5-4 7 0 3-4 7-7 9s-6 4-10 3c-5-1-4-4-3-6s5-4 6-8c2-5 4-14 4-16 0-1-1-3 0-4s5-3 7-4 2-3 2-3zM302 317s2 2 4 3c3 0 7-1 9 0 1 0 2 3 3 6 0 2 1 8 0 9-2 1-2 3-7 3s-7-2-10 0c-4 1-4 4-8 5s-9 1-12-1c-4-1-6-4-7-7s2-3 6-3c3-1 11-5 15-8s7-7 7-7z"/><path class="fil7" d="M308 48s0 5 1 5c1 1 10 0 12-1 1 0 4-1 5-4 0-2 0-10-2-15-2-4-2-4-6-6-5-1-9 0-10-2s-7-3-7-3v5c1 2 0 3 2 4 1 1 1 3 0 4 0 1-2 3-2 4 0 2 1 2 2 2s3 0 3 1l2 6z"/><path class="fil1" d="M301 21s3 5 7 6c4 2 10 0 12 3 2 4 5 8 4 13s7 9 8 11l7 7s-2-8-1-8 0 0 4-2 4-4 6-6c3-3 5-17 3-22S341 6 334 3c-8-3-16 0-24 4-7 5-9 9-10 10-1 2 0 8 0 10 0 1 1 3 1 3 1 1 2 1 2 1s-1-1-2-4v-6z"/><path class="fil9" d="M256 151s23-9 27-10c5-2 17-5 18-6 2-1 15-10 17-12 2-3 10-16 11-19 2-3 6-13 7-16 1-4 3-12 2-17 0-4 0-6-2-6-1 0-8 2-11 6-3 5-10 19-12 23-1 5-6 14-6 14s-2 9-4 11c-2 1-37 18-37 18l-14 6c0-1 4 5 4 6s-1 2 0 2z" stroke="#6e3614" stroke-width=".672"/><path class="fil1" d="M346 18s8 3 8 26c1 24-1 23-1 30s-5 30-4 33c1 2-1 8-1 8l-1-15-5 19s7-11 1-32c-5-20-8-37-8-43-1-5 0-14 0-14l11-12z"/></g></g></g></svg>