<svg xmlns="http://www.w3.org/2000/svg" width="199" height="151" xmlns:xlink="http://www.w3.org/1999/xlink" shape-rendering="geometricPrecision" text-rendering="geometricPrecision" image-rendering="optimizeQuality" fill-rule="evenodd" clip-rule="evenodd"><defs><linearGradient id="id0" gradientUnits="userSpaceOnUse" x1="174.553" y1="127.375" x2="200.905" y2="93.885"><stop offset="0"/><stop offset="1" stop-color="#2d2e2e"/></linearGradient><linearGradient id="id1" gradientUnits="userSpaceOnUse" x1="87.736" y1="76.057" x2="112.617" y2="69.75"><stop offset="0" stop-color="#04870f"/><stop offset="1" stop-color="#03690c"/></linearGradient><linearGradient id="id2" gradientUnits="userSpaceOnUse" xlink:href="#id0" x1="173.707" y1="71.572" x2="197.423" y2="41.431"/><linearGradient id="id3" gradientUnits="userSpaceOnUse" xlink:href="#id0" x1="172.742" y1="128.226" x2="199.399" y2="94.35"/><linearGradient id="id4" gradientUnits="userSpaceOnUse" xlink:href="#id0" x1="171.989" y1="73.028" x2="191.662" y2="48.027"/><linearGradient id="id5" gradientUnits="userSpaceOnUse" xlink:href="#id0" x1="177.874" y1="73.028" x2="197.547" y2="48.027"/><style>.str0{stroke:#373435;stroke-width:.900004}.fil4{fill:#fefefe}.fil1{fill:#000}.fil0{fill:#2887d2}.fil5{fill:#efae74}.fil11{fill:#fff212;fill-rule:nonzero}</style></defs><g id="Layer_x0020_1"><g id="_737229720"><path class="fil0" d="M14 125l34-51 51-2 42-24-6-8h19l-4 19-5-7-44 25-50 3-33 48z"/><path class="fil1 str0" d="M174 145s2-2 4-2c2-1 3-1 4-1 1-1 2-1 2-1s3 1 5 1 4-1 4-1v3c0 1 0 2-1 2h-5s-3 0-4 1c-2 0-6 1-8 1-1-1-2-1-1-3z"/><path d="M179 80s0 2 1 5c0 2 2 12 2 19 0 8 1 8 1 14v23s3 1 6 1c2 0 4-1 4-1s0-29 1-34c0-4 0-16 1-20 0-4 1-7 1-7h-17z" fill="url(#id0)" stroke="#373435" stroke-width=".165"/><path d="M179 39s2-2 4-2c3 0 4 2 5 4v12c0 1 0 7-1 9 0 2-3 18-3 19s-1 3-1 3h-7s2-12 2-14 1-9 0-12c0-3-1-14-1-17 0-2 2-2 2-2z" fill="url(#id4)" stroke="#848688" stroke-width=".165"/><path class="fil4 str0" d="M177 84v1h6v-1z"/><path class="fil5" d="M175 89h1v2h5c1-1 1-2 1-3v-3s0-1 0 0h-5s-1 0-1 1c-1 0-2 0-1 3z"/><path d="M177 80s0 3 1 5c0 3 2 13 2 20s1 7 1 13v23s3 2 5 1h5v-34c1-5 2-17 2-21 1-4 2-6 2-6l-18-1z" fill="url(#id3)" stroke="#373435" stroke-width=".165"/><path d="M192 31s3 4 3 8c1 4 2 11 1 14v29l-19-1s-2 0-2-4V57v-8c1-1 4-10 5-12 1-1 12-6 12-6z" fill="url(#id2)"/><path d="M181 35s-1 0-2 1v2h1s0-1 1-1c0-1 1-2 1-2h-1z" fill="#ed3237"/><path d="M176 47s1-5 2-6c0-1 1-3 1-3v-1l1 1s0 2-1 3l-1 2-2 4z" fill="#be3437"/><path class="fil1" d="M191 29l1 2c-1 0-11 6-12 6 0 0 0-2 1-2 0-1 3-2 4-3 1 0 5-2 6-3z"/><path class="fil1 str0" d="M172 146s2-2 4-2c2-1 3-1 4-2 1 0 1-1 1-1s3 1 6 1h3s1 2 1 3 0 2-1 2h-5-5c-1 1-5 1-7 1-1 0-3-1-1-2z"/><g><path d="M184 39s2-2 5-2 4 2 4 4c1 2 0 11 0 12s1 7 0 9c0 2-3 18-3 19s-1 3-1 3h-7s2-12 2-14 1-9 0-12c0-3-1-14-1-17 0-2 1-2 1-2z" fill="url(#id5)" stroke="#848688" stroke-width=".165"/><path class="fil4 str0" d="M183 84v1h6v-1z"/><path class="fil5" d="M181 89l1 1v1h5c1-1 1-2 1-3v-3s0-1 0 0h-5s-1 0-1 1c-1 0-2 0-1 3z"/></g><g><path class="fil1 str0" d="M177 17s-1-2 1-3c3-1 3-2 7-2 4-1 6 3 7 6s-1 9-1 10c-1 1-2 1-2 1s-3-2-3-3-4-1-5-3-1-5-1-5l-1-1h-2z"/><path class="fil5" d="M182 33l-1-3s-3 1-3 0c-1 0-1-2-1-3v-2h-2s0-1 1-2 1-1 1-2v-4-1c1 0 3 0 3 1 1 0 2 1 2 2v3c0 1 0 0 1-1 0-1 0-2 1-1 1 0 1 0 2 1v5c1 1 4 3 4 3h1s-7 2-9 4z"/><path class="fil4" d="M191 29s-2 0-4 1c-3 1-5 2-5 2l-1 3 10-6z" stroke="#373435" stroke-width=".165"/><path class="fil1" d="M178 15v2c-1 1-1 0-1 1l1 1v-2-1s1 0 1 1c-1 0-1 1-1 1v1h1v-2-1 3h1v-3l-1-1h-1zM187 25v1c-1 1-1 1-1 2l1 1v-2-2l1 1c0 1-1 1-1 2v1l1-1v-1-2 4s0-1 1-1v-4h-1l-1 1z"/></g><g><circle class="fil0" cx="49" cy="77" r="13"/><path class="fil11" d="M51 80v-1s-1 0-2-1h-1l-1-1-1-1v-2-2c1-1 2-1 3-1v-2h1v2c2 0 2 0 3 1 0 1 1 1 1 2s-1 1-1 1h-1s-1 0-1-1v-1h-3v2c1 1 1 1 2 1s1 1 2 1c0 0 1 0 1 1l1 1v1c0 1-1 2-1 3-1 0-2 1-3 1v2h-1v-1-1c-1 0-2-1-3-1-1-1-1-2-1-3 0 0 0-1 1-1h1l1 1v1c0 1 1 1 2 1l1-1v-1z"/></g><g><circle cx="100" cy="73" r="13" fill="url(#id1)"/><path class="fil11" d="M102 76v-1c-1 0-1-1-2-1 0 0-1 0-1-1-1 0-1 0-2-1v-1c-1 0-1-1-1-1 0-1 1-2 1-3 1 0 2-1 3-1v-1-1h1v2c1 0 2 1 3 2 0 0 1 1 1 2s-1 1-1 1h-1c-1 0-1 0-1-1v-1c-1-1-1-1-2-1l-1 1v2s1 0 2 1c0 0 1 0 1 1h2v2s1 0 1 1-1 2-1 2c-1 1-2 1-3 1v2h-1v-1c-2-1-3-1-3-2-1-1-1-1-1-2s0-1 1-1h1v1l1 1h3v-1z"/></g><g><circle cx="15" cy="124" r="13" fill="#fa0303"/><path class="fil11" d="M17 127v-2h-2c0-1-1-1-1-1-1 0-1-1-1-1-1 0-1-1-1-1v-2-2c1-1 2-1 3-1v-2h1v2c1 0 2 1 3 1 0 1 1 2 1 3l-1 1h-1l-1-1v-2h-3v3h2c1 1 1 1 2 1l1 1s0 1 1 1v2c0 1-1 1-1 2-1 1-2 1-3 1v2h-1v-2c-1 0-2 0-3-1s-1-2-1-3c0 0 0-1 1-1h1l1 1v2h3v-1z"/></g><path fill="none" d="M0 0h199v151H0z"/></g></g></svg>