<svg xmlns="http://www.w3.org/2000/svg" width="276" height="197" viewBox="0 0 275 196" xmlns:xlink="http://www.w3.org/1999/xlink" shape-rendering="geometricPrecision" text-rendering="geometricPrecision" image-rendering="optimizeQuality" fill-rule="evenodd" clip-rule="evenodd"><defs><linearGradient id="id0" gradientUnits="userSpaceOnUse" x1="137.401" y1="31.705" x2="138.6" y2="-2.827"><stop offset="0" stop-color="#848688"/><stop offset="1" stop-color="#fff"/></linearGradient><linearGradient id="id1" gradientUnits="userSpaceOnUse" xlink:href="#id0" x1="136.191" y1="158.348" x2="139.809" y2="14.29"/><linearGradient id="id2" gradientUnits="userSpaceOnUse" x1="159.422" y1="47.84" x2="182.432" y2="47.84"><stop offset="0" stop-color="#91d8f7"/><stop offset="1" stop-color="#25a6d9"/></linearGradient><linearGradient id="id3" gradientUnits="userSpaceOnUse" xlink:href="#id2" x1="191.456" y1="47.84" x2="214.465" y2="47.84"/><style>.fil24{fill:#a98f71}.fil20{fill:#000}.fil25{fill:#ba9d72}.fil23{fill:#e4bf87}.fil12,.fil19{fill:#bdbfc1;fill-rule:nonzero}.fil19{fill:#f6b998}.fil13,.fil5,.fil7{fill:#eea880;fill-rule:nonzero}.fil5,.fil7{fill:#e8e9ec}.fil7{fill:#cdcfd6}.fil10,.fil22,.fil4{fill:#bbbbba;fill-rule:nonzero}.fil10,.fil4{fill:#a3a9b3}.fil10{fill:#9da2af}.fil11,.fil3,.fil9{fill:#4e4e53;fill-rule:nonzero}.fil11,.fil3{fill:#000}.fil3{fill:#2887d2}</style></defs><g id="Layer_x0020_1"><g id="_601756680"><path fill="none" d="M0 0h275v196H0z"/><path fill="url(#id1)" fill-rule="nonzero" d="M13 155h250V17H13z"/><path fill="url(#id0)" fill-rule="nonzero" d="M13 29h250V0H13z"/><path class="fil3" d="M275 19H1L8 0h260z"/><path class="fil4" d="M183 55h-25V42v12h25zM215 55h-25V42v12h25z"/><path class="fil5" d="M158 54h26V41h-26z"/><path fill="url(#id2)" fill-rule="nonzero" d="M159 53h23V43h-23z"/><path class="fil7" d="M170 53h1V43h-1z"/><path class="fil7" d="M159 48h23v-1h-23z"/><path class="fil5" d="M190 54h26V41h-26z"/><path fill="url(#id3)" fill-rule="nonzero" d="M191 53h23V43h-23z"/><path class="fil7" d="M202 53h1V43h-1z"/><path class="fil7" d="M191 48h23v-1h-23z"/><g><path class="fil5" d="M31 155h83V44H31z"/><path class="fil9" d="M30 45h85v-4H30zM33 117h79v-11H33z"/><path class="fil7" d="M33 155h79V45H33z"/><path class="fil10" d="M33 50h79v-1H33zM33 55h79v-2H33zM33 59h79v-2H33zM33 63h79v-1H33zM33 68h79v-2H33zM33 72h79v-2H33zM33 76h79v-2H33zM33 80h79v-1H33zM33 85h79v-2H33zM33 89h79v-2H33zM33 93h79v-1H33zM33 98h79v-2H33zM33 102h79v-2H33zM33 106h79v-1H33zM33 111h79v-2H33zM33 115h79v-2H33zM33 119h79v-1H33zM33 124h79v-2H33zM33 128h79v-2H33zM33 132h79v-1H33zM33 136h79v-2H33zM33 140h79v-2H33zM33 144h79v-1H33zM33 148h79v-2H33zM33 152h79v-2H33zM33 156h79v-1H33z"/></g><g><path class="fil11" d="M223 155c0-1-1-2-2-3 0-1-2-2-2-2-1 0 0 2 1 3s2 2 3 2zm-9 5l4-7c-1-2-1-4 0-4s2 1 4 2c1 2 2 4 2 5-1 1-2 0-4-1l-4 5h-2z"/><path class="fil12" d="M234 158h1l4-8c1 0 1 0 1-1 0 0-1-2-3-1h-1l-3 6h-9v3l10 1z"/><path class="fil13" d="M224 154v3h-1c-1 0-1-1-1-2s1-1 2-1zM241 145l-1 4h-2v-5z"/><path d="M233 160l-7 3c-1 1-2 1-2 2v9l5 1 1-8 8-1c1 0 3-1 3-3v-3h-8z" fill="#a9abae" fill-rule="nonzero"/><path class="fil11" d="M229 175l-1 2h-6s-1-2 2-3l5 1z"/><path d="M227 163l5-3c1-5 2-7 3-10 0-1 1-2 3-3h3c1 1 2 2 2 3 0 5-1 10-1 11v2c0 2-1 3-3 3l-8 1-1 8h-4v-10s0-1 1-2z" fill="#727376" fill-rule="nonzero"/><path d="M233 158v1-1z" fill="#ebe1b6" fill-rule="nonzero"/><path d="M233 158v-3 3z" fill="#d97839" fill-rule="nonzero"/><path d="M236 159h1l4-8c0-1 0-2-2-2h-1l-4 6h-1v4h3z" fill="#bfc3c4" fill-rule="nonzero"/><path class="fil12" d="M235 158h1l4-8h1c0-1-1-3-3-2 0 0-1 0-1 1l-3 5h-9v3l10 1z"/><path class="fil19" d="M225 154v3h-1c-1 0-1-1-1-2 0 0 1-1 2-1z"/><path class="fil11" d="M241 133c1 0 3 1 3 1 2 2 2 4 1 7 0 2-3 2-3 2v-2s1-1 1-2l-1 1h-1s1-2 1-3h-5c-1 0-1-1-2-1-3-3 5-3 6-3z"/><path class="fil19" d="M242 137c0 1-1 2-1 2l1 1 1-1c1 0 1 0 1 1s-1 2-1 1h-1v2c0 2-2 3-4 3s-3-2-3-4v-6h2c4 1 4 0 5 1z"/><path class="fil11" d="M230 175v3l-7-1s-1-2 3-2h4z"/><path class="fil20" d="M240 136v1c0 1-1 1-1 1s1 1 1 0c1-1 1-2 1-2h-1z"/><path class="fil20" d="M240 135v2c-1 0-1 1-1 1l1-1c1-1 0-2 0-2zM241 136v1c0 1-1 2-1 2s1 0 1-1c1-1 1-2 1-2h-1zM237 136s-1 0-1 1l-1 1v-1l2-2v1z"/><path class="fil20" d="M238 136s-1 0-1 1c-1 0-1 1-1 1v-2c1 0 1-1 1-1l1 1zM236 135l-1 1v1s-1 0 0-1c0-1 1-1 1-1z"/><path class="fil11" d="M185 184v-35h5v-23h11v10h-3v45h-8v-27h-1v33h-62v-3z"/><path class="fil3" d="M195 181h-2v-55h2z"/><path class="fil11" d="M214 125c1-2 3-3 5-3h39c1 0 2 1 2 2v29l-4 5v-29c0-1-2-2-3-2l-31-1c-2 0-4 2-5 4l-6 24v1h-6l9-30z"/><path class="fil11" d="M216 153l8 5v21h-10v-26zM242 161c1-1 1-5 2-9 1-2 2-3 3-3 2-1 3-1 4-1s1 1 1 1c0 5-1 14-4 17-4 6-10 14-10 14h-9l2-14s0-2 9-3c1 0 2-1 2-2z"/><path d="M207 153h10s-2 23 2 23h19l14-25h9c6 0 9 3 12 9 1 2 2 5 2 8v14c0 4-1 6-4 6h-73c7-14-1-16-1-16s8-16 10-19z" fill="#00afef" fill-rule="nonzero"/><path class="fil11" d="M255 169c9 0 16 7 16 15 0 2 0 3-1 4h-3v-2c0-7-5-13-12-13-6 0-11 6-11 13v2h-4v-4c0-8 7-15 15-15zM194 178l-3-5c3-2 7-4 12-4 8 0 15 7 15 15v4h-4v-2c0-7-5-13-11-13-4 0-7 2-9 5z"/><path class="fil11" d="M191 184c0 7 5 12 12 12 6 0 11-5 11-12 0-6-5-12-11-12-7 0-12 6-12 12z"/><path class="fil22" d="M195 184c0 4 4 7 8 7s7-3 7-7-3-7-7-7-8 3-8 7z"/><path class="fil11" d="M244 184c0 7 5 12 11 12 7 0 12-5 12-12 0-6-5-12-12-12-6 0-11 6-11 12z"/><path class="fil22" d="M248 184c0 4 3 7 7 7s7-3 7-7-3-7-7-7-7 3-7 7z"/><path class="fil11" d="M200 184c0 2 1 3 3 3 1 0 3-1 3-3 0-1-2-3-3-3-2 0-3 2-3 3zM252 184c0 2 2 3 3 3 2 0 3-1 3-3 0-1-1-3-3-3-1 0-3 2-3 3z"/><g><path class="fil23" d="M122 151h33.37v33.37H122z"/><path class="fil24" d="M134 153h10.875v1.936H134z"/><path class="fil25" d="M156 151l-8-3h-31l5 3h34z"/><path class="fil25" d="M122 184l-5-4v-32l5 3v33z"/></g><g><path class="fil23" d="M152 151h33.37v33.37H152z"/><path class="fil24" d="M163 153h10.875v1.936H163z"/><path class="fil25" d="M185 151l-8-4h-31l6 4h33z"/><path class="fil25" d="M152 184l-3-4v-33l3 4v33z"/></g><g><path class="fil23" d="M138 117h33.37v33.37H138z"/><path class="fil24" d="M149 119h10.875v1.936H149z"/><path class="fil25" d="M171 117l-8-4h-31l6 4h33z"/><path class="fil25" d="M138 150l-6-4v-33l6 4v33z"/></g></g></g></g></svg>