<svg xmlns="http://www.w3.org/2000/svg" width="347" height="143" viewBox="0 0 359 148" shape-rendering="geometricPrecision" text-rendering="geometricPrecision" image-rendering="optimizeQuality" fill-rule="evenodd" clip-rule="evenodd"><defs><style>.fil6{fill:#fefefe}.fil7{fill:#91d8f7}.fil5{fill:#2887d2}.fil0{fill:#99562c}.fil2{fill:#ad5f2f}.fil3{fill:#bf774a}</style></defs><g id="Layer_x0020_1"><g id="_658555360"><rect class="fil0" x="42" y="22" width="297.114" height="30.298" rx="7" ry="11"/><path d="M199 22h-4s-92 1-117 1-28 3-28 10c-1 6-1 26-1 26s2-1 5-2 12-1 12-1h61s54 1 70-1c14 2 60 1 60 1h61s9 0 12 1 5 2 5 2-1-20-1-26c0-7-3-10-28-10s-107-1-107-1z" fill="#bf774a"/><path class="fil0" d="M53 49h137c7 0 13 6 13 13v67c0 6-6 12-13 12H53c-7 0-11-6-11-13V39c2 5 3 10 11 10z"/><path class="fil0" d="M25 77s-7 0-13 6-4 18-1 21c2 4 6 7 13 9 6 1 28 0 33 0V77c-9 1-32 0-32 0zm4 10c5 0 8 4 8 9 0 4-3 7-8 7-4 0-7-3-7-8s3-8 7-8z"/><path class="fil2" d="M49 54s-1 70 0 70 0 7 8 7h119s7 1 8-6V62s1-6-7-6H55c-1-1-5-4-6-2z"/><rect class="fil3" x="61" y="70" width="110.271" height="52.416" rx="4" ry="4"/><path class="fil0" d="M331 49H191c-7 0-12 6-12 13v67c0 6 5 12 12 12h140c6 0 8-6 8-12V59l-1-20c-2 6 0 10-7 10z"/><path class="fil2" d="M333 54s1 70 0 70 0 7-8 7H206s-7 1-8-6V62s-1-6 6-6h123c1-1 5-4 6-2z"/><rect class="fil3" x="210" y="70" width="110.271" height="52.416" rx="4" ry="4"/><path fill="none" d="M0 0h359v148H0z"/><rect class="fil5" x="62" y="4" width="117.152" height="60.25" rx="3" ry="3"/><path class="fil6" d="M68 12h105.136v46.037H68z"/><path class="fil7" d="M125 21h35.863v5.738H125zM93 21h24.864v5.738H93zM115 30h46.623v5.738H115zM75 30h35.863v5.738H75zM125 41h35.863v5.738H125z"/><g><rect class="fil5" x="193" y="17" width="117.152" height="60.25" rx="3" ry="3"/><path class="fil6" d="M199 24h105.136v46.037H199z"/><path class="fil5" d="M196 20h64.75v54.902H196z"/><circle cx="284" cy="47" r="19" fill="#00a859"/><path d="M287 53c0-1 0-2-1-2 0-1-1-1-2-1-1-1-2-1-3-2-1 0-1-1-2-1-1-1-1-1-1-2-1-1-1-2-1-3 0-2 1-3 2-4s2-2 4-2v-3h3v3c2 0 3 1 4 2 1 2 2 3 2 5h-5c0-1 0-2-1-3h-4v4c1 1 2 1 3 2 1 0 2 1 3 1l2 2c1 0 1 1 1 1 1 1 1 2 1 3 0 2-1 3-2 4s-3 2-5 2v3h-2v-3c-2 0-4-1-5-2s-2-3-2-5h5c0 1 0 2 1 3 0 0 1 1 2 1s2-1 2-1c1 0 1-1 1-2z" fill="#fff212" fill-rule="nonzero"/><g><path class="fil7" d="M228 33h26.899v5.738H228zM203 33h18.649v5.738H203zM203 45h51.022v5.738H203zM203 56h51.022v5.738H203z"/></g></g></g></g></svg>