<svg xmlns="http://www.w3.org/2000/svg" width="225" height="173" viewBox="0 0 208 159" xmlns:xlink="http://www.w3.org/1999/xlink" shape-rendering="geometricPrecision" text-rendering="geometricPrecision" image-rendering="optimizeQuality" fill-rule="evenodd" clip-rule="evenodd"><defs><linearGradient id="id1" gradientUnits="userSpaceOnUse" x1="104.202" y1="3.089" x2="104.202" y2="53.906"><stop offset="0" stop-color="#6caed1"/><stop offset="1" stop-color="#f6ecbe"/></linearGradient><linearGradient id="id2" gradientUnits="userSpaceOnUse" xlink:href="#id1" x1="163.724" y1="3.089" x2="163.724" y2="53.906"/><clipPath id="id0"><path d="M95 45c6 0 12 4 13 9H81c2-5 7-9 14-9z"/></clipPath><style>.fil13{fill:#fefefe}.fil57{fill:#fefefd}.fil58{fill:#fffefb}.fil59{fill:#fffefa}.fil60{fill:#fffef9}.fil61{fill:#fffef8}.fil62{fill:#fffef7}.fil63,.fil64{fill:#fffef6}.fil65{fill:#fffef5}.fil66{fill:#fffef4}.fil67{fill:#fffdf3}.fil68,.fil69{fill:#fffdf2}.fil71{fill:#fffcf0}.fil72,.fil73{fill:#fffcef}.fil74{fill:#fffcee}.fil75{fill:#fffced}.fil76,.fil77{fill:#fffbec}.fil78{fill:#fffbeb}.fil79{fill:#fffbea}.fil31{fill:#fcd3c2}.fil81,.fil82{fill:#fefbe9}.fil83{fill:#fefae8}.fil84{fill:#fefae7}.fil85,.fil86{fill:#fefae6}.fil87{fill:#fefae5}.fil88{fill:#fefae4}.fil89,.fil90{fill:#fefae3}.fil91{fill:#fefae2}.fil92,.fil93{fill:#fefae1}.fil94{fill:#fefae0}.fil95{fill:#fefadf}.fil96,.fil97{fill:#fefade}.fil98{fill:#fefadd}.fil101{fill:#fef8db}.fil102{fill:#fef8da}.fil103,.fil104{fill:#fef8d9}.fil105{fill:#fef8d8}.fil106,.fil107{fill:#fef8d7}.fil108{fill:#fef8d6}.fil109{fill:#fef8d5}.fil110,.fil111{fill:#fef8d4}.fil112{fill:#fef8d3}.fil113{fill:#fef7d2}.fil114,.fil115{fill:#fef7d1}.fil116{fill:#fef7d0}.fil117,.fil118{fill:#fef7cf}.fil119{fill:#fef7ce}.fil120{fill:#fef7cd}.fil121,.fil122{fill:#fef7cc}.fil123{fill:#fef7cb}.fil124{fill:#fef7ca}.fil125,.fil126{fill:#fef7c9}.fil127{fill:#fef7c8}.fil12{fill:#e8e7e8}.fil33{fill:#dddddc}.fil48{fill:#dcb6a8}.fil34{fill:#d2d4d4}.fil29{fill:#bcbfc1}.fil27{fill:#96989b}.fil41{fill:#737576}.fil40{fill:#606263}.fil49{fill:#4d4d4e}.fil10{fill:#4c4c4d}.fil7{fill:#3e4043}.fil26{fill:#4e5c63}.fil39{fill:#424c53}.fil47{fill:#295166}.fil46{fill:#284658}.fil52{fill:#1672a5}.fil15,.fil20,.fil53,.fil54{fill:#fefefe;fill-rule:nonzero}.fil20,.fil53{fill:#373435}.fil20{fill:#f2f3f2}.fil16,.fil18,.fil25{fill:#dfe6ed;fill-rule:nonzero}.fil16,.fil25{fill:#c7ccd9}.fil16{fill:#bfc0c1}.fil21,.fil24,.fil4{fill:#b9bbc9;fill-rule:nonzero}.fil21,.fil4{fill:#a5abb3}.fil4{fill:#1672a5}</style></defs><g id="Layer_x0020_1"><path d="M76 3h57v51H76V3zm117 0h-59v51h59V3z" fill="#52658c" stroke="#fefefe" stroke-width=".83"/><path d="M8 17h31c1 0 2 1 2 3v37H6V20c0-2 1-3 2-3z" fill="#bdbfc1"/><path fill="url(#id2)" d="M135 3h58.003v50.818H135z"/><path d="M6 17h30c1 0 3 1 3 3v34H4V20c0-2 1-3 2-3z" fill="#fefefe"/><path id="1" class="fil4" d="M36 18H6v-2h30v2zm4 2h-2v-1h-1v-1h-1v-2h1v1h2v2l1 1zm-2 34V20h2v34l-1 1-1-1zm2 0v1h-1l1-1zM4 53h35v2H4l-1-1 1-1zm0 2H3v-1l1 1zm1-35v34H3V20h2zm1-4v2H5v2H3v-2h1v-1h1v-1h1z"/><path d="M165 22s-1-1 2-3c2-2 4-3 8-3 4-1 8 2 9 6s-1 12-2 13-1 2-1 2-4-3-4-4-5-2-6-4l-2-6-1-1h-3z" stroke="#373435" stroke-width=".83"/><path d="M172 41l-1-3s-4 1-5 1c0-1-1-3-1-4v-3l-2-1 1-1c1-2 1-2 1-3 1-1 0-4 0-5v-1c1-1 4 0 5 0 1 1 1 2 1 4 1 1 0 3 1 3v-1c1-1 1-2 2-2 2 0 2 0 2 2s0 6 1 6c0 1 4 4 4 4l1 2s-9 0-10 2z" fill="#efae74"/><path class="fil7" d="M139 145c-1 0-1 7-1 10 0 1-1 1-1 1h-8c-1 0-1-1-1-1-1 0-6 1-7 1s-21 0-16-4c15-2 19-5 26-10l8 3z"/><path d="M178 97c-6 2-33 10-33 10l-6 42s-15-2-14-3c0 0 11-50 13-51 1-1 35-3 35-3l5 5z" fill="#464647"/><path d="M144 111l-5 38h-4l8-38h1z" fill="#444"/><path class="fil7" d="M117 141s-1 6-1 9c0 1-1 2-1 2-2 0-6-1-9-1 0 0 0-2-1-1h-6c-2 0-21-3-16-6 16 0 20-3 28-7l6 4z"/><path class="fil10" d="M183 92c1 2 0 8-2 11-1 2-39 0-39 0s-18 30-20 34c-2 3-4 7-4 7s-13-3-13-4c1-1 28-44 30-46s48-2 48-2z"/><path d="M178 103s0 1-1 1c-10 1-35-1-35-1s-18 30-20 34c-2 3-4 7-4 7s-3 0-6-1c7-11 28-42 28-42l38 2z" fill="#49494a"/><path class="fil12" d="M180 39c-14 1-14 16-13 27s1 13 0 19-3 8 0 8c2 1 16 2 18 0 2-1 6-15 4-29 0-4-3-26-9-25z"/><path class="fil10" d="M171 49c-1 3-1 30-2 31-1 4-2 9-3 9 0 0-1-5-1-10 0-4 4-30 4-30h2z"/><path class="fil13" d="M116 58h-1v1h1v-1z"/><path d="M106 73l-1 1c1 0 1 0 1-1z" fill="#363435"/><g id="_687865296"><path class="fil15" d="M68 79l31 1 12-7-24-1z"/><path class="fil16" d="M99 80l-31-1 31 1zm0 0zm12-7l-12 7 12-8v1zm0-1v1-1zm-24 0h24v1l-24-1zm0 0zm-19 7l19-7-19 7zm0 0z"/><path class="fil15" d="M68 78l31 1 12-8-24-1z"/><path class="fil16" d="M99 79l-31-1 31 1zm0 0zm12-8l-12 8 12-8zm0 0zm-24-1l24 1-24-1zm0 0zm-19 8l19-8-19 8zm0 0z"/><path fill="#b7c0c6" fill-rule="nonzero" d="M68 76l31 1 12-8H87z"/><path class="fil18" d="M69 75l31 1 12-8-24-1z"/><path class="fil15" d="M68 74l26 1h5l12-8-24-1z"/><path d="M94 75l-26-1 26 1zm5 0h-5 5zm0 0zm12-8l-12 8 12-8zm0 0zm-24-1l24 1-24-1zm0 0zm-19 8l19-8-19 8zm0 0z" fill="#d2d4d5" fill-rule="nonzero"/><path class="fil18" d="M69 72l31 1 12-8H88z"/><path class="fil20" d="M69 70l31 2 12-8-24-1z"/><path class="fil15" d="M70 69l31 1 12-8-24-1z"/><path class="fil15" d="M70 67l31 2 12-8-24-1z"/><path class="fil16" d="M101 69l-31-2 31 2zm0 0zm12-8l-12 8 12-8zm0 0zm-24-1l24 1-24-1zm0 0zm-19 7l19-7-19 7zm0 0z"/><path class="fil21" d="M76 66l24 1 1-1-23-1zM79 65l23 1 1-1-22-1zM83 63l21 1h1l-21-1zM85 62l21 1h1l-20-1zM88 61l20 1 1-1H89z"/><path class="fil20" d="M67 66l19 1-6-6z"/><path d="M82 60l-2 1 6 6 12 1 12-8-21-1c-2 2-4 2-7 1z" fill="#e8e7e8" fill-rule="nonzero"/><path d="M82 60c3 1 5 1 7-1h-3l-4 1z" fill="#dae0ec" fill-rule="nonzero"/><path class="fil24" d="M85 66h12l1-1H84z"/><path class="fil25" d="M75 64l-2 1 12 1-1-1z"/><path class="fil24" d="M83 64l16 1 1-1-17-1z"/><path class="fil25" d="M78 63l-2 1h7v-1zM81 62l-2 1h3l-1-1z"/><path class="fil24" d="M82 63h20l-21-1zM82 61l21 1h1l-21-1zM85 60l20 1h1l-20-1z"/></g><path class="fil26" d="M110 65c-2 3-3 5-4 7h1c1-1 3-3 5-6s3-6 4-7l-1-1c-1 1-3 4-5 7z"/><path class="fil13" d="M115 59c1 0 1 0 1 1 0 0-2 3-3 4 0 1-1 1-1 2l4-6v-1l-1-1-1 1h1zM110 65l-1 1 2 1v-1l-1-1zM106 72c0 1-1 1-1 1l1 1c0-1 0-1 1-2h-1z"/><path class="fil27" d="M105 88h31v-4h-31z"/><path fill="#868b90" d="M105 88h31v-2h-31z"/><path class="fil29" d="M38 156h74V76H38z"/><path fill="#a8aaad" d="M33 78h84v-4H33z"/><path class="fil31" d="M156 55c-2 1-32 14-33 14s-4-4-5-5h-4-5c0 1-4 2-4 2 1 1 2 1 3 1s4-1 3 0c0 0-5 3-5 4-1 2 4-2 7-2l-5 4s0 1 1 1c0 0 1-1 3-2 1 0 1 0 2-1 0 1 0 3 1 3h5c1 0 3-1 3-1 1 0 32-8 32-8l1-10z"/><path d="M108 73h1c1 0 3-2 4-2s3-1 3-1l-2 1c0 1 1 2 1 2 0 1 2 1 3 0v-1s1 0 1 1l-1 1h2c0-1 3-2 3-2l31-10s0 1 1 3c-4 1-31 8-32 8 0 0-2 1-3 1h-5c-1 0-1-2-1-3-1 1-1 1-2 1-2 1-3 2-3 2-1 0-1 0-1-1zm-2-2c-1 1 4-2 7-2l1-1c-1 0-5 2-6 3h-2zm-1-5c1 1 2 1 3 1h3l2-1h-8z" fill="#eec8b9"/><path class="fil12" d="M183 51c3-3-1-11-4-10-2 1-20 10-23 12-4 2-6 3-5 3 0 1 3 6 3 7s1 3 1 2c7-3 23-9 28-14z"/><path class="fil33" d="M183 94c1 0 2-1 2-1 2-1 6-15 4-29 0-4-3-20-7-24-1 0-2 1-2 1s6 18 6 22c1 3-3 25-3 31z"/><path class="fil34" d="M155 64c1 1-1 2 1 2 7-4 15-7 22-11-8 3-16 6-23 9z"/><path d="M155 58s-1-3-2-3-3 0-4 1c-1 0-1 2-1 2 0 1 2 4 3 6 0 2 0 4 1 4h6l-1-3c-1 0-2-7-2-7z" fill="#d8dae0"/><path fill="#989b9d" d="M112 76H33v2h84v-2z"/><path class="fil26" d="M156 104c7 0 18-1 26-1-1-13 5-14 6-23-13 0-36-5-32 24zm-10 1c1 0 4 0 5-1-1-5-1-19 5-24 7-7 23-5 32-5 0-7 2-28 2-32 1-10 10-9 13-8 6 1 0 61-5 69 2 3 3 8-3 9s-51 4-54 0c-4-5 1-8 5-8z"/><path fill="#848588" d="M168 135h4v-22h-4z"/><path fill="#919191" d="M170 135h2v-22h-2z"/><path class="fil39" d="M199 108c1 2 0 4-4 5-2 0-11 1-20 2v1l2 1c0-1 1-1 2 0l2 2c1 0 1 1 0 2h-2l-2-2c-1 0-1-1-1-2l-1-1h-1v-1c-14 0-31 0-33-2-1-1-1-2-1-3l59-2zM200 34c1 0 3 1 3 1 6 1 0 61-5 69l-2-1c-2-1-13 0-13 0s7-1 9-4c1-1 7-59 8-65z"/><path class="fil10" d="M167 132h6v15l15 3c1 0 2 0 2 1 0 2-1 3-2 2l-16-2h-4l-16 2c-1 1-2 0-2-2 0-1 1-1 2-1l15-3v-15z"/><path class="fil10" d="M151 156c2 0 3-1 3-3 0-1-1-2-3-2-1 0-2 1-2 2 0 2 1 3 2 3zM188 156c2 0 3-1 3-3 0-1-1-2-3-2-1 0-2 1-2 2 0 2 1 3 2 3zM168 147h4l-1 7h-2z"/><path class="fil10" d="M170 156c1 0 2-1 2-3 0-1-1-2-2-2-2 0-3 1-3 2 0 2 1 3 3 3z"/><path class="fil40" d="M133 82h-2v1h2zM130 82h-2v1h2zM128 82h-2v1h2zM125 82h-2v1h2zM123 82h-2v1h2zM120 82h-2v1h2zM118 82l-2-1v2h2z"/><path class="fil10" d="M134 84v-1l-21-1v2h21zM114 83v0zM38 156h74v-2H38z"/><path class="fil41" d="M38 79h74v-1H38z"/><path d="M176 42c-4 3-28 12-28 12 1 3 2 11 3 10 0 0 26-11 28-12s2-2 2-3c-1 0-5-7-5-7z" fill="#e0e2e4"/><path class="fil31" d="M148 55c-1 1-24 12-25 12 0 0-3-3-4-3h-3s-3 1-4 1c-1 1-4 2-3 2 1 1 2 0 2 0 1 0 3-1 3 0 0 0-4 3-4 4s3-2 5-3l-3 4c0 1 0 1 1 1 0-1 1-1 2-2 0-1 1-1 2-1-1 0 0 2 1 2 0 0 2 0 4-1 1 0 2-1 2-1l25-8-1-7z"/><path class="fil34" d="M151 56s-1-3-2-3-3 0-4 1c-1 0-1 2-1 2 0 1 2 4 3 6 0 2 0 4 1 4 2 0 5 0 5-2-1-2-2-5-2-8z"/><path class="fil10" d="M173 41c-1 1-3 1-4 2 0 1-1 3 0 3s1 0 2-1c1 0 2-4 2-4z"/><path class="fil33" d="M182 40l-1-3s-8 2-9 3l-2 4 12-4z"/><path class="fil10" d="M59 18l1-1 4 47h-1c-3-5-5-14-6-23 0-2-1-4-1-6 0-7 1-13 3-17z"/><path class="fil40" d="M62 17l-3 1 4 46h3zM67 74h7v-1h-7z"/><path class="fil41" d="M71 64h-1 1zm0 0h-1 1zm0-1h-1 1zm0 0h-1 1zm0 0h-1 1zm0-1h-1 1zm0 0h-1 1zm0 0h-1 1zm0-1h-1 1zm0 0h-1 1zm0 0h-1 1zm0-1h-1 1zm0 0h-1 1zm0 0h-1 1zm0-1h-1 1zm0 0h-1 1zm0 0h-1 1zm0-1h-1 1zm0 0h-1 1zm0 0h-1 1zm0-1h-1 1zm0 0h-1 1zm0 0h-1 1zm0-1h-1 1zm0 0h-1 1zm0 0h-1 1zm0-1h-1 1zm0 0h-1 1zm0 0h-1 1zm0-1h-1 1zm0 0h-1 1zm0 0h-1 1zm0-1h-1 1zm0 0h-1 1zm0 0h-1 1zm0-1h-1 1zm0 0h-1 1zm0 0h-1 1zm0-1h-1 1zm0 0h-1 1zm0 13h-1 1zm-1-14v15h3V50h-3z"/><path class="fil27" d="M73 65V50z"/><path class="fil29" d="M70 57h-1v-2h1v2z"/><path class="fil40" d="M70 58h-1l-1-2h2v2z"/><path class="fil10" d="M69 56h1v1h-1v-1z"/><path class="fil40" d="M70 71l-2-14h2l2 14z"/><path class="fil10" d="M71 71l-2-14h1l2 14z"/><path fill="#aeaeb1" d="M70 57v-1l-2 1v4h1v-2l-1-2z"/><path class="fil10" d="M74 58h-1l-1 13h1z"/><path fill="#434446" d="M74 58h-1l-1 13z"/><path class="fil10" d="M74 54l-1 5h1v-5z"/><path fill="#595772" d="M74 59h-1 1z"/><path class="fil46" d="M66 58l3 11h1l-3-11h-1z"/><path class="fil47" d="M66 58l3 11-3-11z"/><path class="fil31" d="M67 58l-1-2v2c1 0 1 1 1 0z"/><path class="fil48" d="M66 56v2-2z"/><path class="fil49" d="M66 57v-1 1z"/><path class="fil46" d="M67 57l1 11h1l-1-11h-1z"/><path class="fil47" d="M67 57l1 11h1l-2-11z"/><path class="fil31" d="M68 57l-1-3v3h1z"/><path class="fil48" d="M67 54v3-3z"/><path class="fil49" d="M67 55v-1 1z"/><path class="fil41" d="M74 61v12h-7s-1 0-1-1V61h8z"/><path class="fil10" d="M66 63h8v-2h-8z"/><path d="M74 72v-9h-4v10h4v-1z" fill="#84858a"/><path fill="#5c5d5e" d="M70 63h4v-2h-4z"/><path class="fil40" d="M59 42h-2l-1 31h3z"/><path class="fil10" d="M73 74c-1-2-3-3-5-3H52c-2 0-4 1-5 3h26z"/><path class="fil52" d="M4 25h35v-5c0-2-2-3-3-3H6c-1 0-2 1-2 3v5z" stroke="#1672a5" stroke-width=".83"/><g><path class="fil52" d="M3 24v4l5-3 2 2 3-2 3 2 3-1 3 1 2-1 3 1 3-2 3 3 3-3 2 3 1-9s0-1-2-2H7s-3 0-3 1-1 6-1 6z"/><path id="1" class="fil4" d="M3 28v-4h1v4H3zm0 0v1-1zm5-2l-5 2v-1l5-2h1l-1 1zm0-1h1-1zm2 2l-2-1 1-1 1 2zm0 0v1-1zm3-1l-3 1 3-2v1zm0-1zm2 3l-2-2v-1l3 2v1h-1zm1 0h-1 1zm3-2l-3 2-1-1 4-2v1zm0-1zm2 3l-2-2v-1l3 2v1h-1zm1 0h-1 1zm2-2l-2 2-1-1 3-1v-1 1zm0 0v-1 1zm3 2l-3-2v-1l3 2v1zm0 0zm4-2l-4 2v-1l3-2h1v1zm-1-1h1-1zm2 3l-2-2 1-1 2 3h-1zm1 0h-1 1zm3-2l-3 2h-1l4-3v1zm0-1zm2 3l-2-2v-1l2 2 1 1h-1zm1 0l-1 1v-1h1zm0-9v9h-1v-9h1zm0 0zm-2-1v-1h1v1h1v1h-1v-1h-1zM7 17h30v1h-1v-1H7zm-3 1v-1h3v1H4zm0 6H3v-6h1v6zm-1 0z"/></g><path class="fil53" d="M17 47h-3V35l-4 2v-3l6-2h1z"/><path id="1" class="fil53" d="M32 41c0 2 0 4-1 5s-2 1-4 1-3 0-4-1-1-3-1-5v-3c0-2 0-4 1-5s2-1 4-1 3 0 4 1 1 3 1 5v3zm-3-3v-3c-1-1-1-1-2-1s-1 0-2 1v9c1 1 1 1 2 1s1 0 2-1v-6z"/><g><path class="fil52" d="M11 12h2s1 0 1 1v7c0 1-1 1-1 1h-2s-1 0-1-1v-7c0-1 1-1 1-1z"/><path id="1" class="fil54" d="M13 13h-2v-2h2v2zm2 0h-2v-2h1v2h1zm-2 7v-7h2v7h-2zm0 2v-2h2l-1 1v1h-1zm-2-2h2v2h-2v-2zm-2 0h2v2h-1v-1H9v-1zm2-7v7H9v-7h2zm0-2v2H9v-1h1v-1h1z"/><path class="fil52" d="M20 12h2s1 0 1 1v7c0 1-1 1-1 1h-2s-1 0-1-1v-7c0-1 1-1 1-1z"/><path id="1" class="fil54" d="M22 13h-2v-2h2v2zm2 0h-2v-2h1v1h1v1zm-2 7v-7h2v7h-2zm0 2v-2h2v1h-1v1h-1zm-2-2h2v2h-2v-2zm-1 0h1v2h-1v-2zm1-7v7h-1v-7h1zm0-2v2h-1v-2h1z"/><g><path class="fil52" d="M29 12h2s1 0 1 1v7c0 1-1 1-1 1h-2s-1 0-1-1v-7c0-1 1-1 1-1z"/><path id="1" class="fil54" d="M31 13h-2v-2h2v2zm2 0h-2v-2h1v1h1v1zm-2 7v-7h2v7h-2zm0 2v-2h2v1h-1v1h-1zm-2-2h2v2h-2v-2zm-2 0h2v2h-1v-1h-1v-1zm2-7v7h-2v-7h2zm0-2v2h-2 1v-2h1z"/></g></g><path fill="none" d="M0 0h208v159H0z"/><path fill="url(#id1)" d="M76 3h57.172v50.818H76z"/><g><g clip-path="url(#id0)"><path class="fil13" d="M95 49z"/><path id="1" class="fil13" d="M95 49zm0 0z"/><path id="2" class="fil57" d="M95 49zm0 0z"/><path id="3" class="fil57" d="M95 49zm0 0z"/><path id="4" class="fil57" d="M95 49zm-1 0h1-1z"/><path id="5" class="fil58" d="M94 49h1-1zm0 0h1-1z"/><path id="6" class="fil58" d="M94 49h1-1zm0 0h1v1h-1v-1z"/><path id="7" class="fil59" d="M94 49h1-1zm0 0h1v1h-1v-1z"/><path id="8" class="fil59" d="M94 49h1v1h-1v-1zm0 0h1v1h-1v-1z"/><path id="9" class="fil59" d="M94 49h1v1h-1v-1zm0 0h1v1h-1v-1z"/><path id="10" class="fil60" d="M94 49h1v1h-1v-1zm0 0h1v1h-1v-1z"/><path id="11" class="fil60" d="M94 49h1v1h-1v-1zm0 0h1v1h-1v-1z"/><path id="12" class="fil60" d="M94 49h1v1h-1v-1zm0 0h1v1h-1v-1z"/><path id="13" class="fil61" d="M94 49h1v1h-1v-1zm0 0h2v1h-2v-1z"/><path id="14" class="fil61" d="M94 49h2v1h-2v-1zm0 0h2v1h-2v-1z"/><path id="15" class="fil61" d="M94 49h2v1h-2v-1zm0 0h2v1h-2v-1z"/><path id="16" class="fil62" d="M94 49h2v1h-2v-1zm0 0h2v1h-2v-1z"/><path id="17" class="fil62" d="M94 49h2v1h-2v-1zm0 0h2v1h-2v-1z"/><path id="18" class="fil62" d="M94 49h2v1h-2v-1zm0 0h2v1h-2v-1z"/><path id="19" class="fil63" d="M94 49h2v1h-2v-1zm0 0h2v1h-2v-1z"/><path id="20" class="fil63" d="M94 49h2v1h-2v-1zm0 0h2v1h-2v-1z"/><path id="21" class="fil64" d="M94 49h2v1h-2v-1zm0 0h2v1h-2v-1z"/><path id="22" class="fil64" d="M94 49h2v1h-2v-1zm0 0h2v1h-2v-1z"/><path id="23" class="fil64" d="M94 49h2v1h-2v-1zm-1 0h3v1h-3v-1z"/><path id="24" class="fil65" d="M93 49h3v1h-3v-1zm0 0h3v1h-3v-1z"/><path id="25" class="fil65" d="M93 49h3v1h-3v-1zm0 0h3v1h-3v-1z"/><path id="26" class="fil65" d="M93 49h3v1h-3v-1zm0 0h3v1h-3v-1z"/><path id="27" class="fil66" d="M93 49h3v1h-3v-1zm0 0h3v1h-3v-1z"/><path id="28" class="fil66" d="M93 49h3v1h-3v-1zm0 0h3v1h-3v-1z"/><path id="29" class="fil66" d="M93 49h3v1h-3v-1zm0 0h3v1h-3v-1z"/><path id="30" class="fil67" d="M93 49h3v1h-3v-1zm0 0h3v1h-3v-1z"/><path id="31" class="fil67" d="M93 49h3v1h-3v-1zm0 0h3v1h-3v-1z"/><path id="32" class="fil67" d="M93 49h3v1h-3v-1zm0 0h4v1h-4v-1z"/><path id="33" class="fil68" d="M93 49h4v1h-4v-1zm0 0h4v1h-4v-1z"/><path id="34" class="fil68" d="M93 49h4v1h-4v-1zm0 0h4v1h-4v-1z"/><path id="35" class="fil69" d="M93 49h4v1h-4v-1zm0 0h4v1h-4v-1z"/><path id="36" class="fil69" d="M93 49h4v1h-4v-1zm0 0h4v1h-4v-1z"/><path id="37" class="fil69" d="M93 49h4v1h-4v-1zm0 0h4v1h-4v-1z"/><path id="38" d="M93 49h4v1h-4v-1zm0 0h4v1h-4v-1z" fill="#fffdf1"/><path id="39" class="fil71" d="M93 49h4v1h-4v-1zm0 0h4v1h-4v-1z"/><path id="40" class="fil71" d="M93 49h4v1h-4v-1zm0 0h4v1h-4v-1z"/><path id="41" class="fil72" d="M93 49h4v1h-4v-1zm0 0h4v1h-4v-1z"/><path id="42" class="fil72" d="M93 49h4v1h-4v-1zm-1 0h5v1h-5v-1z"/><path id="43" class="fil72" d="M92 49h5v1h-5v-1zm0 0h5v1h-5v-1z"/><path id="44" class="fil73" d="M92 49h5v1h-5v-1zm0 0h5v1h-5v-1z"/><path id="45" class="fil73" d="M92 49h5v1h-5v-1zm0 0h5v1h-5v-1z"/><path id="46" class="fil73" d="M92 49h5v1h-5v-1zm0 0h5v1h-5v-1z"/><path id="47" class="fil74" d="M92 49h5v1h-5v-1zm0 0h5v1h-5v-1z"/><path id="48" class="fil74" d="M92 49h5v1h-5v-1zm0-1h5v2h-5v-2z"/><path id="49" class="fil75" d="M92 49h5v1h-5v-1zm0-1h5v2h-5v-2z"/><path id="50" class="fil75" d="M92 48h5v2h-5v-2zm0 0h5v2h-5v-2z"/><path id="51" class="fil75" d="M92 48h5v2h-5v-2zm0 0h6v2h-6v-2z"/><path id="52" class="fil76" d="M92 48h6v2h-6v-2zm0 0h6v2h-6v-2z"/><path id="53" class="fil76" d="M92 48h6v2h-6v-2zm0 0h6v2h-6v-2z"/><path id="54" class="fil76" d="M92 48h6v2h-6v-2zm0 0h6v2h-6v-2z"/><path id="55" class="fil77" d="M92 48h6v2h-6v-2zm0 0h6v2h-6v-2z"/><path id="56" class="fil77" d="M92 48h6v2h-6v-2zm0 0h6v2h-6v-2z"/><path id="57" class="fil77" d="M92 48h6v2h-6v-2zm0 0h6v2h-6v-2z"/><path id="58" class="fil78" d="M92 48h6v2h-6v-2zm0 0h6v2h-6v-2z"/><path id="59" class="fil78" d="M92 48h6v2h-6v-2zm0 0h6v2h-6v-2z"/><path id="60" class="fil78" d="M92 48h6v2h-6v-2zm-1 0h7v2h-7v-2z"/><path id="61" class="fil79" d="M92 48h6v2h-6v-2zm-1 0h7v2h-7v-2z"/><path id="62" class="fil79" d="M91 48h7v2h-7v-2zm0 0h7v2h-7v-2z"/><path id="63" d="M91 48h7v2h-7v-2zm0 0h7v3h-7v-3z" fill="#fffbe9"/><path id="64" class="fil81" d="M91 48h7v3h-7v-3zm0 0h7v3h-7v-3z"/><path id="65" class="fil81" d="M91 48h7v3h-7v-3zm0 0h7v3h-7v-3z"/><path id="66" class="fil82" d="M91 48h7v3h-7v-3zm0 0h7v3h-7v-3z"/><path id="67" class="fil82" d="M91 48h7v3h-7v-3zm0 0h7v3h-7v-3z"/><path id="68" class="fil82" d="M91 48h7v3h-7v-3zm0 0h7v3h-7v-3z"/><path id="69" class="fil83" d="M91 48h7v3h-7v-3zm0 0h8v3h-8v-3z"/><path id="70" class="fil83" d="M91 48h7v3h-7v-3zm0 0h8v3h-8v-3z"/><path id="71" class="fil83" d="M91 48h8v3h-8v-3zm0 0h8v3h-8v-3z"/><path id="72" class="fil84" d="M91 48h8v3h-8v-3zm0 0h8v3h-8v-3z"/><path id="73" class="fil84" d="M91 48h8v3h-8v-3zm0 0h8v3h-8v-3z"/><path id="74" class="fil85" d="M91 48h8v3h-8v-3zm0 0h8v3h-8v-3z"/><path id="75" class="fil85" d="M91 48h8v3h-8v-3zm0 0h8v3h-8v-3z"/><path id="76" class="fil85" d="M91 48h8v3h-8v-3zm0 0h8v3h-8v-3z"/><path id="77" class="fil86" d="M91 48h8v3h-8v-3zm0 0h8v3h-8v-3z"/><path id="78" class="fil86" d="M91 48h8v3h-8v-3zm0 0h8v3h-8v-3z"/><path id="79" class="fil86" d="M91 48h8v3h-8v-3zm-1 0h9v3h-9v-3z"/><path id="80" class="fil87" d="M91 48h8v3h-8v-3zm-1 0h9v3h-9v-3z"/><path id="81" class="fil87" d="M90 48h9v3h-9v-3zm0 0h9v3h-9v-3z"/><path id="82" class="fil87" d="M90 48h9v3h-9v-3zm0 0h9v3h-9v-3z"/><path id="83" class="fil88" d="M90 48h9v3h-9v-3zm0 0h9v3h-9v-3z"/><path id="84" class="fil88" d="M90 48h9v3h-9v-3zm0 0h9v3h-9v-3z"/><path id="85" class="fil88" d="M90 48h9v3h-9v-3zm0 0h9v3h-9v-3z"/><path id="86" class="fil89" d="M90 48h9v3h-9v-3zm0 0h9v3h-9v-3z"/><path id="87" class="fil89" d="M90 48h9v3h-9v-3zm0 0h9v3h-9v-3z"/><path id="88" class="fil90" d="M90 48h9v3h-9v-3zm0 0h10v3H90v-3z"/><path id="89" class="fil90" d="M90 48h9v3h-9v-3zm0 0h10v3H90v-3z"/><path id="90" class="fil90" d="M90 48h10v3H90v-3zm0 0h10v3H90v-3z"/><path id="91" class="fil91" d="M90 48h10v3H90v-3zm0 0h10v3H90v-3z"/><path id="92" class="fil91" d="M90 48h10v3H90v-3zm0 0h10v3H90v-3z"/><path id="93" class="fil91" d="M90 48h10v3H90v-3zm0 0h10v3H90v-3z"/><path id="94" class="fil92" d="M90 48h10v3H90v-3zm0 0h10v3H90v-3z"/><path id="95" class="fil92" d="M90 48h10v3H90v-3zm0 0h10v3H90v-3z"/><path id="96" class="fil92" d="M90 48h10v3H90v-3zm0 0h10v3H90v-3z"/><path id="97" class="fil93" d="M90 48h10v3H90v-3zm0 0h10v3H90v-3z"/><path id="98" class="fil93" d="M90 48h10v3H90v-3zm-1 0h11v3H89v-3z"/><path id="99" class="fil93" d="M90 48h10v3H90v-3zm-1 0h11v3H89v-3z"/><path id="100" class="fil94" d="M89 48h11v3H89v-3zm0 0h11v3H89v-3z"/><path id="101" class="fil94" d="M89 48h11v3H89v-3zm0 0h11v3H89v-3z"/><path id="102" class="fil95" d="M89 48h11v3H89v-3zm0 0h11v3H89v-3z"/><path id="103" class="fil95" d="M89 48h11v3H89v-3zm0 0h11v3H89v-3z"/><path id="104" class="fil95" d="M89 48h11v3H89v-3zm0 0h11v3H89v-3z"/><path id="105" class="fil96" d="M89 48h11v3H89v-3zm0-1h11v4H89v-4z"/><path id="106" class="fil96" d="M89 47h11v4H89v-4zm0 0h11v4H89v-4z"/><path id="107" class="fil96" d="M89 47h11v4H89v-4zm0 0h12v4H89v-4z"/><path id="108" class="fil97" d="M89 47h11v4H89v-4zm0 0h12v4H89v-4z"/><path id="109" class="fil97" d="M89 47h12v4H89v-4zm0 0h12v4H89v-4z"/><path id="110" class="fil97" d="M89 47h12v4H89v-4zm0 0h12v4H89v-4z"/><path id="111" class="fil98" d="M89 47h12v4H89v-4zm0 0h12v4H89v-4z"/><path id="112" class="fil98" d="M89 47h12v4H89v-4zm0 0h12v4H89v-4z"/><path id="113" class="fil98" d="M89 47h12v4H89v-4zm0 0h12v4H89v-4z"/><path id="114" d="M89 47h12v4H89v-4zm0 0h12v4H89v-4z" fill="#fefadc"/><path id="115" d="M89 47h12v4H89v-4zm0 0h12v4H89v-4z" fill="#fef8dc"/><path id="116" class="fil101" d="M89 47h12v4H89v-4zm0 0h12v4H89v-4z"/><path id="117" class="fil101" d="M89 47h12v4H89v-4zm-1 0h13v4H88v-4z"/><path id="118" class="fil101" d="M88 47h13v4H88v-4zm0 0h13v4H88v-4z"/><path id="119" class="fil102" d="M88 47h13v4H88v-4zm0 0h13v5H88v-5z"/><path id="120" class="fil102" d="M88 47h13v4H88v-4zm0 0h13v5H88v-5z"/><path id="121" class="fil102" d="M88 47h13v5H88v-5zm0 0h13v5H88v-5z"/><path id="122" class="fil103" d="M88 47h13v5H88v-5zm0 0h13v5H88v-5z"/><path id="123" class="fil103" d="M88 47h13v5H88v-5zm0 0h13v5H88v-5z"/><path id="124" class="fil103" d="M88 47h13v5H88v-5zm0 0h13v5H88v-5z"/><path id="125" class="fil104" d="M88 47h13v5H88v-5zm0 0h13v5H88v-5z"/><path id="126" class="fil104" d="M88 47h13v5H88v-5zm0 0h14v5H88v-5z"/><path id="127" class="fil104" d="M88 47h14v5H88v-5zm0 0h14v5H88v-5z"/><path id="128" class="fil105" d="M88 47h14v5H88v-5zm0 0h14v5H88v-5z"/><path id="129" class="fil105" d="M88 47h14v5H88v-5zm0 0h14v5H88v-5z"/><path id="130" class="fil106" d="M88 47h14v5H88v-5zm0 0h14v5H88v-5z"/><path id="131" class="fil106" d="M88 47h14v5H88v-5zm0 0h14v5H88v-5z"/><path id="132" class="fil106" d="M88 47h14v5H88v-5zm0 0h14v5H88v-5z"/><path id="133" class="fil107" d="M88 47h14v5H88v-5zm0 0h14v5H88v-5z"/><path id="134" class="fil107" d="M88 47h14v5H88v-5zm0 0h14v5H88v-5z"/><path id="135" class="fil107" d="M88 47h14v5H88v-5zm0 0h14v5H88v-5z"/><path id="136" class="fil108" d="M88 47h14v5H88v-5zm-1 0h15v5H87v-5z"/><path id="137" class="fil108" d="M87 47h15v5H87v-5zm0 0h15v5H87v-5z"/><path id="138" class="fil108" d="M87 47h15v5H87v-5zm0 0h15v5H87v-5z"/><path id="139" class="fil109" d="M87 47h15v5H87v-5zm0 0h15v5H87v-5z"/><path id="140" class="fil109" d="M87 47h15v5H87v-5zm0 0h15v5H87v-5z"/><path id="141" class="fil110" d="M87 47h15v5H87v-5zm0 0h15v5H87v-5z"/><path id="142" class="fil110" d="M87 47h15v5H87v-5zm0 0h15v5H87v-5z"/><path id="143" class="fil110" d="M87 47h15v5H87v-5zm0 0h15v5H87v-5z"/><path id="144" class="fil111" d="M87 47h15v5H87v-5zm0 0h15v5H87v-5z"/><path id="145" class="fil111" d="M87 47h15v5H87v-5zm0 0h16v5H87v-5z"/><path id="146" class="fil111" d="M87 47h16v5H87v-5zm0 0h16v5H87v-5z"/><path id="147" class="fil112" d="M87 47h16v5H87v-5zm0 0h16v5H87v-5z"/><path id="148" class="fil112" d="M87 47h16v5H87v-5zm0 0h16v5H87v-5z"/><path id="149" class="fil112" d="M87 47h16v5H87v-5zm0 0h16v5H87v-5z"/><path id="150" class="fil113" d="M87 47h16v5H87v-5zm0 0h16v5H87v-5z"/><path id="151" class="fil113" d="M87 47h16v5H87v-5zm0 0h16v5H87v-5z"/><path id="152" class="fil113" d="M87 47h16v5H87v-5zm0 0h16v5H87v-5z"/><path id="153" class="fil114" d="M87 47h16v5H87v-5zm0 0h16v5H87v-5z"/><path id="154" class="fil114" d="M87 47h16v5H87v-5zm0 0h16v5H87v-5z"/><path id="155" class="fil115" d="M87 47h16v5H87v-5zm-1 0h17v5H86v-5z"/><path id="156" class="fil115" d="M86 47h17v5H86v-5zm0 0h17v5H86v-5z"/><path id="157" class="fil115" d="M86 47h17v5H86v-5zm0 0h17v5H86v-5z"/><path id="158" class="fil116" d="M86 47h17v5H86v-5zm0 0h17v5H86v-5z"/><path id="159" class="fil116" d="M86 47h17v5H86v-5zm0 0h17v5H86v-5z"/><path id="160" class="fil116" d="M86 47h17v5H86v-5zm0 0h17v5H86v-5z"/><path id="161" class="fil117" d="M86 47h17v5H86v-5zm0-1h17v6H86v-6z"/><path id="162" class="fil117" d="M86 46h17v6H86v-6zm0 0h17v6H86v-6z"/><path id="163" class="fil117" d="M86 46h17v6H86v-6zm0 0h17v6H86v-6z"/><path id="164" class="fil118" d="M86 46h17v6H86v-6zm0 0h18v6H86v-6z"/><path id="165" class="fil118" d="M86 46h18v6H86v-6zm0 0h18v6H86v-6z"/><path id="166" class="fil118" d="M86 46h18v6H86v-6zm0 0h18v6H86v-6z"/><path id="167" class="fil119" d="M86 46h18v6H86v-6zm0 0h18v6H86v-6z"/><path id="168" class="fil119" d="M86 46h18v6H86v-6zm0 0h18v6H86v-6z"/><path id="169" class="fil120" d="M86 46h18v6H86v-6zm0 0h18v6H86v-6z"/><path id="170" class="fil120" d="M86 46h18v6H86v-6zm0 0h18v6H86v-6z"/><path id="171" class="fil120" d="M86 46h18v6H86v-6zm0 0h18v6H86v-6z"/><path id="172" class="fil121" d="M86 46h18v6H86v-6zm0 0h18v6H86v-6z"/><path id="173" class="fil121" d="M86 46h18v6H86v-6zm-1 0h19v6H85v-6z"/><path id="174" class="fil121" d="M86 46h18v6H86v-6zm-1 0h19v6H85v-6z"/><path id="175" class="fil122" d="M85 46h19v6H85v-6zm0 0h19v6H85v-6z"/><path id="176" class="fil122" d="M85 46h19v6H85v-6zm0 0h19v7H85v-7z"/><path id="177" class="fil122" d="M85 46h19v7H85v-7zm0 0h19v7H85v-7z"/><path id="178" class="fil123" d="M85 46h19v7H85v-7zm0 0h19v7H85v-7z"/><path id="179" class="fil123" d="M85 46h19v7H85v-7zm0 0h19v7H85v-7z"/><path id="180" class="fil123" d="M85 46h19v7H85v-7zm0 0h19v7H85v-7z"/><path id="181" class="fil124" d="M85 46h19v7H85v-7zm0 0h19v7H85v-7z"/><path id="182" class="fil124" d="M85 46h19v7H85v-7zm0 0h20v7H85v-7z"/><path id="183" class="fil125" d="M85 46h19v7H85v-7zm0 0h20v7H85v-7z"/><path id="184" class="fil125" d="M85 46h20v7H85v-7zm0 0h20v7H85v-7z"/><path id="185" class="fil125" d="M85 46h20v7H85v-7zm0 0h20v7H85v-7z"/><path id="186" class="fil126" d="M85 46h20v7H85v-7zm0 0h20v7H85v-7z"/><path id="187" class="fil126" d="M85 46h20v7H85v-7zm0 0h20v7H85v-7z"/><path id="188" class="fil126" d="M85 46h20v7H85v-7zm0 0h20v7H85v-7z"/><path id="189" class="fil127" d="M85 46h20v7H85v-7zm0 0h20v7H85v-7z"/><path id="190" class="fil127" d="M85 46h20v7H85v-7zm0 0h20v7H85v-7z"/><path id="191" class="fil127" d="M85 46h20v7H85v-7zm0 0h20v7H85v-7z"/><path id="192" d="M85 46h20v7H85v-7zm-1 0h21v7H84v-7z" fill="#fcf5c7"/><path id="193" d="M85 46h20v7H85v-7zm-1 0h21v7H84v-7z" fill="#fdf5c6"/><path id="194" d="M84 46h21v7H84v-7zm0 0h21v7H84v-7z" fill="#fdf5c5"/><path id="195" d="M84 46h21v7H84v-7zm0 0h21v7H84v-7z" fill="#fdf5c4"/><path id="196" d="M84 46h21v7H84v-7zm0 0h21v7H84v-7z" fill="#fdf5c3"/><path id="197" d="M84 46h21v7H84v-7zm0 0h21v7H84v-7z" fill="#fdf5c2"/><path id="198" d="M84 46h21v7H84v-7zm0 0h21v7H84v-7z" fill="#fdf5c2"/><path id="199" d="M84 46h21v7H84v-7zm0 0h21v7H84v-7z" fill="#fdf5c1"/><path id="200" d="M84 46h21v7H84v-7zm0 0h21v7H84v-7z" fill="#fdf4c0"/><path id="201" d="M84 46h21v7H84v-7zm0 0h22v7H84v-7z" fill="#fdf4bf"/><path id="202" d="M84 46h21v7H84v-7zm0 0h22v7H84v-7z" fill="#fdf4bf"/><path id="203" d="M84 46h22v7H84v-7zm0 0h22v7H84v-7z" fill="#fdf4be"/><path id="204" d="M84 46h22v7H84v-7zm0 0h22v7H84v-7z" fill="#fdf4bd"/><path id="205" d="M84 46h22v7H84v-7zm0 0h22v7H84v-7z" fill="#fdf4bc"/><path id="206" d="M84 46h22v7H84v-7zm0 0h22v7H84v-7z" fill="#fdf4bb"/><path id="207" d="M84 46h22v7H84v-7zm0 0h22v7H84v-7z" fill="#fdf4bb"/><path id="208" d="M84 46h22v7H84v-7zm0 0h22v7H84v-7z" fill="#fdf4ba"/><path id="209" d="M84 46h22v7H84v-7zm0 0h22v7H84v-7z" fill="#fdf4b9"/><path id="210" d="M84 46h22v7H84v-7zm0 0h22v7H84v-7z" fill="#fdf4b8"/><path id="211" d="M84 46h22v7H84v-7zm-1 0h23v7H83v-7z" fill="#fdf4b7"/><path id="212" d="M84 46h22v7H84v-7zm-1 0h23v7H83v-7z" fill="#fdf4b6"/><path id="213" d="M83 46h23v7H83v-7zm0 0h23v7H83v-7z" fill="#fdf4b5"/><path id="214" d="M83 46h23v7H83v-7zm0 0h23v7H83v-7z" fill="#fdf4b5"/><path id="215" d="M83 46h23v7H83v-7zm0 0h23v7H83v-7z" fill="#fdf4b4"/><path id="216" d="M83 46h23v7H83v-7zm0 0h23v7H83v-7z" fill="#fdf4b3"/><path id="217" d="M83 46h23v7H83v-7zm0-1h23v8H83v-8z" fill="#fdf3b2"/><path id="218" d="M83 46h23v7H83v-7zm0-1h23v8H83v-8z" fill="#fdf2b1"/><path id="219" d="M83 45h23v8H83v-8zm0 0h23v8H83v-8z" fill="#fdf2b0"/><path id="220" d="M83 45h23v8H83v-8zm0 0h24v8H83v-8z" fill="#fdf2b0"/><path id="221" d="M83 45h23v8H83v-8zm0 0h24v8H83v-8z" fill="#fdf2af"/><path id="222" d="M83 45h24v8H83v-8zm0 0h24v8H83v-8z" fill="#fdf2ad"/><path id="223" d="M83 45h24v8H83v-8zm0 0h24v8H83v-8z" fill="#fdf2ad"/><path id="224" d="M83 45h24v8H83v-8zm0 0h24v8H83v-8z" fill="#fdf2ac"/><path id="225" d="M83 45h24v8H83v-8zm0 0h24v8H83v-8z" fill="#fdf2ab"/><path id="226" d="M83 45h24v8H83v-8zm0 0h24v8H83v-8z" fill="#fdf2ab"/><path id="227" d="M83 45h24v8H83v-8zm0 0h24v8H83v-8z" fill="#fdf2aa"/><path id="228" d="M83 45h24v8H83v-8zm0 0h24v8H83v-8z" fill="#fdf2a9"/><path id="229" d="M83 45h24v8H83v-8zm0 0h24v8H83v-8z" fill="#fdf2a8"/><path id="230" d="M83 45h24v8H83v-8zm-1 0h25v8H82v-8z" fill="#fdf2a7"/><path id="231" d="M82 45h25v8H82v-8zm0 0h25v8H82v-8z" fill="#fdf2a7"/><path id="232" d="M82 45h25v8H82v-8zm0 0h25v9H82v-9z" fill="#fdf2a6"/><path id="233" d="M82 45h25v8H82v-8zm0 0h25v9H82v-9z" fill="#fdf2a5"/><path id="234" d="M82 45h25v9H82v-9zm0 0h25v9H82v-9z" fill="#fcf1a4"/><path id="235" d="M82 45h25v9H82v-9zm0 0h25v9H82v-9z" fill="#fcf1a3"/><path id="236" d="M82 45h25v9H82v-9zm0 0h25v9H82v-9z" fill="#fcf1a2"/><path id="237" d="M82 45h25v9H82v-9zm0 0h25v9H82v-9z" fill="#fcf1a1"/><path id="238" d="M82 45h25v9H82v-9zm0 0h25v9H82v-9z" fill="#fcf1a1"/><path id="239" d="M82 45h25v9H82v-9zm0 0h26v9H82v-9z" fill="#fcf1a0"/><path id="240" d="M82 45h26v9H82v-9zm0 0h26v9H82v-9z" fill="#fcf19f"/><path id="241" d="M82 45h26v9H82v-9zm0 0h26v9H82v-9z" fill="#fcf19e"/><path id="242" d="M82 45h26v9H82v-9zm0 0h26v9H82v-9z" fill="#fcf19e"/><path id="243" d="M82 45h26v9H82v-9zm0 0h26v9H82v-9z" fill="#fcf09d"/><path id="244" d="M82 45h26v9H82v-9zm0 0h26v9H82v-9z" fill="#fcf09c"/><path id="245" d="M82 45h26v9H82v-9zm0 0h26v9H82v-9z" fill="#fcf09b"/><path id="246" d="M82 45h26v9H82v-9zm0 0h26v9H82v-9z" fill="#fcf09b"/><path id="247" d="M82 45h26v9H82v-9zm0 0h26v9H82v-9z" fill="#fcf09a"/><path id="248" d="M82 45h26v9H82v-9zm0 0h26v9H82v-9z" fill="#fcef99"/><path id="249" d="M82 45h26v9H82v-9zm-1 0h27v9H81v-9z" fill="#fcef98"/><path id="250" d="M81 45h27v9H81v-9zm0 0h27v9H81v-9z" fill="#fcef97"/><path id="251" d="M81 45h27v9H81v-9zm0 0h27v9H81v-9z" fill="#fcef96"/><path id="252" d="M81 45h27v9H81v-9zm0 0h27v9H81v-9z" fill="#fcef95"/><path id="253" d="M81 45h27v9H81v-9zm0 0h27v9H81v-9z" fill="#fcef94"/><path id="254" d="M81 45h27v9H81v-9zm0 0h27v9H81v-9z" fill="#fcef94"/><path id="255" d="M81 45h27v9H81v-9zm0 0h27v9H81v-9z" fill="#ffef94"/></g></g></g></svg>