<?xml version="1.0" encoding="UTF-8"?>
<!DOCTYPE svg PUBLIC "-//W3C//DTD SVG 1.1//EN" "http://www.w3.org/Graphics/SVG/1.1/DTD/svg11.dtd">
<!-- Creator: CorelDRAW X7 -->
<svg xmlns="http://www.w3.org/2000/svg" xml:space="preserve" width="225px" height="196px" version="1.1" style="shape-rendering:geometricPrecision; text-rendering:geometricPrecision; image-rendering:optimizeQuality; fill-rule:evenodd; clip-rule:evenodd"
viewBox="0 0 208 181"
 xmlns:xlink="http://www.w3.org/1999/xlink">
 <defs>
  <style type="text/css">
   <![CDATA[
    .str0 {stroke:#ACADAC;stroke-width:0.870219}
    .fil10 {fill:none}
    .fil1 {fill:none;fill-rule:nonzero}
    .fil9 {fill:#A8AAAD;fill-rule:nonzero}
    .fil2 {fill:#859697;fill-rule:nonzero}
    .fil4 {fill:#616164;fill-rule:nonzero}
    .fil3 {fill:#282828;fill-rule:nonzero}
    .fil7 {fill:url(#id0)}
    .fil6 {fill:url(#id1)}
    .fil8 {fill:url(#id2)}
    .fil5 {fill:url(#id3)}
    .fil0 {fill:url(#id4)}
   ]]>
  </style>
  <linearGradient id="id0" gradientUnits="userSpaceOnUse" x1="33.0694" y1="62.9062" x2="61.7474" y2="62.9062">
   <stop offset="0" style="stop-opacity:1; stop-color:#FEFEFE"/>
   <stop offset="1" style="stop-opacity:1; stop-color:#737576"/>
  </linearGradient>
  <linearGradient id="id1" gradientUnits="userSpaceOnUse" xlink:href="#id0" x1="185.15" y1="154.287" x2="189.906" y2="154.287">
  </linearGradient>
  <linearGradient id="id2" gradientUnits="userSpaceOnUse" xlink:href="#id0" x1="124.165" y1="142.902" x2="124.165" y2="74.7092">
  </linearGradient>
  <linearGradient id="id3" gradientUnits="userSpaceOnUse" xlink:href="#id0" x1="60.9425" y1="154.287" x2="65.7053" y2="154.287">
  </linearGradient>
  <linearGradient id="id4" gradientUnits="userSpaceOnUse" xlink:href="#id0" x1="86.3575" y1="48.8074" x2="161.576" y2="48.8074">
  </linearGradient>
 </defs>
 <g id="Layer_x0020_1">
  <metadata id="CorelCorpID_0Corel-Layer"/>
  <g id="_788745424">
   <path class="fil0" d="M149 43c-13,-10 -19,-9 -19,-9 0,0 0,-2 -1,-4 -2,-2 -2,-2 -4,-2 0,0 -2,0 -2,0 -2,0 -2,0 -4,2 -1,2 -1,4 -1,4 0,0 -6,-1 -20,9 -13,11 -12,27 -12,27l38 0 0 0 38 0c0,0 1,-16 -13,-27z"/>
   <path class="fil1 str0" d="M149 43c-13,-10 -19,-9 -19,-9 0,0 0,-2 -1,-4 -2,-2 -2,-2 -4,-2 0,0 -2,0 -2,0 -2,0 -2,0 -4,2 -1,2 -1,4 -1,4 0,0 -6,-1 -20,9 -13,11 -12,27 -12,27l76 0c0,0 1,-16 -13,-27z"/>
   <path class="fil2" d="M167 72c0,2 -1,3 -2,3l-82 0c-1,0 -2,-1 -2,-3l0 0c0,-1 1,-2 2,-2l82 0c1,0 2,1 2,2l0 0z"/>
   <path class="fil3" d="M56 167c0,4 3,8 7,8 4,0 7,-4 7,-8 0,-4 -3,-7 -7,-7 -4,0 -7,3 -7,7z"/>
   <path class="fil4" d="M58 167c0,3 2,5 5,5 3,0 5,-2 5,-5 0,-2 -2,-4 -5,-4 -3,0 -5,2 -5,4z"/>
   <path class="fil5" d="M61 166l0 -27 4 0 0 27c1,0 1,1 1,1 0,2 -1,3 -3,3 -1,0 -2,-1 -2,-3 0,0 0,-1 0,-1z"/>
   <path class="fil1 str0" d="M61 166l0 -27 4 0 0 27c1,0 1,1 1,1 0,2 -1,3 -3,3 -1,0 -2,-1 -2,-3 0,0 0,-1 0,-1z"/>
   <path class="fil3" d="M180 167c0,4 3,8 7,8 4,0 8,-4 8,-8 0,-4 -4,-7 -8,-7 -4,0 -7,3 -7,7z"/>
   <path class="fil4" d="M182 167c0,3 3,5 5,5 3,0 5,-2 5,-5 0,-2 -2,-4 -5,-4 -2,0 -5,2 -5,4z"/>
   <path class="fil6" d="M186 166l0 -27 3 0 0 27c1,0 1,1 1,1 0,2 -1,3 -2,3 -2,0 -3,-1 -3,-3 0,0 0,-1 1,-1z"/>
   <path class="fil1 str0" d="M186 166l0 -27 3 0 0 27c1,0 1,1 1,1 0,2 -1,3 -2,3 -2,0 -3,-1 -3,-3 0,0 0,-1 1,-1z"/>
   <polygon class="fil3" points="65,151 186,151 186,148 65,148 "/>
   <polygon class="fil3" points="65,155 186,155 186,152 65,152 "/>
   <path class="fil7" d="M62 75c0,0 -3,-12 -10,-18 -9,-6 -19,-6 -19,-6l0 4c0,0 11,0 17,7 6,7 8,13 8,13l4 0z"/>
   <path class="fil1 str0" d="M62 75c0,0 -3,-12 -10,-18 -9,-6 -19,-6 -19,-6l0 4c0,0 11,0 17,7 6,7 8,13 8,13l4 0z"/>
   <polygon class="fil3" points="29,57 33,57 33,49 29,49 "/>
   <polygon class="fil3" points="13,55 29,55 29,52 13,52 "/>
   <path class="fil8" d="M191 75l-133 0 0 64 6 0c0,0 1,3 4,3 4,1 106,1 106,1 0,0 4,0 5,-1 1,-2 1,-3 1,-3l11 0 0 -64z"/>
   <path class="fil1 str0" d="M191 75l-133 0 0 64 6 0c0,0 1,3 4,3 4,1 106,1 106,1 0,0 4,0 5,-1 1,-2 1,-3 1,-3l11 0 0 -64z"/>
   <polygon class="fil9" points="180,88 183,139 180,139 "/>
   <polygon class="fil9" points="165,111 168,143 165,143 "/>
   <polygon class="fil9" points="61,139 64,114 64,139 "/>
   <polygon class="fil9" points="72,142 75,128 75,142 "/>
   <polygon class="fil9" points="79,142 81,131 81,142 "/>
   <polygon class="fil9" points="96,143 99,131 99,143 "/>
  </g>
  <rect class="fil10" width="208" height="181"/>
 </g>
</svg>
