<svg xmlns="http://www.w3.org/2000/svg" width="199" height="151" xmlns:xlink="http://www.w3.org/1999/xlink" shape-rendering="geometricPrecision" text-rendering="geometricPrecision" image-rendering="optimizeQuality" fill-rule="evenodd" clip-rule="evenodd"><defs><linearGradient id="id0" gradientUnits="userSpaceOnUse" x1="73.909" y1="56.731" x2="98.79" y2="50.424"><stop offset="0" stop-color="#04870f"/><stop offset="1" stop-color="#03690c"/></linearGradient><linearGradient id="id1" gradientUnits="userSpaceOnUse" x1="143.5" y1="132.028" x2="173.195" y2="94.289"><stop offset="0"/><stop offset="1" stop-color="#2d2e2e"/></linearGradient><linearGradient id="id2" gradientUnits="userSpaceOnUse" xlink:href="#id1" x1="122.136" y1="129.96" x2="148.714" y2="96.183"/><style>.str0{stroke:#373435;stroke-width:.900004}.fil1{fill:#fefefe}.fil3{fill:#000}.fil0{fill:#2887d2}.fil2{fill:#efae74}.fil7{fill:#fa0303}.fil6,.fil8{fill:#606062;fill-rule:nonzero}.fil8{fill:#fff212}</style></defs><g id="Layer_x0020_1"><g id="_739123840"><path class="fil0" d="M29 135l10-58h1l45-23 29-39-9-4 18-9 4 19-8-3-30 40-44 23-11 55z"/><path class="fil1 str0" d="M134 39l-4 2c-2 2-2 4-2 4v3l3-2 5-4-2-3z"/><path class="fil2" d="M127 44l3 4 6-6-2-3z"/><path class="fil3 str0" d="M115 33c1 0-2-2 1-4 2-2 1-3 5-5 3-3 8 0 10 3 2 2 3 8 2 10v1s-4 0-5-1c0-1-4 0-6-1-2-2-3-4-3-4l-2-1-2 2z"/><path class="fil2" d="M127 45l-2-2s-2 2-3 2-2-2-2-3c-1-1-1-2-1-2h-2v-1c0-2 1-2 0-3 0 0-1-3-2-4 1-1 3-2 4-2s2 1 2 2c1 1 1 3 2 3v-1c0-1 0-2 1-2 1-1 1-1 2 1 0 1 2 4 3 4 0 1 4 1 4 1l1 2s-6 3-7 5z"/><path class="fil3" d="M116 30v2c0 1 0 0 1 1v-1l-1-2 1 1v2l1 1v-1-1c-1-1-1-2-1-2s1 2 1 3v1s1-1 1-2v-1l-1-1-1-1-1 1zM128 35s0 1 1 2v2l1 1s-1-2-1-3c1 0 0-1 0-1v-1s0 1 1 2v1c0 1 1 1 1 1v-1l-1-1v-2l1 3v1s0-1 1-1v-2l-1-1-1-1h-1l-1 1z"/><path class="str0" d="M140 91l16-6v6c0 3 2 10 2 10s1 6 2 8c0 2 2 5 2 5l6 10 6 9 3 5s-1 1-3 2c-1 1-5 1-6 1v-4s0-1-1-2c-2 0-10-12-10-12s-5-7-6-8c-1-2-4-9-4-9l-5-11-2-4z" fill="url(#id1)"/><path class="fil2" d="M108 41s-1 0-1-1v-3c1-1 2-2 2-3v-1-1-1l1-1h-2c0 1-3 6-3 6l-2 5v1l1 1c1 1 2 3 2 3s1-3 2-4v-1z"/><path class="fil2" d="M105 49l-3-3c-1-1-1-2 0-3l1-1c-1 0 3 4 3 4v2l-1 1z"/><path class="fil3 str0" d="M106 47s11 9 14 10 4 1 10 0 8-3 9-4 3-4 1-6c-1-2-2-4-5-3-3 0-7 3-8 4s-3 2-3 2l-15-9s-2 2-2 4c-1 1-1 2-1 2z"/><path class="str0" d="M135 85s-4 5-6 9c-1 4-5 10-6 13s-1 3 0 6 7 20 7 20 0 2 1 3c0 1 1 1 1 1v3s3 1 4 1c2 0 4-1 4-1l-6-22-2-6c0-1 0-1 1-2 1-2 10-14 10-14l6-7-14-4z" fill="url(#id2)"/><path class="fil3" d="M121 145s1-2 5-3c3 0 5-3 5-3l2 1h3c2 0 5-1 5-1v7h-6v-2l-6 2h-8v-1z"/><path class="fil3 str0" d="M168 140s0 2-2 4c-1 1-3 1-4 2s-2 2-1 2h5c2-1 3 0 5-2s3-2 3-2v2l6-3s-2-4-2-5l-1-1s-2 3-5 3c-3 1-4 0-4 0z"/><g><path class="fil3" d="M136 40s-3 2-4 4-4 11-5 14c-1 4-1 6 0 12s5 16 6 17c1 0 4 5 5 6 2 0 11-3 15-5 3-2 5-2 5-2s-5-12-6-15c-1-2-2-3-2-6-1-3-3-14-5-17s-7-8-9-8z"/><path id="1" class="fil6" d="M132 44v-1h1v-1h1v-1h1v-1h1v1h-1v1h-1l-1 1v1h-1zm-5 14v-1h1v-3l1-1v-2l1-1v-2l1-1v-2h1v-1 1l-1 1v2h-1v3h-1v3h-1v4h-1zm0 12v-2h-1v-7h1v-3 12zm6 16v1-1h-1v-1l-1-1v-2h-1v-2l-1-1v-2h-1v-3l-1-1v-3 2l1 1v3h1v2l1 1v2l1 1v1l1 1v2h1zm5 6v1-1h-1v-1h-1v-1h-1v-1h-1v-1l-1-1v-1 1h1v1l1 1v1h1v1h1v1h1zm15-4v1h-2l-1 1h-2l-1 1h-3v1h-4v1h-2v-1h5v-1h3l1-1h2l1-1h2v-1h1zm5-2h-1l-1 1h-1l-1 1h-1 1v-1h2v-1h2v-1 1zm-6-15v1l1 1v2h1v2h1v2h1v2l1 1v2h1v2-1h-1v-2l-1-1v-1l-1-1v-2h-1v-2l-1-1v-1l-1-1v-2zm-3-6h1v3h1v2h1v1h-1v-2h-1v-3h-1v-1zm-4-17v1h1v2l1 1v3h1v3l1 1v4l1 1v1h-1v-5h-1v-4l-1-1v-2l-1-1v-2l-1-1v-1zm-9-8h2v1h1v1h1v1h1v1h1v1h1v1h1v1l1 1h-1v-1l-1-1v-1h-1v-1h-1v-1h-1l-1-1-1-1h-1v-1h-1zm0 0z"/><path class="fil7" d="M127 45v2c-1 1 0 12 0 12v21s1-2 1-3V47s0-2-1-2z"/><path class="fil3" d="M143 46s2 4 3 7c0 2 1 7 1 10 0 2 3 8 3 9 1 2 6 14 6 14s-4 2-7 3-5 2-8 2c-2-1-8-8-9-12-1-3-4-8-4-11-1-3-2-6 1-14 2-9 2-8 2-8s3-4 4-5l1-1s4 3 6 5l1 1z"/><path id="1" class="fil6" d="M146 53h-1v-3h-1v-2h-1v-2 1h1v2h1v2l1 1v1zm1 10v-5h-1v-4l-1-1h1v3l1 1v6zm3 9v1-2h-1v-3h-1v-3h-1v-2l1 1v3h1v3h1v2zm6 15v-2h-1v-2h-1v-2l-1-1v-2h-1v-2h-1v-2l-1-1v-1l1 1v2h1v2l1 1v1l1 1v2h1v2h1v3zm-7 2h2v-1h2l1-1h2v-1 1h-2v1h-2v1h-3zm-8 2h3l1-1h2l1-1h1l-1 1h-2l-1 1h-4zm-9-12v1l1 1v1h1v1l1 1v1h1v1l1 1 1 1 1 1 1 1h1v1h-1v-1h-1v-1h-1v-1h-1v-1h-1v-1l-1-1v-1h-1v-1h-1v-2h-1v-2zm-4-11v2l1 1v2l1 1v1l1 1v2h1v1h-1v-2l-1-1v-2h-1v-2h-1v-4zm0-15l1 1h-1v4h-1v8h1v2l-1-1V57l1-1v-3zm3-8l1 1-1-1 1 1h-1v3h-1v2l-1 1v2l-1-1h1v-2l1-1v-2l1-1v-2 1h1l-1-1zm4-4v1h-1v1h-1v1h-1v2l-1-1h1v-1h1v-1l1-1v-1h1zm1-1v1h-1v-1h1zm6 5h-1v-1l-1-1h-1v-1h-1v-1h-1v-1h-1 1l1 1h1v1h1v1h1v1h1v1zm1 1v1-1h-1v-1h-1 1v1h1zm0 0z"/><path class="fil1 str0" d="M135 38s-2 2-3 4c0 2-2 3-2 5v2s3-4 5-6 1-3 1-3l-1-2z"/></g><g><path class="fil3" d="M105 50l13 9 2 2c1 0 6-1 6-1s9-2 12-4c4-3 2-8 1-9s-1-1-3-1-6 2-9 4c-2 1-3 1-3 1l-15-10s-3 2-3 6c-1 3-1 0-1 3z"/><path id="1" class="fil6" d="M118 59l-13-9 13 9zm2 1v1h-1v-1h-1v-1h-1 1v1h2zm6 0h-3v1h-3v-1h6zm12-5l1 1h-2v1h-2v1h-3l-1 1h-3v1h-2l1-1h3l1-1h2l1-1h2v-1h2v-1zm1-8l1 1v2h1v3h-1v2h-1v1l-1-1h1v-1h1v-6h-1v-1zm-3-1h3v1h-1v-1h-2zm-9 4v-1h2v-1h2v-1h2l1-1h2-2v1h-2v1h-2l-1 1h-1v1h-1zm-3 1h1v-1h2v-1 1h-1v1h-2zm-15-10l15 10-15-10zm-3 6v-3h1v-1l1-1v-1h1v1h-1v1h-1v1l-1 1v2zm-1 3h-1 1v-2h1v-1 2h-1v1zm0 0h-1 1z"/></g><g><circle class="fil7" cx="32" cy="124" r="13"/><path class="fil8" d="M34 127v-2h-2c0-1-1-1-2-1 0 0 0-1-1-1 0 0 0-1-1-1v-2c0-1 1-1 1-2 1-1 2-1 3-1v-2h1v2c1 0 2 1 3 1v4h-1c-1 0-1-1-1-1 0-1 0-1-1-2h-1-1v3h2c0 1 1 1 1 1 1 0 1 1 2 1v5c-1 1-2 1-3 1v2h-1v-2c-2 0-3 0-3-1-1-1-1-2-1-3 0 0 0-1 1-1s1 1 1 1c0 1 0 1 1 2h2l1-1z"/></g><g><circle class="fil0" cx="45" cy="77" r="13"/><path class="fil8" d="M47 80l-1-1s-1 0-1-1h-2c0-1-1-1-1-1 0-1-1-1-1-1v-2c0-1 0-2 1-2 1-1 1-1 2-1v-2h2v2c1 0 2 0 2 1 1 1 1 1 1 2s0 1-1 1h-1v-1s-1 0-1-1h-1-1l-1 1c0 1 1 1 1 1 0 1 1 1 1 1 1 0 2 1 2 1 1 0 1 0 1 1 1 0 1 0 1 1v1c0 1 0 2-1 3 0 0-1 1-2 1v1l-1 1c-1 0-1-1-1-1v-1c-1 0-2-1-3-1 0-1-1-2-1-3l1-1h1c1 0 1 1 1 1v1c1 1 1 1 2 1 0 0 1 0 1-1 0 0 1 0 1-1z"/></g><g><circle cx="86" cy="54" r="13" fill="url(#id0)"/><path class="fil8" d="M88 57v-2h-2c0-1-1-1-1-1-1 0-1-1-1-1-1 0-1-1-1-1l-1-1c0-1 1-2 1-3 1-1 2-1 3-1v-2h1v2c1 0 2 1 3 1 0 1 1 2 1 3l-1 1h-1l-1-1v-1l-1-1h-2v3h2c1 1 1 1 2 1 0 1 0 1 1 1v1c1 1 1 1 1 2s-1 1-1 2c-1 1-2 1-3 1v2h-1v-2c-1 0-2 0-3-1s-1-1-1-3h3v2h3v-1z"/></g><path fill="none" d="M0 0h199v151H0z"/></g></g></svg>