<svg xmlns="http://www.w3.org/2000/svg" width="118" height="88" viewBox="0 0 120 90" shape-rendering="geometricPrecision" text-rendering="geometricPrecision" image-rendering="optimizeQuality" fill-rule="evenodd" clip-rule="evenodd"><defs><linearGradient id="a" gradientUnits="userSpaceOnUse" x1="1.528" y1="55.63" x2="87.847" y2="33.747"><stop offset="0" stop-color="#04870f"/><stop offset="1" stop-color="#03690c"/></linearGradient></defs><circle cx="45" cy="45" r="45" fill="url(#a)"/><path d="M51 55c0-1-1-3-1-4-1-1-3-2-5-2l-6-3c-2-1-3-2-4-3s-2-2-3-4c-1-1-1-3-1-5 0-3 1-6 3-8 3-3 6-4 9-4v-5c0-1 1-2 2-2h2s1 1 1 2v5c4 0 7 2 9 4 2 3 3 5 3 9 0 2-1 3-3 3h-3c-2 0-3-1-3-3s-1-3-2-4c-1-2-2-2-4-2-1 0-3 0-4 1 0 1-1 2-1 4s1 3 1 4c1 1 3 2 5 3 3 1 5 2 7 3 1 0 2 1 4 3 1 1 1 2 2 3 1 2 1 3 1 5 0 4-1 7-3 9-3 2-6 3-9 4v4c0 1-1 2-2 2h-2c-1 0-1-1-1-2v-4c-4-1-8-2-10-5-2-2-3-5-3-9 0-1 1-3 2-3h4c1 0 2 2 2 3 0 3 1 3 2 5 1 1 3 2 5 2s3-1 4-2 2-2 2-4z" fill="#fff212" fill-rule="nonzero"/><g fill-rule="nonzero"><path d="M117 37c-1-1-2-1-3 0L83 67l-16-9c-1-1-3-1-4 0s-1 2 0 3l18 26s1 1 2 1 2-1 2-1l32-47c1-1 1-2 0-3z" fill="#2887d2"/><path d="M115 38l-3-3h1v-1h5v1h1l-3 3h-1zm-3-3zM81 66l31-31 3 3-30 31h-3l-1-3zm4 3l-2 1-1-1h3zM68 56l16 10-2 3-16-10 2-3zm-2 3zm-1 1l-3-3v-1h1v-1h4v1h1l-2 3h-1v1zm-3-3zm3 3l-4 3v-2h-1v-2h1v-2h1l3 3zm0 0zm14 28L61 63l4-3 18 25-4 3zm0 0zm4-2v4h-2v-1h-1v-1h-1l4-3v1zm0 4zm0 0v-4 4zm0-5l4 3h-1v1h-1v1h-2v-5zm4 3zm32-47L87 88l-4-3 33-46 3 2zm-3-2zm0-1l3-3v1h1v5h-1l-3-2v-1zm3-3z" fill="#fefefe"/></g></svg>