<svg xmlns="http://www.w3.org/2000/svg" width="270" height="203" viewBox="0 0 269 202" shape-rendering="geometricPrecision" text-rendering="geometricPrecision" image-rendering="optimizeQuality" fill-rule="evenodd" clip-rule="evenodd"><defs><clipPath id="id0"><path d="M0 0h269v202H0V0z"/></clipPath><style>.str0{stroke:#373435;stroke-width:.896682}.fil3{fill:none;fill-rule:nonzero}.fil1{fill:#fefefe}.fil17{fill:#727376}.fil7{fill:#373435}.fil22{fill:#f58634}.fil2{fill:#000}.fil18{fill:#25a6d9}.fil16{fill:#37210a}.fil6{fill:#ffc18e}.fil10,.fil9{fill:#fff212;fill-rule:nonzero}.fil9{fill:#ed3237}.fil12,.fil13,.fil14{fill:#0098da;fill-rule:nonzero}.fil13,.fil14{fill:#556080}.fil13{fill:#9777a8}</style></defs><g id="Layer_x0020_1"><g clip-path="url(#id0)"><g id="_603291784"><path fill="#0098da" d="M19 4h227v119H19z"/><path class="fil1" d="M27 13h212v102H27z"/></g><g id="_693423984"><path class="fil2" d="M135 182s2 1 4 3c3 2 4 3 5 4 2 0 5 1 6 0 1-2 0-3-2-5-1-2-5-6-5-6h-3c-2-1-5 0-5 0s-1 0-1 2c1 2 0 2 1 2z"/><path id="1" class="fil3 str0" d="M135 182s2 1 4 3c3 2 4 3 5 4 2 0 5 1 6 0 1-2 0-3-2-5-1-2-5-6-5-6h-3c-2-1-5 0-5 0s-1 0-1 2c1 2 0 2 1 2z"/><path class="fil2" d="M127 182s-2 1-5 3-4 3-5 4c-1 0-4 1-5 0-1-2 0-3 1-5l6-6h3c2-1 4 0 4 0s1 0 1 2v2z"/><path id="1" class="fil3 str0" d="M127 182s-2 1-5 3-4 3-5 4c-1 0-4 1-5 0-1-2 0-3 1-5l6-6h3c2-1 4 0 4 0s1 0 1 2v2z"/><path class="fil2" d="M120 147l-2 31 11 1 3-68s3 36 3 49c-1 13-1 18-1 18l10 1s2-62 2-68c1-6 1-23 1-23h-29l2 59z"/><path id="1" class="fil3 str0" d="M120 147l-2 31 11 1 3-68s3 36 3 49c-1 13-1 18-1 18l10 1s2-62 2-68c1-6 1-23 1-23h-29l2 59z"/><path fill="#dead85" d="M127 37v3l4 3 6-4v-2z"/><path d="M139 31s-2 6-4 8c-3 1-5 1-6 0-1 0-4-5-4-6s-1-2-1-2-1-2-1-3 1-1 1 0l1 1s-1-4 0-5c0-1 2-3 3-4 2 0 7 0 8 1s3 2 3 3c0 2-1 4 0 5 0 1 0-2 1-2v2c-1 0-1 2-1 2z" fill="#ffc18e"/><path class="fil2 str0" d="M125 19s4-2 6-2c3 0 8 2 8 4 1 1 1 4 1 5s-1 1-1 2v2c-1 0-1-3-1-5 0-1 0-3-1-3 0 0-1 0-3 1-1 0-4 0-5-1h-2c-1 0-2 1-2 2v5s-2-4-2-6 2-4 2-4z"/><path class="fil1" d="M127 38l5 5 5-5 1 2s10 4 11 6c0 2-3 22-3 22v22h-21c-2 0-9-1-9-1l2-21-3-22 10-5 2-3z"/><path class="fil6" d="M94 80h-7c-1 1-3 0-3 0-1 1 0 1 1 2h3s-1 1-2 1-1 0-3 1-2 1-1 2c0 0 2-1 3-1 1-1 2-1 2-1s-1 1-3 2c-1 1-2 1-2 2 1 1 4-2 4-2h2l-3 2-2 1c1 0 4 0 4-1 1-1 1 0 1 0s-2 1-2 2 3-1 4-1c1-1 4-3 4-3 0-1 2-2 2-2v-3c-1 0-2-1-2-1zM171 80h6c1 1 3 0 4 0 0 1 0 1-2 2h-2s0 1 1 1 2 0 4 1c1 1 1 1 1 2-1 0-2-1-4-1l-1-1s0 1 2 2c1 1 3 1 2 2s-4-2-4-2h-1c-1 0 2 2 2 2l2 1c-1 0-3 0-4-1 0 0 2 1 2 2s-3-1-5-1c-1-1-3-3-4-3 0-1-1-2-1-2s-1-2 0-3l2-1z"/><path class="fil2" d="M122 42s-7 1-7 6c-1 5 3 20 2 26 0 5-2 27-2 29s12 2 12 2 1-35 2-45c2-10-2-16-3-18s-1-1-1-1l-1 1h-2z"/><path id="1" class="fil3 str0" d="M122 42s-7 1-7 6c-1 5 3 20 2 26 0 5-2 27-2 29s12 2 12 2 1-35 2-45c2-10-2-16-3-18s-1-1-1-1l-1 1h-2z"/><path class="fil2" d="M141 42s7 1 8 6c0 5-3 20-3 26 1 5 3 27 3 29s-13 2-13 2 0-35-2-44c-1-9 2-17 3-19s1-1 1-1l2 1h1z"/><path id="1" class="fil3 str0" d="M141 42s7 1 8 6c0 5-3 20-3 26 1 5 3 27 3 29s-13 2-13 2 0-35-2-44c-1-9 2-17 3-19s1-1 1-1l2 1h1z"/><path class="fil7 str0" d="M123 45h2l-2 3s2 3 3 8 3 10 3 10V53c0-3-3-11-3-12-1 0-4 1-4 1l1 3zM141 45h-2l2 3s-2 3-4 8l-2 10c-1 0-1-10-1-13s3-11 4-12c1 0 4 1 4 1l-1 3z"/><g><path class="fil2" d="M114 48s-3 7-4 10-2 10-4 11c-1 2-9 7-9 7l-3 4 1 6s13-7 15-8 5-4 6-6c0-2 2-10 2-10l-1-17-3 1v2z"/><path id="1" class="fil3 str0" d="M114 48s-3 7-4 10-2 10-4 11c-1 2-9 7-9 7l-3 4 1 6s13-7 15-8 5-4 6-6c0-2 2-10 2-10l-1-17-3 1v2z"/></g><g><path class="fil2" d="M150 48s2 7 3 10 3 10 4 11c1 2 9 7 9 7l4 4-2 6s-13-7-15-8-4-4-5-6-3-10-3-10l1-17 3 1c0 1 1 2 1 2z"/><path id="1" class="fil3 str0" d="M150 48s2 7 3 10 3 10 4 11c1 2 9 7 9 7l4 4-2 6s-13-7-15-8-4-4-5-6-3-10-3-10l1-17 3 1c0 1 1 2 1 2z"/></g><path d="M131 43s-2 1-2 3c0 1 2 1 2 1l-2 32v4l2 4 4-4-2-33v-3s1 0 1-1c0 0-2-4-3-3z" fill="#be3437"/></g><path class="fil9" d="M57 58h20c-1-11-9-19-20-20v20z"/><path class="fil10" d="M71 74c4-3 6-8 6-13H58l13 13z"/><path d="M54 59V38c-11 1-20 10-20 22 0 5 2 10 6 14l14-15z" fill="#5cc6d0" fill-rule="nonzero"/><path class="fil12" d="M55 62L42 76c3 3 8 5 14 5 5 0 10-2 13-5L55 62z"/><path class="fil13" d="M195 47l-4 5c-1 0-1 1 0 1h1l4-4c1-1 1-1 0-2h-1zM204 47h-2v2l6 5h1v-1l-5-6zM224 45c0-1-1-1-1 0l-9 9v1h1l9-9c1 0 1-1 0-1z"/><path class="fil14" d="M181 72l-1-1V18l1-1c1 0 1 1 1 1v53s0 1-1 1z"/><path class="fil14" d="M232 70h-52c-1 0-1-1-1-1 0-1 0-1 1-1h52s1 0 1 1l-1 1z"/><path class="fil9" d="M193 56c0 3-2 5-4 5-3 0-5-2-5-5 0-2 2-4 5-4 2 0 4 2 4 4z"/><path d="M204 45c0 3-2 5-5 5-2 0-4-2-4-5 0-2 2-4 4-4 3 0 5 2 5 4z" fill="#00afef" fill-rule="nonzero"/><path class="fil10" d="M232 43c0 2-2 4-5 4-2 0-4-2-4-4 0-3 2-5 4-5 3 0 5 2 5 5z"/><path class="fil12" d="M216 57c0 3-2 5-5 5-2 0-4-2-4-5 0-2 2-4 4-4 3 0 5 2 5 4z"/><path class="fil6" d="M30 132s1 2 1 5-1 6-1 6-1 4-3 4c-1 0-2 4-2 4l-10-1-1-1-1-2s0-3-1-5c0-1-2-9 0-12 1-3 3-5 8-5s8 3 9 3 3 0 4 2c1 1-3 2-3 2z"/><path class="fil16 str0" d="M36 235s4 0 5 1c2 2-1 5-3 5-2 1-2 1-3 2 0 1-1 2-4 2-2 0-4-4-3-5 1-2 8-5 8-5zM60 237s2 1 4 1 4 0 4 1c0 2-1 5-6 5s-5-1-7-1c-2 1-3 3-6 2-2-2 1-6 3-7 2-2 8-1 8-1z"/><path class="fil2 str0" d="M25 199v24c0 3 1 19 1 19s3 3 5 2c1-1 8-6 8-6l-1-30 6-5v12c0 3 3 16 3 16l4 11s11-3 11-5-5-48-8-51c-4-3-13 0-16 1s-13 12-13 12z"/><path class="fil2" d="M13 151s-1 3-7 6c-5 3-6 3-5 7 1 5 5 32 6 36s10 4 18 2c7-1 18-4 19-6 0-3-3-7-3-7s4 0 6-2c1-1-1-11-3-13-1-2-3-14-5-15-1-2-2-2-7-4-4-2-5-4-5-4s-9-3-14 0z"/><path id="1" class="fil3 str0" d="M13 151s-1 3-7 6c-5 3-6 3-5 7 1 5 5 32 6 36s10 4 18 2c7-1 18-4 19-6 0-3-3-7-3-7s4 0 6-2c1-1-1-11-3-13-1-2-3-14-5-15-1-2-2-2-7-4-4-2-5-4-5-4s-9-3-14 0z"/><path class="fil2" d="M30 132s-1 1-2 3-1 1-1 2c-1 0 0-3-1-2-1 0-1 2-1 3v2c0 1-1 2-1 3 0 0-1 1-1 2v3c-14-1-7 3-11-3-1-3-1-7-1-8 0-2-1-6 2-9s5-3 7-3c1 0 5-1 6 0 2 1 5 2 6 2l1 3s-1 2-3 2z"/><path class="fil2" d="M28 130v5l2 2s-1-1-1-3c1-1 1-3 1-3s0 4 1 4c0 1 1 2 1 2s-1-3-1-4c0-2 1-3 1-3l1 5 1 1-1-6s-4-1-5 0z"/><g><path class="fil17" d="M5 211l-5 42c0 1 2 1 2 1l6-43H5zM14 212h-1l-3 34h2l5-35zM45 206h1l4 39h-2l-6-37z"/><path class="fil18" d="M0 188s-1-11-2-14c0-4 5-4 9-5 4 0 17 1 19 2 3 1 6 2 6 5 0 4 1 16 1 20 1 4 1 8 3 8s5-2 7-4c1-1 3-1 4 1 0 1 1 2 0 4 0 1-2 3-6 6-4 2-12 2-15 2-2 0-17 0-20-1-3 0-4-1-5-4-1-2-1-20-1-20z"/><path class="fil17" d="M39 211s5 43 5 44-2 1-2 1l-7-45h4z"/></g><g><path class="fil6" d="M238 179l-2 10-5 2s1-11 1-13l1-3 5 4z"/><path d="M262 157s6 1 8 4c1 2 1 11 1 11s-1 17-2 19c-1 3-24 0-24 0s-1-6-3-8c-3-2-3 0-3 0l-8-5s5-17 8-18c3-2 8-2 11-3 2 0 11-1 11-1l1 1z" fill="#ebb435"/><path class="fil6" d="M258 204s1 10 2 13c0 3 0 9 1 12 1 2 2 5 2 6s-3 2-6 3-5 1-5 0c1-1 5 0 5-2 0-1-3-10-4-13-2-3-5-10-5-13-1-2 0-7 0-7l10 1zM244 204s2 9 2 12c1 3 1 10 2 12s2 6 2 7-3 1-5 3c-3 2-5 0-5-1 0 0 4 0 4-1 0-2-3-10-4-13-2-3-4-12-4-13 1 0-2-7-2-7l10 1z"/><path d="M237 205s-6-7-6-9c-1-2-1-5 1-7 3-2 4 1 8 0 4 0 27-4 27-4s3 0 3 3c0 2-1 15-1 16-1 1-27 3-32 1z" fill="#f58634"/><path class="fil2" d="M263 234s2 1 2 3v4c-1 1-4 0-4 0l-1-2s0 2-2 2c-1 1-4 1-5 1 0-1-1-2-1-4s1-1 1-1h1s-1 0 0 1c0 1 3 1 3 0 0 0 5-5 6-4zM242 237s1 1 1 0c-1-1-3 0-4 0-2 1-1 1-1 2 1 2 2 3 4 3s3-1 3-1c1 0 1 1 2 1h3s1-3 1-5c-1-2-2-2-3-2s-3 2-3 3c-1 0-2 1-3 1-2-1-2-1-2-2h2zM254 131s4 0 7 3 4 10 4 13c1 4 1 7 1 7s1 2 0 4v6c0 5-1 7-1 7s-1-7-2-4c-1 4-4 7-4 7s2-10 1-7c-2 4-4 5-4 5l-1-5s-4 7-3 6c0-2 2-9 2-9l-6 9 1-3-3 3 1-8-3 7s-1-2 0-4c1-4-1-10-1-15v-8c1-5 1-9 3-11s7-3 8-3z"/></g><g><path class="fil17" d="M273 211l6 42c0 1-3 1-3 1l-6-43h3zM265 212l3 34h-2l-5-35zM233 206h-1l-4 39h2l6-37z"/><path class="fil18" d="M278 188s1-11 2-14c0-4-5-4-9-5-3 0-17 1-19 2s-5 2-6 5c0 4-1 16-1 20s-1 8-3 8-5-2-7-4c-1-1-3-1-3 1-1 1-1 2-1 4 0 1 3 3 6 6 4 2 13 2 15 2s17 0 20-1c3 0 4-1 5-4 1-2 1-20 1-20z"/><path class="fil17" d="M240 211s-6 43-6 44 3 1 3 1l6-45h-3z"/></g><g><path class="fil6" d="M105 132s1 2 1 5-1 6-1 6-1 4-2 4c-2 0-3 4-3 4l-10-1-1-1v-2s0-3-1-5c-1-1-2-9-1-12 2-3 3-5 8-5s8 3 9 3 3 0 4 2c1 1-3 2-3 2z"/><path class="fil16 str0" d="M111 235s4 0 6 1c1 2-1 5-3 5-2 1-3 1-3 2-1 1-2 2-4 2-3 0-5-4-4-5 1-2 8-5 8-5zM135 237s2 1 4 1 5 0 4 1c0 2-1 5-6 5-4 0-5-1-7-1-2 1-3 3-5 2-3-2 0-6 2-7 3-2 8-1 8-1z"/><path d="M101 199v43s3 3 5 2c1-1 8-6 8-6l-1-30 7-5s-1 9-1 12 4 16 4 16l3 11s11-3 11-5-4-48-8-51-12 0-15 1-13 12-13 12z" fill="#ad5f2f"/><path class="fil22" d="M88 151s-1 3-6 6c-6 3-7 3-6 7 1 5 6 32 6 36 1 4 10 4 18 2 7-1 18-4 19-6 1-3-3-7-3-7s4 0 6-2c2-1-1-11-2-13-2-2-4-14-6-15-1-2-2-2-7-4-4-2-5-4-5-4s-9-3-14 0z"/><path class="fil2" d="M105 132s-1 1-2 3c0 2-1 1-1 2 0 0 0-3-1-2-1 0-1 2-1 3 1 0 0 2 0 2 0 1-1 2-1 3 0 0-1 1-1 2v3c-14-1-7 3-10-3-1-3-1-7-1-8-1-2-1-6 1-9 3-3 6-3 7-3 2 0 5-1 7 0s4 2 5 2 1 3 1 3-1 2-3 2z"/></g><g><path class="fil6" d="M207 132s-1 2-1 5 2 6 2 6 0 4 2 4c1 0 2 4 2 4l10-1 1-1 1-2s0-3 1-5c0-1 2-9 0-12-1-3-3-5-8-5s-8 3-9 3-2 0-4 2c-1 1 3 2 3 2z"/><path class="fil16 str0" d="M201 235s-4 0-5 1c-2 2 1 5 3 5 2 1 3 1 3 2s2 2 4 2 4-4 3-5c-1-2-8-5-8-5zM178 237s-3 1-5 1-4 0-4 1c1 2 2 5 6 5 5 0 6-1 7-1 2 1 4 3 6 2 2-2-1-6-3-7-2-2-7-1-7-1z"/><path class="fil2 str0" d="M212 199v24c0 3-1 19-1 19s-3 3-4 2c-2-1-9-6-9-6l2-30-7-5s1 9 1 12-4 16-4 16l-3 11s-12-3-12-5 5-48 9-51c3-3 12 0 15 1s13 12 13 12z"/><path class="fil17" d="M224 151s2 3 7 6 6 3 5 7c0 5-5 32-6 36s-10 4-17 2c-8-1-19-4-19-6-1-3 3-7 3-7s-5 0-6-2c-2-1 0-11 2-13 1-2 4-14 5-15 2-2 2-2 7-4s5-4 5-4 10-3 14 0z"/><path class="fil2" d="M207 132s1 1 2 3 1 1 2 2v-2c1 0 2 2 1 3l1 2v3s1 1 1 2 1 3 1 3c13-1 7 3 10-3 1-3 1-7 1-8 0-2 1-6-2-9-2-3-5-3-7-3-1 0-4-1-6 0s-5 2-5 2c-1 0-2 3-2 3s2 2 3 2z"/></g><g><path class="fil6" d="M152 179l-2 10-5 2s1-11 2-13v-3l5 4z"/><path d="M176 157s6 1 8 4c1 2 1 11 1 11s-1 17-2 19c-1 3-23 0-23 0s-2-6-4-8c-3-2-3 0-3 0l-8-5s5-17 8-18c3-2 8-2 11-3 2 0 11-1 11-1l1 1z" fill="#484848"/><path class="fil6" d="M173 204s0 10 1 13c0 3 0 9 1 12 1 2 2 5 2 6s-3 2-6 3-5 1-5 0c1-1 5 0 5-2 0-1-3-10-4-13-2-3-5-10-5-13-1-2 0-7 0-7l11 1zM159 204s1 9 1 12c1 3 1 10 2 12s2 6 2 7c1 1-3 1-5 3-3 2-5 0-5-1 0 0 4 0 4-1 0-2-3-10-4-13-2-3-4-12-4-13 1 0-2-7-2-7l11 1z"/><path class="fil2" d="M151 205s-6-7-6-9c-1-2-1-5 1-7 3-2 4 1 8 0 4 0 27-4 27-4s3 0 3 3c0 2-1 15-1 16-1 1-27 3-32 1zM177 234s2 1 2 3v4c-1 1-4 0-4 0l-1-2s0 2-2 2c-1 1-4 1-4 1-1-1-2-2-2-4s1-1 1-1h2s-2 0-1 1c0 1 3 1 3 0 0 0 5-5 6-4zM156 237s2 1 1 0-3 0-4 0c-2 1-1 1-1 2 1 2 3 3 4 3 2 0 3-1 4-1 0 0 0 1 1 1h3s1-3 1-5c-1-2-2-2-3-2s-3 2-3 3c-1 0-2 1-3 1-2-1-2-1-1-2h1zM168 131s4 0 7 3 4 10 4 13c1 4 1 7 1 7s-2 3-10 3c-9 0-11 0-13-1-2 0-3-1-3-1s3-5 3-10c1-5 1-9 3-11s7-3 8-3z"/></g><g><path class="fil6" d="M77 179l1 10 5 2s0-11-1-13l-1-3-4 4z"/><path class="fil22" d="M52 157s-6 1-7 4c-2 2-2 11-2 11s2 17 2 19c1 3 24 0 24 0s2-6 4-8 3 0 3 0l8-5s-5-17-8-18c-3-2-9-2-11-3-3 0-12-1-12-1s0 1-1 1z"/><path class="fil6" d="M56 204s-1 10-1 13c-1 3-1 9-1 12-1 2-2 5-2 6s2 2 6 3c3 1 5 1 4 0 0-1-4 0-4-2 0-1 2-10 4-13 1-3 4-10 5-13 0-2-1-7-1-7l-10 1zM70 204s-1 9-2 12c0 3-1 10-1 12-1 2-3 6-3 7s3 1 6 3c2 2 5 0 4-1 0 0-4 0-4-1 0-2 3-10 5-13 1-3 4-12 3-13-1 0 2-7 2-7l-10 1z"/><path class="fil2" d="M78 205s6-7 6-9 0-5-2-7-4 1-7 0c-4 0-27-4-27-4s-3 0-3 3c0 2 0 15 1 16 0 1 27 3 32 1zM51 234s-1 1-1 3c-1 2-1 4 0 4 1 1 3 0 3 0l1-2s1 2 2 2c2 1 4 1 5 1 1-1 2-2 2-4s-2-1-2-1h-1s1 0 1 1c-1 1-3 1-3 0-1 0-6-5-7-4zM72 237s-1 1 0 0 2 0 4 0c1 1 1 1 0 2 0 2-2 3-4 3-1 0-2-1-3-1s-1 1-2 1h-3s-1-3 0-5c0-2 2-2 3-2l3 3s2 1 3 1c1-1 2-1 1-2h-2zM60 131s-4 0-6 3c-3 3-4 10-5 13-1 4-1 7-1 7s-3 13 10 14c11 0 14-12 14-12s0-6-1-11c0-5 0-9-2-11-3-2-7-3-9-3z"/></g><g><path class="fil17" d="M43 211l-6 42c0 1 3 1 3 1l6-43h-3zM51 212l-3 34h2l5-35zM83 206h1l4 39h-2l-6-37z"/><path class="fil18" d="M38 188s-1-11-2-14c0-4 5-4 9-5 3 0 17 1 19 2s5 2 6 5c0 4 1 16 1 20s1 8 3 8 5-2 6-4c2-1 4-1 4 1 1 1 1 2 1 4 0 1-3 3-6 6-4 2-13 2-15 2s-18 0-20-1c-3 0-4-1-5-4-1-2-1-20-1-20z"/><path class="fil17" d="M76 211s6 43 6 44-3 1-3 1l-6-45h3z"/></g><g><path class="fil17" d="M84 211l-5 42c0 1 2 1 2 1l6-43h-3zM93 212h-1l-3 34h2l5-35zM124 206h1l4 39h-2l-6-37z"/><path class="fil18" d="M79 188s-1-11-2-14c0-4 5-4 9-5 4 0 17 1 19 2 3 1 6 2 6 5 0 4 1 16 1 20 1 4 1 8 3 8s5-2 7-4c1-1 3-1 4 1 0 1 1 2 0 4 0 1-2 3-6 6-4 2-12 2-15 2-2 0-17 0-20-1-3 0-4-1-5-4-1-2-1-20-1-20z"/><path class="fil17" d="M118 211s5 43 5 44-2 1-2 1l-7-45h4z"/></g><path class="fil2" d="M103 130v5c0 1 1 2 1 2v-3-3l1 4c0 1 2 2 2 2s-1-3-1-4v-3l1 5 2 1-2-6s-4-1-4 0z"/><g><path class="fil17" d="M187 211l6 42c0 1-3 1-3 1l-6-43h3zM179 212l3 34h-2l-5-35zM147 206h-1l-4 39h2l6-37z"/><path class="fil18" d="M192 188s1-11 2-14c0-4-5-4-9-5-3 0-17 1-19 2s-5 2-6 5c0 4-1 16-1 20s-1 8-3 8-5-2-6-4c-2-1-4-1-4 1-1 1-1 2-1 4 0 1 3 3 6 6 4 2 13 2 15 2s18 0 20-1c3 0 4-1 5-4 1-2 1-20 1-20z"/><path class="fil17" d="M154 211s-6 43-6 44 3 1 3 1l6-45h-3z"/></g><g><path class="fil17" d="M231 211l5 42c0 1-2 1-2 1l-6-43h3zM222 212h1l3 34h-2l-5-35zM190 206l-4 39h2l6-37z"/><path class="fil18" d="M236 188s1-11 1-14c1-4-4-4-8-5-4 0-17 1-19 2-3 1-6 2-6 5-1 4-1 16-1 20-1 4-1 8-3 8s-5-2-7-4c-1-1-3-1-4 1 0 1-1 2 0 4 0 1 2 3 6 6 4 2 12 2 15 2 2 0 17 0 20-1 3 0 4-1 5-4 1-2 1-20 1-20z"/><path class="fil17" d="M197 211s-5 43-5 44 2 1 2 1l6-45h-3z"/></g></g><path fill="none" d="M0 0h269v202H0z"/></g></svg>