<svg xmlns="http://www.w3.org/2000/svg" width="37" height="48" shape-rendering="geometricPrecision" text-rendering="geometricPrecision" image-rendering="optimizeQuality" fill-rule="evenodd" clip-rule="evenodd"><defs><linearGradient id="a" gradientUnits="userSpaceOnUse" x1="5.559" y1="41.205" x2="31.441" y2="6.38"><stop offset="0" stop-color="#1cc8eb"/><stop offset=".631" stop-color="#0e96e0"/><stop offset="1" stop-color="#0063d4"/></linearGradient></defs><path d="M0 25c0-2 0-4 1-7 2-7 9-13 17-13V0l11 7v1l-10 7h-1v-5c-5 0-10 4-12 8-1 2-1 4-1 6 0 3 1 5 3 8 1 1 1 2-1 3-1 1-2 1-3 0-2-3-3-6-4-10zm29-9c2 2 3 5 3 8 0 2 0 4-1 5-2 5-7 8-12 8v-4-1L8 40l11 8v-6c8 0 15-5 17-13 1-2 1-4 1-7-1-3-2-6-4-9-1-1-2-1-3-1-2 1-2 3-1 4z" fill="url(#a)" fill-rule="nonzero"/></svg>