<svg xmlns="http://www.w3.org/2000/svg" width="225" height="173" viewBox="0 0 208 159" shape-rendering="geometricPrecision" text-rendering="geometricPrecision" image-rendering="optimizeQuality" fill-rule="evenodd" clip-rule="evenodd"><defs><style>.str0{stroke:#fefefe;stroke-width:.829921}.fil1,.fil24{fill:#fefefe}.fil0{fill:#373435}.fil14{fill:#fcd3c2}.fil23{fill:#e8e7e8}.fil38{fill:#dddddc}.fil15{fill:#dcb6a8}.fil8{fill:#bcbfc1}.fil7{fill:#96989b}.fil6{fill:#737576}.fil3{fill:#606263}.fil16{fill:#4d4d4e}.fil2{fill:#4c4c4d}.fil19{fill:#3e4043}.fil43{fill:#424c53}.fil13{fill:#295166}.fil12{fill:#284658}.fil52{fill:#1672a5}.fil27,.fil53,.fil54{fill:#fefefe;fill-rule:nonzero}.fil54{fill:#373435}.fil30,.fil32,.fil37{fill:#f2f3f2;fill-rule:nonzero}.fil30,.fil37{fill:#dfe6ed}.fil37{fill:#c7ccd9}.fil28,.fil33,.fil36{fill:#bfc0c1;fill-rule:nonzero}.fil33,.fil36{fill:#b9bbc9}.fil33{fill:#a5abb3}</style></defs><g id="Layer_x0020_1"><path class="fil0 str0" d="M76 3h57.172v50.818H76zM134 3h58.555v50.818H134z"/><path class="fil1" d="M115 10c6 0 11 4 11 10 0 5-5 10-11 10-1 0-2 0-3-1 4-1 7-5 7-9 0-5-3-9-7-10h3zM88 15v1h2l-2 1 1 1-1-1-1 1v-1l-1-1h1zM93 12v1h2l-2 1 1 1-1-1-1 1v-1l-1-1h1z"/><g id="_720938296"><path class="fil2" d="M59 18l1-1 4 47h-1c-3-5-5-14-6-23 0-2-1-4-1-6 0-7 1-13 3-17z"/><path class="fil3" d="M62 17l-3 1 4 46h3z"/><path d="M146 25c1 0 0-1 2-3 2-3 3-4 7-5 3-2 9 0 10 4 2 4 2 11 1 13 0 1-1 2-1 2s-4-2-4-3c-1-1-6 0-7-3-2-2-3-5-3-5l-2-1s-2 1-3 1z" stroke="#373435" stroke-width=".83"/><path d="M158 42l-2-4s-3 2-4 2-2-2-2-3c0-2-1-3-1-3h-2s0-1 1-2c0-1 1-2 1-3 0 0-2-3-2-5v-1c1-1 3-1 4 0 1 0 2 1 3 3 0 1 1 3 1 3v-2s1-2 2-2 1 0 2 2c0 2 1 5 2 6s5 2 5 2l1 2s-8 2-9 5z" fill="#efae74"/><path class="fil3" d="M67 74h7v-1h-7z"/><path class="fil6" d="M71 64h-1 1zm0 0h-1 1zm0-1h-1 1zm0 0h-1 1zm0 0h-1 1zm0-1h-1 1zm0 0h-1 1zm0 0h-1 1zm0-1h-1 1zm0 0h-1 1zm0 0h-1 1zm0-1h-1 1zm0 0h-1 1zm0 0h-1 1zm0-1h-1 1zm0 0h-1 1zm0 0h-1 1zm0-1h-1 1zm0 0h-1 1zm0 0h-1 1zm0-1h-1 1zm0 0h-1 1zm0 0h-1 1zm0-1h-1 1zm0 0h-1 1zm0 0h-1 1zm0-1h-1 1zm0 0h-1 1zm0 0h-1 1zm0-1h-1 1zm0 0h-1 1zm0 0h-1 1zm0-1h-1 1zm0 0h-1 1zm0 0h-1 1zm0-1h-1 1zm0 0h-1 1zm0 0h-1 1zm0-1h-1 1zm0 0h-1 1zm0 13h-1 1zm-1-14v15h3V50h-3z"/><path class="fil7" d="M73 65V50z"/><path class="fil8" d="M70 57h-1v-2h1v2z"/><path class="fil3" d="M70 58h-1l-1-2h2v2z"/><path class="fil2" d="M69 56h1v1h-1v-1z"/><path class="fil3" d="M70 71l-2-14h2l2 14z"/><path class="fil2" d="M71 71l-2-14h1l2 14z"/><path fill="#aeaeb1" d="M70 57v-1l-2 1v4h1v-2l-1-2z"/><path class="fil2" d="M74 58h-1l-1 13h1z"/><path fill="#434446" d="M74 58h-1l-1 13z"/><path class="fil2" d="M74 54l-1 5h1v-5z"/><path fill="#595772" d="M74 59h-1 1z"/><path class="fil12" d="M66 58l3 11h1l-3-11h-1z"/><path class="fil13" d="M66 58l3 11-3-11z"/><path class="fil14" d="M67 58l-1-2v2c1 0 1 1 1 0z"/><path class="fil15" d="M66 56v2-2z"/><path class="fil16" d="M66 57v-1 1z"/><path class="fil12" d="M67 57l1 11h1l-1-11h-1z"/><path class="fil13" d="M67 57l1 11h1l-2-11z"/><path class="fil14" d="M68 57l-1-3v3h1z"/><path class="fil15" d="M67 54v3-3z"/><path class="fil16" d="M67 55v-1 1z"/><path class="fil6" d="M74 61v12h-7s-1 0-1-1V61h8z"/><path class="fil2" d="M66 63h8v-2h-8z"/><path d="M74 72v-9h-4v10h4v-1z" fill="#84858a"/><path fill="#5c5d5e" d="M70 63h4v-2h-4z"/><path class="fil19" d="M124 145v10c0 1-1 1-1 1h-9l-1-1-6 1c-2 0-21 0-16-4 15-2 19-5 26-10l7 3z"/><path d="M164 97c-6 2-34 10-34 10l-6 42s-14-2-14-3c1 0 12-50 13-51s35-3 35-3l6 5z" fill="#464647"/><path d="M130 111l-6 38h-4l8-38h2z" fill="#444"/><path class="fil19" d="M103 141s-1 6-2 9c0 1-1 2-1 2-2 0-5-1-8-1-1 0-1-2-1-1h-7c-1 0-21-3-15-6 15 0 20-3 27-7l7 4z"/><path class="fil2" d="M169 92c0 2 0 8-2 11-2 2-39 0-39 0s-18 30-20 34c-2 3-4 7-4 7s-14-3-13-4c0-1 27-44 30-46 2-2 48-2 48-2z"/><path d="M164 103l-1 1c-10 1-35-1-35-1s-18 30-20 34c-2 3-4 7-4 7s-3 0-6-1c6-11 27-42 27-42l39 2z" fill="#49494a"/><path class="fil23" d="M165 38c-13 5-17 17-16 29 0 10 1 12 0 18s-3 8-1 9c3 0 21 1 23-1 2-1 5-15 4-29-1-4-2-26-10-26z"/><path class="fil2" d="M154 49c0 4-2 31-2 31-1 4-3 10-3 10-1 0-2-6-1-10 0-5 5-31 5-31h1z"/><path class="fil24" d="M101 58v1-1z"/><path d="M91 73v0s1 0 0 0z" fill="#363435"/><path class="fil24" d="M101 59v1s-2 3-2 4c-1 1-1 1-1 2l4-6c0-1-1-1-1-1l-1-1v1h1zM95 65v1l2 1v-1l-2-1zM91 72v2c1-1 1-1 1-2h-1z"/><path class="fil7" d="M105 88h31v-4h-31z"/><path fill="#868b90" d="M105 88h31v-2h-31z"/><path class="fil27" d="M66 86l31 1 12-8-24-1z"/><path class="fil28" d="M97 87l-31-1 31 1zm0 0zm12-8l-12 8 12-8zm0 0zm-24-1l24 1-24-1h-1 1zm-1 0h1-1zm-18 8l18-8h1l-19 8zm0 0z"/><path class="fil27" d="M65 85l31 1 12-8-24-1z"/><path class="fil28" d="M96 86l-31-1 31 1h1-1zm1 0h-1 1zm11-8l-11 8h-1l12-8zm0 0zm-24-1l24 1-24-1zm0 0zm-19 8l19-8-19 8zm0 0z"/><path fill="#b7c0c6" fill-rule="nonzero" d="M66 83l31 1 11-8-24-1z"/><path class="fil30" d="M66 81l32 2 11-8-24-1z"/><path class="fil27" d="M66 80l26 2h5l11-8-24-1z"/><path d="M92 82l-26-2 26 2zm5 0h-5 5zm0 0zm11-8l-11 8 11-8zm0 0zm-24-1l24 1-24-1zm0 0zm-18 7l18-7-18 7zm0 0h-1 1z" fill="#d2d4d5" fill-rule="nonzero"/><path class="fil30" d="M66 79l32 1 11-8-24-1z"/><path class="fil32" d="M67 77l31 1 11-8H85z"/><path class="fil27" d="M68 75l31 2 11-8-24-1z"/><path class="fil27" d="M68 74l31 1 11-7-24-1z"/><path class="fil28" d="M99 75l-31-1 31 1zm0 0zm11-7l-11 7 11-7zm0 0zm-24-1l24 1-24-1zm0 0zm-18 7l18-7-18 7zm0 0z"/><path class="fil33" d="M74 73l23 1 2-1-24-1zM77 72h24l-22-1zM80 70l22 1 1-1H81zM83 69l21 1 1-1H84zM85 68l21 1v-1H87z"/><path class="fil32" d="M64 73l20 1-6-6z"/><path d="M80 67l-2 1 6 6 11 1 12-8-20-1c-2 2-5 2-7 1z" fill="#e8e7e8" fill-rule="nonzero"/><path d="M80 67c2 1 5 1 7-1h-4l-3 1z" fill="#dae0ec" fill-rule="nonzero"/><path class="fil36" d="M82 72l12 1 1-1H81z"/><path class="fil37" d="M72 71l-2 1h12-1z"/><path class="fil36" d="M81 71l16 1 1-1-18-1z"/><path class="fil37" d="M75 70l-1 1h7l-1-1zM78 69h-1 2z"/><path class="fil36" d="M79 69l20 1h1l-21-1zM80 68l21 1 1-1H81zM82 67l20 1 1-1H83z"/><path class="fil8" d="M38 156h74V76H38z"/><path class="fil38" d="M168 94c1 0 2-1 3-1 2-1 5-15 4-29-1-4-3-20-7-24-1 0-2 1-2 1s5 18 6 22c0 3-3 25-4 31z"/><path fill="#989b9d" d="M112 76H33v2h84v-2z"/><path d="M141 104c8 0 18-1 26-1 0-13 5-14 6-23-13 0-36-5-32 24zm-9 1s3 0 4-1c-1-5 0-19 6-24 6-7 23-5 31-5 1-7 2-28 3-32 1-10 10-9 13-8 6 1-1 61-6 69h1c1 3 2 8-3 9-6 1-51 4-55 0-3-5 2-8 6-8z" fill="#4e5c63"/><path fill="#848588" d="M153 135h5v-22h-5z"/><path fill="#919191" d="M155 135h3v-22h-3z"/><path class="fil43" d="M185 108c0 2-1 4-4 5-3 0-11 1-21 2l1 1 1 1c1-1 2-1 2 0l3 2v2h-2l-3-2v-2l-2-1v-1c-15 0-32 0-34-2 0-1-1-2-1-3l60-2zM185 34c2 0 3 1 4 1 6 1-1 61-6 69l-2-1c-1-1-12 0-12 0s6-1 9-4c1-1 7-59 7-65z"/><path class="fil2" d="M152 132h7v15l15 3c1 0 2 0 2 1 0 2-1 3-2 2l-17-2h-3l-17 2c-1 1-2 0-2-2 0-1 1-1 2-1l15-3v-15z"/><path class="fil2" d="M137 156c1 0 3-1 3-3 0-1-2-2-3-2s-3 1-3 2c0 2 2 3 3 3zM174 156c1 0 2-1 2-3 0-1-1-2-2-2-2 0-3 1-3 2 0 2 1 3 3 3zM153 147h5l-1 7h-3z"/><path class="fil2" d="M155 156c2 0 3-1 3-3 0-1-1-2-3-2-1 0-2 1-2 2 0 2 1 3 2 3z"/><path class="fil3" d="M133 82h-2v1h2zM130 82h-2v1h2zM128 82h-2v1h2zM125 82h-2v1h2zM123 82h-2v1h2zM120 82h-2v1h2zM118 82l-2-1v2h2z"/><path class="fil2" d="M134 84v-1l-21-1v2h21zM114 83v0z"/><path fill="#a8aaad" d="M33 78h84v-4H33z"/><path class="fil3" d="M59 42h-2l-1 31h3z"/><path class="fil2" d="M73 74c-1-2-3-3-5-3H52c-2 0-4 1-5 3h26zM38 156h74v-2H38z"/><path class="fil6" d="M38 79h74v-1H38z"/><path class="fil38" d="M168 40l-2-4-8 3c-1 1-2 5-2 5l12-4z"/><path class="fil1" d="M89 73h13s1 0 1-1c1-1-3-3-5-4-2 0-5 0-7 2-2 1-2 2-2 2-1 1-1 1 0 1z" stroke="#373435" stroke-width=".297"/><path d="M91 73s1-2 3-3c2 0 5 1 7 1l2 2H89h-1l1-1v1h2z" fill="#d2d3d5" stroke="#373435" stroke-width=".297"/><path d="M133 58c2-1 10-7 10-7l4 8-18 9c-4 2-11 2-13 2h-5c-2 1-3 1-5 2-1 0-2 1-4 1s-4-1-5-1c-1 1-2 1-3 0-1 0-1-1 0-1h4l1-1c0-1-1-1-2-1h-2c-1 0-2 0-3 1s-2 1-2 1c-1 0-2 0-1-1l2-2c1-1 2-1 2-2h4c1 0 3-1 3-1 1 0 4 1 5 1 4-1 17-4 20-5s8-3 8-3z" fill="#fcd3c2"/><path class="fil23" d="M168 51c3-3-1-11-3-10-1 0-9 5-17 9-6 2-16 7-18 7-3 2-2 1-1 1 0 0 3 6 3 7s0 2 1 2c6-3 30-12 35-16z"/><path class="fil14" d="M145 58c-1 1-3 4-8 7l-6 6c-4 4-8 6-8 6 0 1-3-1-3-1h-3s-3 2-4 2c-1 1-3 2-3 3 1 0 2-1 3-1l2-1s-3 4-3 5c0 2 3-2 4-3l-2 4h1l2-2 1-1s1 2 2 2c0 0 2-1 3-1 1-1 2-2 3-2 0 0 8-5 15-8 5-2 7-7 7-7l-3-8z"/><path d="M162 44c-4 4-21 18-21 18 1 2 5 9 5 9 1-1 20-17 21-19 2-1 1-3 1-3l-6-5z" fill="#e0e2e4"/><path d="M145 62s-2-3-3-2c-1 0-3 1-3 2-1 1-1 2-1 2 0 1 4 3 5 5 1 1 1 3 2 3 2-1 6-1 5-3-2-2-4-5-5-7z" fill="#d2d4d4"/><path d="M134 58s0-2-2-2c-1 0-3 1-4 1 0 1-1 2-1 3 0 0 3 3 3 4 1 2 1 4 1 4h6l-1-3-2-7z" fill="#d8dae0"/></g><path d="M8 17h31c1 0 2 1 2 3v37H6V20c0-2 1-3 2-3z" fill="#bdbfc1"/><path class="fil1" d="M6 17h30c1 0 3 1 3 3v34H4V20c0-2 1-3 2-3z"/><path id="1" d="M36 18H6v-2h30v2zm4 2h-2v-1h-1v-1h-1v-2h1v1h2v2l1 1zm-2 34V20h2v34l-1 1-1-1zm2 0v1h-1l1-1zM4 53h35v2H4l-1-1 1-1zm0 2H3v-1l1 1zm1-35v34H3V20h2zm1-4v2H5v2H3v-2h1v-1h1v-1h1z" fill="#1672a5" fill-rule="nonzero"/><path class="fil52" d="M4 25h35v-5c0-2-2-3-3-3H6c-1 0-2 1-2 3v5z" stroke="#1672a5" stroke-width=".83"/><path class="fil52" d="M11 12h2s1 0 1 1v7c0 1-1 1-1 1h-2s-1 0-1-1v-7c0-1 1-1 1-1z"/><path id="1" class="fil53" d="M13 13h-2v-2h2v2zm2 0h-2v-2h1v2h1zm-2 7v-7h2v7h-2zm0 2v-2h2l-1 1v1h-1zm-2-2h2v2h-2v-2zm-2 0h2v2h-1v-1H9v-1zm2-7v7H9v-7h2zm0-2v2H9v-1h1v-1h1z"/><path class="fil52" d="M20 12h2s1 0 1 1v7c0 1-1 1-1 1h-2s-1 0-1-1v-7c0-1 1-1 1-1z"/><path id="1" class="fil53" d="M22 13h-2v-2h2v2zm2 0h-2v-2h1v1h1v1zm-2 7v-7h2v7h-2zm0 2v-2h2v1h-1v1h-1zm-2-2h2v2h-2v-2zm-1 0h1v2h-1v-2zm1-7v7h-1v-7h1zm0-2v2h-1v-2h1z"/><g><path class="fil52" d="M29 12h2s1 0 1 1v7c0 1-1 1-1 1h-2s-1 0-1-1v-7c0-1 1-1 1-1z"/><path id="1" class="fil53" d="M31 13h-2v-2h2v2zm2 0h-2v-2h1v1h1v1zm-2 7v-7h2v7h-2zm0 2v-2h2v1h-1v1h-1zm-2-2h2v2h-2v-2zm-2 0h2v2h-1v-1h-1v-1zm2-7v7h-2v-7h2zm0-2v2h-2 1v-2h1z"/></g><path class="fil54" d="M20 41c0 2-1 4-2 5 0 1-2 1-3 1-2 0-3 0-4-1s-2-3-2-5v-3c0-2 1-4 2-5s2-1 4-1c1 0 3 0 3 1 1 1 2 3 2 5v3zm-3-3c0-1 0-2-1-3 0-1-1-1-1-1-1 0-2 0-2 1s-1 1-1 3v3c0 2 1 2 1 3s1 1 2 1c0 0 1 0 1-1 1 0 1-1 1-3v-3z"/><path id="1" class="fil54" d="M29 41c-1 1-2 1-3 1s-2 0-3-1-1-2-1-4v-3l2-2h6c0 1 1 2 1 3 1 1 1 2 1 3v1c0 3-1 5-2 6-1 2-3 2-5 2h-1v-2h1c2 0 4-2 4-4zm-2-1h1l1-1v-2c0-1 0-1-1-2 0-1-1-1-1-1-1 0-1 0-2 1v4c1 1 1 1 2 1z"/><path fill="none" d="M0 0h208v159H0z"/></g></svg>