<svg xmlns="http://www.w3.org/2000/svg" width="173" height="177" viewBox="0 0 171 175" shape-rendering="geometricPrecision" text-rendering="geometricPrecision" image-rendering="optimizeQuality" fill-rule="evenodd" clip-rule="evenodd"><defs><style>.str0{stroke:#373435;stroke-width:.889718}.fil0{fill:#000}</style></defs><g id="Layer_x0020_1"><g id="_786453608"><path class="fil0" d="M102 72v21h13V71c0-6-6-12-13-12H69c-6 0-12 6-12 12v22h13V72h32z"/><path fill="#6e3614" d="M5 104h163l-22-27H26z"/><path class="fil0" d="M10 132h153v29c0 7-5 12-12 12H22c-7 0-12-5-12-12v-29z"/><path d="M5 104h163v28h-17v9c0 7-5 13-13 13h-8c-8 0-13-6-13-13v-9H55v9c0 7-5 13-13 13h-8c-8 0-13-6-13-13v-9H5v-28z" fill="#f58634"/><path class="fil0 str0" d="M32 136h11.054v11.054H32zM129 136h11.054v11.054H129z"/><path fill="none" d="M0 0h171v175H0z"/></g></g></svg>