<svg xmlns="http://www.w3.org/2000/svg" width="188" height="146" viewBox="0 0 189 147" shape-rendering="geometricPrecision" text-rendering="geometricPrecision" image-rendering="optimizeQuality" fill-rule="evenodd" clip-rule="evenodd"><defs><style>.str0{stroke:#0098da;stroke-width:.904817}.fil8{fill:#fefefe}.fil2{fill:#000}.fil3{fill:#033857}.fil4{fill:#054f76}.fil6{fill:#2887d2}.fil7{fill:#306fb6}.fil5{fill:#4e8ac8}</style></defs><g id="Layer_x0020_1"><g id="_597825744"><path d="M45 87v6s2 7 8 9c5 2 8 0 9-1 2-1 4-5 4-5V85H45v2z" fill="#fac19b"/><path d="M69 87c2-2 7-8 9-10 1-3 2-5 2-6 1-2 1-6 1-6 0-1 1 0 1 0s2 1 2-4c1-5 2-6 1-7s-1-3-2-2c-2 1-2 3-2 3s1-20 1-21c-1-1-2-1-7-2-5 0-17 1-19 1 0 0-16-1-21-1-6 1-7 1-7 2-1 1 0 21 0 21s0-2-1-3c-2-1-2 1-3 2s0 2 1 7 3 4 3 4 0-1 0 0c1 0 1 4 1 6 1 1 1 3 3 6 1 2 6 8 9 10 9 5 19 5 28 0z" fill="#f9c9a9"/><path class="fil2" d="M81 56s1-10 2-13V33c0-1 0-2 1-2 1-1 3-2 5-4 1-2 2-5 2-5 1-1 0 1-2 0s-3-1-6-3-8-7-13-8c-5-2-10-3-16-2-6 0-15 7-21 10-5 4-8 8-8 12s3 24 3 24 2-9 3-11c0-2 1-6 2-8v9s0-4 1-5c0-1 1 1 1 1s1-1 1-2c0-2 1 2 0 3v2s1-2 1-4v-4c0-1 1 1 1 2v1l1-2c0-1 0-1 1-1 2 1 8 4 15 4 8-1 14-2 15-2 2-1 2 1 1 1l-1 1s1 0 2-1c0 0 1 1 1 2s-1 4-1 4 1-2 2-3c0-1 1-2 1-3v-2 3c0 1 1-1 1-2l1-2v3c0 3-1 5-1 5s2-2 2-4 1-4 1-4 1 9 1 13c0 3 1 7 1 7 0 1 0 0 0 0z"/><rect class="fil3 str0" x="18" y="50" width="7.887" height="15.115" rx="4" ry="3"/><rect class="fil4" x="18" y="52" width="7.887" height="13.184" rx="4" ry="3"/><rect class="fil5" x="21" y="48" width="7.887" height="19.041" rx="4" ry="4"/><path class="fil6" d="M24 48s-1-6 1-14 6-15 13-20c8-5 13-5 15-5h3s-4 0-6 1c-3 1-6 2-10 5s-6 7-8 10l-3 6c-1 3-2 5-2 8v10l-3-1z"/><path class="fil7" d="M22 50s0-1 2-1c1 0 3 1 3 2v14s0 2-1 2h-1c1 0 1 0 2-1 1 0 2-1 2-2V53s0-3-2-4c-1-1-1-1-2-1s-3 1-3 2z"/><g><rect class="fil3 str0" x="83" y="50" width="7.887" height="15.115" rx="4" ry="3"/><rect class="fil4" x="83" y="52" width="7.887" height="13.184" rx="4" ry="3"/><rect class="fil5" x="80" y="48" width="7.887" height="19.041" rx="4" ry="4"/><path class="fil6" d="M81 32s2 5 2 8v9h2c0-1 1-4 1-7-1-4-1-7-2-9 0-2-1-3-1-3l-2 2zM83 67s-1 4-1 5c-4 5-8 9-15 11-4 1-3 0-3 0v2s2 0 5-1 7-3 8-4l4-4c1-1 2-4 3-6s1-3 1-3h-2z"/><path class="fil7" d="M87 50s0-1-1-1h-1c-1 0-2 1-3 2v14s0 2 1 2h1c-1 0-1 0-2-1-1 0-1-1-2-2V53s0-3 2-4c1-1 2-1 3-1s2 1 2 2z"/><rect class="fil4" x="55" y="82" width="8.39" height="4.975" rx="2" ry="2"/><rect class="fil3" x="57" y="83" width="6.87" height="3.889" rx="1" ry="1"/></g><path class="fil8" d="M41 94s1 19 6 36c6 16 9 14 9 14s10-14 12-20c1-7 1-27 0-27s-8 5-13 5-14-8-14-8z"/><path d="M54 103s-3 2-3 3c-1 1 2 4 3 4s0 1 0 1-5 19-4 18c1 0 2 12 4 13 2 2 2 0 3-2 2-2 4-14 4-14s-3-13-3-15 3-3 3-4-2-5-7-4z" fill="#ed3237"/><path class="fil2" d="M107 144s-2-31-5-35c-3-5-9-8-22-12-12-3-13-3-13-3s1 15-4 26c-5 12-8 21-8 21v0s-3-9-8-21c-5-11-4-26-4-26s-1 0-13 3c-13 4-19 7-22 12-3 4-5 35-5 35h104z"/><path class="fil8" stroke="#96989a" stroke-width=".52" d="M45 92l10 10-5 9-7-9-4-7zM66 92l-11 10 6 9 6-9 5-7z"/></g><path d="M179 42V13c0-5-4-10-10-10h-60c-5 0-9 5-9 10v29c0 5 4 10 9 10h6c-4 6-9 13-13 20 10-7 21-14 31-20h36c6 0 10-5 10-10z" fill="#fc4d44" fill-rule="nonzero"/><g id="_597831216"><path class="fil6" d="M130 104l13-1v4h16v-4l13 1s6 18 7 25c2 6 1 8-1 11-2 2-7 2-7 2v1c0 1 0 1-1 1-1 1-7 1-9 0-1 0 0-2 0-2h-20s1 2 0 2c-2 1-8 1-9 0-1 0-1 0-1-1v-1s-5 0-6-2c-2-3-3-5-2-11 2-7 7-25 7-25z"/><circle class="fil8" cx="151" cy="123" r="10"/><circle class="fil6" cx="151" cy="123" r="7"/><path d="M116 109l14-10-3-5s-1 0-1-1c-1-1 3-7 5-9l6-4s3-3 6-4c3-2 9-4 10-3 1 0 0 1 0 1l4 5 15-11s-3-4-4-5c-2-1-8-4-16-1-9 3-20 11-20 11s-11 8-16 15-5 14-4 16c1 1 4 5 4 5z" fill="#1cc8eb"/><path d="M185 72c0 5-2 10-6 14-5 5-11 8-17 8v-3c5 0 11-3 15-7 3-3 4-7 5-11l3-1zm-9 1c-1 2-2 5-4 7-3 3-7 4-10 5v-2c3-1 6-2 9-5 1-1 2-3 3-5h2zm4 0c-1 3-2 7-5 9-4 4-8 6-13 7v-3c4 0 8-2 11-5 2-3 4-5 4-8h3z" fill="#0098da"/></g><path fill="none" d="M0 0h189v147H0z"/></g></svg>