<svg xmlns="http://www.w3.org/2000/svg" width="118" height="127" viewBox="0 0 121 130" shape-rendering="geometricPrecision" text-rendering="geometricPrecision" image-rendering="optimizeQuality" fill-rule="evenodd" clip-rule="evenodd"><defs><linearGradient id="id0" gradientUnits="userSpaceOnUse" x1="25.245" y1="106.264" x2="70.016" y2="10.344"><stop offset="0" stop-color="#005f96"/><stop offset="1" stop-color="#0090e3"/></linearGradient><style>.fil1,.fil2{fill:#fefefe;fill-rule:nonzero}.fil2{fill:#f7994b}</style></defs><g id="Layer_x0020_1"><g id="_687301952"><path d="M92 9v98c0 4-2 7-5 7H8c-3 0-5-3-5-7V9c0-4 2-7 5-7h79c3 0 5 3 5 7z" fill="url(#id0)" fill-rule="nonzero"/><path class="fil1" d="M28 13c-1 0-1 1-1 2v69c0 1 0 1 1 1s2 0 2-1V15c0-1-1-2-2-2z"/><path class="fil2" d="M28 73c5 0 8-3 8-7 0-5-3-8-8-8-4 0-7 3-7 8 0 4 3 7 7 7z"/><path class="fil1" d="M48 13c-1 0-2 1-2 2v47c0 1 1 2 2 2 0 0 1-1 1-2V15c0-1-1-2-1-2z"/><path class="fil1" d="M48 54c-1 0-2 2-2 4v26c0 2 3 2 3 0V58c0-2-1-4-1-4z"/><path class="fil2" d="M48 46c4 0 7-3 7-7 0-5-3-8-7-8-5 0-8 3-8 8 0 4 3 7 8 7z"/><path class="fil1" d="M67 13c-1 0-2 1-2 2v37c0 1 1 1 2 1s1 0 1-1V15c0-1 0-2-1-2zM67 61c-1 0-2 1-2 2v21c0 1 1 1 2 1s1 0 1-1V63c0-1 0-2-1-2z"/><path class="fil2" d="M67 50c-4 0-8 3-8 7s4 8 8 8 8-4 8-8-4-7-8-7z"/><path d="M115 109l-5-4v-3s1-1 2-1c1-1 2-1 3-2v-1c0-1-1-4-2-7 0-1 0-1-1-1h-1l-5 1c-1 0-1-1-2-2l1-6c1 0 1 0 0-1l-7-3h-1c-1 1-2 3-3 5h-4l-2-5s-1 0-1-1c0 0-1 1-3 1-3 1-4 2-5 2v1s-1 0 0 0c0 3 1 4 1 6-1 1-2 1-3 2l-5-2h-1c0 1-1 1-1 1l-3 7c0 1 0 1 1 1l5 3c0 1-1 2 0 4-1 0-2 0-3 1s-2 1-2 1c-1 0-1 1-1 1v1c0 1 1 3 3 7h1l5-1c1 1 2 2 3 2l-2 6v1l1 1 6 3c1 0 1 0 1-1 1-1 2-2 4-5h3l3 5v1c1 0 2 0 4-1s3-1 4-2h1v-1c-1-2-1-4-1-5s1-2 2-3l6 2c1 0 1 0 1-1l3-6v-1zm-21 1c-2 1-4 1-6 0s-4-2-5-4c0-3 0-5 1-7s2-3 4-4c3-1 5-1 7 0s3 3 4 5 1 4 0 6-3 4-5 4z" fill="#00afef" fill-rule="nonzero"/><circle transform="matrix(.14345 .06678 -.06678 .14345 91.199 102.742)" r="53" fill="#fefefe"/><path class="fil1" d="M3 105v-2h58c2 0 3 1 3 2 0 0-1 1-3 1H3v-1z"/><path fill="none" d="M0 0h121v130H0z"/></g></g></svg>