<svg xmlns="http://www.w3.org/2000/svg" width="163" height="190" viewBox="0 0 163 191" xmlns:xlink="http://www.w3.org/1999/xlink" shape-rendering="geometricPrecision" text-rendering="geometricPrecision" image-rendering="optimizeQuality" fill-rule="evenodd" clip-rule="evenodd"><defs><linearGradient id="id0" gradientUnits="userSpaceOnUse" x1="113.648" y1="4.4" x2="115.657" y2="24.78"><stop offset="0" stop-color="#25a6d9"/><stop offset="1" stop-color="#1672a5"/></linearGradient><linearGradient id="id1" gradientUnits="userSpaceOnUse" xlink:href="#id0" x1="112.259" y1="43.672" x2="114.254" y2="63.91"/><linearGradient id="id2" gradientUnits="userSpaceOnUse" x1="26.563" y1="133.286" x2="10.894" y2="148.296"><stop offset="0" stop-color="#04870f"/><stop offset="1" stop-color="#03690c"/></linearGradient><linearGradient id="id3" gradientUnits="userSpaceOnUse" xlink:href="#id2" x1="99.373" y1="143.708" x2="84.362" y2="128.036"/><linearGradient id="id4" gradientUnits="userSpaceOnUse" xlink:href="#id2" x1="101.852" y1="144.96" x2="86.842" y2="129.288"/><linearGradient id="id5" gradientUnits="userSpaceOnUse" xlink:href="#id2" x1="33.566" y1="143.445" x2="26.649" y2="150.072"/><linearGradient id="id6" gradientUnits="userSpaceOnUse" xlink:href="#id2" x1="27.817" y1="130.807" x2="12.146" y2="145.818"/><linearGradient id="id7" gradientUnits="userSpaceOnUse" xlink:href="#id2" x1="47.382" y1="129.031" x2="31.71" y2="144.042"/><linearGradient id="id8" gradientUnits="userSpaceOnUse" xlink:href="#id2" x1="44.529" y1="145.092" x2="37.613" y2="151.719"/><linearGradient id="id9" gradientUnits="userSpaceOnUse" xlink:href="#id2" x1="86.021" y1="146.407" x2="71.01" y2="130.737"/><linearGradient id="id10" gradientUnits="userSpaceOnUse" xlink:href="#id2" x1="33.914" y1="132.343" x2="18.242" y2="147.353"/><linearGradient id="id11" gradientUnits="userSpaceOnUse" xlink:href="#id2" x1="35.166" y1="129.863" x2="19.495" y2="144.874"/><linearGradient id="id12" gradientUnits="userSpaceOnUse" xlink:href="#id2" x1="30.477" y1="142.375" x2="23.561" y2="149.002"/><linearGradient id="id13" gradientUnits="userSpaceOnUse" xlink:href="#id2" x1="26.217" y1="144.388" x2="19.302" y2="151.015"/><linearGradient id="id14" gradientUnits="userSpaceOnUse" xlink:href="#id2" x1="29.225" y1="144.853" x2="22.31" y2="151.482"/><linearGradient id="id15" gradientUnits="userSpaceOnUse" xlink:href="#id2" x1="87.771" y1="150.602" x2="72.76" y2="134.93"/><linearGradient id="id16" gradientUnits="userSpaceOnUse" xlink:href="#id2" x1="32.313" y1="145.923" x2="25.398" y2="152.552"/><linearGradient id="id17" gradientUnits="userSpaceOnUse" xlink:href="#id2" x1="30.826" y1="131.273" x2="15.154" y2="146.283"/><linearGradient id="id18" gradientUnits="userSpaceOnUse" xlink:href="#id2" x1="32.078" y1="128.793" x2="16.406" y2="143.804"/><linearGradient id="id19" gradientUnits="userSpaceOnUse" xlink:href="#id2" x1="24.963" y1="146.868" x2="18.049" y2="153.495"/><linearGradient id="id20" gradientUnits="userSpaceOnUse" xlink:href="#id2" x1="46.13" y1="131.51" x2="30.458" y2="146.52"/><linearGradient id="id21" gradientUnits="userSpaceOnUse" xlink:href="#id2" x1="83.543" y1="145.156" x2="68.532" y2="129.484"/><linearGradient id="id22" gradientUnits="userSpaceOnUse" xlink:href="#id2" x1="45.782" y1="142.612" x2="38.866" y2="149.241"/><linearGradient id="id23" gradientUnits="userSpaceOnUse" xlink:href="#id2" x1="90.249" y1="151.854" x2="75.239" y2="136.185"/><linearGradient id="id24" gradientUnits="userSpaceOnUse" xlink:href="#id2" x1="85.791" y1="142.108" x2="79.164" y2="135.192"/><linearGradient id="id25" gradientUnits="userSpaceOnUse" xlink:href="#id2" x1="69.961" y1="143.555" x2="63.333" y2="136.639"/><linearGradient id="id26" gradientUnits="userSpaceOnUse" xlink:href="#id2" x1="88.271" y1="143.36" x2="81.642" y2="136.444"/><linearGradient id="id27" gradientUnits="userSpaceOnUse" xlink:href="#id2" x1="74.189" y1="149.002" x2="67.562" y2="142.086"/><linearGradient id="id28" gradientUnits="userSpaceOnUse" xlink:href="#id2" x1="76.668" y1="150.253" x2="70.04" y2="143.339"/><linearGradient id="id29" gradientUnits="userSpaceOnUse" xlink:href="#id2" x1="72.439" y1="144.806" x2="65.812" y2="137.892"/><style>.str2{stroke:#373435;stroke-width:.902765}.fil13{fill:none}.fil1{fill:#848688}.fil0{fill:#606062}.fil10,.fil12{fill:#373435}.fil12{fill-rule:nonzero}.fil17,.fil33,.fil47{fill:#fff212;fill-rule:nonzero}.fil33{fill:#ffcc29}.fil15,.fil32,.fil34{fill:#f58634;fill-rule:nonzero}.fil15,.fil34{fill:#4e901e}.fil34{fill:#f0a71f}</style></defs><g id="Layer_x0020_1"><g id="_655073968"><path class="fil0" d="M97 26h7.91v13.261H97zM124 26h7.91v13.261H124z"/><rect class="fil1" x="89" y="1" width="51.182" height="26.289" rx="2" ry="2"/><path fill="url(#id0)" d="M93 6h42.807v18.146H93z"/><path d="M21 39h119c4 0 6 3 6 6v26H16V45c0-3 2-6 5-6z" fill="#d2d3d5"/><path fill="#96989a" d="M16 71h130l12 36H5z"/><path fill="#bdbfc1" d="M5 107h153.314v6.049H5z"/><path fill="url(#id1)" d="M87 45h53.044v16.983H87z"/><path fill="#2094c7" d="M87 62h53.044v2.443H87z"/><rect x="25" y="53" width="50.484" height="5.118" rx="3" ry="3" fill="#e6e7e8" stroke="#373435" stroke-width=".21"/><path d="M29 6l4 4 3-4 4 4 3-4 4 4 3-4 4 4 3-3 3 3 4-4 3 4 4-4s1 49 0 49H29V6z" fill="#fefefe" stroke="#373435" stroke-width=".21"/><rect class="fil1" x="34" y="19" width="20.938" height="2.327" rx="1" ry="1"/><rect class="fil1" x="34" y="26" width="20.938" height="2.327" rx="1" ry="1"/><rect class="fil1" x="34" y="34" width="20.938" height="2.327" rx="1" ry="1"/><rect class="fil1" x="58" y="19" width="8.304" height="2.327" rx="1" ry="1"/><rect class="fil1" x="58" y="26" width="8.304" height="2.327" rx="1" ry="1"/><rect class="fil1" x="58" y="34" width="8.304" height="2.327" rx="1" ry="1"/><rect class="fil1" x="34" y="41" width="20.938" height="2.327" rx="1" ry="1"/><rect class="fil1" x="58" y="41" width="8.304" height="2.327" rx="1" ry="1"/><rect class="fil1" x="53" y="49" width="14.236" height="2.327" rx="1" ry="1"/><path class="fil10 str2" d="M31 76h6s1 0 1 1l-1 4s0 1-1 1h-6l-1-1 1-4 1-1zM29 85h6l1 1-1 4c0 1-1 1-1 1h-6c-1 0-1 0-1-1l1-4 1-1zM27 95h6c1 0 1 1 1 1l-1 5s0 1-1 1h-7l-1-1 2-5s0-1 1-1zM47 76h6l1 1-1 4s0 1-1 1h-6l-1-1 1-4c0-1 0-1 1-1zM45 85h7l1 1-1 4c0 1 0 1-1 1h-6s-1 0-1-1v-4l1-1zM44 95h6c1 0 1 1 1 1v5c-1 0-1 1-1 1h-7c-1 0-1-1-1-1l1-5s0-1 1-1zM63 76h5c1 0 1 1 1 1v4s0 1-1 1h-6s-1-1 0-1v-4c0-1 0-1 1-1zM62 85h6l1 1-1 4c0 1 0 1-1 1h-6s-1 0 0-1v-4s0-1 1-1zM61 95h6c1 0 1 1 1 1v5s0 1-1 1h-7l-1-1 1-5 1-1z"/><rect class="fil10 str2" x="78" y="76" width="7.42" height="5.892" rx="1" ry="1"/><rect class="fil10 str2" x="77" y="85" width="8.125" height="6.452" rx="1" ry="1"/><rect class="fil10 str2" x="77" y="95" width="8.125" height="6.452" rx="1" ry="1"/><path class="fil10 str2" d="M131 76h-6s-1 0 0 1v4l1 1h6c1 0 1-1 1-1l-1-4c0-1 0-1-1-1zM133 85h-5c-1 0-1 1-1 1l1 4v1h6c1 0 2 0 1-1l-1-4s0-1-1-1zM136 95h-7l-1 1 1 5 1 1h7c1 0 1-1 1-1l-1-5-1-1zM116 76h-6c-1 0-1 1-1 1v4l1 1h6c1 0 1-1 1-1l-1-4v-1zM117 85h-6c-1 0-1 1-1 1v4l1 1h6c1 0 1 0 1-1v-4s0-1-1-1zM119 95h-7l-1 1 1 5s0 1 1 1h6c1 0 2-1 1-1v-5l-1-1zM100 76h-6c-1 0-1 1-1 1v4l1 1h6l1-1-1-4v-1zM101 85h-6c-1 0-1 1-1 1v4c0 1 1 1 1 1h6c1 0 1 0 1-1v-4l-1-1zM101 95h-6l-1 1v5l1 1h7c1 0 1-1 1-1l-1-5s0-1-1-1zM1 179h161v4c0 3-3 6-6 6H7c-3 0-6-3-6-6v-4z"/><path class="fil0 str2" d="M5 113h153l4 52H1z"/><path class="str2" d="M7 184h149c3 0 6-2 6-6v-22H1v22c0 4 3 6 6 6z" fill="#4b4b4d"/><ellipse class="fil10 str2" cx="82" cy="175" rx="4" ry="2"/><path class="fil12" d="M1 156l3-43h2l-3 43-1 1-1-1zm1 1H1v-1l1 1zm49 0H2v-2h49l1 1-1 1zm1-1v1h-1l1-1zm0-43v43h-2v-43l1-1 1 1zm-1-1h1v1l-1-1zm-46 0h46v2H5l-1-1 1-1zm-1 1v-1h1l-1 1z"/><path class="fil12" d="M112 114H51v-2h61l1 1-1 1zm0-2h1v1l-1-1zm-1 44v-43h2v43l-1 1-1-1zm2 0v1h-1l1-1zm-62-1h61v2H51l-1-1 1-1zm0 2h-1v-1l1 1zm1-44v43h-2v-43l1-1 1 1zm-2 0v-1h1l-1 1z"/><path class="fil12" d="M162 156l-1 1-1-1-3-43h2l3 43zm0 0v1h-1l1-1zm-50 1l-1-1 1-1h49v2h-49zm0 0h-1v-1l1 1zm-1-44l1-1 1 1v43h-2v-43zm0 0v-1h1l-1 1zm47-1l1 1-1 1h-46v-2h46zm0 0h1v1l-1-1z"/><path class="fil13" stroke="#373435" stroke-width=".93" d="M5 113l4 15-2 28h44v-25M9 128h42"/><g id="_745841776"><path fill="url(#id11)" fill-rule="nonzero" d="M35 152v-29H20l-1 28z"/><path class="fil15" d="M24 125h7c0 1 1 2 2 2v21c-1-1-2 1-2 2h-7c0-1-1-3-3-3v-20c2 0 3-1 3-2z"/><path d="M25 151l10 1v-10c0 3-1 5-3 7s-4 2-7 2z" fill="url(#id5)" fill-rule="nonzero"/><path class="fil17" d="M28 132v-3h-1v3zM28 146v-3h-1v3zM29 136l-1 1v1c-1 0-1 1-1 1h-2c-1 0-1-1-1-1h-1v-1h1c0-1 0-1 1-1 0-1 1-1 1-1v1l-1 1v1h1l1-1v-1h1v-1h1s1 0 1 1c1 0 1 0 1 1h1v1h-1l-1 1-1 1v-2c1 0 1 0 1-1-1 0-1-1-1-1z"/></g><g id="_745841200"><path fill="url(#id10)" fill-rule="nonzero" d="M34 154v-28H19l-1 28z"/><path class="fil15" d="M23 127h7c0 2 1 3 2 3v20c-1 0-3 1-3 3h-6c0-2-2-3-3-3v-20c2 0 3-1 3-3z"/><path d="M24 154h10v-10c0 3-1 5-3 7s-4 3-7 3z" fill="url(#id16)" fill-rule="nonzero"/><path class="fil17" d="M27 134v-2h-1v2zM27 148v-2h-2v2zM28 139h-1v1s-1 0-1 1 0 1-1 1-1 0-2-1v-1h-1v-1h1v-1h2v1h-1v1s0 1 1 1v-1h1v-1-1h3s0 1 1 1v1c-1 1-1 1-1 2h-2v-1h1v-1-1z"/></g><g id="_745839424"><path fill="url(#id7)" fill-rule="nonzero" d="M47 151v-28l-15-1v29z"/><path class="fil15" d="M36 124h7c0 1 1 3 3 3l-1 20c-1 0-2 1-2 2h-7c0-1-1-2-3-2l1-21c1 0 2-1 2-2z"/><path d="M37 151h10v-10c0 3-1 5-3 7s-4 3-7 3z" fill="url(#id22)" fill-rule="nonzero"/><path class="fil17" d="M40 131v-3h-1v3zM40 145v-3h-1v3zM41 136c-1 0-1 0-1 1s-1 1-1 1c0 1-1 1-1 1-1 0-1-1-1-1-1 0-1-1-1-1h-1v-1h1c0-1 0-1 1-1 0-1 1-1 1-1v2h-1v1h2v-1-1h1v-1h1c1 0 1 0 1 1 1 0 1 1 1 1h1v1h-1s0 1-1 1c0 1-1 1-1 1v-1s0-1 1-1v-1h-1z"/></g><g id="_745837456"><path fill="url(#id20)" fill-rule="nonzero" d="M46 153v-28H31l-1 28z"/><path class="fil15" d="M35 126h7c0 2 1 3 2 3v20c-1 0-2 1-3 3h-6c0-2-1-3-3-3v-20c2 0 3-1 3-3z"/><path d="M36 153h10v-9c0 2-1 5-3 6-2 2-4 3-7 3z" fill="url(#id8)" fill-rule="nonzero"/><path class="fil17" d="M39 133v-2h-1v2zM39 147v-2h-1v2zM40 138h-1v2h-1v1h-3v-2h-1v-1h1l1-1h1v1h-1v2h1c0-1 1-1 1-1v-1s0-1 1-1h2c0 1 1 1 1 2h1-1c0 1-1 1-1 2h-1v-1c1 0 1-1 1-1l-1-1z"/></g><g id="_745836664"><path fill="url(#id6)" fill-rule="nonzero" d="M28 153v-29H12v28z"/><path class="fil15" d="M17 126h6c0 1 2 2 3 2v20c-2 0-3 2-3 3h-7c0-1-1-3-2-3v-20c2 0 3-1 3-2z"/><path d="M18 152l10 1v-10c0 2-1 5-3 7-2 1-5 2-7 2z" fill="url(#id13)" fill-rule="nonzero"/><path class="fil17" d="M21 133v-3h-2v3zM21 147v-3h-2v3zM22 137c-1 0-1 0-1 1l-1 1v1h-1-1-1v-1h-1v-1h1v-1c1-1 1-1 2-1v1c-1 0-1 0-1 1v1h1v-1c1 0 1-1 1-1 0-1 1-1 1-1h1s1 0 1 1v1h1v1h-1v1c-1 0-1 1-2 1v-2h1v-1-1z"/></g><g id="_745835560"><path fill="url(#id2)" fill-rule="nonzero" d="M26 155l1-28H11v28z"/><path class="fil15" d="M16 128h6c0 2 1 3 3 3v20c-2 0-3 1-3 3l-7-1c0-1-1-2-2-2v-20c1 0 3-2 3-3z"/><path d="M17 155h9v-10c0 3-1 5-3 7-1 2-4 3-6 3z" fill="url(#id19)" fill-rule="nonzero"/><path class="fil17" d="M19 135v-3h-1v3zM19 149v-2h-1v2zM20 140s-1 0-1 1v1c-1 0-1 1-1 1h-1s-1 0-1-1c0 0-1 0-1-1h-1v-1h1l1-1h1v1c-1 0-1 0-1 1h2c0-1 0-1 1-1v-1h3v1h1v1h-1c0 1 0 1-1 2h-1v-1h1v-1-1h-1z"/></g><g id="_745834576"><path fill="url(#id18)" fill-rule="nonzero" d="M32 150v-28H17l-1 28z"/><path class="fil15" d="M21 124h7c0 1 1 2 2 2v20c-1 0-3 2-3 3h-6c0-1-1-3-3-3v-20c2 0 3-1 3-2z"/><path d="M22 150h10v-9c0 2-1 5-3 7-2 1-4 2-7 2z" fill="url(#id12)" fill-rule="nonzero"/><path class="fil17" d="M25 131v-3h-1v3zM25 145v-3h-1v3zM26 135s-1 0-1 1 0 1-1 1v1h-3v-2h-1 1c0-1 0-1 1-1 0-1 0-1 1-1v1s-1 0-1 1v1h1l1-1v-1h1v-1h1s1 0 1 1c0 0 1 0 1 1h1v1h-1l-1 1s-1 1-2 1l1-2c1 0 1 0 1-1h-1v-1z"/></g><g id="_745833280"><path fill="url(#id17)" fill-rule="nonzero" d="M31 153v-28H15v28z"/><path class="fil15" d="M20 126h6c0 2 2 3 3 3v20c-2 0-3 1-3 3l-7-1c1-1-1-2-2-2v-20c2 0 3-2 3-3z"/><path d="M21 153h10v-10c0 3-1 5-3 7s-5 3-7 3z" fill="url(#id14)" fill-rule="nonzero"/><path class="fil17" d="M24 133v-3h-2v3zM24 147v-2h-2v2zM25 138h-1v1c-1 0-1 0-1 1l-1 1h-1s-1 0-1-1v-1h-1v-1h1v-1h2v1h-1v1h1l1-1v-1h3v1h1v1h-1v2h-2v-1c1 0 1 0 1-1v-1z"/></g><path class="fil13" stroke="#373435" stroke-width=".93" d="M158 113l-4 15 2 28h-44v-25M154 128h-42"/><path class="fil13 str2" d="M111 113l-2 15v28"/><path class="fil13" stroke="#373435" stroke-width=".93" d="M52 113l2 15v28M54 128s48-1 55-1"/><g id="_745829368"><path class="fil32" d="M148 143c-3 0-6-3-6-7 0-3 3-6 6-6s6 3 6 6c0 4-3 7-6 7z"/><path class="fil33" d="M142 136c0-3 2-6 5-6-4 0-6 3-6 6 0 4 2 7 6 7-3 0-5-3-5-7z"/><path class="fil34" d="M142 137h-1 1zM142 135h-1v1h1v-1zM142 138h-1 1zM143 139h-2 2zM142 134h-1v1h1v-1zM143 133h-2 2zM144 131h-1l-1 1h2v-1zM145 130h-1l-1 1h2v-1zM143 140h-1v1h2l-1-1zM143 142h1-1z"/></g><path class="fil17" d="M149 138v-1h-1-1v-1h-1v-1c0-1 0-1 1-2h1v-1h1v1h1c0 1 1 1 1 2h-2v-1h-1c-1 0-1 0-1 1h1v1h1c1 0 1 0 1 1 1 0 1 1 1 1 0 1-1 1-1 1 0 1-1 1-1 1v1h-1v-1c-1 0-1 0-2-1v-1h1v1h2v-1z"/><g id="_745827016"><path class="fil32" d="M143 147c-3 0-6-3-6-7 0-3 3-6 6-6 4 0 6 3 6 6 0 4-2 7-6 7z"/><path class="fil33" d="M137 140c0-3 3-6 6-6h-1c-3 0-6 3-6 6 0 4 3 7 6 7h1c-3 0-6-3-6-7z"/><path class="fil34" d="M137 141h-1 1zM137 139h-1v1h1v-1zM138 142h-2 2zM138 143h-2s1 0 1 1h1v-1zM138 138h-2v1h2v-1zM138 137h-1 1zM139 136h-1-1 2zM141 134h-2v1h1s0-1 1-1zM139 144h-2c0 1 0 1 1 1h1v-1zM138 146h2-2z"/></g><path class="fil17" d="M144 142v-1h-1-1v-1h-1v-1c0-1 0-1 1-2h1v-1h1v1c1 0 1 0 1 1 1 0 1 0 1 1h-2v-1h-1v1c0 1 0 1 1 1h1v1h1v1c0 1 0 1-1 1 0 1-1 1-1 1v1h-1v-1c-1 0-1 0-1-1-1 0-1-1-1-1h1l1 1h1v-1z"/><g id="_655069000"><path class="fil32" d="M141 144c-4 0-6-3-6-7s2-7 6-7c3 0 6 3 6 7s-3 7-6 7z"/><path class="fil33" d="M135 137c0-3 2-6 5-7h-1c-3 0-6 3-6 7s3 7 6 7h1c-3-1-5-4-5-7z"/><path class="fil34" d="M135 137h-2v1h2v-1zM135 136h-2 2zM135 138h-2c0 1 1 1 1 1h1v-1zM135 140h-1 1zM135 135h-1 1zM136 134h-2 2zM137 132h-2v1h1c0-1 0-1 1-1zM138 131h-2 2zM136 141h-1v1h1v-1zM136 142v1h2c-1 0-1-1-1-1h-1z"/></g><path class="fil17" d="M142 139v-1h-1c-1 0-1-1-1-1h-1v-1-1-1s1-1 2-1v-1 1c1 1 1 1 2 1v2h-1v-1h-1-1v1h1c0 1 1 1 1 1h1v3c-1 0-1 1-2 1v1h-1v-1l-1-1s-1-1-1-2h2v1s0 1 1 1l1-1z"/><g id="_655058824"><path class="fil32" d="M151 149c-3 0-6-3-6-7s3-7 6-7 6 3 6 7-3 7-6 7z"/><path class="fil33" d="M145 142c0-3 2-6 5-7-4 0-6 3-6 7s2 7 6 7c-3-1-5-3-5-7z"/><path class="fil34" d="M145 142h-1v1h1v-1zM145 141h-1v1h1v-1zM145 144h-1 1zM146 145h-2 2zM145 140h-1 1zM146 139h-2 2zM147 137h-2v1h1c1 0 1-1 1-1zM148 136h-1s-1 0-1 1h2v-1zM146 146h-1v1h2l-1-1zM146 147v1h2l-1-1h-1z"/></g><path class="fil17" d="M152 144v-1h-1s-1 0-1-1h-1v-1-2h2v-1h1v1h1v2h-1v-1h-1c-1 0-1 0-1 1h1v1h2v3c0 1-1 1-1 1v1h-1v-1c-1 0-1 0-2-1v-1h1l1 1s1 0 1-1z"/><g id="_655057576"><path class="fil32" d="M138 153c-4 0-6-3-6-7s2-7 6-7c3 0 6 3 6 7s-3 7-6 7z"/><path class="fil33" d="M132 146c0-3 2-6 5-7h-1c-3 0-6 3-6 7s3 7 6 7h1c-3-1-5-4-5-7z"/><path class="fil34" d="M132 146h-2v1h2v-1zM132 145h-2 2zM132 147h-2c0 1 1 1 1 1h1v-1zM132 149h-1 1zM132 144h-1-1 2zM133 143h-2 2zM134 141h-2v1h1c0-1 0-1 1-1zM135 140h-2 2zM133 150h-1v1h1v-1zM133 151v1h2c-1 0-1-1-1-1h-1z"/></g><path class="fil17" d="M139 148v-1h-1c-1 0-1-1-1-1h-1v-1-1-1s1-1 2-1v-1 1c1 0 1 1 2 1v2h-1c0-1 0-1-1-1h-1v1h1c0 1 1 1 1 1h1v3c-1 0-1 1-2 1v1h-1v-1l-1-1s-1-1-1-2h2v1s0 1 1 1v-1h1z"/><g id="_655086928"><path class="fil32" d="M146 154c-3 0-6-3-6-7 0-3 3-6 6-6s6 3 6 6c0 4-3 7-6 7z"/><path class="fil33" d="M140 147c0-3 2-6 5-6h-1c-3 0-6 3-6 6 0 4 3 7 6 7h1c-3 0-5-3-5-7z"/><path class="fil34" d="M140 148h-2 2zM140 146h-1l-1 1h2v-1zM140 149h-1 1zM140 150h-1v1h2c0-1-1-1-1-1zM140 145h-1v1h1v-1zM141 144h-2v1h1l1-1zM142 143h-2 2zM143 141h-1l-1 1h1c1 0 1 0 1-1zM141 152h-1 1zM141 153h1-1z"/></g><path class="fil17" d="M147 149c0-1-1-1-1-1h-1s0-1-1-1v-1-2h2v-1 1c1 0 1 0 2 1v1h-1v-1h-1-1v1l1 1h1l1 1v2c-1 1-1 1-2 1v1-1c-1 0-2 0-2-1l-1-1h2v1h2v-1z"/><g><g id="_655085200"><path class="fil32" d="M133 143c-3 0-6-3-6-7s3-7 6-7c4 0 6 3 6 7s-2 7-6 7z"/><path class="fil33" d="M127 136c0-3 3-6 6-7h-1c-3 0-6 3-6 7s3 7 6 7h1c-3-1-6-4-6-7z"/><path class="fil34" d="M127 136h-1v1h1v-1zM128 135h-2v1h1c0-1 1-1 1-1zM128 137h-2v1h2v-1zM128 139h-2 2zM128 134h-2 2zM128 133h-1 1zM129 131h-1l-1 1h2v-1zM131 130h-2 2zM129 140h-2l1 1h1v-1zM128 141c0 1 1 1 1 1h1v-1h-2z"/></g><path class="fil17" d="M134 138v-1h-1v-1h-1s0-1-1-1v-1s0-1 1-1c0 0 1 0 1-1v-1h1v1l1 1c1 1 1 1 1 2h-2v-1h-1v1h1c0 1 0 1 1 1 0 1 1 1 1 1v1s0 1-1 1c0 0 0 1-1 1v1h-1v-1c-1 0-1-1-1-1-1 0-1-1-1-2h1c0 1 1 1 1 1 0 1 0 1 1 1v-1z"/></g><g><g id="_655084408"><path fill="url(#id9)" fill-rule="nonzero" d="M64 146h29v-15H64z"/><path class="fil15" d="M91 135v7c-1 0-2 1-2 3l-21-1c0-1-1-2-2-2v-7c1 0 3-1 3-3l20 1c0 1 1 2 2 2z"/><path d="M64 136v10h10c-3 0-5-1-7-3s-3-4-3-7z" fill="url(#id29)" fill-rule="nonzero"/><path class="fil17" d="M84 139h3v-1h-3zM70 139h3v-1h-3zM79 140v-1h-1c-1 0-1 0-1-1l-1-1c0-1 1-1 1-1 0-1 1-1 1-1v-1h1v1c1 0 1 1 1 1 1 0 1 1 1 1h-2v-1h-1v2h2v1h1v1c0 1 0 1-1 1 0 1-1 1-1 1v1h-1v-1s-1 0-1-1c-1 0-1-1-1-1h2v1h1v-1z"/></g><g id="_655082872"><path fill="url(#id21)" fill-rule="nonzero" d="M62 145h28v-15l-28-1z"/><path class="fil15" d="M89 134v7c-2 0-3 1-3 2H66c0-1-1-2-3-2v-7c2 0 3-1 3-3h20c0 2 1 3 3 3z"/><path d="M62 135v10h9c-2 0-5-1-6-3-2-2-3-4-3-7z" fill="url(#id25)" fill-rule="nonzero"/><path class="fil17" d="M82 138h2v-1h-2zM68 138h2v-1h-2zM77 139v-1h-1-1v-1h-1v-1c0-1 0-1 1-2h1v-1h1v1s1 0 1 1v1h-1v-1h-1c-1 0-1 1-1 1h1v1h1s1 0 1 1v2c-1 1-1 1-2 1v1-1c-1 0-1-1-2-1v-1h1c0 1 1 1 1 1h1v-1z"/></g></g><g><g id="_655081792"><path fill="url(#id4)" fill-rule="nonzero" d="M80 145h28l1-15-29-1z"/><path class="fil15" d="M107 134v7c-1 0-3 1-3 2H84c0-1-1-3-2-3v-6c1 0 2-2 2-3h20c0 2 2 3 3 3z"/><path d="M80 135v10h10c-3 0-5-1-7-3s-3-4-3-7z" fill="url(#id26)" fill-rule="nonzero"/><path class="fil17" d="M100 138h3v-1h-3zM86 138h3v-2h-3zM95 139v-1h-1s0-1-1-1l-1-1c0-1 0-1 1-2h1v-1h1v1h1c0 1 1 1 1 2h-2v-1h-1v1l1 1h1v1c1 0 1 0 1 1l-1 1-1 1h-1l-1-1c-1 0-1-1-1-2h1c0 1 0 1 1 1v1c1 0 1-1 1-1z"/></g><g id="_655080808"><path fill="url(#id3)" fill-rule="nonzero" d="M78 143l28 1v-16H78z"/><path class="fil15" d="M105 133v6c-2 0-3 2-3 3H82c0-2-1-3-3-3v-7c2 0 3-1 3-2h20c0 1 1 3 3 3z"/><path d="M78 134v9l9 1c-2-1-5-2-6-3-2-2-3-5-3-7z" fill="url(#id24)" fill-rule="nonzero"/><path class="fil17" d="M98 137h2v-2h-2zM84 136h2v-1h-2zM93 137c-1 0-1 0-1-1h-1-1v-1-1-1c1 0 1 0 2-1v-1 1c1 1 1 1 2 1v2h-1v-1h-1-1v1h1l1 1h1v3h-2v1-1h-2v-2h1v1h2v-1z"/></g></g><g><g id="_655079968"><path fill="url(#id23)" fill-rule="nonzero" d="M69 152h28v-16H69z"/><path class="fil15" d="M96 141l-1 7c-1 0-2 1-2 2H73c0-2-2-3-3-3v-6c2 0 3-2 3-3h20c0 2 1 3 3 3z"/><path d="M69 142v10h9c-2 0-5-1-7-3-1-2-2-5-2-7z" fill="url(#id28)" fill-rule="nonzero"/><path class="fil17" d="M89 145h2v-2h-2zM74 145h3v-2h-3zM84 146c0-1 0-1-1-1l-1-1h-1v-1-1-1h2v-1 1h2v2h-1c0-1 0-1-1-1h-1v1h1c0 1 1 1 1 1 1 0 1 1 1 1v1s0 1-1 1h-1v1h-1v-1h-1c0-1-1-1-1-2h2v1h2z"/></g><g id="_655078768"><path fill="url(#id15)" fill-rule="nonzero" d="M66 150l28 1v-16H66z"/><path class="fil15" d="M93 140v6c-2 0-3 1-3 3H70c0-2-1-3-3-3l1-7c1 0 2-1 2-2h20c0 1 2 3 3 3z"/><path d="M66 141v9h10c-3 0-5-1-7-2-2-2-3-5-3-7z" fill="url(#id27)" fill-rule="nonzero"/><path class="fil17" d="M86 143l3 1v-2h-3zM72 143h2l1-1h-3zM81 144s0-1-1-1h-1c0-1-1-1-1-1v-1s0-1 1-1l1-1v-1h1v1l1 1s1 1 1 2h-2v-1s0-1-1-1v2h1v1h1v3h-1v1h-1v-1h-2v-2h1s0 1 1 1h1v-1z"/></g></g><path class="fil47" d="M107 7l-1 2h-5l-2-2h8zm0 15h-8l2-2h5l1 2zm-7-6v4l-1 2v-7l1 1zm6-3V9l2-2v7h-1l-1-1zm0 1l1 1h-7v-1h6z"/><path id="1" class="fil47" d="M119 7l-2 2h-5l-1-2h8zm0 15h-8l1-2h5l2 2zm-9-8V7l2 2v4l-1 1h-1zm9 1v7l-1-2v-4l1-1zm-2-1l1 1h-7l1-1h5z"/><path id="2" class="fil47" d="M130 14l-1-1V9l1-2v7zm0-7l-1 2h-6l-1-2h8zm-7 6l-1 1V7l1 2v4zm7 9l-1-2v-4l1-1v7zm0 0h-8l1-2h6l1 2zm-7-2l-1 2v-7l1 1v4z"/><path class="fil47" d="M111 55v6l-2-2v-4l1-1 1 1zm-2-3v-4l2-1v6h-1l-1-1z"/><path id="1" class="fil47" d="M123 46l-2 2h-5l-2-2h9zm0 15h-9l2-1h5l2 1zm-7-6v4l-2 2v-6l1-1 1 1zm-2-2v-6l2 1v4l-1 1h-1zm9 2v6l-2-2v-4l1-1 1 1zm-2-2v-5l2-1v6h-2zm0 0l1 1-1 1h-5l-1-1 1-1h5z"/><path id="2" class="fil47" d="M134 46l-2 2h-5l-1-2h8zm0 15h-8l1-1h5l2 1zm-9-8v-6l2 1v4l-1 1h-1zm9 2v6l-1-2v-4l1-1v1zm-1-2v2h-6l-1-1 1-1h6z"/><path class="fil13" d="M0 0h163v191H0z"/></g></g></svg>