<svg xmlns="http://www.w3.org/2000/svg" width="271" height="161" shape-rendering="geometricPrecision" text-rendering="geometricPrecision" image-rendering="optimizeQuality" fill-rule="evenodd" clip-rule="evenodd"><defs><style>.fil8{fill:#fefefe}.fil11{fill:#96989a}.fil13{fill:#727376}.fil3{fill:#000}.fil6{fill:#033857}.fil4{fill:#2887d2}.fil14{fill:#ffef94}</style></defs><g id="Layer_x0020_1"><g id="_598135304"><path fill="#ffc18e" d="M36 72v14l1 10h24l-1-25z"/><path d="M36 81s5 5 12 5c6 0 13-4 13-4v-4l-25-1v4z" fill="#efae74"/><path d="M23 44s-2 0-3 1c0 2 0 4 1 8s2 5 3 5h1s1 8 7 15c5 6 10 11 15 11 6 0 14-5 17-9 2-5 7-13 8-15 0-1-1-1 1-2 1 0 3-2 4-6v-7c-1-1-2-1-2-1s0-6-2-10c-2-5-3-7-10-10-8-2-13-5-18-4-4 0-12 3-14 3s-6 2-7 4-2 6-2 6l1 11z" fill="#f9c9a9"/><path class="fil3" d="M77 42c-1 2-2 3-3 5l-1 1 1 7-2 1v-6s0-11-1-16c-2-5-5-8-7-9-3 0-7 3-8 4-2 0-10 3-11 4h-7s4-2 4-3c1-1 0-1-1 0-1 0-5 3-7 4-2 0-4 2-5 2-1 1-2 5-2 5s-1 4-1 7c1 3 1 7 1 9 1 1 1 3 1 3s-2-2-2-5c-1-2-1-10-2-11-2 0-2 1-2 1s-1-6-2-10v-5l-2 2s0-8 3-11c3-4 4-5 4-5h-4c-1 1 6-8 9-8 3-1 6-3 6-3h-4s8-3 13-3c4 1 7 2 9 2s11-1 16 4c5 4 6 6 8 12s0 19 0 21c-1 2-1 1-1 1z"/><g><path class="fil4" d="M79 159v-37l13-13s-3-9-16-15c-13-5-13-4-13-4l-14 41v28h30zM18 159v-37L5 109l1-1c1-4 5-10 15-14 13-5 13-4 13-4l15 41v28H18z"/><path class="fil4" d="M3 116v43h15v-37L5 109c0 3-2 4-2 7zM94 116c0 4 1 28 1 28v15H79v-37l13-13c1 3 2 4 2 7z"/><path d="M62 84s1 4 0 7c0 3-13 40-13 40L34 90s1-4 2-5c0-1 9 6 11 7l2 2s6-5 9-8c2-2 3-2 4-2z" fill="#fefefe" stroke="#727376" stroke-width=".262"/><path class="fil6" d="M58 92v9l-9-4v-2zM40 92v9l9-4v-2z"/><circle cx="49" cy="97" r="3" fill="#054f76"/><rect class="fil8" x="23" y="119" width="14.967" height="7.067" rx="1" ry="1"/></g><path fill="#6e3614" d="M3 150h265.894v9H3z"/><path fill="none" d="M0 0h271v161H0z"/><g><path class="fil3" d="M207 37h7.452v12.342H207zM195 100h30.738v14.205H195z"/><rect class="fil11" x="172" y="47" width="76.38" height="55.422" rx="7" ry="7"/><path fill="#91d8f7" d="M178 52h65.203v44.943H178z"/><rect class="fil11" x="181" y="18" width="60.545" height="20.725" rx="5" ry="5"/><path class="fil11" d="M154 115h114.338v6.054H154z"/><path class="fil3" d="M158 121h106.491v1.863H158z"/><path class="fil11" d="M154 123h114.338v27.478H154z"/><path class="fil13" d="M159 132h103.93v1.863H159zM159 134h103.93v13.506H159z"/><path class="fil14" d="M195 139h30.738v3.027H195z"/><path class="fil13" d="M122 123h29.888v27.478H122z"/><path class="fil11" d="M122 113h29.888v9.78H122z"/><rect class="fil8" x="125" y="116" width="23.874" height="4.34" rx="2" ry="2"/><path class="fil14" d="M188 28h45.176v1.811H188z"/></g></g></g></svg>