<svg xmlns="http://www.w3.org/2000/svg" width="48" height="42" xmlns:xlink="http://www.w3.org/1999/xlink" shape-rendering="geometricPrecision" text-rendering="geometricPrecision" image-rendering="optimizeQuality" fill-rule="evenodd" clip-rule="evenodd"><defs><linearGradient id="id0" gradientUnits="userSpaceOnUse" x1="14.065" y1="35.399" x2="33.935" y2="5.857"><stop offset="0" stop-color="#1cc8eb"/><stop offset=".631" stop-color="#0e96e0"/><stop offset="1" stop-color="#0063d4"/></linearGradient><linearGradient id="id1" gradientUnits="userSpaceOnUse" xlink:href="#id0" x1="21.222" y1="32.512" x2="26.778" y2="27.441"/><linearGradient id="id2" gradientUnits="userSpaceOnUse" xlink:href="#id0" x1="18.438" y1="38.131" x2="21.216" y2="33.059"/><style>.fil1{fill:#fefefe}</style></defs><g id="Layer_x0020_1"><g id="_807772888"><rect y="8" width="48" height="24.272" rx="6" ry="6" fill="url(#id0)"/><path class="fil1" d="M12 25h24v17H12z"/><path id="1" d="M36 25H12h25-1zm0 0h1-1zm0 17V25h1v17h-1zm1 0h-1 1zm-25-1h24v1H11l1-1zm0 1h-1 1zm0-17v17h-1V25h1zm-1 0h1-1z" fill="#1cc8eb" fill-rule="nonzero"/><path fill="url(#id1)" d="M16 29h16.692v2.517H16z"/><path fill="url(#id2)" d="M16 34h8.346v2.517H16z"/><circle class="fil1" cx="42" cy="16" r="3"/><g><path d="M9 0v7H8h1-1V1l1-1zm33 1H9V0h33v1zm0-1v1-1zm-1 7V1h1v6h-1z" fill="#0063d4" fill-rule="nonzero"/></g></g></g></svg>