<?xml version="1.0" encoding="UTF-8"?>
<!DOCTYPE svg PUBLIC "-//W3C//DTD SVG 1.1//EN" "http://www.w3.org/Graphics/SVG/1.1/DTD/svg11.dtd">
<!-- Creator: CorelDRAW X7 -->
<svg xmlns="http://www.w3.org/2000/svg" xml:space="preserve" width="50px" height="50px" version="1.1" style="shape-rendering:geometricPrecision; text-rendering:geometricPrecision; image-rendering:optimizeQuality; fill-rule:evenodd; clip-rule:evenodd"
viewBox="0 0 50 50"
 xmlns:xlink="http://www.w3.org/1999/xlink">
 <defs>
  <style type="text/css">
   <![CDATA[
    .fil0 {fill:none}
    .fil3 {fill:#1CC8EB;fill-rule:nonzero}
    .fil1 {fill:#2887D2;fill-rule:nonzero}
    .fil4 {fill:#C7CAC7;fill-rule:nonzero}
    .fil2 {fill:#E7ECED;fill-rule:nonzero}
    .fil5 {fill:white;fill-rule:nonzero}
   ]]>
  </style>
 </defs>
 <g id="Layer_x0020_1">
  <metadata id="CorelCorpID_0Corel-Layer"/>
  <rect class="fil0" width="50" height="50"/>
  <rect class="fil0" width="50" height="50"/>
  <g id="_686175536">
   <polygon class="fil1" points="48,9 48,49 2,49 2,1 40,1 "/>
   <polygon class="fil2" points="9,49 40,49 40,28 9,28 "/>
   <polygon class="fil3" points="9,40 40,40 40,28 9,28 "/>
   <polygon class="fil4" points="11,17 37,17 37,1 11,1 "/>
   <path class="fil5" d="M14 33l7 0c0,0 1,-1 1,-1 0,-1 -1,-1 -1,-1l-7 0c-1,0 -1,0 -1,1 0,0 0,1 1,1z"/>
   <path class="fil5" d="M24 35l-10 0c-1,0 -1,0 -1,1 0,0 0,1 1,1l10 0c1,0 1,-1 1,-1 0,-1 0,-1 -1,-1z"/>
   <path class="fil5" d="M28 35c-1,0 -1,0 -2,0 0,0 0,0 0,1 0,0 0,0 0,0 1,1 1,1 1,1 0,0 1,0 1,-1 0,0 0,0 0,0 0,-1 0,-1 0,-1z"/>
   <g>
    <path class="fil1" d="M33 14l-4 0 0 -2 4 0 1 1 -1 1zm1 -1l0 1 -1 0 1 -1zm0 -8l0 8 -2 0 0 -8 1 -1 1 1zm-1 -1l1 0 0 1 -1 -1zm-4 0l4 0 0 2 -4 0 -1 -1 1 -1zm-1 1l0 -1 1 0 -1 1zm0 8l0 -8 2 0 0 8 -1 1 -1 -1zm1 1l-1 0 0 -1 1 1z"/>
   </g>
   <polygon class="fil2" points="26,17 11,17 11,1 18,1 "/>
  </g>
 </g>
</svg>
