<svg xmlns="http://www.w3.org/2000/svg" width="48" height="36" xmlns:xlink="http://www.w3.org/1999/xlink" shape-rendering="geometricPrecision" text-rendering="geometricPrecision" image-rendering="optimizeQuality" fill-rule="evenodd" clip-rule="evenodd"><defs><linearGradient id="b" gradientUnits="userSpaceOnUse" x1="42.071" y1="26.868" x2="24.215" y2="2.845"><stop offset="0" stop-color="#1deb23"/><stop offset=".631" stop-color="#11b919"/><stop offset="1" stop-color="#04870f"/></linearGradient><linearGradient id="a" gradientUnits="userSpaceOnUse" x1="9.341" y1="41.946" x2="16.499" y2="7.668"><stop offset="0" stop-color="#1cc8eb"/><stop offset=".631" stop-color="#0e96e0"/><stop offset="1" stop-color="#0063d4"/></linearGradient><linearGradient id="d" gradientUnits="userSpaceOnUse" xlink:href="#a" x1="9.341" y1="50.6" x2="16.499" y2="16.322"/><linearGradient id="c" gradientUnits="userSpaceOnUse" xlink:href="#a" x1="5.489" y1="32.394" x2="9.694" y2="-2.68"/></defs><path d="M33 0c3 0 3 1 3 3v9h9c2 0 3 0 3 3 0 2-1 3-3 3h-9v9c0 2 0 3-3 3-2 0-3-1-3-3v-9h-9c-2 0-3-1-3-3 0-3 1-3 3-3h9V3c0-2 1-3 3-3z" fill="url(#b)"/><path fill="url(#a)" d="M0 22h25.84v5.541H0z"/><path fill="url(#c)" d="M0 12h15.184v5.67H0z"/><path fill="url(#d)" d="M0 31h25.84v5.541H0z"/></svg>