<svg xmlns="http://www.w3.org/2000/svg" width="163" height="190" viewBox="0 0 163 191" xmlns:xlink="http://www.w3.org/1999/xlink" shape-rendering="geometricPrecision" text-rendering="geometricPrecision" image-rendering="optimizeQuality" fill-rule="evenodd" clip-rule="evenodd"><defs><linearGradient id="id0" gradientUnits="userSpaceOnUse" x1="112.259" y1="43.672" x2="114.254" y2="63.91"><stop offset="0" stop-color="#25a6d9"/><stop offset="1" stop-color="#1672a5"/></linearGradient><linearGradient id="id1" gradientUnits="userSpaceOnUse" xlink:href="#id0" x1="113.648" y1="4.4" x2="115.657" y2="24.78"/><style>.str0{stroke:#373435;stroke-width:.902765}.fil0{fill:#606062}.fil6{fill:#373435}</style></defs><g id="Layer_x0020_1"><g id="_655071760"><path class="fil0" d="M97 26h7.91v13.261H97zM124 26h7.91v13.261H124z"/><rect x="89" y="1" width="51.182" height="26.289" rx="2" ry="2" fill="#848688"/><path fill="url(#id1)" d="M93 6h42.807v18.146H93z"/><path d="M21 39h119c4 0 6 3 6 6v26H16V45c0-3 2-6 5-6z" fill="#d2d3d5"/><path fill="#96989a" d="M16 71h130l12 36H5z"/><path fill="#bdbfc1" d="M5 107h153.314v6.049H5z"/><path class="fil6 str0" d="M5 139h153v5c0 3-2 6-6 6H11c-4 0-6-3-6-6v-5z"/><path class="str0" d="M11 145h141c4 0 6-3 6-6v-26H5v26c0 3 2 6 6 6z" fill="#4b4b4d"/><path fill="url(#id0)" d="M87 45h53.044v16.983H87z"/><path fill="#2094c7" d="M87 62h53.044v2.443H87z"/><rect class="str0" x="25" y="53" width="50.484" height="5.118" rx="3" ry="3" fill="#e6e7e8"/><circle class="fil6 str0" cx="82" cy="129" r="4"/><path class="fil6 str0" d="M31 76h6s1 0 1 1l-1 4s0 1-1 1h-6l-1-1 1-4 1-1zM29 85h6l1 1-1 4c0 1-1 1-1 1h-6c-1 0-1 0-1-1l1-4 1-1zM27 95h6c1 0 1 1 1 1l-1 5s0 1-1 1h-7l-1-1 2-5s0-1 1-1zM47 76h6l1 1-1 4s0 1-1 1h-6l-1-1 1-4c0-1 0-1 1-1zM45 85h7l1 1-1 4c0 1 0 1-1 1h-6s-1 0-1-1v-4l1-1zM44 95h6c1 0 1 1 1 1v5c-1 0-1 1-1 1h-7c-1 0-1-1-1-1l1-5s0-1 1-1zM63 76h5c1 0 1 1 1 1v4s0 1-1 1h-6s-1-1 0-1v-4c0-1 0-1 1-1zM62 85h6l1 1-1 4c0 1 0 1-1 1h-6s-1 0 0-1v-4s0-1 1-1zM61 95h6c1 0 1 1 1 1v5s0 1-1 1h-7l-1-1 1-5 1-1z"/><rect class="fil6 str0" x="78" y="76" width="7.42" height="5.892" rx="1" ry="1"/><rect class="fil6 str0" x="77" y="85" width="8.125" height="6.452" rx="1" ry="1"/><rect class="fil6 str0" x="77" y="95" width="8.125" height="6.452" rx="1" ry="1"/><path class="fil6 str0" d="M131 76h-6s-1 0 0 1v4l1 1h6c1 0 1-1 1-1l-1-4c0-1 0-1-1-1zM133 85h-5c-1 0-1 1-1 1l1 4v1h6c1 0 2 0 1-1l-1-4s0-1-1-1zM136 95h-7l-1 1 1 5 1 1h7c1 0 1-1 1-1l-1-5-1-1zM116 76h-6c-1 0-1 1-1 1v4l1 1h6c1 0 1-1 1-1l-1-4v-1zM117 85h-6c-1 0-1 1-1 1v4l1 1h6c1 0 1 0 1-1v-4s0-1-1-1zM119 95h-7l-1 1 1 5s0 1 1 1h6c1 0 2-1 1-1v-5l-1-1zM100 76h-6c-1 0-1 1-1 1v4l1 1h6l1-1-1-4v-1zM101 85h-6c-1 0-1 1-1 1v4c0 1 1 1 1 1h6c1 0 1 0 1-1v-4l-1-1zM101 95h-6l-1 1v5l1 1h7c1 0 1-1 1-1l-1-5s0-1-1-1z"/><path fill="none" d="M0 0h163v191H0z"/></g></g></svg>