<svg xmlns="http://www.w3.org/2000/svg" width="347" height="143" viewBox="0 0 359 148" shape-rendering="geometricPrecision" text-rendering="geometricPrecision" image-rendering="optimizeQuality" fill-rule="evenodd" clip-rule="evenodd"><defs><style>.fil3{fill:#99562c}.fil7{fill:#00a859;fill-rule:nonzero}</style></defs><g id="Layer_x0020_1"><g id="_677626016"><path fill="none" d="M0 0h359v148H0z"/><path d="M209 25s-12-1-13 6c-1 8 0 12 6 13 6 2 51 1 51 1h64s10 0 13 1c2 0 4 1 4 1V31c0-4-3-6-30-6h-95z" fill="#bf774a"/><path d="M204 22h122c7 0 12 6 12 12v18c-6-2-4-3-12-3H204c-8 0-12-9-12-13v-2c0-6 5-12 12-12zm5 3s-12-1-13 6c-1 8 0 12 6 13 6 2 51 1 51 1h64s10 0 13 1c2 0 4 1 4 1V31c0-4-3-6-30-6h-95z" fill="#ad5f2f"/><path class="fil3" d="M204 49h126c7 1 13 6 13 13v67c0 6-6 12-13 12H204c-7 0-12-6-12-12V37c2 5 5 12 12 12zM343 70s4 1 6 2c1 1 1 2 1 2s-4 2-5 3h-2v-7z"/><path d="M200 54s-1 70 0 70 0 7 8 7h119s7 1 8-6V62s1-6-7-6H206c-1-1-5-4-6-2z" fill="#ad5f2f"/><path class="fil3" d="M311 77s-7 0-14 6c-6 7-4 18-1 21 2 4 6 7 13 9 7 1 32 0 34 0 3 0 5 0 7-4 2-3 1-30 1-30s0-4-1-5l-1-1s1 2-4 4c-5 1-34 0-34 0z"/><path d="M345 74l2 2-4 1v-3h2z" fill="#6e3614"/><circle cx="317" cy="95" r="12" fill="#e09200"/><path class="fil7" d="M129 102c0-3-1-5-3-7-1-2-4-3-8-5-4-1-8-3-11-4-3-2-5-3-7-5s-4-5-5-7c-1-3-2-6-2-10 0-6 2-11 6-15s9-6 16-7v-9c0-2 1-3 3-3h3c2 0 3 1 3 3v9c7 1 12 4 15 8 4 5 6 9 6 16 0 3-2 5-5 5h-6c-3 0-5-2-5-5 0-4-1-6-3-8s-4-3-7-3-6 1-7 2c-2 2-3 4-3 7s1 5 3 7c1 2 4 4 9 5 4 2 8 4 11 5 3 2 5 4 7 6s3 4 4 6c1 3 2 6 2 9 0 7-2 12-6 16s-9 6-16 7v8c0 1-1 3-3 3h-3c-2 0-3-2-3-3v-8c-8-1-13-4-18-8-4-5-6-9-6-17 0-2 3-4 5-4h6c3 0 5 2 5 4v1c0 4 1 5 3 7 2 3 5 4 9 4s6-1 8-3c2-1 3-4 3-7zM22 29v36H9l26 35 25-35H47V29H22zm13 0"/></g></g></svg>