<?xml version="1.0" encoding="UTF-8"?>
<!DOCTYPE svg PUBLIC "-//W3C//DTD SVG 1.1//EN" "http://www.w3.org/Graphics/SVG/1.1/DTD/svg11.dtd">
<!-- Creator: CorelDRAW X7 -->
<svg xmlns="http://www.w3.org/2000/svg" xml:space="preserve" width="120px" height="120px" version="1.1" style="shape-rendering:geometricPrecision; text-rendering:geometricPrecision; image-rendering:optimizeQuality; fill-rule:evenodd; clip-rule:evenodd"
viewBox="0 0 120 120"
 xmlns:xlink="http://www.w3.org/1999/xlink">
 <defs>
  <style type="text/css">
   <![CDATA[
    .fil0 {fill:none}
    .fil3 {fill:#FEFEFE}
    .fil4 {fill:#1CC8EB}
    .fil2 {fill:#FEFEFE;fill-rule:nonzero}
    .fil1 {fill:#2887D2;fill-rule:nonzero}
   ]]>
  </style>
    <clipPath id="id0" style="clip-rule:nonzero">
     <path d="M62 55c0,0 0,0 0,0 0,0 0,0 0,0l0 0 0 0zm0 0c0,0 0,0 0,0 0,0 0,0 0,0zm0 0c0,0 0,0 0,0 0,0 0,0 0,0zm0 0c0,0 0,0 0,0 0,0 0,0 0,0zm0 0l0 0 0 0zm8 -7c0,0 0,0 0,0 0,0 0,0 0,0zm0 0c0,0 0,0 0,0 0,0 0,0 0,0l0 0z"/>
    </clipPath>
    <clipPath id="id1" style="clip-rule:nonzero">
     <path d="M79 84l-33 0c0,0 0,0 0,0 0,0 0,0 0,0l33 0c3,0 5,-2 5,-5l0 -2 0 0 0 2c0,3 -2,5 -5,5zm0 -17c0,0 0,0 0,0 0,0 0,0 0,0l0 0z"/>
    </clipPath>
    <clipPath id="id2" style="clip-rule:nonzero">
     <path d="M56 58l0 0 0 0 0 0 0 0z"/>
    </clipPath>
    <clipPath id="id3" style="clip-rule:nonzero">
     <path d="M56 58c0,0 0,0 0,0l0 0 0 0z"/>
    </clipPath>
 </defs>
 <g id="Layer_x0020_1">
  <metadata id="CorelCorpID_0Corel-Layer"/>
  <rect class="fil0" width="120" height="120"/>
  <g id="_597664200">
   <g>
    <path class="fil1" d="M99 2l-73 0c-5,0 -9,4 -9,10l0 9 -3 0c-1,0 -2,1 -2,3 0,1 1,2 2,2l3 0 0 19 -3 0c-1,0 -2,2 -2,3 0,1 1,2 2,2l3 0 0 20 -3 0c-1,0 -2,1 -2,2 0,1 1,2 2,2l3 0 0 20 -3 0c-1,0 -2,1 -2,2 0,2 1,3 2,3l3 0 0 9c0,6 4,10 9,10l73 0c5,0 9,-4 9,-10l0 -96c0,-6 -4,-10 -9,-10z"/>
    <path class="fil1" d="M104 108c0,3 -3,5 -5,5l-73 0c-2,0 -5,-2 -5,-5l0 -9 3 0c1,0 2,-1 2,-3 0,-1 -1,-2 -2,-2l-3 0 0 -20 3 0c1,0 2,-1 2,-2 0,-1 -1,-2 -2,-2l-3 0 0 -20 3 0c1,0 2,-1 2,-2 0,-1 -1,-3 -2,-3l-3 0 0 -19 3 0c1,0 2,-1 2,-2 0,-2 -1,-3 -2,-3l-3 0 0 -9c0,-3 3,-5 5,-5l73 0c2,0 5,2 5,5l0 96z"/>
   </g>
   <g style="clip-path:url(#id0)">
    <image x="62" y="48" width="7.61717" height="7.61716" xlink:href="PhoneBook_Images\PhoneBook_ImgID1.png"/>
   </g>
   <g style="clip-path:url(#id1)">
    <image x="46" y="67" width="38.6342" height="17.0876" xlink:href="PhoneBook_Images\PhoneBook_ImgID2.png"/>
   </g>
   <g style="clip-path:url(#id2)">
    <image x="55" y="58" width="0.344381" height="0.344385" xlink:href="PhoneBook_Images\PhoneBook_ImgID3.png"/>
   </g>
   <g style="clip-path:url(#id3)">
    <image x="55" y="58" width="0.888142" height="0.684234" xlink:href="PhoneBook_Images\PhoneBook_ImgID4.png"/>
   </g>
   <g>
    <path class="fil2" d="M59 80c11,9 27,11 39,1 0,0 0,0 0,0l1 -1c-3,-3 -8,-5 -12,-7 0,0 -1,-1 -1,-2l0 -3c0,0 1,0 1,-1 1,-1 2,-3 3,-5 1,-1 2,-2 2,-4l0 -4c0,-1 -1,-2 -1,-2l0 -5c0,-1 0,-4 -2,-7 -2,-2 -5,-3 -10,-3 -5,0 -4,2 -6,2 -1,1 -2,0 -4,2 -2,2 -1,5 -1,6l0 5c-1,0 -1,1 -1,2l0 4c0,1 0,2 1,3 1,4 3,6 3,7l0 3c0,1 0,2 -1,2l-8 5c-1,0 -2,1 -3,2z"/>
    <path class="fil3" d="M48 91l4 -15 -5 -2c0,0 0,1 -1,0 -1,0 -1,-6 -1,-9 0,-3 1,-6 1,-6 0,0 1,-3 2,-6 1,-2 5,-7 6,-7 1,0 1,1 1,1l5 1 4 -15c0,0 -4,-1 -6,-1 -1,-1 -7,1 -11,8 -4,6 -7,17 -7,17 0,0 -3,12 -3,19 0,8 4,12 5,13 2,0 6,2 6,2z"/>
   </g>
   <rect class="fil4" x="12" y="20" width="19.4647" height="7.79774" rx="3" ry="4"/>
   <rect class="fil4" x="12" y="44" width="19.4647" height="7.75954" rx="3" ry="4"/>
   <rect class="fil4" x="12" y="68" width="19.4647" height="7.89675" rx="3" ry="4"/>
   <rect class="fil4" x="12" y="92" width="19.4647" height="7.8034" rx="3" ry="4"/>
  </g>
 </g>
</svg>
