<svg width="44" height="44" viewBox="0 0 44 44" fill="none" xmlns="http://www.w3.org/2000/svg">
<path fill-rule="evenodd" clip-rule="evenodd" d="M26.1142 1.12627C37.6336 3.42164 45.1259 14.5946 42.874 26.1145C41.618 32.4375 37.7204 37.5041 32.5667 40.4491L29.2753 33.9096C32.4801 31.9175 34.9053 28.7127 35.6849 24.7283C37.1573 17.1494 32.2635 9.83078 24.7279 8.31499C20.9168 7.5788 17.1924 8.44484 14.2041 10.4371L10.826 3.89765C15.2434 1.16934 20.6569 0.0432677 26.1132 1.12595L26.1142 1.12643V1.12627Z" fill="#FC4D44"/>
<path fill-rule="evenodd" clip-rule="evenodd" d="M30.315 41.5761C26.5039 43.1785 22.2164 43.6982 17.8861 42.8752C6.3667 40.5799 -1.12559 29.4069 1.12639 17.887C2.12245 12.8633 4.80753 8.66244 8.40205 5.63135L11.8666 12.4307C10.0909 14.2929 8.835 16.6315 8.31527 19.2732C6.84288 26.8522 11.7366 34.1707 19.2722 35.6865C21.9573 36.2062 24.5558 35.9464 26.9378 35.0369L30.3158 41.5764L30.3149 41.5759L30.315 41.5761Z" fill="#2887D2"/>
<path fill-rule="evenodd" clip-rule="evenodd" d="M14.1179 15.375H30.3147C30.6612 15.375 31.0077 15.7647 31.0077 16.2412V30.3159C31.0077 30.7922 30.7046 31.1819 30.3147 31.1819H14.1179C13.7282 31.1819 13.4249 30.7922 13.4249 30.3159V16.2412C13.4249 15.7647 13.728 15.375 14.1179 15.375Z" fill="#FEFEFE"/>
<path d="M30.315 15.8518H14.1184V14.9424H30.315V15.8518ZM31.4411 16.2415H30.575V16.1981V16.1549H30.5316V16.1115V16.0681V16.0247H30.4882V15.9815V15.9381H30.445V15.8947H30.4016L30.3582 15.8515H30.3148V14.942H30.3582H30.4016H30.4882H30.5316L30.575 14.9854H30.6616L30.705 15.0288H30.7483L30.7917 15.0721L30.8783 15.1154H30.9217L30.9651 15.1588L31.0083 15.2021L31.0517 15.2455L31.0951 15.2888V15.3322L31.1385 15.3755L31.1817 15.4189L31.2251 15.5055V15.5489L31.2685 15.5923L31.3117 15.6355V15.7221L31.3551 15.7653V15.8087V15.8954L31.3985 15.9387V16.0254V16.0688V16.1121L31.4417 16.1988V16.2422L31.4411 16.2415ZM30.575 30.3165V16.242H31.4411V30.3165H30.575ZM30.3152 31.6591V30.7062H30.3586H30.4019V30.6628H30.4453L30.4886 30.6194V30.5762H30.532V30.5328V30.4894V30.4462H30.5753V30.4028V30.3594V30.316H31.4414V30.4027L31.3982 30.446V30.5327V30.5761V30.6627V30.7061L31.3548 30.7493V30.8359L31.3114 30.8792V30.9225L31.2682 30.9659V31.0526L31.2248 31.0959L31.1814 31.1393L31.1381 31.1826V31.226L31.0948 31.2693L31.0514 31.3126L31.008 31.356L30.9647 31.3994L30.9213 31.4426L30.878 31.486H30.8347L30.7913 31.5294L30.7047 31.5726H30.6613L30.6179 31.616H30.5747H30.4881H30.4449L30.4015 31.6594H30.3148L30.3152 31.6591ZM14.118 30.7062H30.3148V31.6591H14.118V30.7062ZM12.9921 30.3164H13.8582V30.3597V30.4031V30.4465V30.4898H13.9016V30.5331V30.5765L13.945 30.6198V30.6632H13.9882V30.7065H14.0316H14.075H14.1182V31.6594H14.0316L13.9882 31.616H13.9016H13.8582H13.8149L13.7716 31.5726H13.6849L13.6415 31.5294L13.5982 31.486H13.5548L13.5115 31.4426L13.4681 31.3994L13.4247 31.356L13.3815 31.3126L13.3381 31.2693L13.2947 31.226L13.2515 31.1826V31.1393L13.2081 31.0959L13.1647 31.0526L13.1215 30.9659V30.9225L13.0781 30.8792V30.8359V30.7493L13.0347 30.7061V30.6627V30.5761L12.9915 30.5327V30.446V30.4027V30.316L12.9921 30.3164ZM13.8582 16.2414V30.316H12.9921V16.2414H13.8582ZM14.118 14.942V15.8515H14.0748H14.0314V15.8947H13.988V15.9381H13.9448V15.9815L13.9014 16.0247V16.0681L13.858 16.1115V16.1549V16.1981V16.2415H12.992V16.1981V16.1115V16.0681L13.0352 16.0247V15.9381V15.8947L13.0786 15.8081V15.7647V15.7215L13.122 15.6349L13.1652 15.5916V15.5482L13.2086 15.5048L13.252 15.4182V15.3748L13.2952 15.3316L13.3386 15.2882L13.382 15.2448L13.4252 15.2014L13.4686 15.1582L13.512 15.1148H13.5552L13.5986 15.0714L13.642 15.0282H13.7286L13.772 14.9848H13.8154L13.902 14.9414H13.9454H13.9887H14.0753H14.1185L14.118 14.942Z" fill="#04870F"/>
<path fill-rule="evenodd" clip-rule="evenodd" d="M13.8148 13.2078H30.7044C31.2674 13.2078 31.7437 13.6843 31.7437 14.2471V16.9321H12.7754V14.2471C12.7754 13.6841 13.2519 13.2078 13.8148 13.2078Z" fill="#04870F"/>
<path fill-rule="evenodd" clip-rule="evenodd" d="M16.8464 11.0015H17.5531C17.7688 11.001 17.9433 11.195 17.9433 11.4341L17.9428 14.8947C17.9433 15.1338 17.7686 15.3279 17.5534 15.3279H16.8462C16.6313 15.3279 16.4568 15.1338 16.4568 14.8947L16.4563 11.4341C16.4568 11.195 16.6313 11.001 16.8465 11.001L16.8464 11.0015Z" fill="#19D81F"/>
<path fill-rule="evenodd" clip-rule="evenodd" d="M20.2243 11.0015H20.931C21.1467 11.001 21.3212 11.195 21.3212 11.4341L21.3207 14.8947C21.3212 15.1338 21.1467 15.3279 20.9313 15.3279H20.2241C20.0093 15.3279 19.8347 15.1338 19.8347 14.8947L19.8343 11.4341C19.8347 11.195 20.0093 11.001 20.2245 11.001L20.2243 11.0015Z" fill="#19D81F"/>
<path fill-rule="evenodd" clip-rule="evenodd" d="M23.6023 11.0015H24.3091C24.5239 11.001 24.6984 11.195 24.6984 11.4341L24.6989 14.8947C24.6984 15.1338 24.5239 15.3279 24.3087 15.3279H23.6023C23.3866 15.3279 23.2121 15.1338 23.2121 14.8947L23.2126 11.4341C23.2121 11.195 23.3868 11.001 23.602 11.001L23.6023 11.0015Z" fill="#19D81F"/>
<path fill-rule="evenodd" clip-rule="evenodd" d="M26.9804 11.0015H27.6871C27.902 11.001 28.0765 11.195 28.0765 11.4341L28.077 14.8947C28.0765 15.1338 27.902 15.3279 27.6868 15.3279H26.9804C26.7647 15.3279 26.5902 15.1338 26.5902 14.8947L26.5907 11.4341C26.5902 11.195 26.7647 11.001 26.9801 11.001L26.9804 11.0015Z" fill="#19D81F"/>
<path fill-rule="evenodd" clip-rule="evenodd" d="M27.2836 20.2237H29.1168V18.2766H27.2836V20.2237Z" fill="#FEFEFE"/>
<path fill-rule="evenodd" clip-rule="evenodd" d="M18.4054 20.8932H21.1118V18.187H18.4054V20.8932Z" fill="#04870F"/>
<path fill-rule="evenodd" clip-rule="evenodd" d="M22.6929 20.8932H25.3991V18.187H22.6929V20.8932Z" fill="#04870F"/>
<path fill-rule="evenodd" clip-rule="evenodd" d="M26.9803 20.8932H29.6866V18.187H26.9803V20.8932Z" fill="#04870F"/>
<path fill-rule="evenodd" clip-rule="evenodd" d="M18.4054 25.1811H21.1118V22.4749H18.4054V25.1811Z" fill="#04870F"/>
<path fill-rule="evenodd" clip-rule="evenodd" d="M22.6929 25.1811H25.3991V22.4749H22.6929V25.1811Z" fill="#04870F"/>
<path fill-rule="evenodd" clip-rule="evenodd" d="M26.9803 25.1811H29.6866V22.4749H26.9803V25.1811Z" fill="#04870F"/>
<path fill-rule="evenodd" clip-rule="evenodd" d="M18.4054 29.5123H21.1118V26.8059H18.4054V29.5123Z" fill="#04870F"/>
<path fill-rule="evenodd" clip-rule="evenodd" d="M22.6929 29.5123H25.3991V26.8059H22.6929V29.5123Z" fill="#04870F"/>
<path fill-rule="evenodd" clip-rule="evenodd" d="M26.9803 29.5123H29.6866V26.8059H26.9803V29.5123Z" fill="#04870F"/>
<path fill-rule="evenodd" clip-rule="evenodd" d="M14.6379 25.1811H17.3443V22.4749H14.6379V25.1811Z" fill="#04870F"/>
<path fill-rule="evenodd" clip-rule="evenodd" d="M14.6379 29.5123H17.3443V26.8059H14.6379V29.5123Z" fill="#04870F"/>
</svg>
