<svg width="42" height="44" viewBox="0 0 42 44" fill="none" xmlns="http://www.w3.org/2000/svg">
<path fill-rule="evenodd" clip-rule="evenodd" d="M38.1063 28.1062L27.626 43.2637L4.58664 27.3267L38.1063 28.1062ZM31.6103 32.2637L26.8898 39.0629L16.5827 31.9172L31.6103 32.2637Z" fill="#FC4D44"/>
<path d="M9.39368 27.4854L9.27475 29.9658L9.53115 29.9781L9.65008 27.4977L9.39368 27.4854Z" fill="#FEFEFE"/>
<path d="M10.132 27.5204L10.013 30.0007L10.2694 30.013L10.3884 27.5327L10.132 27.5204Z" fill="#FEFEFE"/>
<path d="M10.8703 27.5562L10.7514 30.0366L11.0078 30.0489L11.1267 27.5685L10.8703 27.5562Z" fill="#FEFEFE"/>
<path d="M11.6085 27.5915L11.4337 31.239L11.6901 31.2513L11.8649 27.6038L11.6085 27.5915Z" fill="#FEFEFE"/>
<path d="M12.7236 27.5445L12.6047 30.0249L12.8611 30.0372L12.98 27.5568L12.7236 27.5445Z" fill="#FEFEFE"/>
<path d="M13.4619 27.5794L13.343 30.0598L13.5994 30.0721L13.7183 27.5917L13.4619 27.5794Z" fill="#FEFEFE"/>
<path d="M14.2003 27.6153L14.0813 30.0957L14.3377 30.108L14.4567 27.6276L14.2003 27.6153Z" fill="#FEFEFE"/>
<path d="M14.9385 27.6504L14.7636 31.2979L15.02 31.3101L15.1949 27.6627L14.9385 27.6504Z" fill="#FEFEFE"/>
<path d="M16.0537 27.6039L15.9348 30.0842L16.1912 30.0965L16.3101 27.6161L16.0537 27.6039Z" fill="#FEFEFE"/>
<path d="M16.792 27.6388L16.673 30.1191L16.9294 30.1314L17.0484 27.6511L16.792 27.6388Z" fill="#FEFEFE"/>
<path d="M17.5303 27.6747L17.4114 30.155L17.6678 30.1673L17.7867 27.687L17.5303 27.6747Z" fill="#FEFEFE"/>
<path d="M18.2685 27.7097L18.0937 31.3572L18.3501 31.3695L18.5249 27.722L18.2685 27.7097Z" fill="#FEFEFE"/>
<path d="M19.3837 27.6639L19.2647 30.1443L19.5211 30.1566L19.6401 27.6762L19.3837 27.6639Z" fill="#FEFEFE"/>
<path d="M20.122 27.6988L20.003 30.1792L20.2594 30.1915L20.3784 27.7111L20.122 27.6988Z" fill="#FEFEFE"/>
<path d="M20.8603 27.7347L20.7414 30.2151L20.9978 30.2274L21.1167 27.747L20.8603 27.7347Z" fill="#FEFEFE"/>
<path d="M21.5986 27.77L21.4237 31.4175L21.6801 31.4298L21.855 27.7823L21.5986 27.77Z" fill="#FEFEFE"/>
<path d="M22.7137 27.7232L22.5948 30.2036L22.8512 30.2159L22.9701 27.7355L22.7137 27.7232Z" fill="#FEFEFE"/>
<path d="M23.452 27.7582L23.3331 30.2385L23.5895 30.2508L23.7084 27.7704L23.452 27.7582Z" fill="#FEFEFE"/>
<path d="M24.1903 27.794L24.0714 30.2744L24.3278 30.2867L24.4467 27.8063L24.1903 27.794Z" fill="#FEFEFE"/>
<path d="M24.9286 27.8293L24.7537 31.4768L25.0101 31.4891L25.185 27.8416L24.9286 27.8293Z" fill="#FEFEFE"/>
<path d="M26.0452 27.8565L25.9262 30.3369L26.1826 30.3492L26.3016 27.8688L26.0452 27.8565Z" fill="#FEFEFE"/>
<path d="M26.7835 27.8915L26.6645 30.3718L26.9209 30.3841L27.0399 27.9037L26.7835 27.8915Z" fill="#FEFEFE"/>
<path d="M27.5218 27.9273L27.4029 30.4077L27.6593 30.42L27.7782 27.9396L27.5218 27.9273Z" fill="#FEFEFE"/>
<path d="M28.26 27.9624L28.0851 31.6099L28.3415 31.6222L28.5164 27.9747L28.26 27.9624Z" fill="#FEFEFE"/>
<path d="M29.3767 27.9898L29.2578 30.4702L29.5142 30.4825L29.6331 28.0021L29.3767 27.9898Z" fill="#FEFEFE"/>
<path d="M30.115 28.0248L29.996 30.5051L30.2524 30.5174L30.3714 28.037L30.115 28.0248Z" fill="#FEFEFE"/>
<path d="M30.8532 28.0606L30.7343 30.541L30.9907 30.5533L31.1096 28.0729L30.8532 28.0606Z" fill="#FEFEFE"/>
<path d="M31.5915 28.0957L31.4167 31.7432L31.6731 31.7555L31.8479 28.108L31.5915 28.0957Z" fill="#FEFEFE"/>
<path d="M32.7081 28.1239L32.5892 30.6042L32.8456 30.6165L32.9645 28.1362L32.7081 28.1239Z" fill="#FEFEFE"/>
<path d="M33.4464 28.1588L33.3275 30.6392L33.5839 30.6515L33.7028 28.1711L33.4464 28.1588Z" fill="#FEFEFE"/>
<path d="M34.1847 28.1947L34.0658 30.675L34.3222 30.6873L34.4411 28.207L34.1847 28.1947Z" fill="#FEFEFE"/>
<path d="M34.923 28.2297L34.7481 31.8772L35.0045 31.8895L35.1794 28.242L34.923 28.2297Z" fill="#FEFEFE"/>
<path d="M9.98373 1.16761L0.893402 0.73291L0.233332 42.1973L9.32366 42.632L9.98373 1.16761Z" fill="#B8E5FA"/>
<path d="M9.9741 2.58999L5.28427 2.36572L5.27528 2.93066L9.96511 3.15493L9.9741 2.58999Z" fill="#2887D2"/>
<path d="M9.94819 4.21694L5.25836 3.99268L5.24937 4.55761L9.9392 4.78188L9.94819 4.21694Z" fill="#2887D2"/>
<path d="M9.92231 5.84292L5.23248 5.61865L5.22349 6.18359L9.91332 6.40786L9.92231 5.84292Z" fill="#2887D2"/>
<path d="M9.89635 7.46993L2.99979 7.14014L2.99079 7.70507L9.88736 8.03487L9.89635 7.46993Z" fill="#2887D2"/>
<path d="M9.86765 9.27602L5.17783 9.05176L5.16883 9.61669L9.85866 9.84096L9.86765 9.27602Z" fill="#2887D2"/>
<path d="M9.84181 10.9032L5.15198 10.679L5.14298 11.2439L9.83281 11.4682L9.84181 10.9032Z" fill="#2887D2"/>
<path d="M9.8159 12.5297L5.12607 12.3054L5.11707 12.8704L9.8069 13.0946L9.8159 12.5297Z" fill="#2887D2"/>
<path d="M9.78997 14.1565L2.8934 13.8267L2.88441 14.3916L9.78098 14.7214L9.78997 14.1565Z" fill="#2887D2"/>
<path d="M9.76124 15.9628L5.07141 15.7385L5.06242 16.3035L9.75225 16.5277L9.76124 15.9628Z" fill="#2887D2"/>
<path d="M9.73533 17.589L5.0455 17.3647L5.03651 17.9297L9.72634 18.1539L9.73533 17.589Z" fill="#2887D2"/>
<path d="M9.70942 19.216L5.01959 18.9917L5.0106 19.5566L9.70043 19.7809L9.70942 19.216Z" fill="#2887D2"/>
<path d="M9.68349 20.843L2.78693 20.5132L2.77793 21.0781L9.6745 21.4079L9.68349 20.843Z" fill="#2887D2"/>
<path d="M9.6548 22.6491L4.96497 22.4248L4.95597 22.9897L9.6458 23.214L9.6548 22.6491Z" fill="#2887D2"/>
<path d="M9.62888 24.2755L4.93906 24.0513L4.93006 24.6162L9.61989 24.8405L9.62888 24.2755Z" fill="#2887D2"/>
<path d="M9.60304 25.9025L4.91321 25.6782L4.90421 26.2432L9.59404 26.4674L9.60304 25.9025Z" fill="#2887D2"/>
<path d="M9.57705 27.5288L2.68048 27.199L2.67149 27.7639L9.56806 28.0937L9.57705 27.5288Z" fill="#2887D2"/>
<path d="M9.54838 29.3349L4.85855 29.1106L4.84956 29.6755L9.53939 29.8998L9.54838 29.3349Z" fill="#2887D2"/>
<path d="M9.52247 30.9618L4.83264 30.7375L4.82365 31.3025L9.51348 31.5268L9.52247 30.9618Z" fill="#2887D2"/>
<path d="M9.49659 32.589L4.80676 32.3647L4.79777 32.9297L9.4876 33.1539L9.49659 32.589Z" fill="#2887D2"/>
<path d="M9.47066 34.215L2.5741 33.8853L2.5651 34.4502L9.46167 34.78L9.47066 34.215Z" fill="#2887D2"/>
<path d="M9.44193 36.0211L4.75211 35.7969L4.74311 36.3618L9.43294 36.5861L9.44193 36.0211Z" fill="#2887D2"/>
<path d="M9.41603 37.6483L4.7262 37.4241L4.7172 37.989L9.40703 38.2133L9.41603 37.6483Z" fill="#2887D2"/>
<path d="M9.39011 39.2746L4.70029 39.0503L4.69129 39.6152L9.38112 39.8395L9.39011 39.2746Z" fill="#2887D2"/>
<path d="M9.36419 40.9016L2.46762 40.5718L2.45863 41.1367L9.3552 41.4665L9.36419 40.9016Z" fill="#2887D2"/>
<path fill-rule="evenodd" clip-rule="evenodd" d="M17.6654 1.77588C19.311 1.77588 20.6103 3.1184 20.6103 4.72076C20.6103 6.36643 19.311 7.70895 17.6654 7.70895C16.0197 7.70895 14.7205 6.36643 14.7205 4.72076C14.7205 3.1184 16.0197 1.77588 17.6654 1.77588Z" fill="#FC4D44"/>
<path d="M20.8701 4.72035H20.3504V4.59043V4.46051V4.33059L20.3071 4.20066L20.2638 4.07074V3.94082L20.2205 3.8109L20.1339 3.68098L20.0906 3.55106L20.0473 3.46444L19.9607 3.33452L19.9174 3.24791L19.8307 3.11799L19.7441 3.03137L19.6575 2.90145L19.5709 2.81484L19.4843 2.72822L19.3977 2.64161L19.2677 2.555L19.1811 2.51169L19.0512 2.42507L18.9646 2.38177L18.8347 2.29515L18.7048 2.25185L18.5748 2.20854L18.4882 2.16523L18.3583 2.12192L18.2284 2.07862H18.0552L17.9252 2.03531H17.7953H17.6654V1.51562H17.8386L18.0118 1.55893H18.1418L18.315 1.60224L18.4449 1.64555L18.6181 1.68885L18.7481 1.73216L18.9213 1.77547L19.0512 1.86208L19.1811 1.90539L19.3111 1.992L19.441 2.07862L19.5709 2.16523L19.7008 2.25185L19.8307 2.38177L19.9174 2.46838L20.0473 2.5983L20.1339 2.68492L20.2205 2.81484L20.3071 2.94476L20.3937 3.07468L20.4803 3.2046L20.567 3.33452L20.6103 3.50775L20.6536 3.63767L20.7402 3.76759L20.7835 3.94082V4.11405L20.8268 4.24397L20.8701 4.4172V4.59043V4.72035ZM17.6654 7.92507V7.4487H17.7953H17.9252L18.0552 7.40539H18.2284L18.3583 7.36208L18.4882 7.31878L18.5748 7.27547L18.7048 7.23216L18.8347 7.18885L18.9646 7.10224L19.0512 7.05893L19.1811 6.97232L19.2677 6.8857L19.3977 6.8424L19.4843 6.75578L19.5709 6.66917L19.6575 6.53925L19.7441 6.45263L19.8307 6.36602L19.9174 6.2361L19.9607 6.14948L20.0473 6.01956L20.0906 5.88964L20.1339 5.80303L20.2205 5.67311L20.2638 5.54318V5.41326L20.3071 5.28334L20.3504 5.15342V5.0235V4.89358V4.72035H20.8701V4.89358V5.06681L20.8268 5.24003L20.7835 5.36996V5.54318L20.7402 5.67311L20.6536 5.84633L20.6103 5.97626L20.567 6.14948L20.4803 6.27941L20.3937 6.40933L20.3071 6.53925L20.2205 6.66917L20.1339 6.79909L20.0473 6.8857L19.9174 7.01563L19.8307 7.10224L19.7008 7.23216L19.5709 7.31878L19.441 7.40539L19.3111 7.492L19.1811 7.57862L19.0512 7.62192L18.9213 7.70854L18.7481 7.75185L18.6181 7.79515L18.4449 7.83846L18.315 7.88177L18.1418 7.92507H18.0118H17.8386H17.6654ZM14.4607 4.72035H14.9803V4.89358V5.0235V5.15342L15.0237 5.28334V5.41326L15.067 5.54318L15.1103 5.67311L15.1536 5.80303L15.2402 5.88964L15.2835 6.01956L15.3701 6.14948L15.4134 6.2361L15.5 6.36602L15.5866 6.45263L15.6733 6.53925L15.7599 6.66917L15.8465 6.75578L15.9331 6.8424L16.063 6.8857L16.1496 6.97232L16.2796 7.05893L16.3662 7.10224L16.4961 7.18885L16.626 7.23216L16.7126 7.27547L16.8426 7.31878L16.9725 7.36208L17.1024 7.40539H17.2323L17.4055 7.4487H17.5355H17.6654V7.92507H17.4922H17.3189H17.189L17.0158 7.88177L16.8426 7.83846L16.7126 7.79515L16.5394 7.75185L16.4095 7.70854L16.2796 7.62192L16.1496 7.57862L16.0197 7.492L15.8898 7.40539L15.7599 7.31878L15.63 7.23216L15.5 7.10224L15.4134 7.01563L15.2835 6.8857L15.1969 6.79909L15.1103 6.66917L15.0237 6.53925L14.937 6.40933L14.8504 6.27941L14.7638 6.14948L14.7205 5.97626L14.6339 5.84633L14.5906 5.67311L14.5473 5.54318L14.504 5.36996V5.24003L14.4607 5.06681V4.89358V4.72035ZM17.6654 1.51562V2.03531H17.5355H17.4055L17.2323 2.07862H17.1024L16.9725 2.12192L16.8426 2.16523L16.7126 2.20854L16.626 2.25185L16.4961 2.29515L16.3662 2.38177L16.2796 2.42507L16.1496 2.51169L16.063 2.555L15.9331 2.64161L15.8465 2.72822L15.7599 2.81484L15.6733 2.90145L15.5866 3.03137L15.5 3.11799L15.4134 3.24791L15.3701 3.33452L15.2835 3.46444L15.2402 3.55106L15.1536 3.68098L15.1103 3.8109L15.067 3.94082L15.0237 4.07074V4.20066L14.9803 4.33059V4.46051V4.59043V4.72035H14.4607V4.59043V4.4172L14.504 4.24397V4.11405L14.5473 3.94082L14.5906 3.76759L14.6339 3.63767L14.7205 3.50775L14.7638 3.33452L14.8504 3.2046L14.937 3.07468L15.0237 2.94476L15.1103 2.81484L15.1969 2.68492L15.2835 2.5983L15.4134 2.46838L15.5 2.38177L15.63 2.25185L15.7599 2.16523L15.8898 2.07862L16.0197 1.992L16.1496 1.90539L16.2796 1.86208L16.4095 1.77547L16.5394 1.73216L16.7126 1.68885L16.8426 1.64555L17.0158 1.60224L17.189 1.55893H17.3189L17.4922 1.51562H17.6654Z" fill="#FEFEFE"/>
<path fill-rule="evenodd" clip-rule="evenodd" d="M17.6654 10.9998C19.311 10.9998 20.6103 12.3423 20.6103 13.9446C20.6103 15.5903 19.311 16.9328 17.6654 16.9328C16.0197 16.9328 14.7205 15.5903 14.7205 13.9446C14.7205 12.3423 16.0197 10.9998 17.6654 10.9998Z" fill="#F0A71F"/>
<path d="M20.8701 13.9445H20.3504V13.8145V13.6846V13.5547L20.3071 13.4248L20.2638 13.2949V13.1649L20.2205 13.035L20.1339 12.9051L20.0906 12.7752L20.0473 12.6886L19.9607 12.5586L19.9174 12.472L19.8307 12.3421L19.7441 12.2555L19.6575 12.1256L19.5709 12.039L19.4843 11.9523L19.3977 11.8657L19.2677 11.7791L19.1811 11.7358L19.0512 11.6492L18.9646 11.6059L18.8347 11.5193L18.7048 11.476L18.5748 11.4327L18.4882 11.3894L18.3583 11.346L18.2284 11.3027H18.0552L17.9252 11.2594H17.7953H17.6654V10.7397H17.8386L18.0118 10.7831H18.1418L18.315 10.8264L18.4449 10.8697L18.6181 10.913L18.7481 10.9563L18.9213 10.9996L19.0512 11.0862L19.1811 11.1295L19.3111 11.2161L19.441 11.3027L19.5709 11.3894L19.7008 11.476L19.8307 11.6059L19.9174 11.6925L20.0473 11.8224L20.1339 11.909L20.2205 12.039L20.3071 12.1689L20.3937 12.2988L20.4803 12.4287L20.567 12.5586L20.6103 12.7319L20.6536 12.8618L20.7402 12.9917L20.7835 13.1649V13.3382L20.8268 13.4681L20.8701 13.6413V13.8145V13.9445ZM17.6654 17.1492V16.6728H17.7953H17.9252L18.0552 16.6295H18.2284L18.3583 16.5862L18.4882 16.5429L18.5748 16.4996L18.7048 16.4563L18.8347 16.413L18.9646 16.3264L19.0512 16.2831L19.1811 16.1964L19.2677 16.1098L19.3977 16.0665L19.4843 15.9799L19.5709 15.8933L19.6575 15.7634L19.7441 15.6768L19.8307 15.5901L19.9174 15.4602L19.9607 15.3736L20.0473 15.2437L20.0906 15.1138L20.1339 15.0271L20.2205 14.8972L20.2638 14.7673V14.6374L20.3071 14.5075L20.3504 14.3775V14.2476V14.1177V13.9445H20.8701V14.1177V14.2909L20.8268 14.4642L20.7835 14.5941V14.7673L20.7402 14.8972L20.6536 15.0705L20.6103 15.2004L20.567 15.3736L20.4803 15.5035L20.3937 15.6334L20.3071 15.7634L20.2205 15.8933L20.1339 16.0232L20.0473 16.1098L19.9174 16.2397L19.8307 16.3264L19.7008 16.4563L19.5709 16.5429L19.441 16.6295L19.3111 16.7161L19.1811 16.8027L19.0512 16.846L18.9213 16.9327L18.7481 16.976L18.6181 17.0193L18.4449 17.0626L18.315 17.1059L18.1418 17.1492H18.0118H17.8386H17.6654ZM14.4607 13.9445H14.9803V14.1177V14.2476V14.3775L15.0237 14.5075V14.6374L15.067 14.7673L15.1103 14.8972L15.1536 15.0271L15.2402 15.1138L15.2835 15.2437L15.3701 15.3736L15.4134 15.4602L15.5 15.5901L15.5866 15.6768L15.6733 15.7634L15.7599 15.8933L15.8465 15.9799L15.9331 16.0665L16.063 16.1098L16.1496 16.1964L16.2796 16.2831L16.3662 16.3264L16.4961 16.413L16.626 16.4563L16.7126 16.4996L16.8426 16.5429L16.9725 16.5862L17.1024 16.6295H17.2323L17.4055 16.6728H17.5355H17.6654V17.1492H17.4922H17.3189H17.189L17.0158 17.1059L16.8426 17.0626L16.7126 17.0193L16.5394 16.976L16.4095 16.9327L16.2796 16.846L16.1496 16.8027L16.0197 16.7161L15.8898 16.6295L15.7599 16.5429L15.63 16.4563L15.5 16.3264L15.4134 16.2397L15.2835 16.1098L15.1969 16.0232L15.1103 15.8933L15.0237 15.7634L14.937 15.6334L14.8504 15.5035L14.7638 15.3736L14.7205 15.2004L14.6339 15.0705L14.5906 14.8972L14.5473 14.7673L14.504 14.5941V14.4642L14.4607 14.2909V14.1177V13.9445ZM17.6654 10.7397V11.2594H17.5355H17.4055L17.2323 11.3027H17.1024L16.9725 11.346L16.8426 11.3894L16.7126 11.4327L16.626 11.476L16.4961 11.5193L16.3662 11.6059L16.2796 11.6492L16.1496 11.7358L16.063 11.7791L15.9331 11.8657L15.8465 11.9523L15.7599 12.039L15.6733 12.1256L15.5866 12.2555L15.5 12.3421L15.4134 12.472L15.3701 12.5586L15.2835 12.6886L15.2402 12.7752L15.1536 12.9051L15.1103 13.035L15.067 13.1649L15.0237 13.2949V13.4248L14.9803 13.5547V13.6846V13.8145V13.9445H14.4607V13.8145V13.6413L14.504 13.4681V13.3382L14.5473 13.1649L14.5906 12.9917L14.6339 12.8618L14.7205 12.7319L14.7638 12.5586L14.8504 12.4287L14.937 12.2988L15.0237 12.1689L15.1103 12.039L15.1969 11.909L15.2835 11.8224L15.4134 11.6925L15.5 11.6059L15.63 11.476L15.7599 11.3894L15.8898 11.3027L16.0197 11.2161L16.1496 11.1295L16.2796 11.0862L16.4095 10.9996L16.5394 10.9563L16.7126 10.913L16.8426 10.8697L17.0158 10.8264L17.189 10.7831H17.3189L17.4922 10.7397H17.6654Z" fill="#FEFEFE"/>
<path d="M17.6654 26.027C19.2918 26.027 20.6103 24.7085 20.6103 23.0821C20.6103 21.4557 19.2918 20.1372 17.6654 20.1372C16.039 20.1372 14.7205 21.4557 14.7205 23.0821C14.7205 24.7085 16.039 26.027 17.6654 26.027Z" fill="#00A859" stroke="#FEFEFE" stroke-width="0.176297"/>
<path d="M40.1418 17.8424V20.1376L38.193 21.2636L36.2875 20.1376V17.8424L38.193 16.7164L40.1418 17.8424ZM34.9882 18.9683C34.9882 19.1849 34.8583 19.3148 34.6418 19.3148H29.5316C29.3583 19.3148 29.1851 19.1849 29.1851 18.9683C29.1851 18.7951 29.3583 18.6652 29.5316 18.6652H34.6418C34.8583 18.6652 34.9882 18.7951 34.9882 18.9683ZM23.0355 17.0628H25.9804L26.9331 18.9683L25.9804 20.9172H23.0355C24.0749 22.5628 26.2402 23.0392 27.8859 21.9565C28.5355 21.5668 29.0119 20.9605 29.2717 20.2676H34.9016C35.6379 22.0865 37.6733 22.9959 39.4922 22.303C41.3111 21.5668 42.2205 19.5313 41.5276 17.7124C40.7914 15.8502 38.756 14.9841 36.9371 15.677C35.9843 16.0235 35.2481 16.7597 34.9016 17.7124H29.2717C28.5788 15.8935 26.5434 14.9841 24.7245 15.677C24.0316 15.9368 23.4253 16.4132 23.0355 17.0628Z" fill="#999999"/>
<path d="M41.3977 8.96444C41.3977 10.0471 40.5316 10.9133 39.4489 10.9133H34.2953C33.9489 10.5668 33.3859 10.5668 32.9961 10.9133H32.0434V7.01562H32.9961V7.05893C33.3859 7.40539 33.9489 7.40539 34.2953 7.05893V7.01562H39.4922C40.5316 7.05893 41.3977 7.92507 41.3977 8.96444ZM39.7953 8.31484C39.7953 8.48807 39.6221 8.66129 39.4489 8.66129H35.2481C35.0749 8.66129 34.9449 8.48807 34.9449 8.31484C34.9449 8.14161 35.0749 8.01169 35.2481 8.01169H39.4489C39.6221 8.01169 39.7953 8.14161 39.7953 8.31484Z" fill="#E32210"/>
<path d="M32.0434 8.31487V9.61408H25.2441L24.5945 9.96054L22.689 9.61408V8.31487L24.5945 8.01172L25.2441 8.31487H32.0434Z" fill="#999999"/>
<path d="M39.7953 9.61418C39.7953 9.78741 39.6221 9.96064 39.4489 9.96064H35.2481C35.0748 9.96064 34.9449 9.78741 34.9449 9.61418C34.9449 9.44096 35.0748 9.31104 35.2481 9.31104H39.4489C39.6221 9.31104 39.7953 9.44096 39.7953 9.61418Z" fill="white"/>
<path d="M39.7953 8.31487C39.7953 8.4881 39.6221 8.66133 39.4489 8.66133H35.2481C35.0748 8.66133 34.9449 8.4881 34.9449 8.31487C34.9449 8.14164 35.0748 8.01172 35.2481 8.01172H39.4489C39.6221 8.01172 39.7953 8.14164 39.7953 8.31487Z" fill="white"/>
</svg>
