<svg width="44" height="44" viewBox="0 0 44 44" fill="none" xmlns="http://www.w3.org/2000/svg">
<path d="M12.126 0.90918H0.736206V43.0903H12.126V0.90918Z" fill="#FEFEFE"/>
<path d="M5.37006 12.1256C7.92927 12.1256 10.0039 10.051 10.0039 7.49177C10.0039 4.93256 7.92927 2.85791 5.37006 2.85791C2.81086 2.85791 0.736206 4.93256 0.736206 7.49177C0.736206 10.051 2.81086 12.1256 5.37006 12.1256Z" fill="#FC4D44"/>
<path d="M5.37006 26.6332C7.92927 26.6332 10.0039 24.5585 10.0039 21.9993C10.0039 19.4401 7.92927 17.3655 5.37006 17.3655C2.81086 17.3655 0.736206 19.4401 0.736206 21.9993C0.736206 24.5585 2.81086 26.6332 5.37006 26.6332Z" fill="#F0A71F"/>
<path d="M5.37006 40.9682C7.92927 40.9682 10.0039 38.8935 10.0039 36.3343C10.0039 33.7751 7.92927 31.7004 5.37006 31.7004C2.81086 31.7004 0.736206 33.7751 0.736206 36.3343C0.736206 38.8935 2.81086 40.9682 5.37006 40.9682Z" fill="#00A859"/>
<path d="M40.7087 28.1062V31.6574L37.6772 33.4329L34.6457 31.6574V28.1062L37.6772 26.3306L40.7087 28.1062ZM32.6103 29.8818C32.6103 30.1849 32.3937 30.4015 32.0906 30.4015H23.9921C23.7323 30.4015 23.5158 30.1849 23.5158 29.8818C23.5158 29.6219 23.7323 29.4054 23.9921 29.4054H32.0906C32.3937 29.4054 32.6103 29.6219 32.6103 29.8818ZM13.7717 26.8503H18.4488L19.9646 29.8818L18.4488 32.9566H13.7717C15.4606 35.5117 18.8819 36.2479 21.4803 34.6022C22.4331 33.9526 23.2126 33.0432 23.6457 31.9172H32.4803C33.6063 34.8188 36.8543 36.2046 39.7126 35.0786C42.5709 33.9959 44 30.7479 42.874 27.8896C41.748 24.9881 38.5433 23.5589 35.6417 24.6849C34.2126 25.2479 33.0433 26.4172 32.4803 27.8896H23.6457C22.5197 25.0314 19.315 23.6022 16.4567 24.6849C15.374 25.118 14.4213 25.8542 13.7717 26.8503Z" fill="#999999"/>
<path d="M42.7008 14.1607C42.7008 15.8497 41.315 17.1922 39.626 17.1922H31.5276C30.9646 16.6292 30.0551 16.6292 29.4921 17.1922H27.9764V11.0859H29.4921V11.1292C30.0551 11.6922 30.9646 11.6922 31.5276 11.1292V11.0859H39.6693C41.315 11.1292 42.7008 12.4718 42.7008 14.1607ZM40.1457 13.1214C40.1457 13.4245 39.9291 13.6411 39.626 13.6411H33.0433C32.7835 13.6411 32.5236 13.4245 32.5236 13.1214C32.5236 12.8615 32.7835 12.645 33.0433 12.645H39.626C39.9291 12.645 40.1457 12.8615 40.1457 13.1214Z" fill="#E32210"/>
<path d="M27.9764 13.1216V15.1571H17.3228L16.3268 15.6768L13.252 15.1571V13.1216L16.3268 12.6453L17.3228 13.1216H27.9764Z" fill="#999999"/>
<path d="M40.1457 15.157C40.1457 15.4602 39.9291 15.6767 39.626 15.6767H33.0433C32.7835 15.6767 32.5236 15.4602 32.5236 15.157C32.5236 14.8972 32.7835 14.6807 33.0433 14.6807H39.626C39.9291 14.6807 40.1457 14.8972 40.1457 15.157Z" fill="white"/>
<path d="M40.1457 13.1216C40.1457 13.4248 39.9291 13.6413 39.626 13.6413H33.0433C32.7835 13.6413 32.5236 13.4248 32.5236 13.1216C32.5236 12.8618 32.7835 12.6453 33.0433 12.6453H39.626C39.9291 12.6453 40.1457 12.8618 40.1457 13.1216Z" fill="white"/>
</svg>
