<svg width="44" height="44" viewBox="0 0 44 44" fill="none" xmlns="http://www.w3.org/2000/svg">
<path fill-rule="evenodd" clip-rule="evenodd" d="M39.1063 28.1059L28.626 43.2634L5.58662 27.3264L39.1063 28.1059ZM32.6102 32.2634L27.8898 39.0626L17.5827 31.917L32.6102 32.2634Z" fill="#FC4D44"/>
<path d="M10.3936 27.4852L10.2747 29.9656L10.5311 29.9779L10.65 27.4975L10.3936 27.4852Z" fill="#FEFEFE"/>
<path d="M11.1319 27.5201L11.013 30.0005L11.2694 30.0128L11.3883 27.5324L11.1319 27.5201Z" fill="#FEFEFE"/>
<path d="M11.8703 27.556L11.7513 30.0364L12.0077 30.0487L12.1267 27.5683L11.8703 27.556Z" fill="#FEFEFE"/>
<path d="M12.6085 27.5913L12.4336 31.2388L12.69 31.2511L12.8649 27.6036L12.6085 27.5913Z" fill="#FEFEFE"/>
<path d="M13.7236 27.5443L13.6047 30.0247L13.8611 30.037L13.98 27.5566L13.7236 27.5443Z" fill="#FEFEFE"/>
<path d="M14.4619 27.5792L14.343 30.0596L14.5994 30.0719L14.7183 27.5915L14.4619 27.5792Z" fill="#FEFEFE"/>
<path d="M15.2002 27.6151L15.0813 30.0955L15.3377 30.1078L15.4566 27.6274L15.2002 27.6151Z" fill="#FEFEFE"/>
<path d="M15.9385 27.6501L15.7636 31.2976L16.02 31.3099L16.1949 27.6624L15.9385 27.6501Z" fill="#FEFEFE"/>
<path d="M17.0537 27.6036L16.9347 30.084L17.1911 30.0963L17.3101 27.6159L17.0537 27.6036Z" fill="#FEFEFE"/>
<path d="M17.7919 27.6385L17.673 30.1189L17.9294 30.1312L18.0483 27.6508L17.7919 27.6385Z" fill="#FEFEFE"/>
<path d="M18.5303 27.6744L18.4114 30.1548L18.6677 30.1671L18.7867 27.6867L18.5303 27.6744Z" fill="#FEFEFE"/>
<path d="M19.2685 27.7094L19.0937 31.3569L19.3501 31.3692L19.5249 27.7217L19.2685 27.7094Z" fill="#FEFEFE"/>
<path d="M20.3836 27.6637L20.2647 30.144L20.5211 30.1563L20.64 27.676L20.3836 27.6637Z" fill="#FEFEFE"/>
<path d="M21.1219 27.6986L21.003 30.179L21.2594 30.1912L21.3783 27.7109L21.1219 27.6986Z" fill="#FEFEFE"/>
<path d="M21.8603 27.7345L21.7413 30.2148L21.9977 30.2271L22.1167 27.7468L21.8603 27.7345Z" fill="#FEFEFE"/>
<path d="M22.5985 27.7697L22.4236 31.4172L22.68 31.4295L22.8549 27.782L22.5985 27.7697Z" fill="#FEFEFE"/>
<path d="M23.7137 27.723L23.5948 30.2034L23.8512 30.2157L23.9701 27.7353L23.7137 27.723Z" fill="#FEFEFE"/>
<path d="M24.452 27.7579L24.3331 30.2383L24.5895 30.2506L24.7084 27.7702L24.452 27.7579Z" fill="#FEFEFE"/>
<path d="M25.1903 27.7938L25.0714 30.2742L25.3278 30.2865L25.4467 27.8061L25.1903 27.7938Z" fill="#FEFEFE"/>
<path d="M25.9286 27.8291L25.7537 31.4766L26.0101 31.4889L26.185 27.8414L25.9286 27.8291Z" fill="#FEFEFE"/>
<path d="M27.0452 27.8563L26.9262 30.3367L27.1826 30.349L27.3016 27.8686L27.0452 27.8563Z" fill="#FEFEFE"/>
<path d="M27.7835 27.8912L27.6645 30.3716L27.9209 30.3839L28.0399 27.9035L27.7835 27.8912Z" fill="#FEFEFE"/>
<path d="M28.5218 27.9271L28.4029 30.4075L28.6593 30.4198L28.7782 27.9394L28.5218 27.9271Z" fill="#FEFEFE"/>
<path d="M29.26 27.9621L29.0852 31.6096L29.3416 31.6219L29.5164 27.9744L29.26 27.9621Z" fill="#FEFEFE"/>
<path d="M30.3767 27.9896L30.2577 30.47L30.5141 30.4823L30.6331 28.0019L30.3767 27.9896Z" fill="#FEFEFE"/>
<path d="M31.1149 28.0245L30.996 30.5049L31.2524 30.5172L31.3713 28.0368L31.1149 28.0245Z" fill="#FEFEFE"/>
<path d="M31.8532 28.0604L31.7343 30.5408L31.9907 30.5531L32.1096 28.0727L31.8532 28.0604Z" fill="#FEFEFE"/>
<path d="M32.5915 28.0954L32.4166 31.7429L32.673 31.7552L32.8479 28.1077L32.5915 28.0954Z" fill="#FEFEFE"/>
<path d="M33.7081 28.1236L33.5892 30.604L33.8456 30.6163L33.9645 28.1359L33.7081 28.1236Z" fill="#FEFEFE"/>
<path d="M34.4464 28.1585L34.3274 30.6389L34.5838 30.6512L34.7028 28.1708L34.4464 28.1585Z" fill="#FEFEFE"/>
<path d="M35.1847 28.1944L35.0658 30.6748L35.3222 30.6871L35.4411 28.2067L35.1847 28.1944Z" fill="#FEFEFE"/>
<path d="M35.923 28.2295L35.7481 31.877L36.0045 31.8892L36.1794 28.2418L35.923 28.2295Z" fill="#FEFEFE"/>
<path d="M10.9837 1.16736L1.89338 0.732666L1.23331 42.1971L10.3236 42.6318L10.9837 1.16736Z" fill="#B8E5FA"/>
<path d="M10.9741 2.5895L6.28426 2.36523L6.27526 2.93017L10.9651 3.15444L10.9741 2.5895Z" fill="#2887D2"/>
<path d="M10.9482 4.2167L6.25835 3.99243L6.24936 4.55737L10.9392 4.78163L10.9482 4.2167Z" fill="#2887D2"/>
<path d="M10.9223 5.84292L6.23245 5.61865L6.22346 6.18359L10.9133 6.40786L10.9223 5.84292Z" fill="#2887D2"/>
<path d="M10.8964 7.46993L3.99978 7.14014L3.99079 7.70507L10.8874 8.03487L10.8964 7.46993Z" fill="#2887D2"/>
<path d="M10.8676 9.27602L6.1778 9.05176L6.16881 9.61669L10.8586 9.84096L10.8676 9.27602Z" fill="#2887D2"/>
<path d="M10.8418 10.903L6.15195 10.6787L6.14296 11.2436L10.8328 11.4679L10.8418 10.903Z" fill="#2887D2"/>
<path d="M10.8159 12.5294L6.12605 12.3052L6.11705 12.8701L10.8069 13.0944L10.8159 12.5294Z" fill="#2887D2"/>
<path d="M10.7899 14.1562L3.89338 13.8264L3.88439 14.3914L10.781 14.7211L10.7899 14.1562Z" fill="#2887D2"/>
<path d="M10.7612 15.9625L6.0714 15.7383L6.0624 16.3032L10.7522 16.5275L10.7612 15.9625Z" fill="#2887D2"/>
<path d="M10.7353 17.5888L6.04549 17.3645L6.0365 17.9294L10.7263 18.1537L10.7353 17.5888Z" fill="#2887D2"/>
<path d="M10.7094 19.2157L6.01959 18.9915L6.0106 19.5564L10.7004 19.7807L10.7094 19.2157Z" fill="#2887D2"/>
<path d="M10.6835 20.8427L3.78693 20.5129L3.77793 21.0779L10.6745 21.4077L10.6835 20.8427Z" fill="#2887D2"/>
<path d="M10.6548 22.6488L5.96494 22.4246L5.95595 22.9895L10.6458 23.2138L10.6548 22.6488Z" fill="#2887D2"/>
<path d="M10.6289 24.2753L5.93904 24.051L5.93004 24.616L10.6199 24.8402L10.6289 24.2753Z" fill="#2887D2"/>
<path d="M10.603 25.9022L5.91319 25.678L5.9042 26.2429L10.594 26.4672L10.603 25.9022Z" fill="#2887D2"/>
<path d="M10.577 27.5285L3.68047 27.1987L3.67148 27.7637L10.568 28.0935L10.577 27.5285Z" fill="#2887D2"/>
<path d="M10.5484 29.3346L5.85854 29.1104L5.84955 29.6753L10.5394 29.8996L10.5484 29.3346Z" fill="#2887D2"/>
<path d="M10.5225 30.9616L5.83264 30.7373L5.82365 31.3022L10.5135 31.5265L10.5225 30.9616Z" fill="#2887D2"/>
<path d="M10.4966 32.5888L5.80674 32.3645L5.79774 32.9294L10.4876 33.1537L10.4966 32.5888Z" fill="#2887D2"/>
<path d="M10.4706 34.2148L3.57407 33.885L3.56507 34.4499L10.4616 34.7797L10.4706 34.2148Z" fill="#2887D2"/>
<path d="M10.4419 36.0209L5.75209 35.7966L5.74309 36.3616L10.4329 36.5858L10.4419 36.0209Z" fill="#2887D2"/>
<path d="M10.416 37.6481L5.72618 37.4238L5.71719 37.9888L10.407 38.213L10.416 37.6481Z" fill="#2887D2"/>
<path d="M10.3901 39.2743L5.70028 39.05L5.69129 39.615L10.3811 39.8393L10.3901 39.2743Z" fill="#2887D2"/>
<path d="M10.3642 40.9013L3.46761 40.5715L3.45862 41.1365L10.3552 41.4663L10.3642 40.9013Z" fill="#2887D2"/>
<path fill-rule="evenodd" clip-rule="evenodd" d="M18.6654 1.77515C20.311 1.77515 21.6102 3.11767 21.6102 4.72003C21.6102 6.3657 20.311 7.70822 18.6654 7.70822C17.0197 7.70822 15.7205 6.3657 15.7205 4.72003C15.7205 3.11767 17.0197 1.77515 18.6654 1.77515Z" fill="#FC4D44"/>
<path d="M21.8701 4.71986H21.3504V4.58994V4.46002V4.3301L21.3071 4.20018L21.2638 4.07026V3.94033L21.2205 3.81041L21.1339 3.68049L21.0906 3.55057L21.0472 3.46396L20.9606 3.33403L20.9173 3.24742L20.8307 3.1175L20.7441 3.03088L20.6575 2.90096L20.5709 2.81435L20.4843 2.72774L20.3976 2.64112L20.2677 2.55451L20.1811 2.5112L20.0512 2.42459L19.9646 2.38128L19.8346 2.29466L19.7047 2.25136L19.5748 2.20805L19.4882 2.16474L19.3583 2.12144L19.2283 2.07813H19.0551L18.9252 2.03482H18.7953H18.6654V1.51514H18.8386L19.0118 1.55844H19.1417L19.315 1.60175L19.4449 1.64506L19.6181 1.68837L19.748 1.73167L19.9213 1.77498L20.0512 1.86159L20.1811 1.9049L20.311 1.99151L20.4409 2.07813L20.5709 2.16474L20.7008 2.25136L20.8307 2.38128L20.9173 2.46789L21.0472 2.59781L21.1339 2.68443L21.2205 2.81435L21.3071 2.94427L21.3937 3.07419L21.4803 3.20411L21.5669 3.33403L21.6102 3.50726L21.6535 3.63718L21.7402 3.76711L21.7835 3.94033V4.11356L21.8268 4.24348L21.8701 4.41671V4.58994V4.71986ZM18.6654 7.92459V7.44821H18.7953H18.9252L19.0551 7.4049H19.2283L19.3583 7.36159L19.4882 7.31829L19.5748 7.27498L19.7047 7.23167L19.8346 7.18837L19.9646 7.10175L20.0512 7.05844L20.1811 6.97183L20.2677 6.88522L20.3976 6.84191L20.4843 6.75529L20.5709 6.66868L20.6575 6.53876L20.7441 6.45215L20.8307 6.36553L20.9173 6.23561L20.9606 6.149L21.0472 6.01907L21.0906 5.88915L21.1339 5.80254L21.2205 5.67262L21.2638 5.5427V5.41278L21.3071 5.28285L21.3504 5.15293V5.02301V4.89309V4.71986H21.8701V4.89309V5.06632L21.8268 5.23955L21.7835 5.36947V5.5427L21.7402 5.67262L21.6535 5.84585L21.6102 5.97577L21.5669 6.149L21.4803 6.27892L21.3937 6.40884L21.3071 6.53876L21.2205 6.66868L21.1339 6.7986L21.0472 6.88522L20.9173 7.01514L20.8307 7.10175L20.7008 7.23167L20.5709 7.31829L20.4409 7.4049L20.311 7.49152L20.1811 7.57813L20.0512 7.62144L19.9213 7.70805L19.748 7.75136L19.6181 7.79466L19.4449 7.83797L19.315 7.88128L19.1417 7.92459H19.0118H18.8386H18.6654ZM15.4606 4.71986H15.9803V4.89309V5.02301V5.15293L16.0236 5.28285V5.41278L16.0669 5.5427L16.1102 5.67262L16.1535 5.80254L16.2402 5.88915L16.2835 6.01907L16.3701 6.149L16.4134 6.23561L16.5 6.36553L16.5866 6.45215L16.6732 6.53876L16.7598 6.66868L16.8465 6.75529L16.9331 6.84191L17.063 6.88522L17.1496 6.97183L17.2795 7.05844L17.3661 7.10175L17.4961 7.18837L17.626 7.23167L17.7126 7.27498L17.8425 7.31829L17.9724 7.36159L18.1024 7.4049H18.2323L18.4055 7.44821H18.5354H18.6654V7.92459H18.4921H18.3189H18.189L18.0157 7.88128L17.8425 7.83797L17.7126 7.79466L17.5394 7.75136L17.4095 7.70805L17.2795 7.62144L17.1496 7.57813L17.0197 7.49152L16.8898 7.4049L16.7598 7.31829L16.6299 7.23167L16.5 7.10175L16.4134 7.01514L16.2835 6.88522L16.1969 6.7986L16.1102 6.66868L16.0236 6.53876L15.937 6.40884L15.8504 6.27892L15.7638 6.149L15.7205 5.97577L15.6339 5.84585L15.5906 5.67262L15.5472 5.5427L15.5039 5.36947V5.23955L15.4606 5.06632V4.89309V4.71986ZM18.6654 1.51514V2.03482H18.5354H18.4055L18.2323 2.07813H18.1024L17.9724 2.12144L17.8425 2.16474L17.7126 2.20805L17.626 2.25136L17.4961 2.29466L17.3661 2.38128L17.2795 2.42459L17.1496 2.5112L17.063 2.55451L16.9331 2.64112L16.8465 2.72774L16.7598 2.81435L16.6732 2.90096L16.5866 3.03088L16.5 3.1175L16.4134 3.24742L16.3701 3.33403L16.2835 3.46396L16.2402 3.55057L16.1535 3.68049L16.1102 3.81041L16.0669 3.94033L16.0236 4.07026V4.20018L15.9803 4.3301V4.46002V4.58994V4.71986H15.4606V4.58994V4.41671L15.5039 4.24348V4.11356L15.5472 3.94033L15.5906 3.76711L15.6339 3.63718L15.7205 3.50726L15.7638 3.33403L15.8504 3.20411L15.937 3.07419L16.0236 2.94427L16.1102 2.81435L16.1969 2.68443L16.2835 2.59781L16.4134 2.46789L16.5 2.38128L16.6299 2.25136L16.7598 2.16474L16.8898 2.07813L17.0197 1.99151L17.1496 1.9049L17.2795 1.86159L17.4095 1.77498L17.5394 1.73167L17.7126 1.68837L17.8425 1.64506L18.0157 1.60175L18.189 1.55844H18.3189L18.4921 1.51514H18.6654Z" fill="#FEFEFE"/>
<path fill-rule="evenodd" clip-rule="evenodd" d="M18.6654 10.9993C20.311 10.9993 21.6102 12.3418 21.6102 13.9441C21.6102 15.5898 20.311 16.9323 18.6654 16.9323C17.0197 16.9323 15.7205 15.5898 15.7205 13.9441C15.7205 12.3418 17.0197 10.9993 18.6654 10.9993Z" fill="#F0A71F"/>
<path d="M21.8701 13.944H21.3504V13.8141V13.6841V13.5542L21.3071 13.4243L21.2638 13.2944V13.1645L21.2205 13.0345L21.1339 12.9046L21.0906 12.7747L21.0472 12.6881L20.9606 12.5582L20.9173 12.4715L20.8307 12.3416L20.7441 12.255L20.6575 12.1251L20.5709 12.0385L20.4843 11.9519L20.3976 11.8652L20.2677 11.7786L20.1811 11.7353L20.0512 11.6487L19.9646 11.6054L19.8346 11.5188L19.7047 11.4755L19.5748 11.4322L19.4882 11.3889L19.3583 11.3456L19.2283 11.3023H19.0551L18.9252 11.2589H18.7953H18.6654V10.7393H18.8386L19.0118 10.7826H19.1417L19.315 10.8259L19.4449 10.8692L19.6181 10.9125L19.748 10.9558L19.9213 10.9991L20.0512 11.0857L20.1811 11.129L20.311 11.2156L20.4409 11.3023L20.5709 11.3889L20.7008 11.4755L20.8307 11.6054L20.9173 11.692L21.0472 11.8219L21.1339 11.9085L21.2205 12.0385L21.3071 12.1684L21.3937 12.2983L21.4803 12.4282L21.5669 12.5582L21.6102 12.7314L21.6535 12.8613L21.7402 12.9912L21.7835 13.1645V13.3377L21.8268 13.4676L21.8701 13.6408V13.8141V13.944ZM18.6654 17.1487V16.6723H18.7953H18.9252L19.0551 16.629H19.2283L19.3583 16.5857L19.4882 16.5424L19.5748 16.4991L19.7047 16.4558L19.8346 16.4125L19.9646 16.3259L20.0512 16.2826L20.1811 16.196L20.2677 16.1093L20.3976 16.066L20.4843 15.9794L20.5709 15.8928L20.6575 15.7629L20.7441 15.6763L20.8307 15.5897L20.9173 15.4597L20.9606 15.3731L21.0472 15.2432L21.0906 15.1133L21.1339 15.0267L21.2205 14.8967L21.2638 14.7668V14.6369L21.3071 14.507L21.3504 14.3771V14.2471V14.1172V13.944H21.8701V14.1172V14.2904L21.8268 14.4637L21.7835 14.5936V14.7668L21.7402 14.8967L21.6535 15.07L21.6102 15.1999L21.5669 15.3731L21.4803 15.503L21.3937 15.633L21.3071 15.7629L21.2205 15.8928L21.1339 16.0227L21.0472 16.1093L20.9173 16.2393L20.8307 16.3259L20.7008 16.4558L20.5709 16.5424L20.4409 16.629L20.311 16.7156L20.1811 16.8023L20.0512 16.8456L19.9213 16.9322L19.748 16.9755L19.6181 17.0188L19.4449 17.0621L19.315 17.1054L19.1417 17.1487H19.0118H18.8386H18.6654ZM15.4606 13.944H15.9803V14.1172V14.2471V14.3771L16.0236 14.507V14.6369L16.0669 14.7668L16.1102 14.8967L16.1535 15.0267L16.2402 15.1133L16.2835 15.2432L16.3701 15.3731L16.4134 15.4597L16.5 15.5897L16.5866 15.6763L16.6732 15.7629L16.7598 15.8928L16.8465 15.9794L16.9331 16.066L17.063 16.1093L17.1496 16.196L17.2795 16.2826L17.3661 16.3259L17.4961 16.4125L17.626 16.4558L17.7126 16.4991L17.8425 16.5424L17.9724 16.5857L18.1024 16.629H18.2323L18.4055 16.6723H18.5354H18.6654V17.1487H18.4921H18.3189H18.189L18.0157 17.1054L17.8425 17.0621L17.7126 17.0188L17.5394 16.9755L17.4095 16.9322L17.2795 16.8456L17.1496 16.8023L17.0197 16.7156L16.8898 16.629L16.7598 16.5424L16.6299 16.4558L16.5 16.3259L16.4134 16.2393L16.2835 16.1093L16.1969 16.0227L16.1102 15.8928L16.0236 15.7629L15.937 15.633L15.8504 15.503L15.7638 15.3731L15.7205 15.1999L15.6339 15.07L15.5906 14.8967L15.5472 14.7668L15.5039 14.5936V14.4637L15.4606 14.2904V14.1172V13.944ZM18.6654 10.7393V11.2589H18.5354H18.4055L18.2323 11.3023H18.1024L17.9724 11.3456L17.8425 11.3889L17.7126 11.4322L17.626 11.4755L17.4961 11.5188L17.3661 11.6054L17.2795 11.6487L17.1496 11.7353L17.063 11.7786L16.9331 11.8652L16.8465 11.9519L16.7598 12.0385L16.6732 12.1251L16.5866 12.255L16.5 12.3416L16.4134 12.4715L16.3701 12.5582L16.2835 12.6881L16.2402 12.7747L16.1535 12.9046L16.1102 13.0345L16.0669 13.1645L16.0236 13.2944V13.4243L15.9803 13.5542V13.6841V13.8141V13.944H15.4606V13.8141V13.6408L15.5039 13.4676V13.3377L15.5472 13.1645L15.5906 12.9912L15.6339 12.8613L15.7205 12.7314L15.7638 12.5582L15.8504 12.4282L15.937 12.2983L16.0236 12.1684L16.1102 12.0385L16.1969 11.9085L16.2835 11.8219L16.4134 11.692L16.5 11.6054L16.6299 11.4755L16.7598 11.3889L16.8898 11.3023L17.0197 11.2156L17.1496 11.129L17.2795 11.0857L17.4095 10.9991L17.5394 10.9558L17.7126 10.9125L17.8425 10.8692L18.0157 10.8259L18.189 10.7826H18.3189L18.4921 10.7393H18.6654Z" fill="#FEFEFE"/>
<path d="M18.6654 26.0265C20.2918 26.0265 21.6102 24.708 21.6102 23.0816C21.6102 21.4552 20.2918 20.1367 18.6654 20.1367C17.0389 20.1367 15.7205 21.4552 15.7205 23.0816C15.7205 24.708 17.0389 26.0265 18.6654 26.0265Z" fill="#00A859" stroke="#FEFEFE" stroke-width="0.176297"/>
<path d="M41.1417 17.8419V20.1371L39.1929 21.2631L37.2874 20.1371V17.8419L39.1929 16.7159L41.1417 17.8419ZM35.9882 18.9679C35.9882 19.1844 35.8583 19.3143 35.6417 19.3143H30.5315C30.3583 19.3143 30.1851 19.1844 30.1851 18.9679C30.1851 18.7946 30.3583 18.6647 30.5315 18.6647H35.6417C35.8583 18.6647 35.9882 18.7946 35.9882 18.9679ZM24.0354 17.0623H26.9803L27.9331 18.9679L26.9803 20.9167H24.0354C25.0748 22.5623 27.2402 23.0387 28.8858 21.956C29.5354 21.5663 30.0118 20.96 30.2717 20.2671H35.9016C36.6378 22.086 38.6732 22.9954 40.4921 22.3025C42.311 21.5663 43.2205 19.5308 42.5276 17.712C41.7914 15.8497 39.7559 14.9836 37.937 15.6765C36.9843 16.023 36.248 16.7592 35.9016 17.712H30.2717C29.5788 15.8931 27.5433 14.9836 25.7244 15.6765C25.0315 15.9364 24.4252 16.4127 24.0354 17.0623Z" fill="#999999"/>
<path d="M42.3976 8.9642C42.3976 10.0469 41.5315 10.913 40.4488 10.913H35.2953C34.9488 10.5666 34.3858 10.5666 33.9961 10.913H33.0433V7.01538H33.9961V7.05869C34.3858 7.40514 34.9488 7.40514 35.2953 7.05869V7.01538H40.4921C41.5315 7.05869 42.3976 7.92483 42.3976 8.9642ZM40.7953 8.31459C40.7953 8.48782 40.6221 8.66105 40.4488 8.66105H36.248C36.0748 8.66105 35.9449 8.48782 35.9449 8.31459C35.9449 8.14137 36.0748 8.01144 36.248 8.01144H40.4488C40.6221 8.01144 40.7953 8.14137 40.7953 8.31459Z" fill="#E32210"/>
<path d="M33.0433 8.31462V9.61384H26.2441L25.5945 9.96029L23.689 9.61384V8.31462L25.5945 8.01147L26.2441 8.31462H33.0433Z" fill="#999999"/>
<path d="M40.7953 9.61394C40.7953 9.78717 40.622 9.9604 40.4488 9.9604H36.248C36.0748 9.9604 35.9449 9.78717 35.9449 9.61394C35.9449 9.44071 36.0748 9.31079 36.248 9.31079H40.4488C40.622 9.31079 40.7953 9.44071 40.7953 9.61394Z" fill="white"/>
<path d="M40.7953 8.31462C40.7953 8.48785 40.622 8.66108 40.4488 8.66108H36.248C36.0748 8.66108 35.9449 8.48785 35.9449 8.31462C35.9449 8.1414 36.0748 8.01147 36.248 8.01147H40.4488C40.622 8.01147 40.7953 8.1414 40.7953 8.31462Z" fill="white"/>
</svg>
