<svg width="44" height="44" viewBox="0 0 44 44" fill="none" xmlns="http://www.w3.org/2000/svg">
<path d="M38.3268 0.606934H8.74802V33.3038H38.3268V0.606934Z" fill="#FFCC29"/>
<path d="M43.2205 0.95335C42.9606 0.693508 42.5276 0.693508 42.2677 0.910043L33.9528 9.31162L29.4921 6.62658C29.189 6.45335 28.7992 6.53996 28.5827 6.7565C28.3228 7.01634 28.3228 7.40611 28.4961 7.70926L33.3465 14.5085C33.4764 14.725 33.6929 14.8549 33.9095 14.8549C34.1693 14.8549 34.3858 14.725 34.5157 14.5518L43.3071 1.90611C43.5236 1.60296 43.4803 1.16989 43.2205 0.95335Z" fill="#00A859"/>
<path d="M42.5709 1.21292L41.9213 0.606616L41.9646 0.563309L42.0079 0.520002L42.0512 0.476695H42.0945L42.1378 0.433388H42.1811L42.2677 0.390081H42.311L42.3543 0.346774H42.3976H42.4409L42.4843 0.303467H42.5709H42.6142H42.6575H42.7008H42.7441H42.7874H42.874H42.9173H42.9606L43.0039 0.346774H43.0472H43.1339L43.1772 0.390081H43.2205L43.2638 0.433388H43.3071L43.3504 0.476695L43.3937 0.520002H43.437L43.4803 0.563309L43.5236 0.606616L42.9173 1.25622H42.874V1.21292H42.8307H42.7874V1.16961H42.7441H42.7008H42.6575V1.21292H42.6142H42.5709L42.5276 1.25622L42.5709 1.21292ZM41.9213 0.606616L41.9646 0.563309L41.9213 0.606616ZM33.6063 9.00819L41.9213 0.606616L42.5709 1.21292L34.2559 9.61449L33.6929 9.70111L33.6063 9.00819ZM34.2559 9.61449L33.9961 9.87433L33.6929 9.70111L34.2559 9.61449ZM29.7087 6.27984L34.1693 8.92158L33.6929 9.70111L29.2323 7.01607L29.7087 6.27984ZM29.2323 7.01607H29.2756H29.2323ZM28.8858 7.05937L28.2362 6.49638L28.2795 6.45307L28.3228 6.40977L28.3661 6.36646L28.4095 6.32315H28.4528L28.4961 6.27984L28.5394 6.23654H28.5827L28.626 6.19323H28.6693L28.7126 6.14992H28.7559H28.7992H28.8425L28.8858 6.10662H28.9291H28.9724H29.0158H29.1024H29.1457H29.189H29.2323H29.2756H29.3189L29.3622 6.14992H29.4055H29.4921L29.5354 6.19323H29.5787L29.6221 6.23654H29.6654L29.7087 6.27984L29.2323 7.01607H29.189L29.1457 6.97276H29.1024H29.0591L29.0158 7.01607H28.9724H28.9291V7.05937H28.8858ZM28.8858 7.44914L28.1496 7.96882L28.1063 7.92551V7.88221L28.063 7.8389L28.0197 7.75229V7.70898V7.66567L27.9764 7.62236V7.57906V7.53575L27.9331 7.49244V7.44914V7.40583V7.31922V7.27591V7.2326V7.18929V7.14599V7.10268V7.05937L27.9764 7.01607V6.97276V6.88614L28.0197 6.84284V6.79953L28.063 6.75622V6.71292L28.1063 6.66961V6.6263L28.1496 6.58299L28.1929 6.53969V6.49638H28.2362L28.8858 7.05937V7.10268H28.8425V7.14599V7.18929L28.7992 7.2326V7.27591V7.31922H28.8425V7.36252V7.40583L28.8858 7.44914ZM32.9567 14.768L28.1496 7.96882L28.8858 7.44914L33.6929 14.2483L32.9567 14.768ZM32.9567 14.768L32.9134 14.7247L32.9567 14.768ZM33.9095 14.3783V15.2877H33.8661H33.8228H33.7795L33.7362 15.2444H33.6929H33.6496H33.6063L33.563 15.2011H33.5197H33.4764L33.4331 15.1578H33.3898L33.3465 15.1145L33.3032 15.0712H33.2598H33.2165V15.0279H33.1732V14.9846H33.1299L33.0866 14.9413V14.898H33.0433V14.8546H33V14.8113L32.9567 14.768L33.6929 14.2483V14.2917H33.7362V14.335H33.7795V14.3783H33.8228H33.8661H33.9095ZM33.9095 15.2877V14.3783V15.2877ZM34.1693 14.2917L34.8622 14.768V14.8113L34.8189 14.8546L34.7756 14.898V14.9413H34.7323V14.9846H34.689L34.6457 15.0279L34.6024 15.0712L34.5591 15.1145H34.5158H34.4724V15.1578H34.4291L34.3858 15.2011H34.3425H34.2992L34.2559 15.2444H34.2126H34.1693H34.126V15.2877H34.0827H34.0394H33.9961H33.9528H33.9095V14.3783H33.9528H33.9961H34.0394H34.0827V14.335H34.126V14.2917H34.1693ZM34.8622 14.768V14.8113V14.768ZM43.6535 2.16567L34.8622 14.768L34.1693 14.2917L42.9606 1.64599L43.6535 2.16567ZM42.9173 1.25622L43.5236 0.606616L43.5669 0.649924L43.6102 0.693231L43.6535 0.736538V0.779845L43.6969 0.823152L43.7402 0.866459V0.909766L43.7835 0.953073V0.99638L43.8268 1.03969V1.1263L43.8701 1.16961V1.21292V1.25622V1.29953V1.34284V1.42945L43.9134 1.47276V1.51607L43.8701 1.55937V1.60268V1.64599V1.7326V1.77591L43.8268 1.81921V1.86252L43.7835 1.90583V1.99244L43.7402 2.03575V2.07906L43.6969 2.12236L43.6535 2.16567L42.9606 1.64599V1.60268L43.0039 1.55937V1.51607V1.47276V1.42945V1.38614V1.34284H42.9606V1.29953L42.9173 1.25622ZM43.5236 0.606616L43.5669 0.649924L43.5236 0.606616Z" fill="#FEFEFE"/>
<path d="M43.2205 16.2408C42.9606 16.0242 42.5276 15.9809 42.2677 16.2408L33.9528 24.6424L29.4921 21.9573C29.189 21.7841 28.7992 21.8274 28.5827 22.0872C28.3228 22.3471 28.3228 22.7368 28.4961 22.9967L33.3465 29.8392C33.4764 30.0557 33.6929 30.1424 33.9095 30.1424C34.1693 30.1424 34.3858 30.0557 34.5157 29.8825L43.3071 17.2368C43.5236 16.9337 43.4803 16.5006 43.2205 16.2408Z" fill="#00A859"/>
<path d="M42.5709 16.544L41.9213 15.9377L41.9646 15.8944L42.0079 15.8511L42.0512 15.8077H42.0945L42.1378 15.7644L42.1811 15.7211H42.2677H42.311L42.3543 15.6778H42.3976L42.4409 15.6345H42.4843H42.5709H42.6142H42.6575H42.7008H42.7441H42.7874H42.874H42.9173H42.9606L43.0039 15.6778H43.0472H43.1339L43.1772 15.7211H43.2205L43.2638 15.7644H43.3071L43.3504 15.8077L43.3937 15.8511H43.437L43.4803 15.8944L43.5236 15.9377L42.9173 16.5873L42.874 16.544H42.8307L42.7874 16.5007H42.7441H42.7008H42.6575L42.6142 16.544H42.5709H42.5276V16.5873L42.5709 16.544ZM41.9213 15.9377L41.9646 15.8944L41.9213 15.9377ZM33.6063 24.3392L41.9213 15.9377L42.5709 16.544L34.2559 24.9455L33.6929 25.0322L33.6063 24.3392ZM34.2559 24.9455L33.9961 25.2054L33.6929 25.0322L34.2559 24.9455ZM29.7087 21.6109L34.1693 24.2526L33.6929 25.0322L29.2323 22.3471L29.7087 21.6109ZM29.2323 22.3471L29.3189 22.3904L29.2323 22.3471ZM28.8858 22.3904L28.2362 21.7841H28.2795L28.3228 21.7408L28.3661 21.6975L28.4095 21.6542H28.4528L28.4961 21.6109L28.5394 21.5676H28.5827L28.626 21.5243H28.6693L28.7126 21.481H28.7559H28.7992L28.8425 21.4377H28.8858H28.9291H28.9724H29.0158H29.1024H29.1457H29.189H29.2323H29.2756H29.3189H29.3622L29.4055 21.481H29.4921L29.5354 21.5243H29.5787H29.6221L29.6654 21.5676L29.7087 21.6109L29.2323 22.3471H29.189V22.3038H29.1457H29.1024H29.0591H29.0158V22.3471H28.9724H28.9291V22.3904H28.8858ZM28.8858 22.7802L28.1496 23.2566L28.1063 23.2133V23.17L28.063 23.1266L28.0197 23.0833V23.04V22.9967L27.9764 22.9534V22.9101V22.8668L27.9331 22.8235V22.7802V22.7369V22.6503V22.607V22.5637V22.5203V22.477V22.4337V22.3904L27.9764 22.3471V22.2605V22.2172L28.0197 22.1739V22.1306L28.063 22.0873V22.044L28.1063 22.0007V21.9574L28.1496 21.914L28.1929 21.8707V21.8274L28.2362 21.7841L28.8858 22.3904V22.4337H28.8425V22.477V22.5203L28.7992 22.5637V22.607V22.6503H28.8425V22.6936V22.7369L28.8858 22.7802ZM28.8858 22.7802L28.8425 22.7369L28.8858 22.7802ZM32.9567 30.0991L28.1496 23.2566L28.8858 22.7802L33.6929 29.5794L32.9567 30.0991ZM32.9567 30.0991L32.9134 30.0558L32.9567 30.0991ZM33.9095 29.7093V30.6188H33.8661H33.8228L33.7795 30.5755H33.7362H33.6929H33.6496H33.6063L33.563 30.5322H33.5197H33.4764L33.4331 30.4889H33.3898L33.3465 30.4455L33.3032 30.4022H33.2598L33.2165 30.3589H33.1732V30.3156L33.1299 30.2723H33.0866V30.229H33.0433V30.1857L33 30.1424L32.9567 30.0991L33.6929 29.5794V29.6227H33.7362V29.666H33.7795L33.8228 29.7093H33.8661H33.9095ZM33.9095 30.6188V29.7093V30.6188ZM34.1693 29.6227L34.8622 30.0991V30.1424L34.8189 30.1857L34.7756 30.229V30.2723H34.7323V30.3156H34.689L34.6457 30.3589L34.6024 30.4022L34.5591 30.4455H34.5158H34.4724V30.4889H34.4291H34.3858V30.5322H34.3425H34.2992L34.2559 30.5755H34.2126H34.1693H34.126L34.0827 30.6188H34.0394H33.9961H33.9528H33.9095V29.7093H33.9528H33.9961H34.0394L34.0827 29.666H34.126V29.6227H34.1693ZM34.8622 30.0991V30.1424V30.0991ZM43.6535 17.4967L34.8622 30.0991L34.1693 29.6227L42.9606 16.977L43.6535 17.4967ZM42.9173 16.5873L43.5236 15.9377L43.5669 15.981L43.6102 16.0243L43.6535 16.0676V16.1109L43.6969 16.1542L43.7402 16.1975V16.2408L43.7835 16.2841V16.3274L43.8268 16.3707V16.414L43.8701 16.5007V16.544V16.5873V16.6306V16.6739V16.7172L43.9134 16.8038V16.8471L43.8701 16.8904V16.9337V16.977V17.0637V17.107L43.8268 17.1503V17.1936L43.7835 17.2369V17.2802L43.7402 17.3668V17.4101L43.6969 17.4534L43.6535 17.4967L42.9606 16.977V16.9337L43.0039 16.8904V16.8471V16.8038V16.7605V16.7172V16.6739H42.9606V16.6306L42.9173 16.5873ZM43.5236 15.9377L43.5669 15.981L43.5236 15.9377Z" fill="#FEFEFE"/>
<path d="M25.4827 7.49219H13.0787C12.5286 7.49219 12.0827 7.97692 12.0827 8.57486V8.85151C12.0827 9.44945 12.5286 9.93418 13.0787 9.93418H25.4827C26.0328 9.93418 26.4788 9.44945 26.4788 8.85151V8.57486C26.4788 7.97692 26.0328 7.49219 25.4827 7.49219Z" fill="#FEFEFE"/>
<path d="M26.1117 16.5439H13.3386C12.7645 16.5439 12.2992 17.0287 12.2992 17.6266V17.9033C12.2992 18.5012 12.7645 18.9859 13.3386 18.9859H26.1117C26.6857 18.9859 27.1511 18.5012 27.1511 17.9033V17.6266C27.1511 17.0287 26.6857 16.5439 26.1117 16.5439Z" fill="#FEFEFE"/>
<path d="M26.1117 26.0715H13.3386C12.7645 26.0715 12.2992 26.5563 12.2992 27.1542V27.4309C12.2992 28.0288 12.7645 28.5135 13.3386 28.5135H26.1117C26.6857 28.5135 27.1511 28.0288 27.1511 27.4309V27.1542C27.1511 26.5563 26.6857 26.0715 26.1117 26.0715Z" fill="#FEFEFE"/>
<path d="M8.01181 40.7527H4.41732L2.59842 37.6779L4.41732 34.6031H8.01181L9.8307 37.6779L8.01181 40.7527ZM6.23622 32.5677C5.93307 32.5677 5.71653 32.3078 5.71653 32.048V23.8196C5.71653 23.5598 5.93307 23.2999 6.23622 23.2999C6.49606 23.2999 6.71259 23.5598 6.71259 23.8196V32.048C6.71259 32.3078 6.49606 32.5677 6.23622 32.5677ZM9.31102 13.4692V18.1897L6.23622 19.7488L3.11811 18.1897V13.4692C0.51968 15.1582 -0.21654 18.6228 1.47244 21.2645C2.07874 22.2606 3.03149 22.9968 4.15748 23.4299V32.4377C1.2559 33.5637 -0.21654 36.8551 0.952751 39.7566C2.07874 42.7015 5.37007 44.1307 8.27165 43.0047C11.1732 41.8354 12.6457 38.544 11.4764 35.6425C10.9134 34.17 9.74409 33.0007 8.27165 32.4377V23.4299C11.1732 22.3472 12.6024 19.0559 11.5197 16.1543C11.0866 15.0716 10.3071 14.1188 9.31102 13.4692Z" fill="#999999"/>
<path d="M17.9724 43.3511C16.2835 43.3511 14.8976 41.9653 14.8976 40.233V32.0046C15.4606 31.4417 15.4606 30.5322 14.8976 29.9692V29.9259V28.4102H21.0905V29.9259L21.0472 29.9692C20.4842 30.5322 20.4842 31.4417 21.0472 32.0046H21.0905V40.2763C21.0472 41.9653 19.7047 43.3511 17.9724 43.3511ZM19.0118 40.7527C18.752 40.7527 18.4921 40.5361 18.4921 40.233V33.5637C18.4921 33.2606 18.752 33.044 19.0118 33.044C19.315 33.044 19.5315 33.2606 19.5315 33.5637V40.233C19.5315 40.5361 19.315 40.7527 19.0118 40.7527Z" fill="#E32210"/>
<path d="M19.0118 28.4102H16.9764V17.5834L16.4567 16.544L16.9764 13.4692H19.0118L19.5315 16.544L19.0118 17.5834V28.4102Z" fill="#999999"/>
<path d="M16.9764 40.7531C16.6732 40.7531 16.4567 40.5366 16.4567 40.2334V33.5641C16.4567 33.261 16.6732 33.0444 16.9764 33.0444C17.2362 33.0444 17.4528 33.261 17.4528 33.5641V40.2334C17.4528 40.5366 17.2362 40.7531 16.9764 40.7531Z" fill="white"/>
<path d="M19.0118 40.7531C18.752 40.7531 18.4921 40.5366 18.4921 40.2334V33.5641C18.4921 33.261 18.752 33.0444 19.0118 33.0444C19.315 33.0444 19.5315 33.261 19.5315 33.5641V40.2334C19.5315 40.5366 19.315 40.7531 19.0118 40.7531Z" fill="white"/>
</svg>
