<svg width="44" height="44" viewBox="0 0 44 44" fill="none" xmlns="http://www.w3.org/2000/svg">
<path fill-rule="evenodd" clip-rule="evenodd" d="M3.03148 8.7041H33.0866C33.7795 8.7041 34.3425 9.44032 34.3425 10.3498V36.5073C34.3425 37.3734 33.7795 38.0663 33.1299 38.0663H2.98817C2.29526 38.0663 1.73227 37.3734 1.73227 36.5073V10.3498C1.73227 9.44032 2.29526 8.7041 3.03148 8.7041Z" fill="#FEFEFE"/>
<path d="M33.0866 9.57032H3.0315V7.88135H33.0866V9.57032ZM35.1654 10.3499H33.563V10.3065V10.2632V10.2199V10.1766L33.5197 10.1333V10.09V10.0467V10.0034L33.4764 9.96009V9.91678L33.4331 9.87347V9.83017L33.3898 9.78686V9.74355H33.3465V9.70025H33.3032V9.65694H33.2598L33.2165 9.61363H33.1732L33.1299 9.57032H33.0866V7.88135H33.1732H33.3032H33.3898L33.5197 7.92465L33.6063 7.96796H33.7362L33.8228 8.01127L33.9095 8.09788L33.9961 8.14119L34.126 8.1845L34.2126 8.27111L34.2992 8.31442L34.3425 8.40103L34.4291 8.48765L34.5158 8.57426L34.6024 8.61757L34.6457 8.70418L34.7323 8.8341L34.7756 8.92072L34.8189 9.00733L34.8622 9.09395L34.9055 9.22387L34.9488 9.31048L34.9921 9.3971L35.0354 9.52702L35.0787 9.65694V9.74355L35.1221 9.87347V10.0034V10.09L35.1654 10.2199V10.3499ZM33.563 36.5073V10.3499H35.1654V36.5073H33.563ZM33.1299 38.9325V37.2002H33.1732H33.2165V37.1569H33.2598L33.3032 37.1136H33.3465V37.0703H33.3898V37.027L33.4331 36.9837V36.9404H33.4764V36.8971V36.8538H33.5197V36.8105V36.7672V36.7239L33.563 36.6806V36.6373V36.594V36.5506V36.5073H35.1654V36.594L35.1221 36.7239V36.8538V36.9404L35.0787 37.0703V37.1569L35.0354 37.2869L34.9921 37.4168L34.9488 37.5034L34.9055 37.59L34.8622 37.7199L34.8189 37.8065L34.7756 37.8932L34.7323 37.9798L34.6457 38.0664L34.6024 38.153L34.5158 38.2396L34.4724 38.3262L34.3858 38.4128L34.2992 38.4562L34.2126 38.5428L34.126 38.5861L34.0394 38.6294L33.9528 38.716L33.8661 38.7593L33.7362 38.8026L33.6496 38.8459H33.563L33.4331 38.8892H33.3465L33.2165 38.9325H33.1299ZM2.98819 37.2002H33.1299V38.9325H2.98819V37.2002ZM0.952759 36.5073H2.51181V36.5506V36.594V36.6373H2.55512V36.6806V36.7239V36.7672V36.8105L2.59843 36.8538V36.8971L2.64174 36.9404V36.9837L2.68504 37.027L2.72835 37.0703L2.77166 37.1136L2.81496 37.1569H2.85827V37.2002H2.90158H2.94488H2.98819V38.9325H2.85827L2.77166 38.8892H2.64174L2.55512 38.8459H2.4252L2.33859 38.8026L2.25197 38.7593L2.12205 38.716L2.03544 38.6294L1.94882 38.5861L1.86221 38.5428L1.77559 38.4562L1.68898 38.4128L1.64567 38.3262L1.55906 38.2396L1.47244 38.153L1.42914 38.0664L1.34252 37.9798L1.29922 37.8932L1.25591 37.8065L1.2126 37.7199L1.16929 37.59L1.12599 37.5034L1.08268 37.4168L1.03937 37.2869L0.996066 37.1569V37.0703L0.952759 36.9404V36.8538V36.7239V36.594V36.5073ZM2.51181 10.3499V36.5073H0.952759V10.3499H2.51181ZM3.0315 7.88135V9.57032H2.98819H2.94488V9.61363H2.90158H2.85827L2.81496 9.65694H2.77166V9.70025H2.72835V9.74355L2.68504 9.78686V9.83017H2.64174V9.87347L2.59843 9.91678V9.96009L2.55512 10.0034V10.0467V10.09V10.1333V10.1766L2.51181 10.2199V10.2632V10.3065V10.3499H0.952759V10.2199V10.09V10.0034V9.87347L0.996066 9.74355V9.65694L1.03937 9.52702L1.08268 9.4404L1.12599 9.31048L1.16929 9.22387L1.2126 9.09395L1.25591 9.00733L1.29922 8.92072L1.38583 8.8341L1.42914 8.74749L1.51575 8.61757L1.55906 8.57426L1.64567 8.48765L1.73229 8.40103L1.8189 8.31442L1.90551 8.27111L1.99213 8.1845L2.07874 8.14119L2.16536 8.09788L2.25197 8.01127L2.38189 7.96796H2.46851L2.55512 7.92465L2.68504 7.88135H2.77166H2.90158H3.0315Z" fill="#2887D2"/>
<path fill-rule="evenodd" clip-rule="evenodd" d="M2.4685 4.71997H33.8228C34.8622 4.71997 35.7283 5.58611 35.7283 6.62548V11.6491H0.562988V6.62548C0.562988 5.58611 1.42913 4.71997 2.4685 4.71997Z" fill="#FC4D44"/>
<path d="M9.47337 0.605957H8.09843C7.71575 0.605957 7.40552 0.974353 7.40552 1.42879V7.81997C7.40552 8.2744 7.71575 8.6428 8.09843 8.6428H9.47337C9.85606 8.6428 10.1663 8.2744 10.1663 7.81997V1.42879C10.1663 0.974353 9.85606 0.605957 9.47337 0.605957Z" fill="#2887D2"/>
<path d="M15.7096 0.605957H14.3347C13.952 0.605957 13.6417 0.974353 13.6417 1.42879V7.81997C13.6417 8.2744 13.952 8.6428 14.3347 8.6428H15.7096C16.0923 8.6428 16.4025 8.2744 16.4025 7.81997V1.42879C16.4025 0.974353 16.0923 0.605957 15.7096 0.605957Z" fill="#2887D2"/>
<path d="M21.9458 0.605957H20.5709C20.1882 0.605957 19.878 0.974353 19.878 1.42879V7.81997C19.878 8.2744 20.1882 8.6428 20.5709 8.6428H21.9458C22.3285 8.6428 22.6387 8.2744 22.6387 7.81997V1.42879C22.6387 0.974353 22.3285 0.605957 21.9458 0.605957Z" fill="#2887D2"/>
<path d="M28.2254 0.605957H26.8504C26.4677 0.605957 26.1575 0.974353 26.1575 1.42879V7.81997C26.1575 8.2744 26.4677 8.6428 26.8504 8.6428H28.2254C28.608 8.6428 28.9183 8.2744 28.9183 7.81997V1.42879C28.9183 0.974353 28.608 0.605957 28.2254 0.605957Z" fill="#2887D2"/>
<path d="M30.8623 14.0742H27.4567V17.6911H30.8623V14.0742Z" fill="#FEFEFE"/>
<path d="M10.6968 23.2553H12.4724C13.2953 23.2553 13.9449 23.0388 14.3346 22.649C14.7677 22.2159 14.9842 21.6529 14.9842 20.96C14.9842 20.2671 14.7677 19.7474 14.3779 19.3577C13.9449 18.9679 13.3819 18.7947 12.689 18.7947C12.0394 18.7947 11.5197 18.9679 11.0866 19.3143C10.6535 19.6608 10.437 20.1372 10.437 20.7002H7.10235C7.10235 19.7907 7.31889 19.0112 7.79527 18.3183C8.27165 17.6254 8.92125 17.0624 9.78739 16.6726C10.6535 16.2828 11.563 16.1096 12.6024 16.1096C14.3779 16.1096 15.7638 16.4994 16.8031 17.3655C17.7992 18.2317 18.3189 19.401 18.3189 20.8734C18.3189 21.6529 18.059 22.3891 17.5827 22.9954C17.1496 23.6451 16.5 24.1647 15.7638 24.5112C16.7165 24.8576 17.4094 25.334 17.8858 26.0269C18.3189 26.7199 18.5787 27.4994 18.5787 28.4521C18.5787 29.9246 18.0157 31.1372 16.9331 32.0466C15.8504 32.9561 14.4213 33.3891 12.6024 33.3891C10.9134 33.3891 9.57086 32.9561 8.48818 32.0466C7.4055 31.1805 6.88582 30.0112 6.88582 28.5388H10.2205C10.2205 29.1884 10.4803 29.708 10.9567 30.0978C11.3898 30.4876 11.9961 30.7041 12.689 30.7041C13.4685 30.7041 14.1181 30.4876 14.5512 30.0545C14.9842 29.6214 15.2441 29.1017 15.2441 28.4088C15.2441 26.7199 14.2913 25.8537 12.4724 25.8537H10.6968V23.2553Z" fill="#2887D2"/>
<path d="M28.9724 33.1726H25.6378V20.2671L21.6535 21.4797V18.7947L28.626 16.3262H28.9724V33.1726Z" fill="#2887D2"/>
<path fill-rule="evenodd" clip-rule="evenodd" d="M19.4016 27.0232H43.437V43.3933H15.2874V34.1256C16.5433 33.6925 17.8858 32.8696 18.3622 31.3539C18.8386 29.8382 19.185 28.2358 19.4016 27.0232Z" fill="#FEFEFE"/>
<path d="M39.9292 30.3578V33.0428L37.6339 34.4287L35.3386 33.0428V30.3578L37.6339 29.0153L39.9292 30.3578ZM33.7795 31.7003C33.7795 31.9169 33.6063 32.0901 33.3898 32.0901H27.2402C27.0236 32.0901 26.8504 31.9169 26.8504 31.7003C26.8504 31.4838 27.0236 31.3106 27.2402 31.3106H33.3898C33.6063 31.3106 33.7795 31.4838 33.7795 31.7003ZM19.4882 29.4051H23.0394L24.1654 31.7003L23.0394 34.0389H19.4882C20.7441 35.9877 23.3425 36.5507 25.2914 35.2948C26.0709 34.7751 26.6339 34.0822 26.937 33.2594H33.6929C34.5591 35.4247 37.0276 36.5074 39.1929 35.6846C41.4016 34.8184 42.4843 32.3499 41.6181 30.1846C40.752 27.9759 38.2835 26.8932 36.1181 27.7594C34.9921 28.1925 34.126 29.0586 33.6929 30.1846H26.937C26.1142 27.9759 23.689 26.8932 21.5236 27.7594C20.6575 28.0625 19.9646 28.6255 19.4882 29.4051Z" fill="#999999"/>
<path d="M43.3071 40.1451C43.3071 41.6175 42.1378 42.7868 40.7087 42.7868H33.7362V42.7435C33.2599 42.3104 32.4803 42.3104 32.004 42.7435V42.7868H30.7047V37.5466H32.004C32.4803 38.023 33.2599 38.023 33.7362 37.5466H40.7087C42.1378 37.5466 43.3071 38.7159 43.3071 40.1451ZM41.1418 39.2789C41.1418 39.5388 40.9252 39.712 40.7087 39.712H35.0355C34.8189 39.712 34.6024 39.5388 34.6024 39.2789C34.6024 39.0624 34.8189 38.8458 35.0355 38.8458H40.7087C40.9252 38.8458 41.1418 39.0624 41.1418 39.2789Z" fill="#E32210"/>
<path d="M30.7047 39.279V41.0546H21.5236L20.6575 41.4877L18.0591 41.0546V39.279L20.6575 38.8459L21.5236 39.279H30.7047Z" fill="#999999"/>
<path d="M41.1417 41.0544C41.1417 41.2709 40.9252 41.4875 40.7087 41.4875H35.0354C34.8189 41.4875 34.6024 41.2709 34.6024 41.0544C34.6024 40.7946 34.8189 40.6213 35.0354 40.6213H40.7087C40.9252 40.6213 41.1417 40.7946 41.1417 41.0544Z" fill="white"/>
<path d="M41.1417 39.279C41.1417 39.5389 40.9252 39.7121 40.7087 39.7121H35.0354C34.8189 39.7121 34.6024 39.5389 34.6024 39.279C34.6024 39.0625 34.8189 38.8459 35.0354 38.8459H40.7087C40.9252 38.8459 41.1417 39.0625 41.1417 39.279Z" fill="white"/>
</svg>
