<svg width="44" height="44" viewBox="0 0 44 44" fill="none" xmlns="http://www.w3.org/2000/svg">
<path d="M12.126 0.909424H0.736221V43.0905H12.126V0.909424Z" fill="#FEFEFE"/>
<path d="M5.37008 12.1259C7.92929 12.1259 10.0039 10.0512 10.0039 7.49201C10.0039 4.9328 7.92929 2.85815 5.37008 2.85815C2.81087 2.85815 0.736221 4.9328 0.736221 7.49201C0.736221 10.0512 2.81087 12.1259 5.37008 12.1259Z" fill="#FC4D44"/>
<path d="M5.37008 26.6334C7.92929 26.6334 10.0039 24.5588 10.0039 21.9996C10.0039 19.4404 7.92929 17.3657 5.37008 17.3657C2.81087 17.3657 0.736221 19.4404 0.736221 21.9996C0.736221 24.5588 2.81087 26.6334 5.37008 26.6334Z" fill="#F0A71F"/>
<path d="M5.37008 40.9684C7.92929 40.9684 10.0039 38.8938 10.0039 36.3345C10.0039 33.7753 7.92929 31.7007 5.37008 31.7007C2.81087 31.7007 0.736221 33.7753 0.736221 36.3345C0.736221 38.8938 2.81087 40.9684 5.37008 40.9684Z" fill="#00A859"/>
<path d="M40.7087 28.1064V31.6576L37.6772 33.4332L34.6457 31.6576V28.1064L37.6772 26.3308L40.7087 28.1064ZM32.6102 29.882C32.6102 30.1852 32.3937 30.4017 32.0906 30.4017H23.9921C23.7323 30.4017 23.5157 30.1852 23.5157 29.882C23.5157 29.6222 23.7323 29.4056 23.9921 29.4056H32.0906C32.3937 29.4056 32.6102 29.6222 32.6102 29.882ZM13.7717 26.8505H18.4488L19.9646 29.882L18.4488 32.9568H13.7717C15.4606 35.5119 18.8819 36.2482 21.4803 34.6025C22.4331 33.9529 23.2126 33.0434 23.6457 31.9174H32.4803C33.6063 34.819 36.8543 36.2048 39.7126 35.0789C42.5709 33.9962 44 30.7482 42.874 27.8899C41.748 24.9883 38.5433 23.5592 35.6417 24.6852C34.2126 25.2482 33.0433 26.4174 32.4803 27.8899H23.6457C22.5197 25.0316 19.315 23.6025 16.4567 24.6852C15.374 25.1182 14.4213 25.8545 13.7717 26.8505Z" fill="#999999"/>
<path d="M42.7008 14.161C42.7008 15.85 41.315 17.1925 39.626 17.1925H31.5276C30.9646 16.6295 30.0551 16.6295 29.4921 17.1925H27.9764V11.0862H29.4921V11.1295C30.0551 11.6925 30.9646 11.6925 31.5276 11.1295V11.0862H39.6693C41.315 11.1295 42.7008 12.472 42.7008 14.161ZM40.1457 13.1216C40.1457 13.4248 39.9291 13.6413 39.626 13.6413H33.0433C32.7835 13.6413 32.5236 13.4248 32.5236 13.1216C32.5236 12.8618 32.7835 12.6452 33.0433 12.6452H39.626C39.9291 12.6452 40.1457 12.8618 40.1457 13.1216Z" fill="#E32210"/>
<path d="M27.9764 13.1219V15.1573H17.3228L16.3268 15.677L13.252 15.1573V13.1219L16.3268 12.6455L17.3228 13.1219H27.9764Z" fill="#999999"/>
<path d="M40.1457 15.1573C40.1457 15.4604 39.9291 15.677 39.626 15.677H33.0433C32.7835 15.677 32.5236 15.4604 32.5236 15.1573C32.5236 14.8974 32.7835 14.6809 33.0433 14.6809H39.626C39.9291 14.6809 40.1457 14.8974 40.1457 15.1573Z" fill="white"/>
<path d="M40.1457 13.1219C40.1457 13.425 39.9291 13.6416 39.626 13.6416H33.0433C32.7835 13.6416 32.5236 13.425 32.5236 13.1219C32.5236 12.862 32.7835 12.6455 33.0433 12.6455H39.626C39.9291 12.6455 40.1457 12.862 40.1457 13.1219Z" fill="white"/>
</svg>
