<?xml version="1.0" encoding="UTF-8"?>
<!DOCTYPE svg PUBLIC "-//W3C//DTD SVG 1.1//EN" "http://www.w3.org/Graphics/SVG/1.1/DTD/svg11.dtd">
<!-- Creator: CorelDRAW X7 -->
<svg xmlns="http://www.w3.org/2000/svg" xml:space="preserve" width="120px" height="120px" version="1.1" style="shape-rendering:geometricPrecision; text-rendering:geometricPrecision; image-rendering:optimizeQuality; fill-rule:evenodd; clip-rule:evenodd"
viewBox="0 0 120 120"
 xmlns:xlink="http://www.w3.org/1999/xlink">
 <defs>
  <style type="text/css">
   <![CDATA[
    .fil0 {fill:none}
    .fil4 {fill:#FEFEFE}
    .fil2 {fill:#FEFEFE}
    .fil5 {fill:#00A859;fill-rule:nonzero}
    .fil3 {fill:#2887D2;fill-rule:nonzero}
    .fil1 {fill:url(#id0)}
    .fil7 {fill:url(#id1)}
    .fil6 {fill:url(#id2)}
   ]]>
  </style>
  <linearGradient id="id0" gradientUnits="userSpaceOnUse" x1="35.9901" y1="1.8272" x2="84.0099" y2="73.2203">
   <stop offset="0" style="stop-opacity:1; stop-color:#1CC8EB"/>
   <stop offset="0.321569" style="stop-opacity:1; stop-color:#0E96E0"/>
   <stop offset="1" style="stop-opacity:1; stop-color:#0063D4"/>
  </linearGradient>
  <linearGradient id="id1" gradientUnits="userSpaceOnUse" x1="55.2223" y1="94.7145" x2="71.4557" y2="104.926">
   <stop offset="0" style="stop-opacity:1; stop-color:#1CC8EB"/>
   <stop offset="0.631373" style="stop-opacity:1; stop-color:#0E96E0"/>
   <stop offset="1" style="stop-opacity:1; stop-color:#0063D4"/>
  </linearGradient>
  <linearGradient id="id2" gradientUnits="userSpaceOnUse" xlink:href="#id1" x1="55.22" y1="84.604" x2="71.4581" y2="94.8149">
  </linearGradient>
 </defs>
 <g id="Layer_x0020_1">
  <metadata id="CorelCorpID_0Corel-Layer"/>
  <rect class="fil0" width="120" height="120"/>
  <g id="_787064352">
   <rect class="fil1" x="2" y="8" width="116.002" height="58.6596" rx="14" ry="15"/>
   <g>
    <path class="fil2" d="M94 13l0 8 0 15c0,4 0,5 -1,5 -4,0 -56,0 -58,0 -3,0 -2,-5 -2,-7 -1,-5 0,-19 0,-20l0 0c20,0 41,0 61,0 0,0 0,-1 0,-1z"/>
    <path id="1" class="fil3" d="M93 21l0 -8 2 0 0 8 -2 0 0 0zm0 0l0 0 0 0 0 0zm0 15l0 -15 2 0 0 15 -2 0zm0 5l0 -1 0 0 0 0 0 0 0 0 0 0 0 0 0 0 0 0 0 0 0 0 0 0 0 0 0 0 0 0 0 0 0 0 0 0 0 0 0 0 0 0 0 -1 0 0 0 0 0 0 0 0 0 -1 0 0 0 0 0 0 0 -1 0 0 0 0 0 -1 2 0 0 1 0 0 0 0 0 1 0 0 0 0 0 0 0 1 0 0 0 0 0 0 0 0 0 1 0 0 0 0 0 0 0 0 0 0 0 0 0 1 0 0 -1 0 0 0 0 0 0 0 0 0 -1 0 0 0 0 0 0 0 0 0 0 0 0 0zm-58 0l0 -1 0 0 1 0 0 0 1 0 1 0 1 0 2 0 2 0 2 0 2 0 2 0 2 0 2 0 3 0 2 0 3 0 2 0 3 0 2 0 3 0 2 0 3 0 2 0 2 0 2 0 2 0 2 0 2 0 1 0 1 0 1 0 1 0 1 0 0 1 -1 0 -1 0 -1 0 -1 0 -1 0 -2 0 -2 0 -2 0 -2 0 -2 0 -2 0 -3 0 -2 0 -3 0 -2 0 -3 0 -2 0 -3 0 -2 0 -3 0 -2 0 -2 0 -2 0 -2 0 -2 0 -2 0 -1 0 -2 0 -1 0 -1 0 0 0 -1 0 0 0zm-4 -7l3 0 0 0 0 0 0 0 0 0 0 1 0 0 0 0 0 0 0 1 0 0 0 0 0 0 0 1 0 0 0 0 0 1 0 0 0 0 0 0 0 1 0 0 0 0 1 0 0 0 0 1 0 0 0 0 0 0 0 0 0 0 0 0 0 0 0 0 0 1 0 0 -1 0 0 0 0 0 -1 0 0 0 0 -1 0 0 -1 0 0 0 0 -1 0 0 0 0 0 0 0 -1 0 0 0 0 0 -1 0 0 0 0 -1 -1 0 0 0 0 0 0 0 -1 0 0 0 0 0 0 0 -1 0 0 0 0 0 0 0 0zm1 -20l2 0 0 0 0 0 0 0 0 0 0 1 0 0 0 1 0 0 0 1 0 0 0 1 0 1 0 1 0 0 0 1 0 1 0 1 0 0 0 1 0 1 0 1 0 1 0 0 0 1 0 1 0 1 0 0 0 1 0 1 0 0 0 1 0 0 0 1 -3 0 0 -1 0 0 0 -1 0 0 0 -1 0 -1 0 0 0 -1 0 -1 0 -1 0 0 0 -1 0 -1 0 -1 0 -1 0 0 0 -1 0 -1 0 -1 0 -1 0 0 0 -1 0 -1 0 0 1 -1 0 0 0 -1 0 0 0 -1 0 0 0 0 0 0 0 0zm2 0l0 0 0 0 0 0zm0 0l0 0 -2 0 0 0 1 -1 1 1zm-2 0l0 -1 1 0 -1 1zm61 -1l2 1 -1 0 -2 0 -2 0 -2 0 -2 0 -2 0 -2 0 -1 0 -2 0 -2 0 -2 0 -2 0 -2 0 -2 0 -2 0 -2 0 -2 0 -2 0 -1 0 -2 0 -2 0 -2 0 -2 0 -2 0 -2 0 -2 0 -2 0 -2 0 -2 0 -2 0 -1 0 -2 0 -2 0 0 -1 2 0 2 0 1 0 2 0 2 0 2 0 2 0 2 0 2 0 2 0 2 0 2 0 2 0 2 0 1 0 2 0 2 0 2 0 2 0 2 0 2 0 2 0 2 0 2 0 2 0 1 0 2 0 2 0 2 0 2 0 2 0 2 0 -1 0zm2 1l0 0 -1 0 1 0zm0 -1l-2 0 2 1 0 0 0 0 0 0 0 0 0 0 0 0 0 0 0 0 0 0 0 0 0 0 0 0 0 0 0 0 0 0 0 0 0 0 0 0 0 0 0 0 0 0 0 0 0 0 0 0 0 0 0 0 0 0 0 0 0 0 0 0 0 0 0 0 -2 -1 0 0 0 0 0 0 0 0 0 0 0 0 0 0 0 0 0 0 0 0 0 0 0 0 0 0 0 0 0 0 0 0 0 0 0 0 0 0 0 0 0 0 0 0 0 0 0 0 0 0 0 0 0 0 0 0 0 0 0 0 0 0 0 0 2 0zm-2 0l2 -2 0 2 -2 0z"/>
   </g>
   <circle class="fil4" cx="18" cy="30" r="6"/>
   <rect class="fil2" x="30" y="53" width="66.9305" height="7.84738"/>
   <g>
    <path class="fil2" d="M94 112l0 -8 0 -41c0,-6 0,-7 -1,-7 -4,0 -58,0 -60,0 -2,0 -1,48 0,55 0,0 2,-3 6,-3 4,0 6,4 6,4 0,0 2,-4 6,-4 4,0 6,3 6,3 0,0 3,-3 7,-3 4,0 6,4 6,4 0,0 2,-4 6,-4 3,0 6,3 6,3 0,0 2,-3 6,-3 4,0 6,4 6,4z"/>
    <path id="1" class="fil3" d="M93 104l0 0 2 0 0 8 -2 0 0 -8zm0 0l0 0 0 0 0 0zm0 -41l2 0 0 41 -2 0 0 -41zm0 -8l0 0 0 0 0 0 0 0 0 0 0 0 1 0 0 1 0 0 0 0 0 0 1 0 0 0 0 1 0 0 0 0 0 0 0 1 0 0 0 0 0 0 0 1 0 0 0 0 0 0 0 1 0 0 0 1 0 0 0 1 0 0 0 1 0 0 -2 0 0 0 0 -1 0 0 0 -1 0 0 0 -1 0 0 0 0 0 -1 0 0 0 0 0 -1 0 0 0 0 0 0 0 0 0 0 0 -1 0 0 0 0 0 0 0 0 0 0 0 0 0 1 0 0 0 0 0 0 0 0 0 0 0 0 0 0 0 0 0 -3zm-60 0l0 0 0 0 1 0 1 0 1 0 1 0 2 0 2 0 2 0 2 0 2 0 2 0 3 0 2 0 3 0 3 0 2 0 3 0 2 0 3 0 3 0 2 0 3 0 2 0 2 0 2 0 2 0 2 0 1 0 1 0 1 0 1 0 1 0 0 3 -1 0 -1 0 -1 0 -1 0 -1 0 -2 0 -2 0 -2 0 -2 0 -2 0 -3 0 -2 0 -3 0 -3 0 -2 -1 -3 0 -2 0 -3 0 -3 0 -2 0 -3 0 -2 0 -2 0 -2 0 -2 0 -2 0 -2 0 -1 0 -1 0 -1 0 -1 0 0 0 0 0 0 -2zm1 57l-2 -1 0 0 -1 -1 0 -2 0 -1 0 -2 0 -1 0 -2 0 -2 0 -2 0 -3 0 -2 0 -2 0 -3 0 -2 0 -3 0 -2 0 -2 0 -3 0 -2 0 -2 0 -2 0 -2 0 -2 0 -2 0 -2 0 -1 0 -2 0 -1 0 -1 1 -1 0 0 1 -1 0 2 1 0 0 0 0 1 0 0 -1 2 0 1 0 1 0 2 0 2 0 2 0 2 0 2 0 2 0 2 0 3 0 2 0 2 0 3 0 2 0 3 0 2 0 2 0 2 0 3 1 2 0 1 0 2 0 2 0 1 0 1 0 2 0 0 -2 0 2 1zm5 -3l0 0 0 0 -1 0 0 0 0 0 0 0 -1 1 0 0 0 0 0 0 -1 0 0 0 0 0 0 0 0 0 -1 1 0 0 0 0 0 0 0 0 0 0 -1 0 0 0 0 1 0 0 0 0 0 0 0 0 0 0 0 0 0 0 0 0 0 0 -2 -1 0 0 0 0 0 0 0 -1 0 0 0 0 0 0 0 0 0 0 1 0 0 0 0 -1 0 0 0 0 1 0 0 0 0 0 0 -1 1 0 0 0 0 0 0 0 1 0 0 -1 0 0 1 0 0 0 1 0 0 0 0 0 1 0 0 0 0 0 0 2zm7 3l-2 0 0 0 0 0 0 0 0 0 0 0 0 0 0 0 0 0 0 0 0 0 -1 0 0 0 0 -1 0 0 0 0 0 0 0 0 -1 0 0 0 0 -1 0 0 0 0 -1 0 0 0 0 0 0 0 -1 0 0 0 0 -1 0 0 -1 0 0 0 0 -2 1 0 0 0 0 0 1 0 0 0 0 1 1 0 0 0 0 0 1 0 0 0 0 0 1 1 0 0 0 0 0 0 0 0 1 1 0 0 0 0 0 0 0 0 0 0 1 1 0 0 0 0 0 0 0 0 0 0 0 0 0 0 0 0 -2 0 2 1zm0 0l-1 2 -1 -2 2 0zm5 -3l0 0 0 0 -1 0 0 0 0 1 0 0 -1 0 0 0 0 0 0 0 -1 0 0 0 0 0 0 1 0 0 -1 0 0 0 0 0 0 0 0 0 0 1 0 0 0 0 -1 0 0 0 0 0 0 0 0 0 0 0 0 0 0 0 0 0 0 0 -2 -1 0 0 0 0 0 0 0 0 0 0 0 0 0 0 1 0 0 -1 0 0 0 0 0 0 0 0 0 0 1 -1 0 0 0 0 0 0 0 0 1 -1 0 0 0 0 1 0 0 0 0 0 1 0 0 -1 0 0 1 0 0 0 0 0 1 0 0 0 0 2zm7 3l-2 0 0 0 0 0 0 0 0 0 0 0 0 0 0 0 0 0 0 0 0 -1 0 0 0 0 -1 0 0 0 0 0 0 0 0 0 0 -1 -1 0 0 0 0 0 0 0 -1 0 0 0 0 0 0 0 -1 -1 0 0 0 0 0 0 -1 0 0 0 0 -2 0 0 1 0 0 0 1 0 0 0 0 0 1 0 0 0 0 1 1 0 0 0 0 0 1 0 0 0 0 1 0 0 1 0 0 0 0 0 0 0 0 1 0 0 1 0 0 0 0 0 0 0 0 0 0 0 0 1 0 0 0 0 0 0 -2 0 2 1zm0 0l-1 1 -1 -1 2 0zm6 -3l0 0 -1 0 0 0 0 0 0 0 -1 0 0 1 0 0 -1 0 0 0 0 0 0 0 0 0 -1 0 0 0 0 1 0 0 0 0 -1 0 0 0 0 0 0 0 0 0 0 1 0 0 0 0 -1 0 0 0 0 0 0 0 0 0 0 0 0 0 -2 -1 0 0 0 0 0 0 1 -1 0 0 0 0 0 0 0 0 0 0 0 0 0 0 1 -1 0 0 0 0 0 0 0 0 1 0 0 -1 0 0 0 0 1 0 0 0 0 0 1 -1 0 0 0 0 1 0 0 0 1 0 0 0 0 0 1 0 0 0 0 2zm7 3l-2 0 0 0 0 0 0 0 0 0 0 0 -1 0 0 0 0 0 0 0 0 0 0 0 0 0 0 -1 0 0 -1 0 0 0 0 0 0 0 0 0 0 -1 -1 0 0 0 0 0 0 0 0 0 -1 0 0 0 0 0 -1 -1 0 0 0 0 0 0 0 -2 0 0 1 0 0 0 0 0 1 0 0 1 0 0 1 0 0 0 0 0 1 0 0 0 0 1 0 0 1 0 0 0 0 0 0 1 0 0 1 0 0 0 0 0 0 0 0 1 0 0 0 0 0 0 1 0 0 0 0 0 0 0 0 0 -2 0 2 1zm0 0l-1 2 -1 -2 2 0zm5 -3l0 0 -1 0 0 0 0 0 0 1 -1 0 0 0 0 0 0 0 -1 0 0 0 0 0 0 0 -1 1 0 0 0 0 0 0 0 0 0 0 -1 0 0 1 0 0 0 0 0 0 0 0 0 0 0 0 0 0 0 0 0 0 0 0 0 0 0 0 -2 -1 0 0 0 0 0 0 0 0 0 0 0 0 0 0 0 0 0 -1 0 0 0 0 1 0 0 0 0 0 0 -1 0 0 1 0 0 0 0 0 0 -1 1 0 0 0 0 0 1 0 0 0 0 0 1 -1 0 0 0 0 1 0 0 0 0 0 0 0 1 2zm7 3l-2 0 0 0 0 0 0 0 0 0 0 0 0 0 0 0 0 0 0 0 -1 -1 0 0 0 0 0 0 0 0 0 0 -1 0 0 0 0 -1 0 0 0 0 -1 0 0 0 0 0 0 0 0 0 -1 0 0 -1 0 0 -1 0 0 0 0 0 0 0 -1 -2 1 0 0 0 1 0 0 0 1 0 0 0 0 0 1 0 0 1 0 0 1 0 0 0 0 0 0 0 1 1 0 0 0 0 0 0 1 0 0 0 0 1 0 0 0 0 0 0 0 0 1 0 0 0 0 0 0 1 0 0 0 0 0 0 -2 0 2 1zm0 0l-1 1 -1 -1 2 0zm5 -3l0 0 0 0 0 0 -1 0 0 0 0 0 0 1 -1 0 0 0 0 0 0 0 -1 0 0 0 0 0 0 0 0 1 -1 0 0 0 0 0 0 0 0 0 0 0 -1 0 0 1 0 0 0 0 0 0 0 0 0 0 0 0 0 0 0 0 0 0 -2 -1 0 0 0 0 0 0 0 -1 0 0 0 0 0 0 1 0 0 0 0 0 0 0 0 -1 0 0 1 0 0 0 0 0 0 0 0 -1 1 0 0 0 0 0 1 0 0 0 0 -1 1 0 0 0 0 0 1 0 0 0 1 0 0 0 0 0 0 0 0 2zm7 3l-2 0 0 0 0 0 0 0 0 0 0 0 0 0 0 0 0 0 0 0 0 0 0 0 0 0 -1 -1 0 0 0 0 0 0 0 0 0 0 -1 0 0 -1 0 0 0 0 0 0 -1 0 0 0 0 0 0 0 -1 0 0 -1 0 0 0 0 -1 0 0 -2 1 0 0 0 1 0 0 0 0 0 1 1 0 0 0 0 1 0 0 0 0 0 1 0 0 1 0 0 0 0 0 0 1 0 0 1 0 0 0 0 0 0 1 0 0 0 0 1 0 0 0 0 0 0 0 0 0 0 0 0 0 0 0 0 -2 1 2 0z"/>
   </g>
   <path class="fil5" d="M66 78c0,-1 0,-2 0,-2 -1,-1 -1,-1 -2,-2 -1,0 -2,0 -3,-1 -1,0 -1,0 -2,-1 0,0 -1,-1 -1,-2 0,0 -1,-1 -1,-2 0,-2 1,-3 2,-4 1,-1 2,-2 4,-2l0 -3 2 0 0 3c2,1 3,1 4,2 1,2 1,3 1,5l-4 0c0,-1 0,-2 0,-3 -1,0 -1,0 -2,0 -1,0 -1,0 -2,0 0,1 -1,1 -1,2 0,1 1,1 1,2 1,0 1,1 2,1 2,0 2,1 3,1 1,1 1,1 2,2 0,0 1,1 1,1 0,1 0,2 0,3 0,1 0,2 -1,3 -1,1 -2,2 -4,2l0 3 -2 0 0 -3c-2,0 -4,-1 -5,-2 -1,-1 -1,-3 -1,-4l4 0c0,1 0,1 1,2 0,1 1,1 2,1 1,0 1,0 2,-1 0,0 0,-1 0,-1z"/>
   <g>
    <rect class="fil6" x="39" y="87" width="48.7881" height="5.06759"/>
    <rect class="fil7" x="39" y="97" width="48.7881" height="5.06759"/>
   </g>
  </g>
 </g>
</svg>
