<?xml version="1.0" encoding="UTF-8"?>
<!DOCTYPE svg PUBLIC "-//W3C//DTD SVG 1.1//EN" "http://www.w3.org/Graphics/SVG/1.1/DTD/svg11.dtd">
<!-- Creator: CorelDRAW X7 -->
<svg xmlns="http://www.w3.org/2000/svg" xml:space="preserve" width="120px" height="120px" version="1.1" style="shape-rendering:geometricPrecision; text-rendering:geometricPrecision; image-rendering:optimizeQuality; fill-rule:evenodd; clip-rule:evenodd"
viewBox="0 0 120 120"
 xmlns:xlink="http://www.w3.org/1999/xlink">
 <defs>
  <style type="text/css">
   <![CDATA[
    .fil0 {fill:none}
    .fil2 {fill:#FEFEFE}
    .fil11 {fill:#6E3614}
    .fil10 {fill:#99562C}
    .fil1 {fill:#AD5F2F}
    .fil12 {fill:#E09200}
    .fil14 {fill:#FEFEFE;fill-rule:nonzero}
    .fil6 {fill:#FFF212;fill-rule:nonzero}
    .fil7 {fill:#FFF212;fill-rule:nonzero}
    .fil13 {fill:#00A859;fill-rule:nonzero}
    .fil4 {fill:#4E901E;fill-rule:nonzero}
    .fil8 {fill:url(#id0);fill-rule:nonzero}
    .fil5 {fill:url(#id1);fill-rule:nonzero}
    .fil9 {fill:url(#id2);fill-rule:nonzero}
    .fil3 {fill:url(#id3);fill-rule:nonzero}
   ]]>
  </style>
  <linearGradient id="id0" gradientUnits="userSpaceOnUse" x1="57.2362" y1="55.3712" x2="15.0889" y2="38.3535">
   <stop offset="0" style="stop-opacity:1; stop-color:#04870F"/>
   <stop offset="1" style="stop-opacity:1; stop-color:#03690C"/>
  </linearGradient>
  <linearGradient id="id1" gradientUnits="userSpaceOnUse" xlink:href="#id0" x1="35.305" y1="76.0527" x2="20.841" y2="64.721">
  </linearGradient>
  <linearGradient id="id2" gradientUnits="userSpaceOnUse" xlink:href="#id0" x1="25.0115" y1="66.0273" x2="10.5475" y2="54.6956">
  </linearGradient>
  <linearGradient id="id3" gradientUnits="userSpaceOnUse" xlink:href="#id0" x1="67.5297" y1="65.3966" x2="25.3824" y2="48.3789">
  </linearGradient>
 </defs>
 <g id="Layer_x0020_1">
  <metadata id="CorelCorpID_0Corel-Layer"/>
  <rect class="fil0" width="120" height="120"/>
  <g id="_682069736">
   <g>
    <path class="fil1" d="M10 48l64 0c4,0 7,3 7,7l0 1 0 8c-4,-1 -3,-1 -7,-1l-64 0c-4,0 -7,-5 -7,-7l0 -1c0,-4 3,-7 7,-7zm2 2c0,0 -6,0 -6,4 -1,4 0,5 3,6 3,1 27,1 27,1l33 0c0,0 5,0 7,0 1,0 2,1 2,1 0,0 0,-6 0,-8 0,-2 -2,-3 -15,-3 -14,0 -51,-1 -51,-1z"/>
    <path class="fil2" d="M11 50c0,0 58,0 62,0 4,1 5,1 6,3 1,1 0,11 0,11 0,0 -2,-1 -6,-1 -4,0 -43,0 -43,0 0,0 -19,0 -22,-1 -2,-1 -3,-3 -3,-6 -1,-3 1,-5 3,-6 2,0 3,0 3,0z"/>
    <g>
     <g>
      <g>
       <polygon class="fil3" points="20,81 81,66 73,33 12,48 "/>
       <path class="fil4" d="M72 43l3 14c-3,1 -5,4 -4,8l-43 10c-1,-3 -4,-5 -7,-4l-4 -15c4,0 6,-4 5,-7l43 -10c1,3 4,5 7,4z"/>
       <path class="fil5" d="M15 60l5 21 21 -5c-6,1 -11,0 -16,-3 -5,-3 -8,-7 -10,-13z"/>
       <polygon class="fil6" points="59,55 65,54 64,51 58,53 "/>
       <polygon class="fil6" points="29,63 34,61 34,59 28,60 "/>
      </g>
      <path class="fil7" d="M49 60c0,-1 0,-1 0,-1 -1,-1 -1,-1 -2,-1 -1,0 -2,0 -2,0 -1,0 -1,-1 -2,-1 0,0 -1,0 -1,-1 0,0 0,-1 -1,-1 0,-1 0,-2 1,-3 0,-1 1,-2 2,-2l0 -2 1 -1 1 2c1,0 2,1 3,1 1,1 1,2 2,3l-3 1c0,-1 -1,-2 -1,-2 -1,0 -1,0 -2,0 0,0 0,0 -1,1 0,0 0,0 0,1 0,0 1,1 1,1 0,0 1,0 2,1 1,0 1,0 2,0 0,0 1,0 1,1 1,0 1,0 1,1 1,0 1,1 1,1 0,1 0,2 0,3 -1,1 -2,2 -3,2l1 2 -2 0 0 -2c-2,1 -3,0 -4,0 -1,-1 -1,-2 -2,-3l3 -1c0,1 1,1 1,2 1,0 1,0 2,0 0,0 1,0 1,-1 0,0 0,-1 0,-1z"/>
     </g>
     <g>
      <g>
       <polygon class="fil8" points="10,71 70,56 62,23 2,38 "/>
       <path class="fil4" d="M62 33l3 14c-3,1 -5,4 -4,8l-43 10c-1,-3 -4,-5 -7,-4l-4 -15c3,0 5,-4 5,-7l43 -10c0,3 4,5 7,4z"/>
       <path class="fil9" d="M5 50l5 21 21 -5c-6,1 -12,0 -16,-3 -5,-3 -9,-7 -10,-13z"/>
       <polygon class="fil6" points="49,45 54,44 54,41 48,42 "/>
       <polygon class="fil6" points="19,53 24,51 23,48 18,50 "/>
      </g>
      <path class="fil7" d="M40 51c0,-1 0,-1 -1,-1 0,-1 -1,-1 -2,-1 -2,0 -3,-1 -3,-1 -1,0 -2,0 -3,-1 0,0 -1,0 -1,-1 -1,-1 -1,-1 -1,-2 -1,-2 -1,-3 0,-5 1,-1 2,-2 4,-2l-1 -4 2 0 1 3c2,0 3,0 5,1 1,1 2,2 2,4l-4 1c0,-1 -1,-2 -1,-2 -1,-1 -2,-1 -2,0 -1,0 -2,0 -2,1 0,0 0,1 0,2 0,0 0,1 1,1 0,1 1,1 2,1 2,0 3,0 4,1 0,0 1,0 2,1 0,0 1,0 1,1 1,1 1,1 1,2 1,2 1,3 0,5 -1,1 -2,2 -4,2l1 3 -3 1 0 -3c-2,0 -4,0 -5,-1 -2,-1 -3,-2 -3,-4l4 -1c0,1 1,2 2,2 0,0 1,1 2,0 1,0 2,0 2,-1 0,0 0,-1 0,-2z"/>
     </g>
    </g>
    <g>
     <path class="fil10" d="M10 62l66 0c4,0 7,2 7,5l0 30c0,3 -3,5 -7,5l-66 0c-4,0 -7,-2 -7,-5l0 -26 0 -5 0 -10c2,3 3,6 7,6z"/>
     <path class="fil10" d="M83 71c0,0 2,0 3,1 0,0 1,1 1,1 0,0 -2,1 -3,1 -1,0 -1,0 -1,0l0 -2 0 -1z"/>
     <path class="fil1" d="M8 64c0,0 -1,31 0,31 0,0 0,3 4,3 4,0 62,0 62,0 0,0 4,0 5,-3 0,-3 0,-28 0,-28 0,0 0,-2 -4,-2 -4,0 -63,0 -64,0 0,-1 -3,-2 -3,-1z"/>
     <path class="fil10" d="M66 74c0,0 -4,0 -7,3 -3,2 -2,8 -1,9 2,2 4,3 7,4 4,0 17,0 18,0 1,0 3,0 4,-2 0,-1 0,-13 0,-13 0,0 0,-2 0,-2 -1,-1 -1,-1 -1,-1 0,0 1,1 -2,2 -3,0 -18,0 -18,0z"/>
     <path class="fil11" d="M84 73c1,0 1,0 1,0l-2 1 0 -2 1 1z"/>
     <ellipse class="fil12" cx="69" cy="82" rx="6" ry="5"/>
    </g>
   </g>
   <g>
    <path class="fil13" d="M117 19c-1,-1 -3,-1 -4,-1l-31 36 -18 -13c-1,-1 -3,-1 -4,0 -1,1 -1,3 0,4l19 26c0,1 1,1 2,2l0 0c1,0 2,-1 2,-2l34 -49c1,-1 1,-2 0,-3z"/>
    <path id="1" class="fil14" d="M114 19l-2 -1 1 -1 0 0 0 0 0 0 0 0 0 0 1 0 0 0 0 0 0 0 0 0 0 0 1 0 0 0 0 0 0 0 0 0 0 0 1 0 0 0 0 0 0 0 0 0 1 0 0 0 0 0 0 0 0 0 0 0 1 0 0 0 0 0 0 1 -2 1 0 0 0 0 0 0 0 0 0 0 0 0 0 0 0 0 0 0 0 0 0 0 -1 0 0 0 0 0 0 0 0 0 0 0 0 0 0 0 0 0 0 0 0 0 0 0 0 0 0 0 0 0 -1 0 0 0 0 0 0 0 0 0 0 0 0 0zm-2 -1l0 0 1 -1 -1 1zm-31 35l31 -35 2 1 -31 36 -2 0 0 -2zm2 2l-1 1 -1 -1 2 0zm-18 -15l18 13 -2 2 -18 -13 1 -2 1 0zm-1 0l0 0 1 0 -1 0zm-3 2l-2 -2 0 0 0 0 1 0 0 0 0 0 0 0 0 0 0 0 0 -1 1 0 0 0 0 0 0 0 0 0 0 0 1 0 0 0 0 0 0 0 0 0 0 0 1 0 0 0 0 0 0 0 0 0 0 0 1 0 0 0 0 0 0 0 0 1 0 0 -1 2 0 0 0 0 0 0 0 0 0 0 0 0 0 0 0 0 0 0 -1 0 0 0 0 0 0 0 0 0 0 0 0 0 0 0 0 0 0 0 0 0 0 0 0 0 0 0 0 0 0 0 -1 0 0 0 0 0 0 0 0 0 0 0 0 0 0 0zm0 2l-2 2 0 0 0 -1 0 0 0 0 0 0 0 0 -1 0 0 -1 0 0 0 0 0 0 0 0 0 0 0 -1 0 0 0 0 0 0 0 0 0 0 0 -1 0 0 0 0 0 0 0 0 1 0 0 -1 0 0 0 0 0 0 0 0 0 0 0 -1 0 0 2 2 0 0 0 0 0 0 0 0 0 0 0 0 0 0 0 1 0 0 0 0 0 0 0 0 0 0 0 0 0 0 0 0 0 0 0 0 0 0 0 0 0 0 0 0 0 1 0 0 0 0 0 0 0 0 0 0 0 0 0 0 0 0 0 0 0 0zm0 0l0 0 0 0 0 0zm17 28l-19 -26 2 -2 19 27 -2 1 0 0zm0 0l0 0 0 0 0 0zm3 -1l0 3 0 0 0 0 0 0 0 0 0 0 -1 0 0 0 0 0 0 0 0 0 0 0 0 0 0 0 -1 -1 0 0 0 0 0 0 0 0 0 0 0 0 0 0 0 0 0 0 -1 0 0 0 0 0 0 0 0 0 0 -1 0 0 0 0 0 0 0 0 2 -1 0 0 0 0 0 0 0 0 0 0 0 0 0 0 0 0 0 0 0 0 0 0 0 0 0 0 0 0 0 0 0 0 0 0 0 0 0 0 1 0 0 0 0 0 0 0 0 0 0 0 0 0 0 0 0 0 0 0 0 0 0 0 0 0 0 0zm0 3l0 0 0 0 0 0zm0 0l0 0 0 -3 0 0 0 0 0 3zm1 -3l2 1 0 0 0 0 0 0 0 0 0 0 0 1 0 0 0 0 0 0 0 0 0 0 -1 0 0 0 0 0 0 0 0 0 0 0 0 0 0 0 0 0 -1 1 0 0 0 0 0 0 0 0 0 0 0 0 0 0 0 0 -1 0 0 0 0 0 0 0 0 -3 0 0 0 0 0 0 0 0 0 0 0 0 0 0 0 0 0 0 1 0 0 0 0 0 0 0 0 0 0 0 0 0 0 0 0 0 0 0 0 0 0 0 0 0 0 0 0 0 0 0 0 0 0 0 0 0 0 0 0 0 0 0 0 0 0 0zm2 1l0 0 0 0 0 0zm35 -49l-35 49 -2 -1 34 -49 0 0 3 1zm-3 -1l0 0 0 0 0 0zm0 -3l2 -1 0 0 0 0 0 0 0 0 1 0 0 0 0 1 0 0 0 0 0 0 0 0 0 0 0 1 0 0 0 0 0 0 0 0 0 0 0 1 0 0 0 0 0 0 0 0 0 1 0 0 0 0 0 0 0 0 0 0 0 1 0 0 0 0 -1 0 -2 -1 0 -1 0 0 1 0 0 0 0 0 0 0 0 0 0 0 0 0 0 0 0 0 0 0 0 0 0 0 0 0 0 -1 0 0 0 0 0 0 0 0 0 0 0 0 0 0 0 0 0 0 -1 0 0 0 0 0 0 0 0 0 0 0 0 -1 0 0zm2 -1l0 0 0 0 0 0z"/>
   </g>
  </g>
 </g>
</svg>
