<?xml version="1.0" encoding="UTF-8"?>
<!DOCTYPE svg PUBLIC "-//W3C//DTD SVG 1.1//EN" "http://www.w3.org/Graphics/SVG/1.1/DTD/svg11.dtd">
<!-- Creator: CorelDRAW X7 -->
<svg xmlns="http://www.w3.org/2000/svg" xml:space="preserve" width="121px" height="120px" version="1.1" style="shape-rendering:geometricPrecision; text-rendering:geometricPrecision; image-rendering:optimizeQuality; fill-rule:evenodd; clip-rule:evenodd"
viewBox="0 0 122 121"
 xmlns:xlink="http://www.w3.org/1999/xlink">
 <defs>
  <style type="text/css">
   <![CDATA[
    .fil0 {fill:none}
    .fil2 {fill:#91D8F7;fill-rule:nonzero}
    .fil1 {fill:#2887D2;fill-rule:nonzero}
    .fil3 {fill:#FC4D44;fill-rule:nonzero}
   ]]>
  </style>
 </defs>
 <g id="Layer_x0020_1">
  <metadata id="CorelCorpID_0Corel-Layer"/>
  <rect class="fil0" width="121" height="121"/>
  <g id="_954079888">
   <path class="fil1" d="M40 75l-9 -5c-1,0 -2,-1 -2,-3l0 -3c0,-1 1,-1 1,-1 1,-2 2,-4 3,-6 1,0 2,-2 2,-3l0 -4c0,-1 -1,-1 -1,-2l0 -5c0,0 1,-9 -11,-9 -12,0 -10,9 -10,9l0 5c-1,1 -1,1 -1,2l0 4c0,1 0,2 1,3 1,4 3,7 3,7l0 3c0,2 0,3 -1,3l-9 5c-2,1 -4,4 -4,7l0 3 42 0 0 -3c0,-3 -1,-6 -4,-7z"/>
   <path class="fil2" d="M54 76l-9 -4c-1,0 -1,-1 -2,-1 0,-1 1,-1 1,-1l7 0c0,0 2,0 4,-1 1,0 2,-2 1,-3 -2,-3 -6,-9 -6,-16 0,0 -1,-11 -11,-11 -2,0 -4,0 -5,1 0,1 0,3 0,3l0 5c0,1 1,1 1,2l0 4c0,1 -1,3 -2,3 -1,2 -2,4 -3,6 0,0 -1,0 -1,1l0 3c0,1 0,2 1,3l2 0c1,0 1,0 1,1 0,0 -1,0 -1,0l8 4c3,1 4,4 4,7l0 3 14 0 0 -3c0,-2 -2,-5 -4,-6z"/>
  </g>
  <g id="_954079936">
   <path class="fil1" d="M84 75l9 -5c1,0 2,-1 2,-3l0 -3c0,-1 0,-1 -1,-1 -1,-2 -2,-4 -3,-6 -1,0 -2,-2 -2,-3l0 -4c0,-1 1,-1 1,-2l0 -5c0,0 -1,-9 11,-9 12,0 11,9 11,9l0 5c0,1 0,1 0,2l0 4c0,1 0,2 -1,3 -1,4 -3,7 -3,7l0 3c0,2 0,3 2,3l8 5c3,1 4,4 4,7l0 3 -42 0 0 -3c0,-3 1,-6 4,-7z"/>
   <path class="fil2" d="M70 76l10 -4c0,0 0,-1 1,-1 0,-1 0,-1 -1,-1l-7 0c0,0 -2,0 -4,-1 -1,0 -1,-2 -1,-3 2,-3 6,-9 7,-16 0,0 0,-11 10,-11 2,0 4,0 6,1 -1,1 -1,3 -1,3l0 5c0,1 -1,1 -1,2l0 4c0,1 1,3 2,3 1,2 2,4 3,6 1,0 1,0 1,1l0 3c0,1 0,2 -1,3l-2 0c-1,0 -1,0 -1,1 0,0 1,0 1,0l-8 4c-3,1 -4,4 -4,7l0 3 -14 0 0 -3c0,-2 2,-5 4,-6z"/>
  </g>
  <g id="_954080800">
   <path class="fil3" d="M66 63c0,0 -1,0 -1,0 -1,0 -1,0 -1,1l0 2 -15 0c-1,0 -2,1 -2,1l0 6c0,0 1,1 2,1l15 0 0 2c0,1 0,1 1,1 0,0 0,0 0,0 1,0 1,0 1,0l9 -6c0,-1 0,-1 0,-1l0 0c0,0 0,0 0,-1l-9 -6z"/>
   <path class="fil3" d="M72 45l-15 0 0 -2c0,-1 0,-1 -1,-1 0,0 -1,0 -1,0l-9 6c0,0 0,1 0,1l0 0c0,0 0,0 0,0l9 7c0,0 0,0 1,0 0,0 0,0 0,0 1,0 1,-1 1,-1l0 -3 15 0c1,0 2,0 2,0l0 -6c0,0 -1,-1 -2,-1z"/>
  </g>
 </g>
</svg>
