<?xml version="1.0" encoding="UTF-8"?>
<!DOCTYPE svg PUBLIC "-//W3C//DTD SVG 1.1//EN" "http://www.w3.org/Graphics/SVG/1.1/DTD/svg11.dtd">
<!-- Creator: CorelDRAW X7 -->
<svg xmlns="http://www.w3.org/2000/svg" xml:space="preserve" width="120px" height="120px" version="1.1" style="shape-rendering:geometricPrecision; text-rendering:geometricPrecision; image-rendering:optimizeQuality; fill-rule:evenodd; clip-rule:evenodd"
viewBox="0 0 120 120"
 xmlns:xlink="http://www.w3.org/1999/xlink">
 <defs>
  <style type="text/css">
   <![CDATA[
    .fil0 {fill:none}
    .fil2 {fill:#FEFEFE}
    .fil1 {fill:#BDBFC1}
    .fil4 {fill:#2887D2}
    .fil9 {fill:#FEFEFE;fill-rule:nonzero}
    .fil6 {fill:#FEFEFE;fill-rule:nonzero}
    .fil5 {fill:#00A859;fill-rule:nonzero}
    .fil7 {fill:#00A859;fill-rule:nonzero}
    .fil3 {fill:#0098DA;fill-rule:nonzero}
    .fil8 {fill:#2887D2;fill-rule:nonzero}
   ]]>
  </style>
 </defs>
 <g id="Layer_x0020_1">
  <metadata id="CorelCorpID_0Corel-Layer"/>
  <rect class="fil0" width="120" height="120"/>
  <g id="_803034696">
   <g>
    <g>
     <g>
      <path class="fil1" d="M2 12l0 85c0,0 61,-2 61,0 0,2 0,-68 0,-68l-10 -16 -1 -1c0,0 -50,0 -50,0z"/>
      <g>
       <path class="fil2" d="M7 18l0 84c0,0 61,-2 61,0 0,2 0,-68 0,-68l-10 -16 -1 -1c0,0 -50,0 -50,1z"/>
       <path id="1" class="fil3" d="M7 102l0 -84 1 0 0 84 -1 0 0 0zm0 0l0 0 0 0 0 0zm61 0l-1 0 0 0 1 1 -1 -1 -1 0 -1 0 -1 0 -2 0 -2 0 -2 0 -2 0 -2 0 -3 0 -2 0 -3 0 -3 0 -3 0 -2 0 -3 0 -3 0 -3 0 -3 0 -2 0 -3 0 -2 0 -2 0 -2 0 -2 0 -2 0 -1 0 -1 0 -1 0 -1 0 0 0 0 0 0 0 1 0 1 0 1 -1 1 0 2 0 2 0 2 0 2 0 2 0 3 0 2 0 3 0 3 0 3 0 3 0 2 0 3 0 3 0 3 0 2 0 3 0 2 0 2 0 2 0 2 0 2 0 1 0 1 0 1 0 1 1 0 0 0 0zm0 -68l0 0 0 0 0 0 0 1 0 1 0 1 0 1 0 2 0 2 0 3 0 2 0 3 0 3 0 3 0 3 0 3 0 3 0 4 0 3 0 3 0 3 0 3 0 3 0 3 0 3 0 2 0 3 0 2 0 1 0 2 0 1 0 1 0 0 -1 0 1 0 -1 0 0 0 0 -1 0 -1 0 -2 0 -1 0 -2 0 -3 0 -2 0 -3 0 -3 0 -3 0 -3 0 -3 0 -3 0 -3 0 -4 0 -3 0 -3 0 -3 0 -3 0 -3 0 -3 0 -2 0 -3 0 -2 0 -2 0 -1 0 -1 0 -1 0 -1 0 0 1 0zm-10 -16l10 16 0 0 -11 -15 1 -1 0 0zm0 0l0 0 0 0 0 0zm-1 -1l1 1 0 1 -1 -1 0 -1 0 0zm0 0l0 0 0 0 0 0zm-49 1l-1 0 0 0 0 -1 1 0 0 0 1 0 1 0 2 0 1 0 2 0 2 0 2 0 2 0 2 0 2 0 3 0 2 0 2 0 3 0 2 0 2 0 2 0 3 0 2 0 2 0 1 0 2 0 2 0 1 0 1 0 1 0 1 0 0 0 0 0 0 1 0 0 0 0 -1 0 -1 0 -1 0 -1 0 -2 0 -2 0 -1 0 -2 0 -2 0 -3 0 -2 0 -2 0 -2 0 -3 0 -2 0 -2 0 -3 0 -2 0 -2 0 -2 0 -2 0 -2 0 -2 0 -1 0 -2 0 -1 0 -1 0 0 0 -1 0 1 0 0 0z"/>
      </g>
      <path class="fil4" d="M57 18l0 11c0,0 -1,4 1,4 2,1 10,1 10,1l-11 -17 0 1z"/>
     </g>
     <rect class="fil4" x="16" y="62" width="29.6775" height="5.93584"/>
     <rect class="fil4" x="16" y="75" width="29.6775" height="5.93584"/>
     <rect class="fil4" x="16" y="88" width="29.6775" height="5.93584"/>
     <g>
      <path class="fil5" d="M79 10c-1,0 -2,0 -2,0l-20 22 -11 -8c-1,0 -2,0 -2,0 -1,1 -1,2 -1,3l12 16c0,1 1,1 2,1l0 0c0,0 1,0 1,-1l21 -31c1,0 1,-1 0,-2z"/>
      <path id="1" class="fil6" d="M77 11l-1 -1 0 -1 0 0 0 0 1 0 0 0 0 0 0 0 0 0 0 0 0 0 0 0 0 0 1 0 0 0 0 0 0 0 0 0 0 0 0 0 0 0 0 0 1 0 0 0 0 0 0 0 0 0 0 0 0 0 0 0 0 0 0 0 1 0 0 1 -1 1 0 0 -1 0 0 0 0 0 0 0 0 0 0 0 0 0 0 0 0 0 0 0 0 -1 0 0 0 0 0 0 0 0 0 0 0 0 0 0 0 0 0 0 0 1 0 0 0 0 0 0 -1 0 0 0 0 0 0 0 0 0 0 0 0 0 0 0zm-1 -1l0 -1 0 0 0 1zm-19 22l19 -22 1 1 -19 22 -1 0 0 -1zm1 1l-1 1 0 -1 1 0zm-12 -10l12 9 -1 1 -12 -8 1 -2 0 0zm0 0l0 0 0 0 0 0zm-2 2l-1 -1 0 0 0 0 0 0 0 0 0 -1 0 0 0 0 1 0 0 0 0 0 0 0 0 0 0 0 0 0 0 0 0 0 0 0 1 0 0 0 0 0 0 0 0 0 0 0 0 0 0 0 0 0 1 0 0 0 0 0 0 0 0 0 0 0 0 0 -1 2 0 0 0 0 0 0 0 0 0 0 0 0 0 0 0 0 0 0 0 0 0 0 0 0 0 0 0 0 0 0 0 0 0 0 0 0 0 0 0 0 -1 0 0 0 0 0 0 0 0 0 0 0 0 0 0 0 0 0 0 0 0 0 0 0 0 0zm-1 -1l0 0 0 -1 0 1zm1 2l-1 1 0 0 0 0 0 0 0 0 -1 0 0 0 0 -1 0 0 0 0 0 0 0 0 0 0 0 0 0 0 0 0 0 -1 0 0 0 0 0 0 0 0 0 0 0 0 0 0 0 0 0 0 0 -1 1 0 0 0 0 0 0 0 0 0 0 0 0 0 1 1 0 0 0 0 0 0 0 0 0 0 0 0 0 0 0 0 0 0 0 0 0 0 0 0 0 0 0 0 0 0 0 0 0 1 0 0 0 0 0 0 0 0 0 0 0 0 0 0 0 0 0 0 0 0 0 0 0 0 0 0 0 0 0 0 0 0zm0 0l0 0 0 0 0 0zm10 18l-11 -17 1 -1 12 17 -2 1 0 0zm0 0l0 0 0 0 0 0zm3 -1l0 2 0 0 -1 0 0 0 0 0 0 0 0 0 0 0 0 0 0 0 0 0 0 0 0 0 0 0 0 0 -1 -1 0 0 0 0 0 0 0 0 0 0 0 0 0 0 0 0 0 0 0 0 0 0 0 0 0 0 0 0 0 0 0 0 -1 0 0 0 2 -1 0 0 0 0 0 0 0 0 0 0 0 0 0 0 0 0 0 0 0 0 0 0 0 0 0 0 0 0 0 0 0 0 0 0 0 0 0 0 0 0 0 0 0 0 0 0 0 0 0 0 0 0 0 0 0 0 0 0 0 0 0 0 1 0 0 0zm0 2l0 0 0 0 0 0zm0 0l0 0 0 -2 0 0 0 0 0 2zm0 -2l2 1 0 0 0 0 0 0 -1 0 0 0 0 0 0 0 0 0 0 0 0 0 0 0 0 0 0 0 0 0 0 0 0 0 0 0 0 0 0 1 -1 0 0 0 0 0 0 0 0 0 0 0 0 0 0 0 0 0 0 0 0 0 0 0 0 0 0 0 0 -2 0 0 0 0 0 0 0 0 0 0 0 0 0 0 0 0 0 0 0 0 0 0 0 0 0 0 0 0 0 0 0 0 0 0 0 0 0 0 0 0 0 0 0 0 0 0 0 0 0 0 0 0 0 0 0 0 0 0 0 0 0 0 0 0 0 0zm2 1l0 0 0 0 0 0zm21 -31l-21 31 -2 -1 22 -31 0 0 1 1zm-1 -1l0 0 0 0 0 0zm0 -1l1 -1 0 0 0 0 0 0 0 0 0 0 0 0 0 0 0 0 0 0 0 0 0 1 0 0 0 0 0 0 0 0 0 0 0 0 0 0 0 0 0 1 0 0 0 0 0 0 0 0 0 0 0 0 0 0 0 0 0 1 0 0 0 0 0 0 0 0 -1 -1 0 0 0 0 0 0 0 0 0 0 0 0 0 0 0 0 0 0 0 0 0 0 0 0 0 -1 0 0 0 0 0 0 0 0 0 0 0 0 0 0 0 0 0 0 0 0 0 0 0 0 0 0 0 0 0 0 0 0 0 0 0 0 0 0 0 0zm1 -1l0 0 0 0 0 0z"/>
     </g>
    </g>
    <path class="fil7" d="M32 46c0,-1 0,-2 0,-3 -1,0 -2,-1 -3,-1 -1,-1 -2,-1 -3,-2 -1,0 -2,-1 -3,-1 -1,-1 -1,-2 -1,-3 -1,0 -1,-1 -1,-3 0,-2 1,-3 2,-5 1,-1 3,-2 5,-2l0 -1 0 -2 0 0 0 0c0,0 1,-1 1,-1l1 0c0,0 1,1 1,1l0 0 0 0 0 2 0 1c2,1 4,1 5,3 1,1 2,3 2,5l0 0 0 0c0,1 -1,2 -2,2l-2 0c-1,0 -1,-1 -2,-2l0 0 0 0 0 0 0 0 0 0c0,-1 0,-2 0,-3 -1,0 -2,-1 -3,-1 -1,0 -1,1 -2,1 -1,1 -1,1 -1,2 0,1 0,2 1,3 0,0 1,1 3,1 1,1 2,1 3,2 1,0 2,1 3,2 0,0 1,1 1,2 0,1 1,1 1,3 0,2 -1,3 -2,4 -2,2 -3,2 -5,3l0 1c0,0 0,0 0,0l0 1c0,1 -1,1 -1,1l-1 0c-1,0 -1,0 -1,-1l0 -1c0,0 0,0 0,0l0 -1c-3,-1 -5,-1 -6,-3 -1,-1 -2,-3 -2,-5l0 0c0,-1 1,-2 2,-2l2 0c0,0 1,1 1,2l0 0 0 0 0 0 0 0 0 0 0 0c0,1 1,2 1,3 1,0 2,1 3,1 1,0 2,-1 3,-1 0,-1 0,-1 0,-2z"/>
   </g>
   <g>
    <path class="fil8" d="M44 97c13,12 32,13 47,1 0,0 0,0 0,0l1 -1c-3,-4 -10,-6 -14,-8 -1,0 -2,-1 -2,-3l0 -3c0,-1 1,-1 1,-2 1,-2 3,-4 3,-6 2,-1 3,-3 3,-5l0 -4c0,-1 0,-3 -1,-3l0 -7c0,0 0,-4 -2,-7 -3,-3 -7,-4 -12,-4 -6,0 -5,2 -7,3 -2,0 -3,-1 -5,1 -3,3 -2,7 -2,7l0 7c-1,0 -1,2 -1,3l0 4c0,2 0,3 1,4 1,4 4,7 4,8l0 4c0,1 0,2 -1,3l-11 6c-1,0 -1,1 -2,2z"/>
    <path class="fil8" d="M70 97c13,12 33,13 47,1 0,0 0,0 0,0l1 -1c-3,-4 -9,-6 -14,-8 -1,0 -2,-1 -2,-3l0 -3c1,-1 1,-1 1,-2 2,-2 3,-4 4,-6 1,-1 2,-3 2,-5l0 -4c0,-1 0,-3 -1,-3l0 -7c0,0 1,-4 -2,-7 -3,-3 -7,-4 -12,-4 -6,0 -5,2 -7,3 -2,0 -3,-1 -5,1 -3,3 -2,7 -2,7l0 7c-1,0 -1,2 -1,3l0 4c0,2 1,3 2,4 1,4 3,7 4,8l0 4c0,1 -1,2 -2,3l-10 6c-1,0 -2,1 -3,2z"/>
    <g>
     <path class="fil8" d="M56 101c13,11 33,13 47,1 0,0 0,0 0,0l1 -1c-3,-4 -9,-6 -14,-8 -1,-1 -1,-2 -1,-3l0 -4c0,0 0,0 0,-1 2,-2 3,-4 4,-6 1,-1 3,-3 3,-5l0 -4c0,-1 -1,-3 -2,-3l0 -7c0,0 1,-4 -2,-7 -3,-3 -6,-4 -12,-4 -6,0 -5,2 -7,3 -2,0 -3,-1 -5,1 -3,3 -2,7 -2,7l0 7c-1,0 -1,2 -1,3l0 4c0,2 1,3 2,4 1,4 3,7 4,8l0 4c0,1 -1,2 -2,3l-10 5c-1,1 -2,2 -3,3z"/>
     <path id="1" class="fil9" d="M102 101l2 2 0 0 -1 2 -2 1 -1 1 -2 0 -1 1 -2 1 -1 1 -2 0 -2 1 -1 0 -2 0 -1 1 -2 0 -2 0 -1 0 -2 0 -1 0 -2 0 -2 -1 -1 0 -2 0 -1 -1 -2 0 -2 -1 -1 -1 -2 0 -1 -1 -2 -1 -1 -1 -1 -1 -2 -1 -1 -1 2 -2 1 1 1 1 2 1 1 0 1 1 2 1 1 1 2 0 1 1 1 0 2 1 1 0 2 0 1 0 2 1 1 0 2 0 1 0 2 0 1 -1 2 0 1 0 2 0 1 -1 2 0 1 -1 1 -1 2 0 1 -1 1 -1 2 -1 1 -1 0 0zm0 0l0 0 0 0 0 0zm0 0l2 2 0 0 0 0 0 0 0 0 0 0 0 0 0 0 0 0 0 0 0 0 0 0 0 0 0 0 0 0 0 0 0 0 0 0 0 0 0 0 0 0 0 0 0 0 0 0 0 0 0 0 0 0 0 0 0 0 0 0 0 0 0 0 0 0 0 0 -2 -2 0 0 0 0 0 0 0 0 0 0 0 0 0 0 0 0 0 0 0 0 0 0 0 0 0 0 0 0 0 0 0 0 0 0 0 0 0 0 0 0 0 0 0 0 0 0 0 0 0 0 0 0 0 0 0 0 0 0 0 0 0 0 0 0 0 0zm2 2l0 0 0 0 0 0zm1 0l-1 0 -2 -2 1 -1 2 0 0 3zm0 -3l1 2 -1 1 0 -3zm-16 -6l2 -2 0 0 0 0 1 0 0 0 1 0 0 1 1 0 0 0 1 0 0 0 0 1 1 0 0 0 1 0 0 1 1 0 0 0 1 0 0 1 1 0 0 0 1 0 0 1 1 0 0 0 1 1 0 0 0 0 1 1 0 0 1 1 0 0 0 0 -2 2 0 0 -1 0 0 -1 0 0 -1 0 0 -1 0 0 -1 0 0 0 0 -1 -1 0 0 0 -1 0 0 -1 -1 0 0 0 0 0 -1 -1 0 0 -1 0 0 0 -1 0 0 -1 -1 0 0 0 -1 0 0 -1 -1 0 0 0 -1 0 0 0 -1 -1 0 0zm0 0l0 0 0 0 0 0zm-2 -4l3 0 0 0 0 0 0 0 0 0 0 1 0 0 0 0 0 0 0 0 0 0 0 0 0 0 0 0 0 0 0 0 0 0 0 0 0 0 0 0 0 0 0 0 0 0 0 0 1 0 0 0 0 0 0 0 0 0 0 0 0 0 0 0 0 1 0 0 -2 2 0 0 0 0 0 0 0 0 0 0 0 0 0 0 -1 0 0 0 0 -1 0 0 0 0 0 0 0 0 0 0 0 0 0 0 -1 -1 0 0 0 0 0 0 0 0 0 0 0 0 0 -1 0 0 0 0 0 0 0 0 0 0 0 -1 0 0 0 0zm3 -4l0 4 -3 0 0 -4 0 -1 3 1zm-3 0l0 0 0 -1 0 1zm1 -2l3 2 0 0 0 0 0 0 0 0 0 0 0 0 -1 0 0 1 0 0 0 0 0 0 0 0 0 0 0 0 0 0 0 0 0 0 0 0 0 0 0 0 0 0 0 0 0 0 0 0 0 0 0 0 0 0 0 0 0 0 0 0 0 0 0 0 0 0 -3 -2 0 0 0 0 0 0 0 0 0 0 0 0 0 0 1 0 0 0 0 0 0 0 0 0 0 0 0 0 0 0 0 0 0 0 0 0 0 0 0 0 0 0 0 0 0 0 0 0 0 0 0 0 0 0 0 0 0 0 0 0 0 -1 0 0 0 0zm0 0l0 0 0 0 0 0zm4 -7l1 3 1 -1 0 0 0 1 0 0 0 0 0 0 0 1 0 0 0 0 -1 0 0 0 0 1 0 0 0 0 0 0 0 1 0 0 0 0 -1 0 0 1 0 0 0 0 0 0 0 0 0 1 0 0 -1 0 0 0 0 0 0 1 0 0 0 0 0 0 -3 -2 0 0 0 0 0 0 1 0 0 0 0 -1 0 0 0 0 0 0 0 0 0 -1 0 0 1 0 0 0 0 0 0 -1 0 0 0 0 0 0 0 0 0 -1 0 0 1 0 0 0 0 0 0 -1 0 0 0 0 0 0 0 0 0 -1 0 0 1 -1zm-1 1l1 -1 0 0 -1 1zm3 -4l3 0 0 0 0 1 0 0 0 0 0 0 0 0 0 1 0 0 0 0 0 0 0 1 0 0 0 0 -1 0 0 0 0 1 0 0 0 0 0 0 0 0 0 0 -1 1 0 0 0 0 0 0 0 0 0 0 -1 0 0 1 0 0 0 0 0 0 -1 0 -1 -3 0 0 0 0 0 0 1 0 0 0 0 0 0 0 0 0 0 0 0 0 0 -1 0 0 0 0 0 0 0 0 0 0 1 0 0 0 0 0 0 0 0 0 0 -1 0 0 0 0 0 0 0 0 0 0 0 0 0 0 0 0 0 -1 0 0 0 0zm3 -4l0 4 -3 0 0 -4 0 0 3 0zm-4 -3l3 0 0 -1 0 0 0 0 0 0 0 0 0 0 0 0 0 0 0 0 0 1 0 0 0 0 0 0 1 0 0 0 0 0 0 0 0 1 0 0 0 0 0 0 0 0 0 0 0 0 0 1 0 0 0 0 0 0 0 0 0 0 0 0 0 0 0 1 -3 0 0 0 0 -1 0 0 0 0 0 0 0 0 0 0 0 0 0 0 0 0 0 0 0 0 0 0 0 0 0 0 0 0 0 -1 0 0 0 0 0 0 0 0 0 0 0 0 0 0 -1 0 0 0 0 0 0 0 0 0 0 0 0 0 0 0 0 -1zm0 1l0 -1 0 0 0 1zm3 -8l0 7 -3 0 0 -7 0 0 3 0zm-3 0l0 0 0 0 0 0zm-2 -6l2 -2 0 0 0 0 1 0 0 1 0 0 0 0 1 1 0 0 0 0 0 1 0 0 0 1 0 0 1 0 0 1 0 0 0 0 0 0 0 1 0 0 0 0 0 1 0 0 0 0 0 0 0 1 0 0 0 0 0 0 0 0 0 0 0 0 0 1 -3 -1 0 0 0 0 0 0 0 0 0 0 0 0 0 0 0 -1 0 0 0 0 0 0 0 0 0 -1 0 0 0 0 0 0 0 0 0 -1 -1 0 0 0 0 0 0 -1 0 0 0 0 0 0 0 -1 0 0 -1 0 0 -1 0 0 0 0 0 0 0 0zm-11 -4l0 -3 0 0 1 0 0 0 1 0 0 0 1 0 0 0 1 0 0 0 1 0 0 0 1 0 0 1 0 0 1 0 0 0 1 0 0 0 0 0 1 1 0 0 1 0 0 0 0 0 1 1 0 0 0 0 1 0 0 1 0 0 1 0 0 0 0 1 -2 2 0 0 -1 -1 0 0 0 0 0 0 -1 0 0 -1 0 0 0 0 -1 0 0 0 0 0 0 -1 -1 0 0 0 0 0 -1 0 0 0 0 0 -1 0 0 0 0 -1 -1 0 0 0 -1 0 0 0 -1 0 0 0 0 0 -1 0 0 0 -1 0 0 0zm-6 3l-2 -3 0 0 1 0 0 0 0 0 0 0 0 0 0 0 0 0 0 0 0 -1 0 0 0 0 1 0 0 0 0 0 0 0 0 -1 0 0 1 0 0 0 0 0 0 0 1 0 0 -1 0 0 1 0 0 0 1 0 0 0 1 0 0 0 1 0 0 0 0 3 0 0 -1 0 0 0 -1 0 0 0 0 0 0 0 -1 0 0 0 0 0 0 1 0 0 -1 0 0 0 0 0 0 0 0 0 0 0 0 0 0 0 0 0 0 0 0 1 -1 0 0 0 0 0 0 0 0 0 -1 1 0 0 0 0 0 0 0 0zm-5 1l-2 -2 0 0 0 0 0 -1 1 0 0 0 0 0 0 0 1 0 0 -1 0 0 0 0 1 0 0 0 0 0 0 0 1 0 0 0 0 0 0 0 0 0 0 0 1 0 0 0 0 0 0 0 0 0 0 0 0 0 0 0 0 0 0 0 0 0 0 0 2 3 -1 0 0 0 0 0 0 0 -1 0 0 0 0 0 0 0 0 0 -1 0 0 0 0 0 0 0 0 0 0 0 0 0 0 0 -1 0 0 0 0 0 0 0 0 0 0 0 0 0 0 0 0 0 0 0 0 1 0 0 0 0 -1 0 0 0 0 0zm-2 -2l0 0 0 0 0 0zm1 8l-3 0 0 1 0 0 0 -1 0 0 0 0 -1 0 0 0 0 0 0 0 0 -1 0 0 0 0 0 0 0 -1 0 0 0 0 0 -1 0 0 1 0 0 -1 0 0 0 0 0 -1 0 0 0 0 0 -1 0 0 1 0 0 -1 0 0 0 0 1 -1 0 0 2 2 0 0 0 0 0 1 0 0 -1 0 0 0 0 1 0 0 0 0 0 0 0 1 0 0 0 0 0 0 0 1 0 0 0 0 0 0 0 0 0 1 0 0 0 0 0 0 0 0 0 0 0 1 0 0 0 0 0 0 0 0 0 0 0 0 0 0zm0 0l0 0 0 0 0 0zm-3 7l0 -7 3 0 0 7 -1 1 -2 -1zm3 0l0 0 -1 1 1 -1zm-1 3l-4 0 0 0 0 -1 0 0 0 0 0 0 0 0 0 0 0 0 0 0 1 -1 0 0 0 0 0 0 0 0 0 0 0 0 0 -1 0 0 0 0 0 0 0 0 0 0 0 0 0 0 0 -1 0 0 0 0 0 0 1 0 0 0 0 0 0 0 0 0 2 2 0 0 0 0 0 0 0 0 0 0 0 0 0 0 0 0 0 0 0 0 0 0 0 0 0 0 0 0 0 0 0 1 0 0 0 0 0 0 0 0 0 0 0 0 0 0 0 0 0 0 0 0 0 0 0 0 0 0 0 0 0 1 0 0 0 0zm-4 4l0 -4 4 0 0 4 0 0 -4 0zm5 4l-3 0 1 1 0 0 -1 0 0 0 0 0 0 0 0 -1 0 0 0 0 0 0 0 0 -1 0 0 0 0 -1 0 0 0 0 0 0 0 0 0 0 0 0 0 -1 0 0 0 0 0 0 0 0 -1 0 0 -1 0 0 0 0 0 0 0 0 0 -1 0 0 4 0 0 0 0 0 0 1 0 0 0 0 0 0 0 0 0 0 0 0 0 0 0 0 0 0 0 0 0 1 0 0 0 0 0 0 0 0 0 0 0 0 0 0 0 0 0 0 0 0 0 0 0 0 0 0 0 1 1 0 0 0 0 0 0 0 0 1zm0 -1l0 0 0 1 0 -1zm4 9l-3 0 1 1 -1 0 0 0 0 0 0 0 0 0 0 -1 0 0 0 0 -1 0 0 0 0 -1 0 0 0 0 0 0 0 -1 -1 0 0 0 0 0 0 -1 0 0 0 0 0 -1 -1 0 0 0 0 -1 0 0 0 -1 0 0 0 0 -1 -1 0 0 0 -1 3 0 0 0 0 0 1 1 0 0 0 0 0 1 0 0 0 0 0 1 0 0 1 0 0 1 0 0 0 0 0 0 0 1 0 0 0 0 1 0 0 1 0 0 0 0 0 0 0 0 0 1 0 0 1 0 0 0 0 0 0 0 0 0 0 0 0 1zm0 -1l0 1 0 0 0 -1zm-3 5l0 -4 3 0 0 4 0 0 -3 0zm1 4l-2 -3 0 0 1 0 0 0 0 0 0 0 0 0 0 0 0 0 0 0 0 0 0 0 0 0 0 0 0 0 0 0 0 0 0 0 0 0 0 0 0 0 0 0 0 0 0 0 0 0 0 0 0 0 0 -1 0 0 0 0 0 0 0 0 0 0 0 0 3 0 0 0 0 1 0 0 0 0 0 0 0 0 0 0 0 0 0 1 0 0 0 0 0 0 0 0 0 0 0 0 0 1 0 0 0 0 -1 0 0 0 0 0 0 0 0 0 0 0 0 1 0 0 0 0 0 0 -1 0 0 0 0 0 0 0 0 0zm0 0l0 0 0 0 0 0zm-12 3l10 -6 2 3 -10 6 -2 -3 0 0zm0 0l0 0 0 0 0 0zm-1 3l-2 2 0 -2 0 0 0 0 0 0 0 0 0 -1 0 0 0 0 1 0 0 0 0 0 0 0 0 0 0 0 0 0 0 0 0 -1 0 0 0 0 1 0 0 0 0 0 0 0 0 0 0 0 0 0 0 0 0 -1 1 0 0 0 0 0 0 0 0 0 2 3 0 0 -1 0 0 0 0 0 0 0 0 0 0 0 0 0 0 0 0 0 0 0 0 0 0 1 0 0 -1 0 0 0 0 0 0 0 0 0 0 0 0 0 0 0 0 0 0 0 0 0 0 1 0 0 -1 0 0 0 0 0 0 0 0 0 0 -2zm-2 2l-1 -1 1 -1 0 2z"/>
    </g>
   </g>
  </g>
 </g>
</svg>
