<?xml version="1.0" encoding="UTF-8"?>
<!DOCTYPE svg PUBLIC "-//W3C//DTD SVG 1.1//EN" "http://www.w3.org/Graphics/SVG/1.1/DTD/svg11.dtd">
<!-- Creator: CorelDRAW X7 -->
<svg xmlns="http://www.w3.org/2000/svg" xml:space="preserve" width="120px" height="120px" version="1.1" style="shape-rendering:geometricPrecision; text-rendering:geometricPrecision; image-rendering:optimizeQuality; fill-rule:evenodd; clip-rule:evenodd"
viewBox="0 0 120 120"
 xmlns:xlink="http://www.w3.org/1999/xlink">
 <defs>
  <style type="text/css">
   <![CDATA[
    .fil0 {fill:none}
    .fil2 {fill:black}
    .fil1 {fill:#E32210}
    .fil3 {fill:#FFF212;fill-rule:nonzero}
   ]]>
  </style>
 </defs>
 <g id="Layer_x0020_1">
  <metadata id="CorelCorpID_0Corel-Layer"/>
  <rect class="fil0" width="120" height="120"/>
  <g id="_803013968">
   <path class="fil1" d="M20 47c0,0 15,-31 17,-34 1,-3 3,-3 7,-2 4,1 32,9 34,11 3,3 6,12 6,12l11 27 11 26c0,0 1,3 1,5 0,1 0,4 -3,5 -3,1 -43,18 -43,18 0,0 -6,3 -9,3 -3,0 -4,-1 -6,-4 -1,-4 -26,-62 -26,-62 0,0 -1,-3 0,-5zm28 -28c5,0 8,4 8,8 0,5 -3,8 -8,8 -4,0 -8,-3 -8,-8 0,-4 4,-8 8,-8z"/>
   <path class="fil2" d="M30 26c0,0 -14,-8 -16,-13 -3,-5 -1,-10 3,-11 4,-1 10,1 14,5 4,3 11,10 13,13 2,3 4,5 5,6 0,1 -1,3 -2,3 -2,0 -3,-3 -4,-4 0,-1 -8,-9 -12,-13 -4,-3 -8,-5 -10,-6 -1,0 -3,0 -4,1 -1,1 0,3 1,5 1,1 5,5 7,6 2,1 7,4 7,4l-2 4z"/>
   <path class="fil3" d="M42 54c0,-3 1,-6 3,-8 3,-2 5,-3 9,-3 4,0 6,1 9,3 2,2 3,5 3,8l0 3c0,3 -1,6 -3,8 -3,2 -5,3 -9,3 -3,0 -6,-1 -9,-3 -2,-2 -3,-5 -3,-8l0 -3zm7 3c0,2 1,3 2,4 1,1 2,1 3,1 1,0 3,0 3,-1 1,-1 2,-2 2,-4l0 -3c0,-1 -1,-3 -2,-4 0,-1 -2,-1 -3,-1 -1,0 -2,0 -3,1 -1,1 -2,3 -2,4l0 3zm19 28c0,-4 1,-6 4,-8 2,-2 5,-3 8,-3 4,0 6,1 9,3 2,2 3,4 3,8l0 3c0,3 -1,6 -3,8 -2,2 -5,3 -9,3 -3,0 -6,-1 -9,-3 -2,-2 -3,-5 -3,-8l0 -3zm7 3c0,1 1,2 2,3 1,1 2,2 3,2 3,0 5,-2 5,-5l0 -3c0,-2 -1,-3 -2,-4 0,-1 -2,-1 -3,-1 -1,0 -2,0 -3,1 -1,1 -2,2 -2,4l0 3zm-19 6l-5 -3 27 -42 5 2 -27 43z"/>
  </g>
 </g>
</svg>
