<?xml version="1.0" encoding="UTF-8"?>
<!DOCTYPE svg PUBLIC "-//W3C//DTD SVG 1.1//EN" "http://www.w3.org/Graphics/SVG/1.1/DTD/svg11.dtd">
<!-- Creator: CorelDRAW X7 -->
<svg xmlns="http://www.w3.org/2000/svg" xml:space="preserve" width="120px" height="120px" version="1.1" style="shape-rendering:geometricPrecision; text-rendering:geometricPrecision; image-rendering:optimizeQuality; fill-rule:evenodd; clip-rule:evenodd"
viewBox="0 0 120 120"
 xmlns:xlink="http://www.w3.org/1999/xlink">
 <defs>
  <style type="text/css">
   <![CDATA[
    .fil0 {fill:none}
    .fil2 {fill:#FC4D44}
    .fil1 {fill:#2887D2;fill-rule:nonzero}
   ]]>
  </style>
 </defs>
 <g id="Layer_x0020_1">
  <metadata id="CorelCorpID_0Corel-Layer"/>
  <rect class="fil0" width="120" height="120"/>
  <g id="_632206704">
   <path class="fil1" d="M30 68c17,14 41,16 59,2 0,-1 0,-1 0,-1l1 -1c-4,-5 -11,-7 -17,-10 -1,-1 -2,-2 -2,-3l0 -5c0,-1 0,-1 1,-2 2,-2 3,-5 4,-8 2,-1 4,-3 4,-6l0 -5c0,-2 -1,-3 -2,-4l0 -8c0,-1 0,-6 -3,-10 -3,-3 -8,-5 -15,-5 -7,0 -6,3 -9,4 -2,1 -3,-1 -6,2 -4,4 -3,8 -3,9l0 8c0,1 -1,2 -1,4l0 5c0,2 1,4 2,5 2,5 4,9 5,11l0 4c0,2 0,3 -2,4l-13 7c-1,1 -2,2 -3,3z"/>
   <g>
    <polygon class="fil2" points="50,87 50,118 29,103 "/>
    <polygon class="fil2" points="70,87 70,118 91,103 "/>
   </g>
  </g>
 </g>
</svg>
