<?xml version="1.0" encoding="UTF-8"?>
<!DOCTYPE svg PUBLIC "-//W3C//DTD SVG 1.1//EN" "http://www.w3.org/Graphics/SVG/1.1/DTD/svg11.dtd">
<!-- Creator: CorelDRAW X7 -->
<svg xmlns="http://www.w3.org/2000/svg" xml:space="preserve" width="120px" height="120px" version="1.1" style="shape-rendering:geometricPrecision; text-rendering:geometricPrecision; image-rendering:optimizeQuality; fill-rule:evenodd; clip-rule:evenodd"
viewBox="0 0 120 120"
 xmlns:xlink="http://www.w3.org/1999/xlink">
 <defs>
  <style type="text/css">
   <![CDATA[
    .fil0 {fill:none}
    .fil2 {fill:#FEFEFE}
    .fil12 {fill:#FEFEFE}
    .fil6 {fill:#FEFEFE}
    .fil15 {fill:#FEFEFE;fill-rule:nonzero}
    .fil9 {fill:#BDBFC1;fill-rule:nonzero}
    .fil14 {fill:#00A859;fill-rule:nonzero}
    .fil3 {fill:#14AAE4;fill-rule:nonzero}
    .fil13 {fill:#2887D2;fill-rule:nonzero}
    .fil8 {fill:#C67030;fill-rule:nonzero}
    .fil11 {fill:#D38231;fill-rule:nonzero}
    .fil7 {fill:#D87E35;fill-rule:nonzero}
    .fil10 {fill:#E88C38;fill-rule:nonzero}
    .fil4 {fill:url(#id0)}
    .fil5 {fill:url(#id1)}
    .fil1 {fill:url(#id2)}
   ]]>
  </style>
  <linearGradient id="id0" gradientUnits="userSpaceOnUse" x1="51.1026" y1="57.0342" x2="67.0856" y2="69.0994">
   <stop offset="0" style="stop-opacity:1; stop-color:#1CC8EB"/>
   <stop offset="0.631373" style="stop-opacity:1; stop-color:#0E96E0"/>
   <stop offset="1" style="stop-opacity:1; stop-color:#0063D4"/>
  </linearGradient>
  <linearGradient id="id1" gradientUnits="userSpaceOnUse" xlink:href="#id0" x1="51.1026" y1="68.9813" x2="67.0856" y2="81.0465">
  </linearGradient>
  <linearGradient id="id2" gradientUnits="userSpaceOnUse" x1="35.4598" y1="46.6285" x2="82.7296" y2="116.907">
   <stop offset="0" style="stop-opacity:1; stop-color:#1CC8EB"/>
   <stop offset="0.321569" style="stop-opacity:1; stop-color:#0E96E0"/>
   <stop offset="1" style="stop-opacity:1; stop-color:#0063D4"/>
  </linearGradient>
 </defs>
 <g id="Layer_x0020_1">
  <metadata id="CorelCorpID_0Corel-Layer"/>
  <rect class="fil0" width="120" height="120"/>
  <g id="_497005440">
   <g>
    <g>
     <g>
      <rect class="fil1" x="2" y="53" width="114.19" height="57.7441" rx="14" ry="15"/>
      <g>
       <g>
        <polygon class="fil2" points="27,84 91,84 91,9 27,9 "/>
        <path id="1" class="fil3" d="M91 83l1 1 -1 1 -64 0 0 -2 64 0zm1 1l0 1 -1 0 1 -1zm-2 -75l1 -1 1 1 0 75 -2 0 0 -75zm1 -1l1 0 0 1 -1 -1zm-64 3l-1 -2 1 -1 64 0 0 3 -64 0zm-1 -2l0 -1 1 0 -1 1zm2 75l-1 1 -1 -1 0 -75 2 0 0 75zm-1 1l-1 0 0 -1 1 1z"/>
       </g>
       <rect class="fil4" x="35" y="60" width="48.0264" height="5.98815"/>
       <rect class="fil5" x="35" y="72" width="48.0264" height="5.98815"/>
      </g>
      <circle class="fil2" cx="17" cy="74" r="6"/>
     </g>
     <rect class="fil6" x="26" y="97" width="65.8854" height="7.72491"/>
    </g>
    <g>
     <path class="fil7" d="M72 31c1,4 7,3 7,6 0,4 -10,6 -13,6l-14 0c-9,0 -16,-2 -16,-10 0,-7 7,-15 16,-15 9,0 18,6 20,13z"/>
     <path class="fil8" d="M76 34c-1,0 -2,0 -2,0 -2,3 -10,4 -13,4l-14 1c-4,0 -8,-1 -10,-2 2,4 7,6 15,6l14 0c3,0 13,-2 13,-6 0,-2 -2,-2 -3,-3z"/>
     <path class="fil9" d="M76 18c0,1 0,2 0,2 0,1 0,1 0,2l-6 4c-1,1 -1,2 -1,2 1,1 2,1 3,1l6 -5c0,0 1,0 1,0 0,1 1,1 2,1 1,-1 1,-2 1,-3 0,-1 -1,-1 -2,-1 0,0 0,0 0,0 0,0 0,-1 0,-1 0,0 0,-1 -1,-2 -1,-1 -2,0 -3,0z"/>
     <path class="fil10" d="M54 40c2,3 7,4 11,1 2,-1 3,-3 3,-5 1,-3 3,-5 5,-7 0,0 0,-1 0,-2l-2 -2c0,0 -1,-1 -2,0 -2,1 -5,2 -7,2 -3,0 -5,0 -6,2 -4,2 -5,7 -2,11z"/>
     <path class="fil11" d="M73 27l-2 -2c0,0 0,0 0,0 -1,0 -2,0 -2,1 -2,2 -4,4 -4,6 -1,2 -2,4 -4,5 -2,2 -6,3 -8,2 0,0 0,0 1,1 2,3 7,4 11,1 2,-1 3,-3 3,-5 1,-3 3,-5 5,-7 0,0 0,-1 0,-2z"/>
    </g>
   </g>
   <g id="_497005704">
    <g>
     <path class="fil12" d="M92 40c12,0 21,9 21,21 0,12 -9,21 -21,21 -11,0 -21,-9 -21,-21 0,-12 10,-21 21,-21z"/>
     <path id="1" class="fil13" d="M114 61l-2 0 0 0 0 -1 0 -1 0 -1 0 -1 0 -1 -1 -1 0 -1 0 -1 -1 -1 0 -1 -1 0 0 -1 -1 -1 0 -1 -1 -1 -1 0 0 -1 -1 0 -1 -1 -1 -1 0 0 -1 -1 -1 0 -1 0 -1 -1 -1 0 -1 0 -1 -1 -1 0 -1 0 -1 0 -1 0 0 -2 1 0 1 0 2 0 1 0 1 0 1 1 1 0 1 0 1 1 1 0 1 1 1 1 0 0 1 1 1 1 1 0 1 1 0 1 1 1 1 1 0 0 1 1 0 1 1 1 0 1 0 1 1 1 0 1 0 2 0 1 0 1 0 1 0 0zm-22 22l0 -2 0 0 1 0 1 0 1 0 1 0 1 -1 1 0 1 0 1 -1 1 0 1 0 1 -1 0 0 1 -1 1 -1 1 0 0 -1 1 -1 1 0 0 -1 1 -1 0 -1 1 -1 0 0 1 -1 0 -1 0 -1 1 -1 0 -1 0 -1 0 -1 0 -1 0 -1 2 0 0 1 0 1 0 1 0 1 0 1 -1 2 0 1 0 1 -1 1 0 1 -1 0 0 1 -1 1 -1 1 0 1 -1 1 -1 0 -1 1 -1 1 0 0 -1 1 -1 0 -1 1 -1 0 -1 1 -1 0 -1 0 -1 1 -1 0 -2 0 -1 0 -1 0 0 0zm-22 -22l2 0 0 0 0 1 0 1 0 1 1 1 0 1 0 1 0 1 1 1 0 1 1 0 0 1 1 1 0 1 1 1 0 0 1 1 1 1 0 0 1 1 1 1 1 0 1 1 1 0 0 0 1 1 1 0 1 0 1 1 1 0 1 0 1 0 1 0 0 2 -1 0 -1 0 -1 0 -1 0 -1 -1 -1 0 -1 0 -1 -1 -1 0 -1 -1 -1 0 -1 -1 -1 0 -1 -1 -1 -1 0 0 -1 -1 -1 -1 -1 -1 0 -1 -1 -1 0 0 -1 -1 0 -1 -1 -1 0 -1 0 -2 -1 -1 0 -1 0 -1 0 -1 0 -1 0 0zm22 -22l0 2 0 0 -1 0 -1 0 -1 0 -1 0 -1 1 -1 0 -1 0 -1 1 0 0 -1 0 -1 1 -1 0 -1 1 -1 1 0 0 -1 1 -1 0 0 1 -1 1 0 1 -1 1 0 0 -1 1 0 1 -1 1 0 1 0 1 0 1 -1 1 0 1 0 1 0 1 -2 0 0 -1 0 -1 0 -1 0 -2 1 -1 0 -1 0 -1 1 -1 0 -1 1 -1 0 -1 1 0 0 -1 1 -1 1 -1 1 -1 0 0 1 -1 1 -1 1 0 1 -1 1 -1 1 0 1 -1 1 0 1 0 1 -1 1 0 1 0 1 0 1 0 1 0 0 0z"/>
    </g>
    <g>
     <path class="fil14" d="M117 38c0,-1 -2,-1 -2,-1l-22 26 -13 -10c-1,0 -2,0 -3,1 -1,0 -1,1 0,2l13 19c1,0 1,1 2,1l0 0c0,0 1,-1 1,-1l25 -35c0,-1 0,-2 -1,-2z"/>
     <path id="1" class="fil15" d="M115 38l-1 -1 0 0 0 0 0 0 0 -1 1 0 0 0 0 0 0 0 0 0 0 0 0 0 0 0 1 0 0 0 0 0 0 0 0 0 0 0 0 0 0 0 1 0 0 0 0 0 0 0 0 0 0 0 0 0 0 0 1 1 0 0 0 0 0 0 0 0 -1 1 0 0 0 0 0 0 0 0 0 0 0 0 -1 0 0 0 0 0 0 0 0 0 0 0 0 0 0 0 0 0 0 0 0 0 0 0 0 0 0 0 0 0 0 0 0 0 0 0 0 0 0 0 0 0 -1 0 0 0 0 0 0 0 0 0 0 0zm-1 -1l0 0 0 0 0 0zm-22 25l22 -25 1 1 -22 25 -1 0 0 -1zm1 1l0 1 -1 -1 1 0zm-13 -11l13 10 -1 1 -13 -9 1 -2 0 0zm0 0l0 0 0 0 0 0zm-2 2l-2 -1 0 0 0 0 1 0 0 0 0 0 0 0 0 -1 0 0 0 0 0 0 0 0 1 0 0 0 0 0 0 0 0 0 0 0 0 0 0 0 0 0 1 0 0 0 0 0 0 0 0 0 0 0 0 0 0 0 1 0 0 0 0 0 0 0 0 0 -1 2 0 0 0 0 0 0 0 0 0 0 0 0 0 0 0 0 0 0 0 0 0 0 0 0 0 0 -1 0 0 0 0 0 0 0 0 0 0 0 0 0 0 0 0 0 0 0 0 0 0 0 0 0 0 0 0 0 0 0 0 0 0 0 0 0 0 0zm0 2l-2 1 0 0 0 0 0 -1 0 0 0 0 0 0 0 0 0 0 0 0 0 0 0 -1 0 0 0 0 0 0 0 0 0 0 0 0 0 0 0 -1 0 0 0 0 0 0 0 0 0 0 0 0 0 0 0 0 0 -1 0 0 0 0 0 0 0 0 0 0 2 1 0 0 0 0 0 0 0 0 0 0 0 0 0 0 0 1 0 0 0 0 -1 0 0 0 0 0 0 0 0 0 0 0 0 0 0 0 0 0 0 0 0 0 0 0 0 0 0 0 1 0 0 0 0 0 0 0 0 0 0 0 0 1 0 0 0 0zm0 0l0 0 0 0 0 0zm11 19l-13 -18 2 -1 13 18 -2 1 0 0zm0 0l0 0 0 0 0 0zm3 0l0 2 0 0 0 0 0 0 0 0 -1 0 0 0 0 0 0 0 0 0 0 0 0 0 0 -1 0 0 0 0 0 0 0 0 -1 0 0 0 0 0 0 0 0 0 0 0 0 0 0 0 0 0 0 0 0 0 0 0 0 0 0 0 0 0 -1 -1 0 0 2 -1 0 0 0 0 0 0 0 0 0 0 0 0 0 1 0 0 0 0 0 0 0 0 0 0 0 0 0 0 0 0 0 0 0 0 0 0 0 0 0 0 0 0 1 0 0 0 0 0 0 0 0 0 0 0 0 0 0 0 0 0 0 0 0 0 0 0zm0 2l0 0 0 0 0 0zm0 0l0 0 0 -2 0 0 0 0 0 2zm1 -3l1 1 0 0 0 1 0 0 0 0 0 0 0 0 0 0 0 0 0 0 0 0 0 0 0 0 -1 0 0 0 0 0 0 0 0 0 0 0 0 0 0 0 0 0 0 0 0 1 0 0 0 0 -1 0 0 0 0 0 0 0 0 0 0 0 0 0 0 0 0 -2 0 0 0 0 0 0 0 0 0 0 0 0 0 0 0 0 0 0 0 0 0 0 0 0 0 0 0 0 0 0 0 0 0 0 0 0 0 0 0 0 0 0 0 0 1 0 0 0 0 0 0 0 0 -1 0 0 0 0 0 0 0 0 0 0 0 0zm1 1l0 0 0 0 0 0zm24 -34l-24 34 -1 -1 24 -34 0 0 1 1zm-1 -1l0 0 0 0 0 0zm0 -2l1 -1 0 0 0 0 0 0 0 0 0 0 0 0 1 0 0 1 0 0 0 0 0 0 0 0 0 0 0 0 0 0 0 1 0 0 0 0 0 0 0 0 0 0 0 0 0 0 0 1 0 0 0 0 0 0 0 0 0 0 0 0 0 0 -1 1 0 0 -1 -1 0 0 0 0 0 -1 0 0 0 0 0 0 0 0 0 0 0 0 0 0 0 0 0 0 0 0 0 0 0 0 0 0 0 0 0 0 0 0 0 0 0 0 0 0 0 0 0 -1 0 0 0 0 0 0 0 0 0 0 0 0 0 0 0 0 0 0zm1 -1l0 0 0 0 0 0z"/>
    </g>
   </g>
  </g>
 </g>
</svg>
