<?xml version="1.0" encoding="UTF-8"?>
<!DOCTYPE svg PUBLIC "-//W3C//DTD SVG 1.1//EN" "http://www.w3.org/Graphics/SVG/1.1/DTD/svg11.dtd">
<!-- Creator: CorelDRAW X7 -->
<svg xmlns="http://www.w3.org/2000/svg" xml:space="preserve" width="120px" height="120px" version="1.1" style="shape-rendering:geometricPrecision; text-rendering:geometricPrecision; image-rendering:optimizeQuality; fill-rule:evenodd; clip-rule:evenodd"
viewBox="0 0 120 120"
 xmlns:xlink="http://www.w3.org/1999/xlink">
 <defs>
  <style type="text/css">
   <![CDATA[
    .fil0 {fill:none}
    .fil4 {fill:#FEFEFE}
    .fil2 {fill:#FEFEFE}
    .fil8 {fill:#FC4D44}
    .fil9 {fill:#FDFDFD}
    .fil5 {fill:#00A859;fill-rule:nonzero}
    .fil3 {fill:#2887D2;fill-rule:nonzero}
    .fil6 {fill:url(#id0)}
    .fil7 {fill:url(#id1)}
    .fil1 {fill:url(#id2)}
   ]]>
  </style>
  <linearGradient id="id0" gradientUnits="userSpaceOnUse" x1="50.3278" y1="85.3127" x2="65.0718" y2="94.5845">
   <stop offset="0" style="stop-opacity:1; stop-color:#1CC8EB"/>
   <stop offset="0.631373" style="stop-opacity:1; stop-color:#0E96E0"/>
   <stop offset="1" style="stop-opacity:1; stop-color:#0063D4"/>
  </linearGradient>
  <linearGradient id="id1" gradientUnits="userSpaceOnUse" xlink:href="#id0" x1="50.3278" y1="94.4948" x2="65.0718" y2="103.767">
  </linearGradient>
  <linearGradient id="id2" gradientUnits="userSpaceOnUse" x1="32.8648" y1="10.1459" x2="76.4684" y2="74.9743">
   <stop offset="0" style="stop-opacity:1; stop-color:#1CC8EB"/>
   <stop offset="0.321569" style="stop-opacity:1; stop-color:#0E96E0"/>
   <stop offset="1" style="stop-opacity:1; stop-color:#0063D4"/>
  </linearGradient>
 </defs>
 <g id="Layer_x0020_1">
  <metadata id="CorelCorpID_0Corel-Layer"/>
  <rect class="fil0" width="120" height="120"/>
  <g id="_349537080">
   <g>
    <rect class="fil1" x="2" y="16" width="105.338" height="53.2671" rx="12" ry="14"/>
    <g>
     <path class="fil2" d="M86 21l0 6 -1 15c0,3 1,3 -1,3 -3,0 -50,0 -52,0 -2,0 -2,-4 -2,-6 -1,-4 0,-17 0,-18l0 0c18,0 37,0 55,0 1,0 1,0 1,0z"/>
     <path id="1" class="fil3" d="M84 27l1 -6 2 0 0 6 -3 0 0 0zm0 0l0 0 0 0 0 0zm0 15l0 -15 3 0 -1 15 -2 0zm0 4l0 -1 0 0 0 0 0 0 0 0 0 0 0 0 0 0 0 0 0 0 0 0 0 0 0 0 0 0 0 0 0 0 0 0 0 0 0 0 0 -1 0 0 0 0 0 0 0 0 0 0 0 0 0 -1 0 0 0 0 0 0 0 -1 0 0 0 0 0 0 2 0 0 0 0 0 0 0 0 1 0 0 0 0 0 0 0 1 0 0 0 0 0 0 0 0 0 0 0 1 0 0 0 0 0 0 0 0 0 0 0 0 0 0 0 1 0 0 0 0 -1 0 0 0 0 0 0 0 0 0 0 0 -1 0 0 0 0 0zm-52 0l0 -1 0 0 1 0 0 0 1 0 1 0 1 0 1 0 2 0 2 0 1 0 2 0 2 0 3 0 2 0 2 0 2 0 3 0 2 0 2 0 3 0 2 0 2 0 2 0 2 0 2 0 2 0 1 0 2 0 1 0 1 0 1 0 1 0 0 0 0 1 0 0 -1 0 -1 0 -1 0 -1 0 -2 0 -1 0 -2 0 -2 0 -2 0 -2 0 -2 0 -2 0 -3 0 -2 0 -2 0 -3 0 -2 0 -2 0 -2 0 -3 0 -2 0 -2 0 -1 0 -2 0 -2 0 -1 0 -1 0 -1 0 -1 0 0 0 -1 0 0 0zm-3 -7l2 0 0 0 0 0 0 0 0 1 0 0 0 0 0 0 0 1 0 0 0 0 0 0 0 1 0 0 0 0 0 0 0 1 0 0 0 0 0 0 0 0 0 1 0 0 1 0 0 0 0 0 0 0 0 1 0 0 0 0 0 0 0 0 0 0 0 0 0 1 0 0 -1 0 0 0 0 0 -1 -1 0 0 0 0 0 0 0 0 0 -1 -1 0 0 0 0 0 0 -1 0 0 0 0 0 0 0 -1 0 0 0 0 0 0 0 -1 0 0 0 0 0 0 0 -1 0 0 0 0 0 0 0 -1 0 0 0 0 0 0zm0 -18l2 0 0 0 0 0 0 0 0 1 0 0 0 0 0 1 0 0 0 1 0 0 0 1 0 1 0 0 0 1 0 1 0 0 0 1 0 1 0 0 0 1 0 1 0 1 0 0 0 1 0 1 0 0 0 1 0 1 0 0 0 1 0 0 0 1 0 0 -2 0 0 0 0 -1 0 0 0 -1 0 0 0 -1 0 -1 0 0 0 -1 0 -1 0 0 0 -1 0 -1 0 -1 0 0 0 -1 0 -1 0 0 0 -1 0 -1 0 0 0 -1 0 -1 0 0 0 -1 0 0 0 -1 0 0 0 0 0 -1 0 0 0 0 0 0zm2 0l0 0 0 0 0 0zm0 0l0 0 -2 0 0 0 1 -1 1 1zm-2 0l0 -1 1 0 -1 1zm56 0l1 0 -1 1 -1 0 -2 0 -2 0 -1 0 -2 0 -2 0 -2 0 -1 0 -2 0 -2 0 -2 0 -1 0 -2 0 -2 0 -2 0 -1 0 -2 0 -2 0 -2 0 -1 0 -2 0 -2 0 -1 0 -2 0 -2 0 -2 0 -1 0 -2 0 -2 0 -2 0 -1 0 -2 0 0 -2 2 0 1 0 2 0 2 0 2 0 1 0 2 0 2 0 2 0 1 0 2 0 2 0 1 0 2 0 2 0 2 0 1 0 2 0 2 0 2 0 1 0 2 0 2 0 2 0 1 0 2 0 2 0 2 0 1 0 2 0 2 0 1 0 0 1zm1 0l0 1 -1 0 1 -1zm1 0l-2 0 2 0 0 0 0 0 0 0 0 0 0 0 0 0 0 0 0 0 0 0 0 0 0 0 0 0 0 0 0 0 0 0 0 0 0 0 0 0 0 0 0 0 -1 0 1 0 -1 0 0 0 0 0 0 0 0 0 0 0 0 0 0 0 0 0 0 0 -1 0 0 0 0 0 0 -1 0 0 0 0 0 0 0 0 0 0 0 0 0 0 0 0 0 0 0 0 0 0 0 0 0 0 0 0 0 0 0 0 0 0 0 0 0 0 0 0 0 0 0 0 0 0 0 0 0 0 0 0 0 0 0 0 0 0 2 1zm-2 -1l2 -2 0 3 -2 -1z"/>
    </g>
    <circle class="fil4" cx="16" cy="35" r="6"/>
    <rect class="fil2" x="27" y="56" width="60.7778" height="7.12598"/>
    <g>
     <path class="fil2" d="M86 110l0 -7 -1 -37c0,-6 1,-6 -1,-6 -3,0 -52,0 -54,0 -2,0 0,43 0,50 0,0 2,-3 6,-3 3,0 5,3 5,3 0,0 2,-3 5,-3 4,0 6,3 6,3 0,0 3,-3 6,-3 4,0 5,3 5,3 0,0 2,-3 6,-3 3,0 6,3 6,3 0,0 2,-3 5,-3 4,0 6,3 6,3z"/>
     <path id="1" class="fil3" d="M84 103l0 0 3 0 0 7 -2 0 -1 -7zm0 0l0 0 0 0 0 0zm0 -37l2 0 0 0 1 37 -3 0 0 -37zm0 -7l0 0 0 0 1 0 0 0 0 0 0 0 0 0 0 0 1 0 0 0 0 0 0 1 0 0 0 0 0 0 0 0 0 1 0 0 0 0 0 0 0 0 0 1 0 0 0 0 0 1 0 0 0 0 0 1 0 0 0 0 0 1 0 0 0 1 -2 0 0 -1 0 0 0 -1 0 0 0 0 0 -1 0 0 0 0 0 -1 0 0 0 0 0 -1 0 0 0 0 0 0 0 0 0 0 0 0 0 0 0 0 0 0 0 0 0 0 0 0 0 0 0 0 0 0 0 0 0 0 0 0 0 0 0 0 0 0 0 -2zm-54 -1l0 0 0 0 1 0 1 0 1 1 1 0 2 0 1 0 2 0 2 0 2 0 2 0 2 0 3 0 2 0 2 0 3 0 2 0 2 0 3 0 2 0 2 0 3 0 2 0 2 0 1 0 2 0 2 0 1 0 1 0 1 0 1 0 0 0 0 2 0 0 -1 0 -1 0 -1 0 -1 0 -2 0 -2 0 -1 0 -2 0 -2 0 -3 0 -2 0 -2 0 -3 0 -2 0 -2 0 -3 0 -2 0 -3 0 -2 0 -2 0 -2 0 -2 0 -2 0 -2 0 -1 0 -2 0 -1 0 -1 0 -1 0 -1 0 0 0 0 0 0 -3zm1 52l-2 0 0 -1 0 -1 0 -1 0 -1 0 -2 0 -1 0 -2 -1 -2 0 -2 0 -2 0 -2 0 -2 0 -2 0 -3 0 -2 0 -2 0 -2 0 -2 0 -2 0 -2 0 -2 0 -2 0 -2 0 -2 0 -1 0 -1 0 -2 0 -1 1 -1 0 0 0 -1 1 -1 0 3 1 -1 0 0 0 1 0 1 -1 1 0 1 0 1 0 1 0 2 0 2 0 2 0 2 0 2 0 2 0 2 0 2 0 2 0 2 0 3 0 2 0 2 0 2 1 2 0 2 0 2 0 1 0 2 0 1 0 2 0 1 0 1 0 1 -2 -1 2 1zm5 -2l0 0 -1 0 0 0 0 0 0 0 -1 0 0 0 0 0 0 0 -1 0 0 0 0 0 0 0 0 1 -1 0 0 0 0 0 0 0 0 0 0 0 0 0 -1 1 0 0 0 0 0 0 0 0 0 0 0 0 0 0 0 0 0 0 0 0 0 0 -2 -1 0 0 0 0 0 0 0 0 0 0 0 0 0 0 1 -1 0 0 0 0 0 0 0 0 0 0 0 0 1 -1 0 0 0 0 0 0 1 0 0 0 0 -1 0 0 1 0 0 0 0 0 1 0 0 0 0 0 1 0 0 0 0 0 1 0 0 0 0 2zm6 3l-2 0 0 0 0 0 0 0 0 -1 0 0 0 0 0 0 0 0 0 0 0 0 0 0 0 0 -1 0 0 0 0 -1 0 0 0 0 0 0 0 0 -1 0 0 0 0 -1 0 0 0 0 -1 0 0 0 0 0 0 0 -1 0 0 0 0 0 0 0 0 -2 0 0 1 0 0 0 0 0 1 0 0 0 0 0 0 0 1 1 0 0 0 0 1 0 0 0 0 0 0 0 0 1 1 0 0 0 0 0 0 0 0 0 0 1 0 0 1 0 0 0 0 0 0 0 0 0 0 0 0 0 0 0 0 0 -2 0 2 2zm0 0l-1 1 -1 -1 2 0zm5 -3l0 0 -1 0 0 0 0 0 0 0 -1 0 0 0 0 0 0 0 -1 0 0 0 0 1 0 0 0 0 -1 0 0 0 0 0 0 0 0 1 0 0 0 0 0 0 -1 0 0 0 0 0 0 0 0 0 0 0 0 0 0 1 0 0 0 0 0 0 -2 -2 0 0 0 0 0 0 0 0 0 0 0 0 1 0 0 0 0 0 0 0 0 -1 0 0 0 0 0 0 1 0 0 0 0 -1 0 0 0 0 1 0 0 0 0 0 0 0 1 -1 0 0 0 0 1 0 0 0 0 0 1 0 0 0 0 0 0 0 1 2zm6 2l-2 0 0 0 0 0 0 0 0 0 0 0 0 0 0 0 0 0 0 0 0 0 0 0 0 -1 -1 0 0 0 0 0 0 0 0 0 0 0 -1 0 0 -1 0 0 0 0 0 0 -1 0 0 0 0 0 0 0 0 0 -1 0 0 0 0 0 0 0 -1 -2 1 0 0 0 1 0 0 0 0 0 1 0 0 0 0 0 1 0 0 0 0 0 0 1 1 0 0 0 0 0 0 0 1 0 0 1 0 0 0 0 0 0 0 0 0 0 1 0 0 1 0 0 0 0 0 0 0 0 0 0 0 0 0 0 -2 0 2 1zm0 0l-1 1 -1 -1 2 0zm5 -2l0 0 0 0 -1 0 0 0 0 0 0 0 -1 0 0 0 0 0 0 0 0 0 -1 0 0 0 0 1 0 0 0 0 -1 0 0 0 0 0 0 0 0 0 0 1 0 0 0 0 -1 0 0 0 0 0 0 0 0 0 0 0 0 0 0 0 0 0 -2 -1 0 0 0 0 0 0 1 0 0 0 0 0 0 0 0 -1 0 0 0 0 0 0 0 0 1 0 0 0 0 -1 0 0 0 0 1 0 0 0 0 0 0 -1 1 0 0 0 0 0 1 0 0 0 0 0 1 0 0 0 0 0 1 0 0 0 0 0 0 2zm6 3l-1 0 0 0 0 0 -1 0 0 -1 0 0 0 0 0 0 0 0 0 0 0 0 0 0 0 0 0 0 0 0 -1 -1 0 0 0 0 0 0 0 0 0 0 -1 0 0 -1 0 0 0 0 0 0 -1 0 0 0 0 0 0 0 -1 0 0 0 0 0 0 -2 0 0 1 0 0 0 1 0 0 0 0 0 1 0 0 0 0 1 0 0 1 0 0 0 0 0 0 0 1 0 0 1 0 0 0 0 0 0 0 0 1 0 0 1 0 0 0 0 0 0 0 0 0 0 0 0 0 0 0 0 0 0 0 0 -1 0 1 2zm0 0l-1 1 0 -1 1 0zm5 -3l0 0 0 0 -1 0 0 0 0 0 0 0 -1 0 0 0 0 0 0 0 0 0 -1 1 0 0 0 0 0 0 0 0 -1 0 0 0 0 1 0 0 0 0 0 0 0 0 0 0 0 0 0 0 -1 0 0 0 0 0 0 1 0 0 0 0 0 0 -1 -2 0 0 0 0 0 0 0 0 0 0 0 0 0 0 0 0 0 0 0 0 0 -1 0 0 1 0 0 0 0 0 0 0 0 -1 1 0 0 0 0 0 0 0 0 0 1 0 0 -1 0 0 1 0 0 0 0 0 1 0 0 0 0 0 1 0 0 0 0 2zm6 2l-1 0 0 0 0 0 0 0 0 0 0 0 0 0 -1 0 0 0 0 0 0 0 0 0 0 -1 0 0 0 0 0 0 -1 0 0 0 0 0 0 0 0 -1 -1 0 0 0 0 0 0 0 0 0 -1 0 0 0 0 0 0 0 -1 0 0 0 0 0 0 -2 0 0 0 0 1 0 0 0 1 0 0 0 0 0 1 0 0 0 0 0 0 0 1 1 0 0 0 0 0 0 1 0 0 0 0 1 0 0 0 0 1 0 0 0 0 0 0 0 0 1 0 0 0 0 0 0 0 0 0 0 0 0 0 0 -1 0 1 1zm0 0l0 1 -1 -1 1 0zm5 -2l0 0 0 0 0 0 0 0 -1 0 0 0 0 0 0 0 -1 0 0 0 0 0 0 0 0 0 -1 1 0 0 0 0 0 0 0 0 -1 0 0 0 0 0 0 1 0 0 0 0 0 0 0 0 0 0 0 0 0 0 -1 0 0 0 0 0 0 0 -1 -1 0 0 0 0 0 0 0 0 0 0 0 0 0 0 0 -1 0 0 0 0 1 0 0 0 0 0 0 0 0 -1 1 0 0 0 0 0 0 0 0 0 1 -1 0 0 0 0 1 0 0 0 0 0 1 0 0 0 0 0 1 0 0 0 0 0 0 0 0 2zm7 2l-2 1 0 0 0 0 0 0 0 -1 0 0 0 0 0 0 0 0 -1 0 0 0 0 0 0 0 0 0 0 0 0 -1 0 0 0 0 -1 0 0 0 0 0 0 0 0 -1 -1 0 0 0 0 0 0 0 0 0 -1 0 0 0 0 0 0 0 -1 0 0 -2 1 0 0 0 1 0 0 0 0 0 1 0 0 0 0 0 0 1 1 0 0 0 0 0 0 0 1 0 0 0 0 1 0 0 0 0 1 0 0 0 0 0 0 1 0 0 0 0 0 0 0 0 0 0 1 0 0 0 0 0 0 0 0 0 -2 1 2 0z"/>
    </g>
    <path class="fil5" d="M61 79c0,-1 -1,-1 -1,-2 0,0 -1,-1 -2,-1 -1,0 -2,-1 -2,-1 -1,0 -2,-1 -2,-1 -1,-1 -1,-1 -1,-2 -1,0 -1,-1 -1,-2 0,-1 1,-2 2,-3 1,-1 2,-2 3,-2l0 -3 2 0 0 3c2,0 3,1 4,2 1,1 1,2 1,4l-3 0c0,-1 -1,-2 -1,-2 -1,-1 -1,-1 -2,-1 0,0 -1,0 -1,1 -1,0 -1,1 -1,1 0,1 0,1 1,2 0,0 1,1 2,1 1,0 1,1 2,1 1,0 1,1 2,1 0,1 1,1 1,2 0,0 0,1 0,2 0,1 0,3 -1,3 -1,1 -2,2 -4,2l0 3 -2 0 0 -3c-2,0 -3,-1 -4,-2 -1,-1 -1,-2 -1,-4l3 0c0,1 1,2 1,2 1,1 1,1 2,1 1,0 1,0 2,0 0,-1 1,-1 1,-2z"/>
    <g id="_349538112">
     <rect class="fil6" x="36" y="88" width="44.3032" height="4.60174"/>
     <rect class="fil7" x="36" y="97" width="44.3032" height="4.60174"/>
    </g>
   </g>
   <g>
    <path class="fil8" d="M92 10c-1,0 -2,0 -5,1 -4,1 -7,3 -10,6 -5,5 -8,12 -7,18 0,6 2,11 6,15 0,0 0,1 1,1l1 1c0,0 2,2 3,2 0,0 0,0 0,0 0,0 0,0 0,0l1 1c0,0 1,0 1,0 1,1 1,1 2,1 6,3 14,3 20,-1 5,-2 9,-7 11,-12 1,-3 2,-7 2,-10 0,-4 -1,-7 -2,-9 -1,-1 -1,-1 -1,-1 0,-1 -1,-3 -2,-4 0,0 -1,-1 -2,-2 -1,-1 -2,-2 -4,-3 -3,-2 -6,-3 -9,-4 -1,0 -4,0 -6,0z"/>
    <path class="fil9" d="M93 24c1,0 3,0 3,0 2,0 4,1 5,3 1,0 1,1 2,2 0,0 1,2 1,3l-4 0c0,0 0,0 0,0l7 9c0,0 1,-2 1,-2l4 -5c0,0 1,-2 1,-2l-4 0c0,-4 -2,-6 -3,-8 -7,-8 -18,-7 -24,1 0,0 0,0 0,0 0,0 0,0 0,0 0,0 1,1 1,1 0,1 2,3 2,3 1,0 1,0 1,-1 1,-1 1,-2 2,-2 2,-1 3,-2 5,-2z"/>
    <path class="fil9" d="M74 36l5 0c0,4 1,6 3,8 4,5 12,7 17,4 2,0 3,-1 4,-2 1,0 1,-1 2,-1 0,-1 1,-1 1,-2 0,0 -3,-4 -3,-4l-1 0c-1,2 -2,3 -3,4 -1,0 -3,1 -4,1 -1,0 -1,1 -3,0 -3,0 -6,-2 -7,-5 0,0 -1,-2 -1,-3l4 0c0,0 -1,-2 -2,-2 0,-1 -1,-2 -1,-2 -1,-1 -1,-2 -2,-2 -1,-1 -1,-2 -2,-3l-3 5c0,0 -3,4 -4,4z"/>
   </g>
  </g>
 </g>
</svg>
