<?xml version="1.0" encoding="UTF-8"?>
<!DOCTYPE svg PUBLIC "-//W3C//DTD SVG 1.1//EN" "http://www.w3.org/Graphics/SVG/1.1/DTD/svg11.dtd">
<!-- Creator: CorelDRAW X7 -->
<svg xmlns="http://www.w3.org/2000/svg" xml:space="preserve" width="120px" height="120px" version="1.1" style="shape-rendering:geometricPrecision; text-rendering:geometricPrecision; image-rendering:optimizeQuality; fill-rule:evenodd; clip-rule:evenodd"
viewBox="0 0 120 120"
 xmlns:xlink="http://www.w3.org/1999/xlink">
 <defs>
  <style type="text/css">
   <![CDATA[
    .str1 {stroke:#FEFEFE;stroke-width:2.08351}
    .str2 {stroke:#FEFEFE;stroke-width:0.900018}
    .str0 {stroke:#FEFEFE;stroke-width:0.900018}
    .fil0 {fill:none}
    .fil6 {fill:#FEFEFE}
    .fil2 {fill:#0063D4}
    .fil7 {fill:#FEFEFE;fill-rule:nonzero}
    .fil4 {fill:#ECEBEC;fill-rule:nonzero}
    .fil5 {fill:#00A859;fill-rule:nonzero}
    .fil1 {fill:#0063D4;fill-rule:nonzero}
    .fil3 {fill:#2887D2;fill-rule:nonzero}
   ]]>
  </style>
 </defs>
 <g id="Layer_x0020_1">
  <metadata id="CorelCorpID_0Corel-Layer"/>
  <rect class="fil0" width="120" height="120"/>
  <g id="_626565776">
   <g>
    <path class="fil1 str0" d="M88 77c0,0 0,0 -1,0l-2 11c1,0 1,0 1,0 4,1 7,-1 8,-4 0,-3 -2,-6 -6,-7z"/>
    <path class="fil1 str0" d="M69 84c-1,0 -2,-1 -3,-2l-11 -20c-1,0 -1,-1 -1,-2 0,-3 3,-8 9,-5 1,0 3,1 3,2l8 17c1,1 2,1 3,2l10 1 -1 6 -17 1z"/>
    <path class="fil2 str1" d="M32 95c2,9 2,7 2,7l30 1c0,0 0,-29 0,-40 1,-11 -3,-14 -3,-14 0,0 -10,3 -16,0 -10,-6 -14,37 -13,46z"/>
    <g>
     <path class="fil3" d="M105 63c0,0 -1,-1 -1,-2 1,0 1,-1 2,0 1,0 1,0 1,1 0,1 -1,1 -2,1zm6 0l-2 -1c0,-1 -1,-2 -3,-3 -1,0 -3,0 -3,1l-2 0c-2,0 -3,0 -3,1l-1 1 6 1c0,1 1,1 2,1 1,1 1,1 2,0l6 2 0 -1c0,-1 -1,-2 -2,-2z"/>
     <path class="fil3" d="M97 101l-25 -7c-1,0 -1,-1 -1,-2l19 -31c0,-1 1,-1 2,0l25 6c1,0 1,1 1,2l-19 31c0,1 -1,1 -2,1z"/>
     <polygon class="fil4" points="73,92 98,99 115,69 91,63 "/>
     <polygon class="fil3" points="90,68 108,72 109,70 91,65 "/>
     <polygon class="fil3" points="87,73 105,77 106,75 88,70 "/>
     <polygon class="fil3" points="84,78 102,82 103,80 85,75 "/>
     <polygon class="fil5" points="107,70 108,73 115,71 115,69 109,71 109,69 "/>
     <polygon class="fil5" points="103,75 104,78 111,76 110,74 105,76 104,74 "/>
     <polygon class="fil5" points="100,80 101,83 108,81 108,80 102,81 102,79 "/>
     <polygon class="fil3" points="99,87 81,83 82,80 100,85 "/>
     <polygon class="fil3" points="78,88 96,92 97,90 79,85 "/>
    </g>
    <path class="fil1 str2" d="M67 94c-2,0 -3,-1 -3,-2l-13 -27c-1,-1 -1,-2 -1,-3 0,-5 9,-7 12,-2l10 19c0,1 1,2 2,2l18 0 0 11 -25 2z"/>
    <path class="fil1 str0" d="M94 81c-1,0 -1,0 -2,0l0 11c1,0 1,0 1,0 4,0 7,-2 7,-5 0,-3 -3,-6 -6,-6z"/>
    <circle class="fil2" cx="58" cy="32" r="15"/>
   </g>
   <g>
    <g>
     <g>
      <polygon class="fil6" points="2,36 23,36 23,57 2,57 "/>
      <path id="1" class="fil3" d="M23 37l-21 0 0 -2 21 0 0 1 0 1zm0 -2l0 0 0 1 0 -1zm-1 22l0 -21 1 0 0 21 0 0 -1 0zm1 0l0 0 0 0 0 0zm-21 -1l21 0 0 1 -21 0 -1 0 1 -1zm0 1l-1 0 0 0 1 0zm1 -21l0 21 -2 0 0 -21 1 -1 1 1zm-2 0l0 -1 1 0 -1 1z"/>
     </g>
     <g>
      <path class="fil5" d="M26 31c0,0 -1,0 -1,0l-13 15 -8 -5c-1,-1 -1,-1 -2,0 0,0 0,1 0,1l8 11c0,1 1,1 1,1l0 0c0,0 1,0 1,-1l14 -20c1,-1 1,-1 0,-2z"/>
      <path id="1" class="fil7" d="M25 32l-1 -1 0 0 0 0 0 0 0 0 1 0 0 0 0 0 0 -1 0 0 0 0 0 0 0 0 0 0 0 0 0 0 0 0 0 0 1 0 0 0 0 0 0 0 0 0 0 0 0 0 0 0 0 1 0 0 0 0 0 0 0 0 0 0 0 0 1 0 -1 1 0 0 0 0 0 0 0 0 0 0 0 0 0 -1 0 0 0 0 0 0 0 0 0 0 -1 0 0 0 0 0 0 0 0 0 0 0 0 0 0 0 0 0 0 0 0 0 0 0 0 0 0 0 0 1 0 0 0 0 0 0 0 0 0 0 0 0zm-1 -1l0 0 0 0 0 0zm-13 15l13 -15 1 1 -13 14 -1 1 0 -1zm1 0l0 1 -1 0 1 -1zm-8 -6l8 6 -1 1 -7 -6 0 -1 0 0zm0 0l0 0 0 0 0 0zm-1 1l-1 -1 0 0 0 0 0 0 0 0 0 0 0 0 0 0 0 0 0 0 1 0 0 0 0 0 0 0 0 0 0 0 0 0 0 0 0 0 0 0 0 0 0 0 0 0 0 0 1 0 0 0 0 0 0 0 0 0 0 0 0 0 0 0 0 0 0 0 0 1 0 0 0 0 -1 0 0 0 0 0 0 0 0 0 0 0 0 0 0 0 0 0 0 0 0 0 0 0 0 0 0 0 0 0 0 0 0 0 0 0 0 0 0 0 0 0 0 0 0 0 0 0 0 0 0 0 0 0 0 0 0 0 0 0 0 0zm0 0l0 0 0 0 0 0zm0 1l-1 1 0 0 0 -1 0 0 0 0 0 0 0 0 0 0 0 0 0 0 0 0 0 0 0 0 0 0 0 0 0 0 0 -1 0 0 0 0 0 0 0 0 0 0 0 0 0 0 0 0 0 0 0 0 0 0 0 0 0 0 0 0 0 -1 0 0 0 0 1 1 0 0 0 0 0 0 0 0 0 0 0 0 0 0 0 0 0 0 0 0 0 0 0 0 0 0 0 0 0 0 0 0 0 1 0 0 0 0 0 0 0 0 0 0 0 0 0 0 0 0 0 0 0 0 0 0 0 0 0 0 0 0 0 0 0 0zm0 0l0 0 0 0 0 0zm7 12l-8 -11 1 -1 8 11 -1 1 0 0zm0 0l0 0 0 0 0 0zm1 -1l0 1 0 0 0 0 0 0 0 0 0 0 0 0 0 0 0 0 0 0 0 0 0 0 0 0 -1 0 0 0 0 0 0 0 0 0 0 0 0 0 0 0 0 0 0 0 0 0 0 0 0 0 0 0 0 0 0 0 0 0 0 0 0 0 0 0 0 0 1 -1 0 0 0 0 0 0 0 0 0 0 0 0 0 0 0 0 0 0 0 0 0 0 0 0 0 0 0 0 0 0 0 0 0 0 0 0 0 0 0 0 0 0 0 0 0 0 0 0 0 0 0 0 0 0 0 0 0 0 0 0 0 0 0 0 0 0zm0 1l0 0 0 0 0 0zm0 0l0 0 0 -1 0 0 0 0 0 1zm1 -1l0 1 0 0 0 0 0 0 0 0 0 0 0 0 0 0 0 0 0 0 0 0 0 0 0 0 0 0 0 0 0 0 0 0 0 0 0 0 0 0 0 0 0 0 0 0 0 0 0 0 -1 0 0 0 0 0 0 0 0 0 0 0 0 0 0 0 0 0 0 -1 0 0 0 0 0 0 0 0 0 0 0 0 0 0 0 0 0 0 0 0 0 0 0 0 0 0 0 0 0 0 0 0 0 0 0 0 0 0 0 0 0 0 0 0 0 0 1 0 0 0 0 0 0 0 0 0 0 0 0 0 0 0 0 0 0 0zm0 1l0 0 1 0 -1 0zm15 -21l-15 21 0 -1 14 -21 0 0 1 1zm-1 -1l0 0 0 0 0 0zm0 0l1 -1 0 0 0 0 0 0 0 0 0 0 0 0 0 0 0 0 0 0 0 0 0 0 0 1 0 0 0 0 0 0 0 0 0 0 0 0 0 0 0 0 0 0 0 0 0 0 0 0 0 1 0 0 0 0 0 0 0 0 0 0 0 0 0 0 0 0 -1 -1 0 0 0 0 0 0 0 0 0 0 0 0 0 0 0 0 0 0 0 0 0 0 0 0 0 0 0 0 0 0 0 0 0 0 0 0 0 0 0 0 0 0 0 0 0 0 0 0 0 0 0 0 0 0 0 0 0 0 0 0 0 0 0 0 0 0zm1 -1l0 0 -1 0 1 0z"/>
     </g>
    </g>
    <g>
     <polygon class="fil6" points="2,68 23,68 23,89 2,89 "/>
     <path id="1" class="fil3" d="M23 69l-21 0 0 -1 21 0 0 0 0 1zm0 -1l0 0 0 0 0 0zm-1 21l0 -21 1 0 0 21 0 1 -1 -1zm1 0l0 1 0 0 0 -1zm-21 -1l21 0 0 2 -21 0 -1 -1 1 -1zm0 2l-1 0 0 -1 1 1zm1 -22l0 21 -2 0 0 -21 1 0 1 0zm-2 0l0 0 1 0 -1 0z"/>
    </g>
   </g>
  </g>
 </g>
</svg>
