<?xml version="1.0" encoding="UTF-8"?>
<!DOCTYPE svg PUBLIC "-//W3C//DTD SVG 1.1//EN" "http://www.w3.org/Graphics/SVG/1.1/DTD/svg11.dtd">
<!-- Creator: CorelDRAW X7 -->
<svg xmlns="http://www.w3.org/2000/svg" xml:space="preserve" width="120px" height="120px" version="1.1" style="shape-rendering:geometricPrecision; text-rendering:geometricPrecision; image-rendering:optimizeQuality; fill-rule:evenodd; clip-rule:evenodd"
viewBox="0 0 120 120"
 xmlns:xlink="http://www.w3.org/1999/xlink">
 <defs>
  <style type="text/css">
   <![CDATA[
    .fil0 {fill:none}
    .fil6 {fill:#FEFEFE}
    .fil5 {fill:#A53235}
    .fil1 {fill:#B8E5FA}
    .fil8 {fill:#0063D4}
    .fil4 {fill:whitesmoke}
    .fil3 {fill:#FA0303}
    .fil2 {fill:#2887D2;fill-rule:nonzero}
    .fil7 {fill:#E32210;fill-rule:nonzero}
   ]]>
  </style>
 </defs>
 <g id="Layer_x0020_1">
  <metadata id="CorelCorpID_0Corel-Layer"/>
  <rect class="fil0" width="120" height="120"/>
  <g id="_718522088">
   <g>
    <polygon class="fil1" points="6,24 114,24 114,98 6,98 "/>
    <path id="1" class="fil2" d="M114 26l-108 0 0 -3 108 0 1 1 -1 2zm0 -3l1 0 0 1 -1 -1zm-1 75l0 -74 2 0 0 74 -1 1 -1 -1zm2 0l0 1 -1 0 1 -1zm-109 -1l108 0 0 2 -108 0 -1 -1 1 -1zm0 2l-1 0 0 -1 1 1zm1 -75l0 74 -2 0 0 -74 1 -1 1 1zm-2 0l0 -1 1 0 -1 1z"/>
   </g>
   <g id="_718524296">
    <path class="fil3" d="M23 31c1,0 0,0 1,0 2,1 4,3 7,1l2 -1c0,0 0,0 0,0 1,0 1,0 1,-1l0 -25c-3,0 -8,0 -11,0l0 26z"/>
    <path class="fil4" d="M55 31c3,3 8,3 10,0 0,-1 1,-22 0,-24 -1,-1 0,0 -2,0 -1,-1 -2,0 -3,0 -1,0 -4,-1 -5,0 -1,2 0,9 0,12 0,2 -1,11 0,12z"/>
    <path class="fil3" d="M44 30l1 1c6,5 6,1 10,0 -1,-2 0,-22 0,-25 -3,-1 -8,-1 -11,-1l0 25z"/>
    <path class="fil3" d="M5 33c3,1 4,0 6,-1 1,-1 0,0 2,-1l0 -26 -11 0c0,5 0,10 0,15 0,3 0,5 0,8 0,3 0,4 3,5z"/>
    <path class="fil4" d="M13 31c1,1 2,2 5,2 2,0 3,-1 5,-2l0 -24 -10 0 0 24z"/>
    <path class="fil4" d="M34 31c2,2 8,4 10,-1l0 -23c-2,-1 -8,-1 -10,0l0 24z"/>
    <path class="fil3" d="M97 31c-1,0 0,0 -1,0 -2,1 -4,3 -7,1l-2 -1c0,0 0,0 0,0 -1,0 -1,0 -1,-1l0 -25c3,0 8,0 11,0l0 26z"/>
    <path class="fil3" d="M76 30l-1 1c-6,5 -6,1 -10,0 0,-4 0,-18 0,-25 3,-1 8,-1 11,-1l0 25z"/>
    <path class="fil3" d="M115 33c-3,1 -4,0 -6,-1 -1,-1 0,0 -2,-1l0 -26 11 0c0,5 0,10 0,15 0,3 0,5 0,8 0,3 0,4 -3,5z"/>
    <path class="fil4" d="M107 31c-1,1 -2,2 -5,2 -2,0 -3,-1 -5,-2l0 -24 10 0 0 24z"/>
    <path class="fil4" d="M86 31c-2,2 -8,4 -10,-1l0 -23c2,-1 8,-1 10,0l0 24z"/>
   </g>
   <rect class="fil5" x="2" y="4" width="116.002" height="2.77199"/>
   <g>
    <polygon class="fil6" points="38,40 82,40 82,61 38,61 "/>
    <path id="1" class="fil7" d="M82 42l-44 0 0 -3 44 0 1 1 -1 2zm0 -3l1 0 0 1 -1 -1zm-2 22l0 -21 3 0 0 21 -1 1 -2 -1zm3 0l0 1 -1 0 1 -1zm-45 -2l44 0 0 3 -44 0 -1 -1 1 -2zm0 3l-1 0 0 -1 1 1zm2 -22l0 21 -3 0 0 -21 1 -1 2 1zm-3 0l0 -1 1 0 -1 1z"/>
   </g>
   <g>
    <path class="fil8" d="M62 64c-1,0 -2,-1 -3,0 -2,0 -3,3 -1,5 1,1 4,2 6,3 0,0 1,0 2,0 0,1 1,1 2,1 0,1 1,1 2,1 4,2 5,1 6,-3 0,-1 2,-3 2,-4 0,0 0,0 0,1 0,0 0,0 0,1 1,2 2,9 1,10 0,5 -1,9 -1,13 0,6 -1,12 -2,18 0,5 1,4 2,5 1,1 2,1 4,1 3,0 5,-2 5,-5 0,-1 0,-2 0,-4l1 -15c1,-2 1,-7 1,-8 1,0 1,1 2,2 0,0 0,1 0,2l7 24c2,4 5,5 8,3 1,-1 3,-2 3,-4 -1,-2 -2,-4 -2,-6 0,-1 -6,-20 -6,-20 0,0 0,0 0,0 -1,-2 -1,-2 -1,-3 0,0 0,-1 0,-1 -1,-2 -2,-6 -2,-7l3 -4c1,0 1,-1 2,-1l2 -2c1,-2 0,0 0,-1 1,-1 1,-3 0,-4l-3 -3c-1,-1 -1,0 -1,-1 -1,0 -2,-1 -3,-2l-5 -4c-1,0 -1,-1 -2,-1 0,-1 -1,-1 -2,-1 -2,0 -11,4 -12,5 -1,1 -3,6 -4,7l-2 5c-1,0 -9,-3 -9,-3zm32 -4l1 7c0,0 5,-4 4,-4 -1,-1 -5,-3 -5,-3z"/>
    <circle class="fil8" cx="79" cy="44" r="8"/>
   </g>
  </g>
 </g>
</svg>
