<svg xmlns="http://www.w3.org/2000/svg" width="36" height="48" viewBox="0 0 36 47" shape-rendering="geometricPrecision" text-rendering="geometricPrecision" image-rendering="optimizeQuality" fill-rule="evenodd" clip-rule="evenodd"><defs><linearGradient id="id0" gradientUnits="userSpaceOnUse" x1="11.938" y1="15.006" x2="20.856" y2="46.919"><stop offset="0" stop-color="#1cc8eb"/><stop offset=".631" stop-color="#0e96e0"/><stop offset="1" stop-color="#0063d4"/></linearGradient><style>.fil7{fill:#fefefe}.fil2{fill:#2887d2}.fil3{fill:#fff}</style></defs><g id="Layer_x0020_1"><g id="_306928744"><path d="M10 6l14 2c0 3 2 4 5 5h1l-3 14-20-4 3-17z" fill="#fefefe"/><path id="1" d="M23 9L10 6l14 2-1 1zm1-1zm5 4v1h-2v-1h-2v-1h-1V9h-1V8h1v1h1v2h1l1 1h2zm1 1h-1 1-1v-1h1v1zm0-1v1-1zm-3 15l2-14h1l-2 14h-1zm1 0h-1 1zM7 23l21 3-1 1-20-3-1-1h1zm0 1H6v-1l1 1zm3-18L7 23H6L9 6h1zM9 6h1-1z" fill="#2887d2" fill-rule="nonzero"/><path class="fil2" d="M23 5L11 3c0-1-1 0-1 0v3l13 2V5z"/><circle class="fil3" transform="matrix(.05808 .0095 -.0095 .05808 12.403 4.36)" r="12"/><circle class="fil3" transform="matrix(.05808 .0095 -.0095 .05808 14.328 4.675)" r="12"/><circle class="fil3" transform="matrix(.05808 .0095 -.0095 .05808 16.253 4.99)" r="12"/><path class="fil2" transform="matrix(.38662 .06324 -.03568 .21813 11.142 9.373)" d="M0 0h26.593v4.625H0z"/><path class="fil2" transform="matrix(.38662 .06324 -.03568 .21813 10.718 11.964)" d="M0 0h26.593v4.625H0z"/><path class="fil2" transform="matrix(.38662 .06324 -.03568 .21813 10.283 14.622)" d="M0 0h26.593v4.625H0z"/><path class="fil2" transform="matrix(.38662 .06324 -.03568 .21813 9.849 17.28)" d="M0 0h26.593v4.625H0z"/><path class="fil2" transform="matrix(.38662 .06324 -.03568 .21813 9.433 19.822)" d="M0 0h26.593v4.625H0z"/><g><circle transform="matrix(.21033 .0344 -.0344 .21033 29.975 6.025)" r="28" fill="#00a859"/><path d="M31 8V7h-1c0-1-1-1-1-1h-1V5 4c0-1 0-1 1-1 0-1 1-1 1-1l1-1v1l1 1c1 1 1 1 1 2h-2V4h-1c0-1 0 0 0 0-1 1 0 1 0 1l1 1s1 0 1 1v1c0 1 0 1-1 1 0 1-1 1-1 1v1h-1v-1c-1 0-1-1-1-1-1-1-1-1-1-2h2v1s0 1 1 1l1-1z" fill="#fff212" fill-rule="nonzero"/></g><g id="_306928624"><path d="M10 41c-2 0-3 1-3 3s1 3 3 3 3-1 3-3-1-3-3-3zM0 15v3h3l6 12-2 4v2c0 2 1 3 3 3h20v-3H10v-1l2-2h12c1 0 2-1 3-2l5-11c1 0 1 0 1-1 0 0-1-1-2-1H7l-2-3H0zm26 26c-2 0-3 1-3 3s1 3 3 3 4-1 4-3-2-3-4-3z" fill="url(#id0)" fill-rule="nonzero"/><rect class="fil7" x="10" y="21" width="17.902" height="1.548" rx="1" ry="1"/><rect class="fil7" x="11" y="25" width="14.806" height="1.548" rx="1" ry="1"/><rect class="fil7" x="13" y="28" width="10.903" height="1.548" rx="0" ry="1"/></g></g></g></svg>