<svg xmlns="http://www.w3.org/2000/svg" width="48" height="39" shape-rendering="geometricPrecision" text-rendering="geometricPrecision" image-rendering="optimizeQuality" fill-rule="evenodd" clip-rule="evenodd"><defs><style>.fil1{fill:#fefefe}.fil7{fill:#fff212}.fil3{fill:#51a8b1}.fil6{fill:#000}.fil2{fill:#2887d2}.fil12{fill:#fff}.fil11{fill:#fefefe;fill-rule:nonzero}.fil0,.fil10,.fil9{fill:#2887d2;fill-rule:nonzero}.fil10,.fil9{fill:#4e901e}.fil9{fill:#7ed63e}</style></defs><g id="Layer_x0020_1"><g id="_461250600"><path class="fil0" d="M24 39V3h1v36z"/><path class="fil1" d="M30 13v24s15-1 15 0V17l-2-4h-1-12z"/><path id="1" class="fil0" d="M29 37V13h1v24h-1zm1 0h-1 1zm15 0h-1 1-15v-1h15v1zm0-19v-1h1v18l-1 1v1h-1 1-1v-4l1-1V17v1zm-2-5l2 4v1l-3-5h1zm0 0zm0-1v1l-1 1v-2h1zm-1 0h1-1zm-12 1h-1l1-1h12v2h-2l-1-1h-9zm0 0z"/><path class="fil2" d="M42 13v3s0 1 1 1c0 1 2 0 2 0l-3-4z"/><path id="1" class="fil0" d="M42 16v-3 3zm0 0zm1 1h-1v-1 1h1zm2 0v1h-2v-1h2zm-3-4l3 4-3-4zm0 0zm0 0zm0 0z"/><path class="fil2" transform="matrix(-.13761 -.00055 .00062 -.19234 42.88 24.766)" d="M0 0h81.25v7.292H0z"/><path class="fil2" transform="matrix(-.13761 -.00055 .00062 -.19234 42.888 22.17)" d="M0 0h81.25v7.292H0z"/><path class="fil2" transform="matrix(-.09405 -.00037 .00062 -.19234 39.358 19.42)" d="M0 0h81.25v7.292H0z"/><path class="fil2" transform="matrix(-.13761 -.00055 .00062 -.19234 42.87 27.538)" d="M0 0h81.25v7.292H0z"/><path class="fil2" transform="matrix(-.13761 -.00055 .00062 -.19234 42.862 30.311)" d="M0 0h81.25v7.292H0z"/><path class="fil2" transform="matrix(-.13761 -.00055 .00062 -.19234 42.853 33.05)" d="M0 0h81.25v7.292H0z"/><g><path class="fil1" d="M32 14l-1 24s16-1 16 0V19l-3-5H32z"/><path id="1" class="fil0" d="M31 38V14h1v24h-1zm0 0zm16 0h-1 1-16v-1h16v1zm-1-19l1-1v20h-1 1-1V19zm-1-5l2 4-1 1-2-4 1-1zm0 0zm0 0l-1 1v-2l1 1zm-1-1l1 1-1-1zm-12 1h-1l1-1h12v2H32v-1zm-1 0z"/><g><path class="fil2" d="M44 14v5h3l-3-5z"/><path id="1" class="fil0" d="M44 17v-3 3zm0 1v1-2 1zm3 1h-3v-1h1v1h2zm-3-5l3 5-3-5zm0 0zm0 0zm0 0z"/></g></g><g><path class="fil3" d="M34 20h10.68v1.569H34zM34 23h4.992v1.569H34zM40 23h4.759v1.569H40zM34 26h4.992v1.569H34zM40 26h4.759v1.569H40zM34 29h4.992v1.569H34zM40 29h4.759v1.569H40zM34 32h4.992v1.569H34zM40 32h4.759v1.569H40z"/></g><g><g id="_805236248"><path fill="#fefefe" d="M2 14h17v16H2z"/><path id="1" class="fil0" d="M19 15H2v-1h18l-1 1zm0-1h1-1zm0 16V14h1v16l-1 1v-1zm1 0v1h-1l1-1zM2 30h17v1H2v-1zm0 1v-1 1zm1-17v16H2V14h1zm-1 0z"/><path class="fil2" d="M19 14v-2-1H3c-1 0-1 0-1 1v2h17z"/></g><path class="fil2" d="M5 16h11.468v.919H5zM5 19h11.468v.919H5zM5 21h11.468v.919H5zM5 24h11.468v.919H5zM5 26h5.172v.919H5z"/><g><rect x="10" y="27" width="11.319" height="7.507" rx="1" ry="1" fill="#4e8ac8"/><path class="fil6" d="M10 28h11.319v.659H10z"/><g id="_805228784"><path class="fil7" d="M11 30h.669v.822H11zM12 30h.669v.822H12zM13 30h.669v.822H13zM14 30h.669v.822H14zM15 30h.669v.822H15zM16 30h.669v.822H16z"/></g><g><rect x="9" y="29" width="11.319" height="7.507" rx="1" ry="1" fill="#fc4d44"/><path class="fil6" d="M9 30h11.319v.659H9z"/><g id="_805223816"><path class="fil7" d="M10 32h.669v.822H10zM11 32h.669v.822H11zM12 32h.669v.822H12zM13 32h.669v.822H13zM14 32h.669v.822H14z"/><path class="fil7" d="M14 32h.669v.822H14z"/></g></g></g><g><path class="fil9" d="M2 37h16v-9H2z"/><path class="fil10" d="M17 30v4c-1 0-2 1-2 2H5c0-1-1-2-2-2v-4c1 0 2 0 2-1h10c0 1 1 1 2 1z"/><path class="fil11" d="M11 32c0 1 0 2-1 2s-1-1-1-2c0 0 0-1 1-1s1 1 1 1z"/><path class="fil9" d="M2 31v6h6c-2 0-3-1-4-2s-2-2-2-4z"/><path class="fil11" d="M13 33h1v-1h-1zM5 33h2v-1H5z"/><g><path class="fil9" d="M0 39h15v-9H0z"/><path class="fil10" d="M15 32v4c-1 0-2 1-2 2H2c0-1 0-2-1-2v-4c1 0 1 0 1-1h11c0 1 1 1 2 1z"/><path class="fil11" d="M9 34c0 1-1 2-1 2-1 0-2-1-2-2 0 0 1-1 2-1l1 1z"/><path class="fil9" d="M0 33v6h5c-1 0-3-1-3-2-1-1-2-2-2-4z"/><path class="fil11" d="M11 35h1v-1h-1zM3 35h2v-1H3z"/></g></g></g><rect class="fil2" x="2" width="46.48" height="5.598" rx="1" ry="1"/><g><circle class="fil12" cx="38" cy="3" r="1"/><circle class="fil12" cx="41" cy="3" r="1"/><circle class="fil12" cx="45" cy="3" r="1"/></g><g><circle cx="32" cy="14" r="5" fill="#e32210"/><path d="M33 16v-1h-1-1v-1h-1v-1s0-1 1-1h1v-1 1h2v1h-1c-1 0-1-1-1-1v1h-1l1 1h1v1h1v2h-2v1-1h-1c-1-1-1-1-1-2h1v1h2z" fill="#fff212" fill-rule="nonzero"/></g></g></g></svg>