<svg xmlns="http://www.w3.org/2000/svg" width="49" height="42" viewBox="0 0 48 42" shape-rendering="geometricPrecision" text-rendering="geometricPrecision" image-rendering="optimizeQuality" fill-rule="evenodd" clip-rule="evenodd"><defs><linearGradient id="id0" gradientUnits="userSpaceOnUse" x1=".655" y1="33.226" x2="30.229" y2="33.226"><stop offset="0" stop-color="#cbe1f4"/><stop offset=".369" stop-color="#e5f0f9"/><stop offset="1" stop-color="#fff"/></linearGradient><linearGradient id="id1" gradientUnits="userSpaceOnUse" x1="6.635" y1="17.068" x2="24.203" y2="17.068"><stop offset="0" stop-color="#eedec5"/><stop offset=".369" stop-color="#f6eee2"/><stop offset="1" stop-color="#fff"/></linearGradient><style>.fil1{fill:#a98f71}.fil9{fill:#00afef}.fil3{fill:#2887d2}</style></defs><g id="Layer_x0020_1"><g id="_803263096"><path fill="#f0a71f" d="M28 17h20.258v20.257H28z"/><path class="fil1" d="M35 19h6.602v1.176H35z"/><path fill="#ffcb68" d="M21 20h20.258v20.257H21z"/><path class="fil1" d="M28 21h6.602v1.176H28z"/><g><path class="fil3" d="M7 7v3c0 1-1 1-1 2-1 0-1 1 0 2v2h1s0 2 1 2v2h1c0 1 1 2 2 2l1 1h1s0 1 1 1 3 0 4-1c1 0 1 0 2-1 1 0 1-1 2-2s0 0 1-2l1-1v-1c1 0 1-1 1-2v-2c-1-1-1-2-1-3 0-4 0-5-2-7h-1c0-1-1-1-1-1C15-1 8 0 7 6 6 6 7 7 7 7z"/><path d="M16 23c1 0 2-1 3-2 1 0 1-1 2-1v-1c1 0 1 0 1-1l1-1c0-1 0-1 1-2v-1-1-1c-1 0-1 0-1-1-1 1-1 2-3 2l-2-1h-6l-2 1c-1 0-1-1-2-1v-1l-1 1v1c0 1 0 2 1 2v2s1 1 1 2c0 0 1 1 2 1 0 1 0 1 1 2h1c1 1 2 1 3 1z" fill="url(#id1)"/><path d="M8 7c0 1-1 2 0 2 4-2 10-3 14-1 0 1 1 1 1 1 0-2 1-4-1-5l-2-2c-3-2-9-1-11 1v1C8 5 8 6 8 7z" fill="#b8e5fa"/><path d="M8 10l1 1c1 1 1 0 2 0h9c2 1 1 0 2 0l1-1c-5-2-10-2-15 0z" fill="#fc4d44"/><path class="fil3" d="M12 13s-1 0-1 1h2c1 0 0-2-1-1zM19 14v-1c-2-1-2 1-1 1 1 1 1 0 1 0z"/><g><path d="M10 26s-7 2-8 2c-2 1-1 11-1 11s0 2 1 2h26c2 0 2-2 2-2s1-10-1-11c-1 0-8-2-8-2s-1 0-2-1c-1 0-3 0-4 1-1-1-2-1-3-1-2 1-3 1-2 1z" fill="url(#id0)"/><path id="1" d="M2 29l-1-1h1v-1h3v-1h3l1-1 1 2H6v1H3v1H2zM1 39H0V29h1v-1l1 1v2H1v8zm1 1v2H1v-1H0v-2h1v1h1zm13 0v2H2v-2h13zm0 0zm13 0v2H15v-2h13zm2-1h1v1l-1 1-1 1h-1v-2h2v-1zm-1-10l1-1v2h1v9h-1v-6h-1v-4zm-8-4v2-2h1v1h4v1h3v1h1l-1 1h-1v-1h-3l-1-1h-3v-2zm-2 1v-1h2l1 1-1 1v-2 1h-2zm-4 0v-1h4v1h-4zm0 0zm-3 0l-1-1h4v1h-3zm-2 1l-1-2 1 2H9v-2h2l1 1h-2v-1H9l1 2z" fill="#2887d2" fill-rule="nonzero"/></g><path class="fil3" d="M15 26l-1 1s0 1 1 1c0 1-1 13-1 13h3s-1-12-1-13l1-1-2-1z"/><g><path class="fil9" d="M11 23l-1 2 4 3 1-3s-2-1-3-1c-1-1 0-1-1-1zM20 23l1 2-4 3-2-3s3-1 4-1c1-1 0-1 1-1z"/></g><path fill="#fefefe" d="M21 32h7.186v4.062H21z"/><g><path class="fil3" d="M24 34h2.135v.573H24zM21 34h2.135v1.718H21zM24 35h2.813v.573H24z"/></g></g></g></g></svg>