<svg xmlns="http://www.w3.org/2000/svg" width="49" height="48" viewBox="0 0 50 49" shape-rendering="geometricPrecision" text-rendering="geometricPrecision" image-rendering="optimizeQuality" fill-rule="evenodd" clip-rule="evenodd"><defs><linearGradient id="id0" gradientUnits="userSpaceOnUse" x1="11.458" y1="36.528" x2="39.671" y2="11"><stop offset="0" stop-color="#dbefff"/><stop offset="1" stop-color="#fff"/></linearGradient><style>.fil7{fill:#fff212}.fil2{fill:#ed3237}.fil4{fill:#51a8b1}.fil6{fill:#000}.fil11{fill:#fefefe;fill-rule:nonzero}.fil1,.fil10,.fil9{fill:#2887d2;fill-rule:nonzero}.fil10,.fil9{fill:#4e901e}.fil9{fill:#7ed63e}</style></defs><g id="Layer_x0020_1"><g id="_544802384"><path d="M10 3V1s1 1 2 1h3c1-1 1-2 1-2s1 2 3 2c1 0 2-1 3-1 0 0 1 1 3 1s3-1 3-1 1 1 3 1 3-1 3-1 1 1 3 1 3-1 3-1v43s0 2 1 2c1 1-2 0-2 0s-10 1-12 1-11 0-15-3c-3-2-2-8-2-8V3z" fill="url(#id0)"/><path class="fil1" d="M14 3l-1-2h2V0h1l1 1h-1v1h-1v1h-1zm-3-2h-1l1-1v1h2l1 2h-2V2h-2V1h1zm0 40h-1V1h1v40zm28 5v1h-6l-1 1h-8l-1-1h-6l-1-1h-3v-1h-1l-1-1-1-1v-2h1v1l1 1 1 1h1l1 1h2l1 1h21zm4-1v2h-4v-1h1v-1h3zm-4-2h2v2h2v1-1h-1l1 1h-3v-1l-1-1v-1zm2-12v12h-2V31h2zm0-31v31h-2V0h2zm-4 1v2h-1V2h-2V1l1-1v1h2zm3-1l1 1h-1v1h-1l-1 1h-1V1h2V0h1zm-9 3V1h2V0h1l1 1h-1v1h-1v1h-2zm-3-2l1-1v1h2v2h-1V2h-2V1zm-3 0v2h-1V2h-2V1l1-1v1h2zm3-1l1 1h-1v1h-1v1h-2V1h2V0h1zm-9 3V1h2V0h1l1 1h-1v1h-1v1h-2zm-3-2l1-1v1h2v2h-1V2h-2V1z"/><path class="fil2" d="M48 42c1-3 1-13 1-13s-1 1-3 1h-1s-1 1-2 1-2-1-2-1h-1v13s0 3 2 3c3 0 5-1 6-4z"/><path id="1" class="fil1" d="M49 30v-1 1h1v5l-1 1v6h-1V29l1 1zm-3 1v-1h2v-1h1v1h-1v1h-2zm-1-1l-1-1 1 1v-1 1-1 1h1v1h-1v-1h-1 1zm-2 1v-1h1v-1l1 1v1h-2zm-2-1l-1-1h1v1h2v1h-2v-1h-1 1zm-1-1l1 1h-2l1-1zm-1 1v-1h1l-1 1zm0 13V30h2v13h-2zm0 0zm3 2v1h-2v-2h-1v-1h2v2h1zm6-3h1v1h-1v1h-1v1h-1v1h-4v-1h4v-1h1v-2h1z"/><g id="_788251512"><circle class="fil2" cx="25" cy="13" r="8"/><path d="M26 15v-1h-1l-1-1h-1c0-1-1-1-1-1v-1c0-1 0-2 1-2 0-1 1-1 2-1V7h1v1c1 0 1 0 2 1v2h-2v-1h-1-1v2h1c1 0 1 1 2 1h1v4c-1 1-1 1-2 1v1h-1v-1c-1 0-2 0-2-1-1-1-1-1-1-2h2v1h2v-1z" fill="#fff212" fill-rule="nonzero"/></g><g id="_788250480"><path class="fil4" d="M14 23h22.644v2.053H14zM14 27h22.644v2.053H14zM14 32h22.644v2.053H14z"/></g><path class="fil4" d="M14 37h22.644v2.053H14z"/><g id="_544802648"><rect x="2" y="29" width="16.648" height="9.988" rx="1" ry="1" fill="#4e8ac8"/><path class="fil6" d="M2 30h16.648v.877H2z"/><path class="fil7" d="M3 34h.984v1.094H3zM4 34h.984v1.094H4zM6 34h.984v1.094H6zM7 34h.984v1.094H7zM8 34h.984v1.094H8zM10 34h.984v1.094H10z"/><g><rect y="31" width="16.648" height="9.988" rx="1" ry="1" fill="#fc4d44"/><path class="fil6" d="M0 33h16.648v.877H0z"/><path class="fil7" d="M1 36h.984v1.094H1zM2 36h.984v1.094H2zM4 36h.984v1.094H4zM5 36h.984v1.094H5zM6 36h.984v1.094H6zM8 36h.984v1.094H8z"/></g><g><path class="fil9" d="M8 46h23V34H8z"/><path class="fil10" d="M29 37v6c-1 0-2 1-2 2H11c0-1 0-2-2-2v-6c2 0 2-1 2-2h16c0 1 1 2 2 2z"/><path class="fil11" d="M21 40c0 1 0 2-2 2-1 0-2-1-2-2s1-2 2-2c2 0 2 1 2 2z"/><path class="fil9" d="M8 38v8h8c-2 0-4-1-6-2-1-2-2-3-2-6z"/><path class="fil11" d="M24 41h2v-1h-2zM13 41h2v-1h-2z"/><g><path class="fil9" d="M5 49h22V37H5z"/><path class="fil10" d="M26 40v5c-1 0-2 1-2 2H8c0-1-1-2-2-2v-5c1 0 2-1 2-2h16c0 1 1 2 2 2z"/><path class="fil11" d="M18 43c0 1-1 2-2 2s-2-1-2-2 1-2 2-2 2 1 2 2z"/><path class="fil9" d="M5 41v8h7c-2 0-3-1-5-2-1-2-2-4-2-6z"/><path class="fil11" d="M21 43h2v-1h-2zM9 43h2v-1H9z"/></g></g></g></g></g></svg>