<?xml version="1.0" encoding="UTF-8"?>
<!DOCTYPE svg PUBLIC "-//W3C//DTD SVG 1.1//EN" "http://www.w3.org/Graphics/SVG/1.1/DTD/svg11.dtd">
<!-- Creator: CorelDRAW X7 -->
<svg xmlns="http://www.w3.org/2000/svg" xml:space="preserve" width="48px" height="32px" version="1.1" style="shape-rendering:geometricPrecision; text-rendering:geometricPrecision; image-rendering:optimizeQuality; fill-rule:evenodd; clip-rule:evenodd"
viewBox="0 0 48 32"
 xmlns:xlink="http://www.w3.org/1999/xlink">
 <defs>
  <style type="text/css">
   <![CDATA[
    .fil1 {fill:#FEFEFE}
    .fil7 {fill:#ED3237}
    .fil3 {fill:#51A8B1}
    .fil0 {fill:#2887D2}
    .fil4 {fill:#2887D2}
    .fil5 {fill:white}
    .fil8 {fill:#FFF212;fill-rule:nonzero}
    .fil6 {fill:#F58634;fill-rule:nonzero}
    .fil2 {fill:#2887D2;fill-rule:nonzero}
   ]]>
  </style>
 </defs>
 <g id="Layer_x0020_1">
  <metadata id="CorelCorpID_0Corel-Layer"/>
  <g id="_546736864">
   <g>
    <path class="fil0" d="M29 26l17 0c1,0 2,0 2,-1l0 -24c0,0 -1,-1 -2,-1l-17 0 0 0 -2 0 0 26 2 0z"/>
    <rect class="fil1" x="29" y="1" width="17.3159" height="24.0318"/>
    <g>
     <g>
      <g>
       <polygon class="fil2" points="45,6 31,6 31,5 45,5 "/>
      </g>
      <g>
       <polygon class="fil2" points="38,23 38,6 38,6 38,23 "/>
      </g>
      <rect class="fil3" x="39" y="8" width="5.84285" height="0.833729"/>
      <rect class="fil3" x="39" y="10" width="5.84285" height="0.833729"/>
      <rect class="fil3" x="39" y="12" width="5.84285" height="0.833729"/>
      <rect class="fil3" x="31" y="15" width="5.84285" height="0.833729"/>
      <rect class="fil3" x="39" y="15" width="5.84285" height="0.833729"/>
      <rect class="fil3" x="31" y="8" width="5.84285" height="0.833729"/>
      <rect class="fil3" x="31" y="10" width="5.84285" height="0.833729"/>
      <rect class="fil3" x="31" y="12" width="5.84285" height="0.833729"/>
      <rect class="fil3" x="31" y="17" width="5.84285" height="0.833729"/>
      <rect class="fil3" x="39" y="17" width="5.84285" height="0.833729"/>
      <rect class="fil3" x="31" y="19" width="5.84285" height="0.833729"/>
      <rect class="fil3" x="39" y="19" width="5.84285" height="0.833729"/>
      <rect class="fil3" x="31" y="21" width="5.84285" height="0.833729"/>
      <rect class="fil3" x="39" y="21" width="5.84285" height="0.833729"/>
     </g>
     <path class="fil2" d="M33 5l0 -3 1 0c0,0 1,1 1,1 0,0 0,0 0,0 0,0 0,0 0,1l0 0c0,0 0,0 0,0 0,1 0,1 0,1 0,0 -1,0 -1,0l-1 0zm1 -2l0 2 0 0c0,0 0,-1 1,-1 0,0 0,0 0,0l0 0c0,-1 0,-1 0,-1 -1,0 -1,0 -1,0l0 0z"/>
     <path class="fil2" d="M43 4c0,0 0,1 0,1 0,0 -1,0 -1,0 0,0 0,0 -1,0 0,-1 0,-1 0,-1l0 0c0,-1 0,-1 0,-1 0,0 1,0 1,0 0,0 0,-1 0,-1 0,0 1,1 1,1 0,0 0,0 0,0l0 0c0,0 0,0 0,0 -1,0 -1,0 -1,0 0,0 0,0 0,0 0,0 0,0 0,1l0 0c0,0 0,0 0,0 0,1 0,1 0,1 0,0 0,0 1,-1 0,0 0,0 0,0l0 0z"/>
    </g>
   </g>
   <g>
    <g id="_546742000">
     <g>
      <polygon class="fil1" points="0,10 24,10 24,29 0,29 "/>
      <path id="1" class="fil2" d="M24 10l-24 0 0 -1 24 0 0 1 0 0zm0 -1l0 0 0 1 0 -1zm-1 20l0 -19 1 0 0 19 0 1 -1 -1zm1 0l0 1 0 0 0 -1zm-24 0l24 0 0 1 -24 0 0 -1 0 0zm0 1l0 0 0 -1 0 1zm1 -20l0 19 -1 0 0 -19 0 -1 1 1zm-1 0l0 -1 0 0 0 1z"/>
     </g>
     <path class="fil4" d="M24 9c0,0 0,0 0,0l0 -3c0,0 -1,0 -1,0l-22 0c0,0 -1,0 -1,0l0 3c0,0 0,0 0,0l24 0z"/>
     <circle class="fil5" cx="3" cy="7" r="1"/>
     <circle class="fil5" cx="5" cy="7" r="1"/>
     <circle class="fil5" cx="8" cy="7" r="1"/>
    </g>
    <g>
     <rect class="fil3" x="3" y="13" width="11.5938" height="1.13771"/>
     <rect class="fil3" x="3" y="16" width="11.5938" height="1.13771"/>
     <rect class="fil3" x="3" y="19" width="11.5938" height="1.13771"/>
     <rect class="fil3" x="3" y="22" width="11.5938" height="1.13771"/>
     <rect class="fil3" x="3" y="25" width="11.5938" height="1.13771"/>
    </g>
   </g>
   <path class="fil6" d="M17 19l13 0 0 3 5 -7 -5 -6 0 3 -13 0 0 7zm6 0m7 1m2 -1m0 -7m-2 -2m-7 2m-6 3"/>
   <g>
    <circle class="fil7" cx="20" cy="26" r="5"/>
    <path class="fil8" d="M21 28c0,0 0,0 0,-1 0,0 0,0 -1,0 0,0 0,0 0,0 -1,-1 -1,-1 -1,-1 0,0 0,0 0,0 -1,-1 -1,-1 -1,-1 0,-1 1,-1 1,-1 0,-1 1,-1 1,-1l0 -1 1 0 0 1c0,0 1,0 1,1 0,0 1,1 1,1l-2 0c0,0 0,-1 0,-1 0,0 0,0 -1,0 0,0 0,0 0,0 0,0 0,1 0,1 0,0 0,0 0,0 0,1 0,1 1,1 0,0 0,0 1,0 0,0 0,1 0,1 0,0 0,0 0,0 1,0 1,1 1,1 0,0 -1,1 -1,1 0,1 -1,1 -1,1l0 1 -1 0 0 -1c-1,0 -1,-1 -1,-1 -1,0 -1,-1 -1,-1l1 0c0,0 1,0 1,0 0,1 0,1 0,1 1,0 1,0 1,0 0,-1 0,-1 0,-1z"/>
   </g>
  </g>
 </g>
</svg>
