<svg width="38" height="44" viewBox="0 0 38 44" fill="none" xmlns="http://www.w3.org/2000/svg">
<path fill-rule="evenodd" clip-rule="evenodd" d="M5.00032 0H26.809V34.0522H5.00032C4.23511 34.0522 3.08728 33.287 3.08728 32.1391V1.91304C3.08728 0.765217 4.23511 0 5.00032 0Z" fill="#2887D2"/>
<path fill-rule="evenodd" clip-rule="evenodd" d="M26.809 0L29.4872 2.67826V10.713L26.809 13.0087V0Z" fill="#0E6DB5"/>
<path fill-rule="evenodd" clip-rule="evenodd" d="M1.93937 3.06091H25.2785C24.8959 13.0087 25.2785 23.3392 25.2785 33.6696C25.2785 34.4348 24.5133 34.8174 23.7481 34.8174H1.93937C1.17415 34.8174 0.408936 34.4348 0.408936 33.6696V4.20874C0.408936 3.82613 1.17415 3.06091 1.93937 3.06091Z" fill="#FEFEFE"/>
<path d="M25.2785 3.4435H1.93941V2.67828H25.2785L25.6611 3.06089L25.2785 3.4435ZM25.2785 2.67828H25.6611V3.06089L25.2785 2.67828ZM25.6611 33.6696H24.8959V32.5218V31.7565V30.6087V29.8435V28.6957V27.9305V26.7826V26.0174V24.8696V24.1044V22.9565V22.1913L24.5133 21.0435V20.2783V19.1305V18.3652V17.2174V16.4522V15.3044V14.5392V13.3913V12.6261V11.4783V10.7131V9.56524V8.80002V7.6522V6.88698V5.73915V4.97394V4.20872V3.06089H25.6611V4.20872V4.97394V5.73915V6.88698V7.6522V8.80002V9.56524V10.7131V11.4783V12.6261V13.3913V14.5392V15.3044V16.4522V17.2174V18.3652V19.1305V20.2783V21.0435V22.1913V22.9565V24.1044V24.8696V26.0174V26.7826V27.9305V28.6957V29.8435V30.6087V31.7565V32.5218V33.6696ZM23.7481 35.2V34.4348H24.1307H24.5133V34.0522H24.8959V33.6696H25.6611V34.0522V34.4348H25.2785V34.8174H24.8959V35.2H24.5133H24.1307H23.7481ZM1.93941 34.4348H23.7481V35.2H1.93941V34.4348ZM0.0263672 33.6696H0.791584H1.17419V34.0522L1.5568 34.4348H1.93941V35.2H1.5568H1.17419H0.791584V34.8174H0.408976V34.4348H0.0263672V34.0522V33.6696ZM0.791584 4.20872V33.6696H0.0263672V4.20872H0.791584ZM1.93941 2.67828V3.4435H1.5568V3.82611H1.17419V4.20872H0.791584H0.0263672V3.82611L0.408976 3.4435V3.06089H0.791584L1.17419 2.67828H1.5568H1.93941Z" fill="#2887D2"/>
<path d="M13.4751 18.3652H2.70463C2.49332 18.3652 2.32202 18.7078 2.32202 19.1305V19.5079C2.32202 19.9305 2.49332 20.2731 2.70463 20.2731H13.4751C13.6864 20.2731 13.8577 19.9305 13.8577 19.5079V19.1305C13.8577 18.7078 13.6864 18.3652 13.4751 18.3652Z" fill="#2887D2"/>
<path fill-rule="evenodd" clip-rule="evenodd" d="M16.0959 7.26959H22.2177V13.3913H16.0959V7.26959Z" fill="#FEFEFE"/>
<path d="M22.2177 8.03479H16.096V6.88696H22.2177L22.6003 7.26957L22.2177 8.03479ZM22.2177 6.88696H22.6003V7.26957L22.2177 6.88696ZM21.8351 13.3913V7.26957H22.6003V13.3913L22.2177 13.7739L21.8351 13.3913ZM22.6003 13.3913V13.7739H22.2177L22.6003 13.3913ZM16.096 13.0087H22.2177V13.7739H16.096L15.7134 13.3913L16.096 13.0087ZM16.096 13.7739H15.7134V13.3913L16.096 13.7739ZM16.4786 7.26957V13.3913H15.7134V7.26957L16.096 6.88696L16.4786 7.26957ZM15.7134 7.26957V6.88696H16.096L15.7134 7.26957Z" fill="#2887D2"/>
<path d="M22.9829 6.12173C22.9829 5.73913 22.9829 5.73913 22.6003 6.12173L18.7742 10.3304L16.4786 8.8H16.0959V9.1826L18.3916 12.6261H18.7742C18.7742 12.6261 18.7742 12.6261 19.1568 12.6261L22.9829 6.50434C23.3655 6.50434 23.3655 6.12173 22.9829 6.12173Z" fill="#00A859"/>
<path d="M22.6003 6.12174V5.73914H22.9829H23.3655L22.9829 6.12174H22.6003ZM18.7742 10.3304L22.6003 5.73914V6.12174L19.1568 10.3304H18.7742ZM19.1568 10.3304L18.7742 10.713V10.3304H19.1568ZM16.8612 8.4174L18.7742 10.3304L16.4786 8.80001L16.8612 8.4174ZM16.0959 8.80001V8.4174H16.4786H16.8612L16.4786 8.80001H16.0959ZM16.0959 8.80001V9.18261V8.80001ZM16.0959 9.18261V8.80001V9.18261ZM18.3916 12.6261L16.0959 9.18261L18.3916 12.2435V12.6261ZM18.7742 12.6261H18.3916V12.2435H18.7742V12.6261ZM18.7742 12.2435L19.1568 12.6261H18.7742V12.2435ZM23.3655 6.50435L19.1568 12.6261L18.7742 12.2435L22.9829 6.50435H23.3655ZM22.9829 6.12174L23.3655 5.73914V6.12174V6.50435H22.9829V6.12174Z" fill="#FEFEFE"/>
<path fill-rule="evenodd" clip-rule="evenodd" d="M16.0959 14.9218H22.2177V21.0436H16.0959V14.9218Z" fill="#FEFEFE"/>
<path d="M22.2177 15.687H16.096V14.5392H22.2177L22.6003 14.9218L22.2177 15.687ZM22.2177 14.5392H22.6003V14.9218L22.2177 14.5392ZM21.4525 21.0435V14.9218H22.6003V21.0435L22.2177 21.8088L21.4525 21.0435ZM22.6003 21.0435V21.8088H22.2177L22.6003 21.0435ZM16.096 20.6609H22.2177V21.8088H16.096L15.7134 21.0435L16.096 20.6609ZM16.096 21.8088H15.7134V21.0435L16.096 21.8088ZM16.4786 14.9218V21.0435H15.7134V14.9218L16.096 14.5392L16.4786 14.9218ZM15.7134 14.9218V14.5392H16.096L15.7134 14.9218Z" fill="#2887D2"/>
<path d="M22.9829 13.774C22.9829 13.774 22.6003 13.3914 22.6003 13.774L18.7742 17.9827L16.4786 16.4522H16.0959V16.8348L18.3916 20.2783C18.3916 20.2783 18.3916 20.2783 18.7742 20.2783L22.9829 14.1566V13.774Z" fill="#00A859"/>
<path d="M22.6003 13.7739V13.3913H22.9829V13.7739H22.6003ZM22.6003 13.7739V13.3913V13.7739ZM18.7742 17.9826L22.6003 13.7739L18.7742 17.9826V18.3652V17.9826ZM18.7742 17.9826V18.3652V17.9826ZM16.4786 16.4522L18.7742 17.9826V18.3652L16.4786 16.4522ZM16.096 16.4522V16.0696H16.4786V16.4522H16.096ZM16.096 16.8348H15.7134V16.4522H16.096V16.8348ZM18.3916 20.2783L16.096 16.8348L18.3916 19.8957V20.2783ZM18.7742 20.2783H18.3916V19.8957V20.2783H18.7742ZM18.7742 19.8957L19.1569 20.2783H18.7742V19.8957ZM23.3656 14.1565L19.1569 20.2783L18.7742 19.8957L22.9829 14.1565H23.3656ZM22.9829 13.7739H23.3656V14.1565H22.9829V13.7739ZM22.9829 13.7739V13.3913V13.7739Z" fill="#FEFEFE"/>
<path fill-rule="evenodd" clip-rule="evenodd" d="M16.4785 27.9304C16.4785 27.9304 16.4785 26.7826 16.8611 26.4C18.009 24.8696 20.6872 23.7217 22.6003 22.9565L22.9829 23.3391C22.9829 23.7217 18.3916 26.4 18.009 27.1652C17.6263 27.5478 16.8611 27.9304 16.4785 27.9304Z" fill="#FDD1A1"/>
<path fill-rule="evenodd" clip-rule="evenodd" d="M15.3307 31.3739C15.3307 31.3739 15.3307 31.3739 15.3307 30.9913C15.7133 30.2261 16.0959 29.4609 16.0959 29.0782C16.4785 28.313 18.7742 26.0174 18.7742 26.0174L22.2176 22.1913C22.2176 22.1913 22.2176 22.1913 22.2176 21.8087C21.835 21.8087 21.835 21.8087 21.835 21.8087C21.835 21.8087 21.4524 21.8087 21.4524 21.4261C21.4524 21.4261 21.835 21.0435 22.2176 20.6609C22.6003 20.2782 24.5133 18.3652 24.5133 18.3652C24.5133 18.3652 24.5133 17.6 24.8959 17.9826L25.2785 18.3652C25.2785 18.3652 25.6611 17.9826 26.0437 18.3652C26.4263 18.3652 26.8089 18.7478 26.8089 19.1304C27.1916 19.1304 27.1916 19.513 26.8089 19.8956L24.5133 22.1913L19.1568 28.6956L17.2437 30.6087C17.2437 30.6087 16.4785 30.9913 16.0959 31.3739H15.3307Z" fill="black"/>
<path fill-rule="evenodd" clip-rule="evenodd" d="M16.4785 30.6087C16.4785 30.6087 17.2437 30.9913 17.6263 31.3739C18.0089 31.7565 19.1568 32.5217 19.5394 32.9043C20.3046 33.2869 21.0698 33.6695 21.835 34.0522C22.2176 34.0522 22.2176 34.0522 22.2176 34.0522C22.2176 34.0522 22.9828 34.8174 23.3654 35.5826C23.7481 36.3478 25.2785 40.5565 25.2785 40.5565L26.4263 42.4695C26.4263 42.4695 31.4002 38.2608 32.9307 37.113C34.4611 35.9652 34.8437 35.2 34.8437 35.2C34.8437 35.2 32.9307 32.5217 32.5481 31.7565C32.1655 30.9913 31.7828 30.6087 31.7828 30.2261C31.7828 29.8435 31.7828 29.4608 31.7828 28.6956C31.7828 27.9304 31.7828 26.4 31.0176 25.6348C30.635 25.2522 30.635 24.8695 30.2524 24.4869C30.2524 24.1043 29.8698 24.1043 29.4872 23.7217H29.1046C29.1046 23.7217 28.722 22.9565 28.3394 22.9565C27.5741 22.5739 27.1915 22.5739 26.8089 22.5739C26.4263 22.5739 26.4263 22.5739 26.4263 22.5739C26.4263 22.5739 25.6611 22.1913 25.2785 22.1913C24.8959 22.1913 24.5133 22.9565 23.7481 23.3391C22.9828 24.1043 22.2176 25.2522 21.0698 26.0174C20.6872 26.4 20.6872 26.7826 20.3046 27.1652C19.922 27.5478 20.6872 28.313 20.6872 28.6956C21.0698 29.0782 21.4524 29.8435 21.4524 29.8435L21.835 30.2261C21.835 30.2261 19.922 29.0782 19.5394 28.6956C19.1568 28.6956 19.1568 28.313 18.7741 28.313C18.3915 27.9304 17.2437 27.9304 16.8611 28.313C16.0959 29.0782 16.0959 29.4608 16.4785 30.6087Z" fill="#FDD1A1"/>
<path fill-rule="evenodd" clip-rule="evenodd" d="M17.6263 28.6956C17.6263 28.6956 17.2437 28.6956 16.8611 29.0782C16.4785 29.0782 16.8611 29.8434 16.8611 29.8434C16.8611 29.8434 16.8611 30.2261 17.2437 30.2261L18.0089 29.0782C18.0089 29.0782 18.0089 28.6956 17.6263 28.6956Z" fill="#FEFEFE"/>
<path fill-rule="evenodd" clip-rule="evenodd" d="M23.3655 37.113C23.3655 37.113 22.9829 36.7304 22.9829 35.9652C23.3655 35.2 23.7481 34.4348 23.7481 34.4348L32.1655 30.9913C32.1655 30.9913 32.9307 30.9913 33.3133 30.9913C33.696 31.3739 34.0786 32.1391 34.0786 32.1391L34.8438 32.9043L24.1307 37.4957L23.3655 37.113Z" fill="#FEFEFE" stroke="#2887D2" stroke-width="2.08344"/>
<path fill-rule="evenodd" clip-rule="evenodd" d="M24.1307 36.7304C24.1307 36.7304 23.3655 37.113 23.3655 37.4956C22.9829 38.2608 23.7481 39.4087 24.1307 39.7913C24.5133 40.1739 25.6612 43.2347 25.6612 43.2347C25.6612 43.2347 26.0438 44 26.809 44C27.5742 44 37.1394 39.0261 37.1394 39.0261C37.1394 39.0261 37.9046 38.2608 37.9046 37.8782C37.9046 37.4956 35.9916 33.6695 35.609 33.2869C35.609 33.2869 35.2264 32.5217 34.4612 32.1391C34.0785 32.1391 33.6959 32.1391 32.5481 32.5217C31.4003 33.2869 24.1307 36.7304 24.1307 36.7304Z" fill="#0063D4"/>
<path fill-rule="evenodd" clip-rule="evenodd" d="M26.0437 22.5739C26.0437 22.9565 26.4263 22.5739 26.4263 22.9565C26.0437 23.7217 26.0437 24.1043 26.0437 24.1043C26.0437 24.1043 26.4263 23.7217 26.8089 23.3391C26.8089 22.5739 26.8089 22.5739 26.8089 22.5739H26.0437Z" fill="#F1BC81"/>
<path d="M14.1829 30.9913L14.9481 30.2261L15.7133 30.9913H15.3307L14.9481 31.3739V30.9913H14.5655H14.1829ZM12.2698 32.9044L12.6525 32.1391H13.0351V31.7565H13.4177V31.3739H13.8003V30.9913V30.6087H14.1829V30.2261H14.5655V29.8435L14.9481 30.2261L14.1829 30.9913H14.5655H14.9481V31.3739H14.5655V31.7565V32.1391H14.1829V32.5217H13.8003V32.9044H13.4177H13.0351H12.6525H12.2698ZM10.7394 30.9913L10.3568 30.2261V29.8435H10.7394H11.122V30.2261H11.5046V30.6087H11.8872V30.9913V31.3739V31.7565H12.2698L12.6525 32.1391L12.2698 32.9044H11.8872L11.5046 32.5217L11.122 32.1391V31.7565H10.7394V31.3739V30.9913ZM8.06115 33.6696V32.5217H8.44376V32.1391H8.82637V31.7565V31.3739H9.20898V30.9913H9.59159V30.6087L9.9742 30.2261H10.3568L10.7394 30.9913H10.3568V31.3739L9.9742 31.7565V32.1391H9.59159V32.5217V32.9044H9.20898V33.287H8.82637H8.44376L8.06115 33.6696ZM6.53072 30.6087L6.91333 29.8435H7.29594V30.2261H7.67854V30.6087V30.9913V31.3739H8.06115V31.7565V32.1391V32.5217V33.6696V33.287H7.67854H7.29594V32.9044H6.91333V32.5217V32.1391V31.7565V31.3739V30.9913H6.53072V30.6087ZM4.23507 32.5217L3.46985 33.287V32.9044V32.5217V32.1391H3.85246V31.7565L4.23507 31.3739L4.61767 30.9913L5.00028 30.6087L5.38289 30.2261L5.7655 29.8435H6.14811H6.53072H6.91333L6.53072 30.6087V30.9913H6.14811H5.7655V31.3739H5.38289V31.7565H5.00028V32.1391L4.61767 32.5217V32.9044H4.23507V33.287V32.5217ZM5.00028 32.5217L5.7655 33.287H5.38289V33.6696H5.00028H4.61767H4.23507H3.85246H3.46985V33.287L4.23507 32.5217V32.9044H4.61767V32.5217H5.00028ZM7.29594 29.4609H8.06115H8.44376V29.8435V30.2261V30.6087H8.06115V30.9913V31.3739H7.67854V31.7565H7.29594V32.1391L6.91333 32.5217H6.53072V32.9044H6.14811V33.287H5.7655L5.00028 32.5217H5.38289V32.1391H5.7655L6.14811 31.7565H6.53072V31.3739L6.91333 30.9913V30.6087H7.29594V30.2261V29.8435V29.4609ZM4.61767 29.8435L3.85246 28.6957H4.23507H4.61767H5.00028V28.313H5.38289H5.7655H6.14811H6.53072H6.91333H7.29594L7.67854 28.6957H8.06115V29.0783V29.4609H7.29594H6.91333V29.0783H6.53072H6.14811L5.7655 29.4609H5.38289H5.00028H4.61767V29.8435Z" fill="#2887D2"/>
<path d="M13.4751 23.7217H2.70463C2.49332 23.7217 2.32202 24.0643 2.32202 24.487V24.8644C2.32202 25.287 2.49332 25.6296 2.70463 25.6296H13.4751C13.6864 25.6296 13.8577 25.287 13.8577 24.8644V24.487C13.8577 24.0643 13.6864 23.7217 13.4751 23.7217Z" fill="#2887D2"/>
<path d="M9.2089 13.7739C9.2089 13.3913 9.2089 13.0087 8.82629 13.0087C8.82629 12.6261 8.44368 12.6261 8.06107 12.6261C7.67847 12.2435 7.29586 12.2435 6.91325 11.8609C6.91325 11.8609 6.53064 11.8609 6.14803 11.4782C6.14803 11.4782 5.76542 11.0956 5.76542 10.713C5.76542 10.713 5.76542 10.3304 5.76542 9.94781C5.76542 9.18259 5.76542 8.79999 6.14803 8.41738C6.53064 8.03477 7.29586 7.65216 7.67847 7.65216V7.26955V6.88694C7.67847 6.50433 8.06107 6.50433 8.06107 6.50433H8.44368C8.44368 6.50433 8.82629 6.50433 8.82629 6.88694V7.26955V7.65216C9.2089 7.65216 9.97412 8.03477 10.3567 8.41738C10.7393 8.79999 10.7393 9.18259 10.7393 9.94781C10.7393 10.3304 10.3567 10.713 10.3567 10.713H9.59151C9.59151 10.713 9.2089 10.3304 9.2089 9.94781C9.2089 9.5652 9.2089 9.5652 8.82629 9.18259C8.82629 9.18259 8.44368 8.79999 8.06107 8.79999C8.06107 8.79999 7.67847 9.18259 7.29586 9.18259C7.29586 9.18259 7.29586 9.5652 7.29586 9.94781C7.29586 10.3304 7.29586 10.3304 7.29586 10.713C7.67847 10.713 8.06107 11.0956 8.44368 11.0956C8.82629 11.0956 9.2089 11.4782 9.59151 11.4782C9.59151 11.8609 9.97412 11.8609 10.3567 12.2435C10.3567 12.2435 10.3567 12.6261 10.7393 12.6261C10.7393 13.0087 10.7393 13.3913 10.7393 13.7739C10.7393 14.1565 10.7393 14.9217 10.3567 15.3043C9.97412 15.6869 9.2089 15.6869 8.44368 15.6869V16.4522V16.8348H8.06107C7.67847 16.8348 7.67847 16.8348 7.67847 16.8348V16.4522V16.0696C6.91325 15.6869 6.53064 15.6869 6.14803 14.9217C5.38281 14.5391 5.38281 14.1565 5.38281 13.3913L5.76542 13.0087H6.53064L6.91325 13.3913C6.91325 13.7739 6.91325 14.1565 7.29586 14.1565C7.29586 14.5391 7.67847 14.5391 8.06107 14.5391C8.44368 14.5391 8.82629 14.5391 8.82629 14.5391C9.2089 14.1565 9.2089 14.1565 9.2089 13.7739Z" fill="#04870F"/>
</svg>
