<svg width="44" height="36" viewBox="0 0 44 36" fill="none" xmlns="http://www.w3.org/2000/svg">
<path fill-rule="evenodd" clip-rule="evenodd" d="M20.1666 0.766663H35.5666L40.6999 5.53333V5.16666C41.0666 5.53333 41.0666 5.53333 41.0666 5.9V28.2667C41.0666 29 40.3333 29.3667 39.6 29.3667H20.1666C19.4333 29.3667 18.7 29 18.7 28.2667V1.86666C18.7 1.5 19.4333 0.766663 20.1666 0.766663Z" fill="#FEFEFE"/>
<path d="M35.5666 1.13333H20.1666V0.399994H35.5666H35.9333L35.5666 1.13333ZM35.5666 0.399994H35.9333H35.5666ZM40.6999 5.53333L35.5666 1.13333L35.9333 0.399994L41.0666 5.16666L41.4333 5.53333H40.6999ZM41.4333 5.53333V6.26666L40.6999 5.53333H41.4333ZM41.4333 5.16666V5.53333H40.3333V5.16666H41.0666H41.4333ZM40.3333 5.16666V3.69999L41.0666 5.16666H40.3333ZM41.4333 5.89999H40.6999V5.53333H40.3333L41.0666 5.16666H41.4333V5.53333V5.89999ZM40.6999 28.2667V5.89999H41.4333V28.2667H40.6999ZM39.5999 29.7333V29H39.9666H40.3333V28.6333H40.6999V28.2667H41.4333V28.6333V29H41.0666V29.3667H40.6999V29.7333H40.3333H39.9666H39.5999ZM20.1666 29H39.5999V29.7333H20.1666V29ZM18.3333 28.2667H19.0666V28.6333H19.4333V29H19.7999H20.1666V29.7333H19.7999H19.4333H19.0666V29.3667H18.6999V29H18.3333V28.6333V28.2667ZM19.0666 1.86666V28.2667H18.3333V1.86666H19.0666ZM20.1666 0.399994V1.13333H19.7999L19.4333 1.49999H19.0666V1.86666H18.3333V1.49999V1.13333H18.6999V0.766661H19.0666V0.399994H19.4333H19.7999H20.1666Z" fill="#2887D2"/>
<path d="M38.6566 8.09999H27.5C27.2975 8.09999 27.1333 8.42832 27.1333 8.83332V9.08172C27.1333 9.48673 27.2975 9.81505 27.5 9.81505H38.6566C38.8591 9.81505 39.0233 9.48673 39.0233 9.08172V8.83332C39.0233 8.42832 38.8591 8.09999 38.6566 8.09999Z" fill="#2887D2"/>
<path fill-rule="evenodd" clip-rule="evenodd" d="M35.1999 1.13333V5.16667L39.5999 5.53333L35.1999 1.13333Z" fill="#FEFEFE"/>
<path d="M34.8333 5.16666V1.13333H35.5666L35.9333 5.16666L35.1999 5.53333L34.8333 5.16666ZM35.1999 5.53333H34.8333V5.16666L35.1999 5.53333ZM39.5999 5.89999L35.1999 5.53333V4.79999H39.5999L39.9666 5.16666L39.5999 5.89999ZM39.9666 5.16666L40.6999 5.89999H39.5999L39.9666 5.16666ZM35.5666 1.13333L39.9666 5.16666L39.5999 5.53333L34.8333 1.49999V1.13333H35.5666ZM34.8333 1.13333V0.399994L35.5666 1.13333H34.8333Z" fill="#2887D2"/>
<path d="M38.7728 12.1333H30.7999C30.5974 12.1333 30.4332 12.4617 30.4332 12.8667V13.1151C30.4332 13.5201 30.5974 13.8484 30.7999 13.8484H38.7728C38.9753 13.8484 39.1395 13.5201 39.1395 13.1151V12.8667C39.1395 12.4617 38.9753 12.1333 38.7728 12.1333Z" fill="#2887D2"/>
<path d="M42.1523 15.8H30.4333C29.8257 15.8 29.3333 16.4566 29.3333 17.2667V30.1588C29.3333 30.9689 29.8257 31.6255 30.4333 31.6255H42.1523C42.7598 31.6255 43.2523 30.9689 43.2523 30.1588V17.2667C43.2523 16.4566 42.7598 15.8 42.1523 15.8Z" fill="#FEFEFE"/>
<path fill-rule="evenodd" clip-rule="evenodd" d="M31.1667 19.8333H42.1667C42.5333 19.8333 42.5333 20.2 42.5333 20.5667V30.1C42.5333 30.4667 42.5333 30.8333 42.1667 30.8333H31.1667C30.8 30.8333 30.4333 30.4667 30.4333 30.1V20.5667C30.4333 20.2 30.8 19.8333 31.1667 19.8333Z" fill="#FEFEFE"/>
<path d="M42.1667 20.2H31.1667V19.4667H42.1667V20.2ZM42.9 20.5667H42.1667V20.2V19.4667H42.5334V19.8333H42.9V20.2V20.5667ZM42.1667 30.1V20.5667H42.9V30.1H42.1667ZM42.1667 30.8333V30.4667V30.1H42.9V30.4667H42.5334V30.8333H42.1667ZM31.1667 30.4667H42.1667V30.8333H31.1667V30.4667ZM30.4333 30.1H30.8V30.4667H31.1667V30.8333H30.8H30.4333V30.4667V30.1ZM30.8 20.5667V30.1H30.4333V20.5667H30.8ZM31.1667 19.4667V20.2H30.8V20.5667H30.4333V20.2V19.8333H30.8V19.4667H31.1667Z" fill="#2887D2"/>
<path fill-rule="evenodd" clip-rule="evenodd" d="M30.8 18.3667H42.5333C42.9 18.3667 42.9 18.7333 42.9 19.1V20.9333H30.0667V19.1C30.0667 18.7333 30.4333 18.3667 30.8 18.3667Z" fill="#FC4D44"/>
<path d="M33.2807 16.9H33C32.7975 16.9 32.6333 17.0642 32.6333 17.2667V19.4852C32.6333 19.6877 32.7975 19.8519 33 19.8519H33.2807C33.4832 19.8519 33.6473 19.6877 33.6473 19.4852V17.2667C33.6473 17.0642 33.4832 16.9 33.2807 16.9Z" fill="#2887D2"/>
<path d="M35.4807 16.9H35.2C34.9975 16.9 34.8333 17.0642 34.8333 17.2667V19.4852C34.8333 19.6877 34.9975 19.8519 35.2 19.8519H35.4807C35.6832 19.8519 35.8473 19.6877 35.8473 19.4852V17.2667C35.8473 17.0642 35.6832 16.9 35.4807 16.9Z" fill="#2887D2"/>
<path d="M38.0473 16.9H37.7666C37.5641 16.9 37.4 17.0642 37.4 17.2667V19.4852C37.4 19.6877 37.5641 19.8519 37.7666 19.8519H38.0473C38.2498 19.8519 38.414 19.6877 38.414 19.4852V17.2667C38.414 17.0642 38.2498 16.9 38.0473 16.9Z" fill="#2887D2"/>
<path d="M40.2473 16.9H39.9666C39.7641 16.9 39.6 17.0642 39.6 17.2667V19.4852C39.6 19.6877 39.7641 19.8519 39.9666 19.8519H40.2473C40.4498 19.8519 40.614 19.6877 40.614 19.4852V17.2667C40.614 17.0642 40.4498 16.9 40.2473 16.9Z" fill="#2887D2"/>
<path d="M41.2175 22.0333H39.9667V23.3618H41.2175V22.0333Z" fill="#FEFEFE"/>
<path d="M33.7333 25.3333H34.4666C34.8333 25.3333 35.2 24.9667 35.2 24.9667C35.2 24.9667 35.5666 24.6 35.5666 24.2333L35.2 23.8667C35.2 23.5 34.8333 23.5 34.4666 23.5C34.4666 23.5 34.1 23.5 34.1 23.8667C33.7333 23.8667 33.7333 24.2333 33.7333 24.2333H32.6333C32.6333 23.8667 32.6333 23.5 33 23.5C33 23.1333 33.3666 23.1333 33.3666 22.7667C33.7333 22.7667 34.1 22.7667 34.4666 22.7667C35.2 22.7667 35.5666 22.7667 36.3 23.1333C36.6666 23.5 36.6666 23.8667 36.6666 24.2333C36.6666 24.6 36.6666 24.9667 36.3 24.9667C36.3 25.3333 35.9333 25.7 35.5666 25.7C35.9333 25.7 36.3 26.0667 36.6666 26.0667C36.6666 26.4333 36.6666 26.8 36.6666 27.1667C36.6666 27.5333 36.6666 28.2667 36.3 28.6333C35.9333 28.6333 35.2 29 34.4666 29C34.1 29 33.3666 28.6333 33 28.6333C32.6333 28.2667 32.6333 27.5333 32.6333 27.1667H33.7333C33.7333 27.5333 33.7333 27.5333 34.1 27.9H34.4666C34.8333 27.9 35.2 27.9 35.2 27.9C35.5666 27.5333 35.5666 27.5333 35.5666 27.1667C35.5666 26.4333 35.2 26.0667 34.4666 26.0667H33.7333V25.3333Z" fill="#2887D2"/>
<path d="M40.7 29H39.2333V24.2333L37.7667 24.6V23.5L40.3333 22.7667H40.7V29Z" fill="#2887D2"/>
<path d="M8.79993 13.6C8.0666 13.6 5.49993 13.2333 5.13327 13.2333L4.7666 12.8667L5.13327 12.5C5.49993 12.1333 6.9666 10.3 7.69993 9.93333C8.79993 9.93333 9.89993 10.3 10.2666 11.0333C10.6333 12.1333 9.89993 13.2333 8.79993 13.6Z" fill="#7CB342"/>
<path d="M12.8333 18.7333L11 19.4667C8.79996 19.8333 6.59996 18.7333 5.86663 16.5333C5.1333 14.7 6.2333 12.1333 8.4333 11.4L10.2666 11.0333C12.4666 10.3 14.6666 11.4 15.4 13.6C16.1333 15.8 15.0333 18 12.8333 18.7333Z" fill="#EF4B03"/>
<path d="M13.1999 11.0333C13.1999 11.0333 12.0999 12.1333 11.7332 12.8667L10.6332 16.1667C9.89991 18.3667 6.59991 18.3667 5.86658 16.1667C5.86658 16.5333 5.86658 16.5333 5.86658 16.5333C6.23324 18.3667 7.69991 19.4667 9.53324 19.4667C9.89991 19.4667 10.6332 19.4667 10.9999 19.4667L12.8332 18.7333C15.0332 18 16.1332 15.8 15.3999 13.6C15.0332 12.1333 14.2999 11.4 13.1999 11.0333Z" fill="#DD4503"/>
<path d="M10.2665 12.5L9.53321 12.8667L9.16655 12.1333C8.79988 11.0333 9.53321 9.56666 10.6332 8.83333C10.6332 8.83333 10.6332 8.83333 10.9999 8.83333H11.3665C11.3665 9.19999 11.3665 9.19999 10.9999 9.56666C10.2665 9.93333 9.89988 11.0333 9.89988 12.1333L10.2665 12.5Z" fill="#9CCC65"/>
<path d="M10.9999 12.8667L9.16659 13.2333H8.79993C8.79993 12.8667 8.79993 12.5 8.79993 12.5L10.6333 12.1333H10.9999C10.9999 12.5 10.9999 12.8667 10.9999 12.8667Z" fill="#DD4503"/>
<path d="M17.2333 12.8667L16.1333 13.2333L15.7666 12.5L17.2333 12.1333H17.5999C17.5999 12.5 17.5999 12.8667 17.2333 12.8667Z" fill="#9CCC65"/>
<path d="M15.7667 12.5L15.0333 12.1333L15.7667 10.6667C15.7667 10.3 16.1333 10.3 16.5 10.3C16.5 10.3 16.5 10.6667 16.5 11.0333L15.7667 12.5Z" fill="#9CCC65"/>
<path d="M15.0333 12.1333L14.3 12.5L13.5667 10.6667C13.5667 10.3 13.9333 10.3 13.9333 10.3C14.3 9.93334 14.3 10.3 14.3 10.3L15.0333 12.1333Z" fill="#9CCC65"/>
<path d="M11.7332 21.6667C11.3666 21.6667 10.9999 21.6667 10.6332 21.3C10.2666 21.3 9.8999 20.5667 9.8999 19.8333L12.4666 13.2333C12.8332 12.8667 13.1999 12.1333 13.5666 12.1333C14.2999 11.7667 15.0332 11.7667 15.3999 12.1333C16.1332 12.5 16.4999 12.8667 16.4999 13.6C16.8666 13.9667 16.4999 14.7 16.1332 15.0667L12.4666 20.9333C12.0999 21.3 11.7332 21.3 11.7332 21.6667Z" fill="#FFA000"/>
<path d="M16.1332 14.3333L12.0999 20.2C11.7332 20.5667 11.7332 20.5667 11.3666 20.9333C10.9999 20.9333 10.6332 20.9333 10.2666 20.5667C10.2666 20.5667 10.2666 20.5667 9.8999 20.2C9.8999 20.9333 10.2666 21.3 10.6332 21.3C10.9999 21.6667 11.3666 21.6667 11.7332 21.6667C11.7332 21.3 12.0999 21.3 12.4666 20.9333L16.1332 15.0667C16.4999 14.7 16.8666 13.9667 16.4999 13.6C16.4999 13.2333 16.4999 13.2333 16.4999 12.8667C16.4999 13.6 16.1332 13.9667 16.1332 14.3333Z" fill="#FF8F00"/>
<path d="M12.4665 17.6333C12.4665 18 12.4665 18 12.0999 18L10.9999 17.2667L11.3665 16.5333L12.4665 17.2667C12.8332 17.2667 12.8332 17.6333 12.4665 17.6333Z" fill="#FF8F00"/>
<path d="M14.3 15.0667C14.3 15.4333 13.9333 15.4333 13.9333 15.0667L12.1 14.3333L12.4666 13.6L14.3 14.7C14.3 14.7 14.6666 14.7 14.3 15.0667Z" fill="#FF8F00"/>
<path d="M15.0333 16.9L14.6666 17.2667L13.5666 16.9C13.2 16.5333 13.2 16.5333 13.2 16.1667C13.5666 16.1667 13.5666 16.1667 13.9333 16.1667L15.0333 16.9Z" fill="#FF8F00"/>
<path d="M13.5666 19.4667L12.8333 20.2L12.1 19.4667C11.7333 19.4667 11.7333 19.1 12.1 19.1C12.1 18.7333 12.1 18.7333 12.4666 18.7333L13.5666 19.4667Z" fill="#FF8F00"/>
<path d="M12.8333 16.5333C12.8333 14.7 15.0333 13.2333 17.9666 13.2333C19.0666 13.2333 19.7999 13.6 20.5333 13.9667C21.2666 13.9667 22.3666 14.3333 23.0999 14.7C24.1999 15.0667 24.9333 15.4333 25.2999 16.1667V18C24.9333 18.7333 24.1999 19.4667 23.0999 19.8333C22.3666 20.2 21.2666 20.2 20.5333 20.5667C19.7999 20.9333 19.0666 20.9333 17.9666 20.9333C15.0333 20.9333 12.8333 19.4667 12.8333 18V16.5333Z" fill="#EDB4A2"/>
<path d="M17.9666 13.2333C18.6999 13.2333 19.7999 13.6 20.1666 13.6C21.2666 13.9667 21.9999 14.3333 22.7333 14.7C24.1999 14.7 24.9333 15.4333 25.2999 16.1667V16.9C24.9333 17.6333 24.1999 18 22.7333 18.3667C21.9999 18.7333 21.2666 19.1 20.1666 19.1C19.7999 19.4667 18.6999 19.4667 17.9666 19.4667C15.0333 19.4667 12.8333 18 12.8333 16.5333C12.8333 14.7 15.0333 13.2333 17.9666 13.2333Z" fill="#F3CDC1"/>
<path d="M13.5665 16.9C13.5665 16.5333 13.5665 16.1667 13.9332 16.1667H15.7665C16.8665 16.1667 16.8665 16.5333 16.8665 16.9C16.8665 16.9 16.8665 16.9 16.4999 16.9C16.1332 17.2667 16.1332 17.6333 16.1332 18.3667C16.1332 18.3667 15.7665 18.7333 15.3999 18.7333C14.2999 18 13.5665 17.6333 13.5665 16.9Z" fill="#AE2B00"/>
<path d="M13.1999 16.5333C13.5666 16.5333 13.5666 16.5333 13.5666 16.5333V16.9C13.5666 17.2667 13.9333 17.6333 14.2999 17.6333C14.2999 18 14.2999 18 14.2999 18C14.6666 18 14.6666 18.3667 15.0333 18.3667C15.3999 18.3667 15.3999 18.3667 15.3999 18.3667V18.7333C15.7666 18.7333 16.1333 18.3667 16.1333 18.3667V18V17.6333C16.1333 17.6333 16.1333 17.2667 16.4999 17.2667C16.4999 17.2667 16.4999 17.2667 16.8666 17.2667V17.6333C16.8666 17.6333 16.4999 18 16.4999 18.3667C16.4999 18.7333 16.1333 19.1 15.3999 19.1C15.3999 19.1 15.3999 19.1 15.0333 19.1C14.6666 18.7333 14.2999 18.7333 13.9333 18.3667C13.5666 18 13.1999 17.2667 13.1999 16.9C12.8333 16.9 12.8333 16.9 12.8333 16.5333C13.1999 16.5333 13.1999 16.5333 13.1999 16.5333Z" fill="#E48D72"/>
<path d="M17.9666 14.7C17.5999 15.0667 17.2333 15.4333 16.8666 15.4333C15.7666 15.8 14.6666 15.8 14.6666 15.8C14.2999 15.8 13.9333 15.4333 14.2999 15.0667C15.0333 14.3333 16.1333 13.9667 17.5999 13.9667C18.6999 13.9667 18.6999 14.3333 17.9666 14.7Z" fill="#AE2B00"/>
<path d="M17.2332 15.0667C17.5999 15.0667 17.5999 15.4333 17.5999 15.4333V15.8C17.2332 15.8 17.2332 15.8 16.8665 15.8C16.1332 16.1667 15.3999 16.1667 14.6665 16.1667H14.2999C13.9332 16.1667 13.5665 15.8 13.5665 15.4333C13.5665 15.4333 13.5665 15.4333 13.9332 15.4333C13.9332 15.0667 13.9332 15.4333 13.9332 15.4333C14.2999 15.4333 14.2999 15.4333 14.2999 15.8C14.6665 15.8 14.6665 15.8 14.6665 15.8C15.0332 15.8 16.1332 15.8 16.8665 15.4333C16.8665 15.4333 16.8665 15.4333 17.2332 15.4333C17.2332 15.0667 17.2332 15.0667 17.2332 15.0667Z" fill="#E48D72"/>
<path d="M23.4666 15.4333H23.8332C24.5666 15.4333 24.9332 15.8 25.2999 16.1667V18C24.9332 18.7333 24.1999 19.4667 23.0999 19.8333H22.7332C21.6332 20.2 20.8999 19.4667 20.8999 18.7333C20.8999 17.6333 20.8999 15.4333 23.4666 15.4333Z" fill="#AE2B00"/>
<path d="M17.2332 16.9C17.2332 16.5333 17.2332 16.5333 17.2332 16.1667C17.2332 16.1667 17.2332 15.8 17.5999 15.8C17.9665 15.4333 18.3332 15.4333 18.6999 15.0667C18.6999 15.0667 18.6999 15.0667 18.6999 14.7C19.4332 14.3333 20.1665 14.3333 20.8999 14.3333C21.6332 14.7 21.6332 15.0667 21.2665 15.4333C20.5332 16.1667 20.1665 17.2667 20.1665 18C20.1665 18.7333 19.7999 18.7333 19.7999 18.7333C19.0665 19.1 18.6999 19.1 17.9665 19.1C17.9665 19.1 17.9665 19.1 17.5999 19.1C17.2332 19.1 16.4999 18.3667 16.8665 18C16.8665 17.6333 16.8665 17.6333 17.2332 17.2667V16.9Z" fill="#AE2B00"/>
<path d="M16.5 17.2667C16.8666 17.2667 16.8666 17.2667 16.8666 17.2667C16.8666 17.6333 16.8666 17.6333 16.8666 17.6333V18H16.5C16.5 18.3667 16.8666 18.3667 16.8666 18.7333C17.2333 18.7333 17.2333 18.7333 17.2333 18.7333V19.1C17.6 19.1 17.6 19.1 17.6 19.1C17.9666 19.1 17.9666 19.1 17.9666 19.1C18.3333 19.1 18.3333 19.1 18.3333 19.1C18.3333 19.1 18.7 19.1 19.0666 19.1C19.4333 19.1 19.4333 19.1 19.4333 19.1V18.7333H19.8H20.1666V18.3667H20.5333V18.7333C20.5333 19.1 20.1666 19.1 19.8 19.4667H19.4333C18.7 19.4667 18.3333 19.4667 17.9666 19.4667C17.9666 19.4667 17.9666 19.4667 17.6 19.4667C17.2333 19.4667 16.8666 19.4667 16.5 19.1C16.1333 18.7333 16.1333 18.3667 16.1333 18C16.1333 17.6333 16.1333 17.6333 16.5 17.2667Z" fill="#E48D72"/>
<path d="M13.9332 16.5333C13.9332 16.5333 13.9332 16.9 14.2999 16.9C14.2999 17.2667 14.6665 17.6333 15.3999 18C15.3999 18 15.7665 18.3667 15.3999 18.3667C15.3999 18.3667 15.3999 18.7333 15.0332 18.3667C14.2999 18 13.9332 17.6333 13.5665 16.9C13.5665 16.9 13.5665 16.9 13.9332 16.5333Z" fill="#8E1600"/>
<path d="M14.2999 15.0667L14.6666 14.7H15.0332V15.0667C15.0332 15.0667 15.0332 15.0667 14.6666 15.4333C15.0332 15.4333 15.7666 15.4333 16.4999 15.0667C16.4999 15.0667 16.8666 15.0667 16.8666 14.7C16.8666 14.7 17.2332 14.7 17.2332 15.0667C17.2332 15.0667 17.2332 15.0667 17.2332 15.4333C16.8666 15.4333 16.8666 15.4333 16.8666 15.4333C16.1332 15.8 15.0332 15.8 14.6666 15.8H14.2999V15.4333H13.9332C13.9332 15.4333 13.9332 15.4333 14.2999 15.0667Z" fill="#8E1600"/>
<path d="M17.5999 15.8V16.1667C17.9665 16.1667 17.9665 16.5333 17.9665 16.9C17.9665 17.2667 17.5999 17.2667 17.5999 17.6333C17.2332 17.6333 17.2332 18 17.2332 18V18.3667C17.5999 18.3667 17.5999 18.7333 17.5999 18.7333C17.9665 18.7333 17.9665 18.7333 17.9665 18.7333C18.3332 18.7333 19.0665 18.7333 19.4332 18.3667C19.4332 18.3667 19.7999 18.3667 19.7999 18V17.6333C20.1665 17.6333 20.1665 18 20.1665 18V18.3667C20.1665 18.3667 20.1665 18.7333 19.7999 18.7333C19.0665 19.1 18.6999 19.1 17.9665 19.1C17.9665 19.1 17.9665 19.1 17.5999 19.1C17.5999 19.1 17.5999 19.1 17.2332 19.1V18.7333C17.2332 18.7333 17.2332 18.7333 16.8665 18.7333C16.8665 18.7333 16.4999 18.3667 16.4999 18H16.8665C16.8665 17.6333 16.8665 17.6333 17.2332 17.2667V16.9C17.2332 16.5333 17.2332 16.5333 17.2332 16.1667V15.8H17.5999Z" fill="#8E1600"/>
<path d="M24.2 17.6333C24.5666 17.6333 24.9333 18 24.9333 18.3667C24.9333 18.3667 24.9333 18.3667 24.9333 18.7333C24.9333 18.7333 24.9333 18.7333 24.5666 19.1H24.2C23.8333 19.4667 23.4666 19.4667 23.1 19.8333C22.7333 19.8333 22.7333 19.8333 22.7333 19.8333C22.7333 19.8333 22.3666 19.8333 22.3666 20.2H22C21.6333 20.2 21.2666 19.8333 21.2666 19.4667C20.9 19.1 21.2666 18.7333 21.6333 18.7333H22C22 18.7333 22.3666 18.3667 22.7333 18.3667C23.1 18.3667 23.4666 18 23.4666 18C23.8333 17.6333 23.8333 17.6333 24.2 17.6333Z" fill="#8E1600"/>
<path d="M19.7999 19.8333C20.1665 19.8333 20.5332 19.8333 20.5332 20.2C20.5332 20.5667 20.1665 20.5667 20.1665 20.5667H19.7999C19.7999 20.9333 19.4332 20.9333 19.0665 20.9333H18.6999H18.3332H17.9665H17.5999C17.2332 20.9333 17.2332 20.5667 17.2332 20.5667C17.2332 20.2 17.5999 20.2 17.5999 20.2C17.9665 20.2 17.9665 20.2 17.9665 20.2C17.9665 20.2 17.9665 20.2 18.3332 20.2C18.6999 19.8333 19.4332 19.8333 19.7999 19.8333ZM13.9332 18.7333C14.2999 18.7333 14.2999 18.7333 14.6665 18.7333V19.1C15.0332 19.4667 15.3999 19.4667 16.1332 19.8333C16.1332 19.8333 16.4999 20.2 16.1332 20.2C16.1332 20.5667 15.7665 20.5667 15.3999 20.5667C15.0332 20.5667 14.2999 20.2 13.9332 19.8333C13.9332 19.4667 13.5665 19.4667 13.5665 19.4667C13.5665 19.1 13.5665 18.7333 13.5665 18.7333C13.9332 18.7333 13.9332 18.7333 13.9332 18.7333Z" fill="#E48D72"/>
<path d="M23.1 16.1667C23.1 15.8 23.4666 15.8 23.8333 15.8C24.2 15.8 24.5666 15.8 24.5666 16.1667C24.5666 16.5333 24.2 16.9 23.8333 16.9C23.4666 16.9 23.1 16.5333 23.1 16.1667Z" fill="#D65128"/>
<path d="M21.9999 16.1667H22.3665C22.3665 16.5333 22.3665 16.5333 22.3665 16.5333C22.3665 16.9 21.9999 16.9 21.9999 16.5333C21.9999 16.5333 21.9999 16.5333 21.9999 16.1667Z" fill="#D65128"/>
<path d="M19.0665 15.4333C19.0665 15.0667 19.4332 14.7 19.7999 14.7C20.5332 14.7 20.8999 15.0667 20.8999 15.4333C20.8999 15.4333 20.5332 15.8 19.7999 15.8C19.4332 15.8 19.0665 15.4333 19.0665 15.4333Z" fill="#D65128"/>
<path d="M17.9666 16.1667C17.9666 16.1667 17.9666 16.1667 18.3332 16.1667H18.6999C18.6999 15.8 18.3332 15.8 18.3332 15.8C17.9666 15.8 17.9666 15.8 17.9666 16.1667Z" fill="#D65128"/>
<path d="M16.8666 14.7C16.8666 14.7 16.8666 14.7 17.2332 14.7H17.5999C17.5999 14.3333 17.2332 14.3333 17.2332 14.3333C16.8666 14.3333 16.8666 14.3333 16.8666 14.7Z" fill="#D65128"/>
<path d="M15.7666 16.9C15.7666 17.2667 15.7666 17.2667 16.1333 17.2667C16.1333 17.2667 16.1333 17.2667 16.1333 16.9C15.7666 16.9 15.7666 16.9 15.7666 16.9Z" fill="#D65128"/>
<path d="M27.8667 21.6667C27.8667 22.0333 27.8667 22.0333 27.8667 22.0333C27.8667 23.5 27.8667 25.3333 27.1333 25.3333C26.0333 25.7 24.5667 24.2333 24.5667 22.7667L22.7333 12.1333C22.3667 10.6667 23.1 8.83334 24.2 8.83334C24.9333 8.46668 25.6667 10.3 26.0333 11.7667C26.0333 12.1333 26.4 12.5 26.4 12.8667C26.4 13.2333 26.4 13.9667 26.0333 14.3333C26.4 14.7 26.7667 15.0667 26.7667 15.4333C26.7667 16.1667 26.7667 16.5333 26.4 16.9C26.7667 17.2667 27.1333 17.6333 27.5 18.3667C27.5 18.7333 27.1333 19.4667 27.1333 19.8333C27.5 20.2 27.8667 20.5667 27.8667 20.9333C27.8667 21.3 27.8667 21.6667 27.8667 21.6667Z" fill="#D99F4C"/>
<path d="M26.0333 11.7667V12.1333C25.6666 12.5 25.3 12.5 24.9333 12.5C24.5667 12.5 24.5667 12.5 24.5667 12.5C24.5667 12.1333 24.9333 12.1333 24.9333 12.1333C25.3 12.1333 25.3 12.1333 25.6666 12.1333C25.6666 11.7667 26.0333 11.4 25.6666 11.0333C26.0333 11.4 26.0333 11.7667 26.0333 11.7667Z" fill="#EAC494"/>
<path d="M25.3 15.0667C24.9333 15.0667 24.9333 15.0667 24.9333 15.0667V14.7C24.9333 14.7 24.9333 14.7 25.3 14.7C25.6667 14.7 25.6667 14.3333 26.0334 13.9667C26.0334 13.9667 26.4 13.6 26.4 13.2333C26.4 13.6 26.4 13.9667 26.0334 14.3333H26.4C26.0334 14.7 25.6667 15.0667 25.3 15.0667Z" fill="#EAC494"/>
<path d="M25.6666 17.6333C25.2999 17.6333 25.2999 17.6333 25.2999 17.6333C25.2999 17.2667 25.6666 17.2667 25.6666 17.2667C26.0333 17.2667 26.3999 17.2667 26.3999 16.9C26.7666 16.5333 26.7666 16.5333 26.7666 16.1667C26.7666 16.5333 26.7666 16.9 26.3999 16.9C26.7666 16.9 26.7666 17.2667 26.7666 17.2667C26.3999 17.6333 26.0333 17.6333 25.6666 17.6333Z" fill="#EAC494"/>
<path d="M26.0333 20.2C26.0333 20.2 25.6666 20.2 25.6666 19.8333C26.0333 19.8333 26.0333 19.8333 26.0333 19.8333C26.4 19.8333 26.7666 19.8333 27.1333 19.4667C27.1333 19.4667 27.1333 19.1 27.5 18.7333C27.1333 19.1 27.1333 19.4667 27.1333 19.8333C27.1333 20.2 26.7666 20.2 26.0333 20.2Z" fill="#EAC494"/>
<path d="M26.7667 22.7667C26.7667 22.7667 26.7667 22.7667 26.4 22.7667C26.4 22.4 26.4 22.4 26.7667 22.4C27.1334 22.4 27.5 22.4 27.8667 22.0333V22.4C27.5 22.7667 27.1334 22.7667 26.7667 22.7667Z" fill="#EAC494"/>
<path d="M6.59995 20.2L4.76662 21.3L4.39995 20.5667C4.03328 19.8333 3.29995 19.4667 2.56662 19.4667H2.19995L5.49995 16.9V17.2667C5.49995 18 5.49995 18.7333 5.86662 19.1L6.59995 20.2Z" fill="#43A047"/>
<path d="M6.59994 16.5334C6.59994 16.9 6.59994 17.2667 6.23328 17.2667C6.23328 17.2667 5.86661 17.6334 5.49994 17.2667C5.49994 17.6334 5.49994 17.6334 5.49994 17.6334C5.13328 17.6334 4.76661 18 4.76661 18C4.39994 18 4.39994 18.3667 4.03328 18.3667C4.03328 18.7334 3.66661 18.7334 3.29994 18.7334C3.29994 19.1 2.93328 19.4667 2.93328 19.4667H2.56661C2.56661 19.8334 2.56661 20.2 2.19994 20.2C2.19994 20.5667 1.83328 20.5667 1.46661 20.5667C1.46661 20.2 1.09994 20.2 1.09994 20.2C0.733276 19.8334 0.733276 19.4667 0.733276 19.1C0.733276 18.3667 0.733276 18 1.09994 17.6334C0.733276 16.9 1.09994 16.1667 1.46661 15.8H1.83328C2.19994 15.4334 2.19994 15.4334 2.19994 15.0667C2.93328 14.7 3.66661 15.0667 4.03328 15.4334C4.39994 15.0667 5.13328 15.0667 5.49994 15.4334C5.86661 15.4334 6.23328 15.8 6.59994 15.8C6.59994 16.1667 6.59994 16.5334 6.59994 16.5334Z" fill="#9CCC65"/>
<path d="M5.49994 15.4333C5.49994 15.4333 5.49994 15.4333 5.13328 15.4333C5.13328 15.4333 5.13328 15.8 4.76661 15.8C4.76661 15.8 4.39994 16.1667 4.03328 16.1667C4.03328 16.5333 3.66661 16.5333 3.66661 16.9C3.66661 16.9 3.66661 16.9 3.29994 16.9C2.93328 17.2667 2.93328 17.6333 2.93328 18C2.93328 18.3667 2.93328 18.3667 2.93328 18.7333L2.56661 19.1C2.56661 19.1 2.56661 19.1 2.19994 19.1C2.19994 19.4667 2.19994 19.8333 1.83328 19.8333C1.83328 19.8333 1.46661 20.2 1.09994 19.8333C1.09994 19.8333 1.09994 19.8333 0.733276 19.8333C0.733276 19.8333 0.733276 19.8333 1.09994 20.2C1.09994 20.2 1.46661 20.2 1.46661 20.5667C1.83328 20.5667 2.19994 20.5667 2.19994 20.2C2.56661 20.2 2.56661 19.8333 2.56661 19.4667H2.93328L3.29994 19.1C3.29994 18.7333 3.29994 18.7333 3.29994 18.7333C3.66661 18.7333 4.03328 18.7333 4.03328 18.3667C4.39994 18.3667 4.39994 18 4.76661 18C4.76661 18 5.13328 17.6333 5.49994 17.6333C5.49994 17.6333 5.49994 17.6333 5.49994 17.2667C5.86661 17.6333 6.23328 17.2667 6.23328 17.2667C6.59994 17.2667 6.59994 16.9 6.59994 16.5333C6.59994 16.5333 6.59994 16.1667 6.59994 15.8C6.23328 15.8 5.86661 15.4333 5.49994 15.4333Z" fill="#7CB342"/>
<path d="M7.33324 22.0333L5.13324 21.6667L5.4999 20.5667C5.4999 20.2 5.4999 19.4667 4.76657 18.7333L4.3999 18.3667L9.16657 19.1L8.43324 19.4667C8.06657 19.8333 7.6999 20.2 7.33324 20.9333V22.0333Z" fill="#66BB6A"/>
<path d="M4.3999 18.3667L4.76657 18.7333C5.13324 19.1 5.13324 19.4667 5.13324 19.4667C5.4999 19.4667 5.4999 19.4667 5.86657 19.4667C6.23324 19.4667 6.23324 19.8333 6.5999 19.8333C6.96657 19.8333 7.33324 19.8333 7.33324 19.8333C7.33324 19.8333 7.33324 20.2 7.33324 20.5667L6.96657 21.6667L5.13324 21.3V21.6667L7.33324 22.0333V20.9333C7.6999 20.2 8.06657 19.8333 8.43324 19.4667L9.16657 19.1L4.3999 18.3667Z" fill="#43A047"/>
<path d="M9.89993 19.8333C9.53326 19.8333 9.53326 19.8333 9.16659 19.8333C8.79993 19.8333 8.79993 19.8333 8.43326 19.4667C8.06659 19.4667 7.69993 19.1 7.69993 19.1C7.33326 19.1 6.96659 19.1 6.59993 19.1C6.23326 19.1 6.23326 19.1 5.86659 18.7333C5.86659 19.1 5.49993 19.1 5.13326 19.1C5.13326 19.1 5.13326 19.1 4.76659 18.7333C4.76659 19.1 4.39993 19.1 4.03326 19.1C4.03326 19.1 3.66659 19.1 3.66659 18.7333C3.29993 18.3667 3.29993 18.3667 3.29993 18C3.29993 17.6333 3.66659 17.2667 4.03326 17.2667C4.03326 16.9 4.76659 16.5333 5.13326 16.1667C5.49993 15.8 6.23326 15.4333 6.59993 15.4333C6.96659 15.4333 6.96659 15.4333 7.33326 15.8C7.33326 15.4333 7.69993 15.4333 7.69993 15.4333C8.43326 15.8 8.79993 16.1667 8.79993 16.9C9.53326 16.9 9.89993 17.6333 9.89993 18C10.2666 18.3667 10.2666 18.7333 10.2666 19.1C10.2666 19.4667 9.89993 19.4667 9.89993 19.8333Z" fill="#9CCC65"/>
<path d="M9.89993 18.7333C9.89993 18.7333 9.89993 19.1 9.53326 19.1C9.16659 19.4667 9.16659 19.4667 8.79993 19.4667C8.43326 19.4667 8.43326 19.1 8.06659 19.1C7.69993 19.1 7.33326 18.7333 7.33326 18.7333C6.96659 18.7333 6.59993 18.7333 6.23326 18.7333C6.23326 18.7333 5.86659 18.7333 5.49993 18.3667C5.49993 18.3667 5.13326 18.7333 4.76659 18.3667C4.76659 18.3667 4.76659 18.3667 4.39993 18.3667C4.39993 18.7333 4.03326 18.7333 3.66659 18.7333C3.66659 18.7333 3.66659 18.7333 3.29993 18.3667C3.29993 18.7333 3.66659 18.7333 3.66659 18.7333C3.66659 19.1 4.03326 19.1 4.03326 19.1C4.39993 19.1 4.76659 19.1 4.76659 18.7333C4.76659 19.1 5.13326 19.1 5.13326 19.1C5.49993 19.1 5.86659 19.1 5.86659 18.7333C6.23326 19.1 6.23326 19.1 6.59993 19.1C6.96659 19.1 7.33326 19.1 7.69993 19.1C7.69993 19.1 8.06659 19.4667 8.43326 19.4667C8.79993 19.8333 8.79993 19.8333 9.16659 19.8333C9.53326 19.8333 9.53326 19.8333 9.89993 19.8333C9.89993 19.4667 10.2666 19.4667 10.2666 19.1C10.2666 18.7333 10.2666 18.3667 9.89993 18.3667C9.89993 18.3667 9.89993 18.3667 9.89993 18.7333Z" fill="#7CB342"/>
<path d="M7.33337 28.2667L5.8667 26.8L6.23337 26.0667C6.60003 25.7 6.60003 24.9667 6.60003 24.2333L6.23337 23.5L10.2667 26.0667H9.53337C8.80003 26.4333 8.43337 26.8 8.0667 27.1667L7.33337 28.2667Z" fill="#43A047"/>
<path d="M10.6333 26.8C10.6333 27.1667 10.2666 26.8 9.89998 26.8C9.89998 26.8 9.53331 26.4333 9.53331 26.0667C9.16664 26.0667 8.79998 25.7 8.79998 25.3333C8.43331 25.3333 8.43331 25.3333 8.06664 25.3333C7.69998 24.9667 7.69998 24.9667 7.33331 24.6C7.33331 24.6 6.96664 24.6 6.59998 24.6C6.59998 24.2333 6.59998 24.2333 6.59998 24.2333C6.23331 24.2333 5.86664 24.2333 5.86664 24.2333C5.49998 23.8667 5.49998 23.8667 5.49998 23.5C5.13331 23.5 5.13331 23.1333 5.49998 22.7667C5.49998 22.4 5.86664 22.4 6.23331 22.4C6.59998 22.0333 7.33331 22.0333 7.69998 22.0333C8.43331 21.6667 9.16664 21.6667 9.53331 21.6667C9.53331 22.0333 9.89998 22.0333 9.89998 22.4C10.2666 22.4 10.2666 22.4 10.2666 22.4C11 22.7667 11.3666 23.5 11 23.8667C11.3666 24.2333 11.3666 24.9667 11.3666 25.7C11.3666 25.7 11.3666 26.0667 11.3666 26.4333C11 26.8 11 26.8 10.6333 26.8Z" fill="#9CCC65"/>
<path d="M11.3666 25.7C11.3666 25.3333 11.3666 25.3333 11.3666 25.3333C11.3666 24.9667 11 24.9667 10.6333 24.9667C10.6333 24.9667 10.6333 24.6 10.2666 24.6C9.89998 24.2333 9.53331 24.2333 9.53331 24.2333C9.16664 24.2333 9.16664 24.2333 9.16664 24.2333C8.79998 23.8667 8.43331 23.8667 8.06664 23.8667C7.69998 23.8667 7.69998 23.8667 7.33331 24.2333C7.33331 24.2333 6.96664 24.2333 6.96664 23.8667C6.96664 23.8667 6.96664 23.8667 6.59998 23.8667C6.59998 23.8667 6.23331 23.8667 5.86664 23.8667C5.86664 23.5 5.49998 23.5 5.49998 23.1333V22.7667C5.13331 23.1333 5.13331 23.5 5.49998 23.5C5.49998 23.8667 5.49998 23.8667 5.86664 24.2333C5.86664 24.2333 6.23331 24.2333 6.59998 24.2333C6.59998 24.2333 6.59998 24.2333 6.59998 24.6C6.96664 24.6 6.96664 24.6 7.33331 24.6C7.69998 24.9667 7.69998 24.9667 8.06664 25.3333C8.43331 25.3333 8.43331 25.3333 8.79998 25.3333C8.79998 25.7 9.16664 26.0667 9.53331 26.0667C9.53331 26.4333 9.89998 26.8 9.89998 26.8C10.2666 26.8 10.6333 27.1667 10.6333 26.8C11 26.8 11 26.8 11.3666 26.4333C11.3666 26.0667 11.3666 25.7 11.3666 25.7Z" fill="#7CB342"/>
<path d="M5.86667 29.3667L5.5 27.5333L6.6 27.1667C6.96667 27.1667 7.7 26.8 8.06667 26.0667L8.43333 25.7L9.16667 30.1L8.8 29.7333C8.06667 29.3667 7.7 29 6.96667 29.3667H5.86667Z" fill="#66BB6A"/>
<path d="M8.43333 25.7L8.06667 26.0667C7.7 26.4333 7.7 26.4333 7.33333 26.8C7.7 26.8 7.7 27.1667 7.7 27.1667C7.7 27.5333 7.7 27.9 7.7 27.9C7.7 28.2667 8.06667 28.6333 8.06667 28.6333C8.06667 28.6333 8.06667 28.6333 8.06667 29C7.7 28.6333 7.7 28.6333 7.33333 29H6.23333L5.86667 27.5333H5.5L5.86667 29.3667H6.96667C7.7 29 8.06667 29.3667 8.8 29.7333L9.16667 30.1L8.43333 25.7Z" fill="#43A047"/>
<path d="M9.16659 30.8333C8.79992 30.8333 8.79992 30.8333 8.43325 30.4667C8.43325 30.1 8.43325 30.1 8.79992 29.7333V29.3667C8.43325 29 8.79992 29 8.79992 28.6333C8.43325 28.2667 8.43325 28.2667 8.43325 27.9C8.06659 27.5333 8.43325 27.1667 8.43325 27.1667C8.06659 26.8 8.06659 26.8 8.06659 26.4333V26.0667C7.69992 26.0667 7.69992 25.7 7.33325 25.3333C7.33325 25.3333 7.33325 24.9667 7.69992 24.9667C7.69992 24.6 8.06659 24.6 8.06659 24.2333C8.43325 24.2333 8.79992 24.6 9.16659 24.6C9.53325 24.6 10.2666 24.9667 10.6333 25.7C10.9999 25.3333 11.7333 26.0667 11.7333 26.4333C11.7333 26.8 11.7333 26.8 11.7333 27.1667C12.0999 27.1667 12.0999 27.5333 12.0999 27.5333C12.0999 28.2667 11.7333 29 11.3666 29C11.3666 29.7333 10.9999 30.1 10.2666 30.4667C10.2666 30.8333 9.89992 31.2 9.89992 31.2C9.53325 31.2 9.16659 31.2 9.16659 30.8333Z" fill="#9CCC65"/>
<path d="M9.89992 30.8333C9.89992 30.8333 9.53325 30.8333 9.16658 30.4667L8.79992 30.1C8.79992 29.7333 8.79992 29.3667 9.16658 29.3667C9.16658 29 8.79992 29 8.79992 29C8.79992 28.6333 8.79992 28.2667 9.16658 28.2667C8.79992 27.9 8.79992 27.9 8.43325 27.5333C8.43325 27.1667 8.43325 26.8 8.79992 26.8C8.43325 26.4333 8.43325 26.0667 8.06659 26.0667C8.06659 25.7 8.06659 25.7 8.06659 25.7C8.06659 25.3333 7.69992 25.3333 7.69992 24.9667V24.6C7.69992 24.6 7.69992 24.6 7.69992 24.9667C7.33325 24.9667 7.33325 25.3333 7.33325 25.3333C7.69992 25.7 7.69992 26.0667 8.06659 26.0667V26.4333C8.06659 26.8 8.06659 26.8 8.43325 27.1667C8.43325 27.1667 8.06659 27.5333 8.43325 27.9C8.43325 28.2667 8.43325 28.2667 8.79992 28.6333C8.79992 29 8.43325 29 8.79992 29.3667V29.7333C8.43325 30.1 8.43325 30.1 8.43325 30.4667C8.79992 30.8333 8.79992 30.8333 9.16658 30.8333C9.16658 31.2 9.53325 31.2 9.89992 31.2C9.89992 31.2 10.2666 30.8333 10.2666 30.4667C10.2666 30.4667 10.2666 30.4667 9.89992 30.8333Z" fill="#7CB342"/>
<path d="M7.33333 31.5667L5.5 30.4667L6.23333 29.3667C6.6 29 6.6 28.2667 6.6 27.5333L6.23333 27.1667L10.2667 29.3667L9.53333 29.7333C8.8 29.7333 8.43333 30.1 8.06667 30.8333L7.33333 31.5667Z" fill="#43A047"/>
<path d="M10.6333 30.4667C10.2666 30.4667 10.2666 30.4667 9.89997 30.1L9.5333 29.7333C9.5333 29.7333 9.5333 29.7333 9.16663 29.3667L8.79997 29C8.4333 29 8.06663 29 8.06663 28.6333C7.69997 28.6333 7.69997 28.2667 7.3333 27.9C7.3333 27.9 6.96663 27.9 6.59997 27.9C6.59997 27.9 6.59997 27.9 6.2333 27.5333C6.2333 27.9 5.86663 27.5333 5.86663 27.5333C5.49997 27.5333 5.49997 27.1667 5.1333 27.1667C5.1333 26.8 5.1333 26.4333 5.49997 26.4333C5.49997 26.0667 5.86663 25.7 6.2333 25.7C6.59997 25.3333 7.3333 25.3333 7.69997 25.3333C8.06663 24.9667 8.79997 24.9667 9.5333 25.3333C9.5333 25.3333 9.89997 25.3333 9.89997 25.7H10.2666C11 26.0667 11 26.8 11 27.5333C11.3666 27.9 11.3666 28.2667 11.3666 29C11.3666 29.3667 11.3666 29.7333 11.3666 30.1C11 30.1 11 30.4667 10.6333 30.4667Z" fill="#9CCC65"/>
<path d="M11.3666 29V28.6333C11 28.6333 11 28.6333 10.6333 28.2667L10.2666 27.9C9.89997 27.9 9.5333 27.5333 9.16663 27.5333C8.79997 27.1667 8.4333 27.1667 8.06663 27.1667C7.69997 27.1667 7.69997 27.5333 7.3333 27.5333H6.96663C6.96663 27.1667 6.59997 27.1667 6.59997 27.1667C6.59997 27.1667 6.2333 27.1667 5.86663 27.1667C5.86663 27.1667 5.49997 26.8 5.49997 26.4333V26.0667C5.49997 26.0667 5.49997 26.0667 5.49997 26.4333C5.1333 26.4333 5.1333 26.8 5.1333 27.1667C5.49997 27.1667 5.49997 27.5333 5.86663 27.5333C5.86663 27.5333 6.2333 27.9 6.2333 27.5333C6.59997 27.9 6.59997 27.9 6.59997 27.9C6.96663 27.9 6.96663 27.9 7.3333 27.9C7.69997 28.2667 7.69997 28.6333 8.06663 28.6333C8.06663 29 8.4333 29 8.79997 29L9.16663 29.3667C9.5333 29.7333 9.5333 29.7333 9.5333 29.7333L9.89997 30.1C10.2666 30.4667 10.2666 30.4667 10.6333 30.4667C11 30.4667 11 30.1 11.3666 30.1C11.3666 29.7333 11.3666 29.3667 11.3666 29Z" fill="#7CB342"/>
<path d="M5.86667 33.0333L5.5 30.8333H6.23333C6.96667 30.4667 7.7 30.1 8.06667 29.7333L8.43333 29L9.16667 33.4L8.8 33.0333C8.06667 32.6667 7.7 32.6667 6.96667 32.6667L5.86667 33.0333Z" fill="#66BB6A"/>
<path d="M8.43333 29L8.06667 29.7333C7.7 29.7333 7.7 30.1 7.33333 30.1C7.7 30.4667 7.7 30.4667 7.7 30.4667C7.7 30.8333 7.7 31.2 7.7 31.5667C7.7 31.5667 8.06667 31.9333 8.06667 32.3C7.7 32.3 7.33333 32.3 7.33333 32.3L6.23333 32.6667L5.86667 30.8333H5.5L5.86667 33.0333L6.96667 32.6667C7.7 32.6667 8.06667 32.6667 8.8 33.0333L9.16667 33.4L8.43333 29Z" fill="#43A047"/>
<path d="M8.79992 34.5C8.79992 34.1333 8.79992 34.1333 8.43325 33.7667C8.43325 33.7667 8.43325 33.4 8.79992 33.0333C8.43325 32.6667 8.43325 32.3 8.79992 31.9333C8.43325 31.9333 8.43325 31.5667 8.43325 31.2C8.06659 31.2 8.06659 30.8333 8.43325 30.4667C8.06659 30.4667 8.06659 30.1 8.06659 29.7333C8.06659 29.7333 8.06659 29.7333 8.06659 29.3667C7.69992 29.3667 7.33325 29 7.33325 29C7.33325 28.6333 7.33325 28.2667 7.69992 28.2667C7.69992 27.9 8.06659 27.9 8.06659 27.9C8.43325 27.9 8.79992 27.9 9.16659 28.2667C9.53325 28.2667 10.2666 28.2667 10.2666 29C10.9999 29 11.7333 29.3667 11.7333 30.1V30.4667C11.7333 30.8333 12.0999 30.8333 12.0999 30.8333C12.0999 31.5667 11.7333 32.3 11.3666 32.6667C11.3666 33.0333 10.9999 33.7667 10.2666 33.7667C10.2666 34.1333 9.89992 34.5 9.53325 34.5C9.53325 34.5 9.16659 34.5 8.79992 34.5Z" fill="#9CCC65"/>
<path d="M9.89992 34.1333C9.89992 34.1333 9.53325 34.1333 9.16658 34.1333C9.16658 33.7667 8.79992 33.7667 8.79992 33.4C8.79992 33.0333 8.79992 33.0333 9.16658 32.6667C8.79992 32.6667 8.79992 32.6667 8.79992 32.3C8.79992 32.3 8.79992 31.9333 9.16658 31.5667C8.79992 31.5667 8.43325 31.2 8.43325 30.8333C8.43325 30.4667 8.43325 30.4667 8.79992 30.1C8.43325 29.7333 8.43325 29.7333 8.06659 29.3667V29L7.69992 28.6333C7.69992 28.2667 7.69992 28.2667 7.69992 27.9V28.2667C7.33325 28.2667 7.33325 28.6333 7.33325 29C7.33325 29 7.69992 29.3667 8.06659 29.3667C8.06659 29.7333 8.06659 29.7333 8.06659 29.7333C8.06659 30.1 8.06659 30.4667 8.43325 30.4667C8.06659 30.8333 8.06659 31.2 8.43325 31.2C8.43325 31.5667 8.43325 31.9333 8.79992 31.9333C8.43325 32.3 8.43325 32.6667 8.79992 33.0333C8.43325 33.4 8.43325 33.7667 8.43325 33.7667C8.79992 34.1333 8.79992 34.1333 8.79992 34.5C9.16658 34.5 9.53325 34.5 9.53325 34.5C9.89992 34.5 10.2666 34.1333 10.2666 33.7667C10.2666 34.1333 10.2666 34.1333 9.89992 34.1333Z" fill="#7CB342"/>
<path d="M21.9999 20.9333V22.7667C21.9999 23.1333 21.9999 23.1333 22.3666 23.1333H22.7332C23.0999 23.1333 23.0999 23.1333 23.0999 22.7667V20.9333C23.8332 20.9333 24.1999 20.5667 24.1999 20.2C23.8332 19.8333 23.4666 19.4667 23.0999 19.4667H22.7332H22.3666H21.9999C21.2666 19.4667 20.8999 19.8333 20.8999 20.2C20.8999 20.5667 21.2666 20.9333 21.9999 20.9333Z" fill="#EFE0DB"/>
<path d="M24.1999 20.2C23.8332 19.8333 23.8332 19.4667 23.4665 19.4667C23.4665 19.4667 23.4665 19.8333 23.8332 19.8333C23.8332 20.2 23.4665 20.5667 23.0999 20.5667C22.7332 20.5667 22.7332 20.9333 22.7332 20.9333V22.7667C22.7332 22.7667 22.7332 23.1333 22.3665 23.1333H21.9999C21.9999 23.1333 21.9999 23.1333 22.3665 23.1333H22.7332C23.0999 23.1333 23.0999 23.1333 23.0999 22.7667V20.9333C23.8332 20.9333 24.1999 20.5667 24.1999 20.2Z" fill="#DFD1CB"/>
<path d="M25.2999 26.8C25.2999 28.2667 24.1999 29.3667 22.3666 29.3667C20.8999 29.3667 19.7999 28.2667 19.7999 26.8C19.7999 24.9667 20.8999 22.4 22.3666 22.4C24.1999 22.4 25.2999 24.9667 25.2999 26.8Z" fill="#FDB1B9"/>
<path d="M23.1 22.4C23.8333 23.5 24.2 24.6 24.2 25.3333C24.2 27.1667 22.7333 28.2667 21.2666 28.2667C20.9 28.2667 20.5333 28.2667 20.1666 27.9C20.5333 29 21.6333 29.3667 22.3666 29.3667C24.2 29.3667 25.3 28.2667 25.3 26.8C25.3 25.3333 24.5666 23.1333 23.1 22.4Z" fill="#FC8086"/>
<path d="M20.8999 26.4333C19.7999 26.0667 19.0666 25.3333 18.3333 24.6C17.9666 23.5 16.4999 23.1333 15.3999 23.1333C13.5666 23.1333 12.0999 24.2333 11.7333 26.0667C11.7333 26.8 11.3666 27.1667 10.6333 27.5333C9.53326 27.9 8.79993 29.3667 8.79993 30.4667C8.79993 32.3 10.6333 33.7667 12.4666 33.7667C12.8333 33.7667 13.1999 33.7667 13.5666 33.7667C14.2999 33.4 15.0333 33.4 15.7666 33.4C16.4999 33.4 17.2333 33.4 17.9666 33.7667C18.3333 33.7667 18.6999 33.7667 19.4333 33.7667C21.2666 33.7667 23.0999 32.3 23.0999 30.1C23.0999 28.6333 22.3666 27.1667 20.8999 26.4333Z" fill="#FA4954"/>
<path d="M21.2666 26.4333C21.2666 27.1667 21.6333 27.9 21.6333 28.6333C21.6333 30.8333 19.8 32.3 17.6 32.3C17.2333 32.3 16.8666 32.3 16.1333 32.3C15.7666 31.9333 15.0333 31.5667 14.3 31.5667C13.5666 31.5667 12.8333 31.9333 12.1 32.3C11.7333 32.3 11.3666 32.3 10.6333 32.3C10.2666 32.3 9.53329 32.3 9.16663 31.9333C9.89996 33.0333 11 33.7667 12.4666 33.7667C12.8333 33.7667 13.2 33.7667 13.5666 33.7667C14.3 33.4 15.0333 33.4 15.7666 33.4C16.5 33.4 17.2333 33.4 17.9666 33.7667C18.3333 33.7667 18.7 33.7667 19.4333 33.7667C21.2666 33.7667 23.1 32.3 23.1 30.1C23.1 28.6333 22.3666 27.1667 21.2666 26.4333Z" fill="#E21F2D"/>
<path d="M17.9666 29.7333H16.8666C16.5 29.7333 16.1333 29.3667 16.1333 29C16.1333 28.6333 15.7666 28.2667 15.4 27.9L15.0333 27.5333C15.7666 27.5333 16.5 26.8 16.5 26.0667C16.5 25.7 16.1333 25.3333 16.1333 24.9667H15.7666V25.3333C15.7666 25.3333 15.7666 25.7 15.7666 26.0667C15.7666 26.4333 15.4 27.1667 14.6667 27.1667L13.9333 26.4333C13.9333 26.4333 13.9333 26.4333 13.5667 26.4333V26.8L15.0333 28.2667C15.4 28.6333 15.4 28.6333 15.4 29C15.4 29.7333 16.1333 30.4667 16.8666 30.4667H17.9666C18.3333 30.4667 18.3333 30.1 18.3333 30.1C18.3333 30.1 18.3333 29.7333 17.9666 29.7333Z" fill="#FC8186"/>
<path d="M11.7332 29.7333H10.9999C10.9999 29.7333 10.9999 29.7333 10.9999 29.3667H11.7332C12.0999 29.3667 12.4665 29 12.8332 29L13.5665 28.6333C13.5665 28.6333 13.5665 28.6333 13.9332 28.6333V29L13.1999 29.3667C12.8332 29.7333 12.4665 29.7333 11.7332 29.7333Z" fill="#FC8186"/>
<path d="M20.5333 30.1C20.5333 30.8333 19.8 31.2 19.0666 31.2C18.3333 31.2 17.6 30.8333 17.6 30.1C17.6 29.3667 18.3333 28.6333 19.0666 28.6333C19.8 28.6333 20.5333 29.3667 20.5333 30.1Z" fill="#EFE0DB"/>
<path d="M19.7999 28.6333C19.7999 29 19.7999 29 19.7999 29.3667C19.7999 30.1 19.0666 30.8333 18.3332 30.8333L17.9666 30.4667C17.9666 31.2 18.6999 31.2 19.0666 31.2C19.7999 31.2 20.5332 30.8333 20.5332 30.1C20.5332 29.3667 20.1666 29 19.7999 28.6333Z" fill="#DFD1CB"/>
<path d="M21.2666 20.5667H29.3333V22.4H0.733276V20.5667H8.79994H21.2666Z" fill="#00A2CF"/>
<path d="M23.4666 31.2C23.4666 31.9333 23.1 32.3 22.3666 32.3C22 32.3 21.2666 31.9333 21.2666 31.2V25.3333C21.2666 24.9667 22 24.6 22.3666 24.6C23.1 24.6 23.4666 24.9667 23.4666 25.3333V31.2ZM18.3333 31.2C18.3333 31.9333 17.9666 32.3 17.5999 32.3C16.8666 32.3 16.5 31.9333 16.5 31.2V25.3333C16.5 24.9667 16.8666 24.6 17.5999 24.6C17.9666 24.6 18.3333 24.9667 18.3333 25.3333V31.2ZM13.5666 31.2C13.5666 31.9333 13.2 32.3 12.4666 32.3C12.1 32.3 11.7333 31.9333 11.7333 31.2V25.3333C11.7333 24.9667 12.1 24.6 12.4666 24.6C13.2 24.6 13.5666 24.9667 13.5666 25.3333V31.2ZM8.79995 31.2C8.79995 31.9333 8.06662 32.3 7.69995 32.3C6.96662 32.3 6.59995 31.9333 6.59995 31.2V25.3333C6.59995 24.9667 6.96662 24.6 7.69995 24.6C8.06662 24.6 8.79995 24.9667 8.79995 25.3333V31.2ZM2.19995 22.4L4.76662 33.7667C5.13328 34.5 5.86662 35.2333 6.96662 35.2333H23.4666C24.1999 35.2333 24.9333 34.5 25.2999 33.7667L27.8666 22.4H2.19995Z" fill="#00A2CF"/>
<path d="M27.5 23.8667L27.8666 22.4H2.19995L2.56662 23.8667H27.5Z" fill="#077CA1"/>
</svg>
