<svg width="42" height="44" viewBox="0 0 42 44" fill="none" xmlns="http://www.w3.org/2000/svg">
<path fill-rule="evenodd" clip-rule="evenodd" d="M15.5001 0.733337H34.9334L41.5334 6.23334C41.5334 6.6 41.5334 6.6 41.5334 6.96667V33C41.5334 33.7333 40.8001 34.4667 39.7001 34.4667H15.5001C14.4001 34.4667 13.6667 33.7333 13.6667 33V2.2C13.6667 1.46667 14.4001 0.733337 15.5001 0.733337Z" fill="#FEFEFE"/>
<path d="M34.9334 1.1H15.5V0.366669H34.9334H35.3001L34.9334 1.1ZM34.9334 0.366669H35.3001H34.9334ZM41.1667 6.96667L34.5667 1.1L35.3001 0.366669L41.9001 5.86667V6.23334L41.1667 6.96667ZM41.9001 6.23334V7.7L41.1667 6.96667L41.9001 6.23334ZM41.9001 6.23334H40.8001L41.9001 5.86667V6.23334ZM41.9001 6.96667H41.1667H40.8001V6.6L41.9001 5.86667V6.23334V6.6V6.96667ZM41.1667 33V6.96667H41.9001V33H41.1667ZM39.7001 34.8333V33.7333H40.0667H40.4334H40.8001V33.3667L41.1667 33H41.9001V33.3667V33.7333V34.1H41.5334V34.4667H41.1667L40.8001 34.8333H40.4334H40.0667H39.7001ZM15.5 33.7333H39.7001V34.8333H15.5V33.7333ZM13.3 33H14.0334H14.4V33.3667V33.7333H14.7667H15.1334H15.5V34.8333H15.1334H14.7667H14.4L14.0334 34.4667H13.6667V34.1H13.3V33.7333V33.3667V33ZM14.0334 2.2V33H13.3V2.2H14.0334ZM15.5 0.366669V1.1H15.1334V1.46667H14.7667H14.4V1.83334L14.0334 2.2H13.3V1.83334V1.46667V1.1H13.6667V0.733335H14.0334V0.366669H14.4H14.7667H15.1334H15.5Z" fill="#2887D2"/>
<path d="M37.0906 8.43335H25.0334C24.8309 8.43335 24.6667 8.76167 24.6667 9.16668V9.84067C24.6667 10.2457 24.8309 10.574 25.0334 10.574H37.0906C37.2931 10.574 37.4572 10.2457 37.4572 9.84067V9.16668C37.4572 8.76167 37.2931 8.43335 37.0906 8.43335Z" fill="#2887D2"/>
<path fill-rule="evenodd" clip-rule="evenodd" d="M34.5667 1.46667V6.60001H40.4333L34.5667 1.46667Z" fill="#FEFEFE"/>
<path d="M33.8334 6.6V1.46667H34.9334V6.6L34.5667 6.96667L33.8334 6.6ZM34.5667 6.96667H33.8334V6.6L34.5667 6.96667ZM40.4334 7.33334L34.5667 6.96667V5.86667L40.4334 6.23334H40.8L40.4334 7.33334ZM40.8 6.23334L41.9 7.33334H40.4334L40.8 6.23334ZM34.9334 1.1L40.8 6.23334L40.0667 6.96667L33.8334 1.83334V1.46667L34.9334 1.1ZM33.8334 1.46667V0.366669L34.9334 1.1L33.8334 1.46667Z" fill="#2887D2"/>
<path d="M37.0906 13.2H25.0334C24.8309 13.2 24.6667 13.5283 24.6667 13.9333V14.6073C24.6667 15.0123 24.8309 15.3407 25.0334 15.3407H37.0906C37.2931 15.3407 37.4572 15.0123 37.4572 14.6073V13.9333C37.4572 13.5283 37.2931 13.2 37.0906 13.2Z" fill="#2887D2"/>
<path d="M37.188 17.9667H27.9668C27.7643 17.9667 27.6001 18.295 27.6001 18.7V19.374C27.6001 19.779 27.7643 20.1073 27.9668 20.1073H37.188C37.3905 20.1073 37.5547 19.779 37.5547 19.374V18.7C37.5547 18.295 37.3905 17.9667 37.188 17.9667Z" fill="#2887D2"/>
<path d="M21 14.6667C21 14.6667 21 14.3 20.6333 13.9333C20.6333 13.9333 20.2667 13.5667 19.9 13.5667C19.5333 13.2 19.1667 13.2 18.8 12.8333C18.4333 12.8333 18.0667 12.4667 18.0667 12.4667C17.7 12.1 17.3333 12.1 17.3333 11.7333C17.3333 11.3667 17.3333 11 17.3333 10.6333C17.3333 9.90001 17.3333 9.53334 17.7 9.16667C18.4333 8.43334 18.8 8.43334 19.5333 8.06667V7.70001V7.33334C19.5333 6.96667 19.5333 6.96667 19.9 6.96667H20.2667C20.2667 6.96667 20.6333 6.96667 20.6333 7.33334V7.70001V8.06667C21.3667 8.43334 21.7333 8.80001 22.1 9.16667C22.4667 9.53334 22.8333 9.90001 22.8333 10.6333V11C22.8333 11 22.4667 11.3667 22.1 11.3667H21.7333C21.3667 11.3667 21 11 21 11V10.6333C21 10.2667 21 10.2667 20.6333 9.90001C20.6333 9.90001 20.2667 9.53334 19.9 9.53334C19.5333 9.53334 19.5333 9.53334 19.1667 9.90001C19.1667 10.2667 18.8 10.2667 18.8 10.6333C18.8 11 19.1667 11.3667 19.1667 11.3667C19.5333 11.7333 19.5333 11.7333 20.2667 12.1C20.6333 12.1 21 12.4667 21.3667 12.4667C21.7333 12.8333 22.1 12.8333 22.1 13.2C22.4667 13.2 22.4667 13.5667 22.4667 13.9333C22.8333 13.9333 22.8333 14.3 22.8333 14.6667C22.8333 15.4 22.4667 16.1333 22.1 16.5C21.7333 16.8667 21 17.2333 20.2667 17.2333V17.6V17.9667C20.2667 18.3333 20.2667 18.3333 20.2667 18.3333H19.9C19.5333 18.3333 19.5333 18.3333 19.5333 17.9667V17.6V17.2333C18.8 17.2333 18.0667 16.8667 17.7 16.5C16.9667 15.7667 16.9667 15.4 16.9667 14.6667C16.9667 14.3 16.9667 13.9333 17.3333 13.9333H18.0667C18.4333 13.9333 18.4333 14.3 18.4333 14.6667C18.4333 15.0333 18.8 15.4 18.8 15.4C19.1667 15.7667 19.5333 15.7667 19.9 15.7667C20.2667 15.7667 20.6333 15.7667 20.6333 15.4C21 15.4 21 15.0333 21 14.6667Z" fill="#04870F"/>
<path fill-rule="evenodd" clip-rule="evenodd" d="M11.4666 21.6333L29.0666 22L24.6666 36.3H11.1L11.4666 21.6333Z" fill="#FEFEFE"/>
<path d="M21.3667 23.1H27.2333V25.3H5.96667V23.1H11.8333H21.3667Z" fill="#00A2CF"/>
<path d="M22.8333 33C22.8333 33.3667 22.4666 33.7334 22.1 33.7334C21.7333 33.7334 21.3666 33.3667 21.3666 33V27.5C21.3666 27.1334 21.7333 26.7667 22.1 26.7667C22.4666 26.7667 22.8333 27.1334 22.8333 27.5V33ZM19.1666 33C19.1666 33.3667 18.8 33.7334 18.4333 33.7334C18.0666 33.7334 17.7 33.3667 17.7 33V27.5C17.7 27.1334 18.0666 26.7667 18.4333 26.7667C18.8 26.7667 19.1666 27.1334 19.1666 27.5V33ZM15.5 33C15.5 33.3667 15.1333 33.7334 14.7666 33.7334C14.4 33.7334 14.0333 33.3667 14.0333 33V27.5C14.0333 27.1334 14.4 26.7667 14.7666 26.7667C15.1333 26.7667 15.5 27.1334 15.5 27.5V33ZM11.8333 33C11.8333 33.3667 11.4667 33.7334 11.1 33.7334C10.7333 33.7334 10.3667 33.3667 10.3667 33V27.5C10.3667 27.1334 10.7333 26.7667 11.1 26.7667C11.4667 26.7667 11.8333 27.1334 11.8333 27.5V33ZM7.06665 25.3L8.89998 34.8334C9.26665 35.2 9.63332 35.9334 10.3667 35.9334H22.4666C23.2 35.9334 23.9333 35.2 23.9333 34.8334L26.1333 25.3H7.06665Z" fill="#00A2CF"/>
<path d="M25.7666 26.4L26.1333 25.3H7.06665L7.43332 26.4H25.7666Z" fill="#077CA1"/>
<path d="M20.6334 37.4C19.1667 37.4 17.7001 38.5 17.7001 40.3334C17.7001 41.8 19.1667 43.2667 20.6334 43.2667C22.4667 43.2667 23.9334 41.8 23.9334 40.3334C23.9334 38.5 22.4667 37.4 20.6334 37.4Z" fill="#00A2CF"/>
<path d="M12.2001 37.4C10.7334 37.4 9.26672 38.5 9.26672 40.3334C9.26672 41.8 10.7334 43.2667 12.2001 43.2667C14.0334 43.2667 15.1334 41.8 15.1334 40.3334C15.1334 38.5 14.0334 37.4 12.2001 37.4Z" fill="#00A2CF"/>
<path fill-rule="evenodd" clip-rule="evenodd" d="M4.13334 17.2333C4.50001 17.2333 4.86667 17.2333 5.23334 17.6L9.26667 25.6667C9.26667 26.0333 9.26667 26.7667 8.53334 26.7667C8.16667 27.1333 7.80001 26.7667 7.43334 26.4L3.76667 18.3333H1.20001C0.833341 17.9667 0.466675 17.6 0.466675 17.2333C0.466675 16.8667 0.833341 16.5 1.20001 16.8667L4.13334 17.2333Z" fill="#00A2CF"/>
</svg>
