<svg width="44" height="39" viewBox="0 0 44 39" fill="none" xmlns="http://www.w3.org/2000/svg">
<path d="M21.9999 0.199997H10.2666C9.8999 0.199997 9.8999 0.199997 9.8999 0.199997V3.5C9.8999 3.5 9.8999 3.5 10.2666 3.5H21.9999V0.199997Z" fill="#CBD7E8"/>
<path d="M21.6333 1.66667H21.2666H10.9999C10.6333 1.66667 10.6333 1.66667 10.6333 1.3V0.933332V1.66667H10.2666V0.933332L10.6333 0.566666H21.2666C21.6333 0.566666 21.6333 0.933332 21.6333 0.933332V1.66667Z" fill="#8398C4"/>
<path d="M26.0333 37.2333H4.03325H1.83325V35.0333V21.1V21.8333V34.6667L2.56659 36.5L4.03325 36.8667H26.0333V37.2333ZM1.83325 19.6333V19.2667V18.1667V19.6333ZM1.83325 18.1667V17.8V2.03333V18.1667Z" fill="#3087B4"/>
<path d="M31.1666 0.199997H0.733276C0.733276 0.199997 0.733276 0.199997 0.733276 0.566664V37.9667C0.733276 38.3333 0.733276 38.3333 0.733276 38.3333H31.1666C31.1666 38.3333 31.1666 38.3333 31.1666 37.9667V0.566664C31.1666 0.199997 31.1666 0.199997 31.1666 0.199997Z" fill="#2887D2"/>
<path d="M2.19995 34.6667L2.93328 36.5L4.76662 36.8667H30.0666V1.66666H2.19995V34.6667Z" fill="#F7F7F8"/>
<path d="M2.56659 36.5L4.03325 36.8667L1.83325 34.6667L2.56659 36.5Z" fill="#FEFEFE"/>
<path d="M21.2666 3.86666H10.6333L10.2666 3.49999V1.66666H10.6333V3.49999H21.2666V1.66666H21.6333V3.49999C21.6333 3.49999 21.6333 3.86666 21.2666 3.86666Z" fill="#DCE1EC"/>
<path d="M20.8999 3.13333H10.9999V0.933332H10.6333H20.8999V3.13333ZM21.2666 0.566666H10.6333L10.2666 0.933332V3.13333C10.2666 3.5 10.6333 3.5 10.6333 3.5H21.2666C21.6333 3.5 21.6333 3.5 21.6333 3.13333V0.933332C21.6333 0.933332 21.6333 0.566666 21.2666 0.566666Z" fill="#0063D4"/>
<path d="M4.77466 23.6905L4.77466 25.7624L20.314 25.7624L20.314 23.6905L4.77466 23.6905Z" fill="#2887D2"/>
<path d="M20.9 0.199997H11L10.6333 0.566664V0.93333C10.6333 1.3 11 1.3 11 1.3H20.9C21.2666 1.3 21.2666 1.3 21.2666 0.93333V0.566664C21.2666 0.566664 21.2666 0.199997 20.9 0.199997Z" fill="#0063D4"/>
<path d="M10.6333 1.66667C10.6333 2.03333 11 2.03333 11 2.03333H20.9C21.2666 2.03333 21.2666 2.03333 21.2666 1.66667V0.933334H10.6333V1.66667Z" fill="#0063D4"/>
<path d="M4.77466 30.1748L4.77466 32.2467L27.722 32.2467L27.722 30.1748L4.77466 30.1748Z" fill="#2887D2"/>
<path d="M21.2666 15.9667C21.2666 12.3 21.2666 10.8333 21.2666 7.53334C21.2666 5.7 22.3666 3.86667 23.8333 3.86667C29.3333 3.86667 35.1999 3.86667 40.6999 3.86667C42.1666 3.86667 43.2666 5.7 43.2666 7.53334C43.2666 10.8333 43.2666 12.3 43.2666 15.9667C43.2666 17.8 42.1666 19.2667 40.6999 19.2667C37.3999 19.2667 34.0999 19.2667 30.4333 19.2667C28.2333 21.4667 25.6666 23.3 23.4666 25.5C24.1999 23.3 24.9333 21.4667 25.6666 19.2667C24.9333 19.2667 24.1999 19.2667 23.8333 19.2667C22.3666 19.2667 21.2666 17.8 21.2666 15.9667Z" fill="#FC4D44"/>
<path d="M35.5666 14.1333C34.8333 14.1333 34.1 14.8667 34.1 15.6C34.1 16.7 34.8333 17.4333 35.5666 17.4333C36.3 17.4333 37.0333 16.7 37.0333 15.6C37.0333 14.8667 36.3 14.1333 35.5666 14.1333Z" fill="#FEFEFE"/>
<path d="M38.1333 7.9H37.7666H28.5999L27.8666 6.06666C27.8666 5.7 27.8666 5.7 27.4999 5.7H26.0333C25.6666 5.7 25.2999 5.7 25.2999 6.06666C25.2999 6.43333 25.6666 6.43333 26.0333 6.43333H27.1333L28.5999 13.0333C28.5999 13.4 28.9666 13.4 29.3333 13.4H36.6666C36.6666 13.4 37.0333 13.4 37.0333 13.0333L38.1333 8.26666V7.9Z" fill="#FEFEFE"/>
<path d="M29.6999 14.1333C28.9666 14.1333 28.2333 14.8667 28.2333 15.6C28.2333 16.7 28.9666 17.4333 29.6999 17.4333C30.7999 17.4333 31.5333 16.7 31.5333 15.6C31.5333 14.8667 30.7999 14.1333 29.6999 14.1333Z" fill="#FEFEFE"/>
<path fill-rule="evenodd" clip-rule="evenodd" d="M14.6667 20C13.9333 20.3667 13.2 20.3667 12.4667 20.7333C10.6333 20.7333 9.16666 20 7.69999 19.2667C5.49999 17.0667 4.76666 13.4 6.59999 10.8333C8.79999 7.90001 12.4667 7.53335 15.0333 9.36668C16.5 10.1 17.2333 11.2 17.6 12.6667C17.9667 14.1333 17.9667 15.2333 17.6 16.3333L17.2333 17.4333C17.2333 17.4333 16.5 18.9 14.6667 20Z" fill="url(#paint0_linear)"/>
<path fill-rule="evenodd" clip-rule="evenodd" d="M10.6333 14.8667L10.2666 14.5C9.89997 14.1333 9.16664 13.0333 8.06664 13.7667C7.69997 13.7667 7.33331 14.5 7.69997 14.8667C7.69997 15.2333 8.06664 15.6 8.43331 15.9667C8.79997 16.3333 9.16664 16.7 9.53331 17.0667C9.89997 17.4333 9.89997 17.4333 10.2666 17.4333C10.6333 17.4333 10.6333 17.4333 11 17.4333C11.3666 17.4333 12.8333 15.9667 13.2 15.6C13.9333 14.8667 14.3 14.1333 15.0333 13.4C15.4 13.0333 15.7666 13.0333 15.7666 12.3C15.7666 11.9333 15.4 11.2 15.0333 11.2C13.9333 11.2 13.9333 11.5667 13.2 11.9333C13.2 12.3 13.2 12.3 13.2 12.3C12.8333 12.6667 12.8333 12.3 12.8333 12.6667C12.8333 12.6667 12.8333 12.6667 12.4666 13.0333C12.1 13.4 12.1 13.4 11.7333 13.4L11 14.5C11 14.5 10.6333 14.5 10.6333 14.8667Z" fill="#FFF212"/>
<defs>
<linearGradient id="paint0_linear" x1="17.7692" y1="15.9009" x2="5.74654" y2="12.8529" gradientUnits="userSpaceOnUse">
<stop stop-color="#04870F"/>
<stop offset="1" stop-color="#03690C"/>
</linearGradient>
</defs>
</svg>
