<?xml version="1.0" encoding="UTF-8"?>
<!DOCTYPE svg PUBLIC "-//W3C//DTD SVG 1.1//EN" "http://www.w3.org/Graphics/SVG/1.1/DTD/svg11.dtd">
<!-- Creator: CorelDRAW X7 -->
<svg xmlns="http://www.w3.org/2000/svg" xml:space="preserve" width="120px" height="120px" version="1.1" style="shape-rendering:geometricPrecision; text-rendering:geometricPrecision; image-rendering:optimizeQuality; fill-rule:evenodd; clip-rule:evenodd"
viewBox="0 0 120 120"
 xmlns:xlink="http://www.w3.org/1999/xlink">
 <defs>
  <style type="text/css">
   <![CDATA[
    .fil0 {fill:none}
    .fil2 {fill:#FEFEFE}
    .fil1 {fill:#2887D2}
    .fil7 {fill:#FC4D44}
    .fil6 {fill:#FEFEFE;fill-rule:nonzero}
    .fil5 {fill:#FEFEFE;fill-rule:nonzero}
    .fil4 {fill:#00A859;fill-rule:nonzero}
    .fil3 {fill:#2887D2;fill-rule:nonzero}
   ]]>
  </style>
 </defs>
 <g id="Layer_x0020_1">
  <metadata id="CorelCorpID_0Corel-Layer"/>
  <rect class="fil0" width="120" height="120"/>
  <g id="_631164248">
   <g>
    <g>
     <path class="fil1" d="M104 105c3,-7 2,-27 2,-27 0,0 -2,3 -5,3 -3,0 -4,-2 -4,-2 0,0 -2,2 -4,2 -3,0 -5,-2 -5,-2l-1 0 0 28c0,0 1,7 4,7 6,-2 11,-4 13,-9z"/>
     <g>
      <path class="fil2" d="M87 33l0 51 0 23c0,5 9,4 8,4 -3,2 -7,4 -12,5 -17,3 -43,3 -49,-3 -4,-4 -2,-65 -2,-79 0,0 2,3 6,3 3,-1 5,-4 5,-4 0,0 2,3 5,4 4,0 6,-3 6,-3 3,4 9,3 12,-1 0,0 2,3 5,3 3,0 6,-3 6,-3 0,0 2,3 5,3 4,0 5,-3 5,-3z"/>
      <path id="1" class="fil3" d="M85 84l0 -51 4 0 0 51 0 0 -4 0zm0 23l0 -23 4 0 0 23 -4 0zm11 6l-2 -4 0 0 0 1 -1 1 1 2 0 0 1 0 0 0 -1 0 0 0 0 0 0 0 -1 0 0 0 -1 0 0 0 0 0 -1 0 0 0 -1 0 0 -1 -1 0 0 0 -1 0 0 0 -1 -1 0 0 -1 -1 0 0 0 -1 -1 0 0 -1 0 -1 0 0 4 0 0 0 0 0 0 0 0 1 0 0 0 0 1 0 0 0 0 0 0 0 0 0 1 1 0 0 0 0 1 0 0 0 0 0 1 0 0 0 0 0 1 0 0 0 0 0 0 0 1 0 0 0 0 0 1 0 0 1 1 2 -1 1 0 0 0 0zm-13 5l-1 -4 0 0 1 0 0 0 1 0 0 0 1 0 0 0 0 0 1 -1 0 0 1 0 0 0 0 0 1 0 0 -1 1 0 0 0 0 0 1 0 0 0 0 -1 1 0 0 0 0 0 1 0 0 0 0 -1 1 0 0 0 0 0 1 0 0 0 0 -1 2 4 0 0 -1 0 0 1 0 0 -1 0 0 0 0 0 0 0 -1 0 0 1 0 0 -1 0 0 0 -1 0 0 1 0 0 -1 0 0 0 -1 0 0 0 0 1 -1 0 0 0 -1 0 0 0 -1 1 0 0 -1 0 0 0 -1 0 0 0 -1 0 0 0zm-50 -4l3 -3 0 0 0 1 1 0 0 0 1 1 1 0 1 1 1 0 1 0 2 0 1 1 1 0 2 0 1 0 2 1 2 0 1 0 2 0 2 0 2 0 1 0 2 0 2 0 2 0 2 0 1 0 2 0 2 -1 2 0 1 0 2 0 2 0 1 -1 1 4 -2 1 -1 0 -2 0 -2 0 -2 0 -1 1 -2 0 -2 0 -2 0 -2 0 -2 0 -2 0 -2 0 -1 0 -2 0 -2 0 -2 0 -1 0 -2 -1 -2 0 -1 0 -2 0 -1 -1 -2 0 -1 0 -1 -1 -1 0 -2 -1 -1 0 -1 -1 0 0 -1 -1 0 0zm3 -3l0 0 0 0 0 0zm-2 -78l-3 2 3 -1 0 1 0 2 0 2 0 2 0 3 0 2 0 3 0 3 0 3 0 3 0 3 0 3 0 3 0 4 0 3 -1 3 0 3 1 4 0 3 0 3 0 3 0 2 0 3 0 3 0 2 0 2 1 2 0 1 0 2 0 1 1 0 0 0 -3 3 -1 -1 0 -1 -1 -1 0 -2 0 -2 -1 -2 0 -2 0 -2 0 -3 0 -2 0 -3 0 -3 0 -3 0 -3 -1 -4 0 -3 1 -3 0 -3 0 -4 0 -3 0 -3 0 -3 0 -3 0 -3 0 -3 0 -3 0 -3 0 -2 0 -2 0 -2 0 -2 0 -1 4 -1zm4 2l0 4 0 0 -1 0 0 0 0 0 -1 -1 0 0 -1 0 0 0 0 0 -1 0 0 0 0 0 0 -1 -1 0 0 0 0 0 -1 0 0 0 0 -1 0 0 0 0 0 0 -1 0 0 0 0 0 0 -1 0 0 0 0 0 0 0 0 0 0 0 0 0 0 3 -2 0 0 0 0 0 0 0 0 0 0 0 0 0 0 0 0 0 0 0 0 0 0 0 0 0 0 1 0 0 1 0 0 0 0 0 0 0 0 0 0 1 0 0 0 0 0 0 0 0 0 1 0 0 0 0 1 0 0 0 0 0 0 1 0 0 0zm7 -3l-4 2 4 0 0 0 0 0 0 1 0 0 -1 0 0 0 0 0 0 0 0 0 0 0 0 1 0 0 0 0 -1 0 0 0 0 0 0 1 0 0 -1 0 0 0 0 0 -1 0 0 1 0 0 0 0 -1 0 0 0 -1 0 0 0 0 0 -1 1 0 0 0 -4 0 0 0 0 0 -1 0 0 1 0 0 0 0 0 0 0 0 0 0 0 1 0 0 0 0 0 0 0 0 -1 0 0 0 0 1 0 0 0 0 0 0 0 0 0 0 0 0 0 0 0 0 -1 0 0 0 0 0 0 0 0 0 0 0 0 4 0zm-4 0l2 -2 2 2 -4 0zm7 3l0 4 0 0 0 0 -1 -1 0 0 -1 0 0 0 0 0 -1 0 0 0 0 0 -1 -1 0 0 0 0 0 0 -1 0 0 0 0 -1 0 0 0 0 -1 0 0 0 0 0 0 -1 0 0 0 0 0 0 0 0 -1 0 0 0 0 0 0 -1 0 0 0 0 4 -2 0 0 0 0 0 0 0 0 0 0 0 0 0 1 0 0 0 0 0 0 0 0 0 0 0 0 0 0 1 0 0 0 0 0 0 1 0 0 0 0 0 0 0 0 1 0 0 0 0 0 0 0 0 0 1 0 0 0 0 1 0 0 0 0 0 0zm7 -3l-3 3 3 0 0 0 0 0 0 0 0 0 0 0 0 0 0 0 0 1 0 0 0 0 -1 0 0 0 0 0 0 0 0 1 -1 0 0 0 0 0 0 0 -1 0 0 1 0 0 0 0 -1 0 0 0 -1 0 0 0 0 0 -1 1 0 0 -1 0 0 0 0 -4 0 0 1 0 0 0 0 0 0 -1 0 0 1 0 0 0 0 0 0 0 0 0 0 0 1 0 0 0 0 0 0 0 0 0 0 -1 0 0 1 0 0 0 0 0 0 0 0 0 0 0 0 0 0 0 0 0 0 0 0 0 0 0 0 0 3 -1zm-3 1l2 -2 1 1 -3 1zm15 -1l-3 2 3 0 0 0 0 1 -1 0 0 1 0 0 -1 0 0 1 -1 0 0 0 -1 1 0 0 -1 0 0 0 -1 0 0 0 -1 0 0 0 -1 0 0 0 -1 0 0 0 -1 0 -1 0 0 0 -1 -1 0 0 0 0 -1 0 0 -1 -1 0 0 0 -1 -1 3 -3 1 1 0 0 0 0 0 0 1 1 0 0 0 0 1 0 0 0 0 0 0 0 1 0 0 0 0 0 1 0 0 0 0 0 1 0 0 0 0 0 0 0 1 0 0 0 0 0 0 0 1 -1 0 0 0 0 0 0 1 -1 0 0 0 0 3 0zm-3 0l2 -3 1 3 -3 0zm7 2l0 4 0 0 -1 0 0 0 0 0 -1 0 0 0 0 -1 -1 0 0 0 0 0 -1 0 0 0 0 0 -1 -1 0 0 0 0 0 0 0 0 -1 -1 0 0 0 0 0 0 0 0 0 0 0 0 -1 -1 0 0 0 0 0 0 0 0 0 0 0 0 0 0 3 -2 0 0 0 0 0 0 1 0 0 0 0 0 0 0 0 0 0 0 0 0 0 0 0 0 0 0 0 1 0 0 0 0 1 0 0 0 0 0 0 0 0 0 0 0 0 1 1 0 0 0 0 0 0 0 0 0 0 0 1 0 0 0 0 0 0 0zm7 -2l-3 2 3 0 0 0 0 0 0 0 0 1 0 0 0 0 0 0 0 0 0 0 -1 0 0 0 0 1 0 0 0 0 -1 0 0 0 0 0 0 1 -1 0 0 0 0 0 0 0 -1 0 0 1 0 0 -1 0 0 0 0 0 -1 0 0 0 -1 0 0 0 0 -4 0 0 0 0 1 0 0 0 0 0 0 0 0 0 1 0 0 0 0 0 0 0 0 -1 0 0 1 0 0 0 0 0 0 0 0 0 0 0 0 0 0 0 1 -1 0 0 0 0 0 0 0 0 0 0 0 0 0 0 0 0 0 0 0 0 3 0zm-3 0l2 -2 1 2 -3 0zm7 2l0 4 0 0 0 0 -1 0 0 0 0 0 -1 0 0 0 0 0 -1 0 0 -1 0 0 -1 0 0 0 0 0 -1 0 0 -1 0 0 0 0 -1 0 0 0 0 0 0 -1 0 0 0 0 0 0 -1 0 0 0 0 0 0 0 0 -1 0 0 0 0 0 0 3 -2 0 0 0 0 0 0 0 0 0 0 0 0 0 0 0 0 1 0 0 0 0 1 0 0 0 0 0 0 0 0 0 0 0 0 1 0 0 0 0 0 0 1 0 0 0 0 1 0 0 0 0 0 0 0 0 0 0 0 1 0 0 0 0 0 0 0zm7 -1l-4 0 4 1 0 0 0 0 0 0 0 0 0 0 0 0 0 0 0 1 0 0 -1 0 0 0 0 0 0 0 0 0 0 1 -1 0 0 0 0 0 0 0 -1 1 0 0 0 0 0 0 -1 0 0 0 0 0 -1 1 0 0 0 0 -1 0 0 0 -1 0 0 -4 0 0 0 0 1 0 0 0 0 0 0 0 0 0 1 0 0 0 0 -1 0 0 0 0 0 0 0 0 1 0 0 0 0 0 0 0 0 -1 0 0 0 0 0 0 0 0 0 0 1 0 0 0 0 0 0 0 0 0 0 0 0 0 0 0 3 1z"/>
     </g>
     <rect class="fil1" x="41" y="88" width="38.8299" height="4.10806"/>
     <rect class="fil1" x="41" y="102" width="38.8299" height="4.10806"/>
    </g>
    <path class="fil4" d="M54 68c0,-1 0,-2 -1,-3 0,0 -1,-1 -3,-1 -1,-1 -3,-2 -4,-2 -1,-1 -2,-1 -2,-2 -1,-1 -2,-2 -2,-3 -1,-1 -1,-2 -1,-3 0,-2 1,-4 2,-6 2,-1 4,-2 6,-2l0 -2 0 -2 0 0 0 0c0,0 1,-1 1,-1l1 0c1,0 1,1 1,1l0 0 0 0 0 2 0 2c3,0 5,1 6,3 1,1 2,3 2,5l0 1 0 0c0,1 -1,1 -2,1l-2 0c-1,0 -2,0 -2,-1l0 0 0 0 0 0 0 -1 0 0c0,-1 0,-2 -1,-2 0,-1 -1,-2 -2,-2 -2,0 -2,1 -3,1 -1,1 -1,2 -1,3 0,1 0,2 1,2 0,1 2,2 3,2 2,1 3,2 4,2 1,1 2,1 3,2 1,1 1,2 2,3 0,1 0,2 0,3 0,2 -1,4 -2,6 -1,1 -3,2 -6,2l0 2c0,0 0,0 0,0l0 1c0,1 0,1 -1,1l-1 0c-1,0 -1,0 -1,-1l0 -1c0,0 0,0 0,0l0 -2c-3,0 -5,-1 -7,-3 -1,-1 -2,-3 -2,-6l0 0c0,-1 1,-2 2,-2l2 0c1,0 2,1 2,2l0 0 0 0 0 0 0 0 0 0 0 0c0,2 0,2 1,3 1,1 2,2 3,2 2,0 2,-1 3,-1 1,-1 1,-2 1,-3z"/>
    <g>
     <polygon class="fil1" points="87,24 92,27 97,26 100,31 105,33 105,39 110,42 107,48 110,53 105,57 105,62 99,64 97,69 91,68 87,71 82,68 76,69 74,64 68,62 68,56 63,53 66,47 63,42 68,38 68,33 74,31 76,26 82,27 "/>
     <path id="1" class="fil5" d="M91 29l-5 -4 2 -3 4 4 0 3 -1 0zm1 0l-1 0 0 0 1 0zm5 -1l-5 1 -1 -3 6 -2 1 1 -1 3zm0 -4l1 0 0 1 -1 -1zm1 8l-2 -5 2 -2 3 6 -2 2 -1 -1zm1 1l0 0 -1 -1 1 1zm6 1l-6 -1 1 -3 6 1 1 2 -2 1zm1 -3l1 0 0 2 -1 -2zm-2 8l0 -6 3 0 0 6 -3 1 0 -1zm0 1l0 -1 0 0 0 1zm5 3l-5 -3 2 -3 5 4 0 2 -2 0zm2 -2l1 1 -1 1 0 -2zm-5 6l2 -5 3 1 -2 5 -3 0 0 -1zm0 1l0 0 0 -1 0 1zm2 5l-2 -5 3 -1 2 5 0 2 -3 -1zm3 -1l1 1 -1 1 0 -2zm-7 3l5 -3 2 2 -5 4 -2 -1 0 -2zm0 2l0 -1 0 -1 0 2zm0 5l0 -5 3 0 0 5 -1 2 -2 -2zm3 0l0 2 -1 0 1 -2zm-8 0l6 -1 1 3 -6 1 -2 -2 1 -1zm-1 1l0 -1 1 0 -1 1zm-2 5l2 -5 3 2 -3 5 -1 0 -1 -2zm2 2l0 1 -1 -1 1 0zm-7 -4l6 1 0 3 -6 -1 -1 -2 1 -1zm-1 1l1 -1 0 0 -1 1zm-4 3l4 -3 2 2 -4 3 -2 1 0 -3zm2 2l-1 1 -1 0 2 -1zm-5 -6l5 4 -2 3 -5 -4 0 -3 2 0zm-2 0l1 0 1 0 -2 0zm-5 1l5 -1 1 3 -5 1 -2 0 1 -3zm1 3l-1 1 -1 -1 2 0zm-2 -7l3 5 -3 2 -3 -6 2 -2 1 1zm-1 -1l1 0 0 1 -1 -1zm-6 -1l6 1 -1 3 -5 -1 -2 -2 2 -1zm0 3l-1 0 -1 -2 2 2zm1 -8l1 6 -4 0 0 -6 3 -1 0 1zm0 -1l0 0 0 1 0 -1zm-4 -3l4 3 -2 3 -5 -4 0 -2 3 0zm-3 2l0 -1 0 -1 0 2zm5 -6l-2 5 -3 -1 2 -5 3 0 0 1zm0 -1l1 0 -1 1 0 -1zm-2 -6l2 6 -3 1 -2 -5 0 -2 3 0zm-3 2l0 -1 0 -1 0 2zm7 -4l-4 4 -3 -2 5 -4 3 1 -1 1zm1 -1l0 1 -1 0 1 -1zm0 -5l0 5 -4 0 0 -5 2 -2 2 2zm-4 0l0 -2 2 0 -2 2zm8 0l-5 1 -1 -3 5 -1 2 2 -1 1zm1 -1l0 0 -1 1 1 -1zm3 -5l-3 5 -3 -2 3 -5 2 -1 1 3zm-3 -2l0 -1 2 0 -2 1zm7 4l-6 -1 1 -4 6 2 0 2 -1 1zm1 -1l0 1 -1 0 1 -1zm5 -3l-5 3 -2 -2 5 -4 2 0 0 3zm-2 -3l1 0 1 0 -2 0z"/>
    </g>
    <g>
     <path class="fil2" d="M87 32c8,0 15,7 15,15 0,9 -7,16 -15,16 -9,0 -16,-7 -16,-16 0,-8 7,-15 16,-15z"/>
     <path id="1" class="fil6" d="M102 47l0 0 0 0 0 0 0 -1 0 -1 0 -1 0 0 -1 -1 0 -1 0 0 -1 -1 0 -1 0 0 -1 -1 0 -1 -1 0 0 -1 0 0 -1 -1 -1 0 0 -1 -1 0 0 -1 -1 0 -1 0 0 -1 -1 0 -1 0 -1 0 0 -1 -1 0 -1 0 -1 0 0 0 0 0 0 0 1 0 1 0 1 0 1 0 0 1 1 0 1 0 0 0 1 1 1 0 0 1 1 0 1 0 0 1 1 0 0 1 1 1 0 0 1 1 0 0 0 1 1 1 0 0 0 1 1 1 0 1 0 0 0 1 0 1 0 1 0 0 0 0zm-15 16l0 0 0 0 0 0 1 0 1 0 1 -1 0 0 1 0 1 0 1 0 0 -1 1 0 1 0 0 -1 1 0 0 -1 1 0 1 -1 0 0 0 -1 1 0 0 -1 1 -1 0 0 0 -1 1 -1 0 0 0 -1 1 -1 0 0 0 -1 0 -1 0 -1 0 -1 0 0 0 1 0 1 0 1 0 1 0 0 0 1 -1 1 0 1 0 0 -1 1 0 1 0 0 -1 1 0 0 -1 1 0 0 -1 1 0 0 -1 1 -1 0 0 1 -1 0 -1 0 0 1 -1 0 -1 0 0 1 -1 0 -1 0 -1 0 -1 0 0 0 0 0zm-16 -16l0 0 0 0 0 1 0 1 0 1 1 1 0 0 0 1 0 1 1 0 0 1 0 1 1 0 0 1 0 1 1 0 0 1 1 0 0 1 1 0 0 1 1 0 1 1 0 0 1 0 1 1 0 0 1 0 1 0 1 0 0 1 1 0 1 0 1 0 0 0 -1 0 -1 0 -1 0 0 0 -1 0 -1 -1 -1 0 0 0 -1 -1 -1 0 0 0 -1 -1 -1 0 0 -1 -1 0 0 -1 -1 0 0 -1 -1 0 0 -1 -1 0 0 -1 0 -1 -1 0 0 -1 0 -1 0 -1 -1 0 0 -1 0 -1 0 -1 0 -1 0 0zm16 -15l0 0 0 0 -1 0 -1 0 -1 0 0 0 -1 1 -1 0 -1 0 0 0 -1 1 -1 0 0 0 -1 1 -1 0 0 1 -1 0 0 1 -1 0 0 1 -1 0 0 1 0 1 -1 0 0 1 0 1 -1 0 0 1 0 1 0 0 -1 1 0 1 0 1 0 0 0 0 0 0 0 -1 0 -1 0 -1 1 0 0 -1 0 -1 0 -1 1 0 0 -1 0 -1 1 0 0 -1 1 0 0 -1 1 -1 0 0 1 -1 0 0 1 0 1 -1 0 0 1 -1 1 0 0 0 1 0 1 -1 1 0 0 0 1 0 1 0 1 0 0 0z"/>
    </g>
    <path class="fil4" d="M97 38c-1,0 -1,0 -2,0l-11 12 -6 -4c0,0 -1,0 -1,0 -1,0 -1,1 0,1l6 10c0,0 1,0 1,0l0 0c0,0 1,0 1,0l12 -18c0,0 0,0 0,-1z"/>
   </g>
   <path class="fil7" d="M22 70c-15,-15 -16,-40 -1,-56 14,-15 38,-16 54,-3l6 -6 0 21 -21 0 7 -7c-11,-9 -28,-8 -38,3 -10,11 -17,36 -6,47l-1 1z"/>
  </g>
 </g>
</svg>
