<?xml version="1.0" encoding="UTF-8"?>
<!DOCTYPE svg PUBLIC "-//W3C//DTD SVG 1.1//EN" "http://www.w3.org/Graphics/SVG/1.1/DTD/svg11.dtd">
<!-- Creator: CorelDRAW X7 -->
<svg xmlns="http://www.w3.org/2000/svg" xml:space="preserve" width="120px" height="120px" version="1.1" style="shape-rendering:geometricPrecision; text-rendering:geometricPrecision; image-rendering:optimizeQuality; fill-rule:evenodd; clip-rule:evenodd"
viewBox="0 0 120 120"
 xmlns:xlink="http://www.w3.org/1999/xlink">
 <defs>
  <style type="text/css">
   <![CDATA[
    .fil0 {fill:none}
    .fil5 {fill:#A53235}
    .fil1 {fill:#B8E5FA}
    .fil4 {fill:whitesmoke}
    .fil3 {fill:#FA0303}
    .fil7 {fill:#008FD0;fill-rule:nonzero}
    .fil2 {fill:#2887D2;fill-rule:nonzero}
    .fil6 {fill:#FC4D44;fill-rule:nonzero}
   ]]>
  </style>
 </defs>
 <g id="Layer_x0020_1">
  <metadata id="CorelCorpID_0Corel-Layer"/>
  <rect class="fil0" width="120" height="120"/>
  <g id="_718504304">
   <g>
    <polygon class="fil1" points="6,34 114,34 114,107 6,107 "/>
    <path id="1" class="fil2" d="M114 34l-108 0 0 -1 108 0 1 1 -1 0zm0 -1l1 0 0 1 -1 -1zm-1 74l0 -73 2 0 0 73 -1 1 -1 -1zm2 0l0 1 -1 0 1 -1zm-109 -1l108 0 0 2 -108 0 -1 -1 1 -1zm0 2l-1 0 0 -1 1 1zm1 -74l0 73 -2 0 0 -73 1 -1 1 1zm-2 0l0 -1 1 0 -1 1z"/>
   </g>
   <g id="_718504808">
    <path class="fil3" d="M23 40c1,1 0,0 1,1 2,0 4,3 7,1l2 -2c0,0 0,0 0,0 1,0 1,0 1,0l0 -25c-3,-1 -8,-1 -11,-1l0 26z"/>
    <path class="fil4" d="M55 40c3,3 8,3 10,0 0,-1 1,-22 0,-24 -1,0 0,0 -2,0 -1,0 -2,0 -3,0 -1,0 -4,-1 -5,0 -1,3 0,9 0,12 0,2 -1,11 0,12z"/>
    <path class="fil3" d="M44 40l1 0c6,5 6,1 10,0 -1,-2 0,-22 0,-25 -3,-1 -8,-1 -11,0l0 25z"/>
    <path class="fil3" d="M5 42c3,1 4,1 6,-1 1,-1 0,0 2,-1l0 -25 -11 0c0,5 0,10 0,15 0,2 0,5 0,7 0,3 0,4 3,5z"/>
    <path class="fil4" d="M13 40c1,1 2,2 5,3 2,0 3,-2 5,-3l0 -24 -10 0 0 24z"/>
    <path class="fil4" d="M34 40c2,3 8,4 10,0l0 -24c-2,0 -8,-1 -10,0l0 24z"/>
    <path class="fil3" d="M97 40c-1,1 0,0 -1,1 -2,0 -4,3 -7,1l-2 -2c0,0 0,0 0,0 -1,0 -1,0 -1,0l0 -25c3,-1 8,-1 11,-1l0 26z"/>
    <path class="fil3" d="M76 40l-1 0c-6,5 -6,1 -10,0 0,-4 0,-18 0,-25 3,-1 8,-1 11,0l0 25z"/>
    <path class="fil3" d="M115 42c-3,1 -4,1 -6,-1 -1,-1 0,0 -2,-1l0 -25 11 0c0,5 0,10 0,15 0,2 0,5 0,7 0,3 0,4 -3,5z"/>
    <path class="fil4" d="M107 40c-1,1 -2,2 -5,3 -2,0 -3,-2 -5,-3l0 -24 10 0 0 24z"/>
    <path class="fil4" d="M86 40c-2,3 -8,4 -10,0l0 -24c2,0 8,-1 10,0l0 24z"/>
   </g>
   <rect class="fil5" x="2" y="13" width="116.002" height="2.77196"/>
   <g id="_718503920">
    <path class="fil6" d="M63 80c-1,-1 -2,-1 -3,0 -1,0 -1,0 -1,1l0 3 -27 0c-1,0 -2,1 -2,2l0 7c0,1 1,1 2,1l27 0 0 4c0,1 0,1 1,1 1,0 1,0 1,0 1,0 2,0 2,0l15 -9c0,0 0,0 0,-1l0 0c0,0 0,0 0,0l-15 -9z"/>
    <path class="fil7" d="M88 59l-27 0 0 -4c0,-1 0,-1 -1,-1 -1,0 -2,0 -3,0l-15 9c0,0 0,0 0,1l0 0c0,0 0,0 0,0l15 9c0,1 1,1 2,1 0,0 0,0 1,0 1,-1 1,-1 1,-2l0 -3 27 0c1,0 2,-1 2,-2l0 -7c0,-1 -1,-1 -2,-1z"/>
   </g>
  </g>
 </g>
</svg>
