<svg xmlns="http://www.w3.org/2000/svg" width="120" height="120" shape-rendering="geometricPrecision" text-rendering="geometricPrecision" image-rendering="optimizeQuality" fill-rule="evenodd" clip-rule="evenodd"><defs><style>.fil3{fill:#a98f71}.fil4{fill:#f0a71f}.fil2{fill:#ffcb68}.fil5,.fil6{fill:#c73538;fill-rule:nonzero}.fil5{fill:#00a859}</style></defs><g id="Layer_x0020_1"><path fill="none" d="M0 0h120v120H0z"/><g id="_600129664"><rect x="2" y="85" width="116" height="12.5" rx="13" ry="6" fill="#2887d2"/><path class="fil2" d="M10 49h40.5v40.5H10z"/><path class="fil3" d="M23 51h13.2v2.4H23z"/><path class="fil4" d="M10 49l9-4h39l-8 4H10z"/><path class="fil4" d="M50 89l8-5V45l-8 4v40z"/><path class="fil2" d="M70 49h40.5v40.5H70z"/><path class="fil3" d="M84 51h13.2v2.4H84z"/><path class="fil4" d="M110 49l-9-4H63l7 4h40z"/><path class="fil4" d="M70 89l-7-5V45l7 4v40z"/><path class="fil5" d="M33 75l-1-1c0-1-1-1-2-2-1 0-2 0-3-1 0 0-1 0-1-1-1 0-1-1-2-2v-2c0-1 0-2 1-3s3-2 4-2v-2c0-1 1-1 1-1h1v3c2 0 3 1 4 2s1 2 1 4c0 0 0 1-1 1h-1c-1 0-1-1-1-1 0-1-1-2-1-2-1-1-1-1-2-1s-1 0-2 1v3c1 0 2 1 3 1 1 1 2 1 2 1l2 2 1 1v2c0 2 0 3-1 4s-2 2-4 2v2h-2v-2c-2 0-3-1-4-2s-2-2-2-4c0-1 1-1 2-1h1c1 0 1 0 1 1s0 1 1 2c0 0 1 1 2 1s1-1 2-1c0 0 1-1 1-2z"/><path class="fil6" d="M92 75s0-1-1-1c0-1-1-1-2-2-1 0-2 0-2-1-1 0-2 0-2-1-1 0-1-1-1-2 0 0-1-1-1-2s1-2 2-3 2-2 4-2v-2-1h1s1 0 1 1v2c1 0 3 1 3 2 1 1 2 2 2 4l-1 1h-2l-1-1c0-1 0-2-1-2 0-1-1-1-1-1-1 0-2 0-2 1-1 0-1 1-1 1 0 1 0 1 1 2 0 0 1 1 2 1 1 1 2 1 3 1 0 1 1 1 1 2 1 0 1 1 1 1 1 1 1 2 1 2 0 2-1 3-2 4s-2 2-4 2v2h-1-1v-2c-1 0-3-1-4-2s-1-2-1-4c0-1 0-1 1-1h1c1 0 1 0 2 1v2c1 0 1 1 2 1s2-1 2-1c1 0 1-1 1-2z"/><path class="fil5" d="M20 29h7v-7h5v7h7v5h-7v7h-5v-7h-7z"/><path class="fil6" d="M76 35v-7h26v7z"/></g></g></svg>