<?xml version="1.0" encoding="UTF-8"?>
<!DOCTYPE svg PUBLIC "-//W3C//DTD SVG 1.1//EN" "http://www.w3.org/Graphics/SVG/1.1/DTD/svg11.dtd">
<!-- Creator: CorelDRAW X7 -->
<svg xmlns="http://www.w3.org/2000/svg" xml:space="preserve" width="120px" height="120px" version="1.1" style="shape-rendering:geometricPrecision; text-rendering:geometricPrecision; image-rendering:optimizeQuality; fill-rule:evenodd; clip-rule:evenodd"
viewBox="0 0 120 120"
 xmlns:xlink="http://www.w3.org/1999/xlink">
 <defs>
  <style type="text/css">
   <![CDATA[
    .fil0 {fill:none}
    .fil3 {fill:#FEFEFE}
    .fil1 {fill:#B8E5FA}
    .fil2 {fill:#0063D4}
    .fil4 {fill:#00AEFF}
    .fil6 {fill:#CF6100}
    .fil5 {fill:#E3AB4B}
    .fil7 {fill:black;fill-rule:nonzero}
   ]]>
  </style>
 </defs>
 <g id="Layer_x0020_1">
  <metadata id="CorelCorpID_0Corel-Layer"/>
  <rect class="fil0" width="120" height="120"/>
  <g id="_638693944">
   <circle class="fil1" cx="59" cy="61" r="30"/>
   <path class="fil2" d="M78 90c-7,-3 -15,2 -21,4 -2,-9 -9,-6 -17,-6 -6,0 -8,-5 -14,-5 -3,0 -5,0 -7,0 0,-2 0,-2 -1,-3 -11,0 -15,-1 -16,1l0 14 0 14c0,0 0,1 1,1 1,1 14,0 16,0l0 -3c4,0 14,4 18,6 4,1 6,2 9,2l0 0c5,-1 8,-3 17,-8 3,-1 14,-7 15,-8 4,-4 1,-7 0,-9z"/>
   <path class="fil2" d="M43 30c6,2 5,2 11,0 3,-1 7,-3 10,-4 7,11 8,4 18,7 8,0 1,5 20,5l0 3 16 0 0 -30 -14 0c-2,0 -2,0 -2,2 -5,0 -14,-4 -19,-5 -10,-4 -8,-3 -17,1 -6,3 -11,6 -16,8 -6,3 -12,6 -7,13z"/>
   <path class="fil3" d="M45 27c3,2 6,0 9,-1 9,-3 13,-6 20,-6 13,0 4,-2 12,-1 -2,10 -17,1 -18,7 -1,6 13,0 20,5 5,3 7,4 14,3l0 -17c-14,-2 -24,-11 -32,-6l-20 11c-3,1 -5,1 -5,5z"/>
   <path class="fil3" d="M19 104c5,0 11,2 16,4 14,5 9,5 28,-5 3,-2 12,-5 13,-8 -2,-4 -5,-2 -9,0 -8,2 -13,5 -20,5 -13,0 -4,2 -12,2 1,-10 17,-2 18,-8 0,-6 -11,1 -20,-5 -7,-3 -6,-2 -14,-2l0 17z"/>
   <path class="fil4" d="M6 106l9 0 0 -22 -9 0c0,3 0,18 0,22z"/>
   <polygon class="fil4" points="106,35 106,37 115,37 115,35 115,14 106,14 "/>
   <g>
    <ellipse class="fil5" cx="59" cy="75" rx="13" ry="5"/>
    <rect class="fil6" x="58" y="42" width="2.30435" height="32.315" rx="1" ry="2"/>
    <path class="fil5" d="M37 45l0 3c0,0 10,4 22,4 12,0 22,-4 22,-4l0 -3 -44 0z"/>
    <ellipse class="fil6" cx="59" cy="46" rx="22" ry="4"/>
   </g>
   <g>
    <path class="fil7" d="M28 26l0 -1 0 0 0 0 1 -1 0 0 1 0 0 0 0 0 1 0 0 0 0 0 0 0 0 1 0 0 0 0 0 0 0 0 0 0 -1 1 0 0 -1 0 0 0 -1 0 0 0zm-4 3l-1 -2 1 0 1 -1 0 0 1 0 0 0 1 1 0 0 -1 0 -1 1 0 0 -1 1zm-4 3l-1 -2 1 0 1 -1 0 0 1 -1 1 2 -1 0 0 0 -1 1 -1 1zm-3 3l-1 -1 0 -1 1 -1 1 0 1 1 -1 0 0 1 -1 1zm-3 4l-1 -1 0 0 1 -2 1 -1 1 1 -1 1 0 1 -1 1zm-2 3l-1 0 0 0 1 -2 0 -1 1 1 0 1 -1 1 0 0zm0 1l-2 -1 1 0 1 0 0 1zm-2 5l-1 -1 0 -1 0 -1 1 -1 1 1 0 0 0 1 -1 2zm-1 4l-1 0 0 0 0 -1 0 -2 0 0 2 0 0 0 0 2 -1 1 0 0zm0 5l-1 0 0 -1 0 -1 0 -1 1 0 0 1 0 1 0 1zm1 5l-2 0 0 0 0 -1 0 -2 0 0 1 0 1 0 0 2 0 1 0 0zm1 5l-2 0 0 0 0 -1 0 -1 0 -1 1 0 0 0 1 1 0 2 0 0zm1 4l-1 1 0 -1 -1 -1 0 -1 0 0 1 -1 1 1 0 1 0 1 0 0zm2 4l-1 1 0 0 0 0 -1 0 0 -1 0 0 0 -1 0 0 0 -1 1 0 0 0 0 1 1 0 0 1 0 0 0 0 0 0 0 0z"/>
   </g>
   <g>
    <path class="fil7" d="M90 90l1 2 -1 0 0 0 0 1 -1 0 0 0 -1 0 0 0 0 0 0 0 0 0 0 0 -1 -1 0 0 0 0 0 0 1 0 0 -1 0 0 0 0 1 0 0 0 1 0 0 -1zm4 -2l1 1 0 0 -1 1 0 0 -1 1 -1 0 -1 -1 1 -1 1 0 0 0 1 -1 0 0zm4 -3l1 1 0 0 -1 1 -1 1 -1 0 -1 -1 1 -1 1 0 1 -1 0 0zm3 -4l1 1 0 1 -1 1 -1 1 0 0 -1 -1 0 0 1 -1 1 -1 0 -1zm3 -4l1 1 0 1 -1 1 0 1 -1 0 -1 -1 0 0 1 -1 1 -1 0 -1zm1 -1l2 0 0 0 -1 1 -1 -1 0 0 0 0zm1 -3l2 1 -1 1 0 1 -2 0 1 -2 0 -1zm2 -4l1 0 0 0 0 2 -1 1 0 0 -1 0 0 0 0 -2 1 -1 0 0zm0 -5l2 0 0 1 0 2 0 0 -2 0 0 -1 0 -1 0 -1zm0 -5l2 0 0 1 0 1 0 1 0 0 -2 0 0 0 0 -1 0 -1 0 -1zm0 -5l1 0 0 0 1 2 0 1 0 0 -2 1 0 -1 0 -1 0 -2 0 0zm-1 -4l1 -1 1 1 0 1 0 1 0 0 -1 1 -1 -1 0 -1 0 -1 0 0zm-1 -5l1 -1 0 1 0 0 1 1 0 1 0 1 -2 0 0 -1 0 -1 0 0 0 -1 0 0zm-1 -2l2 0 0 0 0 0 -2 0 0 0 0 0z"/>
   </g>
  </g>
 </g>
</svg>
