<?xml version="1.0" encoding="UTF-8"?>
<!DOCTYPE svg PUBLIC "-//W3C//DTD SVG 1.1//EN" "http://www.w3.org/Graphics/SVG/1.1/DTD/svg11.dtd">
<!-- Creator: CorelDRAW X7 -->
<svg xmlns="http://www.w3.org/2000/svg" xml:space="preserve" width="120px" height="120px" version="1.1" style="shape-rendering:geometricPrecision; text-rendering:geometricPrecision; image-rendering:optimizeQuality; fill-rule:evenodd; clip-rule:evenodd"
viewBox="0 0 120 120"
 xmlns:xlink="http://www.w3.org/1999/xlink">
 <defs>
  <style type="text/css">
   <![CDATA[
    .fil0 {fill:none}
    .fil1 {fill:#FEFEFE}
    .fil2 {fill:#A98F71}
    .fil5 {fill:#F58634}
    .fil3 {fill:#E3AB4B}
    .fil7 {fill:#FEFEFE;fill-rule:nonzero}
    .fil4 {fill:#F58634;fill-rule:nonzero}
    .fil6 {fill:#00A859;fill-rule:nonzero}
   ]]>
  </style>
   <clipPath id="id0">
    <path d="M2 31l116 0 0 58 -116 0 0 -58z"/>
   </clipPath>
 </defs>
 <g id="Layer_x0020_1">
  <metadata id="CorelCorpID_0Corel-Layer"/>
  <rect class="fil0" width="120" height="120"/>
  <polygon class="fil1" points="2,31 118,31 118,89 2,89 "/>
  <g style="clip-path:url(#id0)">
   <g id="_890166176">
    <g>
     <g>
      <ellipse class="fil2" cx="60" cy="141" rx="29" ry="10"/>
      <rect class="fil2" x="58" y="68" width="4.98046" height="69.8442" rx="2" ry="4"/>
      <path class="fil2" d="M4 76l0 6c0,0 25,7 56,7 31,0 57,-7 57,-7l0 -6 -113 0z"/>
      <ellipse class="fil3" cx="60" cy="76" rx="57" ry="9"/>
     </g>
     <g>
      <g>
       <g>
        <polygon class="fil1" points="38,55 77,55 81,77 42,81 "/>
        <path id="1" class="fil4" d="M77 57l-39 0 0 -4 39 0 1 2 -1 2zm0 -4l1 0 0 2 -1 -2zm3 24l-4 -22 2 0 4 22 -1 2 -1 -2zm2 0l1 1 -2 1 1 -2zm-40 2l39 -4 0 4 -39 3 -1 -1 1 -2zm0 3l-1 0 0 -1 1 1zm-3 -27l4 25 -2 1 -5 -26 2 -2 1 2zm-3 0l0 -2 2 0 -2 2z"/>
       </g>
       <g>
        <path class="fil1" d="M38 55l-8 22 12 4c0,0 -3,-27 -4,-26z"/>
        <path id="1" class="fil4" d="M29 76l7 -22 3 2 -8 22 -1 1 -1 -3zm1 3l-1 -1 0 -2 1 3zm12 3l-12 -3 1 -4 11 4 1 1 -1 2zm1 -2l1 3 -2 -1 1 -2zm-4 -24l-3 -2 1 0 1 0 1 0 0 1 0 0 0 1 1 1 0 0 0 1 0 1 0 1 0 1 1 1 0 2 0 1 0 1 0 1 1 1 0 2 0 1 0 1 0 1 1 1 0 1 0 1 0 1 0 1 0 1 0 0 0 1 0 0 0 0 0 0 -2 1 0 0 0 0 0 -1 0 0 0 -1 0 -1 -1 0 0 -1 0 -1 0 -1 0 -1 0 -1 0 -2 -1 -1 0 -1 0 -1 0 -1 0 -2 -1 -1 0 -1 0 -1 0 -1 0 -1 -1 -1 0 -1 0 -1 0 0 0 -1 0 0 0 0 0 0 1 0 1 0zm-3 -2l1 0 0 0 -1 0z"/>
       </g>
      </g>
      <polygon class="fil5" points="46,72 76,71 75,73 47,75 "/>
      <polygon class="fil5" points="57,67 75,66 75,68 57,69 "/>
     </g>
     <g>
      <path class="fil6" d="M75 34c-1,-1 -2,-1 -3,0l-21 24 -13 -9c0,0 -1,0 -2,0 -1,1 -1,2 0,3l13 18c0,0 1,1 1,1l0 0c1,0 1,-1 2,-1l23 -34c0,0 0,-1 0,-2z"/>
      <path id="1" class="fil7" d="M73 34l-2 -1 0 0 1 0 0 0 0 0 0 0 0 0 0 0 0 0 0 0 1 0 0 0 0 0 0 0 0 0 0 0 0 0 0 0 0 0 1 0 0 0 0 0 0 0 0 0 0 0 0 0 0 0 1 0 0 0 0 0 0 0 0 0 0 0 0 0 -1 2 0 0 0 0 0 -1 0 0 0 0 0 0 0 0 0 0 0 0 0 0 0 0 -1 0 0 0 0 0 0 0 0 0 0 0 0 0 0 0 0 0 0 0 0 0 0 0 0 0 0 0 0 0 0 0 0 0 0 0 0 0 0 1 0 0 0 -1zm-2 -1l0 0 0 0 0 0zm-21 25l21 -25 2 1 -21 25 -2 0 0 -1zm2 1l-1 0 -1 0 2 0zm-13 -11l12 9 -1 2 -12 -9 1 -2 0 0zm0 0l0 0 0 0 0 0zm-2 2l-2 -1 0 0 0 0 1 0 0 -1 0 0 0 0 0 0 0 0 0 0 0 0 0 0 0 0 1 0 0 0 0 0 0 0 0 0 0 0 0 0 0 0 1 0 0 0 0 0 0 0 0 0 0 0 0 0 0 0 0 0 1 0 0 0 0 0 0 0 -1 2 0 0 0 0 0 0 0 0 0 0 0 0 0 0 0 0 0 0 0 0 -1 0 0 0 0 0 0 0 0 0 0 0 0 0 0 0 0 0 0 0 0 0 0 0 0 0 0 0 0 0 0 0 0 0 0 0 0 0 0 0 0 0 0 0 0 0zm0 1l-2 1 0 0 0 0 0 0 0 0 0 0 0 0 0 0 0 -1 0 0 0 0 0 0 0 0 0 0 0 0 0 0 0 0 0 -1 0 0 0 0 0 0 0 0 0 0 0 0 0 0 0 0 0 -1 0 0 0 0 0 0 0 0 0 0 0 0 0 0 2 1 0 0 0 0 0 0 0 0 0 0 0 0 -1 0 0 0 0 0 0 0 0 0 0 0 0 0 0 0 0 1 0 0 0 0 0 0 0 0 0 0 0 0 0 0 0 0 0 0 0 0 0 0 0 0 0 0 0 0 1 0 0 0 0 0 0 0zm0 0l0 0 0 0 0 0zm11 19l-13 -18 2 -1 12 18 -1 1 0 0zm0 0l0 0 0 0 0 0zm2 0l0 1 0 0 0 0 0 0 0 0 0 0 0 0 0 0 0 0 -1 0 0 0 0 0 0 0 0 0 0 0 0 0 0 0 0 0 0 0 0 0 0 0 0 0 -1 0 0 0 0 0 0 0 0 0 0 0 0 0 0 -1 0 0 0 0 0 0 0 0 1 -1 0 0 0 0 0 0 0 0 0 0 0 0 0 0 0 0 0 0 0 0 1 0 0 0 0 0 0 0 0 1 0 0 0 0 0 0 0 0 0 0 0 0 0 0 0 0 0 0 0 0 0 0 0 0 0 0 0 0 0 0 0 0 0 0 0 0zm0 1l0 0 0 0 0 0zm0 0l0 0 0 -1 0 0 0 0 0 1zm1 -2l1 1 0 0 0 0 0 0 0 0 0 1 0 0 0 0 0 0 0 0 0 0 0 0 0 0 0 0 0 0 0 0 -1 0 0 0 0 0 0 0 0 0 0 0 0 0 0 0 0 0 0 0 0 0 0 0 0 0 -1 0 0 0 0 0 0 0 0 0 0 -1 0 0 0 0 0 0 0 0 0 0 0 0 0 0 0 0 0 0 0 0 0 0 0 0 1 0 0 0 0 0 0 0 0 0 0 0 0 -1 0 0 0 0 0 0 0 0 0 0 0 0 0 0 0 0 0 0 0 0 0 0 0 0 0 0 0 0zm1 1l0 0 0 0 0 0zm24 -33l-24 33 -1 -1 23 -33 0 0 2 1zm-2 -1l0 0 0 0 0 0zm0 -1l1 -2 0 0 0 0 0 0 0 1 1 0 0 0 0 0 0 0 0 0 0 0 0 0 0 0 0 1 0 0 0 0 0 0 0 0 0 0 0 0 0 0 0 1 0 0 0 0 0 0 0 0 0 0 0 0 0 0 0 1 0 0 0 0 0 0 0 0 -2 -1 0 0 0 0 0 0 0 0 0 0 0 0 0 0 0 0 0 0 0 0 0 -1 0 0 0 0 0 0 0 0 0 0 0 0 0 0 0 0 0 0 0 0 0 0 0 0 0 0 0 0 0 0 0 0 0 0 0 0 0 0 0 0 0 0 0 0zm1 -2l0 0 0 0 0 0z"/>
     </g>
    </g>
   </g>
  </g>
  <polygon class="fil0" points="2,31 118,31 118,89 2,89 "/>
 </g>
</svg>
