<?xml version="1.0" encoding="UTF-8"?>
<!DOCTYPE svg PUBLIC "-//W3C//DTD SVG 1.1//EN" "http://www.w3.org/Graphics/SVG/1.1/DTD/svg11.dtd">
<!-- Creator: CorelDRAW X7 -->
<svg xmlns="http://www.w3.org/2000/svg" xml:space="preserve" width="120px" height="120px" version="1.1" style="shape-rendering:geometricPrecision; text-rendering:geometricPrecision; image-rendering:optimizeQuality; fill-rule:evenodd; clip-rule:evenodd"
viewBox="0 0 120 120"
 xmlns:xlink="http://www.w3.org/1999/xlink">
 <defs>
  <style type="text/css">
   <![CDATA[
    .fil0 {fill:none}
    .fil1 {fill:#FEFEFE}
    .fil5 {fill:#A98F71}
    .fil6 {fill:#E3AB4B}
    .fil4 {fill:#FEFEFE;fill-rule:nonzero}
    .fil3 {fill:#00A859;fill-rule:nonzero}
    .fil2 {fill:#2887D2;fill-rule:nonzero}
   ]]>
  </style>
 </defs>
 <g id="Layer_x0020_1">
  <metadata id="CorelCorpID_0Corel-Layer"/>
  <rect class="fil0" width="120" height="120"/>
  <g id="_543968248">
   <g>
    <g>
     <g>
      <polygon class="fil1" points="2,23 25,23 25,47 2,47 "/>
      <path id="1" class="fil2" d="M25 24l-23 0 0 -1 23 0 1 0 -1 1zm0 -1l1 0 0 0 -1 0zm0 24l0 -24 1 0 0 24 -1 1 0 -1zm1 0l0 1 -1 0 1 -1zm-24 -1l23 0 0 2 -23 0 -1 -1 1 -1zm0 2l-1 0 0 -1 1 1zm1 -25l0 24 -2 0 0 -24 1 0 1 0zm-2 0l0 0 1 0 -1 0z"/>
     </g>
     <g>
      <path class="fil3" d="M29 18c0,-1 -1,-1 -2,0l-14 17 -9 -7c0,0 -1,0 -2,1 0,0 0,1 0,1l9 13c0,0 1,0 1,0l0 0c1,0 1,0 1,0l16 -23c1,-1 1,-2 0,-2z"/>
      <path id="1" class="fil4" d="M28 18l-1 -1 0 0 0 0 0 0 0 0 0 0 0 0 1 0 0 0 0 0 0 0 0 0 0 0 0 0 0 0 0 0 0 0 0 0 0 0 1 0 0 0 0 0 0 0 0 0 0 0 0 0 0 0 0 0 0 0 0 0 0 0 1 0 0 0 0 0 -1 1 0 0 0 0 0 0 0 0 0 0 0 0 0 0 0 0 0 0 0 0 0 0 -1 0 0 0 0 0 0 0 0 0 0 0 0 0 0 0 0 0 0 0 0 0 0 0 0 0 0 0 0 0 0 0 0 0 0 0 0 0 0 0 0 0 0 0zm-1 -1l0 0 0 0 0 0zm-15 17l15 -17 1 1 -15 17 -1 0 0 -1zm1 1l0 1 -1 -1 1 0zm-9 -7l9 6 -1 1 -8 -6 0 -1 0 0zm0 0l0 0 0 0 0 0zm-1 1l-1 -1 0 0 0 0 0 0 0 0 0 0 0 0 0 0 0 0 1 0 0 0 0 0 0 0 0 0 0 0 0 0 0 0 0 0 0 0 0 0 0 0 0 0 1 0 0 0 0 0 0 0 0 0 0 0 0 0 0 0 0 0 0 0 0 0 0 0 0 1 0 0 0 0 0 0 0 0 0 0 0 0 0 0 0 0 0 0 -1 0 0 0 0 0 0 0 0 0 0 0 0 0 0 0 0 0 0 0 0 0 0 0 0 0 0 0 0 0 0 0 0 0 0 0 0 0 0 0 0 0 0 0 0 0 0 0zm0 1l-1 1 0 0 0 0 0 0 0 -1 0 0 0 0 0 0 0 0 0 0 0 0 -1 0 0 0 0 0 0 0 0 0 0 -1 0 0 0 0 0 0 0 0 1 0 0 0 0 0 0 0 0 0 0 0 0 0 0 0 0 -1 0 0 0 0 0 0 0 0 1 1 0 0 0 0 0 0 0 0 0 0 0 0 0 0 0 0 0 0 0 0 0 0 0 0 0 0 0 0 0 0 0 0 0 1 0 0 0 0 0 0 0 0 0 0 0 0 0 0 0 0 0 0 0 0 0 0 0 0 0 0 0 0 0 0 0 0zm0 0l0 0 0 0 0 0zm8 13l-9 -12 1 -1 9 12 -1 1 0 0zm0 0l0 0 0 0 0 0zm1 0l0 1 0 0 0 0 0 0 0 0 0 0 0 0 0 0 0 0 0 0 0 0 0 0 0 0 0 0 -1 0 0 0 0 0 0 0 0 0 0 0 0 0 0 0 0 0 0 0 0 0 0 0 0 -1 0 0 0 0 0 0 0 0 0 0 0 0 0 0 1 -1 0 0 0 0 0 1 0 0 0 0 0 0 0 0 0 0 0 0 0 0 0 0 0 0 0 0 0 0 0 0 0 0 0 0 0 0 0 0 0 0 0 0 0 0 0 0 0 0 0 0 0 0 0 0 0 0 0 0 0 0 0 0 0 0 0 0zm0 1l0 0 0 0 0 0zm0 0l0 0 0 -1 0 0 0 0 0 1zm1 -2l1 1 0 0 0 0 0 0 0 0 0 0 0 0 0 0 0 0 0 1 -1 0 0 0 0 0 0 0 0 0 0 0 0 0 0 0 0 0 0 0 0 0 0 0 0 0 0 0 0 0 0 0 0 0 0 0 0 0 -1 0 0 0 0 0 0 0 0 0 0 -1 0 0 0 0 0 0 0 0 0 0 0 0 0 0 0 0 0 0 0 0 0 0 0 0 1 0 0 0 0 0 0 0 0 0 0 0 0 0 0 0 0 0 0 0 0 0 0 0 0 0 0 0 0 0 0 0 0 0 0 0 0 -1 0 0 0 0zm1 1l0 0 0 0 0 0zm16 -23l-16 23 -1 -1 16 -23 0 0 1 1zm-1 -1l0 0 0 0 0 0zm0 -1l1 -1 0 0 0 1 0 0 0 0 0 0 0 0 0 0 0 0 0 0 0 0 0 0 0 0 0 0 0 0 0 1 0 0 0 0 0 0 0 0 0 0 0 0 0 0 0 0 0 0 0 0 0 0 0 1 0 0 0 0 0 0 0 0 0 0 0 0 -1 -1 0 0 0 0 0 0 0 0 0 0 0 0 0 0 0 0 0 0 0 0 0 0 0 0 0 0 0 0 0 0 0 0 0 0 0 0 0 0 0 0 0 0 0 0 0 0 0 0 0 0 0 0 0 -1 0 0 0 0 0 0 0 0 0 0 0 0zm1 -1l0 0 0 1 0 -1z"/>
     </g>
    </g>
    <g>
     <polygon class="fil1" points="2,74 25,74 25,98 2,98 "/>
     <path id="1" class="fil2" d="M25 75l-23 0 0 -1 23 0 1 0 -1 1zm0 -1l1 0 0 0 -1 0zm0 24l0 -24 1 0 0 24 -1 0 0 0zm1 0l0 0 -1 0 1 0zm-24 -1l23 0 0 1 -23 0 -1 0 1 -1zm0 1l-1 0 0 0 1 0zm1 -24l0 24 -2 0 0 -24 1 0 1 0zm-2 0l0 0 1 0 -1 0z"/>
    </g>
   </g>
   <g>
    <ellipse class="fil5" cx="75" cy="93" rx="26" ry="9"/>
    <rect class="fil5" x="73" y="28" width="4.48727" height="62.9274" rx="2" ry="4"/>
    <path class="fil5" d="M32 35l0 6c0,0 20,6 43,6 24,0 43,-7 43,-7l0 -5 -86 0z"/>
    <ellipse class="fil6" cx="75" cy="35" rx="43" ry="8"/>
   </g>
  </g>
 </g>
</svg>
