<?xml version="1.0" encoding="UTF-8"?>
<!DOCTYPE svg PUBLIC "-//W3C//DTD SVG 1.1//EN" "http://www.w3.org/Graphics/SVG/1.1/DTD/svg11.dtd">
<!-- Creator: CorelDRAW X7 -->
<svg xmlns="http://www.w3.org/2000/svg" xml:space="preserve" width="46px" height="49px" version="1.1" style="shape-rendering:geometricPrecision; text-rendering:geometricPrecision; image-rendering:optimizeQuality; fill-rule:evenodd; clip-rule:evenodd"
viewBox="0 0 46 49"
 xmlns:xlink="http://www.w3.org/1999/xlink">
 <defs>
  <style type="text/css">
   <![CDATA[
    .str0 {stroke:white;stroke-width:0.897802}
    .fil3 {fill:none}
    .fil5 {fill:#E31E24}
    .fil4 {fill:#E31E24}
    .fil1 {fill:#1CC8EB}
    .fil0 {fill:#2887D2}
    .fil2 {fill:#46A6D6}
    .fil8 {fill:#999999;fill-rule:nonzero}
    .fil6 {fill:#999999;fill-rule:nonzero}
    .fil7 {fill:#E32210;fill-rule:nonzero}
    .fil9 {fill:white;fill-rule:nonzero}
   ]]>
  </style>
 </defs>
 <g id="Layer_x0020_1">
  <metadata id="CorelCorpID_0Corel-Layer"/>
  <g id="_584930464">
   <g>
    <g>
     <path class="fil0" d="M15 15l16 0c1,0 1,0 1,1l0 6c0,0 0,0 0,0 0,0 -1,0 -2,0l0 -2c0,-2 -6,-2 -6,0 0,0 0,1 0,1l-1 0c0,0 0,0 0,0l0 0 0 0c0,0 0,0 0,0 0,0 0,-1 0,-1 -1,-2 -7,-2 -7,0l0 1c-1,1 -2,1 -2,1 0,0 0,0 0,0l0 -6c0,-1 0,-1 1,-1z"/>
     <path class="fil1" d="M16 19c2,-1 5,-1 7,-1 0,0 0,0 0,0l0 0 0 0c0,0 1,0 1,0 1,0 4,0 6,1 3,0 5,7 5,10 0,2 0,3 0,3 0,0 -1,0 -1,0 0,-1 0,-1 0,-2 0,-1 -1,-1 -1,-1 -1,0 -7,0 -9,0l0 0 -1 0 0 0 0 0 0 0 0 0 0 0c-3,0 -9,0 -10,0 0,0 -1,0 -1,1 0,1 0,1 0,2 0,0 -1,0 -1,0 0,0 0,-1 0,-3 0,-3 2,-10 5,-10z"/>
     <g>
      <path class="fil0" d="M15 30l16 0c2,0 2,0 2,1l0 1c0,1 0,1 -2,1l-16 0c-2,0 -2,0 -2,-1l0 -1c0,-1 0,-1 2,-1zm1 1l0 0z"/>
      <rect class="fil2" x="15" y="33" width="1.49228" height="2.24562"/>
      <rect class="fil2" x="29" y="33" width="1.49228" height="2.24562"/>
      <line class="fil3 str0" x1="16" y1="32" x2="31" y2= "32" />
     </g>
    </g>
    <g>
     <path class="fil4" d="M23 8c9,0 17,8 17,17 0,10 -8,17 -17,17 -9,0 -17,-7 -17,-17 0,-9 8,-17 17,-17zm0 2c8,0 15,7 15,15 0,9 -7,15 -15,15 -8,0 -15,-6 -15,-15 0,-8 7,-15 15,-15z"/>
     <polygon class="fil5" points="10,14 11,13 35,37 35,38 "/>
    </g>
   </g>
   <path class="fil6" d="M45 3l0 2 -2 1 -2 -1 0 -2 2 -1 2 1zm-5 2l-32 0c0,0 -1,-1 -1,-1 0,0 1,0 1,0l32 0c0,0 0,0 0,0 0,0 0,1 0,1zm0 1c1,1 2,2 4,1 2,0 2,-2 2,-4 -1,-1 -3,-2 -4,-2 -1,1 -1,1 -2,2l-32 0c-1,-2 -4,-4 -6,-3 -1,1 -2,1 -2,2l0 0 4 0 1 2 -1 3 -4 0 0 0c1,2 4,2 6,1 1,-1 1,-1 2,-2l32 0z"/>
   <g>
    <path class="fil7" d="M0 46c0,-2 1,-3 3,-3l9 0 0 0c0,0 1,0 2,0l0 0 1 0 0 6 -1 0 0 0c-1,-1 -2,-1 -2,0l0 0 -9 0c-2,0 -3,-2 -3,-3l0 0zm3 1c0,-1 0,-1 0,-1l7 0c0,0 0,0 0,1 0,0 0,0 0,0l-7 0c0,0 0,0 0,0z"/>
    <polygon class="fil8" points="15,47 15,45 42,45 43,44 46,45 46,47 43,47 42,47 "/>
    <path class="fil9" d="M3 45c0,-1 0,-1 0,-1l7 0c0,0 0,0 0,1 0,0 0,0 0,0l-7 0c0,0 0,0 0,0z"/>
    <path class="fil9" d="M3 47c0,-1 0,-1 0,-1l7 0c0,0 0,0 0,1 0,0 0,0 0,0l-7 0c0,0 0,0 0,0z"/>
   </g>
  </g>
 </g>
</svg>
