<?xml version="1.0" encoding="UTF-8"?>
<!DOCTYPE svg PUBLIC "-//W3C//DTD SVG 1.1//EN" "http://www.w3.org/Graphics/SVG/1.1/DTD/svg11.dtd">
<!-- Creator: CorelDRAW X7 -->
<svg xmlns="http://www.w3.org/2000/svg" xml:space="preserve" width="48px" height="41px" version="1.1" style="shape-rendering:geometricPrecision; text-rendering:geometricPrecision; image-rendering:optimizeQuality; fill-rule:evenodd; clip-rule:evenodd"
viewBox="0 0 48 41"
 xmlns:xlink="http://www.w3.org/1999/xlink">
 <defs>
  <style type="text/css">
   <![CDATA[
    .fil0 {fill:#2887D2}
    .fil1 {fill:white}
    .fil2 {fill:#2887D2;fill-rule:nonzero}
    .fil3 {fill:#FC4D44;fill-rule:nonzero}
   ]]>
  </style>
 </defs>
 <g id="Layer_x0020_1">
  <metadata id="CorelCorpID_0Corel-Layer"/>
  <g id="_596445984">
   <g>
    <path class="fil0" d="M40 29c0,0 1,1 3,1 2,0 2,-1 3,-2 0,-2 0,-7 -1,-10 -1,-2 -3,-6 -7,-5 -3,0 -6,3 -7,6 0,3 0,9 0,10 1,1 1,1 2,1 1,0 3,-1 3,-1 1,0 -1,0 -1,-1 -1,-1 -2,-3 -2,-5 0,-2 1,-2 2,-2 0,0 2,0 3,-1 1,-1 1,-1 1,-2 0,0 1,1 2,2 0,0 2,1 2,2 1,1 0,4 -1,5 0,1 -1,2 -2,2 0,0 0,0 0,0 0,0 0,0 0,0z"/>
    <path class="fil1" d="M34 18c0,0 2,-3 4,-3 1,0 5,2 4,3 0,0 -1,-1 -3,-1 -2,-1 -5,0 -5,1z"/>
    <path class="fil0" d="M35 31l0 4c0,0 6,0 6,0 0,0 0,-4 0,-4 0,0 0,1 -2,1 0,0 0,0 -1,0 0,0 -1,0 -1,0 -2,0 -2,-1 -2,-1z"/>
    <path class="fil0" d="M32 31c0,0 0,0 0,0 0,1 0,1 0,1l0 0c-1,1 -2,2 -3,4 -1,2 -1,5 -1,5l4 0 0 0 2 0c0,0 0,-10 0,-10 0,0 0,-1 -1,0 0,0 -1,0 -1,0l0 0z"/>
    <path class="fil0" d="M43 31c0,0 2,1 4,5 2,4 1,5 1,5l-4 0 0 0 -2 0c0,0 0,-10 0,-10 0,0 1,0 1,0 0,0 0,0 0,0z"/>
   </g>
   <path class="fil2" d="M1 27c0,-1 1,-1 2,-1 0,0 0,0 0,-1 0,0 0,0 0,0 0,0 1,0 1,0 0,1 0,1 0,1 0,0 1,0 1,1 0,0 -4,0 -4,0z"/>
   <path class="fil2" d="M1 27l4 0c0,0 0,0 0,1 0,0 0,0 0,0l-4 0c0,0 0,0 0,0 0,-1 0,-1 0,-1z"/>
   <path class="fil0" d="M11 14c0,0 -1,0 -3,2 -1,1 -1,2 -1,3 0,1 0,9 0,9l9 0 9 0c0,0 0,-8 0,-9 0,-1 0,-2 -2,-3 -1,-2 -3,-2 -3,-2l-2 3 -2 -2 -3 2 -2 -3z"/>
   <path class="fil0" d="M11 14c0,0 1,0 2,0 1,0 2,1 3,1 1,-1 4,-2 4,-2 0,0 -8,0 -9,1z"/>
   <rect class="fil0" y="29" width="26.8061" height="2.92004" rx="1" ry="1"/>
   <path class="fil3" d="M23 38l-15 0 0 3 -4 -4 4 -4 0 2 15 0 0 3zm-8 0m-7 2m-2 -1m0 -4m2 -1m7 1m8 2"/>
   <path class="fil3" d="M26 9l15 0 0 2 4 -3 -4 -4 0 2 -15 0 0 3zm8 0m7 1m2 -1m0 -3m-2 -1m-7 1m-8 2"/>
   <g>
    <g>
     <path class="fil2" d="M11 6l0 0 0 0 0 0 0 0 0 0 0 0 0 0 0 0 0 0 0 0 0 0 0 0 0 0 0 0 0 -1 0 0 0 0 0 0 0 0 0 0 0 0 0 0 0 0 0 0 0 0 0 0 0 0 0 0 0 0 0 0 0 0 0 0 0 0 0 0 0 0 0 0 0 0 0 0 0 0 0 0 0 0 0 0 0 0 0 0 0 0 0 0 0 0 0 0 0 0 0 0 0 0 0 0 0 0 0 0 0 0 0 1 0 0 0 0 0 0 0 0 0 0 0 0 0 0 0 0 0 0 0 0 0 0 0 0zm5 6l0 0 0 0 -1 0 0 0 0 0 -1 0 0 0 0 0 -1 0 0 0 0 -1 0 0 -1 0 0 0 0 -1 0 0 0 0 0 0 0 -1 -1 0 0 0 0 0 0 -1 0 0 0 0 0 -1 0 0 0 0 0 0 0 -1 0 0 0 0 0 0 0 0 0 0 0 0 0 0 0 0 0 0 0 1 0 0 0 0 0 0 0 1 0 0 0 0 0 0 1 1 0 0 0 0 0 1 0 0 0 0 0 0 0 1 1 0 0 0 0 0 0 0 1 1 0 0 0 0 0 0 1 0 0 0 0 0 1 0 0 0zm5 -7l0 0 0 0 0 0 0 0 0 0 0 1 0 0 0 0 0 0 0 0 0 1 0 0 0 0 0 0 0 1 0 0 -1 0 0 1 0 0 0 0 0 1 0 0 -1 0 0 1 0 0 0 0 -1 0 0 1 0 0 -1 0 0 0 0 0 -1 0 0 0 0 0 0 0 0 0 1 0 0 0 1 0 0 -1 0 0 0 0 1 0 0 -1 0 0 0 0 1 0 0 -1 0 0 0 0 0 -1 0 0 0 0 1 -1 0 0 0 0 0 0 0 -1 0 0 0 0 0 0 0 0 0 -1 0 0 0 0 0 0 0 0zm-3 0l3 0 0 0 -3 0 0 0zm-7 0l7 0 0 0 -7 0 0 0 0 0zm0 0l0 0 0 0 0 0z"/>
    </g>
    <path class="fil0" d="M11 5c0,0 10,0 10,0 0,0 0,-5 -5,-5 -4,0 -5,3 -5,5z"/>
    <path class="fil0" d="M16 7c0,0 1,0 2,0 1,0 2,-1 3,-2 0,0 0,0 0,0l-10 0c0,0 0,2 0,2 2,0 2,-1 5,0z"/>
   </g>
  </g>
 </g>
</svg>
