<?xml version="1.0" encoding="UTF-8"?>
<!DOCTYPE svg PUBLIC "-//W3C//DTD SVG 1.1//EN" "http://www.w3.org/Graphics/SVG/1.1/DTD/svg11.dtd">
<!-- Creator: CorelDRAW X7 -->
<svg xmlns="http://www.w3.org/2000/svg" xml:space="preserve" width="44px" height="49px" version="1.1" style="shape-rendering:geometricPrecision; text-rendering:geometricPrecision; image-rendering:optimizeQuality; fill-rule:evenodd; clip-rule:evenodd"
viewBox="0 0 45 50"
 xmlns:xlink="http://www.w3.org/1999/xlink">
 <defs>
  <style type="text/css">
   <![CDATA[
    .str0 {stroke:#2887D2;stroke-width:0.918726}
    .str1 {stroke:white;stroke-width:0.918726}
    .fil18 {fill:none}
    .fil12 {fill:none;fill-rule:nonzero}
    .fil16 {fill:#1CC8EB}
    .fil15 {fill:#2887D2}
    .fil17 {fill:#46A6D6}
    .fil11 {fill:#B3B3B3}
    .fil14 {fill:white}
    .fil7 {fill:#FEFEFE;fill-rule:nonzero}
    .fil5 {fill:#FAFBFB;fill-rule:nonzero}
    .fil10 {fill:#EBF5FC;fill-rule:nonzero}
    .fil8 {fill:#E4E7F2;fill-rule:nonzero}
    .fil1 {fill:#D6DEEE;fill-rule:nonzero}
    .fil9 {fill:#ADC7DE;fill-rule:nonzero}
    .fil2 {fill:#8A9CC8;fill-rule:nonzero}
    .fil3 {fill:#1A82B4;fill-rule:nonzero}
    .fil4 {fill:#2887D2;fill-rule:nonzero}
    .fil13 {fill:#4AC139;fill-rule:nonzero}
    .fil0 {fill:#999999;fill-rule:nonzero}
    .fil6 {fill:#B3B3B3;fill-rule:nonzero}
   ]]>
  </style>
 </defs>
 <g id="Layer_x0020_1">
  <metadata id="CorelCorpID_0Corel-Layer"/>
  <g id="_603647872">
   <g>
    <path class="fil0" d="M34 2l-32 0c-1,0 -1,0 -1,0l0 47c0,0 0,0 1,0l32 0c0,0 0,0 0,0l0 -47c0,0 0,0 0,0z"/>
    <polygon class="fil0" points="3,44 4,47 6,47 33,47 33,4 3,4 "/>
   </g>
   <path class="fil1" d="M24 0l-15 0c0,0 0,0 0,0l0 4c0,0 0,0 0,0l15 0c0,0 0,0 0,0l0 -4c0,0 0,0 0,0z"/>
   <path class="fil2" d="M23 2l0 0 0 0c0,0 0,0 0,0l-13 0c0,0 0,0 0,-1l0 0c0,0 0,0 0,0l0 1 -1 0 0 -1c0,0 1,0 1,0l13 0c0,0 0,0 0,0l0 1z"/>
   <path class="fil3" d="M32 46l-28 0 -2 0 -1 -3 0 -17 0 1 0 16 1 2 2 1 28 0 0 0zm-31 -22l0 0 0 -2 0 0c0,0 0,0 0,0 0,0 0,0 0,0l0 2zm0 -2l0 0 0 -20 0 0 0 20z"/>
   <g>
    <path class="fil4" d="M33 0l-33 0c0,0 0,0 0,0l0 47c0,0 0,0 0,0l33 0c0,0 0,0 0,0l0 -47c0,0 0,0 0,0z"/>
    <polygon class="fil5" points="1,43 2,45 4,46 32,46 32,2 1,2 "/>
   </g>
   <polygon class="fil6" points="7,7 26,7 26,6 7,6 "/>
   <polygon class="fil7" points="2,45 4,46 1,43 "/>
   <path class="fil8" d="M23 4l-13 0c0,0 -1,0 -1,0l0 -2 1 0 0 2c0,0 0,0 0,0l13 0c0,0 0,0 0,0l0 -2 0 0 0 2c0,0 0,0 0,0z"/>
   <path class="fil9" d="M23 4c0,0 0,0 0,0l-13 0c0,0 0,0 0,0l0 -3c0,0 0,0 0,0l13 0c0,0 0,0 0,0l0 3zm0 -4l-13 0c0,0 0,1 0,1l0 3c0,0 0,0 0,0l13 0c0,0 1,0 1,0l0 -3c0,0 -1,-1 -1,-1z"/>
   <path class="fil10" d="M23 0l-13 0c0,0 0,0 0,0l0 1c0,0 0,0 0,0l13 0c0,0 0,0 0,0l0 -1c0,0 0,0 0,0z"/>
   <polygon class="fil7" points="14,1 19,1 20,0 15,0 "/>
   <polygon class="fil7" points="20,1 21,1 22,0 21,0 "/>
   <path class="fil9" d="M10 1c0,0 0,0 0,0l13 0c0,0 0,0 0,0l0 0 -13 0 0 0z"/>
   <rect class="fil11" transform="matrix(-2.5083E-013 -1.97886 8.05372 -4.45673E-014 3.55919 12.6918)" width="0.822272" height="3.21434"/>
   <rect class="fil11" transform="matrix(-2.50827E-013 -1.97886 8.05365 -4.45673E-014 3.55946 15.3498)" width="0.822272" height="3.21434"/>
   <rect class="fil11" transform="matrix(-2.5083E-013 -1.97886 8.05372 -4.45673E-014 3.55919 20.1953)" width="0.822272" height="3.21434"/>
   <rect class="fil11" transform="matrix(-2.50829E-013 -1.97886 8.05369 -4.45673E-014 3.55932 22.8653)" width="0.822272" height="3.21434"/>
   <rect class="fil11" transform="matrix(-2.5083E-013 -1.97886 8.05373 -4.45673E-014 3.55917 28.0419)" width="0.822272" height="3.21434"/>
   <rect class="fil11" transform="matrix(-2.5083E-013 -1.97886 8.05374 -4.45673E-014 3.55916 30.5939)" width="0.822272" height="3.21434"/>
   <rect class="fil11" transform="matrix(-1.24132E-013 -2.13631 3.98568 -4.81134E-014 15.4772 37.5109)" width="0.822272" height="3.21434"/>
   <rect class="fil11" transform="matrix(-1.48174E-013 -1.97886 4.75762 -4.45673E-014 14.154 41.0341)" width="0.822272" height="3.21434"/>
   <g>
    <g>
     <path class="fil12 str0" d="M4 34l7 0c0,0 0,0 0,1l0 5c0,1 0,1 0,1l-7 0c0,0 0,0 0,-1l0 -5c0,-1 0,-1 0,-1z"/>
    </g>
    <path class="fil13" d="M7 40c0,0 -1,-1 -1,-1l-1 -1c0,0 0,0 0,-1 0,0 0,0 0,0 0,0 0,0 0,0l2 1 3 -2c0,0 0,-1 0,-1l0 0c0,0 0,1 0,1 0,0 0,0 0,0l-3 3c0,0 0,1 0,1z"/>
   </g>
   <g>
    <path class="fil14" d="M29 20c8,0 15,6 15,14 0,8 -7,15 -15,15 -8,0 -14,-7 -14,-15 0,-8 6,-14 14,-14z"/>
    <path id="1" class="fil4" d="M45 34l-2 0 0 0 0 0 0 -1 0 -1 0 0 0 -1 0 -1 -1 0 0 -1 0 -1 0 0 -1 -1 0 0 0 -1 -1 0 0 -1 -1 0 0 -1 -1 0 0 -1 -1 0 0 0 -1 -1 -1 0 0 0 -1 -1 0 0 -1 0 -1 0 0 0 -1 0 -1 0 -1 0 0 -2 1 0 1 0 1 0 1 0 0 1 1 0 1 0 0 0 1 1 1 0 0 0 1 1 1 0 0 1 1 0 0 1 1 0 0 1 1 0 0 1 1 0 0 1 0 1 1 0 0 1 0 1 0 1 0 0 1 1 0 1 0 1 0 0 0 0zm-16 16l0 -2 0 0 1 0 1 0 1 0 0 0 1 0 1 0 0 -1 1 0 0 0 1 0 1 -1 0 0 1 0 0 -1 1 0 0 -1 1 0 0 -1 1 0 0 -1 0 0 1 -1 0 -1 0 0 0 -1 1 0 0 -1 0 -1 0 0 0 -1 0 -1 0 -1 2 0 0 1 0 1 0 1 -1 0 0 1 0 1 0 1 0 0 -1 1 0 1 0 0 -1 1 0 1 -1 0 0 1 -1 0 0 1 -1 0 0 1 -1 0 -1 1 0 0 -1 0 -1 1 0 0 -1 0 -1 0 0 0 -1 1 -1 0 -1 0 -1 0 0 0zm-15 -16l2 0 0 0 0 1 0 1 0 1 0 0 0 1 0 1 0 0 1 1 0 0 0 1 1 1 0 0 0 1 1 0 0 1 1 0 0 1 1 0 0 1 1 0 0 0 1 1 0 0 1 0 1 0 0 1 1 0 1 0 0 0 1 0 1 0 0 0 0 2 0 0 -1 0 -1 0 -1 -1 0 0 -1 0 -1 0 -1 0 0 -1 -1 0 -1 0 0 -1 -1 0 0 -1 -1 0 0 -1 -1 0 0 -1 -1 0 0 -1 -1 -1 0 0 0 -1 -1 -1 0 0 0 -1 0 -1 -1 -1 0 0 0 -1 0 -1 0 -1 0 0zm15 -15l0 2 0 0 0 0 -1 0 -1 0 0 0 -1 0 -1 0 0 0 -1 1 -1 0 0 0 -1 1 0 0 -1 0 0 1 -1 0 0 1 -1 0 0 1 -1 0 0 1 0 0 -1 1 0 0 0 1 -1 1 0 0 0 1 0 1 0 0 0 1 0 1 0 0 -2 0 0 0 0 -1 0 -1 0 -1 1 0 0 -1 0 -1 0 -1 1 0 0 -1 0 -1 1 0 0 -1 1 0 0 -1 1 0 0 -1 1 0 0 -1 1 0 0 -1 1 0 1 0 0 -1 1 0 1 0 1 0 0 -1 1 0 1 0 1 0 0 0 0 0z"/>
   </g>
   <g>
    <path class="fil15" d="M23 25l13 0c1,0 1,0 1,1l0 5c0,0 0,0 0,0 0,0 -1,0 -1,-1l0 -1c0,-1 -5,-2 -5,0 0,0 -1,1 -1,1l0 0c0,0 0,0 0,0l0 0 0 0c0,0 0,0 0,0 0,0 0,-1 -1,-1 0,-2 -5,-1 -5,0l0 1c-1,0 -1,1 -2,1 0,0 0,0 0,0l0 -5c0,-1 1,-1 1,-1z"/>
    <path class="fil16" d="M24 31c2,0 4,-1 5,-1 1,0 1,0 1,0l0 0 0 0c0,0 0,0 0,0 1,0 4,1 5,1 3,0 5,3 5,6 0,1 0,2 0,2 -1,0 -1,0 -1,0 0,-1 0,-2 0,-3 -1,0 -1,0 -1,0 -1,0 -6,0 -8,0l0 0 0 0 0 0 0 0 0 0 -1 0 0 0c-2,0 -7,0 -7,0 0,0 -1,0 -1,0 0,1 0,2 0,3 0,0 -1,0 -1,0 0,0 0,-1 0,-2 0,-3 2,-6 4,-6z"/>
    <rect class="fil15" x="21" y="36" width="16.9632" height="4.21493" rx="1" ry="2"/>
    <rect class="fil17" x="23" y="40" width="1.21669" height="1.83086"/>
    <rect class="fil17" x="35" y="40" width="1.21669" height="1.83086"/>
    <line class="fil18 str1" x1="24" y1="38" x2="36" y2= "38" />
   </g>
  </g>
 </g>
</svg>
