<svg xmlns="http://www.w3.org/2000/svg" width="144" height="144" viewBox="0 0 1102 1102" shape-rendering="geometricPrecision" text-rendering="geometricPrecision" image-rendering="optimizeQuality" fill-rule="evenodd" clip-rule="evenodd"><defs><style>.fil0{fill:#fff}</style></defs><g id="Layer_x0020_1"><g id="_516060941888"><path class="fil0" d="M869 712c-9 3-143 82-161 92-5 2-14 9-19 8s-98-54-111-59c16 12 32 23 48 34l37 26c2 2 4 3 6 4l6 6c-7 3-12 8-19 11-7 4-16-4-22-7-18-9-112-62-121-64 8 7 20 14 29 21l89 63c-3 3-16 12-21 10-10-4-145-80-162-87 5 5 11 9 17 13 32 24 73 50 106 75 3 2 6 4 10 6l6 5c2 1 1 1 3 2l-49 29c-13-6-18-19-61-36-23-10-48-17-72-26-26-10-43-22-60-37-9-7-37-42-42-57l143-119c15-13 140-119 144-120 10 24 35 49 53 67 46 45 197 98 223 140zM433 521c10-6 21-18 32-25 11-9 17-17 32-25 34-15 68 0 83 19l-34 30c-13 10-23 20-36 30-34 27-73 62-106 89-11 8-102 87-108 90-19-25-23-60-2-87 7-10 34-32 46-42 6-5 11-9 16-14l-55-66c-6-8-12-14-19-23-21-27-56-64-75-89-12-16-26-30-37-44-5-7-12-15-18-22l-37-44c-6-8-13-14-18-24-22-45 30-92 74-63 5 4 14 15 19 20l56 67c6 8 12 15 19 23 6 8 12 15 19 22 36 42 77 94 112 134l37 44zM152 223c45 12 27 74-15 65-15-3-29-19-25-40 4-15 20-29 40-25zM586 455c60 50 97 111 171 146 147 70 235-53 101-49-167 5-193-92-272-97z"/><path class="fil0" d="M724 495c106 68 292 14 286-72-2-39-38-43-64-25-24 17-40 46-69 65-51 35-104 24-153 32zM819 320c45 52 68 36 37 106 56-10 80-77 72-111-11-51-81-62-109 5z"/><path fill="none" d="M0 0h1102v1102H0z"/></g></g></svg>