<?xml version="1.0" encoding="UTF-8"?>
<!DOCTYPE svg PUBLIC "-//W3C//DTD SVG 1.1//EN" "http://www.w3.org/Graphics/SVG/1.1/DTD/svg11.dtd">
<!-- Creator: CorelDRAW X7 -->
<svg xmlns="http://www.w3.org/2000/svg" xml:space="preserve" width="120px" height="120px" version="1.1" style="shape-rendering:geometricPrecision; text-rendering:geometricPrecision; image-rendering:optimizeQuality; fill-rule:evenodd; clip-rule:evenodd"
viewBox="0 0 120 120"
 xmlns:xlink="http://www.w3.org/1999/xlink">
 <defs>
  <style type="text/css">
   <![CDATA[
    .str0 {stroke:#2887D2;stroke-width:0.9}
    .fil0 {fill:none}
    .fil9 {fill:#FEFEFE}
    .fil11 {fill:#FEFEFE}
    .fil8 {fill:#2887D2}
    .fil17 {fill:#F7F7F7}
    .fil5 {fill:#F9D0B4}
    .fil4 {fill:#FEFEFE;fill-rule:nonzero}
    .fil2 {fill:#1CC8EB;fill-rule:nonzero}
    .fil10 {fill:#2887D2;fill-rule:nonzero}
    .fil7 {fill:#2887D2;fill-rule:nonzero}
    .fil1 {fill:#2887D2;fill-rule:nonzero}
    .fil3 {fill:#FC4D44;fill-rule:nonzero}
    .fil6 {fill:url(#id0)}
    .fil16 {fill:url(#id1)}
    .fil14 {fill:url(#id2)}
    .fil15 {fill:url(#id3)}
    .fil13 {fill:url(#id4)}
    .fil12 {fill:url(#id5);fill-rule:nonzero}
   ]]>
  </style>
  <linearGradient id="id0" gradientUnits="userSpaceOnUse" x1="16.7409" y1="77.3114" x2="29.3315" y2="60.372">
   <stop offset="0" style="stop-opacity:1; stop-color:#1CC8EB"/>
   <stop offset="0.631373" style="stop-opacity:1; stop-color:#0E96E0"/>
   <stop offset="1" style="stop-opacity:1; stop-color:#0063D4"/>
  </linearGradient>
  <linearGradient id="id1" gradientUnits="userSpaceOnUse" xlink:href="#id0" x1="109.161" y1="76.3748" x2="115.531" y2="67.8047">
  </linearGradient>
  <linearGradient id="id2" gradientUnits="userSpaceOnUse" xlink:href="#id0" x1="90.3732" y1="76.1102" x2="100.583" y2="62.374">
  </linearGradient>
  <linearGradient id="id3" gradientUnits="userSpaceOnUse" xlink:href="#id0" x1="75.4004" y1="76.35" x2="81.7358" y2="67.8272">
  </linearGradient>
  <linearGradient id="id4" gradientUnits="userSpaceOnUse" x1="99.1476" y1="28.8437" x2="92.0185" y2="60.528">
   <stop offset="0" style="stop-opacity:1; stop-color:#1CC8EB"/>
   <stop offset="0.45098" style="stop-opacity:1; stop-color:#0E96E0"/>
   <stop offset="1" style="stop-opacity:1; stop-color:#0063D4"/>
  </linearGradient>
  <linearGradient id="id5" gradientUnits="userSpaceOnUse" xlink:href="#id0" x1="50.9894" y1="111.393" x2="69.013" y2="87.1441">
  </linearGradient>
 </defs>
 <g id="Layer_x0020_1">
  <metadata id="CorelCorpID_0Corel-Layer"/>
  <rect class="fil0" width="120" height="120"/>
  <g id="_492146608">
   <g>
    <path class="fil1" d="M120 60l-2 0 0 0 0 -3 0 -3 -1 -3 0 -3 -1 -2 -1 -3 -1 -3 -1 -3 -1 -2 -1 -3 -1 -2 -2 -2 -2 -3 -1 -2 -2 -2 -2 -2 -2 -2 -2 -2 -2 -1 -3 -2 -2 -2 -2 -1 -3 -1 -2 -1 -3 -1 -3 -1 -3 -1 -2 -1 -3 0 -3 -1 -3 0 -3 0 0 -2 3 0 3 0 3 1 3 0 3 1 3 1 3 1 2 1 3 1 3 1 2 2 3 1 2 2 2 2 2 2 2 2 2 2 2 2 2 2 2 2 1 3 2 2 1 3 1 3 1 2 1 3 1 3 1 3 0 3 1 3 0 3 0 3 0 0zm-60 60l0 -2 0 0 3 0 3 0 3 -1 3 0 2 -1 3 -1 3 -1 3 -1 2 -1 3 -1 2 -1 2 -2 3 -2 2 -1 2 -2 2 -2 2 -2 2 -2 1 -2 2 -3 2 -2 1 -2 1 -3 1 -2 1 -3 1 -3 1 -3 1 -2 0 -3 1 -3 0 -3 0 -3 2 0 0 3 0 3 -1 3 0 3 -1 3 -1 3 -1 3 -1 2 -1 3 -1 3 -2 2 -1 3 -2 2 -2 2 -2 2 -2 2 -2 2 -2 2 -2 2 -2 2 -3 1 -2 2 -3 1 -3 1 -2 1 -3 1 -3 1 -3 1 -3 0 -3 1 -3 0 -3 0 0 0zm-60 -60l2 0 0 0 0 3 0 3 1 3 0 3 1 2 1 3 1 3 1 3 1 2 1 3 1 2 2 2 2 3 1 2 2 2 2 2 2 2 2 2 2 1 3 2 2 2 2 1 3 1 2 1 3 1 3 1 3 1 2 1 3 0 3 1 3 0 3 0 0 2 -3 0 -3 0 -3 -1 -3 0 -3 -1 -3 -1 -3 -1 -2 -1 -3 -1 -3 -1 -2 -2 -3 -1 -2 -2 -2 -2 -2 -2 -2 -2 -2 -2 -2 -2 -2 -2 -2 -2 -1 -3 -2 -2 -1 -3 -1 -3 -1 -2 -1 -3 -1 -3 -1 -3 0 -3 -1 -3 0 -3 0 -3 0 0zm60 -60l0 2 0 0 -3 0 -3 0 -3 1 -3 0 -2 1 -3 1 -3 1 -3 1 -2 1 -3 1 -2 1 -2 2 -3 2 -2 1 -2 2 -2 2 -2 2 -2 2 -1 2 -2 3 -2 2 -1 2 -1 3 -1 2 -1 3 -1 3 -1 3 -1 2 0 3 -1 3 0 3 0 3 -2 0 0 -3 0 -3 1 -3 0 -3 1 -3 1 -3 1 -3 1 -2 1 -3 1 -3 2 -2 1 -3 2 -2 2 -2 2 -2 2 -2 2 -2 2 -2 2 -2 2 -2 3 -1 2 -2 3 -1 3 -1 2 -1 3 -1 3 -1 3 -1 3 0 3 -1 3 0 3 0 0 0z"/>
   </g>
   <g id="_492150016">
    <path class="fil2" d="M68 23l-24 0c-3,0 -6,3 -6,7l0 17c0,3 3,6 6,6l8 0 0 0 7 6 -3 -6 12 0c4,0 7,-3 7,-6l0 -17c0,-4 -3,-7 -7,-7z"/>
    <g>
     <path class="fil3" d="M73 25l-24 0c-3,0 -6,3 -6,7l0 17c0,4 3,7 6,7l6 0 0 0 7 6 1 -6 10 0c4,0 7,-3 7,-7l0 -17c0,-4 -3,-7 -7,-7z"/>
     <path class="fil4" d="M74 41l-23 0c-1,0 -2,0 -2,-1 0,0 1,-1 2,-1l23 0c1,0 1,1 1,1 0,1 0,1 -1,1z"/>
     <path class="fil4" d="M74 48c0,0 -1,0 -1,-1 0,0 0,0 0,0 0,-1 0,-1 0,-1 0,0 1,-1 1,-1 0,0 1,1 1,1 0,0 0,0 0,1 0,0 0,0 0,0 0,1 -1,1 -1,1z"/>
     <path class="fil4" d="M70 48l-19 0c-1,0 -2,-1 -2,-1 0,-1 1,-2 2,-2l19 0c0,0 1,1 1,2 0,0 -1,1 -1,1z"/>
     <path class="fil4" d="M67 35l-16 0c-1,0 -2,0 -2,-1 0,-1 1,-1 2,-1l16 0c0,0 1,0 1,1 0,1 -1,1 -1,1z"/>
    </g>
   </g>
   <g id="_492148672">
    <g>
     <path class="fil5 str0" d="M14 41l0 0c-2,0 -2,2 -2,4 0,0 0,1 1,2 0,1 0,1 1,1 0,2 2,5 3,6 1,1 1,1 1,2l0 3c2,0 2,0 9,1l1 0 0 -4c0,0 0,0 1,-1 0,0 0,0 0,0 0,0 1,0 1,-1 1,-1 2,-4 2,-6 1,0 1,0 2,-1 0,-1 0,-3 0,-4 0,0 0,0 0,0 0,0 0,0 0,-1 0,0 0,0 0,-1 -1,1 -1,1 -1,1 0,0 0,1 0,2 0,0 0,0 0,0 -1,-1 -1,-2 -1,-3 0,-1 0,0 -1,0 -1,0 -1,0 -2,-1 -2,0 -4,-1 -5,-1 -3,-2 2,0 -1,-1 0,0 0,0 0,0 -2,-1 -4,-2 -5,-3 -1,0 -1,0 -1,1 0,0 -1,3 -1,4l-1 1c0,0 -1,-1 -1,1 0,0 0,2 0,2 0,0 0,-1 0,-1 0,-1 0,-1 0,-1 0,-1 0,-1 0,-1z"/>
     <g>
      <path class="fil6" d="M33 79l0 -12 0 -9c0,0 0,0 -1,0 0,3 -1,6 -2,8 -1,1 -2,1 -3,2 -7,3 -13,-3 -13,-10l-1 0 0 21c7,0 14,0 20,0z"/>
      <path id="1" class="fil7" d="M34 67l0 12 -1 0 0 -12 0 0 1 0zm-1 0l0 0 0 0 0 0zm1 -9l0 9 -1 0 0 -9 0 0 1 0zm-1 0l1 0 0 0 -1 0zm0 0l-1 0 0 0 0 0 0 0 0 0 0 0 0 0 0 0 1 0 0 0 0 0 0 0 0 0 0 0 0 0 0 0 0 0 0 0 0 0 0 0 0 0 0 0 0 0 0 0 0 0 0 0 0 0 0 0 0 0 0 0 0 0 0 0 0 0 0 0 0 1 0 0 0 0 0 0 0 0 0 0 0 0 0 0 0 0 0 0 0 0 0 0 0 0 0 0 0 0 0 0 0 0 0 0 0 0 0 0 0 0 0 0 0 0 0 0 0 0 0 0 0 0 0 0 0 0 0 0 0 0 0 0 0 0 0 -1zm-1 0l0 0 0 0 0 0zm-2 8l-1 -1 0 0 1 0 0 0 0 0 0 0 0 -1 0 0 0 0 0 0 1 0 0 -1 0 0 0 0 0 0 0 0 0 -1 0 0 0 0 0 0 0 0 0 -1 1 0 0 0 0 0 0 -1 0 0 0 0 0 0 0 -1 0 0 0 0 0 0 0 -1 1 0 0 1 0 0 0 0 0 0 0 1 0 0 0 0 0 1 0 0 0 0 0 0 -1 1 0 0 0 0 0 0 0 1 0 0 0 0 0 0 0 1 0 0 0 0 -1 0 0 0 0 1 0 0 0 0 0 0 0 0 -1 1 0 0 0 0 0 0zm-3 2l0 -1 0 0 0 0 0 0 0 0 0 0 0 0 0 0 0 0 1 0 0 0 0 0 0 0 0 0 0 0 0 0 0 0 0 -1 0 0 0 0 0 0 1 0 0 0 0 0 0 0 0 0 0 0 0 0 0 0 0 0 0 0 0 -1 0 0 0 0 1 1 0 0 0 0 0 0 0 0 0 0 0 0 0 1 0 0 -1 0 0 0 0 0 0 0 0 0 0 0 0 0 0 0 0 0 0 0 0 1 0 0 -1 0 0 0 0 0 0 0 0 0 0 0 0 0 0 0 0 0 0 0 -1 0 0 0 0 0zm-13 -9l0 -1 1 0 0 1 0 1 0 0 0 1 0 0 0 1 0 0 1 1 0 0 0 1 0 0 1 1 0 0 0 1 1 0 0 0 1 1 0 0 1 0 0 1 1 0 0 0 1 0 0 0 1 0 0 0 1 0 0 0 1 0 1 0 0 0 1 -1 0 1 0 1 -1 0 -1 0 0 0 -1 0 -1 0 0 0 -1 0 -1 0 0 0 -1 0 0 0 -1 -1 0 0 -1 0 0 -1 -1 0 0 -1 -1 0 0 -1 0 0 -1 -1 0 0 0 -1 -1 0 0 -1 0 0 0 -1 0 -1 0 0 0 -1 0 -1 0 1zm0 -1l1 0 0 0 -1 0zm-1 0l1 0 0 1 -1 0 -1 -1 1 0zm-1 0l0 0 1 0 -1 0zm0 21l0 -21 1 0 0 21 0 1 -1 -1zm1 1l-1 0 0 -1 1 1zm20 -1l1 0 -1 1 0 0 -1 0 -1 0 0 0 -1 0 0 0 -1 0 -1 0 0 0 -1 0 -1 0 0 0 -1 0 -1 0 0 0 -1 0 -1 0 0 0 -1 0 -1 0 0 0 -1 0 -1 0 0 0 -1 0 0 0 -1 0 -1 0 0 0 -1 0 -1 0 0 0 0 -1 0 0 1 0 1 0 0 0 1 0 1 0 0 0 1 0 0 0 1 0 1 0 0 0 1 0 1 0 0 0 1 0 1 0 0 0 1 0 1 0 0 0 1 0 1 0 0 0 1 0 1 0 0 0 1 0 0 0 1 0 1 0 0 0 0 0zm1 0l0 1 -1 0 1 -1z"/>
     </g>
     <path class="fil8" d="M14 41c0,0 0,0 0,1 0,0 0,0 0,1 0,0 0,1 0,1 0,0 0,-2 0,-2 0,-2 1,-1 1,-1l1 -1c0,-1 1,-4 1,-4 0,-1 0,-1 1,-1 1,1 3,2 5,3 0,0 0,0 0,0l1 1c1,0 3,1 5,1 1,1 1,1 2,1 1,0 1,-1 1,0 0,1 0,2 1,3 0,0 0,0 0,0 0,-1 0,-2 0,-2 0,0 0,0 1,-1 0,0 0,0 0,0 1,-1 1,-9 0,-10 0,-1 -2,-3 -3,-2 -1,-2 -4,-4 -8,-5 0,0 0,0 0,0 -7,0 -13,9 -11,16 1,1 2,1 2,1z"/>
     <g>
      <path class="fil9" d="M13 58l1 0c0,7 6,13 13,10 1,-1 2,-1 3,-2 3,-4 1,-8 3,-8l0 9c1,0 1,0 1,0l0 -7c0,-2 0,-2 -1,-2 -2,0 -2,0 -4,0 -3,0 -5,3 -11,0 -1,1 -2,0 -4,0l-1 0c0,0 0,0 0,0z"/>
      <path id="1" class="fil10" d="M14 59l-1 0 0 -1 1 0 0 0 0 1zm0 -1l0 0 0 0 0 0zm13 10l0 0 0 0 0 0 -1 1 -1 0 0 0 -1 0 -1 0 0 0 -1 0 0 0 -1 0 -1 -1 0 0 -1 0 0 0 -1 -1 0 0 -1 0 0 -1 0 0 -1 -1 0 0 0 -1 -1 0 0 -1 0 0 -1 -1 0 -1 0 0 0 -1 0 0 0 -1 0 -1 0 0 0 1 0 1 0 0 1 1 0 0 0 1 0 0 0 1 1 1 0 0 0 1 0 0 1 1 0 0 1 0 0 1 0 0 1 0 0 1 1 0 0 0 1 0 1 1 0 0 1 0 0 0 1 0 1 0 0 -1 1 0 0 0 1 0 0 0zm3 -2l0 0 0 0 0 0 0 0 0 0 0 0 0 0 -1 0 0 0 0 0 0 0 0 1 0 0 0 0 0 0 0 0 0 0 0 0 0 0 -1 0 0 0 0 0 0 0 0 0 0 0 0 1 0 0 0 0 0 0 0 0 -1 0 0 0 0 0 0 0 0 0 0 0 0 0 0 0 0 0 0 -1 1 0 0 0 0 0 0 0 0 0 0 0 0 0 0 0 0 0 0 0 0 0 1 0 0 0 0 0 0 -1 0 0 0 0 0 0 0 0 0 0 0 0 0 0 0 0 0 0 1 0 0 0 0 0 0 0zm0 0l0 0 0 0 0 0zm4 -8l-1 0 0 1 0 0 0 0 0 0 0 0 0 0 0 0 0 0 0 0 0 0 0 0 0 1 0 0 -1 0 0 0 0 0 0 1 0 0 0 0 0 0 0 1 0 0 0 0 0 1 0 0 0 0 -1 1 0 0 0 0 0 1 0 0 -1 0 0 1 0 0 0 -1 0 0 1 -1 0 0 0 0 0 -1 0 0 0 0 1 0 0 -1 0 0 0 0 0 -1 0 0 0 0 0 0 0 -1 0 0 0 0 0 0 0 -1 0 0 0 0 0 0 0 0 1 0 0 -1 0 0 0 0 0 0 0 0 0 0 1 0zm-1 0l1 0 0 0 -1 0zm0 9l0 -9 1 0 0 9 0 0 -1 0zm1 0l-1 0 0 0 1 0zm-1 0l1 0 0 0 0 0 0 0 0 0 0 0 0 0 0 0 0 0 0 0 0 0 0 0 0 0 0 0 0 0 0 0 0 0 0 0 0 0 0 0 0 0 0 0 0 0 0 0 0 0 0 0 0 0 0 0 0 0 0 0 0 0 0 0 0 0 0 0 -1 0 0 0 0 0 0 0 0 0 0 0 0 0 0 0 0 0 1 0 0 0 0 0 0 0 0 0 -1 0 0 0 0 0 0 0 0 0 0 0 0 0 0 0 0 0 0 0 0 0 0 0 0 0 0 0 0 0 0 0 0 0 0 0 0 0 0 0zm1 0l0 0 0 0 0 0zm0 -7l0 7 -1 0 0 -7 1 0zm-1 -2l0 0 0 0 0 0 0 0 0 0 0 0 0 0 0 0 0 0 0 0 0 0 0 0 0 0 1 0 0 0 0 0 0 0 0 0 0 0 0 0 0 1 0 0 0 0 0 0 0 0 0 0 0 0 0 0 0 0 0 1 0 0 0 0 0 0 0 0 -1 0 0 0 0 0 0 0 0 0 0 -1 0 0 0 0 0 0 0 0 0 0 0 0 0 0 0 0 0 0 0 -1 0 0 0 0 0 0 0 0 0 0 0 0 0 0 0 0 0 0 0 0 0 0 0 0 0 0 0 0 0 0 0 0 0 0 0 0zm0 0l0 0 0 0 0 0zm-4 0l0 0 0 0 0 0 0 0 1 0 0 0 0 0 0 0 0 0 0 0 0 0 1 0 0 0 0 0 0 0 0 0 0 0 0 0 0 0 0 0 0 0 0 0 0 0 0 0 1 0 0 0 0 0 0 0 0 0 0 0 0 0 0 0 1 0 0 0 0 0 0 0 -1 0 0 0 0 0 0 0 0 0 0 0 0 0 0 0 -1 0 0 0 0 0 0 0 0 0 0 0 0 0 0 0 0 0 0 0 0 0 0 0 0 0 -1 0 0 0 0 0 0 0 0 0 0 0 0 0 -1 0 0 0 0 0 0 0zm0 0l0 0 0 0 0 0zm-11 0l0 0 0 0 0 0 1 0 0 1 1 0 0 0 1 0 0 0 1 0 0 0 1 0 0 0 0 0 1 0 0 0 0 0 1 0 0 0 0 0 1 0 0 0 0 0 0 -1 1 0 0 0 0 0 0 0 1 0 0 0 0 0 0 0 1 0 0 0 0 0 0 0 -1 0 0 0 0 0 0 0 0 1 -1 0 0 0 0 0 0 0 -1 0 0 0 0 0 -1 0 0 0 0 0 -1 0 0 0 0 0 -1 0 0 0 0 0 -1 0 0 0 -1 0 0 0 -1 0 0 0 -1 0 0 0 -1 -1 0 0 0 0zm0 0l0 0 0 0 0 0zm-4 0l0 0 0 0 0 0 0 0 1 0 0 0 0 0 0 0 0 0 0 0 1 0 0 0 0 0 0 0 0 0 0 0 0 0 0 0 0 0 1 0 0 0 0 0 0 0 0 0 0 0 0 0 0 0 0 0 0 0 0 0 0 0 1 0 0 0 0 0 0 0 0 0 0 0 0 0 -1 0 0 0 0 0 0 1 0 0 0 0 0 0 0 0 0 0 0 0 0 0 -1 0 0 0 0 0 0 -1 0 0 0 0 0 0 0 0 0 0 -1 0 0 0 0 0 0 0 0 0 0 0 -1 0 0 0 0 0 0 0zm0 0l0 0 0 0 0 0zm-1 0l1 0 0 0 -1 0 0 0 0 0zm0 0l0 0 0 0 0 0zm0 0l0 1 -1 -1 0 0 0 0 0 0 0 0 0 0 0 0 1 0 0 0 0 0 0 0 0 0 0 0 0 0 0 0 0 0 0 0 0 0 0 0 0 0 0 0 0 0 0 0 0 0 0 0 0 0 0 0 0 0 0 0 0 0 0 0 0 0 0 0 0 0 0 0 0 0 0 0 0 0 0 0 0 0 0 0 0 0 0 0 0 0 0 0 0 0 0 0 0 0 0 0 0 0 0 0 0 0 0 0 0 0 0 0 0 0 0 0 0 0 0 0 0 0 0 0 0 0 0 0 0 0 0 0 0 0 0 0zm0 1l-1 0 0 -1 1 1z"/>
     </g>
     <g>
      <path class="fil9" d="M34 79c1,0 4,0 5,0 0,0 0,0 0,0 0,-11 4,-21 -5,-21 0,8 0,14 0,21z"/>
      <path id="1" class="fil10" d="M38 79l1 1 -1 0 0 0 0 0 0 0 0 0 0 0 0 0 0 0 0 0 0 0 0 0 -1 0 0 0 0 0 0 0 0 0 -1 0 0 0 0 0 0 0 0 0 0 0 -1 0 0 0 0 0 0 0 0 0 -1 0 0 0 0 0 0 0 0 0 0 0 0 -1 0 0 0 0 0 0 0 0 1 0 0 0 0 0 0 0 0 0 0 0 0 0 1 0 0 0 0 0 0 0 0 0 1 0 0 0 0 0 0 0 0 0 1 0 0 0 0 0 0 0 0 0 0 0 0 0 0 0 1 0 0 0 0 0 -1 0zm1 1l0 0 -1 0 1 0zm0 -1l1 0 0 0 0 0 0 0 0 0 0 0 0 0 0 0 0 0 0 0 0 0 0 0 0 0 0 0 0 0 0 0 0 0 0 0 0 0 0 0 0 0 0 0 0 0 -1 0 0 1 0 0 0 0 0 0 0 0 0 0 0 0 0 0 0 0 0 0 -1 -1 0 0 1 0 0 0 0 0 0 0 0 0 0 0 0 0 0 0 0 0 0 0 0 0 0 0 0 0 0 0 0 0 0 0 0 0 0 0 0 0 0 0 0 0 0 0 0 0 0 0 0 0 0 0 0 0 0 0 0 0 0 0 0 0 0 0zm1 0l0 0 0 0 0 0zm-6 -21l-1 0 1 0 0 0 1 0 1 0 1 0 0 1 1 0 1 0 0 1 0 0 1 1 0 0 0 1 0 0 1 1 0 1 0 0 0 1 0 1 0 1 0 1 0 0 0 1 0 1 -1 1 0 1 0 1 0 1 0 1 0 1 0 1 0 1 0 1 -1 0 0 -1 0 -1 0 -1 0 -1 0 -1 0 -1 0 -1 0 -1 0 -1 1 -1 0 -1 0 0 0 -1 0 -1 0 -1 0 0 0 -1 -1 -1 0 0 0 -1 0 0 0 -1 -1 0 0 -1 0 0 -1 0 0 -1 -1 0 0 0 -1 0 -1 0 0 0 0 -1zm-1 0l0 0 1 0 -1 0zm1 21l0 1 -1 -1 0 0 0 -1 0 -1 0 0 0 -1 0 -1 0 0 0 -1 0 -1 0 0 0 -1 0 -1 0 0 0 -1 0 -1 0 0 0 -1 0 0 0 -1 0 -1 0 0 0 -1 0 -1 0 0 0 -1 0 -1 0 0 0 -1 0 -1 0 0 0 -1 0 -1 1 0 0 1 0 1 0 0 0 1 0 1 0 0 0 1 0 1 0 0 0 1 0 1 0 0 0 1 0 0 0 1 0 1 0 0 0 1 0 1 0 0 0 1 0 1 0 0 0 1 0 1 0 0 0 1 0 1 0 0 0 1 0 1 0 0 0 0zm0 1l-1 0 0 -1 1 1z"/>
     </g>
     <g>
      <path class="fil9" d="M7 79c0,0 5,0 5,0 0,-1 0,-8 1,-12l0 -5c0,-3 0,-1 0,-4 -8,0 -7,14 -6,21z"/>
      <path id="1" class="fil10" d="M12 79l1 0 -1 1 0 0 0 0 0 0 0 0 0 0 -1 0 0 0 0 0 0 0 0 0 0 0 -1 0 0 0 0 0 0 0 0 0 -1 0 0 0 0 0 0 0 0 0 -1 0 0 0 0 0 0 0 0 0 -1 0 0 0 0 0 0 0 0 0 0 0 0 -1 0 0 0 0 0 0 0 0 1 0 0 0 0 0 0 0 0 0 0 0 1 0 0 0 0 0 0 0 0 0 1 0 0 0 0 0 0 0 0 0 1 0 0 0 0 0 0 0 0 0 0 0 1 0 0 0 0 0 0 0 0 0 0 0 0 0zm1 0l0 1 -1 0 1 -1zm-1 -12l1 0 0 0 0 1 0 0 0 0 0 1 0 0 0 1 0 0 0 1 0 0 0 0 0 1 0 0 0 1 0 0 0 1 0 0 0 1 0 0 0 1 0 0 0 0 0 1 0 0 0 0 0 1 0 0 0 0 0 1 0 0 0 0 0 0 0 0 -1 0 0 0 0 0 0 0 0 0 0 -1 0 0 0 0 0 -1 0 0 0 0 0 -1 0 0 0 -1 0 0 0 0 0 -1 0 0 0 -1 0 0 0 -1 0 0 0 -1 0 0 0 0 0 -1 0 0 0 -1 0 0 0 -1 0 0 0 -1 0 0 0 0zm1 0l0 0 0 0 0 0zm0 -5l0 5 -1 0 0 -5 0 0 1 0zm-1 0l0 0 0 0 0 0zm1 -3l0 -1 0 0 0 1 0 0 0 0 0 0 0 0 0 0 0 1 0 0 0 0 0 0 0 0 0 0 0 0 0 0 0 0 0 0 0 0 0 0 0 0 0 0 0 0 0 0 0 0 0 1 0 0 0 0 0 0 0 0 0 0 0 0 0 1 0 0 -1 0 0 0 0 -1 0 0 0 0 0 0 0 0 0 0 0 0 0 -1 0 0 0 0 0 0 0 0 0 0 0 0 0 0 0 0 0 0 0 0 0 0 0 0 0 0 0 0 0 0 0 0 0 -1 0 0 0 0 0 0 0 0 0 0 0 -1 1 1zm0 -1l0 0 0 0 0 0zm-6 21l0 1 0 -1 -1 0 0 -1 0 -1 0 -1 0 0 0 -1 0 -1 0 -1 0 -1 0 -1 0 0 0 -1 0 -1 0 -1 0 -1 0 -1 0 -1 0 0 1 -1 0 -1 0 -1 0 0 1 -1 0 -1 0 0 1 -1 0 0 1 0 1 -1 0 0 1 0 1 0 0 1 -1 0 -1 0 0 0 0 0 -1 1 0 0 -1 0 0 1 0 0 -1 1 0 1 0 0 0 1 0 1 -1 1 0 0 0 1 0 1 0 1 0 1 0 1 0 0 0 1 0 1 0 1 0 1 0 1 0 0 0 1 0 1 0 1 1 0 -1 0zm0 1l0 0 0 -1 0 1z"/>
     </g>
    </g>
    <path class="fil8" d="M22 63c0,0 0,5 0,6l2 0 0 -4c0,0 0,-2 1,-3 1,0 -1,-2 -2,-1 -2,0 -1,1 -1,2z"/>
    <g>
     <path class="fil11" d="M21 64l2 -3 2 3c1,-2 3,-5 4,-6 1,-1 -5,1 -6,1 -1,0 -6,-1 -6,-1 0,1 4,6 4,6z"/>
     <path id="1" class="fil10" d="M23 61l-1 3 -1 0 2 -3 0 0 0 0zm0 0l0 -1 0 1 0 0zm1 3l-1 -3 0 0 2 3 0 0 -1 0zm1 0l0 0 -1 0 1 0zm4 -6l0 0 0 0 0 0 0 0 0 1 0 0 0 0 0 0 -1 0 0 0 0 0 0 1 0 0 0 0 0 0 0 0 -1 1 0 0 0 0 0 0 0 0 0 1 -1 0 0 0 0 0 0 0 0 1 0 0 -1 0 0 0 0 0 0 1 0 0 0 0 -1 0 1 -1 0 0 0 0 0 0 0 0 0 -1 0 0 1 0 0 0 0 0 0 -1 0 0 0 0 1 0 0 0 0 -1 0 0 0 0 0 0 0 0 1 0 0 -1 0 0 0 0 0 0 0 0 0 0 0 -1 1 0 0 0 0 0 0 0 0 0zm-6 1l0 0 0 0 0 0 1 0 0 0 0 0 0 0 0 0 1 0 0 0 0 0 0 0 0 0 1 -1 0 0 0 0 0 0 1 0 0 0 0 0 0 0 1 0 0 0 0 0 0 0 0 0 1 0 0 0 0 0 0 0 0 0 0 0 0 0 0 0 0 0 0 0 0 0 0 0 0 0 0 0 0 0 0 0 0 0 -1 0 0 0 0 0 0 0 0 0 -1 0 0 1 0 0 0 0 -1 0 0 0 0 0 0 0 -1 0 0 0 0 0 0 0 -1 0 0 0 0 0 0 0 0 0 -1 0 0 0 0 0zm-5 -1l-1 0 1 0 0 0 0 0 0 0 0 0 0 0 0 0 0 0 0 0 0 0 1 0 0 0 0 0 0 0 1 0 0 0 0 1 0 0 1 0 0 0 0 0 0 0 1 0 0 0 0 0 0 0 0 0 1 0 0 0 0 0 0 0 0 0 0 0 0 0 0 0 0 0 0 0 0 0 0 0 -1 0 0 0 0 0 0 0 -1 0 0 0 0 0 0 0 -1 0 0 0 0 0 0 0 -1 0 0 0 0 0 0 0 0 0 -1 0 0 0 0 0 0 0 0 0 0 0 0 -1 -1 0 0 0 0 0 1 0zm3 6l1 0 0 0 -1 0 0 0 0 0 0 0 0 0 0 -1 0 0 0 0 -1 0 0 0 0 0 0 -1 0 0 -1 0 0 0 0 -1 0 0 0 0 -1 0 0 -1 0 0 0 0 0 0 0 0 -1 -1 0 0 0 0 0 0 0 0 0 -1 0 0 0 0 1 0 0 0 0 0 0 1 0 0 0 0 0 0 0 0 0 0 0 0 0 1 0 0 1 0 0 0 0 1 0 0 0 0 1 0 0 1 0 0 0 0 0 0 0 0 1 1 0 0 0 0 0 0 0 0 0 0 0 0 0 0 0 0 0 1 0 0z"/>
    </g>
   </g>
   <g>
    <g>
     <path class="fil11" d="M60 77c11,0 20,9 20,20 0,11 -9,20 -20,20 -11,0 -20,-9 -20,-20 0,-11 9,-20 20,-20z"/>
     <path id="1" class="fil10" d="M81 97l-2 0 0 0 0 -1 0 -1 0 -1 0 -1 0 -1 0 -1 -1 -1 0 -1 -1 -1 0 0 0 -1 -1 -1 0 -1 -1 0 -1 -1 0 -1 -1 0 -1 -1 0 -1 -1 0 -1 -1 -1 0 -1 -1 0 0 -1 0 -1 -1 -1 0 -1 0 -1 0 -1 0 -1 0 -1 -1 0 -1 1 0 1 0 1 0 1 1 1 0 1 0 1 0 1 1 1 0 1 1 1 0 1 1 0 0 1 1 1 0 1 1 0 1 1 1 1 0 0 1 1 1 0 1 1 1 0 1 1 1 0 1 0 1 0 1 1 1 0 1 0 1 0 1 0 0zm-21 21l0 -2 0 0 1 0 1 0 1 0 1 0 1 0 1 -1 1 0 1 0 0 -1 1 0 1 -1 1 0 1 -1 0 0 1 -1 1 0 0 -1 1 -1 1 -1 0 0 1 -1 0 -1 0 -1 1 -1 0 0 1 -1 0 -1 0 -1 0 -1 0 -1 0 -1 0 -1 2 0 0 1 0 1 0 1 -1 1 0 1 0 1 0 1 -1 1 0 1 -1 1 0 1 -1 1 0 0 -1 1 -1 1 0 1 -1 0 -1 1 -1 1 0 0 -1 1 -1 0 -1 1 -1 0 -1 0 -1 1 -1 0 -1 0 -1 0 -1 1 -1 0 -1 0 0 0zm-21 -21l2 0 0 0 0 1 0 1 0 1 0 1 0 1 0 1 1 1 0 0 1 1 0 1 0 1 1 1 0 0 1 1 1 1 0 1 1 0 1 1 0 0 1 1 1 0 1 1 1 0 0 1 1 0 1 0 1 1 1 0 1 0 1 0 1 0 1 0 0 2 -1 0 -1 0 -1 -1 -1 0 -1 0 -1 0 -1 -1 -1 0 -1 0 -1 -1 -1 0 -1 -1 0 0 -1 -1 -1 -1 -1 0 0 -1 -1 -1 -1 -1 0 0 -1 -1 0 -1 -1 -1 0 -1 -1 -1 0 -1 0 -1 0 -1 -1 -1 0 -1 0 -1 0 -1 0 0zm21 -21l0 1 0 0 -1 1 -1 0 -1 0 -1 0 -1 0 -1 0 -1 1 -1 0 0 0 -1 1 -1 0 -1 1 -1 0 0 1 -1 1 -1 0 0 1 -1 1 -1 0 0 1 -1 1 0 1 0 0 -1 1 0 1 -1 1 0 1 0 1 0 1 0 1 0 1 0 1 -2 0 0 -1 0 -1 0 -1 1 -1 0 -1 0 -1 0 -1 1 -1 0 -1 1 -1 0 -1 1 -1 0 -1 1 0 1 -1 0 -1 1 -1 1 0 1 -1 0 0 1 -1 1 0 1 -1 1 0 1 -1 1 0 1 0 1 0 1 -1 1 0 1 0 1 0 0 0z"/>
    </g>
    <path class="fil12" d="M47 111l1 0c0,0 0,0 0,0 0,1 0,1 1,1 0,0 0,0 0,0 1,1 1,1 1,1 0,0 0,0 1,0 0,1 0,1 1,1 0,0 0,0 0,0 1,1 3,1 5,2 0,0 0,0 0,0 0,0 1,0 1,0 0,0 0,0 1,0 0,0 1,0 1,0 1,0 1,0 2,0 0,0 0,0 0,0 0,0 1,0 1,0 0,0 1,0 1,0 1,-1 3,-1 4,-2 0,0 0,0 0,0 1,0 1,0 2,-1 0,0 0,0 0,0 0,0 1,0 1,-1 0,0 0,0 0,0 1,0 1,0 1,-1 0,0 0,0 1,0l0 0c-2,-2 -5,-3 -8,-4 0,-1 0,-1 0,-2l0 -2c0,0 0,0 0,-1 1,-1 1,-2 2,-3 1,-1 1,-1 1,-2l0 -3c0,-1 0,-1 0,-2l0 -3c0,0 0,-2 -2,-4 -1,-2 -3,-2 -6,-2 -3,0 -3,1 -4,1 -1,1 -1,0 -2,1 -2,2 -1,4 -1,4l0 3c-1,1 -1,1 -1,2l0 3c0,0 0,1 1,2 0,2 2,3 2,4l0 2c0,1 0,1 -1,1l-5 3c-1,1 -1,1 -2,2z"/>
   </g>
   <g>
    <path class="fil11" d="M82 79c11,0 16,1 27,0l0 -6 -27 0 0 6z"/>
    <g>
     <path class="fil13" d="M108 61c-1,1 -2,0 -3,0 -2,0 -2,0 -4,-1 -1,0 0,-1 -1,0 -3,2 -6,2 -9,0 -1,-1 0,0 -3,1 -2,0 -3,1 -4,1 0,-1 -1,-3 0,-5 1,-2 -1,-3 -1,-5 1,-1 0,-1 0,-3 0,-1 0,-3 1,-5 0,0 0,-2 0,-3 0,-3 1,-4 2,-7 1,0 1,-1 2,-1 1,-1 0,-1 1,-2 1,0 2,-1 2,-1 1,-1 2,-2 4,-2 2,0 4,1 5,2 0,1 0,0 1,1 1,1 1,1 1,1 1,1 0,1 1,1 2,1 1,1 2,2 3,3 2,8 2,9 0,0 0,1 0,1 1,1 1,3 1,4 0,1 0,2 0,2 0,2 0,3 0,5 1,3 -1,5 0,5z"/>
     <path class="fil5" d="M95 59c-3,0 -6,-3 -7,-6 -1,-1 -1,-2 -2,-3 -1,0 -1,0 -1,-1 0,0 0,-1 0,-2 0,-1 0,-1 0,-1 1,0 1,-1 1,-2 1,-1 1,0 2,-1 0,0 2,-1 3,-1 2,0 4,0 6,-2 1,0 2,-1 3,-2l0 1c0,0 0,-1 0,0 0,1 0,3 2,4 2,3 4,2 4,3 0,1 0,3 0,3 0,1 -1,1 -2,2 0,1 -1,2 -2,3 -1,2 -4,5 -7,5z"/>
     <path class="fil14" d="M88 63c0,0 -1,1 -2,1 -1,0 -1,0 -2,1l0 8c3,2 8,3 11,3 4,0 9,-1 12,-3l0 -8 -4 -2c-2,2 -5,2 -7,2 -2,0 -3,0 -5,-1 -1,0 -1,0 -2,-1l-1 0z"/>
     <path class="fil15" d="M82 79l0 -13c-1,0 -4,1 -5,1 -1,1 -2,3 -2,5 0,3 -1,3 2,5 1,0 4,2 5,2z"/>
     <path class="fil16" d="M109 79c1,-1 3,-1 4,-2 3,-1 3,-2 3,-3 0,-3 0,-5 -3,-7 -1,0 -3,-1 -4,-2 0,1 0,13 0,14z"/>
     <path class="fil17" d="M90 34c0,0 -2,1 -2,2 2,0 4,-1 7,-1 3,0 6,1 8,1 1,-1 -2,-2 -2,-2 0,-1 0,-1 -1,-2 0,0 -1,0 -1,0 -1,-1 -1,-1 -1,-1 -1,-1 -1,-1 -2,-2 -1,0 -2,1 -2,1 -1,1 -1,1 -2,2 0,0 0,-1 -1,0 -1,1 -1,1 -1,2z"/>
    </g>
   </g>
  </g>
 </g>
</svg>
