<svg xmlns="http://www.w3.org/2000/svg" width="144" height="144" viewBox="0 0 2561 2561" shape-rendering="geometricPrecision" text-rendering="geometricPrecision" image-rendering="optimizeQuality" fill-rule="evenodd" clip-rule="evenodd"><defs><style>.fil0{fill:#fff}</style></defs><g id="Layer_x0020_1"><g id="_516060890144"><path class="fil0" d="M1708 2346c38-4 56-20 158-71l117-58c13-7 33-11 33-26V522c0-20-69-81-86-98l-188-188c-18-18-20-22-34-23v2133zm65-882c66 0 93 9 96-73h74v-74h-170c-42 0-51 32-51 74 0 39 9 73 51 73zM1555 219l1 2128c74 0 107 2 133-1V213c-8 0-19 1-37 1h-96l-1 5zM861 1170h475c130 0 111-28 111 244 0 65-49 50-106 50H861c18 37 163 151 166 181 5 57-86 40-127 41-51 0-120 8-163-12-47-22-142-127-180-165-30-31-57-58-87-88-106-105-87-115 1-202 44-44 225-236 265-254 43-21 104-14 155-15 42 0 136-19 136 36 0 36-147 146-166 184z"/><path class="fil0" d="M2090 490v1710h73V288h-261c14 18 31 32 48 48s30 33 47 49c18 16 32 30 50 47 10 9 16 15 26 24 13 12 17 11 17 34zM693 2200h147v-450c-48 1-99 1-135-16-4-2-8-4-12-7v473zM840 888V435h662V288H693v623c4-3 8-5 11-6 38-18 88-18 136-17z"/><path fill="none" d="M0 0h2561v2561H0z"/></g></g></svg>