<svg xmlns="http://www.w3.org/2000/svg" width="144" height="144" viewBox="0 0 3870 3870" shape-rendering="geometricPrecision" text-rendering="geometricPrecision" image-rendering="optimizeQuality" fill-rule="evenodd" clip-rule="evenodd"><defs><style>.fil0{fill:#fff}</style></defs><g id="Layer_x0020_1"><g id="_515969939856"><path class="fil0" d="M941 1758v-9c-235 0-203-66-277-161-12 81 10 113-38 181-40 59-81 56-122 98 82 3 114-6 178 38 61 41 55 72 98 123 5-96-5-217 161-270zm-274 64c4 3 5 5 15 12l60 33c9-37 21-42 35-72-21-18-50-33-74-45l-36 72zM1416 1174l6-10c-301-189-207-247-226-428-80 94-78 152-193 202-99 43-149 7-235 28 103 68 151 83 198 190 45 101 13 136 27 236 84-119 166-282 423-218zm-403-137c2 8 2 10 10 28l50 90c42-40 60-37 102-64-11-40-37-82-59-116l-103 62zM1924 1369l3 7c177-82 175-21 263 25-19-65-46-82-34-150 10-58 42-70 58-116-62 27-84 44-147 34-60-10-66-35-116-59 29 74 79 161-27 259zm184-143c-5-2-6-2-16-4l-56-4c5 31-2 39-2 66 22 7 49 8 71 8l3-66z"/><path d="M1129 1706h743l-8 416H894l235-416zm805 0h807l235 416H1946l-12-416zm1118 550l495 878H1974l-25-878h1103zm-1208 878H322l496-878h1043l-17 878z" fill="#fff" fill-rule="nonzero"/><path class="fil0" d="M3237 1453l-5-6c-175 157-195 87-313 66 45 68 82 77 93 160 10 71-22 96-24 154 62-52 80-80 157-91 72-11 89 16 155 25-61-75-150-157-63-308zm-160 232c6 0 7 0 20-2l66-15c-18-34-12-46-22-77-27 0-59 9-85 17l21 77z"/><path fill="none" d="M0 0h3870v3870H0z"/></g></g></svg>