<svg xmlns="http://www.w3.org/2000/svg" width="144" height="144" viewBox="0 0 962 962" shape-rendering="geometricPrecision" text-rendering="geometricPrecision" image-rendering="optimizeQuality" fill-rule="evenodd" clip-rule="evenodd"><defs><style>.fil0{fill:#fff}</style></defs><g id="Layer_x0020_1"><g id="_516060916896"><path class="fil0" d="M642 881c14-1 21-7 59-26l44-22c5-3 13-4 13-10V196c0-7-27-30-33-37l-71-70c-6-7-7-9-12-9v801zm24-331c25 0 35 4 36-27h28v-28h-64c-16 0-19 12-19 28 0 14 3 27 19 27zM584 82v800c28 0 41 0 50-1V80h-13c-12 1-25 0-37 0v2zM370 440H191c-49 0-41-11-41 91 0 25 18 19 39 19h181c-7 14-62 57-62 68-2 21 32 15 47 15 19 0 45 3 62-4 17-8 53-48 67-62 11-12 22-22 33-33 40-40 32-43 0-76-17-17-85-89-100-96-16-7-39-5-58-5-16 0-51-7-52 14 0 13 56 54 63 69z"/><path class="fil0" d="M260 412h43c-9-11-26-21-23-46 2-20 17-33 36-36V163h248v-55H260v304zM785 184v642h28V108h-99c6 7 12 12 19 18 6 6 11 13 17 19 7 6 12 11 19 17 4 4 6 6 10 9 5 5 6 5 6 13zM260 826h56V660c-19-3-33-16-36-35-3-25 14-36 23-47h-43v248z"/><path fill="none" d="M0 0h962v962H0z"/></g></g></svg>