<?xml version="1.0" encoding="UTF-8"?>
<!DOCTYPE svg PUBLIC "-//W3C//DTD SVG 1.1//EN" "http://www.w3.org/Graphics/SVG/1.1/DTD/svg11.dtd">
<!-- Creator: CorelDRAW X7 -->
<svg xmlns="http://www.w3.org/2000/svg" xml:space="preserve" width="50px" height="50px" version="1.1" style="shape-rendering:geometricPrecision; text-rendering:geometricPrecision; image-rendering:optimizeQuality; fill-rule:evenodd; clip-rule:evenodd"
viewBox="0 0 50 50"
 xmlns:xlink="http://www.w3.org/1999/xlink">
 <defs>
  <style type="text/css">
   <![CDATA[
    .str0 {stroke:#2887D2;stroke-width:0.900028}
    .fil0 {fill:none}
    .fil3 {fill:#1CC8EB}
    .fil4 {fill:#E32210}
    .fil1 {fill:white}
    .fil5 {fill:url(#id0)}
    .fil6 {fill:url(#id1)}
    .fil7 {fill:url(#id2)}
    .fil2 {fill:url(#id3);fill-rule:nonzero}
   ]]>
  </style>
  <linearGradient id="id0" gradientUnits="userSpaceOnUse" x1="34.3971" y1="31.7242" x2="37.1138" y2="23.3712">
   <stop offset="0" style="stop-opacity:1; stop-color:#1CC8EB"/>
   <stop offset="0.631373" style="stop-opacity:1; stop-color:#0E96E0"/>
   <stop offset="1" style="stop-opacity:1; stop-color:#0063D4"/>
  </linearGradient>
  <linearGradient id="id1" gradientUnits="userSpaceOnUse" xlink:href="#id0" x1="34.3971" y1="35.3385" x2="37.1138" y2="26.9855">
  </linearGradient>
  <linearGradient id="id2" gradientUnits="userSpaceOnUse" xlink:href="#id0" x1="34.3971" y1="38.9528" x2="37.1138" y2="30.5998">
  </linearGradient>
  <linearGradient id="id3" gradientUnits="userSpaceOnUse" xlink:href="#id0" x1="13.6315" y1="42.3698" x2="28.7265" y2="22.0601">
  </linearGradient>
 </defs>
 <g id="Layer_x0020_1">
  <metadata id="CorelCorpID_0Corel-Layer"/>
  <rect class="fil0" width="50" height="50"/>
  <circle class="fil1 str0" cx="25" cy="25" r="24"/>
  <path class="fil2" d="M10 42l1 0c0,0 0,0 0,0 0,1 1,1 1,1 0,0 0,0 0,0 0,0 1,1 1,1 0,0 0,0 0,0 1,0 1,0 1,1 0,0 0,0 0,0 2,0 3,1 4,1 0,0 0,0 0,0 1,0 1,0 2,0 0,0 0,0 0,0 0,0 1,0 1,0 1,0 1,0 2,0 0,0 0,0 0,0 0,0 1,0 1,0 0,0 0,0 0,0 2,0 3,-1 4,-1 0,0 0,0 0,0 1,-1 1,-1 1,-1 0,0 0,0 0,0 1,0 1,-1 1,-1 1,0 1,0 1,0 0,0 0,0 0,-1 1,0 1,0 1,0l0 0c-1,-2 -4,-3 -6,-4 -1,0 -1,0 -1,-1l0 -2c0,0 0,0 0,0 1,-1 2,-2 2,-3 1,0 1,-1 1,-2l0 -2c0,-1 0,-1 0,-2l0 -2c0,-1 0,-2 -1,-4 -2,-1 -3,-2 -6,-2 -2,0 -2,1 -3,2 -1,0 -1,-1 -2,0 -1,2 -1,3 -1,4l0 2c0,1 -1,1 -1,2l0 2c0,1 1,1 1,2 1,1 2,3 2,3l0 2c0,1 0,1 -1,1l-4 3c-1,0 -1,0 -2,1z"/>
  <path class="fil3" d="M27 17c0,0 0,2 0,2 0,0 2,-2 3,-2l5 0c0,0 1,-1 1,-2l0 -5c0,-1 -1,-2 -1,-2l-8 0c-1,0 -2,1 -2,2l0 5c0,1 1,2 2,2l0 0z"/>
  <path class="fil4" d="M29 18c1,1 0,2 1,2 0,0 2,-1 2,-2l5 0c1,0 1,-1 1,-1l0 -6c0,-1 0,-1 -1,-1l-8 0c-1,0 -1,0 -1,1l0 6c0,0 0,1 1,1l0 0z"/>
  <rect class="fil5" x="31" y="27" width="9.9133" height="1.17169"/>
  <rect class="fil6" x="31" y="31" width="9.9133" height="1.17169"/>
  <rect class="fil7" x="31" y="34" width="9.9133" height="1.17169"/>
 </g>
</svg>
