<?xml version="1.0" encoding="UTF-8"?>
<!DOCTYPE svg PUBLIC "-//W3C//DTD SVG 1.1//EN" "http://www.w3.org/Graphics/SVG/1.1/DTD/svg11.dtd">
<!-- Creator: CorelDRAW X7 -->
<svg xmlns="http://www.w3.org/2000/svg" xml:space="preserve" width="48px" height="49px" version="1.1" style="shape-rendering:geometricPrecision; text-rendering:geometricPrecision; image-rendering:optimizeQuality; fill-rule:evenodd; clip-rule:evenodd"
viewBox="0 0 48 49"
 xmlns:xlink="http://www.w3.org/1999/xlink">
 <defs>
  <style type="text/css">
   <![CDATA[
    .str0 {stroke:white;stroke-width:0.89175}
    .fil5 {fill:none}
    .fil3 {fill:#1CC8EB}
    .fil2 {fill:#2887D2}
    .fil4 {fill:#46A6D6}
    .fil8 {fill:#4E7AB5}
    .fil9 {fill:#967A44}
    .fil6 {fill:#FCBC44}
    .fil1 {fill:#2887D2;fill-rule:nonzero}
    .fil7 {fill:url(#id0)}
    .fil0 {fill:url(#id1)}
   ]]>
  </style>
  <linearGradient id="id0" gradientUnits="userSpaceOnUse" x1="28.6437" y1="8.53833" x2="33.7894" y2="1.61498">
   <stop offset="0" style="stop-opacity:1; stop-color:#1CC8EB"/>
   <stop offset="0.631373" style="stop-opacity:1; stop-color:#0E96E0"/>
   <stop offset="1" style="stop-opacity:1; stop-color:#0063D4"/>
  </linearGradient>
  <linearGradient id="id1" gradientUnits="userSpaceOnUse" xlink:href="#id0" x1="18.4681" y1="45.5401" x2="36.5535" y2="12.2809">
  </linearGradient>
 </defs>
 <g id="Layer_x0020_1">
  <metadata id="CorelCorpID_0Corel-Layer"/>
  <g id="_584752240">
   <g>
    <path class="fil0" d="M34 12c17,7 14,31 -3,34 -7,1 -14,-2 -18,-8 0,-1 -1,-2 -1,-2l3 0 -6 -7 -2 8 3 0c4,15 34,17 38,-4 0,-3 0,-8 -2,-13 -2,-4 -7,-8 -9,-9 -2,-2 -2,-2 -2,-2l-1 3z"/>
    <path class="fil1" d="M12 21c-6,0 -6,-6 -6,-6 0,6 -6,6 -6,6 5,0 6,3 6,5 0,0 0,1 0,1 0,0 0,-1 0,-1 0,-2 1,-5 6,-5l0 0z"/>
    <path class="fil1" d="M17 25c-4,0 -4,-4 -4,-4 0,4 -5,4 -5,4 2,0 3,1 4,2 1,1 1,3 1,3 0,0 0,-2 1,-3 0,-1 1,-2 3,-2l0 0z"/>
    <g>
     <path class="fil2" d="M22 21l14 0c1,0 1,1 1,2l0 5c0,0 0,0 0,0 0,0 -1,0 -1,0l0 -2c0,-1 -6,-2 -6,0 0,0 0,1 0,1l0 0c0,0 0,0 -1,0l0 0 0 0c0,0 0,0 0,0 0,0 0,-1 0,-1 0,-2 -6,-1 -6,0l0 1c-1,1 -1,1 -2,1 0,0 0,0 0,0l0 -5c0,-1 1,-2 1,-2z"/>
     <path class="fil3" d="M23 28c2,0 5,0 6,0 0,0 0,0 0,0l0 0 0 0c1,0 1,0 1,0 1,0 3,0 5,0 3,0 5,3 5,6 0,2 0,3 0,3 0,0 -1,0 -1,-1 0,0 0,-2 0,-2 0,-1 -1,-1 -1,-1 -1,0 -6,0 -8,0l0 0 -1 0 0 0 0 0 0 0 0 0 0 0c-2,0 -8,0 -8,0 -1,0 -1,0 -1,1 0,0 0,2 0,2 0,1 -1,1 -1,1 -1,0 -1,-1 -1,-3 0,-3 3,-6 5,-6z"/>
     <rect class="fil2" x="20" y="34" width="18.3793" height="4.56696" rx="2" ry="2"/>
     <rect class="fil4" x="22" y="38" width="1.31826" height="1.98377"/>
     <rect class="fil4" x="35" y="38" width="1.31826" height="1.98377"/>
     <line class="fil5 str0" x1="23" y1="36" x2="36" y2= "36" />
    </g>
    <path class="fil1" d="M14 16c-2,0 -2,-3 -2,-3 0,2 -3,3 -3,3 1,0 2,0 2,1 1,0 1,1 1,1 0,0 0,-1 0,-1 1,-1 1,-1 2,-1l0 0z"/>
   </g>
   <g>
    <path class="fil6" d="M34 10c-1,0 -6,-3 -7,-3 0,0 -1,1 -1,1 -1,0 -1,0 -1,1 -1,0 -2,1 -3,1 0,0 -1,0 -1,0 0,0 0,0 0,0l3 2c0,0 0,0 0,0 1,0 1,0 1,0 1,-1 2,-1 2,-2 0,0 0,0 0,0l0 1c0,0 0,0 -1,1 0,0 0,0 0,0 -1,1 -1,1 -1,1 0,0 0,0 0,0l2 1c0,0 0,0 0,0 0,0 1,0 1,-1l1 0c0,0 0,0 0,0 0,0 0,0 0,0 0,0 0,0 0,0 0,0 0,0 0,0 -1,1 -1,1 -1,1 0,0 0,0 0,0 0,0 0,0 0,0l-1 1c0,0 1,0 2,1 0,0 0,0 0,0 0,0 1,-1 1,-1l1 -1c0,-1 1,-1 1,-1 0,0 2,-3 2,-3z"/>
    <path class="fil7" d="M32 7c0,0 0,0 0,0 1,-1 1,-1 1,-2 0,0 0,0 0,0 1,-1 1,-2 2,-3 0,0 0,-1 0,-1 0,0 0,0 0,0 0,0 0,-1 0,-1 -1,0 -1,1 -1,1l-3 4c0,1 0,1 0,1 -1,0 -1,0 -1,0 0,0 0,0 0,0 0,0 -1,-1 -1,-1 -1,0 -1,1 -2,1 0,0 1,0 1,0 0,0 0,1 0,1 0,0 1,0 1,0 0,0 5,3 5,3 0,-1 0,-1 0,-1 0,-1 0,-1 0,-1 -1,0 -1,0 -1,0 0,-1 0,-1 0,-1 -1,0 -1,0 -1,0z"/>
    <path class="fil8" d="M32 7c0,0 0,0 1,0 0,0 0,0 0,1 0,0 0,0 1,0 0,0 0,0 0,1 0,0 0,0 0,1 0,0 -5,-3 -5,-3 0,0 -1,0 -1,0 0,0 0,-1 0,-1 0,0 -1,0 -1,0 1,0 1,-1 2,-1 0,0 1,1 1,1 0,0 0,0 0,0 0,0 0,0 1,0 0,0 0,0 0,-1l3 -4c0,0 0,-1 1,-1 0,0 0,1 0,1 0,0 0,0 0,0 0,0 0,1 0,1 -1,1 -1,2 -2,3 0,0 0,0 0,0 0,1 0,1 -1,2 0,0 0,0 0,0zm-5 -1c0,0 0,0 0,0l0 1c0,0 0,0 0,0l2 0c0,1 1,1 1,1 1,1 1,1 2,1l1 1c0,0 0,0 1,0 0,0 0,0 0,0 0,0 0,0 0,0 0,0 0,0 0,0 0,0 0,0 0,0 0,-1 0,0 0,-1 0,0 0,0 0,0 0,-1 0,-1 0,-1 0,0 0,0 0,0 0,-1 0,-1 -1,-1l0 0c0,0 0,0 0,0l0 0 1 -2c0,-1 0,-1 0,-1 0,0 0,0 0,-1l1 0c0,0 0,0 0,0l0 0c0,0 0,0 0,0 0,0 0,-1 0,-1 0,0 0,0 0,0 0,0 0,0 0,0 0,-1 0,-1 0,-1 0,0 0,-1 0,-1 0,0 0,0 0,0 -1,0 -1,0 -1,0l-3 5c0,0 0,0 -1,1 0,-1 -1,-1 -1,-1 0,0 -1,0 -1,0 0,0 0,0 0,0l0 0c0,0 0,0 -1,0 0,0 0,1 0,1 0,0 0,0 0,0z"/>
    <path class="fil9" d="M34 10l-1 1c0,1 0,1 0,1 0,0 -1,1 -1,1l-1 1c0,0 0,0 0,0 0,0 0,0 0,0l-1 1c0,0 0,0 0,0l0 0c0,1 0,1 0,1l-1 0c0,0 0,0 0,0 0,0 0,0 0,0l-3 -1c0,-1 0,-1 -1,-1l-4 -3c0,-1 -1,-1 -1,-1l0 0c0,0 0,0 0,0 0,0 0,0 0,0 1,0 1,0 2,0 0,0 0,-1 1,-1 0,0 0,0 0,0l0 0c0,0 0,0 1,0l0 0 1 -1c0,0 0,0 1,0l0 -1c0,0 0,0 0,0 0,0 0,0 0,0 0,0 0,0 0,0 0,0 0,0 0,0 0,0 0,1 0,1 0,0 0,0 0,0 -1,0 -1,0 -1,1 -1,0 -2,1 -3,1 0,0 -1,0 -1,0 0,0 0,0 0,0l1 1c1,0 1,0 2,0l2 -1 -3 2 1 0c0,0 0,0 0,0 1,0 1,0 1,0 1,-1 2,-1 2,-2 0,0 0,0 0,0l0 1c0,0 0,0 -1,1 0,0 0,0 0,0 -1,1 -1,1 -1,1 0,0 0,0 0,0l2 1c0,0 0,0 0,0 0,0 1,0 1,-1l1 0c0,0 0,0 0,0 0,0 0,0 0,0 0,0 0,0 0,0 0,0 0,0 0,0 -1,1 -1,1 -1,1 0,0 0,0 0,0 0,0 0,0 0,0l-1 1c0,0 1,0 2,1 0,0 0,0 0,0 0,0 1,-1 1,-1l1 -1c0,-1 1,-1 1,-1 0,-1 0,-1 1,-2 0,0 0,-1 1,-1 0,0 0,0 0,0z"/>
    <path class="fil9" d="M26 7c0,0 0,0 0,0 0,0 0,0 0,0 0,0 1,0 1,0 0,0 0,0 0,0 0,0 0,0 0,0l0 -1c0,0 0,0 0,0 0,0 0,0 0,0 0,0 0,1 -1,1l0 0z"/>
   </g>
  </g>
 </g>
</svg>
