<?xml version="1.0" encoding="UTF-8"?>
<!DOCTYPE svg PUBLIC "-//W3C//DTD SVG 1.1//EN" "http://www.w3.org/Graphics/SVG/1.1/DTD/svg11.dtd">
<!-- Creator: CorelDRAW X7 -->
<svg xmlns="http://www.w3.org/2000/svg" xml:space="preserve" width="10.161mm" height="10.1598mm" version="1.1" style="shape-rendering:geometricPrecision; text-rendering:geometricPrecision; image-rendering:optimizeQuality; fill-rule:evenodd; clip-rule:evenodd"
viewBox="0 0 1016 1016"
 xmlns:xlink="http://www.w3.org/1999/xlink">
 <defs>
  <style type="text/css">
   <![CDATA[
    .fil0 {fill:none}
    .fil3 {fill:#2887D2}
    .fil4 {fill:#FEFEFE;fill-rule:nonzero}
    .fil2 {fill:#FEFEFE;fill-rule:nonzero}
    .fil1 {fill:#F58634;fill-rule:nonzero}
   ]]>
  </style>
 </defs>
 <g id="Layer_x0020_1">
  <metadata id="CorelCorpID_0Corel-Layer"/>
  <rect class="fil0" width="1016" height="1016"/>
  <g id="_70268385552">
   <g>
    <path class="fil1" d="M13 474c68,58 166,66 238,6 1,-1 2,-1 2,-2l4 -3c-16,-21 -47,-30 -71,-42 -5,-3 -8,-8 -8,-13l0 -20c1,-2 3,-4 4,-6 7,-10 13,-21 18,-34 8,-4 14,-12 14,-22l0 -23c0,-6 -3,-12 -6,-16l0 -31c0,-4 1,-23 -13,-39 -12,-14 -32,-22 -59,-22 -30,0 -26,11 -37,16 -9,4 -14,-5 -25,7 -14,16 -10,34 -10,38l0 31c-4,4 -6,10 -6,16l0 23c0,8 4,14 9,19 6,21 17,37 21,43l0 19c0,5 -3,10 -8,13l-53 29c-6,3 -10,8 -14,13z"/>
    <path id="1" class="fil2" d="M247 474l9 12 1 0 -8 6 -7 5 -7 5 -8 4 -8 4 -7 4 -8 3 -8 3 -8 2 -8 2 -8 2 -9 1 -8 1 -8 1 -8 0 -9 0 -8 -1 -8 -1 -8 -1 -8 -1 -8 -2 -8 -3 -8 -2 -8 -3 -8 -3 -8 -4 -7 -4 -7 -4 -8 -5 -7 -5 -7 -5 -6 -5 10 -13 6 6 7 4 6 5 7 4 7 4 7 4 7 3 7 3 7 3 7 2 8 2 7 2 8 1 7 2 8 0 7 1 8 0 7 0 8 -1 7 0 8 -2 7 -1 7 -2 8 -2 7 -3 7 -3 7 -3 7 -4 7 -4 7 -4 7 -5 6 -5 1 0zm-1 0l0 0 1 0 -1 0zm2 -2l10 13 0 0 0 0 0 0 0 0 0 0 0 0 0 0 0 0 0 0 0 0 0 0 -1 0 0 0 0 0 0 1 0 0 0 -1 0 1 0 0 0 0 0 0 0 0 0 0 0 0 0 0 0 0 0 0 0 0 -1 0 0 0 0 0 0 0 0 0 -9 -12 0 -1 0 0 0 0 0 0 0 0 0 0 0 0 0 0 0 0 0 0 1 0 -1 0 0 0 0 0 1 0 0 0 0 0 0 -1 0 1 0 0 0 0 0 -1 0 0 0 0 0 0 0 0 0 0 0 0 0 0 0 0 0 0 0 0 0 0zm10 13l0 0 1 -1 -1 1zm4 -3l-4 3 -10 -13 4 -3 11 2 -1 11zm1 -11l5 6 -6 5 1 -11zm-80 -31l7 -14 0 0 2 1 2 1 2 1 3 1 2 1 2 1 3 1 2 1 3 1 2 1 3 2 2 1 3 1 2 1 3 1 2 1 3 2 2 1 3 1 2 2 2 1 3 2 2 1 2 2 2 2 3 1 2 2 2 2 2 2 2 2 2 2 1 3 -12 9 -2 -1 -1 -2 -2 -2 -1 -1 -2 -2 -2 -1 -1 -2 -2 -1 -2 -1 -2 -2 -2 -1 -2 -1 -2 -2 -3 -1 -2 -1 -2 -1 -2 -1 -3 -2 -2 -1 -3 -1 -2 -1 -2 -1 -3 -1 -2 -1 -3 -1 -2 -1 -2 -1 -3 -2 -2 -1 -3 -1 -2 -1 -2 -1 0 0zm0 0l0 0 1 0 -1 0zm-13 -20l16 0 0 0 0 0 0 0 0 0 0 0 0 1 0 0 0 0 0 0 0 1 0 0 1 0 0 0 0 1 0 0 0 0 0 0 0 0 0 1 0 0 1 0 0 0 0 0 0 0 0 1 0 0 1 0 0 0 0 0 0 0 0 0 1 1 0 0 -7 14 -1 0 -1 -1 0 0 -1 -1 -1 0 0 -1 -1 0 -1 -1 0 0 -1 -1 0 0 -1 -1 0 -1 -1 0 0 -1 -1 0 0 -1 0 -1 -1 0 0 -1 0 -1 -1 -1 0 0 0 -1 0 -1 0 -1 -1 -1 0 0 0 -1 0 -1 0 -1 0 0 0 0zm16 -20l0 20 -16 0 0 -20 2 -5 14 5zm-16 0l0 -3 2 -2 -2 5zm6 -10l13 9 0 0 0 0 -1 0 0 1 0 0 0 0 0 0 0 0 0 1 -1 0 0 0 0 0 0 0 0 0 0 1 0 0 -1 0 0 0 0 0 0 0 0 1 0 0 0 0 0 0 -1 0 0 1 0 0 0 0 0 0 0 0 -1 1 0 0 0 0 -12 -10 0 0 0 -1 0 0 0 0 0 0 1 0 0 0 0 0 0 0 0 -1 0 0 0 0 0 0 0 0 1 0 0 -1 0 0 0 0 0 0 0 0 0 0 0 0 0 -1 1 0 0 0 0 0 0 0 0 0 0 -1 0 0 0 0 1 0 0 0zm0 0l0 0 0 -1 0 1zm20 -37l7 14 4 -4 0 1 -1 1 0 1 -1 2 0 1 -1 1 0 1 -1 1 0 2 -1 1 0 1 -1 1 0 1 -1 1 0 2 -1 1 0 1 -1 1 -1 1 0 1 -1 1 -1 1 0 1 -1 2 0 1 -1 1 -1 1 -1 1 0 1 -1 1 -1 1 0 1 -13 -9 0 -1 1 -1 1 -1 0 -1 1 -1 0 -1 1 -1 1 -1 0 -1 1 -1 0 -1 1 -1 0 -1 1 -1 0 -1 1 -1 0 -1 1 -1 0 -1 1 -1 0 -1 1 -1 0 -1 1 -1 0 -1 1 -1 0 -1 0 -1 1 -1 0 -1 1 -1 0 -1 4 -5zm-4 5l1 -4 3 -1 -4 5zm14 -20l15 0 0 0 0 1 0 2 0 1 0 1 0 1 0 1 -1 1 0 1 0 1 -1 2 0 1 0 1 -1 1 0 1 -1 1 -1 1 0 0 -1 1 0 1 -1 1 -1 1 -1 1 -1 1 0 0 -1 1 -1 1 -1 0 -1 1 -1 1 -1 0 -1 1 -1 0 -7 -14 1 0 0 -1 1 0 0 0 1 0 0 -1 1 0 0 -1 0 0 1 0 0 -1 1 0 0 -1 0 0 1 -1 0 0 0 -1 1 0 0 0 0 -1 0 -1 1 0 0 -1 0 0 0 -1 0 0 0 -1 0 0 0 -1 0 -1 1 0 0 -1 0 0zm15 -23l0 23 -15 0 0 -23 0 0 15 0zm-21 -16l16 0 -2 -5 0 0 1 1 0 0 0 1 1 0 0 1 1 1 0 0 0 1 1 1 0 0 0 1 1 0 0 1 0 1 0 0 1 1 0 1 0 0 0 1 1 1 0 0 0 1 0 1 0 1 0 0 0 1 0 1 0 0 0 1 0 1 0 1 -15 0 0 -1 0 0 -1 0 0 -1 0 0 0 -1 0 0 0 0 0 -1 0 0 0 0 0 -1 0 0 0 0 0 -1 0 0 -1 0 0 -1 0 0 0 0 0 -1 0 0 -1 0 0 -1 0 0 0 0 0 -1 -1 0 0 0 0 0 0 -1 0 0 -2 -5zm2 5l-2 -2 0 -3 2 5zm14 -36l0 31 -16 0 0 -31 0 -1 16 1zm-16 0l0 -1 0 0 0 1zm-11 -34l12 -11 0 0 2 2 1 2 1 2 1 1 2 2 1 2 0 2 1 2 1 1 1 2 0 2 1 2 0 1 1 2 0 2 1 1 0 2 0 1 0 2 0 1 1 2 0 1 0 1 0 1 0 1 0 1 0 1 0 1 0 1 0 0 0 1 0 0 -16 -1 0 0 0 -1 0 0 0 -1 0 0 0 -1 0 -1 0 0 0 -1 0 -1 0 -1 0 -1 -1 -1 0 -1 0 -1 0 -2 0 -1 -1 -1 0 -1 0 -2 -1 -1 0 -1 -1 -1 0 -2 -1 -1 -1 -1 0 -2 -1 -1 -1 -1 -1 -2 -1 -1 -1 -1 0 0zm-53 -19l0 -16 0 0 3 0 2 1 3 0 2 0 3 0 2 0 3 1 2 0 2 0 3 1 2 0 2 1 2 0 2 1 3 0 2 1 2 1 2 1 2 1 2 1 1 1 2 1 2 1 2 1 2 1 1 1 2 1 1 2 2 1 1 1 2 2 1 1 -12 11 -1 -1 -1 -1 -1 -1 -1 -1 -1 -1 -1 -1 -2 -1 -1 -1 -1 -1 -2 -1 -1 0 -1 -1 -2 -1 -2 -1 -1 0 -2 -1 -1 0 -2 -1 -2 0 -2 -1 -2 0 -1 -1 -2 0 -2 0 -2 -1 -3 0 -2 0 -2 0 -2 0 -2 -1 -3 0 -2 0 0 0zm-33 15l-7 -14 0 0 1 -1 0 0 0 0 1 0 0 -1 1 0 0 -1 1 0 0 -1 1 0 0 -1 1 -1 1 0 0 -1 1 -1 1 -1 1 -1 2 -1 1 0 1 -1 2 -1 1 0 2 -1 2 -1 2 0 2 0 2 -1 2 0 3 0 2 0 3 -1 3 0 0 16 -3 0 -2 0 -2 1 -2 0 -2 0 -1 0 -2 1 -1 0 -1 0 -1 0 -1 1 -1 0 0 0 -1 1 0 0 -1 0 0 1 -1 0 0 1 0 0 -1 1 -1 0 0 1 -1 1 -1 1 0 0 -1 1 -1 1 -1 1 -2 1 -1 0 -1 1 0 0zm-23 5l-12 -10 0 0 1 -2 2 -1 1 -1 1 -1 1 -1 2 -1 1 0 1 -1 1 0 2 -1 1 0 1 0 1 0 2 0 1 0 1 0 1 0 1 0 0 0 1 0 1 0 0 0 1 0 0 0 1 0 0 0 0 0 1 0 0 0 0 0 1 0 0 0 7 14 -2 1 -1 0 -1 0 -1 1 -2 0 -1 0 -1 0 -1 0 -1 0 -1 0 -1 0 -1 0 0 0 -1 0 -1 0 0 0 0 -1 -1 0 0 1 -1 0 0 0 0 0 0 0 -1 0 0 0 0 0 -1 0 0 1 -1 0 -1 1 0 1 -1 0 0 0zm-12 -10l0 0 0 -1 0 1zm4 43l-16 0 0 0 0 0 0 0 0 -1 0 0 0 -1 0 -1 0 -1 0 -1 0 -1 -1 -1 0 -1 0 -2 0 -1 1 -1 0 -2 0 -1 0 -2 0 -1 0 -2 1 -2 0 -1 1 -2 0 -2 1 -2 1 -2 1 -1 1 -2 1 -2 1 -2 1 -2 2 -1 1 -2 12 10 -1 2 -1 1 -1 1 -1 1 0 1 -1 2 -1 1 0 1 -1 1 0 2 0 1 -1 1 0 1 0 1 0 1 0 1 0 1 -1 2 0 1 0 1 0 0 0 1 0 1 1 1 0 1 0 0 0 1 0 1 0 0 0 1 0 0 0 1 0 1zm0 -1l0 0 0 1 0 -1zm-16 32l0 -31 16 0 0 31 -2 5 -14 -5zm16 0l0 3 -2 2 2 -5zm-6 16l-16 0 0 0 0 -1 0 -1 0 -1 0 0 0 -1 1 -1 0 0 0 -1 0 -1 0 -1 0 0 0 -1 1 -1 0 0 0 -1 0 -1 1 0 0 -1 0 -1 0 0 1 -1 0 0 0 -1 1 -1 0 0 1 -1 0 -1 0 0 1 -1 0 0 1 -1 0 0 12 10 0 0 0 1 0 0 -1 0 0 0 0 1 0 0 0 0 -1 1 0 0 0 0 0 1 0 0 0 0 -1 1 0 0 0 0 0 1 0 0 0 0 0 1 0 0 0 0 0 1 -1 0 0 0 0 1 0 0 0 1 0 0 0 0 0 1 0 0zm-16 23l0 -23 16 0 0 23 0 0 -16 0zm25 17l-16 4 3 4 -1 0 0 -1 -1 -1 -1 0 0 -1 -1 0 0 -1 -1 -1 0 -1 -1 0 0 -1 -1 -1 0 -1 -1 0 0 -1 -1 -1 0 -1 0 0 -1 -1 0 -1 0 -1 0 -1 -1 -1 0 -1 0 0 0 -1 0 -1 -1 -1 0 -1 0 -1 0 -1 0 -1 16 0 0 1 0 0 0 1 0 0 0 1 0 0 1 0 0 1 0 0 0 1 0 0 0 1 0 0 0 0 1 1 0 0 0 1 0 0 0 0 1 1 0 0 0 1 0 0 1 0 0 1 0 0 1 0 0 1 0 0 1 0 0 1 0 0 3 4zm-3 -4l2 2 1 2 -3 -4zm24 49l-16 0 1 5 0 -1 0 -1 -1 0 0 -1 -1 -1 -1 -1 0 -1 -1 -1 -1 -1 0 -1 -1 -1 -1 -1 -1 -2 0 -1 -1 -1 -1 -2 -1 -1 -1 -2 0 -1 -1 -2 -1 -2 -1 -2 -1 -1 0 -2 -1 -2 -1 -2 0 -2 -1 -2 -1 -2 0 -2 -1 -2 -1 -2 16 -4 0 2 1 2 0 1 1 2 1 2 0 2 1 1 1 2 0 1 1 2 1 2 0 1 1 1 1 2 0 1 1 1 1 2 0 1 1 1 1 1 0 1 1 1 1 1 0 1 1 1 0 1 1 1 0 0 1 1 0 1 1 0 0 1 2 5zm-2 -5l2 2 0 3 -2 -5zm-14 24l0 -19 16 0 0 19 0 0 -16 0zm4 20l-8 -14 0 0 0 0 1 0 0 0 0 0 0 -1 0 0 1 0 0 0 0 0 0 0 0 -1 0 0 0 0 1 0 0 0 0 -1 0 0 0 0 0 0 0 0 0 -1 0 0 1 0 0 0 0 0 0 -1 0 0 0 0 0 0 0 -1 0 0 0 0 16 0 0 1 0 1 0 0 0 1 -1 1 0 1 0 0 0 1 0 1 0 1 -1 0 0 1 0 1 -1 0 0 1 0 1 -1 0 0 1 -1 0 0 1 -1 1 0 0 -1 1 0 0 -1 1 0 0 -1 1 0 0 -1 1 -1 0 0 1 -1 0 0 0zm0 0l0 0 -2 1 2 -1zm-60 15l52 -29 8 14 -53 29 -8 -14 1 0zm-1 0l1 0 0 -1 -1 1zm-5 13l-10 13 -1 -12 0 -1 1 0 0 0 1 -1 0 0 1 -1 0 0 0 -1 1 0 0 0 1 -1 0 0 1 -1 0 0 1 -1 0 0 1 -1 0 0 1 -1 0 0 1 0 0 -1 1 0 0 -1 1 0 1 -1 0 0 1 -1 0 0 1 0 1 -1 0 0 8 14 0 0 -1 0 0 1 0 0 -1 0 0 0 -1 1 0 0 0 0 -1 0 0 1 0 0 -1 0 0 1 -1 0 0 0 0 1 -1 0 0 1 -1 0 0 0 0 1 -1 0 0 1 -1 0 0 0 0 1 -1 0 0 1 -1 0 0 1 -1 0 0 -12zm-10 13l-7 -6 6 -6 1 12z"/>
   </g>
   <g>
    <path class="fil1" d="M457 863c-1,-1 -48,-25 -77,-41 -13,-7 -20,-23 -16,-38 4,-14 18,-25 33,-25l54 0c-17,-31 -30,-65 -38,-101 -3,-12 -4,-24 -4,-37 0,-18 -8,-34 -21,-46 -30,-26 -74,-26 -103,0 -13,12 -21,28 -21,46 0,13 -1,25 -4,37 -8,36 -21,70 -38,101l54 0c15,0 29,10 33,25 4,15 -3,31 -16,38 -29,16 -76,40 -78,41 -4,3 -8,6 -10,11l263 0c-3,-5 -6,-9 -11,-11z"/>
    <path id="1" class="fil2" d="M376 829l8 -14 0 0 3 2 3 1 2 2 3 2 3 1 4 2 3 2 3 1 3 2 3 2 3 1 3 2 4 2 3 1 3 2 3 1 2 2 3 1 3 2 2 1 3 1 2 1 2 2 2 1 2 0 2 1 1 1 1 1 1 0 1 0 0 1 0 0 -6 14 -1 0 0 0 -1 -1 -1 0 -1 -1 -2 -1 -1 0 -2 -1 -2 -1 -2 -1 -2 -2 -3 -1 -2 -1 -3 -2 -3 -1 -3 -1 -3 -2 -3 -2 -3 -1 -3 -2 -3 -2 -3 -1 -4 -2 -3 -2 -3 -1 -3 -2 -3 -2 -3 -1 -3 -2 -3 -2 -3 -1 -3 -2 0 0zm8 -14l0 0 0 0 0 0zm-28 -33l16 5 0 0 0 1 -1 1 0 1 0 1 0 1 0 1 0 1 0 1 0 1 0 1 1 1 0 1 0 1 0 1 1 1 0 1 0 1 1 1 0 1 1 1 1 1 0 0 1 1 0 1 1 1 1 1 1 0 0 1 1 1 1 0 1 1 1 0 -8 14 -1 -1 -2 -1 -1 -1 -2 -1 -1 -1 -1 -1 -1 -1 -1 -1 -2 -2 -1 -1 -1 -1 -1 -2 0 -1 -1 -2 -1 -1 -1 -2 0 -1 -1 -2 0 -2 -1 -1 0 -2 0 -1 -1 -2 0 -2 0 -2 0 -1 0 -2 0 -2 0 -1 1 -2 0 -2 0 -2 0 0zm41 -31l0 16 0 0 -1 0 -1 0 -1 0 -1 1 -1 0 -1 0 -1 0 -1 1 -1 0 -1 0 -1 1 -1 0 -1 1 -1 0 -1 1 -1 1 -1 0 0 1 -1 1 -1 0 -1 1 0 1 -1 1 0 1 -1 1 -1 1 0 0 -1 1 0 1 0 1 -1 2 0 1 -16 -5 1 -1 1 -2 0 -2 1 -1 1 -2 0 -1 1 -2 1 -1 1 -2 1 -1 1 -1 2 -2 1 -1 1 -1 1 -1 2 -1 1 -1 1 -1 2 -1 1 -1 2 -1 1 0 2 -1 2 -1 1 0 2 -1 2 0 1 0 2 0 2 -1 2 0 1 0 0 0zm0 16l0 0 0 0 0 0zm54 0l-54 0 0 -16 54 0 7 4 -7 12zm7 -12l7 12 -14 0 7 -12zm-53 -95l16 -3 0 0 0 3 1 3 1 3 1 4 1 3 1 3 0 3 1 3 1 4 1 3 1 3 1 3 2 3 1 3 1 3 1 3 1 3 1 4 2 3 1 3 1 3 1 3 2 3 1 3 2 3 1 3 2 3 1 3 1 3 2 3 2 2 1 3 -14 8 -1 -3 -2 -3 -2 -3 -1 -3 -2 -3 -1 -3 -2 -3 -1 -4 -2 -3 -1 -3 -2 -3 -1 -3 -1 -3 -1 -4 -2 -3 -1 -3 -1 -3 -1 -3 -2 -4 -1 -3 -1 -3 -1 -3 -1 -4 -1 -3 -1 -3 -1 -4 -1 -3 -1 -3 0 -4 -1 -3 -1 -3 -1 -4 0 0zm16 -3l0 0 0 -1 0 1zm-20 -36l16 0 0 0 0 1 0 1 0 1 0 2 0 1 0 1 0 1 0 1 0 1 0 1 0 1 0 2 0 1 0 1 1 1 0 1 0 1 0 1 0 1 0 1 0 2 1 1 0 1 0 1 0 1 0 1 1 1 0 1 0 1 0 1 0 2 1 1 -16 3 0 -1 0 -1 -1 -1 0 -2 0 -1 0 -1 -1 -1 0 -1 0 -2 0 -1 0 -1 -1 -1 0 -1 0 -2 0 -1 0 -1 0 -1 0 -2 -1 -1 0 -1 0 -1 0 -2 0 -1 0 -1 0 -1 0 -1 0 -2 0 -1 0 -1 0 -1 0 -2 0 -1 0 0zm16 0l0 0 0 0 0 0zm-34 -40l10 -12 0 0 2 1 1 1 1 2 2 1 1 1 1 2 1 1 1 2 1 1 1 2 1 1 1 2 1 2 1 1 1 2 0 1 1 2 1 2 1 2 0 1 1 2 0 2 1 2 0 1 0 2 1 2 0 2 0 2 0 1 0 2 1 2 0 2 -16 0 0 -1 0 -2 -1 -1 0 -2 0 -1 0 -1 0 -2 -1 -1 0 -2 0 -1 -1 -1 0 -2 -1 -1 0 -1 -1 -2 0 -1 -1 -1 0 -2 -1 -1 -1 -1 0 -1 -1 -2 -1 -1 -1 -1 -1 -1 0 -1 -1 -1 -1 -1 -1 -1 -1 -2 -1 -1 -1 -1 0 1zm10 -12l0 0 0 -1 0 1zm-103 11l-11 -11 1 0 3 -3 3 -2 3 -3 3 -2 4 -2 3 -1 4 -2 3 -1 4 -2 4 -1 4 -1 3 0 4 -1 4 0 4 -1 3 0 4 0 4 1 4 0 4 1 3 0 4 1 4 1 3 2 4 1 3 2 4 1 3 2 4 2 3 3 3 2 3 3 -10 12 -3 -3 -2 -1 -3 -2 -3 -2 -3 -2 -2 -1 -3 -1 -3 -1 -3 -1 -3 -1 -3 -1 -3 -1 -3 0 -3 -1 -3 0 -4 0 -3 0 -3 0 -3 1 -3 0 -3 1 -3 1 -3 1 -3 1 -3 1 -3 1 -3 1 -2 2 -3 2 -3 2 -2 1 -3 3 0 -1zm-11 -11l1 0 0 -1 -1 1zm-7 52l-16 0 0 0 0 -2 0 -2 1 -2 0 -1 0 -2 0 -2 0 -2 1 -2 0 -1 1 -2 0 -2 1 -2 0 -1 1 -2 1 -2 0 -2 1 -1 1 -2 1 -1 1 -2 1 -2 1 -1 1 -2 1 -1 1 -2 1 -1 1 -2 1 -1 1 -1 2 -2 1 -1 1 -1 11 11 -1 1 -1 1 -1 2 -1 1 -1 1 -1 1 -1 1 0 1 -1 1 -1 1 -1 2 0 1 -1 1 -1 1 0 2 -1 1 -1 1 0 2 -1 1 0 1 0 2 -1 1 0 1 -1 2 0 1 0 2 0 1 0 1 -1 2 0 1 0 2 0 1 0 0zm-16 0l0 0 0 0 0 0zm12 39l-16 -3 0 0 1 -2 0 -1 0 -1 0 -1 0 -1 1 -1 0 -1 0 -1 0 -1 0 -1 1 -2 0 -1 0 -1 0 -1 0 -1 0 -1 0 -1 1 -1 0 -1 0 -1 0 -2 0 -1 0 -1 0 -1 0 -1 0 -1 0 -1 0 -1 0 -2 0 -1 0 -1 0 -1 16 0 0 1 0 2 0 1 0 1 0 1 0 1 0 2 0 1 0 1 0 1 0 2 0 1 0 1 -1 1 0 2 0 1 0 1 0 1 0 1 0 2 -1 1 0 1 0 1 0 1 0 2 -1 1 0 1 0 1 0 1 -1 2 0 1 0 1 0 0zm-16 -3l0 0 0 0 0 0zm-30 94l0 16 -7 -12 1 -3 2 -3 1 -3 2 -2 1 -3 2 -3 1 -3 2 -3 1 -3 2 -3 1 -3 1 -3 1 -4 2 -3 1 -3 1 -3 1 -3 1 -3 1 -3 2 -3 1 -3 1 -3 1 -4 1 -3 1 -3 0 -3 1 -3 1 -4 1 -3 1 -3 1 -3 0 -3 16 3 -1 3 -1 4 -1 3 0 4 -1 3 -1 3 -1 3 -1 4 -1 3 -1 3 -1 4 -1 3 -1 3 -2 3 -1 4 -1 3 -1 3 -2 3 -1 4 -1 3 -2 3 -1 3 -1 3 -2 3 -1 3 -2 4 -1 3 -2 3 -1 3 -2 3 -2 3 -1 3 -7 -12zm0 16l-14 0 7 -12 7 12zm54 0l-54 0 0 -16 54 0 0 16 0 0zm0 0l0 0 0 0 0 0zm40 15l-15 5 0 -1 0 -1 -1 -1 0 -1 0 -1 -1 -1 0 -1 -1 0 -1 -1 0 -1 -1 -1 0 -1 -1 -1 -1 0 -1 -1 -1 -1 0 -1 -1 0 -1 -1 -1 0 -1 -1 -1 0 -1 -1 -1 0 -1 -1 -1 0 -1 0 -1 0 -1 -1 -1 0 -1 0 -1 0 -1 0 0 -16 1 0 2 0 2 0 2 1 1 0 2 0 2 1 1 0 2 1 2 1 1 0 2 1 1 1 2 1 1 1 1 1 2 1 1 1 1 1 1 1 2 2 1 1 1 1 1 2 1 1 1 2 0 1 1 2 1 1 0 2 1 2 0 1 0 0zm-15 5l0 -1 -1 -3 1 4zm-4 42l-8 -14 0 0 1 0 1 -1 1 -1 0 0 1 -1 1 -1 1 0 1 -1 0 -1 1 -1 0 -1 1 0 1 -1 0 -1 1 -1 0 -1 0 -1 1 -1 0 -1 0 -1 0 -1 1 -1 0 -1 0 -1 0 -1 0 -1 0 -1 0 -1 0 -1 0 -1 -1 -1 0 -1 15 -5 1 2 0 2 1 2 0 1 0 2 0 2 0 1 0 2 0 2 -1 1 0 2 0 2 -1 1 0 2 -1 2 0 1 -1 2 -1 1 -1 2 0 1 -1 2 -1 1 -1 1 -2 2 -1 1 -1 1 -1 1 -2 1 -1 1 -1 1 -2 1 -1 1 0 0zm-8 -14l0 0 0 0 0 0zm-70 55l-8 -14 0 0 1 0 0 0 1 -1 1 0 1 -1 2 -1 1 0 2 -1 2 -1 2 -1 3 -2 2 -1 3 -1 3 -2 2 -1 3 -2 3 -1 3 -2 3 -1 3 -2 4 -2 3 -1 3 -2 3 -2 3 -1 3 -2 4 -2 3 -1 2 -2 3 -2 3 -1 3 -2 8 14 -3 2 -3 1 -3 2 -3 2 -3 1 -3 2 -3 2 -3 1 -4 2 -3 2 -3 1 -3 2 -3 2 -3 1 -3 2 -3 2 -3 1 -3 2 -3 1 -2 1 -3 2 -2 1 -2 1 -3 1 -1 1 -2 1 -2 0 -1 1 -1 1 -1 0 0 0 -1 1 1 -1zm-8 -14l0 0 0 0 0 0zm-6 10l0 16 -7 -12 0 0 1 -1 0 0 0 -1 1 0 0 -1 0 0 1 -1 0 0 0 -1 0 0 1 -1 0 0 1 -1 0 0 0 -1 1 0 0 0 1 -1 0 0 1 -1 0 0 0 0 1 -1 0 0 1 -1 0 0 1 0 0 -1 1 0 0 0 1 -1 8 14 0 0 -1 1 0 0 0 0 0 0 -1 0 0 0 0 1 0 0 -1 0 0 0 0 0 0 1 0 0 -1 0 0 0 0 0 0 1 0 0 -1 0 0 0 0 0 0 1 0 0 0 0 0 0 -1 1 0 0 0 0 0 0 0 1 0 0 -8 -11zm0 16l-12 0 5 -12 7 12zm263 0l-263 0 0 -16 263 0 7 4 -7 12zm7 -12l5 12 -12 0 7 -12zm-21 0l6 -14 1 0 0 0 1 0 0 1 1 0 1 0 0 1 1 0 0 1 1 0 0 0 1 1 0 0 1 1 0 0 0 0 1 1 0 0 1 1 0 0 1 1 0 0 0 1 1 0 0 1 0 0 1 1 0 0 0 1 1 0 0 1 0 1 1 0 -15 7 0 0 0 0 0 -1 0 0 0 0 -1 0 0 -1 0 0 0 0 0 -1 0 0 -1 0 0 0 0 0 0 -1 -1 0 0 0 0 0 0 -1 0 0 -1 0 0 0 0 0 0 -1 -1 0 0 0 0 0 -1 0 0 -1 0 0 0 0 -1 0 1 0zm6 -14l1 0 0 0 -1 0z"/>
   </g>
   <g>
    <path class="fil1" d="M314 299c69,58 167,66 239,6 0,0 1,-1 2,-1l3 -3c-16,-21 -47,-31 -70,-43 -6,-2 -9,-7 -9,-13l0 -20c2,-1 3,-3 4,-5 8,-11 14,-22 18,-34 8,-4 14,-13 14,-22l0 -24c0,-6 -2,-11 -6,-16l0 -31c0,-3 1,-23 -13,-39 -12,-14 -32,-21 -59,-21 -30,0 -26,10 -36,15 -9,4 -15,-4 -26,7 -14,16 -10,35 -10,38l0 31c-3,5 -5,10 -5,16l0 24c0,7 3,14 9,18 5,22 16,38 20,43l0 19c0,6 -3,11 -8,13l-52 29c-6,3 -10,8 -15,13z"/>
    <path id="1" class="fil2" d="M548 299l10 13 0 -1 -7 6 -8 5 -7 5 -8 4 -7 4 -8 4 -8 3 -8 3 -8 3 -8 2 -8 1 -8 2 -9 1 -8 0 -8 0 -8 0 -9 0 -8 -1 -8 -1 -8 -2 -8 -2 -8 -2 -8 -3 -8 -3 -8 -3 -7 -4 -8 -4 -7 -4 -7 -4 -7 -5 -7 -6 -7 -5 10 -12 6 5 7 5 6 4 7 4 7 4 7 4 7 3 7 3 7 3 8 3 7 2 7 1 8 2 7 1 8 1 7 0 8 0 7 0 8 0 7 -1 8 -1 7 -2 8 -2 7 -2 7 -3 8 -3 7 -3 7 -4 7 -4 6 -4 7 -5 7 -5 0 0zm0 0l0 0 0 0 0 0zm2 -1l10 12 0 0 -1 0 0 0 1 0 -1 0 0 0 0 0 0 0 0 0 0 1 0 0 0 0 0 0 0 0 0 0 0 0 -1 0 0 0 0 0 0 0 0 0 0 0 -1 1 1 -1 0 0 0 0 0 0 0 0 0 0 0 0 0 0 0 1 0 0 -10 -13 0 0 0 0 0 0 0 0 0 0 0 0 0 -1 0 0 1 0 0 0 0 0 0 0 0 0 0 0 0 0 0 0 0 0 0 0 0 0 0 0 0 0 0 0 1 0 -1 0 0 0 0 0 0 0 0 0 0 0 1 -1 0 0 0 1 0 0zm10 12l0 0 0 0 0 0zm3 -3l-3 3 -10 -12 3 -3 12 1 -2 11zm2 -11l4 6 -6 5 2 -11zm-81 -31l7 -14 0 0 2 1 2 1 3 1 2 1 2 1 3 1 2 1 3 2 2 1 3 1 2 1 2 1 3 1 2 1 3 2 2 1 3 1 2 1 3 2 2 1 3 2 2 1 2 2 3 1 2 2 2 2 2 2 2 2 2 2 2 2 2 2 2 2 -13 10 -1 -2 -2 -2 -1 -1 -2 -2 -2 -1 -1 -2 -2 -1 -2 -2 -2 -1 -2 -1 -2 -2 -2 -1 -2 -1 -2 -2 -3 -1 -2 -1 -2 -1 -2 -1 -3 -1 -2 -1 -3 -2 -2 -1 -2 -1 -3 -1 -2 -1 -3 -1 -2 -1 -3 -1 -2 -1 -2 -1 -3 -2 -2 -1 0 0zm0 0l0 0 1 1 -1 -1zm-13 -20l16 0 0 0 0 0 0 0 0 1 0 0 0 0 0 0 1 1 0 0 0 0 0 0 0 0 0 1 0 0 0 0 0 0 0 1 0 0 1 0 0 0 0 0 0 0 0 1 0 0 0 0 1 0 0 0 0 0 0 1 0 0 1 0 0 0 0 0 -7 14 -1 0 0 0 -1 -1 -1 0 0 -1 -1 0 -1 -1 0 0 -1 -1 0 0 -1 -1 0 -1 -1 0 0 -1 -1 0 0 -1 -1 -1 0 0 0 -1 -1 -1 0 -1 0 0 -1 -1 0 -1 0 -1 0 0 0 -1 0 -1 -1 -1 0 -1 0 0 0 -1 0 0zm16 -20l0 20 -16 0 0 -20 2 -5 14 5zm-16 0l0 -3 2 -2 -2 5zm6 -10l13 9 0 0 0 0 0 1 0 0 -1 0 0 0 0 0 0 1 0 0 0 0 0 0 -1 0 0 1 0 0 0 0 0 0 0 0 0 1 -1 0 0 0 0 0 0 0 0 1 0 0 0 0 0 0 -1 0 0 0 0 1 0 0 0 0 0 0 0 0 -13 -10 0 0 0 0 1 0 0 0 0 -1 0 0 0 0 0 0 0 0 0 0 0 -1 0 1 1 -1 0 0 0 0 0 0 0 0 0 0 0 -1 0 0 1 0 0 0 0 0 0 0 0 -1 0 0 0 0 0 0 1 0 0 0 0 -1 0 0 0 0zm0 0l0 0 0 0 0 0zm20 -37l7 15 4 -5 0 1 0 2 -1 1 0 1 -1 1 0 1 -1 2 0 1 -1 1 0 1 -1 1 0 1 -1 2 0 1 -1 1 -1 1 0 1 -1 1 0 1 -1 1 -1 2 0 1 -1 1 -1 1 0 1 -1 1 -1 1 0 1 -1 1 -1 1 0 1 -1 1 -13 -9 1 -1 0 -1 1 -1 0 -1 1 -1 1 0 0 -1 1 -1 0 -1 1 -1 1 -1 0 -1 1 -1 0 -1 1 -1 0 -1 1 -1 0 -1 1 -1 0 -1 1 -1 0 -1 1 -1 0 -1 1 -2 0 -1 0 -1 1 -1 0 -1 1 -1 0 -1 0 -1 4 -5zm-4 5l1 -3 3 -2 -4 5zm14 -19l16 0 0 0 0 1 0 1 0 1 -1 1 0 1 0 2 0 1 -1 1 0 1 0 1 -1 1 0 1 -1 1 0 1 -1 1 0 1 -1 1 0 1 -1 1 -1 1 -1 0 0 1 -1 1 -1 1 -1 1 -1 0 -1 1 -1 0 -1 1 -1 1 -1 0 -1 1 -7 -15 1 0 1 0 0 0 0 -1 1 0 0 0 1 -1 0 0 1 -1 0 0 1 0 0 -1 0 0 1 -1 0 0 0 -1 1 0 0 -1 0 0 0 -1 1 0 0 -1 0 0 0 -1 0 0 0 -1 1 0 0 -1 0 -1 0 0 0 -1 0 0 0 0zm16 -24l0 24 -16 0 0 -24 0 0 16 0zm-22 -16l16 0 -2 -5 0 1 1 0 0 1 1 0 0 1 1 0 0 1 0 1 1 0 0 1 0 1 1 0 0 1 0 0 1 1 0 1 0 0 0 1 0 1 1 0 0 1 0 1 0 1 0 0 0 1 0 1 1 0 0 1 0 1 0 1 0 0 0 1 -16 0 0 0 0 -1 0 0 0 -1 0 0 0 0 0 -1 0 0 -1 0 0 -1 0 0 0 0 0 -1 0 0 0 0 0 -1 0 0 0 0 -1 -1 0 0 0 0 0 -1 0 0 0 0 -1 -1 0 0 0 0 0 0 0 -1 -1 0 0 0 0 -1 -2 -5zm2 5l-2 -2 0 -3 2 5zm14 -36l0 31 -16 0 0 -31 0 -1 16 1zm-16 0l0 0 0 -1 0 1zm-11 -34l12 -10 0 0 2 1 1 2 1 2 2 2 1 2 1 1 1 2 1 2 0 2 1 2 1 1 0 2 1 2 0 1 1 2 0 2 0 1 0 2 1 1 0 2 0 1 0 1 0 1 0 2 0 1 0 1 0 1 0 0 0 1 0 1 0 0 0 1 -16 -2 0 0 0 0 0 -1 0 0 0 -1 0 -1 0 0 0 -1 0 -1 0 -1 0 -1 0 -1 0 -1 0 -1 -1 -1 0 -1 0 -1 0 -2 -1 -1 0 -1 0 -1 -1 -2 0 -1 -1 -1 -1 -2 0 -1 -1 -1 -1 -2 -1 -1 -1 -1 -1 -2 -1 -1 0 0zm12 -10l0 0 -4 -5 4 5zm-65 -8l0 -16 0 0 3 0 2 0 3 0 3 0 2 0 2 1 3 0 2 0 3 1 2 0 2 0 2 1 3 1 2 0 2 1 2 1 2 0 2 1 2 1 2 1 2 1 2 1 1 1 2 1 2 1 1 1 2 2 2 1 1 1 2 2 1 1 1 2 -12 10 -1 -1 -1 -1 -1 -1 -1 -1 -1 -1 -1 -1 -1 -1 -2 -1 -1 0 -1 -1 -2 -1 -1 -1 -2 0 -1 -1 -2 -1 -1 0 -2 -1 -2 -1 -2 0 -1 0 -2 -1 -2 0 -2 -1 -2 0 -2 0 -2 -1 -2 0 -3 0 -2 0 -2 0 -2 0 -3 0 0 0zm-33 15l-7 -15 0 0 1 0 0 -1 1 0 0 0 1 0 0 -1 0 0 1 -1 0 0 1 -1 0 -1 1 0 1 -1 1 -1 1 -1 1 -1 1 0 1 -1 1 -1 2 -1 1 0 2 -1 1 -1 2 0 2 -1 2 0 2 0 3 -1 2 0 3 0 2 0 3 0 0 16 -2 0 -3 0 -2 0 -2 0 -2 0 -1 1 -2 0 -1 0 -1 1 -1 0 -1 0 0 1 -1 0 0 0 -1 0 0 1 -1 0 0 1 -1 0 0 1 -1 0 0 1 -1 0 0 1 -1 1 -1 1 -1 1 -1 0 -1 1 -1 1 -2 1 -1 1 0 0zm-23 5l-12 -11 0 0 2 -1 1 -1 1 -2 1 -1 2 0 1 -1 1 -1 1 -1 2 0 1 0 1 -1 2 0 1 0 1 0 1 0 1 0 1 0 1 0 1 0 0 0 1 0 1 0 0 0 1 0 0 0 0 0 1 0 0 0 0 0 1 0 0 0 0 0 7 15 -1 0 -2 1 -1 0 -1 0 -1 0 -2 0 -1 0 -1 0 -1 0 -1 0 -1 0 0 0 -1 0 -1 0 0 0 -1 0 0 0 -1 0 0 0 0 0 -1 0 0 0 0 0 0 0 -1 0 0 1 -1 0 0 0 -1 1 0 0 -1 1 -1 1 0 0zm-12 -11l0 0 0 0 0 0zm4 43l-16 0 1 1 0 0 -1 -1 0 0 0 -1 0 -1 0 0 0 -1 0 -1 0 -2 0 -1 0 -1 0 -1 0 -2 0 -1 0 -1 0 -2 0 -1 0 -2 1 -2 0 -1 1 -2 0 -2 1 -2 0 -1 1 -2 1 -2 1 -2 1 -2 1 -2 1 -1 2 -2 1 -2 12 11 -1 1 -1 1 -1 1 0 2 -1 1 -1 1 0 1 -1 2 0 1 -1 1 0 1 0 1 -1 1 0 2 0 1 0 1 0 1 0 1 0 1 0 1 0 1 0 1 0 1 0 0 0 1 0 1 0 0 0 1 0 1 0 0 0 1 0 0 0 1zm0 -1l0 1 0 0 0 -1zm-16 32l0 -31 16 0 0 31 -1 5 -15 -5zm16 0l0 3 -1 2 1 -5zm-5 16l-16 0 0 0 0 -1 0 0 0 -1 0 -1 0 -1 0 0 0 -1 0 -1 0 0 0 -1 1 -1 0 -1 0 0 0 -1 0 -1 1 0 0 -1 0 -1 0 0 1 -1 0 0 0 -1 1 -1 0 0 0 -1 1 -1 0 0 1 -1 0 0 1 -1 0 0 0 -1 13 10 -1 1 0 0 0 0 0 0 -1 1 0 0 0 0 0 1 0 0 -1 0 0 1 0 0 0 0 0 1 0 0 0 0 -1 1 0 0 0 0 0 1 0 0 0 0 0 1 0 0 0 0 0 1 0 0 0 0 0 1 0 0 0 1 0 0 0 0zm-16 24l0 -24 16 0 0 24 0 0 -16 0zm24 16l-15 4 2 5 0 -1 -1 -1 -1 0 0 -1 -1 0 0 -1 -1 -1 -1 0 0 -1 -1 -1 0 -1 -1 0 0 -1 0 -1 -1 -1 0 -1 -1 0 0 -1 0 -1 -1 -1 0 -1 0 0 0 -1 -1 -1 0 -1 0 -1 0 -1 0 -1 0 -1 0 -1 0 0 0 -1 16 0 0 0 0 0 0 1 0 0 0 1 0 0 0 1 0 0 0 1 0 0 0 1 0 0 1 0 0 1 0 0 0 1 0 0 1 0 0 1 0 0 0 1 0 0 1 0 0 1 0 0 1 0 0 1 0 0 1 0 0 1 0 0 1 0 2 4zm-2 -4l2 2 0 2 -2 -4zm23 49l-16 0 2 5 -1 -1 0 0 -1 -1 0 -1 -1 -1 0 -1 -1 -1 -1 -1 0 -1 -1 -1 -1 -1 -1 -1 0 -1 -1 -2 -1 -1 -1 -2 -1 -1 0 -2 -1 -1 -1 -2 -1 -1 0 -2 -1 -2 -1 -2 -1 -2 0 -1 -1 -2 -1 -2 0 -2 -1 -2 -1 -2 0 -3 15 -4 1 2 0 2 1 2 0 2 1 1 1 2 0 2 1 1 0 2 1 1 1 2 1 1 0 2 1 1 1 2 0 1 1 1 1 1 0 2 1 1 1 1 0 1 1 1 1 1 0 1 1 0 0 1 1 1 0 1 1 0 0 1 0 0 2 5zm-2 -5l2 2 0 3 -2 -5zm-14 24l0 -19 16 0 0 19 0 0 -16 0zm4 20l-7 -14 0 0 0 0 0 0 0 0 0 0 1 0 0 0 0 -1 0 0 0 0 0 0 1 0 0 0 0 -1 0 0 0 0 0 0 0 0 0 -1 0 0 1 0 0 0 0 0 0 -1 0 0 0 0 0 0 0 -1 0 0 0 0 0 0 0 0 0 -1 16 0 0 1 0 1 0 1 0 0 0 1 0 1 -1 1 0 0 0 1 0 1 0 1 -1 0 0 1 0 1 -1 0 0 1 0 1 -1 0 0 1 -1 1 0 0 -1 1 0 0 -1 1 0 0 -1 1 -1 0 0 1 -1 0 0 1 -1 0 -1 0 0 0zm0 0l0 0 -2 2 2 -2zm-60 15l53 -29 7 14 -53 29 -7 -14 0 0zm0 0l0 0 2 -1 -2 1zm-6 14l-10 12 -1 -12 1 0 0 -1 1 0 0 0 0 -1 1 0 0 -1 1 0 0 -1 1 0 0 -1 1 0 0 0 0 -1 1 0 0 -1 1 0 0 -1 1 0 0 -1 1 0 1 -1 0 0 1 0 0 -1 1 0 0 -1 1 0 1 -1 0 0 1 0 1 -1 7 14 0 0 0 1 -1 0 0 0 -1 0 0 1 0 0 -1 0 0 0 0 1 -1 0 0 0 0 1 -1 0 0 0 -1 1 0 0 0 1 -1 0 0 0 -1 1 0 0 0 1 -1 0 0 0 -1 1 0 0 -1 1 0 0 0 1 -1 0 0 1 -1 -12zm-10 12l-7 -6 6 -6 1 12z"/>
   </g>
   <g>
    <path class="fil1" d="M632 474c68,58 166,66 238,6 1,-1 2,-1 2,-2l4 -3c-16,-21 -47,-30 -71,-42 -5,-3 -8,-8 -8,-13l0 -20c1,-2 3,-4 4,-6 7,-10 13,-21 18,-34 8,-4 13,-12 13,-22l0 -23c0,-6 -2,-12 -5,-16l0 -31c0,-4 1,-23 -13,-39 -12,-14 -32,-22 -59,-22 -31,0 -26,11 -37,16 -9,4 -14,-5 -25,7 -14,16 -10,34 -10,38l0 31c-4,4 -6,10 -6,16l0 23c0,8 4,14 9,19 6,21 17,37 21,43l0 19c0,5 -3,10 -8,13l-53 29c-6,3 -10,8 -14,13z"/>
    <path id="1" class="fil2" d="M865 474l10 12 0 0 -7 6 -7 5 -7 5 -8 4 -8 4 -7 4 -8 3 -8 3 -8 2 -8 2 -9 2 -8 1 -8 1 -8 1 -8 0 -9 0 -8 -1 -8 -1 -8 -1 -8 -1 -8 -2 -8 -3 -8 -2 -8 -3 -8 -3 -8 -4 -7 -4 -7 -4 -8 -5 -7 -5 -7 -5 -7 -5 11 -13 6 6 6 4 7 5 7 4 7 4 7 4 7 3 7 3 7 3 7 2 8 2 7 2 7 1 8 2 7 0 8 1 8 0 7 0 8 -1 7 0 8 -2 7 -1 7 -2 8 -2 7 -3 7 -3 7 -3 7 -4 7 -4 7 -4 7 -5 6 -5 0 0zm0 0l0 0 0 0 0 0zm2 -2l10 13 0 0 0 0 0 0 0 0 0 0 0 0 0 0 0 0 0 0 0 0 -1 0 0 0 0 0 0 0 0 1 0 0 0 -1 0 1 0 0 0 0 0 0 -1 0 1 0 0 0 0 0 0 0 -1 0 0 0 0 0 0 0 0 0 0 0 0 0 -10 -12 1 -1 0 0 0 0 0 0 0 0 0 0 0 0 0 0 0 0 0 0 1 0 -1 0 0 0 0 0 0 0 1 0 0 0 0 -1 0 1 0 0 0 0 0 -1 0 0 0 0 0 0 0 0 0 0 0 0 0 0 0 0 0 0 0 0 0 0zm10 13l0 0 1 -1 -1 1zm4 -3l-4 3 -10 -13 4 -3 11 2 -1 11zm1 -11l5 6 -6 5 1 -11zm-80 -31l7 -14 0 0 2 1 2 1 2 1 3 1 2 1 2 1 3 1 2 1 3 1 2 1 3 2 2 1 3 1 2 1 3 1 2 1 3 2 2 1 2 1 3 2 2 1 3 2 2 1 2 2 2 2 3 1 2 2 2 2 2 2 2 2 1 2 2 3 -13 9 -1 -1 -1 -2 -2 -2 -1 -1 -2 -2 -2 -1 -1 -2 -2 -1 -2 -1 -2 -2 -2 -1 -2 -1 -3 -2 -2 -1 -2 -1 -2 -1 -3 -1 -2 -2 -2 -1 -3 -1 -2 -1 -2 -1 -3 -1 -2 -1 -3 -1 -2 -1 -3 -1 -2 -2 -2 -1 -3 -1 -2 -1 -2 -1 0 0zm0 0l0 0 1 0 -1 0zm-13 -20l16 0 0 0 0 0 0 0 0 0 0 0 0 1 0 0 0 0 0 0 0 1 0 0 0 0 1 0 0 1 0 0 0 0 0 0 0 0 0 1 0 0 0 0 1 0 0 0 0 0 0 1 0 0 1 0 0 0 0 0 0 0 0 0 1 1 0 0 -7 14 -1 0 -1 -1 0 0 -1 -1 -1 0 0 -1 -1 0 -1 -1 0 0 -1 -1 0 0 -1 -1 0 -1 -1 0 0 -1 -1 0 0 -1 0 -1 -1 0 0 -1 0 -1 -1 -1 0 0 0 -1 0 -1 -1 -1 0 -1 0 0 0 -1 0 -1 0 -1 0 0 0 0zm16 -20l0 20 -16 0 0 -20 2 -5 14 5zm-16 0l0 -3 2 -2 -2 5zm6 -10l13 9 0 0 -1 0 0 0 0 0 0 1 0 0 0 0 0 0 -1 1 0 0 0 0 0 0 0 0 0 0 0 1 -1 0 0 0 0 0 0 0 0 1 0 0 0 0 0 0 -1 0 0 0 0 1 0 0 0 0 0 0 0 0 -1 1 0 0 0 0 -12 -10 0 0 0 -1 0 0 0 0 0 0 1 0 0 0 0 0 0 0 0 -1 0 0 0 0 0 0 0 0 0 0 1 -1 0 0 0 0 0 0 0 0 0 0 0 0 0 -1 1 0 0 0 0 0 0 0 0 -1 0 0 0 0 0 0 1 0 0 0zm0 0l0 0 0 0 0 0zm20 -37l7 14 4 -4 0 1 -1 1 0 1 -1 2 0 1 -1 1 0 1 -1 1 0 2 -1 1 0 1 -1 1 0 1 -1 1 0 2 -1 1 -1 1 0 1 -1 1 0 1 -1 1 -1 1 0 1 -1 2 -1 1 0 1 -1 1 -1 1 0 1 -1 1 -1 1 0 1 -13 -9 0 -1 1 -1 0 -1 1 -1 1 -1 0 -1 1 -1 0 -1 1 -1 1 -1 0 -1 1 -1 0 -1 1 -1 0 -1 1 -1 0 -1 1 -1 0 -1 1 -1 0 -1 1 -1 0 -1 1 -1 0 -1 1 -1 0 -1 0 -1 1 -1 0 -1 1 -1 0 -1 4 -5zm-4 5l1 -4 3 -1 -4 5zm13 -20l16 0 0 0 0 1 0 2 0 1 0 1 0 1 0 1 -1 1 0 1 0 1 -1 2 0 1 0 1 -1 1 0 1 -1 1 -1 1 0 0 -1 1 -1 1 0 1 -1 1 -1 1 -1 1 0 0 -1 1 -1 1 -1 0 -1 1 -1 1 -1 0 -1 1 -1 0 -7 -14 1 0 0 -1 1 0 0 0 1 0 0 -1 1 0 0 -1 0 0 1 0 0 -1 1 0 0 -1 0 0 1 -1 0 0 0 -1 1 0 0 0 0 -1 0 -1 0 0 1 -1 0 0 0 -1 0 0 0 -1 0 0 0 -1 0 -1 0 0 0 -1 0 0zm16 -23l0 23 -16 0 0 -23 0 0 16 0zm-21 -16l16 0 -2 -5 0 0 1 1 0 0 0 1 1 1 0 0 1 1 0 0 0 1 1 1 0 0 0 1 1 0 0 1 0 1 0 0 1 1 0 1 0 0 0 1 0 1 1 0 0 1 0 1 0 1 0 0 0 1 0 1 0 0 0 1 0 1 0 1 -16 0 0 -1 0 0 0 0 0 -1 0 0 0 -1 0 0 0 0 0 -1 0 0 0 0 0 -1 0 0 0 0 0 -1 -1 0 0 0 0 -1 0 0 0 0 0 -1 0 0 -1 0 0 -1 0 0 0 0 0 -1 -1 0 0 0 0 0 0 -1 -1 0 -1 -5zm1 5l-1 -2 0 -3 1 5zm15 -36l0 31 -16 0 0 -31 0 -1 16 1zm-16 0l0 -1 0 0 0 1zm-11 -34l12 -11 0 0 1 2 2 2 1 2 1 1 1 2 1 2 1 2 1 2 1 1 1 2 0 2 1 2 0 1 1 2 0 2 1 1 0 2 0 1 0 2 0 1 0 2 1 1 0 1 0 1 0 1 0 1 0 1 0 1 0 1 0 0 0 1 -1 0 -15 -1 0 0 0 -1 0 0 0 -1 0 0 0 -1 0 -1 0 0 0 -1 0 -1 0 -1 -1 -1 0 -1 0 -1 0 -1 0 -2 0 -1 -1 -1 0 -1 0 -2 -1 -1 0 -1 -1 -1 0 -2 -1 -1 -1 -1 0 -2 -1 -1 -1 -1 -1 -2 -1 -1 -1 -1 0 0zm-53 -19l0 -16 0 0 2 0 3 1 3 0 2 0 3 0 2 0 3 1 2 0 2 0 3 1 2 0 2 1 2 0 2 1 3 0 2 1 2 1 2 1 2 1 1 1 2 1 2 1 2 1 2 1 1 1 2 1 2 1 1 2 2 1 1 1 2 2 1 1 -12 11 -1 -1 -1 -1 -1 -1 -1 -1 -1 -1 -2 -1 -1 -1 -1 -1 -1 -1 -2 -1 -1 0 -2 -1 -1 -1 -2 -1 -1 0 -2 -1 -1 0 -2 -1 -2 0 -2 -1 -2 0 -2 -1 -1 0 -2 0 -3 -1 -2 0 -2 0 -2 0 -2 0 -2 -1 -3 0 -2 0 0 0zm-33 15l-7 -14 0 0 1 -1 0 0 0 0 1 0 0 -1 1 0 0 -1 0 0 1 -1 0 0 1 -1 1 -1 0 0 1 -1 1 -1 1 -1 1 -1 1 -1 2 0 1 -1 2 -1 1 0 2 -1 2 -1 2 0 2 0 2 -1 2 0 3 0 2 0 3 -1 3 0 0 16 -3 0 -2 0 -2 1 -2 0 -2 0 -2 0 -1 1 -1 0 -1 0 -1 0 -1 1 -1 0 0 0 -1 1 0 0 -1 0 0 1 -1 0 0 1 -1 0 0 1 -1 0 0 1 -1 1 -1 1 0 0 -1 1 -1 1 -1 1 -2 1 -1 0 -1 1 0 0zm-23 5l-12 -10 0 0 1 -2 2 -1 1 -1 1 -1 1 -1 2 -1 1 0 1 -1 1 0 2 -1 1 0 1 0 1 0 2 0 1 0 1 0 1 0 0 0 1 0 1 0 1 0 0 0 1 0 0 0 1 0 0 0 0 0 1 0 0 0 0 0 1 0 0 0 7 14 -2 1 -1 0 -1 0 -2 1 -1 0 -1 0 -1 0 -1 0 -1 0 -1 0 -1 0 -1 0 0 0 -1 0 -1 0 0 0 -1 -1 0 0 0 1 -1 0 0 0 0 0 0 0 -1 0 0 0 0 0 -1 0 0 1 -1 0 -1 1 0 1 -1 0 0 0zm-12 -10l0 0 0 0 0 0zm4 43l-16 0 0 0 0 0 0 0 0 -1 0 0 0 -1 0 -1 0 -1 0 -1 -1 -1 0 -1 0 -1 0 -2 0 -1 0 -1 1 -2 0 -1 0 -2 0 -1 0 -2 1 -2 0 -2 1 -1 0 -2 1 -2 1 -2 1 -1 1 -2 1 -2 1 -2 1 -2 2 -1 1 -2 12 10 -1 2 -1 1 -1 1 -1 1 0 1 -1 2 -1 1 0 1 -1 1 0 2 0 1 -1 1 0 1 0 1 0 1 0 1 -1 1 0 2 0 1 0 1 0 0 0 1 0 1 0 1 1 1 0 0 0 1 0 1 0 0 0 1 0 0 0 1 0 1zm0 -1l0 0 0 1 0 -1zm-16 32l0 -31 16 0 0 31 -2 5 -14 -5zm16 0l0 3 -2 2 2 -5zm-6 16l-16 0 0 0 0 -1 0 -1 0 -1 0 0 0 -1 1 -1 0 0 0 -1 0 -1 0 -1 0 0 0 -1 1 -1 0 0 0 -1 0 -1 0 0 1 -1 0 -1 0 0 1 -1 0 -1 0 0 1 -1 0 0 0 -1 1 -1 0 0 1 -1 0 0 1 -1 0 0 12 10 0 0 0 1 -1 0 0 0 0 0 0 1 0 0 -1 0 0 1 0 0 0 0 0 1 0 0 -1 0 0 1 0 0 0 0 0 1 0 0 0 0 0 1 0 0 0 0 -1 1 0 0 0 0 0 1 0 0 0 1 0 0 0 0 0 1 0 0zm-16 23l0 -23 16 0 0 23 0 0 -16 0zm25 17l-16 4 3 4 -1 0 0 -1 -1 -1 -1 0 0 -1 -1 0 0 -1 -1 -1 0 -1 -1 0 0 -1 -1 -1 0 -1 -1 0 0 -1 -1 -1 0 -1 0 -1 -1 0 0 -1 0 -1 -1 -1 0 -1 0 -1 0 0 0 -1 0 -1 -1 -1 0 -1 0 -1 0 -1 0 -1 16 0 0 1 0 0 0 1 0 0 0 1 0 0 1 0 0 1 0 0 0 1 0 0 0 1 0 0 0 0 1 1 0 0 0 1 0 0 0 0 1 1 0 0 0 1 0 0 1 0 0 1 0 0 1 0 0 1 0 0 1 0 0 1 0 0 3 4zm-3 -4l2 2 1 2 -3 -4zm24 49l-16 0 1 5 0 -1 -1 -1 0 0 -1 -1 0 -1 -1 -1 0 -1 -1 -1 -1 -1 -1 -1 0 -1 -1 -1 -1 -2 -1 -1 0 -1 -1 -2 -1 -1 -1 -2 0 -1 -1 -2 -1 -2 -1 -2 -1 -1 0 -2 -1 -2 -1 -2 0 -2 -1 -2 -1 -2 0 -2 -1 -2 -1 -2 16 -4 0 2 1 2 0 1 1 2 1 2 0 2 1 1 0 2 1 1 1 2 0 2 1 1 1 1 1 2 0 1 1 1 1 2 0 1 1 1 1 1 0 1 1 1 1 1 0 1 1 1 0 1 1 1 0 0 1 1 0 1 1 0 0 1 2 5zm-2 -5l2 2 0 3 -2 -5zm-14 24l0 -19 16 0 0 19 0 0 -16 0zm4 20l-8 -14 0 0 0 0 1 0 0 0 0 0 0 -1 0 0 0 0 1 0 0 0 0 0 0 -1 0 0 0 0 1 0 0 0 0 -1 0 0 0 0 0 0 0 0 0 -1 0 0 0 0 1 0 0 0 0 -1 0 0 0 0 0 0 0 -1 0 0 0 0 16 0 0 1 0 1 0 0 0 1 -1 1 0 1 0 0 0 1 0 1 -1 1 0 0 0 1 0 1 -1 0 0 1 0 1 -1 0 0 1 -1 0 0 1 -1 1 0 0 -1 1 0 0 -1 1 0 0 -1 1 -1 0 0 1 -1 0 0 1 -1 0 0 0zm0 0l0 0 -2 1 2 -1zm-61 15l53 -29 8 14 -53 29 -8 -14 0 0zm0 0l0 0 1 -1 -1 1zm-5 13l-11 13 0 -12 0 -1 1 0 0 0 1 -1 0 0 1 -1 0 0 0 -1 1 0 0 0 1 -1 0 0 1 -1 0 0 1 -1 0 0 1 -1 0 0 1 -1 0 0 1 0 0 -1 1 0 0 -1 1 0 0 -1 1 0 1 -1 0 0 1 0 1 -1 0 0 8 14 0 0 -1 0 0 1 -1 0 0 0 0 0 -1 1 0 0 0 0 -1 0 0 1 -1 0 0 0 0 1 -1 0 0 0 0 1 -1 0 0 1 -1 0 0 0 0 1 -1 0 0 1 -1 0 0 0 0 1 -1 0 0 1 -1 0 0 1 -1 0 0 -12zm-11 13l-6 -6 6 -6 0 12z"/>
   </g>
   <g>
    <ellipse class="fil3" cx="442" cy="438" rx="250" ry="123"/>
    <g>
     <path class="fil3" d="M442 288c138,0 251,55 251,123 0,68 -113,123 -251,123 -138,0 -250,-55 -250,-123 0,-68 112,-123 250,-123z"/>
     <path id="1" class="fil4" d="M697 411l-9 0 0 0 0 -6 -1 -6 -1 -6 -3 -5 -2 -6 -3 -5 -4 -6 -4 -5 -5 -6 -6 -5 -5 -5 -7 -5 -7 -4 -7 -5 -8 -4 -8 -4 -8 -4 -9 -4 -10 -4 -9 -3 -10 -3 -11 -3 -10 -3 -11 -2 -12 -3 -11 -1 -12 -2 -12 -1 -12 -2 -12 0 -13 -1 -13 0 0 -9 13 1 13 0 13 1 12 1 12 1 12 2 12 2 11 2 12 3 11 2 10 3 11 4 9 3 10 4 9 4 9 4 9 4 8 5 7 5 7 4 7 6 6 5 6 5 5 6 5 6 4 6 4 6 2 6 3 7 2 6 1 7 0 7 0 0zm-255 127l0 -8 0 0 13 -1 13 0 12 -1 12 -1 12 -1 12 -2 11 -2 12 -2 11 -2 10 -3 11 -3 10 -3 9 -4 10 -3 9 -4 8 -4 8 -4 8 -5 7 -4 7 -5 7 -5 5 -5 6 -5 5 -5 4 -5 4 -6 3 -5 2 -6 3 -6 1 -5 1 -6 0 -6 9 0 0 7 -1 6 -2 7 -3 6 -2 7 -4 6 -4 6 -5 6 -5 5 -6 6 -6 5 -7 5 -7 5 -7 5 -8 4 -9 5 -9 4 -9 4 -10 4 -9 3 -11 3 -10 3 -11 3 -12 3 -11 2 -12 2 -12 1 -12 2 -12 1 -13 1 -13 0 -13 0 0 0zm-255 -127l9 0 0 0 0 6 1 6 2 5 2 6 2 6 4 5 3 6 5 5 5 5 5 5 6 5 6 5 7 5 7 4 8 5 8 4 9 4 9 4 9 3 10 4 10 3 10 3 11 3 11 2 11 2 11 2 12 2 12 1 12 1 13 1 12 0 13 1 0 8 -13 0 -13 0 -12 -1 -13 -1 -12 -2 -12 -1 -12 -2 -11 -2 -11 -3 -11 -3 -11 -3 -10 -3 -10 -3 -10 -4 -9 -4 -9 -4 -8 -5 -8 -4 -8 -5 -7 -5 -7 -5 -6 -5 -6 -6 -5 -5 -5 -6 -4 -6 -3 -6 -3 -7 -3 -6 -1 -7 -1 -6 -1 -7 0 0zm255 -128l0 9 0 0 -13 0 -12 1 -13 0 -12 2 -12 1 -12 2 -11 1 -11 3 -11 2 -11 3 -10 3 -10 3 -10 3 -9 4 -9 4 -9 4 -8 4 -8 4 -7 5 -7 4 -6 5 -6 5 -5 5 -5 6 -5 5 -3 6 -4 5 -2 6 -2 5 -2 6 -1 6 0 6 -9 0 1 -7 1 -7 1 -6 3 -7 3 -6 3 -6 4 -6 5 -6 5 -6 6 -5 6 -5 7 -6 7 -4 8 -5 8 -5 8 -4 9 -4 9 -4 10 -4 10 -3 10 -4 11 -3 11 -2 11 -3 11 -2 12 -2 12 -2 12 -1 13 -1 12 -1 13 0 13 -1 0 0z"/>
    </g>
   </g>
   <g>
    <path class="fil1" d="M993 863c-1,-1 -49,-25 -77,-41 -13,-7 -20,-23 -16,-38 4,-14 18,-25 33,-25l54 0c-17,-31 -30,-65 -38,-101 -3,-12 -4,-24 -5,-37 0,-18 -7,-34 -20,-46 -30,-26 -74,-26 -103,0 -13,12 -21,28 -21,46 0,13 -1,25 -4,37 -8,36 -21,70 -38,101l53 0c16,0 30,10 34,25 4,15 -3,31 -16,38 -29,16 -76,40 -78,41 -4,3 -8,6 -10,11l262 0c-2,-5 -6,-9 -10,-11z"/>
    <path id="1" class="fil2" d="M912 829l8 -14 0 0 3 2 2 1 3 2 3 2 3 1 3 2 4 2 3 1 3 2 3 2 3 1 3 2 3 2 4 1 3 2 2 1 3 2 3 1 3 2 2 1 3 1 2 1 2 2 2 1 2 0 2 1 1 1 1 1 1 0 1 0 0 1 0 0 -6 14 -1 0 0 0 -1 -1 -1 0 -1 -1 -2 -1 -1 0 -2 -1 -2 -1 -2 -1 -3 -2 -2 -1 -3 -1 -2 -2 -3 -1 -3 -1 -3 -2 -3 -2 -3 -1 -3 -2 -3 -2 -3 -1 -4 -2 -3 -2 -3 -1 -3 -2 -3 -2 -3 -1 -3 -2 -3 -2 -3 -1 -3 -2 0 0zm8 -14l0 0 0 0 0 0zm-28 -33l16 5 0 0 0 1 -1 1 0 1 0 1 0 1 0 1 0 1 0 1 0 1 0 1 0 1 1 1 0 1 0 1 0 1 1 1 0 1 1 1 0 1 1 1 0 1 1 0 1 1 0 1 1 1 1 1 0 0 1 1 1 1 1 0 1 1 1 0 -8 14 -1 -1 -2 -1 -1 -1 -2 -1 -1 -1 -1 -1 -1 -1 -2 -1 -1 -2 -1 -1 -1 -1 -1 -2 -1 -1 0 -2 -1 -1 -1 -2 0 -1 -1 -2 -1 -2 0 -1 0 -2 -1 -1 0 -2 0 -2 0 -2 0 -1 0 -2 0 -2 0 -1 1 -2 0 -2 0 -2 0 0zm41 -31l0 16 0 0 -1 0 -1 0 -1 0 -1 1 -1 0 -1 0 -1 0 -1 1 -1 0 -1 0 -1 1 -1 0 -1 1 -1 0 -1 1 -1 1 -1 0 0 1 -1 1 -1 0 -1 1 0 1 -1 1 -1 1 0 1 -1 1 0 0 -1 1 0 1 -1 1 0 2 0 1 -16 -5 1 -1 0 -2 1 -2 1 -1 1 -2 0 -1 1 -2 1 -1 1 -2 1 -1 1 -1 1 -2 2 -1 1 -1 1 -1 1 -1 2 -1 1 -1 2 -1 1 -1 2 -1 1 0 2 -1 1 -1 2 0 2 -1 1 0 2 0 2 0 2 -1 1 0 2 0 0 0zm0 16l0 0 0 0 0 0zm54 0l-54 0 0 -16 54 0 7 4 -7 12zm7 -12l7 12 -14 0 7 -12zm-53 -95l16 -3 0 0 0 3 1 3 1 3 1 4 1 3 0 3 1 3 1 3 1 4 1 3 1 3 1 3 1 3 1 3 2 3 1 3 1 3 1 4 1 3 2 3 1 3 1 3 2 3 1 3 1 3 2 3 1 3 2 3 1 3 2 3 1 2 2 3 -14 8 -2 -3 -1 -3 -2 -3 -1 -3 -2 -3 -1 -3 -2 -3 -1 -4 -2 -3 -1 -3 -2 -3 -1 -3 -1 -3 -2 -4 -1 -3 -1 -3 -1 -3 -2 -3 -1 -4 -1 -3 -1 -3 -1 -3 -1 -4 -1 -3 -1 -3 -1 -4 -1 -3 -1 -3 -1 -4 0 -3 -1 -3 -1 -4 0 0zm16 -3l0 0 -1 -1 1 1zm-20 -36l15 0 0 0 0 1 0 1 1 1 0 2 0 1 0 1 0 1 0 1 0 1 0 1 0 1 0 2 0 1 0 1 0 1 1 1 0 1 0 1 0 1 0 1 0 2 0 1 1 1 0 1 0 1 0 1 0 1 1 1 0 1 0 1 0 2 1 1 -16 3 0 -1 -1 -1 0 -1 0 -2 0 -1 -1 -1 0 -1 0 -1 0 -2 0 -1 -1 -1 0 -1 0 -1 0 -2 0 -1 0 -1 0 -1 -1 -2 0 -1 0 -1 0 -1 0 -2 0 -1 0 -1 0 -1 0 -1 0 -2 0 -1 0 -1 0 -1 0 -2 0 -1 0 0zm15 0l0 0 0 0 0 0zm-33 -40l10 -12 0 0 2 1 1 1 1 2 1 1 2 1 1 2 1 1 1 2 1 1 1 2 1 1 1 2 1 2 1 1 1 2 0 1 1 2 1 2 0 2 1 1 0 2 1 2 0 2 1 1 0 2 1 2 0 2 0 2 0 1 0 2 0 2 0 2 -15 0 -1 -1 0 -2 0 -1 0 -2 0 -1 0 -1 0 -2 -1 -1 0 -2 0 -1 -1 -1 0 -2 -1 -1 0 -1 -1 -2 0 -1 -1 -1 0 -2 -1 -1 -1 -1 -1 -1 0 -2 -1 -1 -1 -1 -1 -1 -1 -1 -1 -1 0 -1 -1 -1 -1 -2 -1 -1 -2 -1 1 1zm10 -12l0 0 0 -1 0 1zm-103 11l-11 -11 0 0 4 -3 3 -2 3 -3 3 -2 4 -2 3 -1 4 -2 3 -1 4 -2 4 -1 3 -1 4 0 4 -1 4 0 3 -1 4 0 4 0 4 1 4 0 3 1 4 0 4 1 4 1 3 2 4 1 3 2 4 1 3 2 4 2 3 3 3 2 3 3 -10 12 -3 -3 -3 -1 -2 -2 -3 -2 -3 -2 -3 -1 -2 -1 -3 -1 -3 -1 -3 -1 -3 -1 -3 -1 -3 0 -4 -1 -3 0 -3 0 -3 0 -3 0 -3 1 -3 0 -3 1 -3 1 -3 1 -3 1 -3 1 -3 1 -3 1 -3 2 -2 2 -3 2 -3 1 -2 3 0 -1zm-11 -11l0 0 1 -1 -1 1zm-7 52l-16 0 0 0 0 -2 0 -2 0 -2 1 -1 0 -2 0 -2 0 -2 1 -2 0 -1 1 -2 0 -2 1 -2 0 -1 1 -2 1 -2 0 -2 1 -1 1 -2 1 -1 1 -2 0 -2 1 -1 1 -2 1 -1 2 -2 1 -1 1 -2 1 -1 1 -1 2 -2 1 -1 1 -1 11 11 -1 1 -1 1 -1 2 -1 1 -1 1 -1 1 -1 1 -1 1 0 1 -1 1 -1 2 -1 1 0 1 -1 1 -1 2 0 1 -1 1 0 2 -1 1 0 1 -1 2 0 1 0 1 -1 2 0 1 0 2 0 1 -1 1 0 2 0 1 0 2 0 1 0 0zm-16 0l0 0 0 0 0 0zm12 39l-16 -3 0 0 0 -2 1 -1 0 -1 0 -1 0 -1 0 -1 1 -1 0 -1 0 -1 0 -1 0 -2 1 -1 0 -1 0 -1 0 -1 0 -1 0 -1 0 -1 0 -1 1 -1 0 -2 0 -1 0 -1 0 -1 0 -1 0 -1 0 -1 0 -1 0 -2 0 -1 0 -1 0 -1 16 0 0 1 0 2 0 1 0 1 0 1 0 1 0 2 0 1 0 1 0 1 0 2 -1 1 0 1 0 1 0 2 0 1 0 1 0 1 0 1 -1 2 0 1 0 1 0 1 0 1 -1 2 0 1 0 1 0 1 -1 1 0 2 0 1 0 1 0 0zm-16 -3l0 0 0 0 0 0zm-30 94l0 16 -7 -12 1 -3 2 -3 1 -3 2 -2 1 -3 2 -3 1 -3 2 -3 1 -3 1 -3 2 -3 1 -3 1 -4 2 -3 1 -3 1 -3 1 -3 1 -3 1 -3 1 -3 1 -3 1 -3 1 -4 1 -3 1 -3 1 -3 1 -3 1 -4 1 -3 1 -3 0 -3 1 -3 16 3 -1 3 -1 4 -1 3 -1 4 0 3 -1 3 -1 3 -1 4 -1 3 -1 3 -1 4 -1 3 -2 3 -1 3 -1 4 -1 3 -1 3 -2 3 -1 4 -1 3 -2 3 -1 3 -1 3 -2 3 -1 3 -2 4 -1 3 -2 3 -1 3 -2 3 -2 3 -1 3 -7 -12zm0 16l-14 0 7 -12 7 12zm53 0l-53 0 0 -16 53 0 1 16 -1 0zm1 0l0 0 -1 0 1 0zm40 15l-15 5 0 -1 0 -1 -1 -1 0 -1 -1 -1 0 -1 -1 -1 0 0 -1 -1 0 -1 -1 -1 -1 -1 0 -1 -1 0 -1 -1 -1 -1 0 -1 -1 0 -1 -1 -1 0 -1 -1 -1 0 -1 -1 -1 0 -1 -1 -1 0 -1 0 -1 0 -1 -1 -1 0 -1 0 -1 0 -1 0 -1 -16 2 0 2 0 2 0 1 1 2 0 2 0 2 1 1 0 2 1 1 1 2 0 1 1 2 1 1 1 2 1 1 1 2 1 1 1 1 1 1 1 1 2 2 1 1 1 1 2 0 1 1 2 1 1 1 2 1 1 0 2 1 2 0 1 0 0zm-15 5l0 -1 -1 -3 1 4zm-4 42l-8 -14 0 0 1 0 1 -1 1 -1 0 0 1 -1 1 -1 1 0 0 -1 1 -1 1 -1 0 -1 1 0 0 -1 1 -1 0 -1 1 -1 0 -1 1 -1 0 -1 0 -1 0 -1 0 -1 1 -1 0 -1 0 -1 0 -1 0 -1 0 -1 0 -1 -1 -1 0 -1 0 -1 15 -5 1 2 0 2 0 2 1 1 0 2 0 2 0 1 0 2 -1 2 0 1 0 2 0 2 -1 1 0 2 -1 2 0 1 -1 2 -1 1 -1 2 -1 1 -1 2 -1 1 -1 1 -1 2 -1 1 -1 1 -1 1 -2 1 -1 1 -1 1 -2 1 -1 1 0 0zm-8 -14l0 0 0 0 0 0zm-70 55l-8 -14 0 0 0 0 1 0 1 -1 1 0 1 -1 2 -1 1 0 2 -1 2 -1 2 -1 3 -2 2 -1 3 -1 2 -2 3 -1 3 -2 3 -1 3 -2 3 -1 3 -2 3 -2 4 -1 3 -2 3 -2 3 -1 3 -2 3 -2 3 -1 3 -2 3 -2 3 -1 3 -2 8 14 -3 2 -3 1 -3 2 -3 2 -3 1 -3 2 -3 2 -3 1 -4 2 -3 2 -3 1 -3 2 -3 2 -4 1 -3 2 -3 2 -2 1 -3 2 -3 1 -3 1 -2 2 -2 1 -3 1 -2 1 -2 1 -1 1 -2 0 -1 1 -1 1 -1 0 0 0 -1 1 1 -1zm-8 -14l0 0 0 0 0 0zm-6 10l0 16 -7 -12 0 0 1 -1 0 0 0 -1 0 0 1 -1 0 0 0 -1 1 0 0 -1 0 0 1 -1 0 0 0 -1 1 0 0 -1 1 0 0 0 0 -1 1 0 0 -1 1 0 0 0 1 -1 0 0 1 -1 0 0 1 0 0 -1 1 0 0 0 1 -1 8 14 -1 0 0 1 0 0 0 0 -1 0 0 0 0 0 0 1 0 0 -1 0 0 0 0 0 0 1 0 0 -1 0 0 0 0 0 0 1 0 0 -1 0 0 0 0 0 0 1 0 0 0 0 -1 0 0 1 0 0 0 0 0 0 0 1 0 0 -8 -11zm0 16l-12 0 5 -12 7 12zm262 0l-262 0 0 -16 262 0 8 4 -8 12zm8 -12l5 12 -13 0 8 -12zm-21 0l6 -14 1 0 0 0 1 0 0 1 1 0 0 0 1 1 0 0 1 1 0 0 1 0 0 1 1 0 0 1 1 0 0 0 1 1 0 0 1 1 0 0 0 1 1 0 0 1 1 0 0 1 0 0 1 1 0 0 0 1 1 0 0 1 0 1 1 0 -15 7 0 0 0 0 0 -1 0 0 -1 0 0 0 0 -1 0 0 0 0 0 -1 -1 0 0 0 0 0 0 0 -1 -1 0 0 0 0 0 0 0 -1 -1 0 0 0 0 0 0 0 -1 -1 0 0 0 0 0 0 -1 0 0 -1 0 0 -1 0 0 0 1 0zm6 -14l0 0 1 0 -1 0z"/>
   </g>
   <g>
    <path class="fil1" d="M702 747c0,0 -48,-24 -76,-40 -14,-8 -20,-23 -16,-38 4,-15 17,-25 33,-25l54 0c-18,-32 -31,-66 -39,-101 -2,-12 -4,-25 -4,-37 0,-18 -8,-35 -21,-47 -29,-26 -73,-26 -103,0 -13,12 -20,29 -20,47 0,12 -2,25 -5,37 -7,35 -20,69 -38,101l54 0c16,0 29,10 33,25 4,15 -2,30 -16,38 -28,16 -76,40 -78,41 -4,2 -7,6 -9,10l262 0c-2,-4 -6,-8 -11,-11z"/>
    <path id="1" class="fil2" d="M622 714l7 -14 1 0 2 1 3 2 3 1 3 2 3 2 3 1 3 2 3 2 3 2 4 1 3 2 3 2 3 1 3 2 3 1 3 2 3 1 3 2 2 1 3 2 2 1 3 1 2 1 2 1 2 1 1 1 2 0 1 1 1 1 0 0 1 0 0 0 -7 15 0 -1 -1 0 -1 0 -1 -1 -1 0 -1 -1 -2 -1 -2 -1 -2 -1 -2 -1 -2 -1 -2 -1 -3 -2 -3 -1 -2 -1 -3 -2 -3 -1 -3 -2 -3 -2 -4 -1 -3 -2 -3 -2 -3 -1 -3 -2 -3 -2 -4 -2 -3 -1 -3 -2 -3 -2 -3 -1 -3 -2 -2 -1 0 0zm7 -14l1 0 0 0 -1 0zm-27 -33l15 4 0 0 0 1 0 1 0 1 0 1 -1 1 0 1 0 2 1 1 0 1 0 1 0 1 0 1 0 1 1 1 0 1 0 1 1 0 0 1 1 1 0 1 1 1 1 1 0 1 1 1 1 0 0 1 1 1 1 0 1 1 1 1 1 0 0 1 -7 14 -2 -1 -1 -1 -2 -1 -1 -1 -1 -1 -2 -1 -1 -2 -1 -1 -1 -1 -1 -1 -1 -2 -1 -1 -1 -2 -1 -1 -1 -2 0 -1 -1 -2 0 -1 -1 -2 0 -2 -1 -1 0 -2 0 -2 0 -1 -1 -2 0 -2 1 -1 0 -2 0 -2 0 -2 0 -1 1 -2 0 0zm15 4l0 0 0 2 0 -2zm26 -35l0 16 0 0 -1 0 -1 0 -2 0 -1 0 -1 0 -1 0 -1 1 -1 0 -1 0 -1 1 -1 0 -1 1 -1 0 -1 1 0 0 -1 1 -1 1 -1 0 -1 1 0 1 -1 1 -1 0 0 1 -1 1 -1 1 0 1 -1 1 0 1 -1 1 0 1 0 1 -1 1 -15 -4 0 -2 1 -1 1 -2 0 -2 1 -1 1 -2 1 -1 1 -2 1 -1 1 -1 1 -2 1 -1 1 -1 1 -1 2 -2 1 -1 1 -1 2 -1 1 0 2 -1 1 -1 2 -1 1 0 2 -1 2 -1 1 0 2 0 2 -1 1 0 2 0 2 0 2 0 0 0zm0 16l0 0 0 0 0 0zm54 0l-54 0 0 -16 54 0 7 4 -7 12zm7 -12l6 12 -13 0 7 -12zm-53 -95l15 -4 0 0 1 3 1 4 0 3 1 3 1 3 1 4 1 3 1 3 1 3 1 3 1 3 1 3 1 4 1 3 1 3 1 3 2 3 1 3 1 3 1 3 2 3 1 3 1 3 2 3 1 3 1 3 2 3 1 3 2 3 1 3 2 3 2 3 -14 8 -2 -3 -2 -3 -1 -4 -2 -3 -1 -3 -2 -3 -1 -3 -2 -3 -1 -3 -2 -3 -1 -3 -1 -4 -2 -3 -1 -3 -1 -3 -2 -3 -1 -4 -1 -3 -1 -3 -1 -3 -1 -4 -1 -3 -1 -3 -1 -4 -1 -3 -1 -3 -1 -4 -1 -3 -1 -3 -1 -4 -1 -3 0 -3 0 0zm15 -4l0 0 0 0 0 0zm-20 -35l16 0 0 0 0 1 0 1 0 1 0 1 0 1 0 1 0 1 0 2 0 1 0 1 1 1 0 1 0 1 0 1 0 1 0 2 0 1 0 1 0 1 1 1 0 1 0 1 0 1 0 1 1 2 0 1 0 1 0 1 0 1 1 1 0 1 0 1 -15 4 -1 -1 0 -2 0 -1 0 -1 -1 -1 0 -1 0 -2 0 -1 -1 -1 0 -1 0 -2 0 -1 0 -1 0 -1 -1 -1 0 -2 0 -1 0 -1 0 -1 0 -2 0 -1 0 -1 -1 -1 0 -1 0 -2 0 -1 0 -1 0 -1 0 -2 0 -1 0 -1 0 -1 0 0zm16 0l0 0 0 0 0 0zm-34 -41l11 -12 0 0 1 2 1 1 2 1 1 2 1 1 1 1 2 2 1 1 1 2 1 1 1 2 1 1 0 2 1 2 1 1 1 2 1 2 0 1 1 2 0 2 1 2 1 1 0 2 0 2 1 2 0 1 0 2 1 2 0 2 0 2 0 2 0 2 -16 0 0 -2 0 -1 0 -2 0 -1 0 -2 -1 -1 0 -1 0 -2 -1 -1 0 -2 0 -1 -1 -1 0 -2 -1 -1 0 -1 -1 -2 0 -1 -1 -1 -1 -1 0 -2 -1 -1 -1 -1 -1 -1 0 -1 -1 -2 -1 -1 -1 -1 -1 -1 -1 -1 -1 -1 -1 -1 -1 -1 0 0zm11 -12l0 0 0 0 0 0zm-103 12l-11 -12 0 0 3 -2 3 -3 4 -2 3 -2 3 -2 4 -2 3 -1 4 -2 4 -1 3 -1 4 -1 4 -1 3 0 4 -1 4 0 4 0 4 0 3 0 4 1 4 0 4 1 3 1 4 1 4 1 3 2 4 1 3 2 4 2 3 2 3 2 4 3 3 2 -11 12 -2 -2 -3 -2 -3 -2 -2 -1 -3 -2 -3 -1 -3 -2 -3 -1 -3 -1 -3 -1 -3 -1 -3 0 -3 -1 -3 0 -3 0 -3 0 -3 0 -3 0 -3 0 -4 1 -3 0 -3 1 -3 1 -3 1 -2 1 -3 2 -3 1 -3 2 -3 1 -2 2 -3 2 -3 2 1 0zm-11 -12l0 0 0 0 0 0zm-7 53l-16 0 0 0 0 -2 0 -2 0 -2 0 -2 0 -2 1 -2 0 -1 0 -2 1 -2 0 -2 1 -1 0 -2 1 -2 0 -2 1 -1 1 -2 1 -2 0 -1 1 -2 1 -2 1 -1 1 -2 1 -1 1 -2 1 -1 1 -2 1 -1 2 -1 1 -2 1 -1 1 -1 2 -2 11 12 -1 1 -1 1 -1 1 -1 1 -1 1 -1 1 -1 1 -1 2 -1 1 -1 1 0 1 -1 1 -1 2 0 1 -1 1 -1 1 0 2 -1 1 0 1 -1 2 0 1 0 1 -1 2 0 1 0 2 -1 1 0 1 0 2 0 1 0 2 0 1 0 2 0 0zm-16 0l0 0 0 0 0 0zm11 39l-15 -4 0 0 0 -1 0 -1 0 -1 1 -1 0 -1 0 -1 0 -2 0 -1 1 -1 0 -1 0 -1 0 -1 0 -1 0 -1 1 -1 0 -2 0 -1 0 -1 0 -1 0 -1 0 -1 0 -1 0 -1 0 -1 0 -2 1 -1 0 -1 0 -1 0 -1 0 -1 0 -1 0 -1 16 0 0 1 0 1 0 1 0 2 0 1 -1 1 0 1 0 1 0 2 0 1 0 1 0 1 0 2 0 1 0 1 0 1 -1 1 0 2 0 1 0 1 0 1 0 2 -1 1 0 1 0 1 0 1 0 2 -1 1 0 1 0 1 0 1 -1 2 0 0zm-15 -4l0 0 -1 2 1 -2zm-31 95l0 16 -7 -12 2 -3 1 -3 2 -3 1 -3 2 -3 1 -3 2 -3 1 -3 2 -3 1 -3 1 -3 2 -3 1 -3 1 -3 1 -3 1 -3 2 -3 1 -3 1 -4 1 -3 1 -3 1 -3 1 -3 1 -3 1 -3 1 -4 1 -3 1 -3 0 -3 1 -3 1 -4 1 -3 15 4 -1 3 0 3 -1 4 -1 3 -1 3 -1 4 -1 3 -1 3 -1 4 -1 3 -1 3 -1 3 -1 4 -1 3 -1 3 -2 3 -1 4 -1 3 -1 3 -2 3 -1 3 -1 4 -2 3 -1 3 -2 3 -1 3 -2 3 -1 3 -2 3 -2 3 -1 3 -2 4 -7 -12zm0 16l-13 0 6 -12 7 12zm54 0l-54 0 0 -16 54 0 0 16 0 0zm0 0l0 0 0 0 0 0zm41 15l-16 4 0 0 0 -1 0 -1 -1 -1 0 -1 0 -1 -1 -1 -1 -1 0 -1 -1 -1 0 -1 -1 0 -1 -1 -1 -1 0 -1 -1 0 -1 -1 -1 -1 -1 0 -1 -1 0 0 -1 -1 -1 0 -1 -1 -1 0 -1 0 -1 -1 -1 0 -2 0 -1 0 -1 0 -1 0 -1 0 0 -16 2 0 2 0 1 0 2 0 2 1 1 0 2 0 2 1 1 0 2 1 2 1 1 1 2 0 1 1 1 1 2 1 1 1 1 1 2 2 1 1 1 1 1 1 1 2 1 1 1 2 1 1 1 2 0 1 1 2 1 1 0 2 1 2 0 0zm-16 4l0 0 1 2 -1 -2zm-4 43l-8 -14 0 0 1 -1 1 0 1 -1 1 -1 1 0 0 -1 1 -1 1 -1 1 0 0 -1 1 -1 0 -1 1 -1 0 -1 1 -1 0 -1 1 -1 0 0 0 -1 1 -1 0 -1 0 -2 0 -1 0 -1 0 -1 0 -1 0 -1 0 -1 0 -1 0 -1 0 -1 -1 -1 16 -4 0 2 1 1 0 2 0 2 0 1 0 2 0 2 0 2 0 1 0 2 0 2 -1 1 0 2 -1 2 0 1 -1 2 -1 1 0 2 -1 1 -1 2 -1 1 -1 1 -1 2 -1 1 -1 1 -1 1 -2 2 -1 1 -1 1 -2 1 -1 1 -2 1 0 0zm-8 -14l0 0 1 0 -1 0zm-70 55l-8 -14 1 0 0 0 0 -1 1 0 1 -1 2 0 1 -1 2 -1 2 -1 2 -1 2 -1 2 -1 3 -1 2 -2 3 -1 3 -2 3 -1 3 -2 3 -1 3 -2 3 -2 3 -1 3 -2 3 -2 4 -1 3 -2 3 -2 3 -1 3 -2 3 -2 3 -1 3 -2 2 -1 8 14 -3 1 -2 2 -3 1 -3 2 -3 2 -4 1 -3 2 -3 2 -3 2 -3 1 -4 2 -3 2 -3 1 -3 2 -3 1 -3 2 -3 2 -3 1 -2 1 -3 2 -3 1 -2 1 -2 1 -2 1 -2 1 -2 1 -1 1 -1 1 -1 0 -1 1 -1 0 0 0 0 0zm-8 -14l0 0 1 0 -1 0zm-5 9l0 16 -7 -11 0 -1 0 0 0 -1 1 0 0 -1 0 0 1 -1 0 0 0 -1 1 0 0 -1 0 0 1 -1 0 0 0 -1 1 0 0 0 1 -1 0 0 1 -1 0 0 0 -1 1 0 0 0 1 -1 0 0 1 0 0 -1 1 0 0 0 1 -1 0 0 8 14 0 0 0 0 -1 0 0 0 0 1 0 0 0 0 -1 0 0 0 0 0 0 1 -1 0 0 0 0 0 0 0 0 1 -1 0 0 0 0 0 0 1 0 0 0 0 -1 0 0 0 0 1 0 0 0 0 0 0 0 1 -1 0 0 0 0 0 -7 -11zm0 16l-12 0 5 -11 7 11zm262 0l-262 0 0 -16 262 0 7 5 -7 11zm7 -11l6 11 -13 0 7 -11zm-21 0l7 -15 0 0 1 1 0 0 1 0 0 1 1 0 1 0 0 1 0 0 1 0 1 1 0 0 0 1 1 0 0 1 1 0 0 0 1 1 0 0 1 1 0 0 0 1 1 0 0 1 1 0 0 1 0 0 1 1 0 0 0 1 1 1 0 0 0 1 -14 7 0 -1 -1 0 0 0 0 0 0 -1 0 0 0 0 -1 0 0 -1 0 0 0 0 0 0 0 -1 -1 0 0 0 0 0 0 -1 -1 0 0 0 0 0 0 -1 -1 0 0 0 0 0 0 0 -1 -1 0 0 0 0 0 0 -1 0 0 0 0 -1 0 1zm7 -15l0 0 0 0 0 0z"/>
   </g>
   <g>
    <ellipse class="fil3" cx="596" cy="860" rx="250" ry="123"/>
    <g>
     <path class="fil3" d="M596 710c138,0 250,55 250,123 0,68 -112,123 -250,123 -138,0 -250,-55 -250,-123 0,-68 112,-123 250,-123z"/>
     <path id="1" class="fil4" d="M851 833l-9 0 0 0 0 -6 -1 -6 -2 -5 -2 -6 -2 -6 -3 -5 -4 -6 -5 -5 -4 -5 -6 -5 -6 -5 -6 -5 -7 -5 -7 -4 -8 -5 -8 -4 -8 -4 -9 -4 -10 -3 -9 -4 -10 -3 -11 -3 -10 -3 -11 -2 -12 -2 -11 -2 -12 -2 -12 -1 -12 -1 -13 -1 -12 -1 -13 0 0 -8 13 0 13 0 13 1 12 1 12 2 12 1 12 2 11 2 12 3 11 3 10 3 10 3 10 3 10 4 9 4 9 4 8 4 9 5 7 5 7 5 7 5 6 5 6 6 5 5 5 6 4 6 3 6 3 7 3 6 1 7 1 6 1 7 0 0zm-255 128l0 -9 0 0 13 0 12 -1 13 -1 12 -1 12 -1 12 -2 11 -2 12 -2 11 -2 10 -3 11 -3 10 -3 9 -3 10 -4 9 -4 8 -4 8 -4 8 -4 7 -5 7 -5 6 -4 6 -5 6 -6 5 -5 4 -5 4 -6 3 -5 2 -6 2 -5 2 -6 1 -6 0 -6 9 0 -1 7 -1 7 -1 6 -3 7 -3 6 -3 6 -4 6 -5 6 -5 6 -6 5 -6 5 -7 5 -7 5 -7 5 -9 5 -8 4 -9 4 -9 4 -10 4 -10 3 -10 4 -10 3 -11 2 -12 3 -11 2 -12 2 -12 2 -12 1 -12 1 -13 1 -13 0 -13 1 0 0zm-255 -128l9 0 0 0 0 6 1 6 2 6 2 5 2 6 4 5 3 6 5 5 4 5 6 6 6 5 6 4 7 5 7 5 8 4 8 4 8 4 9 4 10 4 9 3 10 3 11 3 11 3 10 2 12 2 11 2 12 2 12 1 12 1 13 1 12 1 13 0 0 9 -13 -1 -13 0 -12 -1 -13 -1 -12 -1 -12 -2 -12 -2 -11 -2 -11 -3 -11 -2 -11 -3 -10 -4 -10 -3 -10 -4 -9 -4 -9 -4 -8 -4 -8 -5 -8 -5 -7 -5 -7 -5 -6 -5 -6 -5 -5 -6 -5 -6 -4 -6 -3 -6 -3 -6 -3 -7 -1 -6 -1 -7 -1 -7 0 0zm255 -127l0 8 0 0 -13 0 -12 1 -13 1 -12 1 -12 1 -12 2 -11 2 -12 2 -10 2 -11 3 -11 3 -10 3 -9 4 -10 3 -9 4 -8 4 -8 4 -8 5 -7 4 -7 5 -6 5 -6 5 -6 5 -4 5 -5 5 -3 6 -4 5 -2 6 -2 6 -2 5 -1 6 0 6 -9 0 1 -7 1 -6 1 -7 3 -6 3 -7 3 -6 4 -6 5 -6 5 -5 6 -6 6 -5 7 -5 7 -5 8 -5 8 -5 8 -4 9 -4 9 -4 10 -4 10 -3 10 -3 11 -3 11 -3 11 -3 11 -2 12 -2 12 -1 12 -2 13 -1 12 -1 13 0 13 0 0 0z"/>
    </g>
   </g>
  </g>
 </g>
</svg>
