<svg width="28" height="23" viewBox="0 0 28 23" fill="none" xmlns="http://www.w3.org/2000/svg">
<path fill-rule="evenodd" clip-rule="evenodd" d="M19.2626 0.612305C20.9349 0.612305 20.9349 1.21125 20.9349 2.40915V7.79968H25.952C27.0669 7.79968 27.6243 7.79968 27.6243 9.59653C27.6243 10.7944 27.0669 11.3934 25.952 11.3934H20.9349V16.7839C20.9349 17.9818 20.9349 18.5807 19.2626 18.5807C18.1477 18.5807 17.5902 17.9818 17.5902 16.7839V11.3934H12.5732C11.4583 11.3934 10.9009 10.7944 10.9009 9.59653C10.9009 7.79968 11.4583 7.79968 12.5732 7.79968H17.5902V2.40915C17.5902 1.21125 18.1477 0.612305 19.2626 0.612305Z" fill="#C8C8C8"/>
<path d="M15.2713 13.7891H0.866821V17.1078H15.2713V13.7891Z" fill="#C8C8C8"/>
<path d="M15.2713 19.3296H0.866821V22.6484H15.2713V19.3296Z" fill="#C8C8C8"/>
<path d="M9.78598 8.09912H0.866821V11.4179H9.78598V8.09912Z" fill="#C8C8C8"/>
</svg>
