<svg width="16" height="14" viewBox="0 0 16 14" fill="none" xmlns="http://www.w3.org/2000/svg">
<path d="M11.011 2.27279L13.478 4.7398C13.5279 4.78984 13.5559 4.85763 13.5559 4.9283C13.5559 4.99896 13.5279 5.06675 13.478 5.1168L7.5 11.0928L4.962 11.3748C4.88262 11.3837 4.80225 11.3746 4.72686 11.3482C4.65146 11.3218 4.58299 11.2788 4.5265 11.2223C4.47002 11.1658 4.42698 11.0973 4.40058 11.0219C4.37418 10.9465 4.36509 10.8662 4.374 10.7868L4.66 8.2458L10.633 2.27279C10.6578 2.24794 10.6873 2.22822 10.7197 2.21477C10.7521 2.20131 10.7869 2.19439 10.822 2.19439C10.8571 2.19439 10.8919 2.20131 10.9243 2.21477C10.9567 2.22822 10.9862 2.24794 11.011 2.27279ZM15.442 1.64679L14.107 0.311795C13.9065 0.112111 13.635 0 13.352 0C13.069 0 12.7975 0.112111 12.597 0.311795L11.629 1.27979C11.5791 1.32984 11.5511 1.39763 11.5511 1.46829C11.5511 1.53896 11.5791 1.60675 11.629 1.65679L14.1 4.1238C14.15 4.17369 14.2178 4.2017 14.2885 4.2017C14.3592 4.2017 14.427 4.17369 14.477 4.1238L15.445 3.1558C15.6447 2.95526 15.7568 2.68379 15.7568 2.40079C15.7568 2.1178 15.6447 1.84633 15.445 1.64579L15.442 1.64679ZM10.5 9.46579V12.2498H1.75V3.49279H8.035C8.1224 3.49091 8.20562 3.45504 8.267 3.3928L9.362 2.3078C9.40825 2.26198 9.43981 2.20343 9.45267 2.13962C9.46554 2.0758 9.45913 2.0096 9.43425 1.94945C9.40937 1.88929 9.36715 1.83789 9.31297 1.8018C9.25879 1.76572 9.1951 1.74657 9.13 1.74679H1.313C0.964771 1.74679 0.630804 1.88513 0.384569 2.13136C0.138334 2.3776 0 2.71157 0 3.05979L0 12.6868C0 12.8592 0.0339617 13.03 0.0999462 13.1893C0.165931 13.3486 0.262645 13.4933 0.384569 13.6152C0.506492 13.7371 0.651236 13.8339 0.810537 13.8998C0.969837 13.9658 1.14057 13.9998 1.313 13.9998H10.94C11.1124 13.9998 11.2832 13.9658 11.4425 13.8998C11.6018 13.8339 11.7465 13.7371 11.8684 13.6152C11.9904 13.4933 12.0871 13.3486 12.1531 13.1893C12.219 13.03 12.253 12.8592 12.253 12.6868V8.37179C12.2527 8.30691 12.2333 8.24355 12.1972 8.18968C12.161 8.13581 12.1097 8.09384 12.0497 8.06904C11.9898 8.04424 11.9238 8.03773 11.8602 8.05032C11.7965 8.06291 11.738 8.09404 11.692 8.1398L10.6 9.23279C10.5375 9.29442 10.5016 9.37805 10.5 9.46579Z" fill="#C8C8C8"/>
</svg>
