<svg width="12" height="12" viewBox="0 0 12 12" fill="none" xmlns="http://www.w3.org/2000/svg">
<path d="M6 12C4.57934 12 3.20142 11.4946 2.12009 10.5769C1.86619 10.3615 1.62802 10.1228 1.41225 9.86728C0.501492 8.78775 0 7.41438 0 6C0 4.39732 0.624094 2.89059 1.75734 1.75734C2.89059 0.624094 4.39732 0 6 0C7.60268 0 9.10941 0.624094 10.2427 1.75734C11.3759 2.89059 12 4.39732 12 6C12 7.41441 11.4985 8.78777 10.5879 9.86714C10.372 10.1227 10.1338 10.3615 9.87984 10.5769C8.79858 11.4946 7.42066 12 6 12ZM6 0.75C3.10514 0.75 0.75 3.10514 0.75 6C0.75 7.23762 1.18873 8.43923 1.98537 9.38351C2.17427 9.60717 2.38289 9.8163 2.60531 10.005C3.55134 10.8079 4.7569 11.25 6 11.25C7.2431 11.25 8.44866 10.8079 9.39462 10.005C9.61711 9.81631 9.82573 9.60715 10.0147 9.38334C10.8113 8.43926 11.25 7.23764 11.25 6C11.25 3.10514 8.89486 0.75 6 0.75Z" fill="#BDBDBD"/>
<path d="M6 6C4.75934 6 3.75 4.99066 3.75 3.75C3.75 2.50934 4.75934 1.5 6 1.5C7.24066 1.5 8.25 2.50934 8.25 3.75C8.25 4.99066 7.24066 6 6 6ZM6 2.25C5.17289 2.25 4.5 2.92289 4.5 3.75C4.5 4.57711 5.17289 5.25 6 5.25C6.82711 5.25 7.5 4.57711 7.5 3.75C7.5 2.92289 6.82711 2.25 6 2.25Z" fill="#BDBDBD"/>
<path d="M9.63755 10.666C9.60731 10.666 9.57661 10.6624 9.54595 10.6547C9.34509 10.6043 9.22312 10.4005 9.27354 10.1996C9.34085 9.93145 9.375 9.654 9.375 9.375C9.375 7.5402 7.8833 6.02658 6.04938 6.00023L6 6L5.95062 6.00023C4.1167 6.02658 2.625 7.5402 2.625 9.375C2.625 9.654 2.65915 9.93145 2.72646 10.1996C2.77688 10.4005 2.65491 10.6043 2.45405 10.6547C2.25319 10.7051 2.04945 10.5831 1.99903 10.3823C1.91672 10.0544 1.875 9.7155 1.875 9.375C1.875 8.28333 2.29727 7.2543 3.06403 6.47742C3.83004 5.70131 4.85196 5.26552 5.94155 5.25028C5.9433 5.25026 5.94504 5.25026 5.9468 5.25026L6 5.25L6.0532 5.25023C6.05496 5.25023 6.05669 5.25023 6.05845 5.25026C7.14804 5.26547 8.16996 5.70129 8.93597 6.4774C9.70273 7.2543 10.125 8.28333 10.125 9.375C10.125 9.7155 10.0833 10.0544 10.001 10.3823C9.95824 10.5525 9.80543 10.666 9.63755 10.666Z" fill="#BDBDBD"/>
</svg>
