<svg width="10" height="10" viewBox="0 0 10 10" fill="none" xmlns="http://www.w3.org/2000/svg">
<path d="M9.65938 9.01367L6.61602 5.97031C7.08828 5.35977 7.34375 4.61328 7.34375 3.82813C7.34375 2.88828 6.97695 2.00703 6.31367 1.34258C5.65039 0.678125 4.7668 0.3125 3.82813 0.3125C2.88945 0.3125 2.00586 0.679297 1.34258 1.34258C0.678125 2.00586 0.3125 2.88828 0.3125 3.82813C0.3125 4.7668 0.679297 5.65039 1.34258 6.31367C2.00586 6.97813 2.88828 7.34375 3.82813 7.34375C4.61328 7.34375 5.35859 7.08828 5.96914 6.61719L9.0125 9.65938C9.02143 9.66831 9.03202 9.67539 9.04368 9.68022C9.05535 9.68505 9.06785 9.68754 9.08047 9.68754C9.09309 9.68754 9.10559 9.68505 9.11726 9.68022C9.12892 9.67539 9.13951 9.66831 9.14844 9.65938L9.65938 9.14961C9.66831 9.14069 9.67539 9.13009 9.68022 9.11843C9.68505 9.10677 9.68754 9.09427 9.68754 9.08164C9.68754 9.06902 9.68505 9.05652 9.68022 9.04486C9.67539 9.03319 9.66831 9.0226 9.65938 9.01367ZM5.68438 5.68438C5.1875 6.18008 4.52891 6.45313 3.82813 6.45313C3.12734 6.45313 2.46875 6.18008 1.97188 5.68438C1.47617 5.1875 1.20313 4.52891 1.20313 3.82813C1.20313 3.12734 1.47617 2.46758 1.97188 1.97188C2.46875 1.47617 3.12734 1.20313 3.82813 1.20313C4.52891 1.20313 5.18867 1.475 5.68438 1.97188C6.18008 2.46875 6.45313 3.12734 6.45313 3.82813C6.45313 4.52891 6.18008 5.18867 5.68438 5.68438Z" fill="#1485CB"/>
</svg>
