<svg xmlns="http://www.w3.org/2000/svg" width="48" height="42" shape-rendering="geometricPrecision" text-rendering="geometricPrecision" image-rendering="optimizeQuality" fill-rule="evenodd" clip-rule="evenodd"><defs><style>.fil0{fill:#fefefe}.fil6{fill:#fff8af}.fil2{fill:#2887d2}.fil1,.fil10,.fil9{fill:#ffcc29;fill-rule:nonzero}.fil1,.fil9{fill:#000}.fil1{fill:#2887d2}</style></defs><g id="Layer_x0020_1"><g id="_306940312"><path class="fil0" d="M2 5v29h11c3 0 9 0 10 2V10 6C22 3 6 2 2 5z"/><path id="1" class="fil1" d="M2 35V5h1v30H2zm0 0zm0 0h1-1zm0 0zm0 0h1l-1 1v-1h1-1zm1 0v1H2l1-1zm-1-7h1v7H2v-7zm0-8h1v8H2v-8zM3 5H2h1v15H2V5h1zM2 6V5h1v1H2zm0 0zm0 28V6h1v28H2zm0 0zm11-1v1H2v-1h11zm9 2l1 1h-1v-1h-3v-1h-6v-1h5l1 1h3l1 1h-1zm1 1v1l-1-1h1zm-1-1h1v1l-1-1zm1-25v25h-1V10h1zm-1-4h1v4h-1V6zm1 0zM3 5H2V4h2V3h15v1h3v1h1v1h-1V5h-2l-1-1H4v1H3zM2 5V4v1z"/><path class="fil0" d="M25 6v30c1-2 7-2 10-2h11V6h1c-2-3-20-4-22 0z"/><path id="1" class="fil1" d="M25 6h1-1zm0 0zm1 15h-1V6h1v15zm-1 15h1-1V21h1v15-1l-1 1zm1 0l-1 1v-1h1zm9-3v1h-5v1h-4v1h-1v-1h1v-1h4l1-1h4zm10 1h1-11v-1h11l-1 1zm1 0zm0-28v28h-1V6h1zm-1 0h1-1zm2 0h-1 1zm0 0h1-1zm-1 0h1-1 1-1 1-1 1-1 1-1 1-1 1-1 1-1 1-1 1-1zm0 0zM26 6h-1V5l1-1h2l1-1h11l1 1h4l1 1h1v1h-2V5h-4V4H29l-1 1h-2v1zm-1 0V5v1z"/><path class="fil2" d="M0 36h21c0 1 0 1 1 2h2c2 0 3-2 3-2h21V6l-2-1v29H35c-3 0-9 0-10 2h-2c-1-3-7-2-10-2H2V5L0 6v30z"/><path d="M23 36h2V21 6h-2v30z" fill="#1cc8eb"/><g><rect x="4" y="10" width="12.283" height="18.305" rx="1" ry="2" fill="#0098da"/><path d="M6 12h9v3H6v-3z" fill="#b8e5fa"/><g id="_306914440"><path class="fil6" d="M14 16h1.48v1.779H14zM11 16h1.48v1.779H11zM8 16h1.48v1.779H8zM6 16h1.48v1.779H6zM14 20h1.48v1.779H14zM11 20h1.48v1.779H11zM8 20h1.48v1.779H8zM6 20h1.48v1.779H6z"/><path fill="#ed3237" d="M11 24h3.998v1.779H11z"/><path class="fil6" d="M8 24h1.48v1.779H8zM6 24h1.48v1.779H6z"/></g></g><g><g id="_306942088"><path class="fil1" d="M44 12H28v-1h16zM36 31V12v19z"/><path class="fil2" d="M37 14h6.604v.942H37zM37 16h6.604v.942H37zM37 19h6.604v.942H37zM28 21h6.604v.942H28zM37 21h6.604v.942H37zM28 14h6.604v.942H28zM28 16h6.604v.942H28zM28 19h6.604v.942H28zM28 24h6.604v.942H28zM37 24h6.604v.942H37zM28 27h6.604v.942H28zM37 27h6.604v.942H37zM28 29h6.604v.942H28zM37 29h6.604v.942H37z"/></g><path class="fil1" d="M31 11V8h2v2h-1v1h-1zm0-3v2h1V9c0-1 0-1-1-1zM42 10h-1v1c-1 0-1 0-1-1V9 8h1c1 0 1 1 1 1h-1V8c-1 0-1 0-1 1v1h2z"/></g><g><path d="M19 39v2-1-1z"/><path class="fil9" d="M20 40h-1l-1-4v1h2s1 0 1-1l-1 4z"/><path class="fil10" d="M20 38v-1h-2v-1l1 4h1v-1-1z"/><path class="fil9" d="M21 3h-2V1 0h2v3z"/><path class="fil10" d="M20 2V0h-1v3h2V2h-1z"/><path d="M20 37h-2V4s0-1 1-1h2v33c0 1 0 1-1 1z" fill="#606062" fill-rule="nonzero"/><path class="fil9" d="M20 35c-1 0-1 0-1-1l1-31h-1c-1 0-1 1-1 1v33h2c1 0 1 0 1-1v-1h-1z"/><path class="fil10" d="M18 27h3v5h-3z"/><path class="fil10" d="M18 32v-5h1v5zM18 4h3v23h-3z"/><path class="fil9" d="M18 4v23h1V4z"/><path d="M20 3h3v5c-1 1-1 1-1 0V4h-2V3z"/></g></g></g></svg>