<?xml version="1.0" encoding="UTF-8"?>
<!DOCTYPE svg PUBLIC "-//W3C//DTD SVG 1.1//EN" "http://www.w3.org/Graphics/SVG/1.1/DTD/svg11.dtd">
<!-- Creator: CorelDRAW X7 -->
<svg xmlns="http://www.w3.org/2000/svg" xml:space="preserve" width="120px" height="120px" version="1.1" style="shape-rendering:geometricPrecision; text-rendering:geometricPrecision; image-rendering:optimizeQuality; fill-rule:evenodd; clip-rule:evenodd"
viewBox="0 0 120 120"
 xmlns:xlink="http://www.w3.org/1999/xlink">
 <defs>
  <style type="text/css">
   <![CDATA[
    .fil0 {fill:none}
    .fil7 {fill:#A53235}
    .fil4 {fill:#B8E5FA}
    .fil3 {fill:#2887D2}
    .fil6 {fill:whitesmoke}
    .fil5 {fill:#FA0303}
    .fil2 {fill:#FEFEFE;fill-rule:nonzero}
    .fil11 {fill:#FFF212;fill-rule:nonzero}
    .fil8 {fill:#00A859;fill-rule:nonzero}
    .fil9 {fill:#04870F;fill-rule:nonzero}
    .fil1 {fill:#2887D2;fill-rule:nonzero}
    .fil10 {fill:url(#id0)}
   ]]>
  </style>
  <linearGradient id="id0" gradientUnits="userSpaceOnUse" x1="48.7439" y1="82.2772" x2="70.0868" y2="76.8653">
   <stop offset="0" style="stop-opacity:1; stop-color:#04870F"/>
   <stop offset="1" style="stop-opacity:1; stop-color:#03690C"/>
  </linearGradient>
 </defs>
 <g id="Layer_x0020_1">
  <metadata id="CorelCorpID_0Corel-Layer"/>
  <rect class="fil0" width="120" height="120"/>
  <g id="_881868448">
   <g>
    <g>
     <polygon class="fil1" points="118,9 118,18 118,90 56,90 56,9 "/>
     <g>
      <polygon class="fil2" points="114,7 114,18 114,87 53,87 53,7 "/>
      <path id="1" class="fil1" d="M113 18l0 -11 3 0 0 11 -3 0 0 0zm0 69l0 -69 3 0 0 69 -2 2 -1 -2zm3 0l0 2 -2 0 2 -2zm-63 -1l61 0 0 3 -61 0 -1 -2 1 -1zm0 3l-1 0 0 -2 1 2zm1 -82l0 80 -2 0 0 -80 1 -1 1 1zm-2 0l0 -1 1 0 -1 1zm62 2l-61 0 0 -3 61 0 2 1 -2 2zm0 -3l2 0 0 1 -2 -1z"/>
     </g>
    </g>
    <polygon class="fil1" points="102,20 100,20 100,14 98,15 98,13 102,12 102,12 "/>
    <path id="1" class="fil1" d="M104 33l-6 0 0 -1 3 -3c0,-1 0,-1 0,-1 1,-1 1,-1 1,-1 0,-1 0,-1 -1,-1 0,0 0,0 0,0 -1,0 -1,0 -1,0 0,0 -1,1 -1,1l-1 0c0,-1 0,-1 0,-1 0,-1 1,-1 1,-1 1,-1 1,-1 2,-1 1,0 1,0 2,1 0,0 0,1 0,2 0,0 0,0 0,1 0,0 -1,1 -1,1l-2 2 4 0 0 2z"/>
    <path id="2" class="fil1" d="M98 44c0,0 0,0 0,0 1,-1 1,-1 1,-1 0,0 1,0 1,1 0,0 0,0 0,0 0,0 0,1 0,1 0,0 -1,0 -1,0 0,0 0,0 -1,0 0,0 0,-1 0,-1z"/>
    <path id="3" class="fil1" d="M98 56c0,0 0,0 0,0 1,0 1,0 1,0 0,0 1,0 1,0 0,0 0,0 0,0 0,1 0,1 0,1 0,0 -1,0 -1,0 0,0 0,0 -1,0 0,0 0,0 0,-1z"/>
    <path id="4" class="fil1" d="M98 69c0,0 0,-1 0,-1 1,0 1,0 1,0 0,0 1,0 1,0 0,0 0,1 0,1 0,0 0,0 0,0 0,1 -1,1 -1,1 0,0 0,0 -1,-1 0,0 0,0 0,0z"/>
    <path id="5" class="fil1" d="M100 77l0 0c1,0 1,0 1,0 1,0 1,-1 1,-1 0,0 0,-1 -1,-1 0,0 0,0 0,0 -1,0 -1,0 -1,0 0,0 0,1 0,1l-2 0c0,-1 0,-1 0,-1 0,-1 1,-1 1,-1 1,0 1,0 2,0 0,0 1,0 2,0 0,1 0,1 0,2 0,0 0,1 0,1 0,0 -1,1 -1,1 1,0 1,0 1,0 0,1 0,1 0,2 0,0 0,1 0,1 -1,1 -2,1 -2,1 -1,0 -2,0 -2,-1 -1,0 -1,-1 -1,-1l1 0c0,0 1,0 1,0 0,1 0,1 1,1 0,0 0,0 1,-1 0,0 0,0 0,0 0,-1 -1,-2 -2,-2l0 0 0 -1z"/>
    <path id="6" class="fil1" d="M110 79c0,1 0,2 -1,2 0,1 -1,1 -2,1 -1,0 -1,0 -2,-1 0,0 0,-1 0,-2l0 -2c0,-1 0,-2 0,-3 1,0 1,0 2,0 1,0 2,0 2,0 1,1 1,2 1,3l0 2zm-1 -2c0,-1 -1,-1 -1,-2 0,0 0,0 -1,0 0,0 0,0 0,0 -1,1 -1,1 -1,2l0 2c0,0 0,1 1,1 0,1 0,1 0,1 1,0 1,0 1,-1 0,0 1,-1 1,-1l0 -2z"/>
    <rect class="fil3" x="67" y="15" width="26.736" height="3.67876"/>
    <rect class="fil3" x="66" y="27" width="28.0338" height="3.67876"/>
    <rect class="fil3" x="83" y="75" width="11.1892" height="3.67876"/>
   </g>
   <g id="_881869720">
    <g>
     <polygon class="fil4" points="5,60 82,60 82,113 5,113 "/>
     <path id="1" class="fil1" d="M82 61l-77 0 0 -2 77 0 1 1 -1 1zm0 -2l1 0 0 1 -1 -1zm-1 54l0 -53 2 0 0 53 -1 1 -1 -1zm2 0l0 1 -1 0 1 -1zm-78 -1l77 0 0 2 -77 0 -1 -1 1 -1zm0 2l-1 0 0 -1 1 1zm1 -54l0 53 -2 0 0 -53 1 -1 1 1zm-2 0l0 -1 1 0 -1 1z"/>
    </g>
    <g id="_881870464">
     <path class="fil5" d="M17 65c1,0 0,0 1,0 1,1 2,2 5,1l1 -1c0,0 1,0 1,0 0,0 0,-1 0,-1l0 -18c-3,0 -6,0 -8,0l0 19z"/>
     <path class="fil6" d="M40 65c2,2 5,2 7,0 0,-1 1,-16 0,-17 -1,-1 0,-1 -1,-1 -1,0 -2,0 -2,0 -1,0 -3,0 -4,1 -1,1 0,6 0,8 0,2 -1,8 0,9z"/>
     <path class="fil5" d="M32 64l1 1c4,3 4,0 7,0 -1,-2 0,-16 0,-18 -2,-1 -6,-1 -8,-1l0 18z"/>
     <path class="fil5" d="M4 66c2,1 3,0 5,-1 0,0 0,0 1,0l0 -19 -8 0c0,4 0,8 0,11 0,2 0,4 0,5 0,3 0,3 2,4z"/>
     <path class="fil6" d="M10 65c1,0 1,1 3,1 2,0 3,0 4,-1l0 -18 -7 0 0 18z"/>
     <path class="fil6" d="M25 65c2,1 5,2 7,-1l0 -17c-2,0 -6,0 -7,0l0 18z"/>
     <path class="fil5" d="M70 65c-1,0 0,0 -1,0 -1,1 -2,2 -5,1l-1 -1c0,0 0,0 0,0 0,0 -1,-1 -1,-1l0 -18c3,0 6,0 8,0l0 19z"/>
     <path class="fil5" d="M55 64l-1 1c-4,3 -4,0 -7,0 0,-3 0,-13 0,-18 2,-1 6,-1 8,-1l0 18z"/>
     <path class="fil5" d="M83 66c-2,1 -3,0 -4,-1 -1,0 0,0 -1,0l0 -19 7 0c0,4 0,8 0,11 0,2 0,4 0,5 0,3 0,3 -2,4z"/>
     <path class="fil6" d="M78 65c-2,0 -2,1 -4,1 -2,0 -3,0 -4,-1l0 -18 8 0 0 18z"/>
     <path class="fil6" d="M62 65c-1,1 -5,2 -7,-1l0 -17c2,0 6,0 7,0l0 18z"/>
    </g>
    <rect class="fil7" x="2" y="45" width="83.1665" height="1.98734"/>
   </g>
   <g>
    <path class="fil8" d="M76 33l-16 -7c0,0 -1,0 -1,0l0 0c0,0 -1,0 -1,0 0,0 -1,1 0,2l1 5 -6 1c-10,3 -17,13 -14,24 0,1 0,1 1,1 0,0 1,0 1,0 0,0 1,0 1,-1l0 -1c2,-6 6,-11 12,-12l7 -1 1 5c0,0 1,1 2,1 0,0 1,0 1,0l12 -14c0,-1 1,-1 0,-2 0,0 0,-1 -1,-1z"/>
    <path id="1" class="fil2" d="M60 27l0 0 0 -2 17 7 -1 2 -16 -7zm0 0l0 0 0 0 0 0zm-1 -2l0 0 0 0 0 0 0 0 0 0 0 0 0 -1 0 0 0 0 0 0 0 0 0 0 0 0 0 0 1 0 0 1 0 0 0 0 0 0 0 0 0 0 0 0 0 0 0 0 0 0 0 0 0 0 0 0 0 0 0 0 0 0 0 0 0 0 0 2 0 0 0 0 0 0 0 0 0 0 0 0 0 0 -1 0 0 0 0 0 0 0 0 0 0 0 0 0 0 0 0 0 0 0 0 0 0 0 0 0 0 0 0 0 0 0 0 0 0 0 0 0 0 0 0 0 0 0 0 0 0 0 0 0 0 0 0 -2zm0 0l0 0 0 0 0 0zm0 2l0 -2 0 0 0 0 0 2 0 0zm0 -2l0 0 0 0 0 0zm-2 0l0 0 1 0 0 0 0 0 0 0 0 0 0 0 0 0 0 0 0 0 0 0 0 0 0 0 0 0 0 0 0 0 0 0 0 0 0 0 0 0 0 0 0 0 0 0 0 0 0 0 0 0 0 0 0 0 0 0 1 0 0 0 0 0 0 0 0 2 0 0 0 0 0 0 0 0 0 0 0 0 0 0 0 0 0 0 0 0 0 0 0 0 0 0 0 0 0 0 0 0 0 0 0 0 0 0 0 0 0 0 0 0 0 0 0 0 0 0 0 0 0 0 0 0 0 0 0 0 0 0 0 0 0 0 -2 -2zm2 2l0 0 0 0 0 0zm-2 1l0 0 -1 0 0 0 0 0 0 0 0 -1 0 0 0 0 0 0 0 0 0 0 0 0 0 0 1 0 0 0 0 0 0 -1 0 0 0 0 0 0 0 0 0 0 0 0 0 0 0 0 0 0 0 0 0 -1 0 0 0 0 0 0 0 0 0 0 2 2 0 0 0 0 0 0 0 0 0 0 0 0 0 0 0 0 0 0 0 0 0 0 0 0 0 0 0 0 0 0 0 0 0 0 0 0 0 0 0 0 0 0 0 0 0 0 0 0 0 0 0 0 0 0 0 0 0 0 0 0 0 0 0 1 0 0 -2 0zm3 5l-1 1 -1 -1 -1 -5 2 0 1 5zm0 0l0 1 -1 0 1 -1zm-6 2l-1 -2 0 0 6 -1 0 2 -5 1zm-17 23l0 0 0 -1 0 -1 0 -1 0 -1 0 -1 0 -1 0 -1 0 -1 0 -1 1 -1 0 -1 0 -1 1 -1 0 -1 1 -1 0 -1 1 0 0 -1 1 -1 1 -1 0 -1 1 0 1 -1 1 0 1 -1 0 -1 1 0 1 -1 1 0 1 0 1 -1 1 0 1 2 -1 0 -1 1 -1 0 -1 0 -1 1 -1 0 0 1 -1 0 -1 1 0 0 -1 1 -1 1 0 0 -1 1 0 1 -1 0 0 1 -1 1 0 1 -1 1 0 1 0 0 0 1 -1 1 0 1 0 1 0 1 0 1 0 1 0 1 0 1 1 1 0 0 -3 0zm3 2l0 0 0 0 0 0 0 0 0 0 0 0 0 0 -1 0 0 0 0 0 0 0 0 0 0 0 0 0 0 0 0 0 -1 0 0 0 0 0 0 -1 0 0 0 0 0 0 0 0 0 0 0 0 0 0 0 0 0 0 0 -1 0 0 -1 0 0 0 3 0 0 0 0 0 0 0 0 0 0 0 0 0 0 0 0 0 0 0 0 0 0 0 0 0 0 0 0 0 0 0 0 0 0 0 0 0 0 0 0 0 0 0 0 0 0 0 0 0 0 0 0 0 0 0 0 0 0 0 0 0 0 0 0 0 0 0 0 2zm0 0l0 0 0 0 0 0zm1 0l0 0 0 0 0 0 0 0 0 0 0 0 0 0 0 0 0 0 0 0 0 0 0 0 0 0 0 0 0 0 0 0 0 0 0 0 0 0 0 0 -1 0 0 0 0 0 0 0 0 0 0 0 0 0 0 0 0 0 0 0 0 0 0 0 0 0 0 -2 0 0 0 0 0 0 0 0 0 0 0 0 0 0 0 0 0 0 0 0 0 0 0 0 0 0 0 0 0 0 0 0 0 0 0 0 0 0 0 0 0 0 0 0 0 0 0 0 0 0 0 0 0 0 0 0 0 0 0 0 0 0 0 0 0 0 1 2zm2 -2l0 0 0 0 0 0 0 0 0 1 0 0 0 0 0 0 0 0 0 0 0 0 0 0 0 0 -1 0 0 0 0 0 0 0 0 1 0 0 0 0 0 0 0 0 0 0 0 0 0 0 0 0 -1 0 0 0 0 0 0 0 0 0 0 0 0 0 -1 -2 0 0 0 0 1 0 0 0 0 0 0 0 0 0 0 0 0 0 0 0 0 0 0 0 0 0 0 0 0 0 0 0 0 0 0 0 0 0 0 0 0 0 0 0 0 0 0 0 0 0 0 0 0 0 0 0 0 0 0 0 0 0 0 0 0 0 2 0zm-2 0l0 0 0 0 0 0zm0 -1l2 0 0 0 0 1 -2 0 0 -1zm2 0l0 0 0 0 0 0zm12 -11l0 0 -1 0 0 0 -1 1 0 0 -1 0 0 0 -1 0 0 1 -1 0 0 0 -1 0 0 1 0 0 -1 0 0 1 -1 0 0 0 0 1 -1 0 0 1 0 0 -1 0 0 1 0 0 0 1 -1 0 0 1 0 0 0 1 0 0 -1 1 0 0 -2 0 0 -1 1 0 0 -1 0 -1 0 0 0 -1 1 0 0 -1 0 0 1 -1 0 0 0 -1 1 0 0 -1 0 0 1 -1 0 0 1 0 0 -1 1 0 0 0 1 -1 0 0 1 0 0 -1 1 0 0 0 1 0 0 -1 1 0 1 0 0 0 0 0 1 2zm6 -4l1 1 -1 2 -6 1 -1 -2 7 -2zm0 0l1 0 0 1 -1 -1zm2 7l-2 0 0 0 -1 -5 2 -1 1 6zm0 2l0 0 0 0 0 0 0 0 0 0 0 0 0 0 0 0 0 0 0 0 -1 0 0 0 0 0 0 0 0 0 0 -1 0 0 0 0 0 0 0 0 0 0 0 0 0 0 0 0 0 0 -1 0 0 0 0 0 0 -1 0 0 0 0 0 0 0 0 2 0 0 0 0 0 0 0 0 0 0 0 0 0 0 0 0 0 0 0 0 0 0 0 0 0 0 0 0 0 0 0 1 0 0 0 0 0 0 0 0 0 0 0 0 0 0 0 0 0 0 0 0 0 0 0 0 0 0 0 0 0 0 0 0 0 0 0 -1 2zm0 0l0 0 0 0 0 0zm3 -1l0 0 0 0 0 0 0 0 0 1 0 0 0 0 0 0 0 0 0 0 -1 0 0 0 0 0 0 0 0 0 0 0 0 0 0 0 0 0 0 0 0 0 -1 0 0 0 0 0 0 0 0 0 0 0 0 0 0 0 0 0 0 0 -1 0 0 0 1 -2 0 0 0 0 0 0 0 0 0 0 0 0 0 0 0 0 0 0 0 0 0 0 0 0 0 0 0 0 0 0 0 0 0 0 0 0 0 0 0 0 0 0 0 0 0 0 0 0 0 0 0 0 0 0 1 0 0 0 0 0 0 0 0 0 0 0 1 1zm-1 -1l0 0 0 0 0 0zm11 -14l0 0 2 2 -12 13 -1 -1 11 -14zm0 0l0 0 0 0 0 0zm3 -1l0 0 0 0 0 0 0 0 0 0 0 1 0 0 0 0 0 0 0 0 0 0 0 0 0 0 0 0 0 0 0 0 -1 0 0 1 0 0 0 0 0 0 0 0 0 0 0 0 0 0 0 0 0 0 0 0 0 0 0 0 0 0 0 1 0 0 -2 -2 0 0 0 0 0 0 0 0 0 0 0 0 0 0 0 0 0 0 0 0 0 0 0 0 0 0 0 0 0 0 0 0 0 0 0 0 0 0 0 0 0 0 0 0 0 0 0 0 0 0 0 0 0 0 0 0 0 0 0 0 0 0 0 0 0 0 3 -1zm0 0l0 0 -1 0 1 0zm-2 -2l0 0 0 0 0 0 0 0 0 0 0 0 0 0 0 0 0 0 1 1 0 0 0 0 0 0 0 0 0 0 0 0 0 0 0 0 0 0 0 0 0 0 0 0 0 0 0 0 0 0 0 1 0 0 0 0 0 0 0 0 0 0 0 0 1 0 -3 1 0 0 0 0 0 0 0 0 0 -1 0 0 0 0 0 0 0 0 0 0 0 0 0 0 0 0 0 0 0 0 0 0 0 0 0 0 0 0 0 0 0 0 0 0 0 0 0 0 0 0 0 0 0 0 0 0 0 0 0 0 0 0 0 0 0 0 1 -2zm-1 2l0 0 0 0 0 0z"/>
   </g>
   <g>
    <path class="fil9" d="M38 94c0,5 -1,8 -2,10 -2,3 -5,4 -9,4 -3,0 -6,-1 -7,-4 -2,-2 -3,-5 -3,-9l0 -6c0,-5 1,-8 2,-10 2,-3 5,-4 8,-4 4,0 7,1 8,4 2,2 3,5 3,9l0 6zm-6 -6c0,-3 0,-5 -1,-6 -1,-1 -2,-2 -4,-2 -1,0 -2,1 -3,2 -1,1 -1,3 -1,5l0 8c0,3 0,5 1,6 1,1 2,2 3,2 2,0 3,-1 4,-2 1,-1 1,-3 1,-6l0 -7z"/>
    <path id="1" class="fil9" d="M41 94c0,-1 1,-2 1,-3 1,0 2,-1 3,-1 1,0 2,1 3,1 0,1 1,2 1,3l0 1c0,1 -1,2 -1,2 -1,1 -2,1 -3,1 -1,0 -2,0 -3,-1 0,0 -1,-1 -1,-2l0 -1zm3 1c0,0 0,0 0,1 0,0 1,0 1,0 1,0 1,0 1,0 0,-1 1,-1 1,-1l0 -1c0,-1 -1,-1 -1,-1 0,-1 0,-1 -1,-1 0,0 -1,0 -1,1 0,0 0,0 0,1l0 1zm6 8c0,-1 0,-2 1,-2 0,-1 1,-1 2,-1 1,0 2,0 3,1 1,0 1,1 1,2l0 1c0,1 0,2 -1,3 -1,0 -2,1 -3,1 -1,0 -2,-1 -2,-1 -1,-1 -1,-2 -1,-3l0 -1zm2 1c0,1 0,1 0,1 0,1 1,1 1,1 1,0 2,-1 2,-2l0 -1c0,0 0,-1 -1,-1 0,0 0,0 -1,0 0,0 -1,0 -1,0 0,0 0,1 0,1l0 1zm-6 2l-2 -1 8 -13 2 1 -8 13z"/>
    <g>
     <g>
      <path class="fil10" d="M59 69c7,0 11,4 11,11 0,6 -4,11 -11,11 -6,0 -11,-5 -11,-11 0,-7 5,-11 11,-11z"/>
      <path id="1" class="fil2" d="M71 80l-1 0 0 0 0 -1 0 -1 0 0 0 -1 0 0 0 -1 -1 0 0 -1 0 0 0 0 0 -1 -1 0 0 -1 0 0 -1 -1 0 0 0 0 -1 -1 0 0 -1 0 0 -1 -1 0 0 0 0 0 -1 0 0 -1 -1 0 0 0 -1 0 0 0 -1 0 -1 0 0 -1 1 0 1 0 0 0 1 0 0 0 1 1 0 0 1 0 0 0 1 0 0 1 1 0 0 0 1 1 0 0 1 0 0 1 0 0 1 1 0 0 0 1 1 0 0 1 0 0 0 1 0 0 1 1 0 0 0 1 0 0 0 1 0 1 0 0zm-12 11l0 -1 0 0 1 0 1 0 0 0 1 0 0 0 1 0 0 0 1 -1 0 0 0 0 1 0 0 -1 1 0 0 0 1 -1 0 0 0 0 1 -1 0 0 0 0 1 -1 0 0 0 -1 0 0 0 -1 1 0 0 -1 0 0 0 -1 0 0 0 -1 0 0 1 0 0 0 0 1 0 0 0 1 0 0 -1 1 0 1 0 0 0 1 0 0 -1 1 0 0 0 0 -1 1 0 0 0 1 -1 0 0 0 -1 1 0 0 -1 0 0 1 -1 0 0 0 -1 0 0 1 -1 0 0 0 -1 0 0 0 -1 0 -1 0 0 0zm-11 -11l1 0 0 0 0 0 0 1 0 0 0 1 0 0 0 1 0 0 1 1 0 0 0 1 0 0 1 1 0 0 0 0 1 1 0 0 0 0 1 1 0 0 0 0 1 1 0 0 1 0 0 0 1 1 0 0 1 0 0 0 1 0 0 0 1 0 0 0 0 1 0 0 -1 0 0 0 -1 0 0 0 -1 0 -1 -1 0 0 -1 0 0 0 -1 -1 0 0 0 0 -1 -1 0 0 -1 0 0 -1 0 0 -1 -1 0 0 0 0 -1 -1 0 0 0 -1 0 0 -1 -1 0 -1 0 0 0 -1 0 0 0 -1 0 0 0 0zm11 -12l0 1 0 0 0 0 -1 0 0 0 -1 0 0 0 -1 0 0 1 -1 0 0 0 -1 0 0 0 -1 1 0 0 0 0 -1 1 0 0 0 0 -1 1 0 0 0 1 -1 0 0 1 0 0 0 0 -1 1 0 0 0 1 0 0 0 1 0 0 0 1 0 1 -1 0 0 -1 0 -1 0 0 0 -1 0 0 0 -1 1 0 0 -1 0 0 0 -1 1 0 0 -1 0 0 1 -1 0 0 0 -1 1 0 0 0 1 -1 0 0 0 0 1 -1 0 0 1 0 0 0 1 0 1 -1 0 0 1 0 0 0 1 0 0 0 0 0z"/>
     </g>
     <path class="fil11" d="M61 83c0,-1 0,-1 0,-1 0,-1 -1,-1 -2,-1 0,0 -1,-1 -1,-1 -1,0 -1,-1 -2,-1 0,0 0,-1 0,-1 -1,-1 -1,-1 -1,-2 0,-1 1,-2 1,-2 1,-1 2,-1 3,-1l0 -1 0 -1 0 0 0 0c0,0 0,0 0,0l1 0c0,0 0,0 1,0l0 0 0 0 0 1 0 1c1,0 2,0 2,1 1,1 1,1 1,3l0 0 0 0c0,0 0,1 -1,1l-1 0c0,0 -1,-1 -1,-1l0 0 0 0 0 0 0 0 0 0c0,-1 0,-1 0,-2 0,0 -1,0 -1,0 -1,0 -1,0 -2,0 0,0 0,1 0,1 0,1 0,1 0,2 1,0 1,0 2,0 1,1 1,1 2,1 0,1 1,1 1,1 0,0 1,1 1,1 0,1 0,1 0,2 0,1 0,2 -1,2 -1,1 -2,2 -3,2l0 0c0,0 0,0 0,0l0 1c0,0 0,1 0,1l-1 0c0,0 0,-1 0,-1l0 -1c0,0 0,0 0,0l0 0c-1,-1 -2,-1 -3,-2 -1,-1 -1,-1 -1,-2l0 0c0,-1 0,-1 1,-1l1 0c0,0 0,0 0,1l0 0 0 0 0 0 0 0 0 0 0 0c1,0 1,0 1,1 0,0 1,0 2,0 0,0 1,0 1,0 0,0 0,-1 0,-1z"/>
    </g>
   </g>
  </g>
 </g>
</svg>
