<?xml version="1.0" encoding="UTF-8"?>
<!DOCTYPE svg PUBLIC "-//W3C//DTD SVG 1.1//EN" "http://www.w3.org/Graphics/SVG/1.1/DTD/svg11.dtd">
<!-- Creator: CorelDRAW X7 -->
<svg xmlns="http://www.w3.org/2000/svg" xml:space="preserve" width="120px" height="120px" version="1.1" style="shape-rendering:geometricPrecision; text-rendering:geometricPrecision; image-rendering:optimizeQuality; fill-rule:evenodd; clip-rule:evenodd"
viewBox="0 0 120 120"
 xmlns:xlink="http://www.w3.org/1999/xlink">
 <defs>
  <style type="text/css">
   <![CDATA[
    .fil0 {fill:none}
    .fil6 {fill:#A98F71}
    .fil3 {fill:#2887D2}
    .fil7 {fill:#F0A71F}
    .fil5 {fill:#FFCB68}
    .fil2 {fill:#FEFEFE;fill-rule:nonzero}
    .fil4 {fill:#00A859;fill-rule:nonzero}
    .fil1 {fill:#2887D2;fill-rule:nonzero}
    .fil8 {fill:url(#id0);fill-rule:nonzero}
   ]]>
  </style>
  <linearGradient id="id0" gradientUnits="userSpaceOnUse" x1="27.9549" y1="33.6904" x2="27.9549" y2="80.4299">
   <stop offset="0" style="stop-opacity:1; stop-color:#04870F"/>
   <stop offset="1" style="stop-opacity:1; stop-color:#1DEB23"/>
  </linearGradient>
 </defs>
 <g id="Layer_x0020_1">
  <metadata id="CorelCorpID_0Corel-Layer"/>
  <rect class="fil0" width="120" height="120"/>
  <g id="_727625056">
   <g>
    <g>
     <g>
      <polygon class="fil1" points="118,19 118,29 118,102 55,102 55,19 "/>
      <g>
       <polygon class="fil2" points="114,18 114,28 114,99 52,99 52,18 "/>
       <path id="1" class="fil1" d="M113 28l0 -10 2 0 0 10 -2 0 0 0zm0 71l0 -71 2 0 0 71 -1 1 -1 -1zm2 0l0 1 -1 0 1 -1zm-63 -2l62 0 0 3 -62 0 -1 -1 1 -2zm0 3l-1 0 0 -1 1 1zm2 -82l0 81 -3 0 0 -81 1 -2 2 2zm-3 0l0 -2 1 0 -1 2zm63 1l-62 0 0 -3 62 0 1 2 -1 1zm0 -3l1 0 0 2 -1 -2z"/>
      </g>
     </g>
     <polygon class="fil1" points="102,31 100,31 100,24 98,25 98,24 102,22 102,22 "/>
     <path id="1" class="fil1" d="M103 43l-5 0 0 -1 2 -3c1,0 1,-1 1,-1 0,0 0,0 0,-1 0,0 0,0 0,-1 0,0 0,0 -1,0 0,0 0,0 0,0 -1,1 -1,1 -1,1l-1 0c0,0 0,0 0,-1 0,0 0,-1 1,-1 0,0 1,0 1,0 1,0 2,0 2,0 1,1 1,1 1,2 0,1 0,1 0,1 0,1 -1,1 -1,2l-2 2 3 0 0 1z"/>
     <path id="2" class="fil1" d="M98 55c0,0 0,-1 0,-1 0,0 1,0 1,0 0,0 0,0 0,0 1,0 1,1 1,1 0,0 0,0 -1,1 0,0 0,0 0,0 0,0 -1,0 -1,0 0,-1 0,-1 0,-1z"/>
     <path id="3" class="fil1" d="M98 67c0,0 0,0 0,0 0,0 1,-1 1,-1 0,0 0,1 0,1 1,0 1,0 1,0 0,1 0,1 -1,1 0,0 0,0 0,0 0,0 -1,0 -1,0 0,0 0,0 0,-1z"/>
     <path id="4" class="fil1" d="M98 80c0,0 0,-1 0,-1 0,0 1,0 1,0 0,0 0,0 0,0 1,0 1,1 1,1 0,0 0,0 -1,0 0,1 0,1 0,1 0,0 -1,0 -1,-1 0,0 0,0 0,0z"/>
     <path id="5" class="fil1" d="M99 88l1 0c1,0 1,0 1,0 0,0 1,-1 1,-1 0,0 -1,-1 -1,-1 0,0 0,0 -1,0 0,0 0,0 0,0 -1,0 -1,1 -1,1l-1 0c0,0 0,-1 0,-1 0,-1 1,-1 1,-1 0,0 1,0 1,0 1,0 2,0 2,0 1,1 1,1 1,2 0,0 0,1 0,1 0,0 -1,1 -1,1 0,0 1,0 1,1 0,0 0,0 0,1 0,1 0,1 -1,2 0,0 -1,0 -2,0 0,0 -1,0 -2,0 0,-1 -1,-1 -1,-2l2 0c0,0 0,0 1,1 0,0 0,0 0,0 1,0 1,0 1,0 1,-1 1,-1 1,-1 0,-1 -1,-1 -2,-1l-1 0 0 -2z"/>
     <path id="6" class="fil1" d="M110 90c0,1 0,2 -1,2 0,1 -1,1 -2,1 -1,0 -1,0 -2,-1 0,0 -1,-1 -1,-2l0 -2c0,-1 1,-2 1,-2 1,-1 1,-1 2,-1 1,0 2,0 2,1 1,0 1,1 1,2l0 2zm-2 -2c0,-1 0,-1 0,-2 0,0 0,0 -1,0 0,0 0,0 -1,0 0,1 0,1 0,2l0 2c0,1 0,1 0,1 1,1 1,1 1,1 1,0 1,0 1,-1 0,0 0,0 0,-1l0 -2z"/>
     <rect class="fil3" x="78" y="25" width="15.9024" height="3.72697"/>
     <rect class="fil3" x="72" y="37" width="21.2368" height="3.72697"/>
     <rect class="fil3" x="82" y="86" width="11.3358" height="3.72697"/>
    </g>
    <g>
     <path class="fil4" d="M74 29l-16 -8c0,0 -1,0 -1,0l0 0c0,0 -1,0 -1,0 0,1 -1,2 -1,2l2 6 -6 1c-10,2 -17,13 -15,23 1,1 1,2 2,2 0,0 0,0 1,0 0,-1 1,-1 1,-2l0 -1c2,-6 6,-10 12,-12l7 -1 1 5c0,1 1,1 1,2 1,0 2,0 2,-1l12 -14c0,0 0,-1 0,-1 0,-1 0,-1 -1,-1z"/>
     <path id="1" class="fil2" d="M57 23l0 0 2 -4 16 8 -2 4 -16 -8zm0 0l0 0 0 0 0 0zm-1 -4l0 0 1 0 0 0 0 0 0 0 0 0 0 0 0 0 0 0 0 0 0 0 0 0 0 0 0 0 0 0 1 0 0 0 0 0 0 0 0 0 0 0 0 0 0 0 0 0 0 0 0 0 0 0 0 0 1 0 0 0 0 0 0 0 0 0 -2 4 0 0 0 0 0 0 0 0 0 0 0 0 0 0 0 0 0 0 0 0 0 0 0 0 0 0 0 0 0 0 0 0 0 0 0 0 0 0 0 0 0 0 0 0 0 0 0 0 0 0 0 0 0 0 0 0 0 0 0 0 0 0 0 0 0 0 -1 -4zm0 0l0 0 0 0 0 0zm1 4l-1 -4 0 0 0 0 1 4 0 0zm-1 -4l0 0 0 0 0 0zm-1 1l0 0 0 0 0 0 0 0 0 0 0 0 0 0 0 0 0 0 0 0 0 0 0 -1 0 0 0 0 0 0 0 0 0 0 0 0 0 0 1 0 0 0 0 0 0 0 0 0 0 0 0 0 0 0 0 0 0 0 0 0 0 0 0 0 0 0 1 4 0 0 0 0 0 0 0 0 0 0 0 0 0 0 0 0 0 0 0 0 0 0 0 0 0 0 0 0 0 0 0 0 0 0 0 0 0 0 0 0 0 0 0 0 0 0 0 0 0 0 0 0 0 0 0 0 0 0 0 0 0 0 0 0 0 0 -2 -3zm2 3l0 0 0 0 0 0zm-4 1l0 0 0 0 0 -1 0 0 0 0 0 0 0 0 0 0 0 0 0 0 0 -1 0 0 0 0 0 0 0 0 0 0 0 0 1 -1 0 0 0 0 0 0 0 0 0 0 0 0 0 0 0 0 0 -1 0 0 0 0 0 0 0 0 1 0 0 0 2 3 0 0 0 0 0 0 0 0 0 0 0 0 0 0 0 0 0 0 0 0 1 0 0 0 0 0 0 0 0 0 0 0 0 0 0 0 0 0 0 0 0 0 0 0 0 0 0 0 0 0 0 0 0 0 0 0 0 0 0 0 0 0 0 0 0 0 -5 1zm6 4l-2 3 -2 -2 -2 -5 5 -1 1 5zm0 0l0 2 -2 1 2 -3zm-7 4l-1 -4 5 -2 1 5 -5 1zm-18 22l0 0 0 -1 0 -2 0 -1 0 -1 0 -1 0 -1 0 -1 0 -1 0 -1 1 -1 0 -1 0 -1 1 -1 0 -1 1 -1 0 -1 1 -1 0 0 1 -1 1 -1 1 -1 0 -1 1 0 1 -1 1 0 1 -1 1 -1 1 0 1 0 1 -1 1 0 1 0 1 4 -1 0 -1 0 -1 1 -1 0 0 0 -1 1 -1 0 -1 1 0 0 -1 1 0 0 -1 1 -1 0 0 1 -1 1 0 1 -1 0 0 1 0 1 -1 1 0 0 0 1 0 1 -1 1 0 1 0 0 0 1 0 1 0 1 0 1 0 1 1 1 0 0 -5 1zm4 3l0 0 0 0 0 0 0 0 0 0 -1 0 0 0 0 0 0 0 0 -1 0 0 -1 0 0 0 0 0 0 0 0 0 0 0 0 0 0 0 -1 0 0 -1 0 0 0 0 0 0 0 0 0 0 0 0 0 -1 0 0 0 0 -1 0 0 0 0 0 5 -1 0 0 0 0 0 0 0 0 0 0 0 0 0 0 0 0 0 0 0 0 -1 0 0 0 0 0 0 0 0 0 0 0 0 0 0 0 0 0 0 0 0 0 0 0 0 0 0 -1 0 0 0 0 0 0 0 0 0 0 0 0 0 0 0 0 0 0 0 5zm0 0l0 0 0 0 0 0zm1 0l0 0 0 0 0 0 0 0 0 0 0 0 0 0 0 0 0 0 0 0 0 0 0 0 0 0 0 0 0 0 0 0 0 0 0 0 0 0 0 0 0 0 0 0 -1 0 0 0 0 0 0 0 0 0 0 0 0 0 0 0 0 0 0 0 0 0 0 -5 0 0 0 0 0 0 0 0 0 0 0 0 0 0 0 0 0 0 0 0 0 0 0 0 0 0 0 0 0 0 0 0 0 0 0 0 0 0 0 0 0 0 0 0 0 0 0 0 0 0 0 0 0 0 0 0 0 0 0 0 0 0 0 0 0 0 1 5zm0 0l0 0 0 0 0 0zm3 -3l0 0 0 0 0 0 0 0 0 0 0 0 0 1 0 0 0 0 0 0 -1 0 0 0 0 0 0 0 0 0 0 1 0 0 0 0 0 0 0 0 0 0 -1 0 0 0 0 0 0 0 0 0 0 0 0 0 0 1 -1 0 0 0 0 0 0 0 -1 -5 0 0 0 0 0 0 0 0 0 1 0 0 0 0 0 0 0 0 0 0 0 0 0 0 0 0 0 0 0 0 0 0 0 0 0 0 0 0 0 0 0 0 0 0 0 0 0 0 0 0 0 0 0 0 0 0 0 0 0 0 0 0 0 0 0 0 4 1zm-4 -1l0 0 0 0 0 0zm0 -1l4 1 0 0 0 1 -4 -1 0 -1zm4 1l0 0 0 0 0 0zm11 -10l0 0 -1 0 0 0 -1 0 0 0 -1 0 0 1 0 0 -1 0 0 0 -1 0 0 1 -1 0 0 0 0 1 -1 0 0 0 0 1 -1 0 0 0 0 1 -1 0 0 0 0 1 0 0 -1 1 0 0 0 1 0 0 0 0 0 1 -1 0 0 1 -4 -1 0 -1 0 0 1 -1 0 -1 0 0 0 -1 1 0 0 -1 0 0 1 -1 0 0 0 -1 1 0 0 -1 1 0 0 -1 0 0 1 -1 0 0 1 0 0 -1 1 0 1 0 0 -1 1 0 0 0 1 -1 0 0 1 0 1 0 0 0 1 -1 0 0 1 5zm5 -6l3 2 -2 2 -6 2 -1 -5 6 -1zm0 0l3 -1 0 3 -3 -2zm4 7l-4 1 0 0 -1 -6 4 0 1 5zm-1 4l0 0 0 0 0 0 0 0 -1 -1 0 0 0 0 0 0 0 0 0 0 0 0 0 0 -1 0 0 0 0 0 0 0 0 0 0 0 0 -1 0 0 0 0 0 0 0 0 0 0 -1 0 0 0 0 -1 0 0 0 0 0 0 0 0 0 0 0 0 4 -1 0 0 0 0 0 0 0 0 0 0 0 0 0 0 0 0 0 0 0 0 0 0 0 0 0 0 0 0 0 0 0 0 0 0 0 0 0 0 0 0 0 0 0 0 0 0 0 0 0 0 0 0 0 0 0 0 0 0 0 0 0 0 0 0 0 0 -1 4zm1 -4l0 0 0 -1 0 1zm3 2l0 0 0 1 0 0 0 0 0 0 -1 0 0 0 0 0 0 0 0 0 0 0 0 0 0 0 -1 0 0 1 0 0 0 0 0 0 0 0 0 0 0 0 -1 0 0 0 0 0 0 0 0 0 0 0 0 0 -1 0 0 0 0 0 0 0 0 0 1 -4 0 -1 0 0 0 0 0 0 0 0 0 0 0 0 0 0 0 0 0 0 0 0 0 0 0 0 0 1 0 0 0 0 0 0 0 0 0 0 0 0 0 0 0 0 0 0 0 0 0 0 0 0 0 0 0 0 0 0 0 0 0 0 0 0 0 0 3 2zm-3 -2l0 0 0 0 0 0zm11 -14l0 0 4 3 -12 13 -3 -2 11 -14zm0 0l0 0 0 0 0 0zm4 -1l0 0 0 0 0 1 0 0 0 0 0 0 0 0 0 0 0 0 0 0 0 1 0 0 0 0 0 0 0 0 0 0 0 0 0 0 0 0 0 0 0 1 0 0 0 0 0 0 0 0 0 0 0 0 0 0 0 0 0 1 0 0 0 0 0 0 -4 -3 0 0 0 0 0 0 0 0 0 0 0 0 0 0 0 0 0 0 0 0 0 0 0 0 0 0 0 0 0 0 0 0 0 0 0 0 0 0 0 0 0 0 0 0 0 0 0 0 0 0 0 0 0 0 0 0 0 0 0 0 0 0 0 0 0 0 4 -1zm-2 -2l0 0 0 0 0 0 0 0 1 0 0 0 0 0 0 0 0 0 0 0 0 0 0 0 0 0 0 0 0 1 0 0 1 0 0 0 0 0 0 0 0 0 0 0 0 0 0 0 0 1 0 0 0 0 0 0 0 0 0 0 0 0 0 0 0 0 -4 1 0 0 0 0 0 0 0 0 0 0 0 0 0 0 0 0 0 0 0 0 0 0 0 0 0 0 0 0 0 0 0 0 0 0 0 0 0 0 0 0 0 0 0 0 0 1 0 -1 0 1 0 0 0 0 0 0 0 0 0 0 0 0 0 0 0 0 2 -4zm-2 4l0 0 1 0 -1 0z"/>
    </g>
   </g>
   <g>
    <g id="_727628032">
     <rect class="fil5" x="2" y="53" width="49.2337" height="49.2336"/>
     <rect class="fil6" x="19" y="92" width="16.0446" height="2.85696"/>
    </g>
    <path class="fil7" d="M2 53l12 -4 46 0 -9 4c0,0 -49,0 -49,0z"/>
    <path class="fil7" d="M51 102l9 -6c0,0 0,-47 0,-47 0,0 -9,4 -9,4l0 49z"/>
   </g>
   <g>
    <path class="fil8" d="M33 34l0 26 9 0 -14 20 -14 -20 9 0 0 -26 10 0zm0 13m4 13m-2 10m-14 0m-3 -10m5 -13m5 -13"/>
    <path id="1" class="fil2" d="M34 60l-1 1 -1 -1 0 -26 2 0 0 26zm-1 1l-1 0 0 -1 1 1zm9 -2l0 2 0 0 -9 0 0 -2 9 0zm0 0l1 0 -1 2 0 -2zm-13 22l-2 0 0 -1 14 -21 1 2 -13 20zm0 0l-1 1 -1 -1 2 0zm-15 -20l0 -2 1 0 14 21 -2 1 -13 -20zm0 0l-1 -2 1 0 0 2zm9 -2l0 1 0 1 -9 0 0 -2 9 0zm0 1l0 1 0 0 0 -1zm-1 -26l1 -1 0 1 0 26 -1 0 0 -26zm0 0l0 -1 1 0 -1 1zm11 -1l1 1 -1 1 -10 0 0 -2 10 0zm0 0l1 0 0 1 -1 -1z"/>
   </g>
  </g>
 </g>
</svg>
