<?xml version="1.0" encoding="UTF-8"?>
<!DOCTYPE svg PUBLIC "-//W3C//DTD SVG 1.1//EN" "http://www.w3.org/Graphics/SVG/1.1/DTD/svg11.dtd">
<!-- Creator: CorelDRAW X7 -->
<svg xmlns="http://www.w3.org/2000/svg" xml:space="preserve" width="120px" height="120px" version="1.1" style="shape-rendering:geometricPrecision; text-rendering:geometricPrecision; image-rendering:optimizeQuality; fill-rule:evenodd; clip-rule:evenodd"
viewBox="0 0 120 120"
 xmlns:xlink="http://www.w3.org/1999/xlink">
 <defs>
  <style type="text/css">
   <![CDATA[
    .str0 {stroke:#2887D2;stroke-width:2.08351}
    .fil0 {fill:none}
    .fil3 {fill:#FEFEFE}
    .fil1 {fill:#1CC8EB}
    .fil2 {fill:#2887D2}
    .fil10 {fill:#F7933E;fill-rule:nonzero}
    .fil11 {fill:#F37940;fill-rule:nonzero}
    .fil12 {fill:#ED3237;fill-rule:nonzero}
    .fil9 {fill:#F3B937;fill-rule:nonzero}
    .fil13 {fill:#F2C75B;fill-rule:nonzero}
    .fil6 {fill:#DDDEDE;fill-rule:nonzero}
    .fil7 {fill:#C7CBC8;fill-rule:nonzero}
    .fil8 {fill:#914C47;fill-rule:nonzero}
    .fil4 {fill:#2887D2;fill-rule:nonzero}
    .fil5 {fill:#FC4D44;fill-rule:nonzero}
   ]]>
  </style>
 </defs>
 <g id="Layer_x0020_1">
  <metadata id="CorelCorpID_0Corel-Layer"/>
  <rect class="fil0" width="120" height="120"/>
  <g id="_836946552">
   <rect class="fil1" x="2" y="25" width="51.0468" height="87.1081" rx="2" ry="3"/>
   <path class="fil2" d="M5 107c0,0 13,-7 24,-7 10,1 13,4 16,6 2,1 6,5 6,5 0,0 2,-3 4,-4 3,-1 4,-1 4,-1l0 -7c0,0 1,-78 0,-78 0,0 -6,-11 -24,-11 -18,0 -32,14 -32,14 0,0 0,86 0,85 0,-2 2,-2 2,-2z"/>
   <g>
    <path class="fil3" d="M8 16c0,0 14,-8 27,-8 12,1 20,5 21,7 2,1 4,2 4,2l0 85c0,0 -15,-9 -27,-9 -12,0 -25,7 -25,7l0 -84z"/>
    <path id="1" class="fil4" d="M35 7l0 2 0 0 -2 0 -1 1 -1 0 -1 0 -1 0 -1 0 -1 0 -2 1 -1 0 -1 0 -1 0 -1 1 -1 0 -1 0 -1 1 -1 0 -1 1 -1 0 -1 0 0 1 -1 0 -1 0 -1 1 0 0 -1 0 0 0 -1 1 0 0 0 0 0 0 0 0 0 0 -2 -2 0 0 0 0 1 0 0 0 0 0 1 -1 0 0 1 0 0 0 1 -1 1 0 1 0 0 -1 1 0 1 -1 1 0 1 0 1 -1 1 0 1 0 1 -1 2 0 1 0 1 -1 1 0 1 0 1 0 2 -1 1 0 1 0 1 0 2 0 0 0zm22 7l-1 1 0 0 -1 0 0 0 0 0 0 0 0 0 -1 -1 0 0 -1 0 0 0 0 -1 -1 0 0 0 -1 0 -1 -1 0 0 -1 0 -1 0 0 0 -1 -1 -1 0 -1 0 0 0 -1 -1 -1 0 -1 0 -1 0 -1 0 -1 0 -1 0 -1 0 -1 0 -1 -1 0 -2 1 0 1 0 1 0 1 0 1 1 1 0 1 0 1 0 1 0 1 0 1 1 1 0 1 0 0 0 1 1 1 0 1 0 0 0 1 1 1 0 0 0 1 0 0 1 1 0 0 0 1 0 0 1 0 0 1 0 0 0 0 1 0 0 0 0zm4 3l-3 0 1 1 0 0 0 0 0 0 0 0 0 0 0 0 0 0 0 0 0 0 0 0 0 0 0 0 -1 0 0 -1 0 0 0 0 0 0 0 0 0 0 0 0 -1 0 0 0 0 0 0 0 0 -1 0 0 -1 0 0 0 0 0 0 0 0 0 0 -1 1 -1 0 0 1 0 0 0 0 0 0 0 0 1 0 0 0 0 1 0 0 0 0 0 0 0 0 0 0 0 0 0 0 0 0 0 1 0 0 0 0 1 0 0 0 0 0 0 0 0 0 0 0 0 0 0 0 0 0 0 0 0 0 0 0 0 1 1zm-3 85l0 -85 3 0 0 85 -2 1 -1 -1zm-25 -8l0 -2 0 0 1 0 2 0 1 0 1 0 1 0 1 1 2 0 1 0 1 0 1 1 1 0 1 1 1 0 1 0 1 1 1 0 1 1 1 0 1 1 1 0 1 0 1 1 0 0 1 0 0 1 1 0 0 0 1 0 0 1 0 0 0 0 0 0 -1 2 0 0 0 0 0 0 -1 -1 0 0 0 0 -1 0 0 -1 -1 0 -1 0 0 -1 -1 0 -1 0 -1 -1 -1 0 -1 -1 0 0 -1 0 -1 -1 -2 0 -1 -1 -1 0 -1 0 -1 -1 -1 0 -1 0 -1 0 -1 -1 -1 0 -2 0 -1 0 -1 0 0 0zm-26 6l2 0 -1 -1 0 0 0 0 0 0 0 0 0 0 1 0 0 -1 1 0 0 0 1 0 1 -1 0 0 1 0 1 -1 1 0 1 0 1 -1 1 0 1 -1 1 0 1 0 1 -1 1 0 1 0 1 0 1 -1 1 0 2 0 1 0 1 0 1 0 1 0 0 2 -1 0 -1 0 -1 0 -1 0 -1 1 -1 0 -1 0 -2 0 -1 0 -1 1 -1 0 -1 0 -1 1 -1 0 0 0 -1 1 -1 0 -1 0 -1 1 -1 0 0 0 -1 1 -1 0 0 0 -1 0 0 1 0 0 -1 0 0 0 0 0 0 0 0 0 -2 -1zm2 -84l0 84 -2 0 0 -84 0 -1 2 1zm-2 0l0 0 0 -1 0 1z"/>
   </g>
   <rect class="fil1" x="67" y="25" width="51.0468" height="87.1081" rx="2" ry="3"/>
   <path class="fil2" d="M115 107c0,0 -14,-7 -24,-7 -11,1 -14,4 -17,6 -2,1 -6,5 -6,5 0,0 -2,-3 -4,-4 -3,-1 -5,-1 -5,-1l0 -9c0,0 0,-76 1,-76 0,0 7,-11 25,-11 17,0 32,14 32,14 0,0 0,86 0,85 0,-2 -2,-2 -2,-2z"/>
   <g>
    <path class="fil3" d="M111 16c0,0 -14,-8 -26,-8 -13,1 -20,5 -22,7 -2,1 -3,2 -3,2l0 85c0,0 14,-9 26,-9 12,0 25,7 25,7l0 -84z"/>
    <path id="1" class="fil4" d="M85 7l0 0 1 0 1 0 1 0 2 0 1 1 1 0 1 0 1 0 2 1 1 0 1 0 1 1 1 0 1 0 1 1 1 0 1 0 1 1 1 0 1 1 0 0 1 0 1 1 0 0 1 0 0 0 1 1 0 0 1 0 0 0 0 0 0 0 -1 2 0 0 0 0 -1 0 0 0 0 0 -1 -1 0 0 -1 0 0 0 -1 -1 -1 0 0 0 -1 -1 -1 0 -1 0 -1 -1 -1 0 -1 -1 -1 0 -1 0 -1 -1 -1 0 -1 0 -1 0 -1 -1 -1 0 -2 0 -1 0 -1 0 -1 0 -1 -1 -1 0 0 0 0 -2zm-23 7l0 0 0 0 0 -1 1 0 0 0 0 0 1 -1 0 0 1 0 0 0 1 -1 0 0 1 0 0 0 1 -1 1 0 0 0 1 0 1 -1 1 0 0 0 1 0 1 -1 1 0 1 0 1 0 1 0 1 0 1 -1 1 0 1 0 1 0 2 0 0 2 -1 1 -2 0 -1 0 -1 0 -1 0 -1 0 -1 0 -1 0 0 0 -1 1 -1 0 -1 0 -1 0 -1 1 0 0 -1 0 -1 0 0 0 -1 1 0 0 -1 0 0 0 -1 1 0 0 -1 0 0 0 0 1 -1 0 0 0 0 0 0 0 0 0 0 0 -2 -1zm-4 3l1 -1 0 0 0 0 0 0 0 0 0 0 0 0 0 0 0 0 0 0 0 0 0 0 1 0 0 -1 0 0 0 0 0 0 0 0 0 0 0 0 0 0 0 0 0 0 1 0 0 0 0 0 0 0 0 -1 0 0 0 0 1 0 0 0 0 0 2 1 -1 1 0 0 0 0 0 0 0 0 0 0 -1 0 0 1 0 0 0 0 0 0 0 0 0 0 -1 0 0 0 0 0 0 0 0 0 0 1 0 0 0 0 -1 0 0 0 0 0 0 0 0 0 0 0 0 0 0 0 0 0 0 0 0 0 1 -1 -3 0zm3 85l-1 1 -2 -1 0 -85 3 0 0 85zm25 -8l0 0 -1 0 -1 0 -1 0 -1 0 -2 1 -1 0 -1 0 -1 0 -1 1 -1 0 -1 0 -1 1 -1 0 -1 1 -1 0 -1 0 -1 1 -1 0 -1 1 -1 0 0 0 -1 1 -1 0 0 0 -1 1 0 0 -1 0 0 0 0 1 -1 0 0 0 0 0 -1 -2 0 0 0 0 0 0 1 -1 0 0 0 0 1 0 0 -1 1 0 1 0 0 -1 1 0 1 0 1 -1 1 0 1 -1 1 0 1 -1 1 0 1 0 1 -1 1 0 1 -1 1 0 2 0 1 0 1 -1 1 0 1 0 2 0 1 0 1 0 0 0 0 2zm26 6l-2 1 0 0 0 0 0 0 0 0 0 0 -1 0 0 -1 -1 0 0 0 -1 0 0 -1 -1 0 -1 0 -1 -1 -1 0 0 0 -1 -1 -1 0 -1 0 -1 -1 -1 0 -1 0 -1 -1 -1 0 -1 0 -1 0 -2 0 -1 -1 -1 0 -1 0 -1 0 -1 0 0 -2 1 0 1 0 2 0 1 0 1 0 1 0 1 1 1 0 1 0 2 0 1 1 1 0 1 0 1 1 1 0 1 1 0 0 1 0 1 1 1 0 1 0 0 1 1 0 0 0 1 0 0 1 1 0 0 0 0 0 1 0 0 0 0 0 -2 1 2 0zm-2 -84l2 -1 1 1 -1 84 -2 0 0 -84zm2 -1l1 1 0 0 -1 -1z"/>
   </g>
   <g>
    <polygon class="fil5" points="102,22 100,47 89,47 86,22 "/>
    <path class="fil6" d="M88 18l13 0c0,0 1,1 1,1l0 2 -15 0 0 -2c0,0 0,-1 1,-1z"/>
    <path class="fil7" d="M86 20l16 0c1,0 2,1 2,1l0 1c0,1 -1,1 -1,1l-17 0c-1,0 -1,0 -1,-1l0 -1c0,0 1,-1 1,-1z"/>
   </g>
   <g>
    <path class="fil5" d="M71 73l0 7 4 0c0,0 1,0 1,1l3 3 4 -3c0,-1 0,-1 1,-1l13 0 0 -7 -26 0z"/>
    <path class="fil8" d="M71 70c1,0 1,0 1,0l25 0c0,0 1,0 2,1 0,0 0,1 0,2 0,1 -1,2 -2,2l-26 0c0,0 -1,-1 -1,-1 -1,-1 -1,-1 -1,-2 0,-1 1,-2 2,-2z"/>
    <path class="fil9" d="M71 64l0 6c1,0 1,0 1,0l11 0c0,0 0,0 1,0l4 5 5 -5c0,0 0,0 0,0l4 0 0 -6 -26 0z"/>
    <path class="fil10" d="M70 66l28 0c1,0 1,0 1,-1l0 -1c0,-2 -1,-4 -2,-5 -2,-2 -4,-2 -6,-2l-14 0c-4,0 -8,3 -8,7l0 1c0,1 0,1 1,1z"/>
    <path class="fil10" d="M69 79l0 3c0,2 2,5 5,5l20 0c3,0 5,-3 5,-5l0 -3c0,0 0,0 -1,0l-14 0c-1,0 -1,0 -1,0l-4 0 -3 0c0,0 -1,0 -1,0l-5 0c-1,0 -1,0 -1,0z"/>
    <path class="fil11" d="M90 60l1 0c1,0 1,0 1,0 0,1 0,1 -1,1l-1 0c0,0 0,0 0,-1 0,0 0,0 0,0z"/>
    <path class="fil11" d="M86 61l1 0c0,0 0,1 0,1 0,0 0,1 0,1l-1 0c-1,0 -1,-1 -1,-1 0,0 0,-1 1,-1z"/>
    <path class="fil11" d="M76 61l1 0c0,0 1,1 1,1 0,0 -1,1 -1,1l-1 0c0,0 -1,-1 -1,-1 0,0 1,-1 1,-1z"/>
    <path class="fil11" d="M81 60l1 0c0,0 1,0 1,0 0,1 -1,1 -1,1l-1 0c0,0 -1,0 -1,-1 0,0 1,0 1,0z"/>
   </g>
   <g>
    <path class="fil12" d="M20 56c0,0 -1,0 -1,0l0 0c-1,0 -1,0 -1,0 0,1 0,1 0,1l4 25 22 0 4 -25c0,0 0,0 -1,-1 0,0 0,0 0,0l-1 0c0,0 -1,0 -1,0l-25 0z"/>
    <path class="fil9" d="M35 65c-2,0 -4,0 -5,-1l0 0 0 -17c0,0 0,-1 0,-1l4 0c0,0 1,1 1,1l0 18 0 0z"/>
    <path class="fil9" d="M25 52l0 9c-1,0 -2,-1 -2,-2 -1,-2 -2,-3 -3,-3l0 -3c0,0 0,-1 0,-1l5 0z"/>
    <path class="fil13" d="M30 48l0 16 0 0 0 0c-2,0 -4,-1 -5,-3l0 -12c0,0 0,-1 0,-1l5 0z"/>
    <path class="fil13" d="M40 62c-2,2 -3,2 -5,3l0 0 0 -17 4 0c0,0 1,1 1,1l0 13 0 0z"/>
    <path class="fil9" d="M45 52l0 4c-1,1 -2,2 -3,3 0,1 -1,2 -2,3l0 0 0 0 0 -11 4 0c0,0 1,1 1,1z"/>
    <path class="fil6" d="M32 69c3,0 5,2 5,5 0,2 -2,4 -5,4 -2,0 -4,-2 -4,-4 0,-3 2,-5 4,-5z"/>
   </g>
   <path class="fil2 str0" d="M23 22c4,-1 8,-1 12,-2l14 1c1,0 2,1 2,2l0 0c0,1 -1,2 -2,2 -5,0 -9,-1 -14,-1l-12 2c-1,0 -2,-1 -2,-2l0 0c0,-1 1,-2 2,-2z"/>
   <path class="fil2 str0" d="M23 33c4,0 8,-1 12,-1l14 0c1,0 2,1 2,2l0 0c0,1 -1,2 -2,2 -5,0 -9,0 -14,-1l-12 2c-1,0 -2,-1 -2,-2l0 0c0,-1 1,-2 2,-2z"/>
   <path class="fil2 str0" d="M68 31c2,-1 4,-1 6,-2l7 1c1,0 1,1 1,2l0 0c0,1 0,2 -1,2 -2,0 -4,-1 -7,-1l-6 2c-1,0 -1,-1 -1,-2l0 0c0,-1 0,-2 1,-2z"/>
   <path class="fil2 str0" d="M68 42c2,0 4,-1 6,-2l7 1c1,0 1,1 1,2l0 0c0,1 0,2 -1,2 -2,0 -4,0 -7,-1l-6 2c-1,0 -1,-1 -1,-2l0 0c0,-1 0,-2 1,-2z"/>
  </g>
 </g>
</svg>
