<?xml version="1.0" encoding="UTF-8"?>
<!DOCTYPE svg PUBLIC "-//W3C//DTD SVG 1.1//EN" "http://www.w3.org/Graphics/SVG/1.1/DTD/svg11.dtd">
<!-- Creator: CorelDRAW X7 -->
<svg xmlns="http://www.w3.org/2000/svg" xml:space="preserve" width="120px" height="120px" version="1.1" style="shape-rendering:geometricPrecision; text-rendering:geometricPrecision; image-rendering:optimizeQuality; fill-rule:evenodd; clip-rule:evenodd"
viewBox="0 0 120 120"
 xmlns:xlink="http://www.w3.org/1999/xlink">
 <defs>
  <style type="text/css">
   <![CDATA[
    .fil0 {fill:none}
    .fil1 {fill:#FEFEFE}
    .fil6 {fill:#A98F71}
    .fil4 {fill:#51A8B1}
    .fil3 {fill:#2887D2}
    .fil7 {fill:#F0A71F}
    .fil5 {fill:#FFCB68}
    .fil8 {fill:#FEFEFE;fill-rule:nonzero}
    .fil2 {fill:#2887D2;fill-rule:nonzero}
    .fil9 {fill:url(#id0);fill-rule:nonzero}
   ]]>
  </style>
  <linearGradient id="id0" gradientUnits="userSpaceOnUse" x1="82.9469" y1="102.384" x2="101.781" y2="69.4207">
   <stop offset="0" style="stop-opacity:1; stop-color:#7A0606"/>
   <stop offset="1" style="stop-opacity:1; stop-color:red"/>
  </linearGradient>
 </defs>
 <g id="Layer_x0020_1">
  <metadata id="CorelCorpID_0Corel-Layer"/>
  <rect class="fil0" width="120" height="120"/>
  <g id="_881862592">
   <g>
    <g>
     <g>
      <g>
       <g>
        <path class="fil1" d="M79 11l0 86c0,0 -68,-2 -68,0 0,2 0,-69 0,-69l11 -16 1 -1c0,0 56,0 56,0z"/>
        <path id="1" class="fil2" d="M80 97l-1 2 -2 -2 0 -86 3 0 0 86zm0 0l0 2 -1 0 1 -2zm-70 0l0 0 1 -2 1 0 1 0 1 0 2 0 2 -1 2 0 2 0 2 0 3 0 3 0 3 0 3 0 3 0 3 0 3 0 3 0 3 0 4 0 3 0 2 0 3 0 3 0 2 0 3 1 2 0 2 0 1 0 1 0 1 0 1 0 0 0 0 4 0 -1 -1 0 -1 0 -1 0 -2 0 -1 0 -2 0 -3 0 -2 0 -3 0 -3 0 -2 0 -3 0 -4 0 -3 0 -3 0 -3 0 -3 0 -3 0 -3 0 -3 0 -3 0 -3 0 -2 0 -2 0 -2 0 -2 0 -2 0 -1 1 -1 0 0 0 1 -2 0 0 -3 0zm2 -68l1 -1 0 0 0 0 0 1 0 2 0 1 0 2 0 2 0 3 0 2 0 3 0 3 0 3 0 3 0 3 0 4 0 3 0 3 0 4 0 3 0 3 0 3 0 3 0 2 0 3 0 2 0 2 0 2 0 2 0 1 0 1 0 0 -3 0 3 0 -3 0 0 0 0 -1 0 -1 0 -2 0 -2 0 -2 0 -2 0 -3 0 -2 0 -3 0 -3 0 -3 0 -3 0 -4 0 -3 0 -3 0 -3 0 -4 0 -3 0 -3 0 -3 0 -3 0 -2 0 -3 0 -2 0 -2 0 -1 0 -2 0 0 0 -1 0 0 0 -2 2 3zm9 -18l0 -1 2 3 -11 16 -2 -3 11 -15zm0 0l0 0 0 -1 0 1zm1 -1l1 -1 1 3 -1 1 -2 -3 1 0zm0 0l0 -1 1 0 -1 1zm55 1l0 0 1 2 0 0 -1 0 -1 0 -1 0 -2 0 -1 0 -2 0 -2 0 -2 0 -3 0 -2 0 -3 0 -2 0 -3 0 -2 0 -3 0 -2 0 -3 0 -2 0 -3 0 -2 0 -2 0 -2 0 -2 0 -2 0 -1 0 -2 0 -1 0 0 0 -1 0 0 0 0 -4 0 0 1 0 0 0 1 0 2 0 1 0 2 0 2 0 2 0 2 0 2 0 3 0 2 0 3 0 2 0 3 0 2 0 3 0 2 0 3 0 2 0 3 0 2 0 2 0 2 0 1 0 2 0 1 0 1 0 1 0 1 0 1 2 0 0 -3 0z"/>
       </g>
       <g>
        <path class="fil3" d="M23 12l1 11c0,0 0,4 -2,4 -2,1 -11,1 -11,1l12 -17 0 1z"/>
        <path id="1" class="fil2" d="M24 23l-1 0 0 0 0 -11 0 0 1 11zm-1 0l0 0 0 0 0 0zm-1 4l0 0 0 0 0 0 0 0 0 0 0 0 1 -1 0 0 0 0 0 0 0 0 0 0 0 0 0 -1 0 0 0 0 0 0 0 0 0 0 0 -1 0 0 0 0 0 0 0 0 0 0 0 0 0 -1 0 0 0 0 0 0 0 0 0 0 0 0 1 0 0 0 0 0 0 0 0 0 0 0 0 0 0 1 0 0 0 0 0 0 0 0 0 0 0 0 0 1 0 0 0 0 0 0 0 0 0 1 0 0 -1 0 0 0 0 0 0 0 0 1 0 0 0 0 0 0 -1 0 0 0 0 0 0 0 0 0 0 0zm-11 1l0 -1 0 0 0 0 0 0 0 0 0 0 1 0 0 0 0 0 1 0 0 0 0 0 1 0 0 0 1 0 0 0 0 0 1 0 0 0 1 0 0 0 1 0 0 0 1 0 0 0 0 0 1 0 0 0 1 0 0 0 0 0 0 0 1 0 0 0 0 0 -1 1 0 0 0 0 -1 0 0 0 0 0 -1 0 0 0 -1 0 0 0 -1 0 0 0 -1 0 0 0 -1 0 0 0 0 0 -1 0 0 0 -1 0 0 0 0 0 -1 0 0 0 0 0 -1 0 0 0 0 0 0 0 0 0 0 0 0 -1 0 1zm12 -17l0 0 0 0 -12 17 0 -1 12 -16zm0 0l0 -1 0 1 0 0zm0 1l0 0 0 0 0 -1 0 0 0 1zm0 0l0 0 0 0 0 0z"/>
       </g>
      </g>
      <rect class="fil3" transform="matrix(0.604158 -0.00197362 -0.00274134 -0.695445 20.7041 54.0667)" width="81.252" height="7.29227"/>
      <rect class="fil3" transform="matrix(0.604158 -0.00197362 -0.00274134 -0.695445 20.6671 44.6801)" width="81.252" height="7.29227"/>
      <rect class="fil3" transform="matrix(0.412913 -0.00134887 -0.00274134 -0.695445 36.1672 34.7362)" width="81.252" height="7.29227"/>
      <rect class="fil3" transform="matrix(0.604158 -0.00197362 -0.00274134 -0.695445 20.7436 64.092)" width="81.252" height="7.29227"/>
      <rect class="fil3" transform="matrix(0.604158 -0.00197362 -0.00274134 -0.695445 20.7832 74.1173)" width="81.252" height="7.29227"/>
      <rect class="fil3" transform="matrix(0.604158 -0.00197362 -0.00274134 -0.695445 20.8222 84.022)" width="81.252" height="7.29227"/>
     </g>
     <g>
      <g>
       <path class="fil1" d="M70 18l0 86c0,0 -67,-1 -67,1 0,1 -1,-70 -1,-70l11 -16 1 0c0,0 56,-1 56,-1z"/>
       <path id="1" class="fil2" d="M72 104l-2 2 -1 -2 -1 -86 3 0 1 86zm0 0l0 2 -2 0 2 -2zm-71 1l0 0 1 -2 1 -1 1 0 1 0 2 0 2 0 2 0 2 0 3 0 2 0 3 0 3 0 3 0 3 0 3 0 3 0 4 0 3 0 3 0 3 0 3 0 3 0 2 0 3 0 2 0 2 0 2 0 1 0 2 0 1 0 0 0 0 0 0 4 0 0 -1 0 0 0 -2 0 -1 0 -2 0 -2 0 -2 0 -3 0 -2 0 -3 0 -3 0 -3 0 -3 0 -3 0 -4 0 -3 -1 -3 0 -3 0 -3 0 -3 0 -3 1 -2 0 -3 0 -2 0 -2 0 -2 0 -1 0 -2 0 0 0 -1 0 1 -1 0 0 -3 0zm2 -69l1 -1 0 0 0 1 0 1 0 1 0 2 0 2 0 2 0 2 0 3 0 3 0 3 0 3 0 3 0 3 0 3 0 3 0 4 0 3 0 3 0 3 0 3 0 3 0 3 0 2 0 3 0 2 0 2 0 1 0 1 0 1 0 0 -3 1 3 0 -3 -1 0 0 0 -1 0 -1 0 -1 0 -2 0 -2 0 -3 0 -2 0 -3 0 -3 0 -3 0 -3 0 -3 0 -3 0 -3 0 -4 0 -3 0 -3 0 -3 0 -3 0 -3 0 -3 0 -3 0 -2 0 -2 0 -2 0 -2 0 -1 0 -1 0 -1 0 0 0 -1 2 2zm9 -18l0 0 3 3 -12 15 -2 -2 11 -16zm0 0l0 0 0 0 0 0zm1 -1l1 0 1 3 0 1 -3 -3 1 -1zm0 0l1 0 0 0 -1 0zm55 1l0 0 2 2 -1 0 0 0 -1 0 -2 0 -1 0 -2 0 -2 0 -2 0 -2 0 -2 0 -3 0 -2 0 -3 0 -2 0 -3 0 -3 0 -2 0 -3 0 -2 0 -3 0 -2 0 -2 0 -2 0 -2 0 -2 0 -1 0 -1 0 -1 0 -1 0 -1 0 0 0 0 -3 0 0 1 0 1 0 1 0 1 0 1 0 2 0 2 0 2 0 2 0 2 0 3 -1 2 0 3 0 2 0 3 0 3 0 2 0 3 0 2 0 3 0 2 0 2 0 2 0 2 0 2 0 1 0 2 0 1 0 0 0 1 1 1 1 0 0 -3 0zm3 0l0 0 0 0 0 0z"/>
      </g>
      <g>
       <path class="fil3" d="M14 19l1 12c0,0 0,3 -2,4 -2,0 -11,0 -11,0l12 -17 0 1z"/>
       <path id="1" class="fil2" d="M15 31l0 0 0 0 -1 -12 0 0 1 12zm0 0l0 0 0 0 0 0zm-2 3l0 0 0 0 0 0 0 0 1 0 0 0 0 0 0 0 0 0 0 -1 0 0 0 0 0 0 0 0 0 0 1 -1 0 0 0 0 0 0 0 0 0 0 0 -1 0 0 0 0 0 0 0 0 0 0 0 0 0 0 0 0 0 0 0 0 0 0 0 0 0 0 0 0 0 0 0 0 0 0 0 0 0 0 0 0 0 0 0 0 0 1 0 0 0 0 0 0 0 0 0 0 0 1 0 0 0 0 0 0 0 0 0 1 0 0 -1 0 0 0 0 0 0 0 0 0 0 1 -1 0 0 0 0 0 0 0 0 -1zm-11 1l0 0 0 0 0 0 0 0 0 0 1 0 0 0 0 0 0 0 1 0 0 0 0 0 1 0 0 0 1 0 0 0 1 0 0 0 1 0 0 0 1 0 0 0 0 0 1 0 0 0 1 0 0 0 0 0 1 0 0 0 0 0 1 0 0 -1 0 1 0 0 0 0 -1 0 0 0 0 0 -1 0 0 0 -1 0 0 0 -1 0 0 0 0 0 -1 0 0 0 -1 0 0 0 -1 0 0 0 -1 0 0 0 -1 0 0 0 0 0 -1 0 0 0 0 0 0 0 -1 0 0 0 0 0 0 0 0 0 0 0 0 0zm12 -17l0 0 0 0 -12 17 0 0 12 -17zm0 0l0 -1 0 1 0 0zm0 1l0 0 0 0 0 -1 0 0 0 1zm0 0l0 0 0 0 0 0z"/>
      </g>
     </g>
    </g>
    <g>
     <rect class="fil4" x="17" y="34" width="43.627" height="5.67484"/>
     <rect class="fil4" x="17" y="45" width="43.6278" height="5.67484"/>
     <rect class="fil4" x="17" y="58" width="43.6278" height="5.67484"/>
     <rect class="fil4" x="17" y="71" width="43.6278" height="5.67484"/>
     <rect class="fil4" x="17" y="86" width="43.6278" height="5.67484"/>
    </g>
   </g>
   <g>
    <g>
     <rect class="fil5" x="41" y="60" width="48.9001" height="48.9003"/>
     <rect class="fil6" x="58" y="63" width="15.9359" height="2.83762"/>
    </g>
    <path class="fil7" d="M41 61l12 -5 46 0 -9 4c0,0 -49,0 -49,1z"/>
    <path class="fil7" d="M90 109l9 -6c0,0 0,-47 0,-47 0,0 -9,4 -9,4l0 49z"/>
   </g>
   <g>
    <path class="fil8" d="M95 93l-28 0 0 -3 28 0 1 2 -1 1zm0 -3l1 0 0 2 -1 -2zm-2 11l0 -9 3 0 0 9 -1 1 -2 -1zm2 1l-2 1 0 -2 2 1zm24 -15l-24 15 -1 -2 23 -15 2 0 0 2zm0 -2l1 1 -1 1 0 -2zm-24 -15l24 15 -2 2 -23 -15 -1 -1 2 -1zm-2 1l0 -2 2 1 -2 1zm0 9l0 -9 3 0 0 9 -1 1 -2 -1zm3 0l0 1 -1 0 1 -1zm-29 -1l28 0 0 2 -28 0 -2 -1 2 -1zm-2 1l0 -1 2 0 -2 1zm0 12l0 -12 3 0 0 12 -1 1 -2 -1zm2 1l-2 0 0 -1 2 1z"/>
    <path id="1" class="fil9" d="M67 92l28 0 0 9 23 -15 -23 -15 0 9 -28 0 0 12zm14 0m14 4m11 -3m0 -15m-11 -2m-14 4m-14 6"/>
   </g>
  </g>
 </g>
</svg>
