<?xml version="1.0" encoding="UTF-8"?>
<!DOCTYPE svg PUBLIC "-//W3C//DTD SVG 1.1//EN" "http://www.w3.org/Graphics/SVG/1.1/DTD/svg11.dtd">
<!-- Creator: CorelDRAW X7 -->
<svg xmlns="http://www.w3.org/2000/svg" xml:space="preserve" width="120px" height="120px" version="1.1" style="shape-rendering:geometricPrecision; text-rendering:geometricPrecision; image-rendering:optimizeQuality; fill-rule:evenodd; clip-rule:evenodd"
viewBox="0 0 120 120"
 xmlns:xlink="http://www.w3.org/1999/xlink">
 <defs>
  <style type="text/css">
   <![CDATA[
    .fil0 {fill:none}
    .fil1 {fill:#FEFEFE}
    .fil7 {fill:#A98F71}
    .fil2 {fill:#2887D2}
    .fil8 {fill:#F0A71F}
    .fil6 {fill:#FFCB68}
    .fil9 {fill:#FEFEFE;fill-rule:nonzero}
    .fil5 {fill:#2887D2;fill-rule:nonzero}
    .fil4 {fill:#3D9AE2;fill-rule:nonzero}
    .fil3 {fill:#BDDBFF;fill-rule:nonzero}
    .fil10 {fill:url(#id0);fill-rule:nonzero}
   ]]>
  </style>
  <linearGradient id="id0" gradientUnits="userSpaceOnUse" x1="89.5636" y1="77.9862" x2="104.843" y2="51.2479">
   <stop offset="0" style="stop-opacity:1; stop-color:#7A0606"/>
   <stop offset="1" style="stop-opacity:1; stop-color:red"/>
  </linearGradient>
 </defs>
 <g id="Layer_x0020_1">
  <metadata id="CorelCorpID_0Corel-Layer"/>
  <rect class="fil0" width="120" height="120"/>
  <g id="_506414784">
   <g>
    <path class="fil1" d="M11 29c0,0 0,-3 1,-4 1,-1 1,-2 7,-2 5,0 51,1 51,1 0,0 -2,0 -3,2 0,1 0,22 0,22l0 44c0,0 0,3 -4,4 -4,1 -52,1 -52,1l0 -68z"/>
    <rect class="fil2" x="18" y="30" width="42.5334" height="4.49616"/>
    <rect class="fil2" x="18" y="40" width="35.6721" height="4.49616"/>
    <path class="fil3" d="M62 97l-54 0c-2,0 -5,-3 -5,-5l0 -5 53 0 0 5c0,1 1,2 2,3 1,1 2,2 4,2z"/>
    <path class="fil4" d="M69 22l-53 0c-4,0 -6,3 -6,6l0 57 -7 0c0,0 -1,1 -1,2l0 5c0,3 3,6 6,6l54 0c3,0 6,-3 6,-6l0 -20 0 0 0 -3 0 0 0 -10 0 -2 0 -1 0 -5 0 -2 0 -3 0 0 0 -6 0 0 0 -5 0 0 0 -3 0 0 0 -4c0,0 0,0 0,0 0,-5 5,-6 1,-6zm-4 27l0 5 0 3 0 19 0 4 0 2 0 10c0,2 -1,3 -3,3 -1,0 -2,0 -3,-1 -1,0 -1,-1 -1,-2l0 -5c0,-1 -1,-2 -2,-2l-44 0 0 -57c0,-2 2,-3 4,-3l51 0c-1,1 -2,2 -2,3l0 3 0 9 0 1 0 6 0 2zm-57 46c-2,0 -3,-1 -3,-3l0 -4 50 0 0 4c0,1 1,2 1,3l-48 0z"/>
    <path class="fil5" d="M28 75c-2,0 -3,1 -3,3 0,2 1,3 3,3 2,0 3,-1 3,-3 0,-2 -1,-3 -3,-3zm-10 -25l0 3 4 0 5 12 -2 4c0,1 0,1 0,2 0,2 1,3 3,3l20 0 0 -3 -19 0c0,0 -1,0 -1,0l0 -1 2 -2 12 0c1,0 2,-1 3,-2 1,-1 6,-11 6,-11 0,-1 -1,-2 -2,-2l-24 0 -1 -3 -6 0zm26 25c-1,0 -3,1 -3,3 0,2 2,3 3,3 2,0 4,-1 4,-3 0,-2 -2,-3 -4,-3z"/>
   </g>
   <g>
    <g>
     <g>
      <rect class="fil6" x="56" y="44" width="39.6703" height="39.6702"/>
      <rect class="fil7" x="69" y="46" width="12.928" height="2.30201"/>
     </g>
     <path class="fil8" d="M56 44l9 -4 37 0 -7 4c0,0 -39,0 -39,0z"/>
     <path class="fil8" d="M95 84l7 -5c0,0 0,-39 0,-39 0,0 -7,4 -7,4l0 40z"/>
    </g>
    <g>
     <path class="fil9" d="M99 70l-23 0 0 -2 23 0 1 1 -1 1zm0 -2l1 0 0 1 -1 -1zm-1 9l0 -8 2 0 0 8 0 1 -2 -1zm2 1l-2 1 0 -2 2 1zm19 -13l-19 13 -2 -2 19 -12 2 0 0 1zm0 -1l1 1 -1 0 0 -1zm-19 -12l19 12 -2 1 -19 -12 0 0 2 -1zm-2 1l0 -2 2 1 -2 1zm0 7l0 -7 2 0 0 7 -1 1 -1 -1zm2 0l0 1 -1 0 1 -1zm-24 -1l23 0 0 2 -23 0 -1 -1 1 -1zm-1 1l0 -1 1 0 -1 1zm0 9l0 -9 2 0 0 9 -1 1 -1 -1zm1 1l-1 0 0 -1 1 1z"/>
     <path id="1" class="fil10" d="M76 69l23 0 0 8 19 -12 -19 -12 0 7 -23 0 0 9zm12 0m11 4m9 -2m0 -12m-9 -3m-11 4m-12 5"/>
    </g>
   </g>
  </g>
 </g>
</svg>
