<?xml version="1.0" encoding="UTF-8"?>
<!DOCTYPE svg PUBLIC "-//W3C//DTD SVG 1.1//EN" "http://www.w3.org/Graphics/SVG/1.1/DTD/svg11.dtd">
<!-- Creator: CorelDRAW X7 -->
<svg xmlns="http://www.w3.org/2000/svg" xml:space="preserve" width="120px" height="120px" version="1.1" style="shape-rendering:geometricPrecision; text-rendering:geometricPrecision; image-rendering:optimizeQuality; fill-rule:evenodd; clip-rule:evenodd"
viewBox="0 0 120 120"
 xmlns:xlink="http://www.w3.org/1999/xlink">
 <defs>
  <style type="text/css">
   <![CDATA[
    .fil0 {fill:none}
    .fil1 {fill:#FEFEFE}
    .fil6 {fill:#A98F71}
    .fil2 {fill:#2887D2}
    .fil7 {fill:#F0A71F}
    .fil5 {fill:#FFCB68}
    .fil8 {fill:#FEFEFE;fill-rule:nonzero}
    .fil4 {fill:#3D9AE2;fill-rule:nonzero}
    .fil3 {fill:#BDDBFF;fill-rule:nonzero}
    .fil9 {fill:url(#id0);fill-rule:nonzero}
   ]]>
  </style>
  <linearGradient id="id0" gradientUnits="userSpaceOnUse" x1="84.5414" y1="78.6677" x2="102.518" y2="47.2072">
   <stop offset="0" style="stop-opacity:1; stop-color:#7A0606"/>
   <stop offset="1" style="stop-opacity:1; stop-color:red"/>
  </linearGradient>
 </defs>
 <g id="Layer_x0020_1">
  <metadata id="CorelCorpID_0Corel-Layer"/>
  <rect class="fil0" width="120" height="120"/>
  <g id="_690973504">
   <g>
    <path class="fil1" d="M13 24c0,0 -1,-4 1,-5 1,-1 1,-2 8,-2 6,-1 60,0 60,0 0,0 -3,1 -3,3 -1,1 -1,26 -1,26l0 52c0,0 0,4 -4,5 -5,1 -62,1 -62,1l1 -80z"/>
    <rect class="fil2" x="21" y="25" width="50.0453" height="5.29026"/>
    <rect class="fil2" x="21" y="40" width="41.9723" height="5.29026"/>
    <path class="fil3" d="M72 103l-63 0c-3,0 -6,-2 -6,-6l0 -6 63 0 0 6c0,2 1,3 2,4 1,2 2,2 4,2z"/>
    <path class="fil4" d="M81 15l-63 0c-4,0 -7,4 -7,8l0 67 -8 0c0,0 -1,0 -1,1l0 6c0,4 3,8 7,8l63 0c4,0 8,-4 8,-8l0 -23 0 0 0 -3 0 0 0 -12 0 -2 0 -1 0 -6 0 -3 0 -4 0 0 0 -7 0 0 0 -6 0 0 0 -3 0 0 0 -4c0,0 0,-1 0,-1 0,-5 5,-7 1,-7zm-4 32l0 6 0 4 0 22 0 5 0 1 0 12c0,3 -2,5 -5,5 -1,0 -2,-1 -3,-2 -1,0 -1,-2 -1,-3l0 -6c0,-1 -1,-1 -2,-1l-52 0 0 -67c0,-3 2,-5 4,-5l60 0c-1,2 -1,3 -1,5l0 3 0 10 0 2 0 6 0 3zm-68 55c-2,0 -4,-2 -4,-5l0 -4 60 0 0 4c0,2 0,3 1,5l-57 0z"/>
    <rect class="fil2" x="21" y="57" width="41.9723" height="5.29026"/>
    <rect class="fil2" x="21" y="76" width="41.9723" height="5.29026"/>
   </g>
   <g>
    <g>
     <g>
      <rect class="fil5" x="45" y="39" width="46.6765" height="46.6766"/>
      <rect class="fil6" x="60" y="42" width="15.2113" height="2.70858"/>
     </g>
     <path class="fil7" d="M45 39l11 -5 44 0 -9 5c0,0 -46,0 -46,0z"/>
     <path class="fil7" d="M91 85l9 -6c0,0 0,-45 0,-45 0,0 -9,5 -9,5l0 46z"/>
    </g>
    <g>
     <path class="fil8" d="M96 70l-27 0 0 -3 27 0 1 1 -1 2zm0 -3l1 0 0 1 -1 -1zm-2 10l0 -9 3 0 0 9 -1 1 -2 -1zm2 1l-2 1 0 -2 2 1zm23 -14l-23 14 -1 -2 22 -14 2 0 0 2zm0 -2l1 1 -1 1 0 -2zm-23 -14l23 14 -2 2 -22 -14 -1 -1 2 -1zm-2 1l0 -3 2 2 -2 1zm0 8l0 -8 3 0 0 8 -1 2 -2 -2zm3 0l0 2 -1 0 1 -2zm-28 -1l27 0 0 3 -27 0 -1 -2 1 -1zm-1 1l0 -1 1 0 -1 1zm0 11l0 -11 2 0 0 11 -1 2 -1 -2zm1 2l-1 0 0 -2 1 2z"/>
     <path id="1" class="fil9" d="M69 68l27 0 0 9 22 -14 -22 -14 0 8 -27 0 0 11zm13 0m14 5m11 -3m0 -14m-11 -3m-14 4m-13 6"/>
    </g>
   </g>
  </g>
 </g>
</svg>
