<svg xmlns="http://www.w3.org/2000/svg" width="120" height="120" shape-rendering="geometricPrecision" text-rendering="geometricPrecision" image-rendering="optimizeQuality" fill-rule="evenodd" clip-rule="evenodd"><defs><style>.fil7{fill:#a98f71}.fil8{fill:#f0a71f}.fil6{fill:#ffcb68}.fil12,.fil3,.fil9{fill:#4e4e53;fill-rule:nonzero}.fil12,.fil9{fill:#00a859}.fil9{fill:#2887d2}</style></defs><g id="Layer_x0020_1"><path fill="none" d="M0 0h120v120H0z"/><g id="_614591824"><path fill="#c8ccd4" fill-rule="nonzero" d="M8 105h84V15H8z"/><path fill="#a7acb6" fill-rule="nonzero" d="M8 41h84V15H8z"/><path class="fil3" d="M98 33H2l5-18h86z"/><path fill="#e8e9ec" fill-rule="nonzero" d="M15 105h70V49H15z"/><path fill="#fefefe" fill-rule="nonzero" d="M17 105h66V49H17z"/><path class="fil3" d="M14 50h71v-3H14zM14 105h66v-9H14z"/><path class="fil6" d="M22 84h14.1v14.1H22z"/><path class="fil7" d="M27 85h4.6v.8H27z"/><path class="fil8" d="M36 84l-3-1H19l3 1h14z"/><path class="fil8" d="M22 98l-3-1V83l3 1v14z"/><path class="fil6" d="M38 84h14.1v14.1H38z"/><path class="fil7" d="M43 85h4.6v.8H43z"/><path class="fil8" d="M52 84l-3-1H36l2 1h14z"/><path class="fil8" d="M38 98l-2-1V83l2 1v14z"/><g><path class="fil6" d="M36 70h14.1v14.1H36z"/><path class="fil7" d="M40 70h4.6v.8H40z"/><path class="fil8" d="M50 70l-4-2H33l3 2h14z"/><path class="fil8" d="M36 84l-3-2V68l3 2v14z"/></g><g><path class="fil9" d="M88 23c-2 0-3-1-3-3 0-1 1-2 3-2 1 0 2 1 2 2 0 2-1 3-2 3zm10-4h-4c0-2-3-3-6-3s-6 1-7 3h-4c-3 0-5 2-5 3v3h11c2 1 3 1 5 1 1 0 3 0 4-1h12v-3c0-1-3-3-6-3z"/><path class="fil9" d="M115 103H60c-1 0-3-1-3-2V28c0-2 2-3 3-3h55c2 0 3 1 3 3v73c0 1-1 2-3 2z"/><path fill="#fefefe" fill-rule="nonzero" d="M61 99h53V30H61z"/><path class="fil9" d="M70 44h-4v-4h4v4zm-5 1h7v-6h-7v6zM70 55h-4v-4h4v4zm-5 2h7v-7h-7v7zM70 67h-4v-5h4v5zm-5 1h7v-7h-7v7zM70 78h-4v-4h4v4zm-5 1h7v-6h-7v6zM70 89h-4v-4h4v4zm-5 2h7v-7h-7v7z"/><path class="fil9" d="M66 91h6v-7h-1l-1 1v4h-4z"/><path fill="#95a0b9" fill-rule="nonzero" d="M108 90H75v-5h33z"/><path class="fil9" d="M108 90H75v-5h33zM108 79H75v-6h33z"/><path class="fil9" d="M75 79h33v-6H79z"/><g><path class="fil9" d="M108 67H75v-6h33z"/><path class="fil9" d="M84 67h24v-6H88z"/></g><g><path class="fil9" d="M108 55H75v-5h33z"/><path class="fil9" d="M93 55h15v-5H98z"/></g><g><path class="fil9" d="M108 43H75v-5h33z"/><path class="fil9" d="M103 43h5v-5h-1z"/></g><path class="fil12" d="M65 40l3 3 8-8-2-2-6 7-2-2zM65 52l3 3 8-8-2-2-6 7-2-2zM65 63l3 4 8-8-2-2-6 6-2-1z"/></g><g><path class="fil6" d="M20 70h14.1v14.1H20z"/><path class="fil7" d="M25 70h4.6v.8H25z"/><path class="fil8" d="M34 70l-3-2H17l3 2h14z"/><path class="fil8" d="M20 84l-3-2V68l3 2v14z"/></g></g></g></svg>