<?xml version="1.0" encoding="UTF-8"?>
<!DOCTYPE svg PUBLIC "-//W3C//DTD SVG 1.1//EN" "http://www.w3.org/Graphics/SVG/1.1/DTD/svg11.dtd">
<!-- Creator: CorelDRAW X7 -->
<svg xmlns="http://www.w3.org/2000/svg" xml:space="preserve" width="120px" height="120px" version="1.1" style="shape-rendering:geometricPrecision; text-rendering:geometricPrecision; image-rendering:optimizeQuality; fill-rule:evenodd; clip-rule:evenodd"
viewBox="0 0 120 120"
 xmlns:xlink="http://www.w3.org/1999/xlink">
 <defs>
  <style type="text/css">
   <![CDATA[
    .fil0 {fill:none}
    .fil1 {fill:#FEFEFE}
    .fil6 {fill:#A98F71}
    .fil4 {fill:#2887D2}
    .fil7 {fill:#F0A71F}
    .fil3 {fill:#FC4D44}
    .fil5 {fill:#FFCB68}
    .fil8 {fill:#FEFEFE;fill-rule:nonzero}
    .fil2 {fill:#2887D2;fill-rule:nonzero}
    .fil9 {fill:url(#id0);fill-rule:nonzero}
   ]]>
  </style>
  <linearGradient id="id0" gradientUnits="userSpaceOnUse" x1="87.2131" y1="97.3507" x2="103.756" y2="68.4013">
   <stop offset="0" style="stop-opacity:1; stop-color:#7A0606"/>
   <stop offset="1" style="stop-opacity:1; stop-color:red"/>
  </linearGradient>
 </defs>
 <g id="Layer_x0020_1">
  <metadata id="CorelCorpID_0Corel-Layer"/>
  <rect class="fil0" width="120" height="120"/>
  <g id="_687124416">
   <g>
    <g>
     <g>
      <path class="fil1" d="M5 33l64 0c2,0 3,1 3,3l0 52c0,2 -1,3 -3,3l-64 0c-2,0 -3,-1 -3,-3l0 -52c0,-2 1,-3 3,-3z"/>
      <path id="1" class="fil2" d="M69 34l-64 0 0 -2 64 0 0 0 0 2zm4 2l-2 0 0 0 0 0 0 0 0 0 0 -1 0 0 0 0 0 0 0 0 0 0 0 0 0 0 0 0 0 0 0 0 0 -1 -1 0 0 0 0 0 0 0 0 0 0 0 0 0 0 0 0 0 0 0 0 0 0 0 0 0 0 0 0 0 -1 0 0 0 0 -2 1 0 0 0 0 0 0 0 0 0 1 0 0 0 0 0 0 0 0 0 0 0 1 0 0 1 0 0 0 0 0 0 0 0 0 0 1 0 0 1 0 0 0 0 0 0 0 0 0 0 0 1 0 0 0 0 0 0 0 1 0 0 0 0 0 0zm-2 52l0 -52 2 0 0 52 0 0 -2 0zm-2 4l0 -2 0 0 1 0 0 0 0 0 0 0 0 0 0 0 0 0 0 0 0 0 0 0 0 0 0 0 0 0 0 0 0 0 0 0 1 -1 0 0 0 0 0 0 0 0 0 0 0 0 0 0 0 0 0 0 0 0 0 -1 0 0 0 0 0 0 0 0 2 0 0 0 0 0 0 1 0 0 0 0 0 0 0 0 0 1 0 0 0 0 0 0 0 0 0 1 -1 0 0 0 0 0 0 0 0 0 0 0 0 1 -1 0 0 0 0 0 0 0 0 0 0 0 -1 0 0 0 0 0 0 0 0 0 -1 0 0 0zm-64 -2l64 0 0 2 -64 0 0 0 0 -2zm-4 -2l2 0 0 0 0 0 0 0 0 0 0 0 0 1 0 0 0 0 0 0 0 0 0 0 0 0 0 0 0 0 1 0 0 0 0 1 0 0 0 0 0 0 0 0 0 0 0 0 0 0 0 0 0 0 0 0 0 0 0 0 0 0 1 0 0 0 0 0 0 2 -1 0 0 0 0 0 0 0 0 0 -1 0 0 0 0 0 0 0 0 0 0 0 -1 0 0 -1 0 0 0 0 0 0 0 0 0 0 0 0 -1 -1 0 0 0 0 0 0 0 0 0 -1 0 0 0 0 0 0 0 0 0 -1 0 0 0 0 0 0zm2 -52l0 52 -2 0 0 -52 0 0 2 0zm2 -4l0 2 0 0 0 0 0 0 0 0 -1 0 0 0 0 0 0 0 0 0 0 0 0 0 0 0 0 0 0 0 0 0 0 0 0 0 0 0 0 1 -1 0 0 0 0 0 0 0 0 0 0 0 0 0 0 0 0 0 0 0 0 1 0 0 0 0 0 0 -2 0 0 0 0 0 0 -1 0 0 0 0 0 0 0 -1 0 0 0 0 0 0 0 0 1 0 0 -1 0 0 0 0 0 0 0 0 0 0 0 0 1 -1 0 0 0 0 0 0 0 0 0 0 1 0 0 0 0 0 0 0 0 0 1 0 0 0 0 0z"/>
     </g>
     <path class="fil3" d="M6 25l62 0c2,0 4,1 4,4l0 10 -70 0 0 -10c0,-3 2,-4 4,-4z"/>
     <g>
      <rect class="fil4" x="16" y="17" width="5.50039" height="16.0121" rx="1" ry="2"/>
      <rect class="fil4" x="28" y="17" width="5.50039" height="16.0121" rx="1" ry="2"/>
      <rect class="fil4" x="41" y="17" width="5.50039" height="16.0121" rx="1" ry="2"/>
      <rect class="fil4" x="53" y="17" width="5.50039" height="16.0121" rx="1" ry="2"/>
     </g>
     <rect class="fil1" x="56" y="59" width="6.78515" height="7.20601"/>
     <rect class="fil1" x="56" y="76" width="6.78515" height="7.20601"/>
     <rect class="fil1" x="56" y="43" width="6.78515" height="7.20601"/>
     <rect class="fil4" x="27" y="43" width="6.78515" height="7.20601"/>
     <rect class="fil4" x="12" y="43" width="6.78515" height="7.20601"/>
     <rect class="fil4" x="42" y="43" width="6.78515" height="7.20601"/>
    </g>
    <path class="fil2" d="M23 80c-2,0 -3,1 -3,3 0,2 1,3 3,3 1,0 3,-1 3,-3 0,-2 -2,-3 -3,-3zm-10 -24l0 3 3 0 6 12 -2 4c0,0 0,1 0,1 0,2 1,3 3,3l19 0 0 -3 -19 0c0,0 0,0 0,0l0 0 1 -3 12 0c1,0 2,-1 3,-1 1,-2 6,-11 6,-12 0,0 -1,-1 -2,-1l-23 0 -2 -3 -5 0zm26 24c-2,0 -4,1 -4,3 0,2 2,3 4,3 1,0 3,-1 3,-3 0,-2 -2,-3 -3,-3z"/>
   </g>
   <g id="_687123768">
    <g>
     <g>
      <rect class="fil5" x="50" y="60" width="42.9495" height="42.9495"/>
      <rect class="fil6" x="65" y="63" width="13.9967" height="2.49231"/>
     </g>
     <path class="fil7" d="M50 61l11 -5 40 0 -8 4c0,0 -42,0 -43,1z"/>
     <path class="fil7" d="M93 103l8 -5c0,0 0,-42 0,-42 0,0 -8,4 -8,4l0 43z"/>
    </g>
    <g>
     <path class="fil8" d="M97 89l-24 0 0 -2 24 0 2 1 -2 1zm0 -2l2 0 0 1 -2 -1zm-1 9l0 -8 3 0 0 8 -1 1 -2 -1zm2 1l-2 1 0 -2 2 1zm21 -13l-21 13 -1 -2 20 -13 2 0 0 2zm0 -2l1 1 -1 1 0 -2zm-21 -13l21 13 -2 2 -20 -13 -1 -1 2 -1zm-2 1l0 -2 2 1 -2 1zm0 8l0 -8 3 0 0 8 -2 1 -1 -1zm3 0l0 1 -2 0 2 -1zm-26 -1l24 0 0 2 -24 0 -1 -1 1 -1zm-1 1l0 -1 1 0 -1 1zm0 10l0 -10 2 0 0 10 -1 1 -1 -1zm1 1l-1 0 0 -1 1 1z"/>
     <path id="1" class="fil9" d="M73 88l24 0 0 8 21 -13 -21 -13 0 8 -24 0 0 10zm12 0m12 4m11 -3m0 -13m-11 -2m-12 4m-12 5"/>
    </g>
   </g>
  </g>
 </g>
</svg>
