<svg xmlns="http://www.w3.org/2000/svg" width="120" height="120" shape-rendering="geometricPrecision" text-rendering="geometricPrecision" image-rendering="optimizeQuality" fill-rule="evenodd" clip-rule="evenodd"><defs><style>.fil9{fill:#f0a71f}.fil2,.fil5,.fil6{fill:#51a8b1;fill-rule:nonzero}.fil2,.fil6{fill:#00a859}.fil2{fill:#2887d2}</style></defs><g id="Layer_x0020_1"><path fill="none" d="M0 0h120v120H0z"/><g id="_672218784"><path d="M76 11c-2 0-3-1-3-3 0-1 1-3 3-3 1 0 3 2 3 3 0 2-2 3-3 3zm13-4h-5c-1-3-4-5-8-5s-8 2-9 5h-5c-3 0-6 2-6 4v3h14c2 1 4 2 6 2s4-1 5-2h15v-3c0-2-3-4-7-4z" fill="#00afef" fill-rule="nonzero"/><path class="fil2" d="M111 113H41c-2 0-4-1-4-3V17c0-1 2-3 4-3h70c2 0 3 2 3 3v93c0 2-1 3-3 3z"/><path fill="#fefefe" fill-rule="nonzero" d="M42 108h68V21H42z"/><path class="fil2" d="M47 37h43v-7H47zM47 52h43v-7H47zM47 67h43v-7H47zM47 82h43v-7H47z"/><path fill="#95a0b9" fill-rule="nonzero" d="M47 97h43v-7H47z"/><path class="fil5" d="M95 38h6v-5h-6v5zm7 2h-8v-8h8v8zM95 53h6v-6h-6v6zm7 1h-8v-8h8v8zM95 67h6v-6h-6v6zm7 1h-8v-8h8v8zM95 81h6v-5h-6v5zm7 2h-8v-9h8v9zM95 96h6v-6h-6v6zm7 1h-8v-8h8v8z"/><path class="fil6" d="M93 33l5 4 10-10-2-2-8 8-3-3zM93 48l5 4 10-10-2-2-8 8-3-3zM93 63l5 4 10-10-2-2-8 8-3-3z"/><path class="fil2" d="M47 97h43v-7H47z"/><g><path fill="#ffcb68" d="M6 63h55.2v55.2H6z"/><path fill="#a98f71" d="M24 66h18v3.2H24z"/><path class="fil9" d="M6 63l13-5h52l-10 5H6z"/><path class="fil9" d="M61 118l10-7V58l-10 5v55z"/></g></g></g></svg>