<?xml version="1.0" encoding="UTF-8"?>
<!DOCTYPE svg PUBLIC "-//W3C//DTD SVG 1.1//EN" "http://www.w3.org/Graphics/SVG/1.1/DTD/svg11.dtd">
<!-- Creator: CorelDRAW X7 -->
<svg xmlns="http://www.w3.org/2000/svg" xml:space="preserve" width="120px" height="120px" version="1.1" style="shape-rendering:geometricPrecision; text-rendering:geometricPrecision; image-rendering:optimizeQuality; fill-rule:evenodd; clip-rule:evenodd"
viewBox="0 0 120 120"
 xmlns:xlink="http://www.w3.org/1999/xlink">
 <defs>
  <style type="text/css">
   <![CDATA[
    .fil0 {fill:none}
    .fil1 {fill:#FEFEFE}
    .fil6 {fill:#A98F71}
    .fil4 {fill:#51A8B1}
    .fil3 {fill:#2887D2}
    .fil7 {fill:#F0A71F}
    .fil5 {fill:#FFCB68}
    .fil9 {fill:#FEFEFE;fill-rule:nonzero}
    .fil2 {fill:#2887D2;fill-rule:nonzero}
    .fil10 {fill:url(#id0);fill-rule:nonzero}
    .fil8 {fill:url(#id1);fill-rule:nonzero}
   ]]>
  </style>
  <linearGradient id="id0" gradientUnits="userSpaceOnUse" x1="59.8122" y1="85.8584" x2="117.503" y2="83.2764">
   <stop offset="0" style="stop-opacity:1; stop-color:#0063D4"/>
   <stop offset="1" style="stop-opacity:1; stop-color:#1CC8EB"/>
  </linearGradient>
  <linearGradient id="id1" gradientUnits="userSpaceOnUse" xlink:href="#id0" x1="117.503" y1="42.9882" x2="59.8122" y2="45.5702">
  </linearGradient>
 </defs>
 <g id="Layer_x0020_1">
  <metadata id="CorelCorpID_0Corel-Layer"/>
  <rect class="fil0" width="120" height="120"/>
  <g id="_631167176">
   <g>
    <g>
     <g>
      <g>
       <g>
        <g>
         <path class="fil1" d="M83 4l0 90c0,0 -71,-1 -71,0 0,2 0,-73 0,-73l11 -16 1 -1c0,0 59,-1 59,0z"/>
         <path id="1" class="fil2" d="M85 94l-2 2 -1 -2 -1 -90 3 0 1 90zm0 0l0 2 -2 0 2 -2zm-75 0l0 0 2 -2 1 0 1 0 1 0 2 0 1 0 3 0 2 0 3 0 2 -1 3 0 3 0 4 0 3 0 3 0 4 0 3 1 3 0 3 0 4 0 3 0 3 0 2 0 3 0 2 0 3 0 1 0 2 0 1 0 1 0 1 0 0 0 0 4 0 0 -1 0 -1 0 -1 0 -2 0 -1 0 -3 0 -2 0 -3 0 -2 0 -3 0 -3 0 -4 0 -3 0 -3 0 -3 0 -4 -1 -3 0 -3 0 -4 0 -3 0 -3 1 -2 0 -3 0 -2 0 -2 0 -2 0 -2 0 -1 0 -1 0 0 0 1 -2 0 0 -4 0zm3 -71l0 -2 0 1 0 0 0 1 0 2 0 1 0 2 0 2 0 3 0 3 0 3 0 3 0 3 0 3 0 4 0 3 0 4 0 3 0 3 0 4 0 3 0 3 0 3 0 3 0 3 0 2 1 2 0 2 0 2 0 1 0 1 0 0 -4 0 4 0 -4 0 0 0 0 -1 0 -1 0 -2 0 -2 0 -2 0 -2 0 -3 0 -3 0 -3 0 -3 0 -3 0 -3 0 -4 0 -3 0 -4 0 -3 0 -4 0 -3 0 -3 0 -3 0 -3 0 -3 0 -2 0 -3 0 -2 0 -1 0 -2 0 -1 0 0 0 -1 0 -1 3 3zm9 -20l0 0 3 3 -12 17 -3 -3 12 -17zm0 0l0 0 0 0 0 0zm1 -1l1 0 1 3 -1 1 -2 -3 1 -1zm0 0l0 0 1 0 -1 0zm58 2l0 0 1 2 0 0 -1 0 -1 0 -1 0 -2 0 -1 0 -2 0 -3 0 -2 0 -2 0 -3 0 -2 0 -3 0 -3 0 -3 0 -2 0 -3 0 -3 0 -2 0 -3 0 -2 0 -3 0 -2 0 -2 0 -1 0 -2 0 -1 0 -1 0 -1 0 -1 0 0 0 0 -4 0 0 1 0 1 0 1 0 1 0 2 0 1 0 2 0 2 0 3 0 2 0 3 0 2 0 3 0 3 0 2 0 3 0 3 0 3 0 2 0 3 0 2 0 2 0 3 0 2 0 1 0 2 0 1 0 1 0 1 0 1 0 1 2 0 0 -3 0z"/>
        </g>
        <g>
         <path class="fil3" d="M24 5l1 11c0,0 0,4 -2,5 -3,0 -12,0 -12,0l13 -18 0 2z"/>
         <path id="1" class="fil2" d="M25 16l0 0 0 0 -1 -11 0 0 1 11zm0 0l0 0 0 0 0 0zm-2 5l0 0 0 0 0 -1 0 0 0 0 1 0 0 0 0 0 0 0 0 0 0 -1 0 0 0 0 0 0 0 0 0 -1 0 0 1 0 0 0 0 0 0 0 0 -1 0 0 0 0 0 0 0 0 0 0 0 0 0 0 0 0 0 -1 0 0 0 0 0 0 0 0 0 0 0 1 0 0 0 0 0 0 0 0 0 0 0 0 0 0 0 0 0 1 0 0 0 0 0 0 0 0 0 1 0 0 0 0 0 0 0 0 0 1 -1 0 0 0 0 0 0 0 0 0 0 1 0 0 -1 0 0 0 0 0 0 0 0 0zm-12 0l0 0 0 0 0 0 1 0 0 0 0 0 0 0 0 0 1 0 0 0 0 0 1 0 0 0 1 0 0 0 1 0 0 0 1 0 0 0 1 0 0 0 1 0 0 0 1 0 0 0 0 0 1 0 0 0 1 0 0 0 0 0 1 0 0 0 0 0 0 0 -1 0 0 0 0 0 -1 0 0 0 -1 0 0 0 0 0 -1 0 0 0 -1 0 0 0 -1 0 0 0 -1 0 0 0 -1 0 0 0 -1 0 0 0 -1 0 0 0 0 0 -1 0 0 0 0 0 0 0 -1 0 0 0 0 0 0 0 0 0 0 0zm13 -18l0 0 0 0 -13 18 0 0 13 -18zm0 0l0 0 0 0 0 0zm0 2l0 0 0 0 0 -2 0 0 0 2zm0 0l0 0 0 0 0 0z"/>
        </g>
       </g>
       <rect class="fil3" transform="matrix(0.637163 -0.00208143 -0.0028911 -0.733434 21.7275 49.1133)" width="81.252" height="7.29227"/>
       <rect class="fil3" transform="matrix(0.637163 -0.00208143 -0.0028911 -0.733434 21.6885 39.2139)" width="81.252" height="7.29227"/>
       <rect class="fil3" transform="matrix(0.43547 -0.00142256 -0.0028911 -0.733434 38.0353 28.7268)" width="81.252" height="7.29227"/>
       <rect class="fil3" transform="matrix(0.637163 -0.00208143 -0.0028911 -0.733434 21.7692 59.6862)" width="81.252" height="7.29227"/>
       <rect class="fil3" transform="matrix(0.637163 -0.00208143 -0.0028911 -0.733434 21.8109 70.2591)" width="81.252" height="7.29227"/>
       <rect class="fil3" transform="matrix(0.637163 -0.00208143 -0.0028911 -0.733434 21.8521 80.7049)" width="81.252" height="7.29227"/>
      </g>
      <g>
       <g>
        <path class="fil1" d="M74 12l0 90c0,0 -71,-2 -71,0 0,2 -1,-73 -1,-73l12 -17 1 0c0,0 59,-1 59,0z"/>
        <path id="1" class="fil2" d="M76 102l-2 2 -2 -2 0 -90 3 0 1 90zm0 0l0 2 -2 0 2 -2zm-75 0l0 0 1 -2 1 0 1 0 2 0 1 0 2 0 2 -1 3 0 2 0 3 0 3 0 3 0 3 0 4 0 3 0 3 0 4 0 3 0 3 0 3 0 4 0 2 1 3 0 3 0 2 0 2 0 2 0 2 0 1 0 1 0 1 0 0 0 0 4 0 0 -1 0 -1 0 -1 0 -2 0 -2 0 -2 0 -2 0 -3 0 -3 0 -3 0 -3 -1 -3 0 -3 0 -3 0 -4 0 -3 0 -3 0 -4 0 -3 0 -3 0 -3 0 -3 0 -2 0 -3 1 -2 0 -2 0 -1 0 -1 0 -1 0 -1 0 1 -2 0 0 -3 0zm3 -71l0 -2 0 0 0 1 0 1 0 1 0 2 0 2 0 2 0 3 0 3 0 3 0 3 0 3 0 3 0 4 0 3 0 3 0 4 0 3 0 4 0 3 0 3 0 3 0 3 0 3 0 2 0 2 0 2 0 2 0 1 0 1 0 0 -3 0 3 0 -3 0 0 0 0 -1 0 -1 0 -2 0 -2 0 -2 0 -2 0 -3 0 -3 0 -3 0 -3 0 -3 0 -4 0 -3 0 -4 0 -3 0 -3 0 -4 0 -3 0 -3 0 -3 0 -3 0 -3 0 -3 0 -2 0 -2 0 -2 0 -1 0 -1 0 -1 0 0 0 -1 3 3zm9 -20l0 0 2 3 -11 17 -3 -3 12 -17zm0 0l0 0 0 0 0 0zm1 -1l1 0 1 3 -1 1 -2 -3 1 -1zm0 0l0 0 1 0 -1 0zm58 2l0 0 1 2 0 0 -1 -1 -1 0 -1 0 -2 0 -2 0 -2 0 -2 0 -2 0 -2 0 -3 0 -3 0 -2 0 -3 0 -3 0 -3 0 -2 0 -3 1 -3 0 -2 0 -3 0 -2 0 -2 0 -2 0 -2 0 -1 0 -2 0 -1 0 0 0 -1 0 0 0 0 -4 0 0 1 0 0 0 1 0 2 0 1 0 2 0 2 0 2 0 2 0 3 -1 2 0 3 0 3 0 2 0 3 0 3 0 3 0 2 0 3 0 3 0 2 0 2 0 2 0 2 0 2 0 2 0 1 0 1 0 1 0 1 0 1 3 0 0 -3 0z"/>
       </g>
       <g>
        <path class="fil3" d="M15 13l1 11c0,0 0,4 -2,5 -3,0 -12,0 -12,0l13 -18 0 2z"/>
        <path id="1" class="fil2" d="M16 24l-1 0 0 0 0 -11 0 0 1 11zm-1 0l0 0 0 0 0 0zm-2 4l0 0 1 0 0 0 0 0 0 0 0 0 0 0 1 0 0 0 0 -1 0 0 0 0 0 0 0 0 0 0 0 -1 0 0 0 0 0 0 0 0 0 -1 0 0 0 0 0 0 0 0 0 0 0 0 0 0 0 -1 0 0 0 0 0 0 0 0 1 0 0 0 0 0 0 0 0 0 0 1 0 0 0 0 0 0 0 0 0 0 0 0 0 1 0 0 0 0 0 0 0 0 0 0 0 1 0 0 -1 0 0 0 0 0 0 1 0 0 0 0 0 0 0 0 -1 0 0 1 0 0 0 0 0 0 0 0 -1 -1zm-11 1l0 0 0 0 0 0 0 0 0 0 1 0 0 0 0 0 0 0 1 0 0 0 1 0 0 0 0 0 1 0 0 0 1 0 0 0 1 0 0 0 1 0 0 0 1 0 0 0 1 0 0 0 1 0 0 0 0 0 1 0 0 0 0 -1 0 0 1 1 -1 0 0 0 0 0 -1 0 0 0 0 0 -1 0 0 0 -1 0 0 0 -1 0 0 0 -1 0 0 0 -1 0 0 0 -1 0 0 0 -1 0 0 0 0 0 -1 0 0 0 -1 0 0 0 0 0 0 0 -1 0 0 0 0 0 0 0 0 0 0 0 0 0zm13 -18l0 0 0 0 -13 18 0 0 13 -18zm0 0l0 -1 0 1 0 0zm0 2l0 0 0 0 0 -2 0 0 0 2zm0 0l0 0 0 0 0 0z"/>
       </g>
      </g>
     </g>
     <g>
      <rect class="fil4" x="18" y="27" width="38.7297" height="5.98483"/>
      <rect class="fil4" x="18" y="38" width="21.5459" height="5.98483"/>
      <rect class="fil4" x="44" y="38" width="20.5389" height="5.98483"/>
      <rect class="fil4" x="18" y="49" width="21.5459" height="5.98483"/>
      <rect class="fil4" x="44" y="49" width="20.5389" height="5.98483"/>
      <rect class="fil4" x="18" y="61" width="21.5459" height="5.98483"/>
      <rect class="fil4" x="44" y="61" width="20.5389" height="5.98483"/>
      <rect class="fil4" x="18" y="72" width="21.5459" height="5.98483"/>
      <rect class="fil4" x="44" y="72" width="20.5389" height="5.98483"/>
     </g>
    </g>
    <g>
     <g>
      <rect class="fil5" x="43" y="65" width="51.5715" height="51.5715"/>
      <rect class="fil6" x="60" y="68" width="16.8065" height="2.99263"/>
     </g>
     <path class="fil7" d="M43 65l12 -5 49 0 -10 5c0,0 -51,0 -51,0z"/>
     <path class="fil7" d="M94 117l10 -7c0,0 0,-50 0,-50 0,0 -10,5 -10,5l0 52z"/>
    </g>
   </g>
   <g>
    <g>
     <path class="fil8" d="M59 37l33 0 0 -10 26 17 -26 17 0 -10 -33 0 0 -14zm17 0m16 -5m13 4m0 17m-13 3m-16 -5m-17 -7"/>
     <path id="1" class="fil9" d="M92 36l2 1 -2 2 -33 0 0 -3 33 0zm2 1l0 2 -2 0 2 -2zm-3 -10l2 -1 1 1 0 10 -3 0 0 -10zm0 0l0 -2 2 1 -2 1zm28 16l0 2 -2 0 -25 -17 1 -2 26 17zm0 0l1 1 -1 1 0 -2zm-26 19l-2 -1 1 -1 25 -17 2 2 -26 17zm0 0l-2 2 0 -3 2 1zm-2 -11l1 -1 2 1 0 10 -3 0 0 -10zm1 -1l2 0 0 1 -2 -1zm-33 2l-1 -1 1 -1 33 0 0 2 -33 0zm0 0l-1 0 0 -1 1 1zm-1 -15l1 -1 2 1 0 14 -3 0 0 -14zm0 0l0 -1 1 0 -1 1z"/>
    </g>
    <g>
     <path class="fil10" d="M118 78l-33 0 0 -10 -26 17 26 17 0 -11 33 0 0 -13zm-17 0m-16 -5m-13 3m0 17m13 4m16 -6m17 -6"/>
     <path id="1" class="fil9" d="M85 77l33 0 0 2 -33 0 -1 -1 1 -1zm0 2l-1 0 0 -1 1 1zm1 -11l0 10 -2 0 0 -10 0 -1 2 1zm-2 -1l2 -2 0 3 -2 -1zm-25 17l25 -17 2 2 -26 17 -1 0 0 -2zm0 2l-2 -1 2 -1 0 2zm25 17l-25 -17 1 -2 26 17 0 1 -2 1zm2 -1l0 2 -2 -1 2 -1zm0 -11l0 11 -2 0 0 -11 1 -1 1 1zm-2 0l0 -1 1 0 -1 1zm34 2l-33 0 0 -3 33 0 1 1 -1 2zm1 -2l0 2 -1 0 1 -2zm0 -13l0 13 -2 0 0 -13 1 -1 1 1zm-1 -1l1 0 0 1 -1 -1z"/>
    </g>
   </g>
  </g>
 </g>
</svg>
