<?xml version="1.0" encoding="UTF-8"?>
<!DOCTYPE svg PUBLIC "-//W3C//DTD SVG 1.1//EN" "http://www.w3.org/Graphics/SVG/1.1/DTD/svg11.dtd">
<!-- Creator: CorelDRAW X7 -->
<svg xmlns="http://www.w3.org/2000/svg" xml:space="preserve" width="120px" height="120px" version="1.1" style="shape-rendering:geometricPrecision; text-rendering:geometricPrecision; image-rendering:optimizeQuality; fill-rule:evenodd; clip-rule:evenodd"
viewBox="0 0 120 120"
 xmlns:xlink="http://www.w3.org/1999/xlink">
 <defs>
  <style type="text/css">
   <![CDATA[
    .fil0 {fill:none}
    .fil3 {fill:#FEFEFE}
    .fil1 {fill:#00A859}
    .fil2 {fill:#F0A71F}
    .fil5 {fill:#FC4D44}
    .fil6 {fill:#FEFEFE;fill-rule:nonzero}
    .fil4 {fill:#00A859;fill-rule:nonzero}
   ]]>
  </style>
 </defs>
 <g id="Layer_x0020_1">
  <metadata id="CorelCorpID_0Corel-Layer"/>
  <rect class="fil0" width="120" height="120"/>
  <g id="_532708568">
   <path class="fil1" d="M60 5c32,0 58,26 58,58l-58 1 -58 -4c-1,14 3,27 11,38 -7,-10 -12,-22 -12,-35 0,-32 27,-58 59,-58zm-47 94c0,-1 0,-1 0,-1 0,0 0,0 0,1z"/>
   <path class="fil2" d="M60 64l-28 51c-20,-11 -32,-32 -30,-55l58 4z"/>
   <path class="fil2" d="M60 63l-34 -47c10,-7 22,-11 34,-11 32,0 59,26 59,58l-59 0z"/>
   <path class="fil1" d="M60 63l41 -41c11,11 18,26 18,41l-59 0z"/>
   <circle class="fil3" cx="60" cy="63" r="30"/>
   <path class="fil4" d="M65 73c0,-2 0,-3 -1,-4 -1,-1 -2,-1 -4,-2 -2,-1 -3,-1 -5,-2 -1,-1 -2,-2 -3,-3 -1,-1 -2,-2 -3,-3 0,-1 0,-3 0,-4 0,-3 0,-6 2,-7 2,-2 5,-3 8,-4l0 -2 0 -2 0 0 0 0c0,-1 0,-1 1,-1l2 0c0,0 1,0 1,1l0 0 0 0 0 2 0 2c3,1 5,2 7,4 2,2 3,4 3,7l0 1 0 0c0,1 -1,2 -3,2l-2 0c-2,0 -3,-1 -3,-2l0 0 0 0 0 0 0 -1 0 0c0,-1 0,-2 -1,-3 -1,-1 -2,-2 -3,-2 -2,0 -3,1 -4,1 -1,1 -1,2 -1,4 0,1 0,2 1,3 1,1 2,2 4,2 3,1 4,2 6,3 1,1 2,1 3,2 1,1 2,2 2,3 1,2 1,3 1,5 0,3 -1,5 -3,7 -2,2 -4,3 -8,3l0 2c0,0 0,0 0,0l0 2c0,1 0,1 -1,1l-1 0c-1,0 -2,0 -2,-1l0 -2c0,0 0,0 0,0l0 -2c-3,0 -6,-2 -8,-4 -2,-2 -3,-4 -3,-7l0 0c0,-2 1,-3 3,-3l2 0c2,0 3,1 3,3l0 0 0 0 0 0 0 0 0 0 0 0c0,2 0,2 1,4 1,1 3,1 4,1 2,0 3,0 4,-1 1,-1 1,-2 1,-3z"/>
   <g>
    <polygon class="fil5" points="73,94 51,114 45,109 70,87 70,87 73,85 85,96 101,83 96,78 113,77 110,92 106,87 85,104 85,104 85,105 "/>
    <path id="1" class="fil6" d="M50 114l23 -21 1 1 -23 21 -1 0 0 -1zm1 1l0 0 -1 0 1 0zm-6 -6l6 5 -1 1 -5 -5 0 -1 0 0zm0 1l-1 -1 1 0 0 1zm26 -23l-26 23 0 -1 25 -22 1 0 0 0zm0 0l0 0 0 0 0 0zm0 0l0 0 -1 0 0 0 0 0 1 0zm-1 0l-1 0 1 0 0 0zm4 -2l-3 2 -1 0 3 -3 1 0 0 1zm-1 -1l0 0 1 0 -1 0zm12 12l-12 -11 1 -1 11 11 0 1 0 0zm0 0l0 1 0 -1 0 0zm17 -13l-17 13 0 -1 16 -13 1 0 0 1zm0 -1l0 1 0 0 0 -1zm-5 -4l5 4 -1 1 -5 -4 0 -1 1 0zm-1 1l-1 -1 1 0 0 1zm17 -2l-17 2 0 -1 17 -2 1 1 -1 0zm0 -1l1 0 0 1 -1 -1zm-3 16l3 -15 1 0 -3 16 -1 0 0 -1zm1 1l-1 1 0 -1 1 0zm-5 -6l5 5 -1 1 -5 -6 0 0 1 0zm-1 0l1 -1 0 1 -1 0zm-20 17l20 -17 1 0 -20 18 -1 0 0 -1zm1 1l-1 0 0 0 1 0zm0 -1l0 0 -1 1 0 0 0 -1 1 0zm-1 0l0 0 1 0 -1 0zm-1 1l1 -1 1 1 -1 0 -1 0 0 0zm1 0l0 1 -1 -1 1 0zm-11 -12l11 12 -1 0 -11 -11 0 -1 1 0zm-1 0l0 0 1 0 -1 0z"/>
   </g>
  </g>
 </g>
</svg>
