<svg width="32" height="30" viewBox="0 0 32 30" fill="none" xmlns="http://www.w3.org/2000/svg">
<g clip-path="url(#clip0)">
<path d="M6.75 14.25L6.5 13.75V13.5L6.75 13.25V13V12.75H7V12.5L7.25 12.25V12V11.75H7.5V11.5V11.25H7.75V11V10.75H8V10.5V10.25H8.25V10H8.5V9.75V9.5H8.75V9.25L9 9L9.25 8.75V8.5L10 9.25L9.75 9.5V9.75L9.5 10L9.25 10.25V10.5L9 10.75V11L8.75 11.25V11.5H8.5V11.75V12H8.25V12.25V12.5L8 12.75V13L7.75 13.25V13.5L7.5 13.75V14L7 13.5L6.75 14.25ZM6.75 14.25H6.25L6.5 13.75L6.75 14.25ZM9.5 14V15V14.75H9.25H9H8.75H8.5H8.25L8 14.5H7.75H7.5H7.25H7L6.75 14.25L7 13.5H7.25H7.5H7.75H8H8.25V13.75H8.5H8.75H9H9.25H9.5V14H9.75L10 14.75L9.5 14ZM9.75 14L11.25 14.25L10 14.75L9.75 14ZM4 18L3.25 17.75L3.5 17L9.5 14L10 14.75L4 18ZM4 18L3.5 18.25L3.25 17.75L4 18ZM0.75 12.25L1.5 11.5V11.75L1.75 12V12.25V12.5H2V12.75V13L2.25 13.25V13.5L2.5 13.75V14L2.75 14.25V14.5V14.75H3V15V15.25H3.25V15.5V15.75L3.5 16V16.25L3.75 16.5V16.75H4V17L4.25 17.25L3.25 17.75V17.5L3 17.25L2.75 17V16.75V16.5L2.5 16.25L2.25 16V15.75V15.5H2V15.25V15H1.75V14.75V14.5L1.5 14.25V14L1.25 13.75V13.5L1 13.25V13V12.75L0.75 12.5V12.25L0.5 12L1.25 11.25L0.75 12.25ZM0.5 12L0 10.75L1.25 11.25L0.5 12ZM1 11.75L1.25 11.25L1 11.75ZM0.5 12L0 10.75L1.25 11.25L0.5 12ZM3.75 13L3 13.25L2.75 13H2.5H2.25V12.75H2H1.75V12.5H1.5H1.25V12.25H1H0.75L1.25 11.25H1.5V11.5H1.75H2V11.75H2.25H2.5V12H2.75H3V12.25H3.25H3.5L2.75 12.5L3.75 13ZM3.75 13L3.5 13.5L3 13.25L3.75 13ZM12 5.25L11.5 5.5H11L10.5 5.75H10.25L9.75 6H9.5L9 6.25L8.75 6.5H8.5L8 6.75L7.75 7L7.5 7.25H7.25L7 7.5L6.75 7.75V8L6.5 8.25L6.25 8.5L6 8.75V9L5.75 9.25L5.5 9.5L5.25 9.75V10.25L5 10.5L4.75 10.75V11.25L4.5 11.5L4.25 11.75L4 12.25V12.5L3.75 13L2.75 12.5L3 12.25L3.25 11.75L3.5 11.5V11L3.75 10.75L4 10.25V10L4.25 9.75L4.5 9.25L4.75 9V8.75L5 8.5L5.25 8.25L5.5 7.75L5.75 7.5L6 7.25L6.25 7L6.5 6.75L6.75 6.5L7 6.25H7.25L7.5 6L8 5.75L8.25 5.5L8.5 5.25H9L9.5 5L9.75 4.75H10.25L10.75 4.5H11.25L11.75 4.25L12 5.25ZM18 4.25L17.75 5.25H17.5L17.25 5H17H16.75H16.5L16.25 4.75H16H15.75H15.5H15.25H15H14.75H14.5L14.25 5H14H13.75H13.5H13.25H13H12.75L12.5 5.25H12.25H12L11.75 4.25H12H12.25H12.5L12.75 4H13H13.25H13.5H13.75H14L14.25 3.75H14.5H14.75H15H15.25H15.5H15.75H16H16.25L16.5 4H16.75H17H17.25H17.5L17.75 4.25H18L18.25 4.5L18 5.25V4.25ZM17.25 4.5H17.5H17.75V4.25H18V5.25H17.75H18H17.75V5.5H17.5H17.25V4.5ZM9.25 8.5L9.5 8.25H9.75L10 8L10.25 7.75V7.5H10.5L10.75 7.25L11 7L11.25 6.75H11.5L11.75 6.5H12L12.25 6.25L12.5 6H12.75L13 5.75H13.25L13.75 5.5H14L14.25 5.25H14.5L14.75 5H15H15.25L15.5 4.75H15.75H16L16.25 4.5H16.5H16.75H17H17.25V5.5H17H16.75H16.5L16.25 5.75H16H15.75H15.5L15.25 6H15L14.75 6.25H14.5H14.25L14 6.5H13.75L13.5 6.75H13.25L13 7H12.75L12.5 7.25L12.25 7.5H12L11.75 7.75L11.5 8L11.25 8.25H11L10.75 8.5L10.5 8.75L10.25 9L10 9.25L9.25 8.5Z" fill="#FEFEFE"/>
<path fill-rule="evenodd" clip-rule="evenodd" d="M9.75 8.99999C8.25 10.5 7.75 12.25 7 13.75C8.75 14.25 8 14 9.75 14.5L3.75 17.5C2.5 15.25 1.75 13.5 1 11.75C2 12.25 1.5 12 3.25 12.75C5.5 8.49999 6.25 5.99999 12 4.74999C13.75 4.24999 16.25 3.99999 18 4.74999C17.75 4.74999 18.25 4.74999 17.25 4.99999C15 5.24999 11.5 6.74999 9.75 8.99999Z" fill="#FC4D44"/>
<path fill-rule="evenodd" clip-rule="evenodd" d="M21.5 2.75C25 2.75 28 5.75 28 9.25C28 12.75 25 15.75 21.5 15.75C18 15.75 15.25 12.75 15.25 9.25C15.25 5.75 18 2.75 21.5 2.75Z" fill="url(#paint0_linear)"/>
<path d="M28.25 9.25H27.75V9V8.75V8.25L27.5 8V7.75V7.5L27.25 7.25V6.75V6.5L27 6.25L26.75 6V5.75L26.5 5.5L26.25 5.25V5H26L25.75 4.75L25.5 4.5L25.25 4.25H25L24.75 4L24.5 3.75H24.25L24 3.5H23.75H23.5L23 3.25H22.75H22.5H22.25L22 3H21.5V2.5H22L22.25 2.75H22.5H23H23.25L23.5 3H23.75L24.25 3.25H24.5L24.75 3.5H25L25.25 3.75L25.5 4L25.75 4.25H26L26.25 4.5L26.5 4.75L26.75 5L27 5.25V5.5L27.25 5.75L27.5 6V6.5L27.75 6.75V7L28 7.25V7.5V8L28.25 8.25V8.5V9V9.25ZM21.5 16V15.5H22H22.25L22.5 15.25H22.75H23H23.5L23.75 15H24L24.25 14.75H24.5L24.75 14.5H25L25.25 14.25L25.5 14L25.75 13.75H26L26.25 13.5V13.25L26.5 13L26.75 12.75V12.5L27 12.25L27.25 12V11.75V11.5L27.5 11V10.75V10.5L27.75 10.25V10V9.5V9.25H28.25V9.5V10V10.25L28 10.5V11V11.25L27.75 11.5V11.75L27.5 12.25V12.5L27.25 12.75L27 13V13.25L26.75 13.5L26.5 13.75L26.25 14L26 14.25L25.75 14.5H25.5L25.25 14.75L25 15L24.75 15.25H24.5L24.25 15.5H23.75L23.5 15.75H23.25H23H22.5L22.25 16H22H21.5ZM15 9.25H15.5V9.5V10V10.25V10.5V10.75L15.75 11V11.5V11.75L16 12L16.25 12.25V12.5L16.5 12.75V13L16.75 13.25L17 13.5L17.25 13.75H17.5L17.75 14V14.25L18 14.5H18.25L18.5 14.75H19L19.25 15H19.5L19.75 15.25H20H20.25H20.5L21 15.5H21.25H21.5V16H21.25H21L20.5 15.75H20.25H20H19.5L19.25 15.5H19L18.75 15.25H18.5L18 15L17.75 14.75L17.5 14.5H17.25L17 14.25L16.75 14V13.75L16.5 13.5L16.25 13.25L16 13L15.75 12.75V12.5L15.5 12.25V11.75L15.25 11.5V11.25L15 11V10.5V10.25V10V9.5V9.25ZM21.5 2.5V3H21.25L21 3.25H20.5H20.25H20L19.75 3.5H19.5H19.25L19 3.75H18.5L18.25 4L18 4.25H17.75V4.5L17.5 4.75L17.25 5H17L16.75 5.25L16.5 5.5V5.75L16.25 6V6.25L16 6.5L15.75 6.75V7.25V7.5L15.5 7.75V8V8.25V8.75V9V9.25H15V9V8.5V8.25V8V7.5L15.25 7.25V7L15.5 6.75V6.5L15.75 6V5.75L16 5.5L16.25 5.25L16.5 5L16.75 4.75V4.5L17 4.25H17.25L17.5 4L17.75 3.75L18 3.5H18.5L18.75 3.25H19L19.25 3H19.5L20 2.75H20.25H20.5H21L21.25 2.5H21.5Z" fill="#FEFEFE"/>
<path d="M19.75 9.25H18.75V11.25H17.75V5.75H19.75C20.5 5.75 21 6 21.25 6.25C21.5 6.5 21.75 7 21.75 7.5C21.75 7.75 21.75 8 21.5 8.25C21.25 8.5 21 8.75 20.75 9L22 11.25H20.75L19.75 9.25ZM18.75 8.25H19.75C20 8.25 20.25 8.25 20.5 8C20.5 8 20.5 7.75 20.5 7.5C20.5 7.25 20.5 7 20.5 7C20.25 6.75 20 6.75 19.75 6.75H18.75V8.25Z" fill="#FFF212"/>
<path d="M26.25 9.25C26.25 9.75 26 10.25 25.75 10.75C25.5 11 25 11.25 24.75 11.25C24.25 11.25 24 11.25 23.75 11V12.75H22.5V7.25H23.5V7.5C23.75 7.25 24.25 7 24.5 7C25 7 25.5 7.25 25.75 7.75C26 8 26.25 8.5 26.25 9.25ZM25 9.25C25 8.75 25 8.5 25 8.25C24.75 8 24.5 8 24.25 8C24 8 23.75 8 23.75 8.25V10C23.75 10.25 24 10.5 24.25 10.5C24.75 10.5 25 10 25 9.25Z" fill="#FFF212"/>
<path d="M24.5 16.5L24.75 17.25L24.5 17.5V17.75V18L24.25 18.25V18.5H24V18.75V19L23.75 19.25V19.5L23.5 19.75V20L23.25 20.25V20.5L23 20.75L22.75 21V21.25L22.5 21.5V21.75H22.25V22L22 22.25L21 21.75L21.25 21.5H21.5V21.25V21H21.75V20.75L22 20.5V20.25H22.25V20V19.75H22.5V19.5L22.75 19.25V19L23 18.75V18.5V18.25H23.25V18V17.75H23.5V17.5L23.75 17.25V17L24 16.75L24.25 17.5L24.5 16.5ZM24.5 16.5H25L24.75 17.25L24.5 16.5ZM21.75 16.75V16H22H22.25H22.5H22.75V16.25H23H23.25H23.5H23.75L24 16.5H24.25H24.5L24.25 17.5H24L23.75 17.25H23.5H23.25H23H22.75L22.5 17H22.25H22H21.75H21.5L21.25 16L21.75 16.75ZM21.5 17L20 16.75L21.25 16L21.5 17ZM27.5 13L28 13.25L27.75 13.75L21.75 16.75L21.25 16L27.5 13ZM27.5 13L27.75 12.75L28 13.25L27.5 13ZM30.5 18.75L29.75 19.25V19L29.5 18.75V18.5V18.25H29.25V18V17.75H29V17.5V17.25H28.75V17V16.75V16.5H28.5V16.25V16H28.25V15.75V15.5L28 15.25L27.75 15V14.75V14.5H27.5V14.25L27.25 14V13.75V13.5L28 13.25H28.25V13.5V13.75L28.5 14V14.25H28.75V14.5V14.75L29 15L29.25 15.25V15.5V15.75H29.5V16V16.25H29.75V16.5V16.75V17H30V17.25V17.5H30.25V17.75V18H30.5V18.25V18.5V18.75H30.75V19L30 19.75L30.5 18.75ZM30.75 19L31.25 20.25L30 19.75L30.75 19ZM30.25 19.25L30 19.75L30.25 19.25ZM30.75 19L31.25 20.25L30 19.75L30.75 19ZM27.5 17.75H28.25H28.5H28.75V18H29H29.25V18.25H29.5H29.75V18.5H30H30.25V18.75H30.5L30 19.75V19.5H29.75H29.5V19.25H29.25H29V19H28.75H28.5V18.75H28.25H28V18.5H27.75L28.5 18.25L27.5 17.75ZM27.5 17.75L27.75 17.5L28.25 17.75H27.5ZM19.25 25.5H19.75L20.25 25.25H20.5L21 25H21.5L21.75 24.75L22.25 24.5H22.5L22.75 24.25L23 24H23.5L23.75 23.75L24 23.5V23.25L24.25 23L24.5 22.75L24.75 22.5L25 22.25L25.25 22V21.75L25.5 21.5L25.75 21.25L26 21V20.75L26.25 20.5L26.5 20V19.75L26.75 19.25L27 19L27.25 18.75V18.25L27.5 17.75L28.5 18.25L28.25 18.75L28 19L27.75 19.5V19.75L27.5 20.25L27.25 20.5L27 20.75V21.25L26.75 21.5L26.5 21.75L26.25 22V22.5L26 22.75L25.75 23L25.5 23.25L25.25 23.5L25 23.75L24.75 24L24.5 24.25L24.25 24.5L24 24.75L23.75 25H23.25L23 25.25L22.5 25.5L22.25 25.75H21.75L21.25 26L21 26.25H20.5L20 26.5H19.5L19.25 25.5ZM13 26.5L13.5 25.5H13.75V25.75H14H14.25H14.5H14.75V26H15H15.25H15.5H15.75H16H16.25H16.5H16.75H17H17.25V25.75H17.5H17.75H18H18.25H18.5H18.75V25.5H19H19.25L19.5 26.5H19.25H19H18.75V26.75H18.5H18.25H18H17.75H17.5H17.25L17 27H16.75H16.5H16.25H16H15.75H15.5H15.25H15H14.75L14.5 26.75H14.25H14H13.75L13.5 26.5H13.25H13V26.25L13.25 25.5L13 26.5ZM14 26.25H13.75H13.5V26.5H13.25H13L13.25 25.5L13.5 25.25H13.75H14H13.75L14 26.25ZM22 22.25L21.75 22.5L21.5 22.75L21.25 23L21 23.25H20.75V23.5L20.5 23.75H20.25L20 24L19.75 24.25H19.5L19.25 24.5H19L18.75 24.75L18.25 25H18L17.75 25.25H17.5L17.25 25.5H17H16.75L16.5 25.75H16.25H16L15.75 26H15.5H15.25L15 26.25H14.75H14.5H14.25H14L13.75 25.25H14H14.25H14.5H14.75L15 25H15.25H15.5H15.75L16 24.75H16.25H16.5L16.75 24.5H17L17.25 24.25H17.5L17.75 24H18L18.25 23.75H18.5L18.75 23.5H19L19.25 23.25L19.5 23L19.75 22.75H20L20.25 22.5L20.5 22.25L20.75 22L21 21.75L22 22.25Z" fill="#FEFEFE"/>
<path fill-rule="evenodd" clip-rule="evenodd" d="M21.5 22C23 20.25 23.5 18.75 24.25 17C22.5 16.5 23.25 16.75 21.5 16.5L27.5 13.5C28.75 15.5 29.5 17.25 30.25 19.25C29.25 18.75 29.75 19 28 18C25.75 22.25 25 24.75 19.25 26C17.5 26.5 15 26.75 13.25 26C13.5 26 13 26 14 25.75C16.25 25.5 19.75 24 21.5 22Z" fill="#F58634"/>
<path d="M18 20.75H17.5V20.5V20.25V19.75L17.25 19.5V19.25V19L17 18.75V18.25L16.75 18V17.75L16.5 17.5V17.25L16.25 17L16 16.75L15.75 16.5L15.5 16.25L15.25 16L15 15.75H14.75L14.5 15.5L14.25 15.25H14L13.75 15H13.5L13.25 14.75H12.75H12.5H12.25L12 14.5H11.5H11.25V14H11.75L12 14.25H12.25H12.75H13L13.25 14.5H13.5H14L14.25 14.75L14.5 15H14.75L15 15.25L15.25 15.5H15.5L15.75 15.75L16 16L16.25 16.25L16.5 16.5L16.75 16.75V17L17 17.25L17.25 17.5V17.75L17.5 18.25V18.5L17.75 18.75V19V19.5L18 19.75V20V20.5V20.75ZM11.25 27.5V27H11.5H12L12.25 26.75H12.5H12.75H13.25L13.5 26.5H13.75L14 26.25H14.25L14.5 26H14.75L15 25.75L15.25 25.5L15.5 25.25H15.75V25L16 24.75L16.25 24.5L16.5 24.25V24L16.75 23.75V23.5L17 23.25V23L17.25 22.5V22.25V22L17.5 21.75V21.5V21V20.75H18V21V21.5V21.75L17.75 22V22.5V22.75L17.5 23V23.25L17.25 23.75V24L17 24.25L16.75 24.5V24.75L16.5 25L16.25 25.25L16 25.5L15.75 25.75L15.5 26H15.25L15 26.25L14.75 26.5H14.5L14.25 26.75L14 27H13.5L13.25 27.25H13H12.75H12.25L12 27.5H11.75H11.25ZM4.75 20.75H5.25V21V21.5V21.75V22V22.25L5.5 22.5V23V23.25L5.75 23.5L6 23.75V24L6.25 24.25V24.5L6.5 24.75L6.75 25L7 25.25H7.25L7.5 25.5V25.75L7.75 26H8L8.25 26.25H8.75L9 26.5H9.25L9.5 26.75H9.75H10H10.25L10.75 27H11H11.25V27.5H11H10.5L10.25 27.25H10H9.75H9.25L9 27H8.75L8.5 26.75L8 26.5H7.75L7.5 26.25L7.25 26H7L6.75 25.75L6.5 25.5L6.25 25.25V25L6 24.75L5.75 24.5L5.5 24.25V24L5.25 23.75V23.25L5 23V22.75L4.75 22.5V22V21.75V21.5V21V20.75ZM11.25 14V14.5H11H10.75L10.25 14.75H10H9.75H9.5L9.25 15H9L8.75 15.25H8.25L8 15.5L7.75 15.75H7.5V16L7.25 16.25L7 16.5H6.75L6.5 16.75L6.25 17V17.25L6 17.5V17.75L5.75 18L5.5 18.25V18.75V19L5.25 19.25V19.5V19.75V20.25V20.5V20.75H4.75V20.5V20V19.75V19.5V19L5 18.75V18.5L5.25 18.25V17.75L5.5 17.5V17.25L5.75 17L6 16.75L6.25 16.5V16.25L6.5 16L6.75 15.75L7 15.5H7.25L7.5 15.25L7.75 15H8.25L8.5 14.75L8.75 14.5H9H9.25L9.75 14.25H10H10.25H10.5L11 14H11.25Z" fill="#FEFEFE"/>
<path d="M12.5 22.75C12.5 22.25 12.25 22 12.25 22C12 21.75 11.75 21.5 11.25 21.5C11 21.25 10.5 21.25 10.25 21C10 20.75 9.75 20.75 9.5 20.5C9.25 20.25 9.25 20 9 19.75C9 19.5 9 19.25 9 19C9 18.25 9 17.75 9.5 17.25C10 17 10.5 16.75 11 16.75V16.25V15.75C11 15.5 11.25 15.5 11.25 15.5H11.75C11.75 15.5 12 15.5 12 15.75V16.25V16.75C12.5 16.75 13 17 13.5 17.5C13.75 18 14 18.25 14 19C14 19.25 13.75 19.5 13.5 19.5H13C12.75 19.5 12.5 19.25 12.5 19C12.5 18.5 12.25 18.5 12.25 18.25C12 18 11.75 18 11.5 18C11 18 11 18 10.75 18.25C10.5 18.25 10.5 18.5 10.5 19C10.5 19.25 10.5 19.5 10.75 19.5C11 19.75 11.25 20 11.5 20C12 20.25 12.5 20.5 12.75 20.5C13 20.75 13.25 21 13.5 21C13.5 21.25 13.75 21.5 13.75 21.75C14 22 14 22.25 14 22.75C14 23.25 13.75 23.75 13.5 24.25C13 24.5 12.5 24.75 11.75 24.75V25.25V25.75C11.75 25.75 11.75 26 11.5 26H11.25C11 26 11 25.75 11 25.75V25.25V24.75C10.25 24.75 9.5 24.5 9.25 24C8.75 23.5 8.5 23.25 8.5 22.5C8.5 22.25 8.75 22 9 22H9.75C10 22 10.25 22.25 10.25 22.5C10.25 23 10.25 23 10.5 23.25C10.75 23.5 11 23.5 11.5 23.5C11.75 23.5 12 23.5 12.25 23.25C12.25 23.25 12.5 23 12.5 22.75Z" fill="#FFF212"/>
</g>
<defs>
<linearGradient id="paint0_linear" x1="15.3599" y1="10.8433" x2="27.7623" y2="7.69928" gradientUnits="userSpaceOnUse">
<stop stop-color="#04870F"/>
<stop offset="1" stop-color="#03690C"/>
</linearGradient>
<clipPath id="clip0">
<rect width="31.25" height="30" fill="white"/>
</clipPath>
</defs>
</svg>
