<svg xmlns="http://www.w3.org/2000/svg" width="120" height="120" shape-rendering="geometricPrecision" text-rendering="geometricPrecision" image-rendering="optimizeQuality" fill-rule="evenodd" clip-rule="evenodd"><defs><style>.fil1{fill:#fefefe}.fil2,.fil3{fill:#2887d2}.fil2{fill-rule:nonzero}</style></defs><g id="Layer_x0020_1"><path fill="none" d="M0 0h120v120H0z"/><g id="_807831136"><path class="fil1" d="M11 2l-1 85s67-1 67 1V19L66 3V2H11z"/><path id="1" class="fil2" d="M9 87V2h3v85l-2 2-1-2zm1 2H9v-2l1 2zm69-1l-3-1v2H62l-3-1H47l-3 1H10v-4h67v1l2 2zm-3-68l2-2 1 1v68h-3l3 1-3-1V19v1zM67 2l11 16-2 2L65 4l2-2zm0 0zm0-1v1l-2 3V4l1-4 1 1zm-1-1l1 1-1-1zM12 2H9l2-2h55v4H11l1-2z"/><path class="fil3" d="M66 3l-1 11s0 4 2 4l11 1L66 2v1z"/><path id="1" class="fil2" d="M65 14l1-11-1 11zm0 0zm2 4v1l-1-1h-1v-4 3h1v1h1zm10 1h1-11v-1h2l1 1h8-1zM66 2l12 17h-1L66 2zm0 0V1v1zm0 1V2v1zm0 0z"/><path class="fil3" transform="matrix(-.59806 -.00195 .00271 -.68842 68 45)" d="M0 0h81v7H0z"/><path class="fil3" transform="matrix(-.59806 -.00195 .00271 -.68842 68 36)" d="M0 0h81v7H0z"/><path class="fil3" transform="matrix(-.40875 -.00134 .00271 -.68842 53 26)" d="M0 0h81v7H0z"/><path class="fil3" transform="matrix(-.59806 -.00195 .00271 -.68842 68 55)" d="M0 0h81v7H0z"/><path class="fil3" transform="matrix(-.59806 -.00195 .00271 -.68842 68 65)" d="M0 0h81v7H0z"/><path class="fil3" transform="matrix(-.59806 -.00195 .00271 -.68842 68 75)" d="M0 0h81v7H0z"/><g><path class="fil1" d="M19 10v84s67-1 67 1V26L75 11l-1-1H19z"/><path id="1" class="fil2" d="M17 94l1-84h3l-1 84-1 2-2-2zm2 2h-2v-2l2 2zm68-1h-3l1 2v-1H19v-3h1v-1h63l1 1h2l1 2zm-2-68l2-2 1 1v3l-1 2v64h-3 3-3V40l1-3V26v1zM76 9l11 16-2 2-11-15 2-3zm0 0zm-1-1l1 1-2 3-1-1 1-3h1zm-1 0h1-1zm-53 2h-3l1-2h55v4H52l-3-1H22l-1 1h-2l2-2z"/><g><path class="fil3" d="M74 11v11s-1 3 2 4h10L74 9v2z"/><path id="1" class="fil2" d="M73 22l1-11h1l-1 11h-1zm1 0zm2 4h-1v-1h-1v-2h-1v-1h1v3h1l1 1zm10 0h1-12 11zM75 9l12 17h-1L74 9h1zm-1 0h1-1zm0 2V9h1v2h-1zm1 0z"/></g></g><g><path class="fil3" d="M28 29h46v6H28zM28 46h46v6H28zM28 62h46v6H28z"/></g><g><path class="fil2" d="M110 88c0 14-10 27-24 29-14 3-28-4-34-18l-2-11c0-16 14-30 30-30 4 0 8 1 11 3 11 4 19 15 19 27z"/><path id="1" d="M86 119l-1-3 2-1h2l1-1h1l1-1h1l1-1 1-1h1l1-1 1-1h1l1-1 1-1v-1l1-1 1-1 1-1v-1l1-1v-1l1-1v-1l1-1v-4l1-1v-4h4v3l-1 1v4l-1 2v1l-1 1v2l-1 1-1 1v1l-1 1-1 1-1 1v1l-1 1-1 1-1 1-1 1-1 1-2 1h-1l-1 1-1 1h-1l-2 1h-1l-1 1h-3zm-35-19l3-1 1 1v1l1 1v1l1 1 1 1 1 1v1l1 1 1 1h1l1 1 1 1 1 1h1l1 1h1l1 1h1l1 1h2l1 1h11l1 3-1 1H75l-1-1h-3l-1-1h-1l-2-1h-1l-1-1-1-1h-1l-2-1-1-1-1-1-1-1-1-1-1-1v-1l-1-1-1-1-1-1-1-1v-1l-1-2v-1zm3-1zm-6-11h4v5h1v4h1v2l-3 1h-1v-3h-1v-5h-1v-4zm4 0zm28-31v3h-1l-2 1h-4l-1 1h-2l-1 1h-1l-1 1h-1l-2 1-1 1-1 1-1 1-1 1-1 1-1 1v1l-1 1-1 1-1 1v1l-1 1v2l-1 1v3l-1 1v4h-4v-3l1-2v-3l1-1v-2l1-1v-1l1-2 1-1 1-1 1-2 1-1 1-1 1-1 1-1 1-1 1-1 1-1 2-1 1-1h1l2-1h1l2-1h1l2-1h6zm0 3zm12-1l-2 3h-2v-1h-5l-1-1h-2v-3h8v1h3v1h1zm-2 3zm22 26h-4v-4l-1-1v-3l-1-1v-2l-1-1v-1l-1-1-1-1v-1l-1-1-1-1v-1h-1l-1-1-1-1-1-1-1-1h-1l-1-1h-1l-1-1h-1l-1-1 2-3h1l1 1h1l1 1 1 1h1l1 1 1 1h1l1 1 1 1v1l1 1 1 1 1 1v1l1 1v1l1 1 1 1v2l1 1v1l1 1v5l1 1v2z" fill="#fefefe" fill-rule="nonzero"/></g><path fill="#fff212" fill-rule="nonzero" d="M95 83v9l-11-9v24h-8V83l-11 9v-9l15-13z"/><g><path class="fil1" d="M36 26h8v14h-8z"/><path id="1" class="fil2" d="M44 27h-8v-2h8l1 1-1 1zm0-2h1v1l-1-1zm-1 15V26h2v14l-1 1-1-1zm2 0v1h-1l1-1zm-9-1h8v2h-8l-1-1 1-1zm0 2h-1v-1l1 1zm1-15v14h-2V26l1-1 1 1zm-2 0v-1h1l-1 1z"/></g><g><path class="fil1" d="M57 41h7v14h-7z"/><path id="1" class="fil2" d="M64 42h-7v-2h7l1 1-1 1zm0-2h1v1l-1-1zm-1 15V41h2v14l-1 1-1-1zm2 0v1h-1l1-1zm-8-1h7v2h-7l-1-1 1-1zm0 2h-1v-1l1 1zm1-15v14h-2V41l1-1 1 1zm-2 0v-1h1l-1 1z"/></g><g><path class="fil1" d="M37 58h7v14h-7z"/><path id="1" class="fil2" d="M44 59h-7v-2h7l1 1-1 1zm0-2h1v1l-1-1zm-1 15V58h2v14l-1 1-1-1zm2 0v1h-1l1-1zm-8-1h7v2h-7l-1-1 1-1zm0 2h-1v-1l1 1zm1-15v14h-2V58l1-1 1 1zm-2 0v-1h1l-1 1z"/></g></g></g></svg>