<svg xmlns="http://www.w3.org/2000/svg" width="120" height="120" shape-rendering="geometricPrecision" text-rendering="geometricPrecision" image-rendering="optimizeQuality" fill-rule="evenodd" clip-rule="evenodd"><defs><linearGradient id="id0" gradientUnits="userSpaceOnUse" x1="50.1" y1="52.4" x2="81.9" y2="44.3"><stop offset="0" stop-color="#04870f"/><stop offset="1" stop-color="#03690c"/></linearGradient><linearGradient id="id1" gradientUnits="userSpaceOnUse" x1="36" y1="48.1" x2="84" y2="107.8"><stop offset="0" stop-color="#1cc8eb"/><stop offset=".3" stop-color="#0e96e0"/><stop offset="1" stop-color="#0063d4"/></linearGradient><style>.fil2{fill:#fefefe}</style></defs><g id="Layer_x0020_1"><path fill="none" d="M0 0h120v120H0z"/><g id="_810116480"><rect x="2" y="53" width="116" height="49.1" rx="14" ry="13" fill="url(#id1)"/><path class="fil2" d="M89 81v14l-1 3H30c-2 0-2-3-2-4V81h61z"/><path id="1" d="M88 85v-4h3l-1 4h-2zm0 0zm0 10V85h2v10h-2zm0 4v-4h2v3h-1v1h-1zm-58 0v-1h58v1H30zm-3-5h2v3h1v2l-1-1h-2v-4zm0-13h2v13h-2l-1-1v-5h1v-7zm2 0zm0 0h-2l1-1 1 1zm-2 0v-1h1l-1 1zm61 0h2-62v-1h61l-1 1zm2 0h-1 1zm1 0h-3 2-2v-1l3 1zm-3-1l3-1v2l-3-1z" fill="#2887d2" fill-rule="nonzero"/><circle cx="105" cy="87" r="6" fill="#fefefe"/><path class="fil2" d="M25 67h67v8H25z"/><g id="_810116120"><path class="fil2" d="M87 72V32l-6-14H31v55h56z"/><path d="M85 32h3v41h-3 3-3V32zm3-14v14h-3V18l2-1 1 1zm-1-1h1v1l-1-1zm0-1v1l-2 3v-1l1-3h1zm-1 0h1-1zm-54 2h-3l2-2h55v3H32v1h-1l1-2zm-3 55V18h3v55h-3zm3 0h-3v-1h3v1h-3v-1h3v1z" fill="#0098da" fill-rule="nonzero"/><path fill="#087eda" d="M31 70h56v3H31z"/><path d="M42 62l3-10-3-1h-1v-6l1-4 2-3 4-5 3 1 4-9-4-2c-1 0-5 1-8 5s-5 12-5 12-3 7-3 12 3 8 3 9l4 1z" fill="#fc4d44"/><g id="_810116504"><path d="M66 32c9 0 16 7 16 16s-7 17-16 17-16-8-16-17 7-16 16-16z" fill="url(#id0)"/><path id="1" d="M83 48h-1v-3l-1-1v-2l-1-1v-1l-1-1-1-1-1-1-1-1h-1v-1h-1v-1h-2l-1-1h-5v-2h3v1h3l1 1h1l1 1h1v1h1v1h1l1 1 1 1v1h1v2l1 1v1l1 1v4zM66 65v-1h4l1-1h2l1-1 1-1h1l1-1 1-1v-1h1v-1h1v-2h1v-3h1v-4h1v5h-1v2l-1 1v1l-1 1v1h-1v1h-1l-1 1v1h-1v1h-2l-1 1h-1l-1 1h-5zM49 48h1v4h1v3h1v2h1v1h1v1l1 1 1 1h1l1 1 1 1h2l1 1h4v1h-5l-1-1h-1l-1-1h-2v-1h-1l-1-1v-1h-1v-1h-1v-1l-1-1v-1l-1-1v-2h-1v-5zm17-17v2h-5l-1 1h-2v1h-1v1h-1l-1 1-1 1-1 1-1 1v1l-1 1v2l-1 1v3h-1v-4l1-1v-1l1-1v-2h1v-1l1-1 1-1 1-1h1v-1h1l1-1h1l1-1h3v-1h3z" fill="#fefefe" fill-rule="nonzero"/><path d="M69 53l-1-2-2-1-3-1-2-1-1-2v-2l1-4 4-2v-3h3v3l4 2 1 4-1 1h-2l-1-1-1-2-2-1-1 1-1 2v1l3 2 3 1 1 1 2 2v2l-2 4-4 2v3h-1l-1-1v-2l-4-2-2-4 1-2h2l1 2 1 2 2 1 2-1 1-2z" fill="#fff212" fill-rule="nonzero"/></g></g></g></g></svg>