<svg xmlns="http://www.w3.org/2000/svg" width="120" height="120" shape-rendering="geometricPrecision" text-rendering="geometricPrecision" image-rendering="optimizeQuality" fill-rule="evenodd" clip-rule="evenodd"><defs><style>.fil1{fill:#fefefe}.fil4{fill:#0098da}.fil3{fill:#2887d2}.fil2,.fil5{fill:#fefefe;fill-rule:nonzero}.fil2{fill:#2887d2}</style></defs><g id="Layer_x0020_1"><path fill="none" d="M0 0h120v120H0z"/><g id="_764871960"><path class="fil1" d="M85 10v79s-61-2-61 0l-1-63 11-15v-1h51z"/><path id="1" class="fil2" d="M87 89l-2 1-1-1V10h2l1 79zm0 0v1h-2l2-1zm-65 0l1-2h8l2-1h30l3 1h19v3H24v1l1-2h-3zm2-62l1-1v63h-3 3-3V24l2 3zm8-17h1l2 2-11 15-2-3 10-14zm0 0h1-1zm1-1h1l1 3h-1l-1-2V9zm0 0h1-1zm51 1l1 2H34V9h18l3-1h29v1h1l1 1h-2z"/><path class="fil3" d="M34 11l1 10s0 4-2 4H23l11-15v1z"/><path id="1" class="fil2" d="M35 21l-1-10 1 10zm0 0zm-2 4h1v-2h1v-2 3h-1v1h-1zm-10 1v-1h10-1v1h-9v-1 1zm11-16L23 26v-1l11-15zm0 0V9v1zm0 1v-1 1zm0 0z"/><path class="fil3" transform="matrix(.55237 -.0018 -.0025 -.63583 32 50)" d="M0 0h81v7H0z"/><path class="fil3" transform="matrix(.55237 -.0018 -.0025 -.63583 32 41)" d="M0 0h81v7H0z"/><path class="fil3" transform="matrix(.37752 -.00123 -.0025 -.63583 46 32)" d="M0 0h81v7H0z"/><path class="fil3" transform="matrix(.55237 -.0018 -.0025 -.63583 32 59)" d="M0 0h81v7H0z"/><path class="fil3" transform="matrix(.55237 -.0018 -.0025 -.63583 32 68)" d="M0 0h81v7H0z"/><path class="fil3" transform="matrix(.55237 -.0018 -.0025 -.63583 32 77)" d="M0 0h81v7H0z"/><g><path class="fil1" d="M77 17v78s-61-1-61 1l-1-64 10-14 1-1h51z"/><path id="1" class="fil2" d="M79 95l-2 2-1-2V17h2l1 78zm0 0v2h-2l2-2zm-65 1l1-2h3l2-1h50l2 1h5v3H16l1-1h-3zm2-62l1-2v64h-3 3-3V31l2 3zm8-17h1l2 2-11 15-2-3 10-14zm0 0h1-1zm1-1l1-1 1 3-1 1-1-2v-1zm0 0l1-1-1 1zm51 1l1 2H26v-4h51l1 2h-2z"/><g><path class="fil3" d="M26 18l1 10s0 3-2 4H15l11-15v1z"/><path id="1" class="fil2" d="M27 28l-1-10 1 10zm0 0zm-2 4l1-1v-1l1-1v-1 3h-1v1h-1zm-10 0h10-3l-1 1h-5v-1h-1zm11-15L15 32l11-15zm0 0v-1 1zm0 1v-1 1zm0 0z"/></g></g><g><path class="fil4" d="M29 31h40v5H29zM29 41h40v5H29zM29 54h40v5H29zM29 65h40v5H29zM29 79h40v5H29z"/></g><g><path class="fil5" d="M22 62H3v-4h19l2 1-2 3zm0-4h1l1 1-2-1zm28 17v4h-5l-1-1h-4l-1-1h-1l-1-1h-2l-1-1h-1l-1-1-1-1h-1l-1-1-1-1h-1v-1l-1-1-1-1h-1v-1l-1-1-1-1v-1l-1-1-1-1v-1l4-2v2l1 1v1h1l1 1v1l1 1h1v1l1 1h1l1 1 1 1 1 1h2l1 1h1l1 1h2l1 1h3l1 1h4zm29-17v4l1-1v1l-1 1v1l-1 1-1 1v1l-1 1h-1v1l-1 1-1 1h-1l-1 1-1 1h-1l-1 1-1 1h-1l-1 1h-2l-1 1h-1l-1 1h-4l-1 1h-5v-4h5l1-1h3l1-1h2l1-1h1l1-1h1l1-1 1-1h1l1-1 1-1 1-1 1-1 1-1v-1h1v-1l1-1v-1l1-1 2-1zm-2 1v-1h2l-2 1zm20 3H79v-4h18l2 2-2 2zm0-4h2v2l-2-2zm-2 52V60h4v50l-2 2-2-2zm4 0v2h-2l2-2zm-96-2h94v4H3l-2-2 2-2zm0 4H1v-2l2 2zm2-52v50H1V60l2-2 2 2zm-4 0v-2h2l-2 2z"/><path id="1" d="M3 60h19c5 10 15 17 28 17s24-7 29-17h18v50H3V60z" fill="#f58634"/></g><path d="M73 108l14-7c2-1 3-4 2-6 0-3-3-5-5-5H74c3-5 6-11 7-17l1-7c0-3 1-6 3-8 5-4 13-4 18 0 3 2 4 5 4 8l1 7c1 6 3 12 6 17h-9c-3 0-5 2-6 5-1 2 1 5 3 6l13 7 2 2H72l1-2z" fill="#1cc8eb" fill-rule="nonzero"/><g><path d="M52 110h47c1-2 1-5-1-10-1-3-12-4-13-5l-1-2v-4l1-1 3-6 2-4v-4l-1-3v-6c0-1 1-4-2-7-2-3-6-4-11-4s-4 2-6 3-3-1-5 1c-3 3-2 6-2 7v6l-1 3v4l2 3 4 8v4l-2 2-10 3c-3 2-4 10-4 12z" fill="#00afef" fill-rule="nonzero"/><path id="1" class="fil5" d="M98 109l2 1-1 1H52v-2h47-1zm2 1v1h-1l1-1zm-3-9l2-1 1 1v3h1v5l-1 1-2-1v-1h1v-2h-1v-4h-1v-1zm-12-5l1-2h2v1h4v1h3v1h2v1h1v1h1v1l-2 1v-1h-1v-1h-2v-1h-3v-1h-5v-1h-1zm0 0zm-2-3h2v1h1l-1 2h-1v-1h-1v-2zm2-4v4h-2v-5l2 1zm-2 0v-1 1zm1-2l2 2h-1v1l-2-2h1v-1zm0 0v1-1zm3-6l1 2 1-1v2h-1v2h-1v2h-1v1l-2-2v-1h1v-1l1-1v-1l1-1v-1zm0 1v-1 1zm2-4h3v1h-1v2h-1v1h-1v1h-1l-1-2h1v-1h1v-2zm3-4v4h-3v-4h3zm-4-3h3l-1-1h1v2l1 1v1h-3v-3h-1zm0 0zm3-6v6h-3v-6h3zm-3 0zm-2-6l2-2v1h1v1l1 1v3h1v2h-3v-4h-1v-2h-1zm-10-4v-2h6v1h2l1 1h1v1h1v1h1l-2 2v-1h-1v-1h-2v-1h-2l-1-1h-4zm-6 3l-1-2v-1h1v-1h2v-1h4v2h-3v1h-1v1h-1v1h-1zm-4 1l-2-2h1v-1h4l1 2h-4v1zm-2-2zm0 8h-2v-5h1v-2h1v-1l2 2h-1v2h-1v4zm0 0zm-2 6v-6h2v6h-2zm2 0zm-1 3h-2v-3h1v-1l2 1v1h-1v2zm-2 4v-4h2v4h-2zm4 3l-2 1h-1v-1l-1-1v-2h2v1h1v1l1 1zm-1-1l1 1-1-1zm5 9h-2v1-1h-1v-1h-1v-2h-1v-1l-1-1v-2l2-1v2h1v2h1v2h1v1h1v1zm0-1v1-1zm-2 5v-4h2v4h-2zm-1 3v-2h-1 1v-1h3v1h-1v1l-1 1h-1zm1 0h-1 1zm-11 1l10-3v2l-9 3-1-2zm0 0zm-4 12v2l-1-1v-6h1v-3h1v-2h1v-1h1v-1h1l1 2h-1v1h-1v2h-1v5h-1v3l-1-1zm0 2h-1v-1l1 1z"/></g></g></g></svg>