<svg width="26" height="29" viewBox="0 0 26 29" fill="none" xmlns="http://www.w3.org/2000/svg">
<path fill-rule="evenodd" clip-rule="evenodd" d="M3.68454 10.0498L2.52171 10.168C2.55087 10.4548 4.95352 13.5436 5.24109 13.8042C5.34113 13.5042 5.44118 13.2042 5.65584 12.7477L6.84377 10.3082C6.95839 10.1517 7.07302 9.9951 7.04385 9.70823L5.88101 9.82645C5.76232 7.37494 7.53998 5.60014 9.92399 5.93744C10.1824 5.91117 10.1824 5.91117 10.3116 5.89803C10.1386 5.48087 10.297 5.7546 10.1532 5.6243C9.17589 4.99908 6.97942 5.22238 5.76029 6.0709C5.14343 6.42345 4.55574 7.06286 4.22646 7.676C3.68251 8.74571 3.84088 9.01945 3.68454 10.0498Z" fill="#2887D2"/>
<path fill-rule="evenodd" clip-rule="evenodd" d="M8.20639 23.4717L8.34623 24.6322C8.63251 24.5977 11.6761 22.138 11.9313 21.8456C11.6295 21.7511 11.3276 21.6567 10.8672 21.4506L8.40604 20.3082C8.24736 20.1966 8.08869 20.0849 7.80241 20.1194L7.94225 21.2798C5.49338 21.4441 3.6858 19.6998 3.97867 17.3099C3.9476 17.052 3.9476 17.052 3.93206 16.9231C3.51818 17.1038 3.78892 16.9403 3.66132 17.0865C3.0544 18.0753 3.31854 20.2673 4.1896 21.4704C4.55356 22.0806 5.2038 22.6563 5.82297 22.9741C6.90262 23.498 7.17335 23.3346 8.20639 23.4717Z" fill="#2887D2"/>
<path fill-rule="evenodd" clip-rule="evenodd" d="M21.3065 18.958L22.4697 18.8432C22.4414 18.5563 20.048 15.4603 19.7613 15.1988C19.6603 15.4985 19.5594 15.7982 19.3433 16.2541L18.1481 18.69C18.033 18.8462 17.9179 19.0024 17.9462 19.2894L19.1094 19.1747C19.2207 21.6265 17.4377 23.396 15.0547 23.0515C14.7962 23.077 14.7962 23.077 14.667 23.0897C14.8387 23.5074 14.6811 23.2332 14.8245 23.3639C15.8 23.9921 17.9971 23.7754 19.2188 22.9305C19.8367 22.5799 20.4263 21.9422 20.7574 21.3301C21.3046 20.262 21.1471 19.9878 21.3065 18.958Z" fill="#FC4D44"/>
<path fill-rule="evenodd" clip-rule="evenodd" d="M16.8759 5.56102L16.7535 4.39861C16.4667 4.42882 13.3866 6.84266 13.1271 7.13117C13.4275 7.23012 13.7278 7.32907 14.1852 7.54208L16.6289 8.72116C16.7859 8.83521 16.9428 8.94927 17.2296 8.91906L17.1072 7.75666C19.5582 7.62908 21.3395 9.4003 21.0108 11.7855C21.038 12.0438 21.038 12.0438 21.0516 12.173C21.4682 11.9985 21.195 12.1579 21.3248 12.0136C21.9465 11.034 21.7152 8.83837 20.8623 7.62232C20.5075 7.00675 19.8659 6.42138 19.2516 6.09432C18.1799 5.55425 17.9068 5.71361 16.8759 5.56102Z" fill="#FC4D44"/>
<path fill-rule="evenodd" clip-rule="evenodd" d="M8.91797 11.0909H13.9285V18.3637H8.91797V11.0909Z" fill="#FEFEFE"/>
<path d="M13.9286 11.2727H8.91801V10.8182H13.9286L14.1923 11.0909L13.9286 11.2727ZM13.9286 10.8182H14.1923V11.0909L13.9286 10.8182ZM13.6649 18.3636V11.0909H14.1923V18.3636L13.9286 18.5455L13.6649 18.3636ZM14.1923 18.3636V18.5455H13.9286L14.1923 18.3636ZM8.91801 18.1818H13.9286V18.5455H8.91801L8.6543 18.3636L8.91801 18.1818ZM8.91801 18.5455H8.6543V18.3636L8.91801 18.5455ZM9.18173 11.0909V18.3636H8.6543V11.0909L8.91801 10.8182L9.18173 11.0909ZM8.6543 11.0909V10.8182H8.91801L8.6543 11.0909Z" fill="#966100"/>
<path fill-rule="evenodd" clip-rule="evenodd" d="M17.0034 10.2728L13.9268 11.0909V18.3637L17.0034 19.091V10.2728Z" fill="#FEFEFE"/>
<path d="M13.9287 10.8182L16.9175 10.0909L17.0054 10.5455L14.0166 11.2727L13.7529 11.0909L13.9287 10.8182ZM13.7529 11.0909V10.9091L13.9287 10.8182L13.7529 11.0909ZM13.7529 18.3637V11.0909H14.1925V18.3637L13.9287 18.5455L13.7529 18.3637ZM13.9287 18.5455H13.7529V18.3637L13.9287 18.5455ZM16.9175 19.3637L13.9287 18.5455L14.0166 18.1818L17.0054 18.9091L17.1812 19.0909L16.9175 19.3637ZM17.1812 19.0909V19.4546L16.9175 19.3637L17.1812 19.0909ZM17.1812 10.2727V19.0909H16.7417V10.2727L16.9175 10.0909L17.1812 10.2727ZM16.9175 10.0909L17.1812 10V10.2727L16.9175 10.0909Z" fill="#966100"/>
<path d="M12.4365 13.9999H9.53559V12.9999L6.81055 14.909L9.53559 16.909V15.909H12.4365V13.9999Z" fill="#D40000"/>
<path d="M9.53369 13.8182H12.4345V14.1819H9.53369L9.35788 14.0001L9.53369 13.8182ZM9.53369 14.1819H9.35788V14.0001L9.53369 14.1819ZM9.70949 13.0001V14.0001H9.35788V13.0001L9.44578 12.8182L9.70949 13.0001ZM9.44578 12.8182L9.70949 12.6364V13.0001L9.44578 12.8182ZM6.72073 14.8182L9.44578 12.8182L9.62159 13.091L6.89654 15.091H6.72073V14.8182ZM6.72073 15.091L6.54492 14.9091L6.72073 14.8182V15.091ZM9.44578 17.0001L6.72073 15.091L6.89654 14.8182L9.62159 16.7273L9.70949 16.9091L9.44578 17.0001ZM9.70949 16.9091V17.1819L9.44578 17.0001L9.70949 16.9091ZM9.70949 15.9091V16.9091H9.35788V15.9091L9.53369 15.7273L9.70949 15.9091ZM9.35788 15.9091V15.7273H9.53369L9.35788 15.9091ZM12.4345 16.091H9.53369V15.7273H12.4345L12.5224 15.9091L12.4345 16.091ZM12.5224 15.9091V16.091H12.4345L12.5224 15.9091ZM12.5224 14.0001V15.9091H12.2587V14.0001L12.4345 13.8182L12.5224 14.0001ZM12.4345 13.8182H12.5224V14.0001L12.4345 13.8182Z" fill="#FEFEFE"/>
<path fill-rule="evenodd" clip-rule="evenodd" d="M16.5646 13.9092L15.9492 14.0001V15.3637L16.5646 15.5455V13.9092Z" fill="#966100"/>
<path fill-rule="evenodd" clip-rule="evenodd" d="M16.0401 14.3635C16.2159 14.3635 16.3917 14.5453 16.3917 14.7272C16.3917 14.909 16.2159 15.0908 16.0401 15.0908C15.8643 15.0908 15.7764 14.909 15.7764 14.7272C15.7764 14.5453 15.8643 14.3635 16.0401 14.3635Z" fill="#FEFEFE"/>
<path d="M16.0401 14.3635C16.2159 14.3635 16.3917 14.5453 16.3917 14.7272C16.3917 14.909 16.2159 15.0908 16.0401 15.0908C15.8643 15.0908 15.7764 14.909 15.7764 14.7272C15.7764 14.5453 15.8643 14.3635 16.0401 14.3635Z" stroke="#966100" stroke-width="0.898203"/>
</svg>
