<svg xmlns="http://www.w3.org/2000/svg" width="122" height="120" viewBox="0 0 121 120" shape-rendering="geometricPrecision" text-rendering="geometricPrecision" image-rendering="optimizeQuality" fill-rule="evenodd" clip-rule="evenodd"><defs><style>.fil1{fill:#fefefe}.fil2{fill:#966100;fill-rule:nonzero}</style></defs><g id="Layer_x0020_1"><path fill="none" d="M1 0h120v120H1z"/><g id="_916399712"><path class="fil1" d="M27 20h57v80H27z"/><path id="1" class="fil2" d="M84 22H27v-5h57l3 3-3 2zm0-5h3v3l-3-3zm-3 83V20h6v80l-3 2-3-2zm6 0v2h-3l3-2zm-60-2h57v4H27l-3-2 3-2zm0 4h-3v-2l3 2zm3-82v80h-6V20l3-3 3 3zm-6 0v-3h3l-3 3z"/><path class="fil1" d="M119 11l-35 9v80l35 8z"/><path id="1" class="fil2" d="M84 17l34-8 1 5-34 8-3-2 2-3zm-2 3v-2l2-1-2 3zm0 80V20h5v80l-3 2-2-2zm2 2h-2v-2l2 2zm34 9l-34-9 1-4 34 8 2 2-3 3zm3-3v4l-3-1 3-3zm0-97v97h-5V11l2-2 3 2zm-3-2l3-1v3l-3-2z"/><g fill-rule="nonzero"><path d="M67 52H34V41L3 62l31 22V73h33V52zm0 10" fill="#d40000"/><path id="1" d="M34 50h33v4H34l-2-2 2-2zm0 4h-2v-2l2 2zm2-13v11h-4V41l1-2 3 2zm-3-2l3-2v4l-3-2zM2 61l31-22 2 3L4 64H2v-3zm0 3l-2-2 2-1v3zm31 21L2 64l2-3 31 21 1 2-3 1zm3-1v3l-3-2 3-1zm0-11v11h-4V73l2-2 2 2zm-4 0v-2h2l-2 2zm35 2H34v-4h33l1 2-1 2zm1-2v2h-1l1-2zm0-21v21h-3V52l2-2 1 2zm-1-2h1v2l-1-2z" fill="#fefefe"/></g><path fill="#966100" d="M114 51l-7 1v15l7 2z"/><g><path d="M108 56c2 0 4 2 4 4s-2 4-4 4-3-2-3-4 1-4 3-4z" fill="#fefefe"/><path id="1" d="M108 56c2 0 4 2 4 4s-2 4-4 4-3-2-3-4 1-4 3-4z" fill="none" fill-rule="nonzero" stroke="#966100" stroke-width=".9"/></g></g></g></svg>