<svg xmlns="http://www.w3.org/2000/svg" width="120" height="120" shape-rendering="geometricPrecision" text-rendering="geometricPrecision" image-rendering="optimizeQuality" fill-rule="evenodd" clip-rule="evenodd"><defs><linearGradient id="id0" gradientUnits="userSpaceOnUse" x1="59.8" y1="68.5" x2="20.7" y2="62.6"><stop offset="0" stop-color="#fc4d44"/><stop offset="1" stop-color="#c73538"/></linearGradient><linearGradient id="id1" gradientUnits="userSpaceOnUse" x1="85" y1="95.1" x2="117.4" y2="86.9"><stop offset="0" stop-color="#04870f"/><stop offset="1" stop-color="#03690c"/></linearGradient><linearGradient id="id2" gradientUnits="userSpaceOnUse" x1="48.2" y1="62.5" x2="69.1" y2="34.4"><stop offset="0" stop-color="#1cc8eb"/><stop offset=".6" stop-color="#0e96e0"/><stop offset="1" stop-color="#0063d4"/></linearGradient><style>.fil8{fill:#00afef}.fil3{fill:#2887d2}.fil1,.fil2{fill:#fefefe;fill-rule:nonzero}.fil1{fill:#2887d2}</style></defs><g id="Layer_x0020_1"><path fill="none" d="M0 0h120v120H0z"/><g id="_686841440"><path class="fil1" d="M64 14v78H5V14z"/><path class="fil2" d="M61 12v77H2V12z"/><path id="1" class="fil1" d="M60 23V12h2v11h-2zm0 66V23h2v66l-1 1-1-1zm2 0v1h-1l1-1zM2 88h59v2H2l-1-1 1-1zm0 2H1v-1l1 1zm1-78v77H1V12l1-1 1 1zm-2 0v-1h1l-1 1zm60 2H2v-3h59l1 1-1 2zm0-3h1v1l-1-1z"/><g><path class="fil1" d="M16 25h-1v-6h-2v-1l3-1z"/><path id="1" class="fil1" d="M18 37h-6v-2l3-2c0-1 1-1 1-1v-1-1h-1-1v1h-2s0-1 1-1c0-1 0-1 1-1h3c0 1 1 1 1 2l-1 1s0 1-1 1l-2 2h4v2z"/><path id="2" class="fil1" d="M13 48v-1h1v1h-1z"/><path id="3" class="fil1" d="M13 59h1v1h-1v-1z"/><path id="4" class="fil1" d="M13 71v-1c1 0 1 1 1 1v1h-1v-1z"/><path id="5" class="fil1" d="M14 79h2v-1-1h-1-1v1h-2s0-1 1-1c0 0 0-1 1-1h3c0 1 1 1 1 2s-1 1-1 1 0 1-1 1c1 0 1 0 1 1 1 0 1 0 1 1l-1 1c-1 1-1 1-2 1s-2 0-2-1c-1 0-1-1-1-1h2c0 1 1 1 1 1s1 0 1-1 0-2-1-2h-1v-1z"/><path id="6" class="fil1" d="M24 81c0 1 0 2-1 2 0 1-1 1-2 1 0 0-1 0-2-1v-4-2c1-1 2-1 2-1 1 0 2 0 2 1 1 0 1 1 1 2v2zm-1-2c0-1-1-1-1-1 0-1 0-1-1-1v1c-1 0-1 0-1 1v2s0 1 1 1v1c1 0 1 0 1-1 0 0 1 0 1-1v-2z"/><path class="fil3" d="M23 19h23.3v3.5H23zM23 31h31.1v3.5H23zM28 77h25.7v3.5H28z"/></g><g id="_686841776"><path d="M35 21v75s67-1 67 1V35l-8-13-1-1H35z" fill="#fefefe"/><path d="M38 25v75s68-2 68 0V39l-7-14h-1-60z" fill="#fefefe"/><path id="1" d="M37 100V25h3v75l-2 1-1-1zm1 1h-1v-1l1 1zm69-1h-3l1 1H38v-3h68l1 2zm-3-60l3-1v61h-3 3-3V39v1zm-4-15l7 14-3 1-6-14 2-2v1zm0-1v1-1zm-1 0h1l-2 3-1-1 1-3 1 1zm-1-1h1v1l-1-1zm-58 2h-3l1-2h60v3H39l1-1z" fill="#0098da" fill-rule="nonzero"/><path d="M44 62v6h29v-6c-1-3-5-4-8-5-1-1-1-1-1-2v-2-1c1-1 2-3 2-4 2-1 2-2 2-3v-3s0-1-1-2v-3c1-1 1-3-1-5s-4-3-7-3c-4 0-5 0-8 3-1 2-1 4-1 5v3c0 1-1 2-1 2v3c0 1 1 2 1 2 1 3 2 5 3 6v2c0 1 0 1-1 1l-6 4c-1 0-2 1-2 2z" fill="url(#id2)" fill-rule="nonzero"/><path class="fil8" d="M44 87h42.6v4H44z"/><g id="_686842352"><path d="M101 74c9 0 17 8 17 17s-8 17-17 17-17-8-17-17 8-17 17-17z" fill="url(#id1)"/><path id="1" class="fil2" d="M119 91h-2v-5l-1-1v-1l-1-1v-1l-1-1-1-1-1-1h-1v-1h-1v-1h-1l-1-1h-2l-1-1h-4v-1h5l1 1h2l1 1 1 1h1v1h1l1 1 1 1v1h1v1l1 1v1l1 1v3l1 1v2zm-18 17v-1h4l1-1h2l1-1h1v-1h1v-1h1l1-1 1-1 1-1v-1l1-1v-1l1-1v-5h2v2l-1 1v3l-1 1v1l-1 1v1h-1v1l-1 1-1 1h-1v1h-1l-1 1-1 1h-2l-1 1h-5zM84 91h1v3l1 1v2l1 1v1l1 1v1h1v1h1v1h1l1 1 1 1h1v1h2l1 1h4v1h-5l-1-1h-1l-1-1h-1l-1-1-1-1-1-1h-1v-1l-1-1-1-1v-1l-1-1v-2l-1-1v-4zm17-17v1h-4l-1 1h-2v1h-1l-1 1-1 1h-1v1h-1v1h-1v1l-1 1v1l-1 1v2l-1 1v3h-1v-4l1-1v-2l1-1v-1l1-1 1-1v-1h1l1-1 1-1 1-1h1l1-1h1l1-1h5z"/><path d="M104 96c0-1 0-1-1-2 0 0-1-1-2-1-1-1-2-1-2-1-1-1-2-1-2-2-1 0-1-1-2-2v-2c0-2 0-3 1-4s3-2 5-2v-2-1h1c1 0 1 0 1 1v2c2 1 3 1 4 2 1 2 1 3 1 4s0 2-1 2h-1c-1 0-2-1-2-1v-1c0-1 0-1-1-2h-3c-1 1-1 1-1 2s0 1 1 2c0 0 1 1 2 1 1 1 2 1 3 1l2 2s1 1 1 2v2c0 2 0 3-1 4s-3 2-4 2v2l-1 1h-1l-1-1v-2c-2-1-3-1-4-2-1-2-2-3-2-5 0 0 1-1 2-1h1c1 0 1 1 1 1v1c0 1 1 1 1 1 1 1 1 1 2 1h2c1-1 1-1 1-2z" fill="#fff212" fill-rule="nonzero"/></g><path class="fil8" d="M76 36h22.8v4H76zM76 48h22.8v4H76zM76 59h22.8v4H76zM44 74h42.6v4H44z"/></g><g><path class="fil2" d="M41 64l-1-1 2-3h1l-1 4h-1zm1 0h-1 1zm0 0v-4h1l-1 4zm0-4h1-1zm9 6l3 2-1 1h-2l-1-1h-2v-1h-2v-1h-1l-1-1h-1l-1-1h-1l2-4v1h2v1h1l1 1h1v1h2v1h2-1v1zm6-3l-3 5-3-2 3-5 3 1v1zm-3-2l2-2 1 3-3-1zm5 18l-5-16 3-1 5 16-1 3-2-2zm3-1l1 2-2 1 1-3zm-20 0l19-1v4l-19 1-1-3 1-1zm0 4h-4l3-3 1 3zm5-5l-4 4-2-2 3-5h3v3zm0-3l1 1-1 2v-3zm-11-5l3-3v1h1v1h1v1h1v1h1v1h1v1h1v1h1l1 1-2 3-1-1h-1v-1h-1v-1h-1v-1h-1v-1h-1v-1h-1v-1h-1v-1h-1zm3-3zM19 53l2-3h1v1h1v1l1 1 1 1h1v1l1 1h1v1l1 1h1l1 1v1h1l1 1 1 1 1 1 1 1 1 1 1 1h1l-3 3-1-1v-1h-1l-1-1-1-1-1-1-1-1h-1v-1h-1l-1-1v-1l-1-1h-1l-1-1-1-1v-1h-1l-1-1-1-1-1-1zm2-3h1-1zm19 11l3 2h-4v-1h-2l-1-1-1-1h-1l-1-1h-1l-1-1h-1l-2-1-1-1h-1l-1-1h-1v-1h-2l-1-1h-1l1-1v-2l-2 3-1-1v-2l2-1h1l1 1h2v1h1l1 1h1l1 1h1l1 1h1l1 1h1l1 1h1l1 1 1 1h2l1 1h1v1h1l-2 1zm3 2l-1 1-2-1h3zm0 0l-3-2 2-1 1 3zm-3-2l1-2 1 1-2 1z"/><path id="1" d="M41 62h1c2 1 9 6 10 5l4-5 5 17-19 1 4-5c-4-3-5-4-8-7-3-2-16-15-18-16-4-4 19 9 21 10z" fill="url(#id0)"/></g></g></g></svg>