<svg xmlns="http://www.w3.org/2000/svg" width="120" height="121" xmlns:xlink="http://www.w3.org/1999/xlink" shape-rendering="geometricPrecision" text-rendering="geometricPrecision" image-rendering="optimizeQuality" fill-rule="evenodd" clip-rule="evenodd"><defs><linearGradient id="id0" gradientUnits="userSpaceOnUse" x1="56.3" y1="41.2" x2="97.4" y2="30.8"><stop offset="0" stop-color="#04870f"/><stop offset="1" stop-color="#03690c"/></linearGradient><linearGradient id="id1" gradientUnits="userSpaceOnUse" xlink:href="#id0" x1="30.2" y1="96.3" x2="71.2" y2="85.9"/><style>.fil9{fill:#f58634}.fil5,.fil8{fill:#fefefe;fill-rule:nonzero}.fil8{fill:#fff212}</style></defs><g id="Layer_x0020_1"><path fill="none" d="M0 0h120v120H0z"/><g id="_570066272"><path d="M8 2v108s92-2 92 0V22L90 3l-1-1H8z" fill="#a9abae"/><path d="M16 9v109h87c5 0 7 1 7-3 0-22 2-47 2-68 0-6-1-10-3-14l-9-23-1-1H16z" fill="#fefefe"/><path id="1" d="M13 118V9h5v109l-2 2-3-2zm3 2h-3v-2l3 2zm87-5v6H81l-3-1H16v-5h87zm4 0h6v3h-1v1l-1 1h-1l-1 1h-6v-6h5v1h-1v-1zm2-68h6v16l-1 3v21l-1 3v25h-6v-2l1-2V81l1-3V47zm-2-13l5-2v2l1 1v2h1v5h1v5h-6v-7l-1-1v-3h-1v-2zm-4-25l9 23-5 2-9-23 4-3 1 1zm-1-1v1h1l-1-1zm-1-1l1 1-4 4-1-1 2-5 2 1zm-2-1h1l1 1-2-1zM18 9h-5l3-2 2-1h81v6H16l2-3z" fill="#0098da" fill-rule="nonzero"/><g id="_570066536"><path d="M51 70c11 0 21 9 21 21s-10 21-21 21c-12 0-22-9-22-21s10-21 22-21z" fill="url(#id1)"/><path id="1" class="fil5" d="M73 91h-2v-4l-1-1v-3l-1-1v-1h-1v-1l-1-1-1-1v-1h-1l-1-1v-1h-1l-1-1h-1l-1-1-1-1h-2l-1-1h-5v-2h4l1 1h2l1 1h1l1 1h1l1 1h1l1 1 1 1 1 1 1 1v1l1 1 1 1v1l1 1v2l1 1v2l1 1v3zm-22 22v-1h1l1-1h4l1-1h2v-1h1l1-1 1-1h1v-1h1l1-1v-1l1-1h1v-1l1-1v-1l1-1v-3l1-1v-4h2v3l-1 2v2l-1 1v2l-1 1v1h-1l-1 1v1l-1 1-1 1-1 1-1 1h-1l-1 1-1 1h-2l-1 1h-2l-1 1h-4zM29 91h1v2l1 1v3l1 1v2l1 1v1l1 1 1 1 1 1v1h1l1 1 1 1 1 1h1l1 1h2l1 1h4l1 1h1v1h-5l-1-1h-2l-1-1h-2l-1-1-1-1h-1v-1l-1-1h-1l-1-1v-1l-1-1-1-1-1-1v-1l-1-1v-2l-1-1v-6zm22-22v2h-5l-1 1h-2l-1 1h-1l-1 1h-1l-1 1-1 1-1 1-1 1-1 1v1l-1 1-1 1v2l-1 1v3l-1 1v2h-1v-5l1-1v-2l1-1v-1l1-1v-1l1-1 1-1v-1l1-1h1l1-1v-1h1l1-1h1l1-1h1l1-1h2l1-1h5z"/><path d="M54 97v-2c-1-1-2-1-3-2-2 0-3-1-4-1l-2-2c-1 0-1-1-2-2v-3c0-2 0-4 2-5 1-1 3-2 5-2v-3c0-1 0-1 1-1h1s1 0 1 1v3c2 0 4 1 5 2 1 2 2 3 2 5 0 1-1 2-2 2h-2c-1 0-2-1-2-1v-1-2c-1-1-2-1-3-1s-2 0-2 1c-1 0-1 1-1 2s0 2 1 2c0 1 1 1 3 2 1 0 2 1 3 1 1 1 2 2 3 2 0 1 1 2 1 2 1 1 1 2 1 3 0 2-1 4-2 5-2 2-3 2-6 3v2c0 1 0 1-1 1h-1v-3c-3-1-5-1-6-3-2-1-2-3-2-5 0-1 1-2 1-2h2c1 0 2 1 2 2s0 2 1 2c1 1 2 2 3 2s2-1 2-1c1-1 1-2 1-3z" fill="#fff212" fill-rule="nonzero"/><path d="M77 15c12 0 21 9 21 21s-9 21-21 21-21-9-21-21 9-21 21-21z" fill="url(#id0)"/><path id="1" class="fil5" d="M99 36h-2v-5l-1-1v-2l-1-1v-1l-1-1-1-1v-1l-1-1h-1v-1l-1-1h-1l-1-1h-1v-1h-1l-1-1h-1l-1-1h-6v-2h4l1 1h2l1 1h1l1 1h1l1 1h1l1 1 1 1 1 1 1 1 1 1v1l1 1 1 1v1l1 1v4l1 1v3zM77 58v-2h6l1-1h1l1-1h1v-1h1l1-1h1l1-1v-1h1l1-1v-1l1-1 1-1v-1l1-1v-2l1-1v-5h2v3l-1 1v4l-1 1v1l-1 1-1 1v1l-1 1-1 1-1 1-1 1-1 1h-1l-1 1h-1l-1 1h-1l-1 1h-2l-1 1h-4zM55 36h1v2l1 1v3l1 1v2l1 1v1h1v1l1 1 1 1 1 1 1 1h1v1h1l1 1h1l1 1h1l1 1h6v2h-5l-1-1h-2l-1-1h-1l-1-1h-1l-1-1-1-1-1-1h-1l-1-1v-1l-1-1v-1l-1-1h-1v-1l-1-1v-2l-1-1v-6zm22-22v2h-6l-1 1h-1l-1 1h-1l-1 1h-1v1h-1l-1 1-1 1-1 1-1 1v1h-1v1l-1 1v2l-1 1v3l-1 1v2h-1v-6l1-1v-2l1-1v-1h1l1-1v-1l1-1v-1l1-1h1l1-1 1-1 1-1h1l1-1h1l1-1h2l1-1h5z"/><path class="fil8" d="M70 36h-2v6h-3V26h5c2 0 4 0 5 1s1 2 1 4v2c-1 1-2 2-3 2l4 6v1h-4l-3-6zm-2-3h4c1-1 1-1 1-2s0-1-1-2h-4v4z"/><path id="1" class="fil8" d="M89 36c0 2 0 3-1 4s-2 2-3 2c-2 0-3-1-3-1v5h-3V30h2l1 1c0-1 1-1 2-1 2 0 3 0 4 1s1 3 1 5zm-3 0c0-1 0-2-1-3l-1-1c-1 0-2 1-2 1v5c0 1 1 1 2 1s2-1 2-3z"/><path class="fil9" d="M45 38c-1 1-2 1-2 2h-1v1h-1c0 1-1 1-1 2-1 0 0 0-1 1 0 1 0 1-1 1v1s-1 0-1 1v1h-1v2h-1v1h-2l-1-1c-1 0-1 1-1 0h-1-1s-2-1-2 1v3s1 0 1 1v2l1 2v1l1 2v2l1 4v1c1 1 1 0 1 1v3s1 1 1 2c0 0 1 1 2 0l1-1s0-1 1-1c0-1 1-1 1-1 0-1 1-1 1-1v-1h1c0-1 0 0 0 0v-1l2-1c0-1 0-1 1-1v-1h1l1-2h1v-1h1c0-1 1-2 2-2v-1h1l1-1v-1s1 0 1-1-1-1-2-2h-3v-1h-2v-1c1-1 0-1 1-1v-1c0-1 1 0 1-1v-1h1l1-1v-1h1l2-2h1c0-1 0-1 1-1v-1-1-2-3-1-1s0-1 1-1c0-1-1-1-1-1-2 1-4 2-7 3v1h-1c-1 1 0 1-1 1zM92 54l-1 1h-1v1h-1v1l-1 1-2 2h-1v1s-1 1-2 1v1h-1v1c-1 0-1 0-1 1h-1v1h-1v1l-1 1-2 1v2s1 0 1 1c0 0 0-1 1 0 1 0 3 1 3 1h2v2h-1v1c-1 0-1 1-1 1l-2 2v1h-1l-2 2h-1v1h-1-1c0 1 1 1 1 2 0 4 0 5-2 9 6 0 19-12 21-17v-1c1 0 2 1 2 1h2c1 0 3 2 4 1v-2l-1-2v-1s0 1 0 0v-1-1-1c-1 0-1-1-1-2v-1-1l-1-1v-1-1l-1-2v-1-1-1-1c-1 0-1-1-1-1v-3h-1v-1h-1c-1 1-1 2-2 2z"/></g></g></g></svg>