<svg xmlns="http://www.w3.org/2000/svg" width="120" height="120" shape-rendering="geometricPrecision" text-rendering="geometricPrecision" image-rendering="optimizeQuality" fill-rule="evenodd" clip-rule="evenodd"><defs><linearGradient id="id0" gradientUnits="userSpaceOnUse" x1="72.9" y1="101.3" x2="115.7" y2="90.4"><stop offset="0" stop-color="#04870f"/><stop offset="1" stop-color="#03690c"/></linearGradient><style>.fil4{fill:#f58634}.fil5{fill:#fefefe;fill-rule:nonzero}</style></defs><g id="Layer_x0020_1"><path fill="none" d="M0 0h120v120H0z"/><g id="_544604768"><path d="M3 2v96s88-2 88 0V21L81 3l-1-1H3z" fill="#bdbfc1"/><path d="M11 8v99s89-2 89 1V28L91 9l-1-1H11z" fill="#fefefe"/><path id="1" d="M10 107V8h3v99l-2 2-1-2zm1 2h-1v-2l1 2zm90-1h-2v1l-1-1H22l-3 1h-8v-3h14l3-1h68l2 1h2l1 2zm-2-80l2-1v80l-2 1h2l-2-1V28zM93 9l8 18-2 1-9-18 2-2 1 1zm-1-1l1 1-1-1zm-1-1l1 1-2 2-1-1 1-2h1zm-1 0h1-1zM13 8h-3l1-1h79v3H12l1-2z" fill="#0098da" fill-rule="nonzero"/><g id="_544605800"><path class="fil4" d="M65 65l-2 12c1 7 6 16 14 19l-3 6c-2 1-1 2-3 1-9-4-18-10-20-19l-2-4c-10 2-16 14-16 23H22c1-14 6-27 21-35l-1-13-6 6c-13 8-10 9-17 4 1-3 6-6 8-9 5-5 12-14 16-16 3-2 9-4 14-4 5 12 8 15 8 29z"/><path id="1" class="fil5" d="M62 77v-9h1v-3h3v4h-1v8h-3zm13 19l1 1h-1v-1h-1l-1-1h-1l-1-1h-1v-1l-1-1-1-1-1-1-1-1v-1l-1-1-1-1v-2h-1v-3h-1v-4h3v3l1 1v2h1v2h1v2h1v1h1v1l1 1 1 1 1 1 1 1h1l1 1h1v1l1 1h-3zm2-1h1v1l-1-1zm-4 6v-1h1v-2h1v-2h3v2l-1 1v2h-1v1h-1v1l-2-2zm-1 1h1-1v-1h1l2 2h-1v1h-1v1h-1v-1h-1l1-2zm-1 2zM52 84v1l1 1v1l1 1v1h1v1l1 1v1h1l1 1v1h1v1h1l1 1h1v1h1l1 1 1 1h2l1 1h1v1h2l1 1-1 2h-1l-1-1h-2l-1-1h-1l-1-1h-1v-1h-1l-1-1h-1l-1-1-1-1-1-1-1-1h-1v-1l-1-1h-1v-1l-1-1v-1h-1v-1l-1-1v-2h-1v-1l3-1zm0 0zm-5-4l3-1v1l2 4-3 1-2-5zm3-1v1-1zm-2-1l2 1-2 2h-1 1-1 1-1v-1 1-1 1-1 1h2l-1-3zm0 0h1l1 1-2-1zm-15 23l-1 2v-6l1-1v-3l1-1v-1l1-1v-1l1-1v-1l1-1v-1h1l1-1v-1h1l1-1 1-1h1v-1h1l1-1h2l1-1 1 3h-2v1h-2l-1 1-1 1h-1v1l-1 1-1 1v1h-1v1l-1 1v1l-1 1v1l-1 1v3l-1 1v5l-1 1-1-3zm2 2v1h-1l1-1zm-11 0l-2-1h11v-1l1 3h-4l-1 1h-2v-1h-5l-1-1h3zm-2 1h-1v-1l1 1zm23-36l-1 1-1 1-1 1-2 1h-1l-1 1-1 1-1 1-1 1-1 1-1 1-1 1v1l-1 1-1 1-1 1v1l-1 1v1l-1 1v1l-1 2v1l-1 1v4l-1 1v6h-3v-7l1-1v-4l1-1v-1l1-1v-2l1-1v-1l1-1 1-1v-1l1-2 1-1 1-1 1-1 1-1 1-1 1-1 1-1 1-1 1-1h1l2-1 1-1 2-1-1 1h3zm0 0v1h-1l1-1zm-4-13v-1l3 1 1 13h-3l-1-13zm0-1l2-2 1 3-3-1zm-6 6v-1h1l1-1 1-1 1-1h1v-1h1v-1l2 2v1h-1l-1 1v1h-1v1h-1l-1 1-1 1-2-2zm-14 5l-1-1h1v1h1v1h2v1h1l1-1 1-1h1v-1h1l1-1 1-1h1l1-1 2-1 2 2-2 1-1 1h-1l-1 1-1 1h-1v1h-1v1h-1l-1 1h-2v1h-1v-1h-2l-1-1h-1v-1h-1v-1h-1v-1h3zm-3 1l-1-1h1v1zm10-9v1h-1v1h-1v1h-1v1h-1v1h-1v1h-1v1h-1v1h-3v-2h1v-1h1v-1h1v-1h1v-1h1v-1h1v-1h1v-1h1l2 1zm16-16h-1l-1 1-1 1-1 1-1 1-1 1-1 1v1h-1v1h-1v1l-1 1h-1v1l-1 1-1 1-1 1v1h-1v1h-1l-2-1v-1h1v-1l1-1 1-1 1-1v-1h1v-1h1l1-1v-1h1v-1l1-1 1-1 1-1 1-1 1-1 1-1h1v-1h1l2 2zm12-4l1 1h-1v-1h-1v1h-5l-1 1h-2l-1 1h-2v1l-2-2v-1h2v-1h3v-1h3l1-1h6l2 1-3 1zm1-2h1l1 1-2-1zm6 30V54l-1-1v-3l-1-1v-2l-1-1v-1l-1-1v-1l-1-1v-1l-1-1v-1l-1-1v-1l3-1v1l1 1v2l1 1 1 1v2l1 1v1h1v3h1v3l1 1v12h-3zm3 0z"/><path class="fil4" d="M87 52c0 7-7 14-16 14-11 0 0-3-10-24l-3-6 2-1c5-3 15-3 20 1 4 4 7 10 7 16z"/><path id="1" class="fil5" d="M71 65h2l1-1h3v-1h1l1-1h1l1-1 1-1 1-1v-1h1v-2l1-1v-3h3v4l-1 1v1l-1 1-1 1v1l-1 1h-1v1h-1v1h-1l-1 1-1 1h-3v1h-5v-2zm-9-24l1 2 1 2 1 2v1l1 2v3l1 1v10l1 1h3v2h-5v-1h-1l-1-1V55l-1-2v-2l-1-2v-2l-1-1-1-2v-2l2-1zm-3-4l1-1v2h1v1l1 1v1l-2 1h-1v-2h-1v-2h-1v-3l2 2zm-2-1v-1 1zm2-2l2 2-2 1-2-2 2-1zm0 0zm20 3l-1-1h-1l-1-1h-2l-1-1h-9v1h-3v1l-2-2 1-1h2v-1h6l1-1h1v1h6v1h2l1 1h1l1 1-2 2zm6 15v-5l-1-1v-2l-1-1v-1l-1-1v-1l-1-1-1-1-1-1 2-2 1 1h1v1l1 1v1h1v2h1v2h1v3h1v6h-3z"/><g><path class="fil4" d="M36 23c0-17 26-14 23 3-1 5-6 11-13 10-6 0-10-8-10-13z"/><path id="1" class="fil5" d="M57 26l1-2v-1l-1-1v-3l-1-1-1-1v-1l-1-1h-1l-1-1h-1l-1-1h-4l-1 1h-2l-1 1-1 1h-1v1l-1 1v1l-1 1v3h-3v-5l1-1v-1l1-1 1-1 1-1 1-1 1-1h3l1-1h4l2 1h2l1 1h1l2 1 1 1v1l1 1 1 1v2l1 1v6h-4zm-10 9h3l1-1h1l1-1 1-1 1-1 1-1v-2h1v-2h4v2h-1v2l-1 1v1h-1v1l-1 1-1 1h-1v1h-1l-1 1h-2v1h-5l1-3zm-9-12v2l1 1v2l1 1v1h1v1l1 1v1h1l1 1h1v1h2l-1 3h-1l-1-1h-2v-1h-1v-1h-1v-1h-1l-1-1v-1h-1v-1l-1-1v-1l-1-1v-5h3z"/></g></g><g><path d="M94 74c13 0 23 10 23 22s-10 22-23 22c-12 0-22-10-22-22s10-22 22-22z" fill="url(#id0)"/><path id="1" class="fil5" d="M117 96h-1v-2l-1-1v-4h-1v-2l-1-1v-1l-1-1-1-1v-1l-1-1h-1v-1l-1-1h-1l-1-1h-1l-1-1-1-1h-1l-1-1h-7v-2h5l1 1h2l1 1h1l1 1h1l1 1h1l1 1 1 1 1 1 1 1 1 1v1l1 1 1 1v1l1 1v2l1 1v6zm-23 23v-2h5l1-1h2l1-1h1l1-1h1l1-1 1-1h1v-1l1-1 1-1 1-1 1-1v-1l1-1v-2l1-1v-3l1-1v-2h1v6l-1 1v2l-1 1v1l-1 1-1 1v1h-1l-1 1v1l-1 1-1 1h-1l-1 1-1 1h-1l-1 1h-2l-1 1h-2l-1 1h-4zM71 96h2v4l1 1v2l1 1v1l1 1v1l1 1v1h1l1 1v1l1 1h1l1 1v1h1l1 1h2l1 1h2l1 1h4v2h-3l-1-1h-3l-1-1h-2l-1-1h-1l-1-1v-1h-1l-1-1-1-1-1-1v-1h-1l-1-1v-1l-1-1v-1l-1-1v-1l-1-1v-4l-1-1v-2zm23-23v2h-6l-1 1h-1l-1 1h-1l-1 1h-1v1h-1l-1 1-1 1-1 1-1 1v1l-1 1v1l-1 1v1l-1 1v2l-1 1v4h-2v-3l1-1v-3l1-1v-1l1-1v-1l1-1v-1l1-1 1-1v-1h1l1-1 1-1 1-1 1-1h1l1-1h1l1-1h3l1-1h4z"/><path d="M98 102l-1-2-3-2-3-1-3-2-1-2-1-4 2-5 5-2v-3l1-1h2l1 1v3c2 0 4 1 5 3 1 1 2 2 2 5l-2 2h-2l-2-2-1-3-2-1-3 1-1 2 1 3 3 1 4 2 3 2 1 2 1 3-2 6-6 2v3l-1 1h-1l-1-1v-3l-6-3-2-5 2-2h2l1 2 2 2c0 1 1 2 3 2l2-1 1-3z" fill="#fff212" fill-rule="nonzero"/></g></g></g></svg>