<svg xmlns="http://www.w3.org/2000/svg" width="121" height="120" viewBox="0 0 120 118" shape-rendering="geometricPrecision" text-rendering="geometricPrecision" image-rendering="optimizeQuality" fill-rule="evenodd" clip-rule="evenodd"><defs><style>.fil1{fill:#fefefe}.fil2,.fil4,.fil8{fill:#fefefe;fill-rule:nonzero}.fil2,.fil8{fill:#2887d2}.fil2{fill:#966100}</style></defs><g id="Layer_x0020_1"><path fill="none" d="M1 0h118v118H1z"/><g id="_796909560"><path class="fil1" d="M27 15h57v79H27z"/><path id="1" class="fil2" d="M84 16H27v-3h57l1 2-1 1zm0-3h1v2l-1-2zm-2 81V15h3v79l-1 2-2-2zm3 0v2h-1l1-2zm-58-2h57v4H27l-2-2 2-2zm0 4h-2v-2l2 2zm2-81v79h-4V15l2-2 2 2zm-4 0v-2h2l-2 2z"/><path class="fil1" d="M118 6l-34 9v79l34 8z"/><path id="1" class="fil2" d="M83 13l34-9 1 4-34 9-2-2 1-2zm-1 2v-2h1l-1 2zm0 79V15h3v79l-2 2-1-2zm1 2l-1-1v-1l1 2zm34 8l-34-8 1-4 34 8 2 2-3 2zm3-2v3l-3-1 3-2zm0-96v96h-4V6l1-2 3 2zm-3-2h3v2l-3-2z"/><path d="M66 80H34V69L3 91l31 21v-11h32V80zm0 11" fill="#d40000" fill-rule="nonzero"/><path id="1" class="fil4" d="M34 78h32v4H34l-2-2 2-2zm0 4h-2v-2l2 2zm2-13v11h-4V69l1-1 3 1zm-3-1l3-2v3l-3-1zM2 89l31-21 2 3L4 92H2v-3zm0 3l-2-1 2-2v3zm31 22L2 92l2-3 31 21 1 2-3 2zm3-2v4l-3-2 3-2zm0-11v11h-4v-11l2-2 2 2zm-4 0v-2h2l-2 2zm34 2H34v-4h32l2 2-2 2zm2-2v2h-2l2-2zm0-21v21h-4V80l2-2 2 2zm-2-2h2v2l-2-2z"/><path fill="#966100" d="M113 45l-7 2v15l7 1z"/><g><path d="M107 51c2 0 4 1 4 3s-2 4-4 4-4-2-4-4 2-3 4-3z" fill="#fefefe"/><path id="1" d="M107 51c2 0 4 1 4 3s-2 4-4 4-4-2-4-4 2-3 4-3z" fill="none" fill-rule="nonzero" stroke="#966100" stroke-width=".9"/></g><g><path class="fil8" d="M29 65h32v-7c-1-2-9-3-9-3l-1-2v-2-1l3-4 1-3v-3-6s0-3-2-5-4-3-7-3c-4 0-6 0-8 3-2 2-2 5-2 5v9l1 2 3 6v2l-2 2-6 2c-3 1-3 6-3 8z"/><path id="1" class="fil4" d="M60 64l2 1-1 1H29v-2h32-1zm2 1v1h-1l1-1zm-2-6l2-1v3h1v4h-1l-2-1h1v-2l-1-1v-2zm-9-3l1-2h3l1 1h2l1 1h1v1h1v1h1l-2 1-1-1h-1v-1h-3v-1h-4zm0 0zm-1-3h2v1l-1 2v-1h-1v-2zm2-2v2h-2v-3l2 1zm-2 0v-1 1zm1-2l1 2-2-1v-1h1zm0 0h-1 1zm2-4l1 2 1-1h-1v2l-1 1v1h-1v1l-1-2v-1h1v-2l1-1zm0 0zm1-2h2v2l-1 1h-1v1l-1-2 1-1v-1zm2-3v3h-2v-3h2zm-2-2h2l-1-1h1v3h-2v-2zm0 1v-1 1zm2-5v4h-2v-4h2zm-2 0zm-2-4l2-2v1h1v3h1v2h-2v-1l-1-1v-2h-1zm-6-3v-2h2v1h3l1 1h1v1h1l-2 2v-1h-1v-1h-3l-1-1h-1zm-7 3l-2-1v-1h1v-1h1v-1h3v-1h4v2h-3v1h-3v1h-1v1zm-2-1zm1 5h-3v-3h1v-2h1l2 1h-1v2h-1v2h1zm0 0zm-3 4v-4h3v4l-1 1-2-1zm3 0l-1 1 1-1zm-1 2h-2v-2l1-1 1 2v1zm-2 3v-3h2v3h-2zm3 2l-2 1v-1h-1v-2h2v1h1v1zm0-1v1-1zm3 7h-3v-2h-1v-1l-1-1v-1l2-1v2h1v1l1 1v1h1v1zm0-1v1-1zm-2 3v-2h2v2h-2zm0 3l-1-2v-1h3v1h-1v1h-1v1zm0 0zm-7 0l6-2 1 2-7 2-1-2h1zm-1 0h1-1zm-2 8v2l-1-1v-5h1v-2l1-1v-1h1l1 2h-1v2l-1 1v4l-1-1zm0 2h-1v-1l1 1z"/><g><path class="fil8" d="M49 65h32c1-2 1-3-1-7-1-2-8-3-8-3l-1-2v-2-1l2-4 2-3v-3l-1-2v-4s1-3-1-5-4-3-8-3c-3 0-5 0-8 3l-1 5v4l-1 2v3l2 2c0 3 2 5 3 6v2l-2 2-6 2c-3 1-3 6-3 8z"/><path id="1" class="fil4" d="M80 64l2 1-1 1H49v-2h32-1zm2 1v1h-1l1-1zm-3-6l2-1 1 1v3h1v2h-1v1l-2-1v-5h-1zm-8-3l1-2h3v1h3v1h2v1h1v1l-2 1v-1h-1v-1h-3v-1h-4zm0 0zm-1-3h2v1l-1 2v-1h-1v-2zm2-2v2h-2v-3l2 1zm-2 0v-1 1zm0-2l2 2h-1l-1-1v-1zm0 0zm3-4l1 2v-1 2h-1v2h-1v1l-2-2h1v-2h1v-2h1zm-1 0h1-1zm2-2h2v2h-1v1h-1v1l-1-2v-1h1v-1zm2-3v3h-2v-3h2zm-3-2h2v-1 1h1v2h-2v-1l-1-1zm1 1l-1-1 1 1zm1-5v4h-2v-4h2zm-2 0zm-1-4l2-2v2h1v4h-2v-3l-1-1zm-7-3v-2h3v1h3v1h2v1h1l-2 2v-1h-1l-1-1h-3v-1h-2zm-7 3l-1-1v-1h1v-1h1v-1h3v-1h3v2h-2l-1 1h-2v1h-1l-1 1zm-1-1zm0 5h-2v-3l1-1v-1h1l1 1v1h-1v3zm0 0zm-2 4v-4h2v5l-2-1zm2 0v1-1zm0 2h-3v-1h1v-2l2 2v1zm-3 3v-3h3v3h-3zm4 2l-2 1h-1v-2h-1v-1h3v1l1 1zm-1-1l1 1-1-1zm4 7h-3 1-1v-1h-1v-2h-1v-2l2-1v2h1v2h1v1l1 1zm-1-1h1v1l-1-1zm-2 3v-2h3v2h-3zm1 3l-1-2v-1h3l-1 1v1h-1v1zm0 0zm-8 0l7-2 1 2-7 2-1-2zm0 0zm-2 8v2l-1-1v-6h1v-2h1v-1h1l1 2h-1v2h-1v5l-1-1zm0 2h-1v-1l1 1z"/></g><g><path class="fil8" d="M39 71h32v-6c-2-3-9-3-9-4l-1-1v-3l2-5c2 0 2-1 2-3v-3l-1-2v-3c1-1 1-3-1-5s-4-3-8-3c-3 0-5 0-7 3-2 2-2 4-2 5v8l1 3c0 2 2 5 3 5v3l-2 1-6 2c-3 1-3 7-3 8z"/><path id="1" class="fil4" d="M70 71l2 1-1 1H39v-3h7v1h16l2-1h7l-1 1zm2 1v1h-1l1-1zm-2-7h2v3h1v3h-1v1l-2-1v-1h1v-1h-1v-4zm-9-3l1-2 1 1h4v1h2l1 1h1v2h-2v-1h-3v-1h-4v-1h-1zm0 0zm-1-2h2l-1 2h-1v-2zm2-3v3h-2v-3h2zm-2 0zm0-1l2 1v1l-2-1v-1zm0 0zm3-5l1 2v2h-1v1l-1 1-2-1h1v-2h1v-2l1-1zm-1 1l1-1-1 1zm2-3h2v3h-1v1h-1l-1-2h1v-2zm2-3v3h-2v-3h2zm-3-2h3-1 1v2h-2v-1l-1-1zm1 1h-1v-1l1 1zm2-4v3h-3v-4l3 1zm-3 0v-1 1zm-1-5l2-1v1h1v3h1v2l-3-1v-3h-1v-1zm2-1zm-9-1v-2h5v1h2v1h1v1h1l-2 1h-1v-1h-2v-1h-4zm-7 2l-1-1 1-1 1-1h1v-1h5v2h-4v1h-2v1h-1zm-1-1zm0 6h-2v-3l1-1v-1l1-1 1 1v2h-1v3zm0-1v1-1zm-2 4v-3h2v4l-2-1zm2 0v1-1zm0 2h-2v-2h1l1 1v1zm-2 3v-3h2v3h-2zm3 3h-2v1-1h-1v-3h2v2l1 1zm-1-1h1v1l-1-1zm4 6h-2v1l-1-1v-1h-1v-2h-1v-2h2v1l1 1v1h1v2h1zm-1 0h1-1zm-1 3v-3h2v3h-2zm0 2l-1-2h3l-1 1v1h-1zm0 0zm-8 0l7-2 1 2-7 2-1-2zm0 0zm-2 8v3l-1-1v-6h1v-2h1v-1h1v-1l1 2v1h-1v1l-1 1v4l-1-1zm0 3h-1v-1l1 1z"/></g></g></g></g></svg>