<svg xmlns="http://www.w3.org/2000/svg" width="120" height="120" shape-rendering="geometricPrecision" text-rendering="geometricPrecision" image-rendering="optimizeQuality" fill-rule="evenodd" clip-rule="evenodd"><defs><style>.fil1{fill:#fc4d44;fill-rule:nonzero}</style></defs><g id="Layer_x0020_1"><path fill="none" d="M0 0h120v120H0z"/><g id="_795766488"><path class="fil1" d="M2 50c0-5 4-9 9-9h77c5 0 9 4 9 9v4H2v-4zM97 63v27c0 5-4 10-9 10H11c-5 0-9-5-9-10V63h95z"/><path fill-rule="nonzero" d="M97 63H2v-9h95z"/><path d="M97 63v27c0 5-4 10-9 10H52c25 0 45-17 45-37z" fill="#e32210" fill-rule="nonzero"/><g fill-rule="nonzero"><path d="M84 20c-18 0-33 16-33 34a33.5 33.5 0 1067 0c0-18-15-34-34-34z" fill="#00a859"/><path id="1" d="M52 54h-3l1-2v-5l1-2v-1l1-2v-2l1-1 1-2 1-1v-1l1-2 1-1 2-1 1-2 1-1 1-1 2-1 1-1 1-1 2-1h1l2-1 1-1h2l2-1h3l2-1h3v3h-6l-2 1h-1l-2 1h-1l-2 1-1 1h-1l-2 1-1 1-1 1-1 1-1 1-2 1-1 2v1l-1 1-1 1-1 2-1 1v2l-1 1v1l-1 2v2l-1 1v5zm32 32v3h-5l-2-1h-1l-2-1h-2l-1-1h-2l-1-1-2-1-1-1-1-1-2-1-1-1-1-1-1-1-2-2-1-1-1-1v-2l-1-1-1-2-1-1v-2l-1-2v-1l-1-2v-5l-1-2h3v5l1 2v1l1 2v1l1 2v1l1 1 1 2 1 1 1 1v2l1 1 2 1 1 1 1 1 1 1 1 1 2 1h1l1 1 2 1h1l2 1h1l2 1h6zm33-32h2v7l-1 2v1l-1 2v2l-1 1-1 2-1 1-1 2-1 1-1 1-1 2-1 1-1 1-1 1-2 1-1 1-2 1-1 1-1 1h-2l-2 1h-1l-2 1h-2l-1 1h-6v-3h7l1-1h2l1-1h2l1-1 2-1h1l1-1 2-1 1-1 1-1 1-1 1-1 1-1 1-2 1-1 1-1 1-2 1-1v-1l1-2v-1l1-2v-3l1-2v-3zM84 22v-3h4l2 1h3l2 1h1l2 1 2 1h1l1 1 2 1 1 1 2 1 1 1 1 1 1 2 1 1 1 1 1 2 1 1 1 1 1 2 1 1v2l1 2v1l1 2v7h-2v-3l-1-2v-3l-1-2v-1l-1-1v-2l-1-1-1-2-1-1-1-1-1-1-1-2-1-1-1-1-1-1-1-1-2-1-1-1h-1l-2-1-1-1h-2l-1-1h-2l-1-1h-7z" fill="#fefefe"/></g><path d="M92 74c-2 1-3 2-4 2-2 0-3 1-4 1-3 0-4-1-6-2-1-1-2-3-2-4s0-2 1-2v-3l2-8c1-1 1-2 1-2v-2c0-1 0-2-1-3h-4c-1 0-1 0-2 1l1-3c2-1 3-1 5-2h4c2 0 4 0 5 1s2 3 2 5v2c-1 1-1 1-1 2l-2 8c0 1-1 2-1 3v2c0 1 0 2 1 2 0 0 1 1 2 1s1-1 2-1h2l-1 2zm0-34c-1 1-3 2-4 2-2 0-3-1-4-2s-2-2-2-3c0-2 1-3 2-4s2-2 4-2c1 0 3 1 4 2s1 2 1 4c0 1 0 2-1 3z" fill="#fff212"/></g></g></svg>