<svg xmlns="http://www.w3.org/2000/svg" width="120" height="120" shape-rendering="geometricPrecision" text-rendering="geometricPrecision" image-rendering="optimizeQuality" fill-rule="evenodd" clip-rule="evenodd"><defs><style>.fil5{fill:#fefefe}.fil3{fill:#2887d2}.fil4{fill:#fc4d44}.fil2{fill:#fefefe;fill-rule:nonzero}</style></defs><g id="Layer_x0020_1"><path fill="none" d="M0 0h120v120H0z"/><g id="_870111152"><path d="M33 23h81c2 0 4 2 4 5v73c0 2-2 4-3 4H33c-2 0-4-2-4-4V28c0-3 2-5 4-5z" fill="#bdbfc1"/><path id="1" class="fil2" d="M114 25H33v-3h81v3zm5 3h-2v-2h-1v-1h-2v-3h3v1h1v1h1v4zm-2 73V28h2v73h-2zm-2 6v-3h1v-2h1v-1h2v3h-1v1h-1v1h-1v1h-1zm-82-3h82v3H33v-3zm-5-3h2v1h1v1l1 1h1v3h-1l-1-1h-1v-1h-1v-1h-1v-3zm2-73v73h-2V28h2zm3-6v3h-2v2h-1v1h-2v-3l1-1v-1h1v-1h3z"/><g id="_870111776"><path class="fil3" d="M26 23h82c2 0 4 2 4 4v66c0 2-2 4-4 4H26c-2 0-3-2-3-4V27c0-2 1-4 3-4z"/><path id="1" class="fil2" d="M108 25H26v-4h82v4zm6 2h-5v-2h-1v-4h3v1h1v1h1v2h1v2zm-5 66V27h5v66h-5zm-1 6v-4h1v-2h5v2h-1v2h-1v1h-1l-1 1h-2zm-82-4h82v4H26v-4zm-5-2h4v2h1v4h-2v-1h-2v-1l-1-1v-3zm4-66v66h-4V27h4zm1-6v4h-1v2h-4v-3l1-1 1-1 1-1h2z"/><path class="fil4" d="M28 13h79c2 0 5 2 5 5v12H23V18c0-3 2-5 5-5z"/><path id="1" class="fil2" d="M107 15H28v-4h79v4zm7 3h-5v-2h-1v-1h-1v-4h3v1h1l1 1 1 1v2h1v2zm-5 12V18h5v12l-2 2-3-2zm5 0v2h-2l2-2zm-91-2h89v4H23l-2-2 2-2zm0 4h-2v-2l2 2zm2-14v12h-4V18h4zm3-7v4h-2v1h-1v2h-4v-4h1v-1h1v-1h1v-1h4z"/><rect class="fil3" x="40" y="2" width="7" height="20.3" rx="2" ry="2"/><rect class="fil3" x="56" y="2" width="7" height="20.3" rx="2" ry="2"/><rect class="fil3" x="72" y="2" width="7" height="20.3" rx="2" ry="2"/><rect class="fil3" x="87" y="2" width="7" height="20.3" rx="2" ry="2"/><path class="fil5" d="M43 37h7v9h-7zM57 37h7v9h-7zM70 37h7v9h-7zM84 37h7v9h-7zM98 37h7v9h-7zM29 54h7v9h-7zM43 54h7v9h-7zM57 54h7v9h-7zM71 54h7v9h-7zM84 54h7v9h-7zM98 54h7v9h-7zM29 73h7v9h-7zM43 73h7v9h-7zM57 73h7v9h-7zM71 73h7v9h-7zM84 73h7v9h-7zM98 73h7v9h-7z"/></g><circle class="fil5" cx="31" cy="89" r="29"/><path class="fil4" d="M26 65l-4 2h-1l-2 1v1l-1 1-3 2-4 8-1 6h9v-2-2l2-3 1-2c4-4 10-5 15-3 4 3 7 7 7 11v3l-1 2-1 2-5 5c-3 2-5 1-9 1h-3v-9c-9 8-13 9-19 14l19 13v-9h2c4 0 8 0 12-2l2-1h1c3-1 3-2 5-4l1-1c5-6 6-11 4-18l-2-6-1-2h-1c-5-7-13-10-21-8h-1z"/></g></g></svg>