<svg xmlns="http://www.w3.org/2000/svg" width="120" height="122" shape-rendering="geometricPrecision" text-rendering="geometricPrecision" image-rendering="optimizeQuality" fill-rule="evenodd" clip-rule="evenodd"><defs><linearGradient id="id0" gradientUnits="userSpaceOnUse" x1="58.4" y1="104.1" x2="98.4" y2="93.9"><stop offset="0" stop-color="#04870f"/><stop offset="1" stop-color="#03690c"/></linearGradient><linearGradient id="id1" gradientUnits="userSpaceOnUse" x1="25.3" y1="65" x2="47.3" y2="35.4"><stop offset="0" stop-color="#1cc8eb"/><stop offset=".6" stop-color="#0e96e0"/><stop offset="1" stop-color="#0063d4"/></linearGradient><style>.fil5{fill:#00afef}.fil8{fill:#fefefe;fill-rule:nonzero}</style></defs><g id="Layer_x0020_1"><path fill="none" d="M0 2h120v120H0z"/><g id="_487124232"><path d="M91 29v79s-70-2-70 0V43l8-14h62z" fill="#bdbfc1"/><path d="M85 25v79H14V41l7-15 1-1h63z" fill="#fefefe"/><path id="1" d="M87 104l-2 2-2-2V25h4v79zm0 0v2h-2l2-2zm-75 0l2-2h14l2-1h13l3 1h39v4H46l-3-1H30l-2 1H15l1-2h-4zm4-63v63h-4 4-4V40l4 1zm3-16h1l3 2-7 14-4-1 7-15zm0 0h1-1zm1-1l2-1 1 4h-1l-2-2v-1zm0 0l1-1h1l-2 1zm63 1l1 2H22v-4h63l2 2h-4z" fill="#0098da" fill-rule="nonzero"/><path d="M21 64v6h31v-6c-2-3-6-4-9-5l-1-2v-2-1l3-5 1-2v-3-6c0-1 0-3-2-5s-4-3-8-3c-2 0-6 1-7 3-2 2-2 4-2 5v9l1 2 2 6v2l-1 2-6 3-2 2z" fill="url(#id1)" fill-rule="nonzero"/><path class="fil5" d="M21 90h57v4H21zM55 49h24v4H55zM55 65h24v4H55zM21 77h57v4H21z"/><circle cx="81" cy="28" r="25" fill="#fefefe"/><g id="_487124496"><path d="M78 78c12 0 21 10 21 21s-9 21-21 21c-11 0-20-10-20-21s9-21 20-21z" fill="url(#id0)"/><path id="1" class="fil8" d="M100 99h-2v-5l-1-1v-2l-1-1v-1h-1v-1l-1-1v-1h-1v-1l-1-1h-1l-1-1v-1h-1l-1-1h-2l-1-1h-2l-1-1h-4v-2h2l1 1h4l1 1h1l1 1h1l1 1 1 1h1l1 1 1 1 1 1 1 1v1l1 1v1l1 1v1l1 1v2l1 1v4zm-22 22v-2h4l1-1h2l1-1h2l1-1h1v-1l1-1h1l1-1v-1h1v-1l1-1v-1l1-1 1-1v-2l1-1v-5h2v4l-1 1v2l-1 1v1l-1 1v1l-1 1v1l-1 1h-1v1l-1 1-1 1h-1l-1 1-1 1h-1l-1 1h-1l-1 1h-5l-2 1zM57 99h1l1 1v5l1 1v2h1v1l1 1v1l1 1h1v1l1 1h1v1l1 1h1l1 1h2l1 1h1l1 1h4v2l-1-1h-5l-1-1h-1l-1-1h-1l-1-1h-1v-1h-1l-1-1-1-1-1-1-1-1v-1l-1-1-1-1v-2l-1-1v-2l-1-1v-4zm21-22v2h-4l-1 1h-1l-1 1h-2l-1 1h-1l-1 1v1h-1l-1 1v1h-1l-1 1v1l-1 1-1 1v2l-1 1v5l-1 1h-1v-4l1-1v-2l1-1v-2l1-1 1-1v-1l1-1v-1h1l1-1 1-1h1v-1h1l1-1h1l1-1h1l1-1h4l1-1h1z"/><path d="M82 105l-1-2-3-2-3-1-2-2-2-2v-3c0-2 0-4 2-5l5-2v-3l1-1h1v4c3 0 4 1 5 2 2 2 2 3 2 5l-2 2h-1l-2-1v-1l-1-2-2-1-2 1-1 2 1 2 2 2 4 1 2 2 2 2v3c0 2 0 4-2 5l-5 2v3l-1 1h-1l-1-1v-1-2l-5-2c-2-2-2-3-2-6l1-1h2l2 1v1l1 2 3 1 2-1 1-2z" fill="#fff212" fill-rule="nonzero"/></g><g><path class="fil8" d="M83 7V0v7zm8 1h-7V7h1v1-1h-2V0h4l1 1h1v1h1v1l1 1v4zm-7 14V8h7v14l-3 4-4-4zm4 4h-4v-4l4 4zm14 0H88v-8h14v8zm8 0h-8v-1h1v1h-1v-8h3v1h2v1h1v1h1v3h1v2zm-8 0h8-8zm0 8v-7h1-1v1-2h8v3h-1v2l-1 1v1h-1l-1 1h-4zm-14-7h14v7H88l-4-3 4-4zm-4 4v-4h4l-4 4zm0 14V31h7v14h-7zm-1 8v-8h2-1v1-1h7v4l-1 1v1h-1l-1 1h-2v1h-3zm0-8v8-8zm-8 0h8v1h-1v-1h1v8h-2v-1h-3v-1h-1v-1h-1v-2h-1v-3zm8-14v14h-8V31l4-4 4 4zm-4-4h4v4l-4-4zm-14 0h14v7H65v-7zm-8-1h7v2h1-1v-1h1v7h-4l-1-1h-1v-1h-1v-1l-1-1v-4zm7 0h-7 7zm1-8v8h-1v-1h1-1v1h-7v-3l1-1v-1l1-1 1-1h2v-1h3zm14 8H65v-8h14l4 4-4 4zm4-4v4h-4l4-4zm0-14v14h-8V8h8zm0-8v7h-1v1-1h1v1h-8V5h1V3l1-1h1V1h1l1-1h3z"/><path id="1" d="M83 4c4 0 5 0 5 4v14h14c3 0 4 1 4 4 0 4-1 5-4 5H88v14c0 3-1 4-5 4-3 0-4-1-4-4V31H65c-4 0-4-1-4-5 0-3 0-4 4-4h14V8c0-4 1-4 4-4z" fill="#00a859"/></g></g></g></svg>