<svg xmlns="http://www.w3.org/2000/svg" width="121" height="120" viewBox="0 0 122 121" shape-rendering="geometricPrecision" text-rendering="geometricPrecision" image-rendering="optimizeQuality" fill-rule="evenodd" clip-rule="evenodd"><defs><linearGradient id="id0" gradientUnits="userSpaceOnUse" x1="66.8" y1="62.7" x2="102.7" y2="53.6"><stop offset="0" stop-color="#04870f"/><stop offset="1" stop-color="#03690c"/></linearGradient><style>.fil4{fill:#f58634}.fil11{fill:#0098da}.fil2,.fil5{fill:#fefefe;fill-rule:nonzero}.fil2{fill:#2887d2}</style></defs><g id="Layer_x0020_1"><path fill="none" d="M0 0h121v121H0z"/><g id="_812316736"><path d="M55 105h5c12 0 46-1 46 1V40L94 16H13v90c0-2 31-1 42-1z" fill="#fefefe"/><path id="1" class="fil2" d="M53 105h5l-3 3-2-3zm2 3h-2v-3l2 3zm3 0h-3v-6h3v6zm0-6zm2 6h-2v-6h2l2 3-2 3zm2-3v3h-2l2-3zm0 0h-4l2-3 2 3zm-4 0v-3h2l-2 3zm50 1l-4-1 1 3H60v-6h46l1 1 1 3zm-4-65l4-3 1 2v60l-1 2v3h-4l4 1-4-1V40v1zm-8-26l12 23-4 3-12-23 4-4v1zm0-1v1-1zm-1 0h1l-3 5-1-1 2-5 1 1zm-1-1h1v1l-1-1zm-36 6v-6h36v6H58zm0 0zm-43-3h-4l2-3h45v6H13l2-3zm-4 0v-3h2l-2 3zm0 24V16h4v24h-4zm0 0zm0 66l5-1h-5V40h4v15l1 3v47l-5 1zm47-1h-5l2 3H14l2-3-5 1 1-3 1-1h42l3 3zm-3-3h3v3l-3-3z"/><path d="M93 17l-3 14s0 3 2 4 14 4 14 4L93 15v2z" fill="#2887d2"/><path id="1" class="fil2" d="M90 31l2-14h1l-2 14h-1zm1 0zm1 4h-1v-1h-1v-3h1-1v2h1v2h1zm14 4h-2v-1h-4v-1h-4l-1-1h-3v-1h1l1 1h3l1 1h3l1 1h4v1zM93 15l13 24-13-23v-1zm0 0zm-1 2l1-2v2h-1zm1 0z"/><path class="fil4" d="M13 80c0 1 1 4 1 6-1 4-4 9-8 10 1 1 1 3 2 3 1 1 0 1 1 1 5-2 10-5 11-10l1-2c6 1 9 7 9 12h6c-1-7-4-14-12-19l1-7c1 2 2 3 3 4 7 4 5 4 9 2 0-2-3-4-4-5-3-3-6-8-9-9-1-1-5-2-7-2-3 6-5 8-4 16z"/><path id="1" class="fil5" d="M14 86h-1v-4h-1v-2h2v6zM7 96H6v-1h2v-1h1v-1h1v-1h1v-2h1v-2l1-1v-1h1v4h-1v2h-1v1h-1v1h-1v1H9v1H8l-1 1v-1zm-1 0H5h1zm3 3l-2 1v-1H6v-3h1v1h1v2h1zm0 0l1 2H8v-1H7l2-1v1-1zm1 2zm10-11h1v2h-1v1l-1 1v1h-1v1h-1v1h-1l-1 1h-1v1h-1l-1 1h-2v1l-1-2h2v-1h2v-1h1l1-1h1v-1h1v-1l1-1v-1h1v-2h1zm0 0zm2-2l-1 2h-1v-3l2 1zm-2 0v-1 1zm2-1l-1 1h1l-2-1h1-1 2zm-1 0h1-1zm9 12l-1 1v-2l-1-1v-3h-1v-1l-1-1v-1h-1v-1h-1v-1h-2v-1h-1l1-1h1l1 1h1l1 1 1 1v1h1v1h1v2l1 1v5-1zm-1 1zm6 0h1v1h-7v-1l1-1h6l-1 1zm1 0v1-1zM23 81h2l1 1h1l1 1 1 1 1 1 1 1 1 1 1 1v1h1v2l1 1v2h1v6h-1v-2l-1-1v-4h-1v-2l-1-1v-1h-1v-1l-1-1-1-1-1-1-1-1h-1v-1h-1l-1-1-1-1zm1 1h-1v-1l1 1zm2-8l-1 7h-2l1-7h2zm-2 0v-1l1 1h-1zm5 3l-1 1h-1v-1h-1v-1h-1v-1h-1l1-1h1v1h1v1h1v1h1zm7 3l2-1v1h-1v1h-1v1h-3v-1h-1l-1-1h-1v-1h-2v-1l1-1h1v1h1v1h1l1 1h1v1h1v-1h1v-1h1l-1 1zm2-1v1-1zm-6-3l2-1 1 1 1 1 1 1v1h1l-2 1v-1h-1v-1h-1v-1h-1v-1h-1zm-8-9l1-1h1v1h1l1 1v1h1v1h1v1h1v1l1 1 1 1 1 1-2 1v-1h-1v-1l-1-1-1-1v-1h-1v-1h-1v-1h-1v-1h-1v-1h-1zm-6-2l-2-1h6v1h3v1l-1 1-1-1h-2v-1h-4 1zm-2-1h1-1zm-2 16h-2v-7l1-1v-2l1-1v-1l1-1v-1l1-1v-1l2 1h-1v2h-1v2h-1v2l-1 1v8zm-2 0z"/><path class="fil4" d="M1 73c0 3 4 7 8 7 6 0 1-1 6-13 0-1 1-1 1-3h-1c-2-2-8-2-10 0-3 2-4 6-4 9z"/><path id="1" class="fil5" d="M9 80v1H7v-1H5l-1-1H3v-1H2v-1H1v-2H0v-2h2v2h1v2h1v1h1l1 1h2l1 1zm5-13h2l-1 1v1l-1 1v3l-1 1v6h-1v1H9v-1h2v-1h1v-7l1-1v-2l1-1v-1zm2-2l1-1v2h-1v1h-2v-1h1v-2l1 1zm1-1zm-1-1l1 1-1 1-1-1 1-1zm0 0zM5 65l-1-1 1-1h1v-1h8l1 1h1l-1 1h-1l-1-1H8v1H6l-1 1zm-3 8H0v-3h1v-3h1v-1l1-1v-1h1l1 1H4v1l-1 1v2H2v4z"/><g><path class="fil4" d="M28 57c0-9-14-7-12 2 0 3 3 6 7 5 3 0 5-4 5-7z"/><path id="1" class="fil5" d="M17 59h-2v-5h1v-1h1v-1h1v-1h2l1-1h1l1 1h3v1h1v1h1v1l1 1v2h-2v-2h-1v-2h-2v-1h-4l-1 1-1 1h-1v5zm5 5l1 1h-4v-1h-2v-1l-1-1v-1h-1v-2h2v2h1v1h1v1h2v1h1zm5-7h2v3h-1v2h-1v1h-1v1h-1v1h-2l-1-1h1v-1h2v-1l1-1v-1l1-1v-2z"/></g><g><path d="M63 100H27c-1-2 0-4 1-7s9-4 10-4c0 0 1-1 1-2v-3h-1c-1-2-2-3-2-5-1-1-2-2-2-3v-3c0-1 0-2 1-3v-4s-1-3 1-5 5-3 9-3c3 0 6 0 8 3 2 2 2 5 2 5v10c0 1 0 2-1 2-1 3-2 6-3 6v3c0 1 1 1 1 2l8 2c3 1 3 7 3 9z" fill="#00afef" fill-rule="nonzero"/><path id="1" class="fil5" d="M28 100l-1-1h36v2H27v-1h1zm-1 1v-1 1zm2-8v1l-1 1v5h-2v-5h1v-2h2zm9-3h-3l-1 1h-3v1h-1l-1 1h-2v-1h1v-1h1l1-1h1l1-1h3l1-1h1l1 2zm0 0zm2-3v1h-1v1l-1 1-1-2h1v-1h2zm-2-3h2v3h-2v-3zm1 0h1-1zm0-1v1l-1 1v-1l1-1zm0 0zm-3-5l1 1v2h1v1h1v1l-1 1h-1v-1l-1-1v-1l-1-1v-1 1l1-2zm0 0h1v1l-1-1zm-1-2v2h1l-1 2v-1h-1v-1h-1v-2h2zm-2-3h2v3h-2v-3zm3-3l-1 1v2h-2v-2h1v-1h2zm0 0v1h-1l1-1zm-2-4h2v4h-2v-4zm2 0zm1-5v1h-1v4h-2v-4h1v-1l1-1 1 1zm8-2h-5l-1 1h-1v1h-1l-1-1v-1h1l1-1h2v-1h5v2zm8 2h-1l-1-1h-1v-1h-5v-2h5v1h2v1h1v1h1l-1 1zm1-1zm0 6v-3h-1v-2l1-1v1h1v3h1v2h-2zm0 0zm1 4l-1 1v-5h1v4zm-1 1v-1 1zm1 2v-1h-1v-1l1-1h1v3h-1zm1 3h-1v-3h1v3zm-3 2h1v-2h2v2h-1v1l-2-1zm0 0h1-1zm-3 6l1-1v-1h1v-1l1-1v-2l2 1v1h-1v2h-1v2h-1v1-1h-2zm0 0zm2 3h-2v-3h2v3zm0 3v-1h-1v-1h-1v-1h2v1h1l-1 2zm0 0zm8 0l-1 2-7-2 1-2 7 2zm0 0zm3 9l-1 1v-4l-1-1v-2h-1v-1h-1l1-2 1 1h1v2h1v3l1 1v3l-1 1v-2zm1 1v1h-1l1-1z"/></g><g fill-rule="nonzero"><path d="M119 51c-1-1-2-1-4 0L84 83 67 73c-1-1-3-1-4 0 0 1-1 3 0 4l19 26s1 1 2 1 2-1 2-1l33-48c1-1 1-3 0-4z" fill="#00a859"/><path id="1" d="M117 52l-3-2h1v-1h5v1l-2 2h-1zm-3-2zM83 82l31-32 3 2-32 32h-2v-2zm2 2l-1 1-1-1h2zM68 71l17 11-2 2-17-10 2-3zm-2 3zm-1 0l-3-2h1v-1h5l-2 3h-1zm0 2l-3 2v-1h-1v-4h1v-1l3 2v1h-1v1h1zm0 0zm15 28L62 78l3-2 18 26-3 2zm0 0zm4-2v4h-1v-1h-2v-1h-1l3-2h1zm0 4zm0 0v-4 4zm1-4l2 2v1h-2v1h-1v-4h1zm2 2zm34-48l-34 48-2-2 33-48 3 2zm-3-2zm0-2l2-2h1v2h1v2l-1 1v1l-3-2v-2zm2-2z" fill="#fefefe"/></g><g><path d="M85 40c10 0 18 8 18 18s-8 19-18 19-19-9-19-19 9-18 19-18z" fill="url(#id0)"/><path id="1" class="fil5" d="M104 58h-1v-2l-1-1v-3l-1-1v-1h-1v-2l-1-1-1-1h-1v-1l-1-1h-1v-1h-1l-1-1h-1l-1-1h-4v-1h-2v-1h4l1 1h2l1 1h1l1 1h1v1h1l1 1v1h1l1 1v1h1v1l1 1v1l1 1v2l1 1v4zM85 77v-1h3l1-1h3l1-1 1-1h1v-1h1l1-1 1-1h1v-1l1-1v-1l1-1v-1l1-1v-3l1-1v-2h1v4l-1 1v3l-1 1-1 1v1l-1 1-1 1-1 1-1 1-1 1-1 1h-1l-1 1h-2v1h-6zM65 58h2v5h1v2l1 1v1h1v2l1 1h1v1h1v1h1l1 1h1v1h1l1 1h2l1 1h4v1h-6l-1-1h-2v-1h-1l-1-1h-1v-1l-1-1h-1v-1l-1-1h-1v-1l-1-1v-1h-1v-2l-1-1v-5l-1-1zm20-19v1h-2l-1 1h-3l-1 1h-2v1h-1l-1 1h-1v1l-1 1-1 1h-1v2l-1 1-1 1v2l-1 1v4h-2l1-1v-5h1v-2l1-1v-1l1-1 1-1 1-1 1-1 1-1 1-1h1l1-1 1-1h3l1-1h4z"/><path d="M88 64c0-1 0-2-1-2 0-1-1-1-2-2-1 0-2-1-3-1-1-1-2-1-2-2-1 0-1-1-2-2v-2c0-2 0-4 2-5 1-1 2-1 4-2v-2c0-1 0-1 1-1h1s1 0 1 1v2c1 1 3 1 4 3 1 1 2 2 2 4 0 1-1 2-2 2h-1c-1 0-2-1-2-2s0-1-1-2c0-1-1-1-2-1s-1 0-2 1c0 0-1 1-1 2s1 1 1 2c1 0 1 1 3 1 1 1 2 1 3 2 1 0 1 1 2 1 0 1 1 1 1 2s1 2 1 3-1 3-2 4-3 2-5 2v2c0 1 0 1-1 1s-1 0-1-1v-2c-2 0-4-1-5-2-1-2-2-3-2-5 0-1 1-1 1-1h2c1 0 1 0 2 1v2c1 1 2 1 3 1h2c1-1 1-1 1-2z" fill="#fff212" fill-rule="nonzero"/></g><path class="fil11" d="M22 25h61.6v4.4H22zM22 37h46.2v4.4H22z"/></g></g></svg>