<svg xmlns="http://www.w3.org/2000/svg" width="120" height="120" shape-rendering="geometricPrecision" text-rendering="geometricPrecision" image-rendering="optimizeQuality" fill-rule="evenodd" clip-rule="evenodd"><defs><linearGradient id="a" gradientUnits="userSpaceOnUse" x1="37.34" y1="65.36" x2="84.55" y2="53.4"><stop offset="0" stop-color="#04870f"/><stop offset="1" stop-color="#03690c"/></linearGradient></defs><path fill="none" d="M0 0h120v120H0z"/><path d="M11 40H2c0 2 16 25 18 27 1-2 2-4 4-7l11-16c1-1 2-2 2-4h-9c1-17 16-28 34-24h3c-1-3 0-1-1-2-7-5-24-5-34 0-5 2-10 6-13 10-5 7-4 9-6 16z" fill="#2887d2"/><path d="M109 80h9c0-2-16-25-18-27-1 2-2 4-4 7L85 76c-1 1-2 2-2 4h9c-1 17-16 28-34 24h-3c1 3 0 1 1 2 7 5 24 5 34 0 5-2 10-6 13-10 5-7 4-9 6-16z" fill="#fc4d44"/><path d="M61 35c13 0 24 11 24 24 0 14-11 25-24 25-14 0-24-11-24-25 0-13 10-24 24-24z" fill="url(#a)"/><path d="M86 59h-2v-5l-1-2v-2l-1-1v-1l-1-1-1-1v-1l-1-1h-1v-1l-1-1-1-1h-1l-1-1-1-1h-1l-1-1h-1l-1-1h-2l-1-1h-5v-2h4l1 1h2l2 1h1l1 1h1l1 1h1l1 1 1 1 1 1h1l1 1 1 1v1l1 1 1 1v1l1 1v1l1 2v1l1 1v6zM61 85v-2h4l1-1h2l1-1h2l1-1 1-1h1l1-1h1l1-1 1-1v-1l1-1 1-1 1-1 1-1v-1l1-1v-3l1-1v-6h2v7l-1 1v1l-1 1v1l-1 1v2l-1 1-1 1v1h-1l-1 1-1 1-1 1-1 1h-1l-1 1-1 1h-1l-1 1h-1l-2 1h-3l-1 1h-3zM36 59h1v2l1 1v4l1 1v2l1 1v1l1 1v1h1l1 1 1 1v1l1 1 1 1h1l1 1h1l1 1 1 1h2l1 1h2l1 1h4v2h-3l-1-1h-4l-1-1h-1l-1-1h-1l-1-1-1-1h-1l-1-1-1-1-1-1-1-1h-1v-1l-1-1-1-1v-2l-1-1v-1l-1-1v-1l-1-1v-7zm25-25v2h-5l-1 1h-2l-1 1h-1l-1 1h-1l-1 1-1 1h-1l-1 1-1 1v1h-1l-1 1-1 1v1l-1 1v1l-1 1v1l-1 1v5l-1 1v1h-1v-6l1-1v-1l1-2v-1l1-1v-1l1-1 1-1v-1l1-1 1-1h1l1-1 1-1 1-1h1l1-1h1l1-1h1l1-1h3l1-1h4z" fill="#fefefe" fill-rule="nonzero"/><path d="M65 67c0-2 0-2-1-3 0-1-1-1-3-2s-3-1-4-2c-1 0-2-1-3-2-1 0-1-1-2-2v-4c0-2 0-4 2-6 2-1 4-2 6-2v-4l1-1h1c1 0 1 1 1 1v4c3 0 5 1 6 3 2 2 2 3 2 6 0 1-1 2-2 2h-2c-1 0-2-1-2-2 0-2 0-2-1-3s-1-1-3-1c-1 0-2 0-2 1-1 0-1 1-1 2s0 2 1 3c0 0 1 1 3 2 2 0 3 1 4 2 1 0 2 1 3 2 1 0 1 1 2 2v4c0 2 0 4-2 5-1 2-3 3-6 3v3c0 1-1 1-1 1h-1c-1 0-1 0-1-1v-1-2c-3 0-5-1-7-3s-2-3-2-6c0-1 1-2 2-2h2c1 0 2 1 2 2 0 2 0 2 1 3s2 1 3 1 2 0 3-1c1 0 1-1 1-2z" fill="#fff212" fill-rule="nonzero"/></svg>