<svg width="22" height="23" viewBox="0 0 22 23" fill="none" xmlns="http://www.w3.org/2000/svg">
<path fill-rule="evenodd" clip-rule="evenodd" d="M1.4668 0.380188V20.9091C1.4668 20.9091 18.3335 20.5289 18.3335 20.9091C18.3335 21.2893 18.3335 4.18184 18.3335 4.18184L16.5001 0.570271L16.3168 0.380188H1.4668Z" fill="#A9ABAE"/>
<path fill-rule="evenodd" clip-rule="evenodd" d="M2.93359 1.71075V22.4298C2.93359 22.4298 13.9336 22.4298 18.8836 22.4298C19.8003 22.4298 20.1669 22.6198 20.1669 21.8595C20.1669 17.6777 20.5336 12.9256 20.5336 8.93389C20.5336 7.7934 20.3503 7.03307 19.9836 6.27274L18.3336 1.90084L18.1503 1.71075H2.93359Z" fill="#FEFEFE"/>
<path d="M2.38379 22.4298V1.71075H3.30046V22.4298L2.93379 22.8099L2.38379 22.4298ZM2.93379 22.8099H2.38379V22.4298L2.93379 22.8099ZM18.8838 21.8595V23H18.3338H17.7838H17.2338H16.6838H16.1338H15.5838H14.8505L14.3005 22.8099H13.5671H13.0171H12.2838H11.5505H11.0005H10.2671H9.71712H8.98379H8.43379H7.70046H7.15046H6.60046H6.05046H5.50046H5.13379H4.58379H4.21712H3.85046H3.66712H3.30046H3.11712H2.93379V21.8595H3.11712H3.30046H3.66712H3.85046H4.21712H4.58379H5.13379H5.50046H6.05046H6.60046H7.15046H7.70046H8.43379H8.98379H9.71712H10.2671H11.0005H11.5505H12.2838H13.0171H13.5671H14.3005H14.8505H15.5838H16.1338H16.6838H17.2338H17.7838H18.3338H18.8838ZM19.6171 21.8595H20.7171V22.0496V22.2397V22.4298H20.5338V22.6198L20.3505 22.8099H20.1671L19.9838 23H19.8005H19.6171H19.4338H19.2505H19.0671H18.8838V21.8595H19.0671H19.2505H19.4338H19.6171H19.8005V22.0496H19.6171V21.8595ZM19.9838 8.93389H21.0838V9.31406V9.69422V10.0744V10.4546V10.8347V11.2149V11.595V11.9752L20.9005 12.5455V12.9256V13.3058V13.686V14.0661V14.4463V15.0165V15.3967V15.7769V16.157V16.5372L20.7171 17.1074V17.4876V17.8678V18.2479V18.6281V19.0083V19.3884V19.9587V20.3389V20.719V21.0992V21.4793V21.8595H19.6171V21.4793L19.8005 21.0992V20.719V20.3389V19.7686V19.3884V19.0083V18.6281V18.2479V17.8678V17.2975V16.9174V16.5372V16.157V15.7769V15.3967L19.9838 14.8265V14.4463V14.0661V13.686V13.3058V12.7355V12.3554V11.9752V11.595V11.2149V10.8347V10.4546V10.0744V9.69422V9.31406V8.93389ZM19.6171 6.46282L20.5338 6.08265V6.27273V6.46282L20.7171 6.6529V6.84298V7.03307H20.9005V7.22315V7.41323V7.60331V7.7934V7.98348H21.0838V8.17356V8.36364V8.55373V8.74381V8.93389H19.9838V8.74381V8.55373V8.36364V8.17356V7.98348V7.7934V7.60331L19.8005 7.41323V7.22315V7.03307V6.84298H19.6171V6.6529V6.46282ZM18.8838 1.71075L20.5338 6.08265L19.6171 6.46282L17.9671 2.09092L18.7005 1.52067L18.8838 1.71075ZM18.7005 1.52067V1.71075H18.8838L18.7005 1.52067ZM18.5171 1.33059L18.7005 1.52067L17.9671 2.281L17.7838 2.09092L18.1505 1.1405L18.5171 1.33059ZM18.1505 1.1405H18.3338L18.5171 1.33059L18.1505 1.1405ZM3.30046 1.71075H2.38379L2.93379 1.33059L3.30046 1.1405H3.48379H3.85046H4.21712H4.76712H5.31712H5.86712H6.41712H6.96712H7.70046H8.43379H9.16712H9.71712H10.4505H11.1838H11.9171H12.6505H13.3838H13.9338H14.6671H15.2171H15.7671H16.3171H16.6838H17.2338H17.6005H17.7838H17.9671H18.1505V2.281H17.9671H17.7838H17.4171H17.2338H16.6838H16.3171H15.7671H15.2171H14.6671H13.9338H13.3838H12.6505H11.9171H11.1838H10.4505H9.71712H9.16712H8.43379H7.70046H6.96712H6.41712H5.86712H5.31712H4.76712H4.21712H3.85046H3.48379H3.30046H3.11712H2.93379L3.30046 1.71075Z" fill="#0098DA"/>
<path d="M13.3831 17.2975H13.0164V17.1075V16.9174V16.7273V16.5372L12.8331 16.3471V16.157V15.967V15.7769L12.6497 15.5868V15.3967H12.4664V15.2066L12.2831 15.0165L12.0997 14.8265V14.6364H11.9164L11.7331 14.4463V14.2562H11.5497L11.3664 14.0661H11.1831L10.9997 13.8761L10.8164 13.686H10.6331H10.4497L10.2664 13.4959H10.0831H9.89974H9.71641H9.53307H9.34974V13.1157H9.53307H9.71641H9.89974H10.0831L10.2664 13.3058H10.4497H10.6331L10.8164 13.4959H10.9997L11.1831 13.686H11.3664L11.5497 13.8761H11.7331L11.9164 14.0661L12.0997 14.2562L12.2831 14.4463L12.4664 14.6364V14.8265L12.6497 15.0165L12.8331 15.2066V15.3967L13.0164 15.5868V15.7769V15.967L13.1997 16.157V16.3471V16.5372L13.3831 16.7273V16.9174V17.1075V17.2975ZM9.34974 21.4794V21.2893H9.53307L9.71641 21.0992H9.89974H10.0831H10.2664H10.4497L10.6331 20.9091H10.8164H10.9997V20.719H11.1831L11.3664 20.5289L11.5497 20.3389H11.7331V20.1488H11.9164L12.0997 19.9587V19.7686L12.2831 19.5785H12.4664V19.3885L12.6497 19.1984V19.0083L12.8331 18.8182V18.6281V18.438V18.248L13.0164 18.0579V17.8678V17.6777V17.4876V17.2975H13.3831V17.4876V17.6777V17.8678L13.1997 18.248V18.438V18.6281L13.0164 18.8182V19.0083V19.1984L12.8331 19.3885V19.5785H12.6497L12.4664 19.7686V19.9587L12.2831 20.1488L12.0997 20.3389L11.9164 20.5289L11.7331 20.719H11.5497L11.3664 20.9091L11.1831 21.0992H10.9997H10.8164L10.6331 21.2893H10.4497H10.2664L10.0831 21.4794H9.89974H9.71641H9.53307H9.34974ZM5.31641 17.2975H5.49974V17.4876V17.6777L5.68307 17.8678V18.0579V18.248V18.438L5.86641 18.6281V18.8182V19.0083L6.04974 19.1984V19.3885L6.23307 19.5785L6.41641 19.7686L6.59974 19.9587V20.1488H6.78307L6.96641 20.3389L7.14974 20.5289L7.33307 20.719H7.51641L7.69974 20.9091H7.88307H8.06641L8.24974 21.0992H8.43307H8.61641H8.79974H8.98307L9.16641 21.2893H9.34974V21.4794H9.16641H8.79974H8.61641H8.43307L8.24974 21.2893H8.06641H7.88307L7.69974 21.0992H7.51641H7.33307L7.14974 20.9091L6.96641 20.719H6.78307V20.5289L6.59974 20.3389H6.41641L6.23307 20.1488V19.9587L6.04974 19.7686L5.86641 19.5785L5.68307 19.3885V19.1984L5.49974 19.0083V18.8182V18.6281L5.31641 18.438V18.248V17.8678V17.6777V17.4876V17.2975ZM9.34974 13.1157V13.4959H9.16641H8.98307H8.79974H8.61641H8.43307L8.24974 13.686H8.06641H7.88307L7.69974 13.8761H7.51641L7.33307 14.0661H7.14974L6.96641 14.2562L6.78307 14.4463L6.59974 14.6364L6.41641 14.8265L6.23307 15.0165V15.2066L6.04974 15.3967L5.86641 15.5868V15.7769V15.967L5.68307 16.157V16.3471V16.5372V16.7273L5.49974 16.9174V17.1075V17.2975H5.31641V17.1075V16.9174V16.7273V16.5372V16.3471L5.49974 16.157V15.967V15.7769L5.68307 15.5868V15.3967L5.86641 15.2066V15.0165L6.04974 14.8265L6.23307 14.6364V14.4463L6.41641 14.2562H6.59974L6.78307 14.0661V13.8761H6.96641L7.14974 13.686H7.33307L7.51641 13.4959H7.69974L7.88307 13.3058H8.06641H8.24974L8.43307 13.1157H8.61641H8.79974H9.16641H9.34974Z" fill="#FEFEFE"/>
<path d="M9.9002 18.4381C9.9002 18.248 9.9002 18.248 9.9002 18.0579C9.71686 17.8678 9.53353 17.8678 9.3502 17.6777C8.98353 17.6777 8.8002 17.4876 8.61686 17.4876C8.43353 17.2976 8.43353 17.2976 8.2502 17.1075C8.06686 17.1075 8.06686 16.9174 7.88353 16.7273C7.88353 16.5372 7.88353 16.3472 7.88353 16.1571C7.88353 15.7769 7.88353 15.3967 8.2502 15.2067C8.43353 15.0166 8.8002 14.8265 9.16686 14.8265V14.4463V14.2562C9.16686 14.0662 9.16686 14.0662 9.3502 14.0662H9.53353C9.53353 14.0662 9.71686 14.0662 9.71686 14.2562V14.4463V14.8265C10.0835 14.8265 10.4502 15.0166 10.6335 15.2067C10.8169 15.5868 11.0002 15.7769 11.0002 16.1571C11.0002 16.3472 10.8169 16.5372 10.6335 16.5372H10.2669C10.0835 16.5372 9.9002 16.3472 9.9002 16.3472V16.1571C9.9002 15.967 9.9002 15.7769 9.9002 15.7769C9.71686 15.5868 9.53353 15.5868 9.3502 15.5868C9.16686 15.5868 8.98353 15.5868 8.98353 15.7769C8.8002 15.7769 8.8002 15.967 8.8002 16.1571C8.8002 16.3472 8.8002 16.5372 8.98353 16.5372C8.98353 16.7273 9.16686 16.7273 9.53353 16.9174C9.71686 16.9174 9.9002 17.1075 10.0835 17.1075C10.2669 17.2976 10.4502 17.4876 10.6335 17.4876C10.6335 17.6777 10.8169 17.8678 10.8169 17.8678C11.0002 18.0579 11.0002 18.248 11.0002 18.4381C11.0002 18.8182 10.8169 19.1984 10.6335 19.3885C10.2669 19.7686 10.0835 19.7686 9.53353 19.9587V20.1488V20.3389C9.53353 20.529 9.53353 20.529 9.3502 20.529H9.16686C9.16686 20.529 9.16686 20.529 9.16686 20.3389V20.1488V19.9587C8.61686 19.7686 8.2502 19.7686 8.06686 19.3885C7.7002 19.1984 7.7002 18.8182 7.7002 18.4381C7.7002 18.248 7.88353 18.0579 7.88353 18.0579H8.2502C8.43353 18.0579 8.61686 18.248 8.61686 18.4381C8.61686 18.6281 8.61686 18.8182 8.8002 18.8182C8.98353 19.0083 9.16686 19.1984 9.3502 19.1984C9.53353 19.1984 9.71686 19.0083 9.71686 19.0083C9.9002 18.8182 9.9002 18.6281 9.9002 18.4381Z" fill="#FFF212"/>
<path fill-rule="evenodd" clip-rule="evenodd" d="M14.1176 2.85126C16.3176 2.85126 17.9676 4.562 17.9676 6.84299C17.9676 9.12399 16.3176 10.8347 14.1176 10.8347C11.9176 10.8347 10.2676 9.12399 10.2676 6.84299C10.2676 4.562 11.9176 2.85126 14.1176 2.85126Z" fill="url(#paint0_linear)"/>
<path d="M18.1507 6.84301H17.784V6.65293V6.46285V6.27276V6.08268V5.8926L17.6006 5.70252V5.51243V5.32235L17.4173 5.13227V4.94219L17.234 4.7521L17.0507 4.56202V4.37194L16.8673 4.18185H16.684V3.99177L16.5006 3.80169H16.3173L16.134 3.61161H15.9507V3.42152H15.7673L15.584 3.23144H15.4007L15.2173 3.04136H15.034H14.8507H14.6673H14.484H14.3007H14.1173V2.66119H14.3007H14.484H14.6673H14.8507L15.034 2.85128H15.2173H15.4007L15.584 3.04136H15.7673L15.9507 3.23144H16.134L16.3173 3.42152H16.5006L16.684 3.61161L16.8673 3.80169L17.0507 3.99177L17.234 4.18185L17.4173 4.37194V4.56202L17.6006 4.7521L17.784 4.94219V5.13227L17.9673 5.32235V5.51243V5.70252V6.08268L18.1507 6.27276V6.46285V6.65293V6.84301ZM14.1173 11.0248V10.6447H14.3007H14.484H14.6673H14.8507H15.034H15.2173L15.4007 10.4546H15.584L15.7673 10.2645H15.9507V10.0744H16.134L16.3173 9.88433H16.5006L16.684 9.69425V9.50417H16.8673L17.0507 9.31409V9.124L17.234 8.93392L17.4173 8.74384V8.55376L17.6006 8.36367V8.17359V7.98351L17.784 7.79343V7.60334V7.41326V7.22318V7.03309V6.84301H18.1507V7.03309V7.22318V7.41326L17.9673 7.60334V7.98351V8.17359V8.36367L17.784 8.55376V8.74384L17.6006 8.93392L17.4173 9.124V9.31409L17.234 9.50417L17.0507 9.69425L16.8673 9.88433L16.684 10.0744L16.5006 10.2645H16.3173L16.134 10.4546H15.9507L15.7673 10.6447H15.584L15.4007 10.8347H15.2173H15.034L14.8507 11.0248H14.6673H14.484H14.3007H14.1173ZM10.084 6.84301H10.2673V7.03309V7.22318L10.4507 7.41326V7.60334V7.79343V7.98351L10.634 8.17359V8.36367V8.55376L10.8173 8.74384V8.93392H11.0007V9.124L11.184 9.31409L11.3673 9.50417L11.5507 9.69425L11.734 9.88433H11.9173V10.0744H12.1007L12.284 10.2645H12.4673L12.6507 10.4546H12.834L13.0173 10.6447H13.2007H13.384H13.5673H13.7507H13.934H14.1173V11.0248H13.934H13.7507H13.384H13.2007L13.0173 10.8347H12.834H12.6507L12.4673 10.6447H12.284L12.1007 10.4546H11.9173L11.734 10.2645L11.5507 10.0744L11.3673 9.88433H11.184L11.0007 9.69425V9.50417L10.8173 9.31409V9.124L10.634 8.93392H10.4507V8.74384L10.2673 8.55376V8.36367V8.17359L10.084 7.98351V7.60334V7.41326V7.22318V7.03309V6.84301ZM14.1173 2.66119V3.04136H13.934H13.7507H13.5673H13.384H13.2007H13.0173L12.834 3.23144H12.6507L12.4673 3.42152H12.284L12.1007 3.61161H11.9173V3.80169H11.734L11.5507 3.99177L11.3673 4.18185L11.184 4.37194L11.0007 4.56202V4.7521H10.8173V4.94219L10.634 5.13227V5.32235V5.51243L10.4507 5.70252V5.8926V6.08268V6.27276L10.2673 6.46285V6.65293V6.84301H10.084V6.65293V6.46285V6.27276V6.08268V5.70252L10.2673 5.51243V5.32235V5.13227L10.4507 4.94219V4.7521H10.634L10.8173 4.56202V4.37194L11.0007 4.18185V3.99177L11.184 3.80169H11.3673L11.5507 3.61161L11.734 3.42152L11.9173 3.23144H12.1007L12.284 3.04136H12.4673L12.6507 2.85128H12.834H13.0173L13.2007 2.66119H13.384H13.7507H13.934H14.1173Z" fill="#FEFEFE"/>
<path d="M12.8337 6.84303H12.467V7.98352H11.917V4.9422H12.8337C13.2003 4.9422 13.567 4.9422 13.7503 5.13228C13.9337 5.32236 13.9337 5.51245 13.9337 5.89261C13.9337 6.0827 13.9337 6.27278 13.9337 6.27278C13.7503 6.46286 13.567 6.65294 13.3837 6.65294L14.117 7.79344V7.98352H13.3837L12.8337 6.84303ZM12.467 6.27278H12.8337C13.017 6.27278 13.2003 6.27278 13.2003 6.27278C13.3837 6.0827 13.3837 6.0827 13.3837 5.89261C13.3837 5.70253 13.3837 5.70253 13.2003 5.51245C13.2003 5.51245 13.017 5.51245 12.8337 5.51245H12.467V6.27278Z" fill="#FFF212"/>
<path d="M16.3167 6.84301C16.3167 7.22318 16.3167 7.41326 16.1334 7.60334C15.9501 7.79342 15.7667 7.98351 15.5834 7.98351C15.2167 7.98351 15.0334 7.79342 15.0334 7.79342V8.74384H14.4834V5.70251H14.8501L15.0334 5.8926C15.0334 5.70251 15.2167 5.70251 15.4001 5.70251C15.7667 5.70251 15.9501 5.70251 16.1334 5.8926C16.3167 6.08268 16.3167 6.46285 16.3167 6.84301ZM15.7667 6.84301C15.7667 6.65293 15.7667 6.46285 15.5834 6.27276L15.4001 6.08268C15.2167 6.08268 15.0334 6.27276 15.0334 6.27276V7.22318C15.0334 7.41326 15.2167 7.41326 15.4001 7.41326C15.5834 7.41326 15.7667 7.22318 15.7667 6.84301Z" fill="#FFF212"/>
<path fill-rule="evenodd" clip-rule="evenodd" d="M8.2502 7.22318C8.06686 7.41326 7.88353 7.41326 7.88353 7.60334H7.7002V7.79343H7.51686C7.51686 7.98351 7.33353 7.98351 7.33353 8.17359C7.1502 8.17359 7.33353 8.17359 7.1502 8.36368C7.1502 8.55376 7.1502 8.55376 6.96686 8.55376C6.96686 8.55376 6.96686 8.55376 6.96686 8.74384C6.96686 8.74384 6.78353 8.74384 6.78353 8.93392V9.12401H6.6002V9.50417H6.41686V9.69425H6.0502L5.86686 9.50417C5.68353 9.50417 5.68353 9.69425 5.68353 9.50417C5.5002 9.50417 5.5002 9.50417 5.5002 9.50417C5.5002 9.50417 5.5002 9.50417 5.31686 9.50417C5.31686 9.50417 4.9502 9.31409 4.9502 9.69425C4.9502 9.88434 4.9502 10.0744 4.9502 10.2645C4.9502 10.2645 5.13353 10.2645 5.13353 10.4546C5.13353 10.6447 5.13353 10.8348 5.13353 10.8348L5.31686 11.2149V11.405L5.5002 11.7852C5.5002 11.9752 5.5002 11.9752 5.5002 11.9752C5.5002 12.1653 5.5002 12.1653 5.5002 12.1653L5.68353 12.9257C5.68353 12.9257 5.68353 12.9257 5.68353 13.1157C5.86686 13.3058 5.86686 13.1157 5.86686 13.3058C5.86686 13.4959 5.86686 13.4959 5.86686 13.4959C5.86686 13.4959 5.86686 13.4959 5.86686 13.686C5.86686 13.8761 5.86686 13.8761 5.86686 13.8761C5.86686 13.8761 6.0502 14.0662 6.0502 14.2562C6.0502 14.2562 6.23353 14.4463 6.41686 14.2562L6.6002 14.0662C6.6002 14.0662 6.6002 13.8761 6.78353 13.8761C6.78353 13.686 6.96686 13.686 6.96686 13.686C6.96686 13.4959 7.1502 13.4959 7.1502 13.4959C7.1502 13.3058 7.1502 13.4959 7.1502 13.3058H7.33353C7.33353 13.1157 7.33353 13.3058 7.33353 13.3058C7.33353 13.1157 7.33353 13.1157 7.33353 13.1157L7.7002 12.9257C7.7002 12.7356 7.7002 12.7356 7.88353 12.7356C7.88353 12.7356 7.88353 12.7356 7.88353 12.5455C7.88353 12.5455 7.88353 12.5455 8.06686 12.5455L8.2502 12.1653C8.2502 12.1653 8.2502 12.1653 8.43353 12.1653C8.43353 12.1653 8.43353 12.1653 8.43353 11.9752H8.61686C8.61686 11.7852 8.8002 11.5951 8.98353 11.5951V11.405C9.16686 11.405 8.98353 11.405 9.16686 11.405L9.3502 11.2149C9.3502 11.2149 9.3502 11.2149 9.3502 11.0248C9.3502 11.0248 9.53353 11.0248 9.53353 10.8348C9.53353 10.6447 9.3502 10.6447 9.16686 10.4546C9.16686 10.4546 9.16686 10.4546 8.98353 10.4546C8.8002 10.4546 8.8002 10.4546 8.8002 10.4546H8.61686C8.61686 10.4546 8.61686 10.4546 8.61686 10.2645C8.43353 10.2645 8.43353 10.2645 8.43353 10.2645C8.2502 10.2645 8.2502 10.2645 8.2502 10.2645C8.2502 10.0744 8.2502 10.2645 8.2502 10.0744C8.43353 9.88434 8.2502 9.88434 8.43353 9.88434V9.69425C8.43353 9.50417 8.61686 9.69425 8.61686 9.50417C8.61686 9.50417 8.61686 9.50417 8.61686 9.31409C8.61686 9.31409 8.61686 9.31409 8.8002 9.31409L8.98353 9.12401C8.98353 8.93392 8.98353 8.93392 8.98353 8.93392H9.16686L9.53353 8.55376H9.71686C9.71686 8.36368 9.71686 8.36368 9.9002 8.36368C9.9002 8.36368 9.9002 8.36368 9.9002 8.17359V7.98351C9.9002 7.79343 9.9002 7.79343 9.9002 7.60334C9.9002 7.41326 9.9002 7.41326 9.9002 7.0331C9.9002 7.0331 9.9002 7.0331 9.9002 6.84301C9.9002 6.65293 9.9002 6.84301 9.9002 6.65293C9.9002 6.65293 9.9002 6.46285 10.0835 6.46285C10.0835 6.27277 9.9002 6.27277 9.9002 6.27277C9.53353 6.46285 9.16686 6.65293 8.61686 6.84301C8.61686 6.84301 8.61686 6.84301 8.61686 7.0331C8.43353 7.0331 8.43353 7.0331 8.43353 7.0331C8.2502 7.22318 8.43353 7.22318 8.2502 7.22318Z" fill="#F58634"/>
<path fill-rule="evenodd" clip-rule="evenodd" d="M16.8669 10.2645C16.6835 10.4546 16.6835 10.4546 16.6835 10.4546C16.6835 10.4546 16.6835 10.4546 16.5002 10.4546C16.5002 10.6447 16.5002 10.6447 16.5002 10.6447C16.5002 10.6447 16.5002 10.6447 16.3169 10.6447C16.3169 10.8348 16.3169 10.8348 16.3169 10.8348L16.1335 11.0248L15.7669 11.405C15.7669 11.405 15.7669 11.405 15.5835 11.405C15.5835 11.5951 15.5835 11.5951 15.5835 11.5951C15.5835 11.5951 15.4002 11.7852 15.2169 11.7852C15.2169 11.7852 15.2169 11.7852 15.2169 11.9752C15.2169 11.9752 15.2169 11.9752 15.0335 11.9752C15.0335 12.1653 15.0335 12.1653 15.0335 12.1653C14.8502 12.1653 14.8502 12.1653 14.8502 12.3554H14.6669V12.5455H14.4835C14.4835 12.7356 14.4835 12.7356 14.4835 12.7356L14.3002 12.9257L13.9335 13.1157C13.9335 13.3058 13.9335 13.4959 13.9335 13.4959C13.9335 13.4959 14.1169 13.4959 14.1169 13.686C14.1169 13.686 14.1169 13.4959 14.3002 13.686C14.4835 13.686 14.8502 13.8761 14.8502 13.8761C15.0335 13.8761 15.2169 13.8761 15.2169 13.8761C15.2169 14.0662 15.2169 14.0662 15.2169 14.0662C15.2169 14.0662 15.2169 14.0662 15.2169 14.2562C15.0335 14.2562 15.0335 14.2562 15.0335 14.2562C15.0335 14.4463 15.0335 14.4463 15.0335 14.4463C14.8502 14.4463 14.8502 14.6364 14.8502 14.6364L14.4835 15.0166V15.2067H14.3002L13.9335 15.5868H13.7502V15.7769C13.7502 15.7769 13.7502 15.7769 13.5669 15.7769C13.5669 15.7769 13.5669 15.7769 13.3835 15.7769C13.3835 15.967 13.5669 15.967 13.5669 16.1571C13.5669 16.9174 13.5669 17.1075 13.2002 17.8678C14.3002 17.8678 16.6835 15.5868 17.0502 14.6364C17.0502 14.6364 17.0502 14.6364 17.0502 14.4463C17.2335 14.4463 17.4169 14.6364 17.4169 14.6364C17.6002 14.6364 17.6002 14.6364 17.6002 14.6364H17.7835C17.9669 14.6364 18.3335 15.0166 18.5169 14.8265C18.5169 14.6364 18.5169 14.6364 18.5169 14.4463L18.3335 14.0662C18.3335 14.0662 18.3335 14.0662 18.3335 13.8761C18.3335 13.8761 18.3335 14.0662 18.3335 13.8761V13.686C18.3335 13.4959 18.3335 13.4959 18.3335 13.4959C18.3335 13.3058 18.3335 13.3058 18.3335 13.3058C18.1502 13.3058 18.1502 13.1157 18.1502 12.9257V12.7356C18.1502 12.5455 18.1502 12.7356 18.1502 12.5455L17.9669 12.3554C17.9669 12.1653 17.9669 12.1653 17.9669 12.1653V11.9752L17.7835 11.5951C17.7835 11.5951 17.7835 11.5951 17.7835 11.405C17.7835 11.405 17.7835 11.405 17.7835 11.2149C17.7835 11.0248 17.7835 11.0248 17.7835 11.0248C17.7835 11.0248 17.7835 11.0248 17.7835 10.8348C17.6002 10.8348 17.6002 10.6447 17.6002 10.6447C17.6002 10.4546 17.6002 10.2645 17.6002 10.2645V10.0744C17.4169 10.0744 17.6002 10.0744 17.4169 10.0744V9.88434H17.2335C17.0502 10.0744 17.0502 10.2645 16.8669 10.2645Z" fill="#F58634"/>
<defs>
<linearGradient id="paint0_linear" x1="10.3229" y1="7.83435" x2="17.8821" y2="5.98617" gradientUnits="userSpaceOnUse">
<stop stop-color="#04870F"/>
<stop offset="1" stop-color="#03690C"/>
</linearGradient>
</defs>
</svg>
