<svg xmlns="http://www.w3.org/2000/svg" width="120" height="120" xmlns:xlink="http://www.w3.org/1999/xlink" shape-rendering="geometricPrecision" text-rendering="geometricPrecision" image-rendering="optimizeQuality" fill-rule="evenodd" clip-rule="evenodd"><defs><linearGradient id="id0" gradientUnits="userSpaceOnUse" x1="45.9" y1="109.9" x2="28.3" y2="91.5"><stop offset="0" stop-color="#04870f"/><stop offset="1" stop-color="#03690c"/></linearGradient><linearGradient id="id1" gradientUnits="userSpaceOnUse" xlink:href="#id0" x1="43.9" y1="107" x2="26.3" y2="88.6"/><linearGradient id="id2" gradientUnits="userSpaceOnUse" xlink:href="#id0" x1="36.6" y1="101.5" x2="13.3" y2="77.2"/><linearGradient id="id3" gradientUnits="userSpaceOnUse" xlink:href="#id0" x1="39.1" y1="105.3" x2="15.8" y2="81.1"/><linearGradient id="id4" gradientUnits="userSpaceOnUse" xlink:href="#id0" x1="30" y1="108" x2="22.2" y2="99.9"/><linearGradient id="id5" gradientUnits="userSpaceOnUse" xlink:href="#id0" x1="18.1" y1="102.9" x2="7.8" y2="92.2"/><linearGradient id="id6" gradientUnits="userSpaceOnUse" xlink:href="#id0" x1="28" y1="105.1" x2="20.3" y2="97"/><linearGradient id="id7" gradientUnits="userSpaceOnUse" xlink:href="#id0" x1="15.5" y1="99.1" x2="5.2" y2="88.4"/><style>.fil1{fill:#2887d2}.fil12,.fil3,.fil5{fill:#fff212;fill-rule:nonzero}.fil12,.fil3{fill:#4e901e}.fil12{fill:#f0a71f}</style></defs><g id="Layer_x0020_1"><path fill="none" d="M0 0h120v120H0z"/><g id="_796917816"><path class="fil1" d="M83 60H2v11l40-1 40 1h25l4-1 7 1V61l-5-1H83zM38 28H24c-5 0-8 3-11 7L7 58h8l4-14 1-2v-1h1v4l-4 13h28l-3-13-1-4h1l1 1v2l4 14h8l-6-23c-2-4-6-7-10-7h-1zM83 22c1 4 6 7 12 5 4-1 8-6 6-12-1-5-7-9-13-7-7 3-7 12-5 14z"/><circle class="fil1" cx="31" cy="17" r="9"/><path fill="url(#id0)" fill-rule="nonzero" d="M20 110h34V92H21z"/><path class="fil3" d="M52 97v8c-2 0-3 1-3 3H25c0-2-1-3-3-3v-8c2 0 3-2 3-3h24c0 1 1 3 3 3z"/><path d="M21 98l-1 12h12c-3 0-6-2-8-4s-3-5-3-8z" fill="url(#id4)" fill-rule="nonzero"/><path class="fil5" d="M44 102h3v-2h-3zM27 101h3v-1h-3zM38 103v-1l-1-1h-1l-1-1v-1-2h2v-1h1v1l1 1 1 1h-2v-1h-1l-1 1 1 1 1 1h1l1 1v1l-1 1-1 1v1h-1v-1l-2-1-1-2h2v1l1 1 1-1z"/><g><path fill="url(#id1)" fill-rule="nonzero" d="M18 107h34V89H19z"/><path class="fil3" d="M50 94v8c-2 0-3 1-3 3H23c0-2-1-3-3-3v-8c2 0 3-2 3-3h24c0 2 1 3 3 3z"/><path d="M19 95l-1 12h12c-3 0-6-1-8-4-2-2-3-5-3-8z" fill="url(#id6)" fill-rule="nonzero"/><path class="fil5" d="M42 99h3v-2h-3zM25 98h3v-1h-3zM37 101l-1-1-1-1-2-1-1-1v-1l-1-1 1-3 3-1v-1h1v1l2 2 1 2h-2l-1-1-1-1-1 1v2l2 1 1 1h1l1 1v2l-1 2-2 1v2h-2v-2l-2-1-1-3h2l1 2h2l1-1z"/></g><g><path fill="url(#id3)" fill-rule="nonzero" d="M5 105h44l1-24H6z"/><path class="fil3" d="M47 88v11c-2 0-4 1-4 4l-31-1c0-2-2-4-4-4V88c2 0 4-2 4-4h31c0 2 2 4 4 4z"/><path d="M6 90l-1 15h15c-4 0-7-2-10-4-3-3-4-7-4-11z" fill="url(#id5)" fill-rule="nonzero"/><path class="fil5" d="M36 94h4v-2h-4zM15 94h4v-2h-4zM29 96v-1l-1-1h-2l-1-1v-1l-1-1 1-2 2-1v-2h1v2l2 1 1 2h-2v-1h-2l-1 1 1 1h1l1 1 1 1 1 1v1l-1 2-2 1v1h-1v-1l-2-1-1-3h2v1l2 1h1v-1z"/><g><path fill="url(#id2)" fill-rule="nonzero" d="M3 101l44 1V78L3 77z"/><path class="fil3" d="M45 84v11c-3 0-4 2-5 4H9c0-3-2-5-4-5V84c2 0 4-2 4-4h32c0 2 1 4 4 4z"/><path d="M3 86v15h15c-4 0-8-1-11-4-2-3-4-7-4-11z" fill="url(#id7)" fill-rule="nonzero"/><path class="fil5" d="M34 90h4v-2h-4zM12 90h4v-2h-4zM27 93v-1l-2-1-2-1-2-1-1-2v-2l1-3 3-1v-3h2v3c2 0 3 1 3 2 1 1 2 2 1 3h-3v-2h-3l-1 2 1 1 1 1 3 1 1 1 1 2v1l-1 4-3 1v2h-2v-2l-4-2-1-3h3l1 2h4v-2z"/></g></g><g><path class="fil12" d="M72 90c0-2-2-4-4-4H38c-2 0-3 2-3 4v2h37v-2zM35 95v11c0 2 1 3 3 3h30c2 0 4-1 4-3V95H35z"/><path fill-rule="nonzero" d="M35 95h37v-3H35z"/><path class="fil12" d="M35 95v11c0 2 1 3 3 3h14c-9 0-17-6-17-14z"/><path fill="#f1f2f2" fill-rule="nonzero" d="M41 98h25v-1H41z"/><circle cx="62" cy="103" r="3" fill="#1cc8eb"/><circle cx="65" cy="103" r="3" fill="#c73538"/></g><g><path d="M80 105l-6-1v-9l1-2V74l1-2V48l6-2v21l-1 2v22l-1 2v12zm0 4l-5 3v-1h-1v-7l6 1v4zm4-1l6 1v2h-1v1l-1 1v1h-2v1h-8v-1h-1l-1-1-1-1 5-3h2v1h1v-1h1v-1zm1-7l6 1v2h-1v5l-6-1v-2h1v-5zm1-14l6 1v3l-1 1v10l-6-1v-8l1-1v-5zm0-7l6 1v7l-6-1v-7zm7-7l-1 6v-1h1v1h-1v2l-6-1h1v-5h1v-1h1v-1h4zm4 8l-6 1v-4 1h1l1-6h1v1h1l1 1v1l1 1v4zm-6 1zm2 20l-2-20 6-1 2 21h-6zm6 0zm2 7l-1 6h-2l-1-1h-1v-1h-1v-1h-1v-2h-1v-8h6v7h2zm2-6h6v8l-1 1v1h-1v1h-1l-1 1h-5l1-6v1h1v-1h1v-1h1v-3l-1-1v-1zm-1-28h6v10l1 1v17h-6V83l-1-1v-7zm5-22l1 22h-6l-1-22h6zm-6 0zm0-4h6v4h-6v-4zm8-3l-6 2 3 2h-1 1v-1h1v-1 1h-6v-3h1v-1h1l1-1h2l3 2zm-3-2h2l1 2-3-2zm6 26l-6 2v-2l-1-1v-8l-1-1V50h-1v-2l6-2v4l1 1v10l1 1v8h1zm2 1l5 2v1h-1v1l-1 1h-1v1h-6l-1-1h-1v-1h-1v-1l-1-1v-1l6-2v1h2zm-3-23l6-1v1l1 1v8l1 1v10h1v4h-1v1l-5-2v-4l-1-1v-8l-1-1v-9h-1zM91 33v-6h5l1 1h4l2 1h1l1 1h1l1 1h1l1 1 1 1 1 1h1l1 1v1l1 1 1 1v1l1 1v2l1 1v4l-6 1v-5l-1-1-1-1v-1l-1-1v-1h-1v-1h-2v-1h-1l-1-1h-1l-1-1h-4l-1-1h-5zm-16 7l-5-3v-1h1v-1l1-1 1-1 1-1h1l1-1h1l1-1h1l1-1h2v-1h4l1-1h4v6h-4l-1 1h-3l-1 1h-2v1h-1l-1 1h-1v1h-1v1h-1v1zm-3 9l-6-1v-3h1v-4h1v-2h1v-2h1l5 3h-1v2h-1v3h-1v4zm-2 12l-5-1v-7l1-1v-4l6 1v3h-1v9h-1zm0 10l-6 3V62h1v-2l5 1v10zm2-1h6v1l-1 1v2h-1v1l-1 1h-1v1h-7v-1h-1v-1h-1v-1h-1l6-3h2v-1zm6 0zm2-21l-2 21h-6l2-21h6zm0 0zm2-3l-6 2 3 2h-1 1v-1h1v-1 1h-6v-2h1v-2h1l1-1h2l3 2zm-3-2h2l1 2-3-2z" fill="#fefefe" fill-rule="nonzero"/><path id="1" class="fil1" d="M79 47c1 2-2 51-2 58 0 2-1 4 1 6 1 2 8 3 9-3l1-6 1-15v-6c1-3 0-6 3-5 2 0 2 4 2 5l2 21c0 5-1 10 5 10 7 1 6-5 5-9l-1-28-1-22v-4c0-2 0-2 2-2l3 24c1 4 6 4 8 1l-3-25c-1-12-11-17-23-17-8 0-15 3-19 8-2 4-3 6-3 10l-1 13c-1 3-2 9-1 11 1 3 7 4 8-2l2-21c0-2 0-2 2-2z"/></g></g></g></svg>