<svg width="26" height="26" viewBox="0 0 26 26" fill="none" xmlns="http://www.w3.org/2000/svg">
<path d="M13.8673 3.03326V4.98326V19.9333H1.08398V3.03326H13.8673Z" fill="#2887D2"/>
<path d="M13.2169 2.59998V4.98331V19.2833H0.433594V2.59998H13.2169Z" fill="#FEFEFE"/>
<path d="M13.0001 4.9833V2.59997H13.4335V4.9833H13.0001ZM13.0001 19.2833V4.9833H13.4335V19.2833L13.2168 19.5L13.0001 19.2833ZM13.4335 19.2833V19.5H13.2168L13.4335 19.2833ZM0.433464 19.0666H13.2168V19.5H0.433464L0.216797 19.2833L0.433464 19.0666ZM0.433464 19.5H0.216797V19.2833L0.433464 19.5ZM0.65013 2.59997V19.2833H0.216797V2.59997L0.433464 2.3833L0.65013 2.59997ZM0.216797 2.59997V2.3833H0.433464L0.216797 2.59997ZM13.2168 3.0333H0.433464V2.3833H13.2168L13.4335 2.59997L13.2168 3.0333ZM13.2168 2.3833H13.4335V2.59997L13.2168 2.3833Z" fill="#2887D2"/>
<path d="M3.46641 5.41662H3.24974V4.11662H2.81641V3.89996L3.46641 3.68329V5.41662Z" fill="#2887D2"/>
<path d="M3.89961 8.01666H2.59961V7.58333L3.24961 7.14999C3.24961 6.93333 3.46628 6.93333 3.46628 6.93333C3.46628 6.71666 3.46628 6.71666 3.46628 6.71666V6.49999H3.24961H3.03294V6.71666H2.59961C2.59961 6.71666 2.59961 6.49999 2.81628 6.49999C2.81628 6.28333 2.81628 6.28333 3.03294 6.28333C3.03294 6.28333 3.03294 6.28333 3.24961 6.28333C3.46628 6.28333 3.46628 6.28333 3.68294 6.28333C3.68294 6.49999 3.89961 6.49999 3.89961 6.71666L3.68294 6.93333C3.68294 6.93333 3.68294 7.14999 3.46628 7.14999L3.03294 7.58333H3.89961V8.01666Z" fill="#2887D2"/>
<path d="M2.81641 10.4C2.81641 10.1833 2.81641 10.1833 2.81641 10.1833C3.03307 10.1833 3.03307 10.1833 3.03307 10.1833C3.03307 10.1833 3.03307 10.1833 3.03307 10.4C3.03307 10.4 3.03307 10.4 2.81641 10.4Z" fill="#2887D2"/>
<path d="M2.81641 12.7833C3.03307 12.7833 3.03307 12.7833 3.03307 12.7833C3.03307 13 3.03307 13 3.03307 13C3.03307 13 3.03307 13 2.81641 13C2.81641 13 2.81641 13 2.81641 12.7833Z" fill="#2887D2"/>
<path d="M2.81641 15.3833V15.1666C3.03307 15.1666 3.03307 15.3833 3.03307 15.3833C3.03307 15.6 3.03307 15.6 3.03307 15.6C3.03307 15.6 3.03307 15.6 2.81641 15.6C2.81641 15.6 2.81641 15.6 2.81641 15.3833Z" fill="#2887D2"/>
<path d="M3.03294 17.1166H3.24961H3.46628V16.8999C3.46628 16.8999 3.46628 16.8999 3.46628 16.6833H3.24961H3.03294C3.03294 16.8999 3.03294 16.8999 3.03294 16.8999H2.59961C2.59961 16.8999 2.59961 16.6833 2.81628 16.6833C2.81628 16.6833 2.81628 16.4666 3.03294 16.4666C3.03294 16.4666 3.03294 16.4666 3.24961 16.4666C3.46628 16.4666 3.46628 16.4666 3.68294 16.4666C3.68294 16.6833 3.89961 16.6833 3.89961 16.8999C3.89961 17.1166 3.68294 17.1166 3.68294 17.1166C3.68294 17.1166 3.68294 17.3333 3.46628 17.3333C3.68294 17.3333 3.68294 17.3333 3.68294 17.5499C3.89961 17.5499 3.89961 17.5499 3.89961 17.7666L3.68294 17.9833C3.46628 18.1999 3.46628 18.1999 3.24961 18.1999C3.03294 18.1999 2.81628 18.1999 2.81628 17.9833C2.59961 17.9833 2.59961 17.7666 2.59961 17.7666H3.03294C3.03294 17.9833 3.24961 17.9833 3.24961 17.9833C3.24961 17.9833 3.46628 17.9833 3.46628 17.7666C3.46628 17.5499 3.46628 17.3333 3.24961 17.3333H3.03294V17.1166Z" fill="#2887D2"/>
<path d="M5.19954 17.5499C5.19954 17.7666 5.19954 17.9833 4.98288 17.9833C4.98288 18.1999 4.76621 18.1999 4.54954 18.1999C4.54954 18.1999 4.33288 18.1999 4.11621 17.9833C4.11621 17.9833 4.11621 17.7666 4.11621 17.5499V17.1166C4.11621 16.8999 4.11621 16.6833 4.11621 16.6833C4.33288 16.4666 4.54954 16.4666 4.54954 16.4666C4.76621 16.4666 4.98288 16.4666 4.98288 16.6833C5.19954 16.6833 5.19954 16.8999 5.19954 17.1166V17.5499ZM4.98288 17.1166C4.98288 16.8999 4.76621 16.8999 4.76621 16.8999C4.76621 16.6833 4.76621 16.6833 4.54954 16.6833C4.54954 16.6833 4.54954 16.6833 4.54954 16.8999C4.33288 16.8999 4.33288 16.8999 4.33288 17.1166V17.5499C4.33288 17.5499 4.33288 17.7666 4.54954 17.7666C4.54954 17.9833 4.54954 17.9833 4.54954 17.9833C4.76621 17.9833 4.76621 17.9833 4.76621 17.7666C4.76621 17.7666 4.98288 17.7666 4.98288 17.5499V17.1166Z" fill="#2887D2"/>
<path d="M10.0226 4.11664H4.98242V4.88237H10.0226V4.11664Z" fill="#2887D2"/>
<path d="M11.7133 6.71661H4.98242V7.48235H11.7133V6.71661Z" fill="#2887D2"/>
<path d="M11.6399 16.6833H6.06641V17.449H11.6399V16.6833Z" fill="#2887D2"/>
<path fill-rule="evenodd" clip-rule="evenodd" d="M7.58398 4.54999V20.8C7.58398 20.8 22.1007 20.5833 22.1007 21.0167C22.1007 21.2333 22.1007 7.58332 22.1007 7.58332L20.3673 4.76665L20.1507 4.54999H7.58398Z" fill="#FEFEFE"/>
<path fill-rule="evenodd" clip-rule="evenodd" d="M8.23438 5.41669V21.6667C8.23438 21.6667 22.9677 21.2334 22.9677 21.6667C22.9677 21.8834 22.9677 8.45002 22.9677 8.45002L21.451 5.41669H21.2344H8.23438Z" fill="#FEFEFE"/>
<path d="M8.01758 21.6667V5.41667H8.66758V21.6667L8.23424 21.8833L8.01758 21.6667ZM8.23424 21.8833H8.01758V21.6667L8.23424 21.8833ZM23.1842 21.6667H22.5342L22.7509 21.8833H22.5342H22.3176H21.8842H21.4509H21.0176H20.5842H20.1509H19.5009H18.8509H18.2009H17.5509H16.9009H16.2509H15.6009H14.9509H14.3009H13.6509H13.0009H12.3509H11.7009H11.0509H10.6176H10.1842H9.75091H9.31758H8.88424H8.66758H8.45091H8.23424V21.2333H8.45091H8.66758H8.88424H9.31758H9.75091H10.1842H10.6176H11.0509H11.7009H12.3509H13.0009H13.6509H14.3009H14.9509H15.6009H16.2509H16.9009H17.5509H18.2009H18.8509H19.5009H20.1509H20.5842H21.0176H21.4509H21.8842H22.3176H22.5342H22.7509H22.9676L23.1842 21.6667ZM22.5342 8.66667L23.1842 8.45V8.66667V8.88334V9.1V9.31667V9.75V10.1833V10.6167V11.05V11.7V12.1333V12.7833V13.4333V13.8667V14.5167V15.1667V15.8167V16.4667V17.1167V17.55V18.2V18.6333V19.2833V19.7167V20.15V20.5833V20.8V21.2333V21.45V21.6667H22.5342H23.1842H22.5342V21.45V21.2333V20.8V20.5833V20.15V19.7167V19.2833V18.6333V18.2V17.55V17.1167V16.4667V15.8167V15.1667V14.5167V13.8667V13.4333V12.7833V12.1333V11.7V11.05V10.6167V10.1833V9.75V9.31667V9.1V8.88334V8.66667V8.45V8.66667ZM21.6676 5.41667L23.1842 8.45L22.5342 8.66667L21.2342 5.63334L21.6676 5.2V5.41667ZM21.6676 5.2V5.41667V5.2ZM21.4509 5.2H21.6676L21.2342 5.85L21.0176 5.63334L21.2342 4.98334L21.4509 5.2ZM21.2342 4.98334H21.4509V5.2L21.2342 4.98334ZM8.66758 5.41667H8.01758L8.23424 4.98334H8.45091H8.66758H8.88424H9.10091H9.53424H9.96758H10.4009H10.8342H11.2676H11.9176H12.3509H13.0009H13.6509H14.0842H14.7342H15.3842H16.0342H16.6842H17.1176H17.7676H18.2009H18.8509H19.2842H19.7176H20.1509H20.3676H20.8009H21.0176H21.2342V5.63334H21.0176H20.8009H20.3676H20.1509H19.7176H19.2842H18.8509H18.2009H17.7676H17.1176H16.6842H16.0342H15.3842H14.7342H14.0842H13.6509H13.0009H12.3509H11.9176H11.2676H10.8342H10.4009H9.96758H9.53424H9.10091H8.88424H8.66758H8.45091L8.66758 5.41667Z" fill="#0098DA"/>
<path d="M9.53418 13.4333V14.7333H15.8175V13.4333C15.6008 12.7833 14.7342 12.5667 14.0842 12.35C13.8675 12.1333 13.8675 12.1333 13.8675 11.9167V11.4833C13.8675 11.2667 13.8675 11.2667 13.8675 11.2667C14.0842 11.05 14.3008 10.6167 14.3008 10.4C14.7342 10.1833 14.7342 9.96666 14.7342 9.74999V9.09999C14.7342 9.09999 14.7342 8.88332 14.5175 8.66666V8.01666C14.7342 7.79999 14.7342 7.36666 14.3008 6.93333C13.8675 6.49999 13.4342 6.28333 12.7842 6.28333C11.9175 6.28333 11.7008 6.28333 11.0508 6.93333C10.8342 7.36666 10.8342 7.79999 10.8342 8.01666V8.66666C10.8342 8.88332 10.6175 9.09999 10.6175 9.09999V9.74999C10.6175 9.96666 10.8342 10.1833 10.8342 10.1833C11.0508 10.8333 11.2675 11.2667 11.4842 11.4833V11.9167C11.4842 12.1333 11.4842 12.1333 11.2675 12.1333L9.96751 13C9.75085 13 9.53418 13.2167 9.53418 13.4333Z" fill="url(#paint0_linear)"/>
<path d="M18.7671 18.85H9.53418V19.7183H18.7671V18.85Z" fill="#00AFEF"/>
<path fill-rule="evenodd" clip-rule="evenodd" d="M21.8845 16.0333C23.8345 16.0333 25.5678 17.7667 25.5678 19.7167C25.5678 21.6667 23.8345 23.4 21.8845 23.4C19.9345 23.4 18.2012 21.6667 18.2012 19.7167C18.2012 17.7667 19.9345 16.0333 21.8845 16.0333Z" fill="url(#paint1_linear)"/>
<path d="M25.7845 19.7167H25.3512V19.5V19.2833V19.0667V18.85V18.6333L25.1345 18.4167V18.2L24.9178 17.9833V17.7667L24.7012 17.55L24.4845 17.3333L24.2678 17.1167H24.0512V16.9H23.8345V16.6833H23.6178L23.4012 16.4667H23.1845H22.9678L22.7512 16.25H22.5345H22.3178H22.1012H21.8845V16.0333H22.1012H22.3178H22.5345H22.7512H22.9678L23.1845 16.25H23.4012H23.6178L23.8345 16.4667L24.0512 16.6833H24.2678V16.9H24.4845L24.7012 17.1167L24.9178 17.3333V17.55H25.1345V17.7667L25.3512 17.9833V18.2L25.5678 18.4167V18.6333V18.85V19.0667L25.7845 19.2833V19.5V19.7167ZM21.8845 23.4V23.1833H22.1012H22.3178H22.5345H22.7512L22.9678 22.9667H23.1845H23.4012L23.6178 22.75H23.8345V22.5333H24.0512V22.3167H24.2678L24.4845 22.1L24.7012 21.8833L24.9178 21.6667V21.45L25.1345 21.2333V21.0167L25.3512 20.8V20.5833V20.3667V20.15V19.9333V19.7167H25.7845V19.9333V20.15L25.5678 20.3667V20.5833V20.8V21.0167L25.3512 21.2333V21.45L25.1345 21.6667V21.8833H24.9178V22.1L24.7012 22.3167L24.4845 22.5333H24.2678V22.75H24.0512L23.8345 22.9667L23.6178 23.1833H23.4012H23.1845L22.9678 23.4H22.7512H22.5345H22.3178H22.1012H21.8845ZM18.2012 19.7167H18.4178V19.9333V20.15V20.3667L18.6345 20.5833V20.8V21.0167L18.8512 21.2333V21.45L19.0678 21.6667V21.8833H19.2845V22.1H19.5012V22.3167H19.7178L19.9345 22.5333L20.1512 22.75H20.3678V22.9667H20.5845H20.8012L21.0178 23.1833H21.2345H21.4512H21.6678H21.8845V23.4H21.6678H21.4512H21.2345H21.0178H20.8012L20.5845 23.1833H20.3678L20.1512 22.9667H19.9345L19.7178 22.75L19.5012 22.5333L19.2845 22.3167H19.0678V22.1L18.8512 21.8833L18.6345 21.6667V21.45L18.4178 21.2333V21.0167V20.8L18.2012 20.5833V20.3667V20.15V19.9333V19.7167ZM21.8845 16.0333V16.25H21.6678H21.4512H21.2345H21.0178L20.8012 16.4667H20.5845H20.3678V16.6833H20.1512L19.9345 16.9L19.7178 17.1167H19.5012V17.3333H19.2845V17.55H19.0678V17.7667L18.8512 17.9833V18.2L18.6345 18.4167V18.6333V18.85L18.4178 19.0667V19.2833V19.5V19.7167H18.2012V19.5V19.2833V19.0667V18.85L18.4178 18.6333V18.4167V18.2L18.6345 17.9833V17.7667L18.8512 17.55L19.0678 17.3333V17.1167H19.2845L19.5012 16.9L19.7178 16.6833L19.9345 16.4667H20.1512L20.3678 16.25H20.5845L20.8012 16.0333H21.0178H21.2345H21.4512H21.6678H21.8845Z" fill="#FEFEFE"/>
<path d="M22.5348 20.8C22.5348 20.5833 22.5348 20.5833 22.3182 20.3666C22.3182 20.3666 22.1015 20.15 21.8848 20.15C21.6682 19.9333 21.4515 19.9333 21.4515 19.9333C21.2348 19.7166 21.0182 19.7166 21.0182 19.5C20.8015 19.5 20.8015 19.2833 20.5848 19.0666C20.5848 19.0666 20.5848 18.85 20.5848 18.6333C20.5848 18.2 20.5848 17.9833 20.8015 17.7666C21.0182 17.55 21.4515 17.3333 21.8848 17.3333V17.1166V16.9C21.8848 16.6833 21.8848 16.6833 21.8848 16.6833H22.1015C22.3182 16.6833 22.3182 16.6833 22.3182 16.9V17.1166V17.3333C22.7515 17.55 22.9682 17.55 23.1848 17.7666C23.4015 18.2 23.4015 18.4166 23.4015 18.6333C23.4015 18.85 23.4015 19.0666 23.1848 19.0666H22.9682C22.7515 19.0666 22.5348 18.85 22.5348 18.85V18.6333C22.5348 18.4166 22.5348 18.4166 22.3182 18.2H22.1015C21.8848 18.2 21.6682 18.2 21.6682 18.2C21.4515 18.4166 21.4515 18.4166 21.4515 18.6333C21.4515 18.85 21.4515 18.85 21.6682 19.0666C21.6682 19.0666 21.8848 19.2833 22.1015 19.2833C22.3182 19.5 22.5348 19.5 22.7515 19.5C22.9682 19.7166 22.9682 19.7166 23.1848 19.9333C23.1848 19.9333 23.4015 20.15 23.4015 20.3666C23.4015 20.3666 23.4015 20.5833 23.4015 20.8C23.4015 21.2333 23.4015 21.45 23.1848 21.6666C22.9682 21.8833 22.5348 22.1 22.3182 22.1V22.3166V22.5333L22.1015 22.75H21.8848L21.6682 22.5333V22.3166V22.1C21.2348 21.8833 21.0182 21.8833 20.8015 21.6666C20.5848 21.2333 20.3682 21.0166 20.3682 20.5833C20.3682 20.5833 20.5848 20.3666 20.8015 20.3666H21.0182C21.2348 20.3666 21.2348 20.5833 21.2348 20.5833V20.8C21.2348 21.0166 21.4515 21.0166 21.4515 21.0166C21.6682 21.2333 21.6682 21.2333 21.8848 21.2333C22.1015 21.2333 22.3182 21.2333 22.3182 21.2333C22.5348 21.0166 22.5348 21.0166 22.5348 20.8Z" fill="#FFF212"/>
<path d="M21.4076 7.79999H16.4668V8.66836H21.4076V7.79999Z" fill="#00AFEF"/>
<path d="M21.4076 10.4H16.4668V11.2684H21.4076V10.4Z" fill="#00AFEF"/>
<path d="M21.4076 12.7833H16.4668V13.6517H21.4076V12.7833Z" fill="#00AFEF"/>
<path d="M18.7671 16.0333H9.53418V16.9017H18.7671V16.0333Z" fill="#00AFEF"/>
<path d="M8.88373 13.8666L8.66706 13.65L9.10039 13H9.31706L9.10039 13.8666H8.88373ZM9.10039 13.8666H8.88373H9.10039ZM9.10039 13.8666V13H9.31706L9.10039 13.8666ZM9.10039 13H9.31706H9.10039ZM11.0504 14.3L11.7004 14.7333L11.4837 14.95H11.2671H11.0504L10.8337 14.7333H10.6171H10.4004V14.5166H10.1837H9.96706V14.3H9.75039L9.53373 14.0833H9.31706L9.10039 13.8666H8.88373L9.31706 13V13.2166H9.53373H9.75039V13.4333H9.96706L10.1837 13.65H10.4004V13.8666H10.6171H10.8337V14.0833H11.0504H11.2671H11.0504V14.3ZM12.3504 13.65L11.7004 14.7333L11.0504 14.3L11.7004 13.2166L12.3504 13.4333V13.65ZM11.7004 13.2166L12.1337 12.7833L12.3504 13.4333L11.7004 13.2166ZM12.7837 17.1166L11.7004 13.65L12.3504 13.4333L13.4337 16.9L13.2171 17.55L12.7837 17.1166ZM13.4337 16.9L13.6504 17.3333L13.2171 17.55L13.4337 16.9ZM9.10039 16.9L13.2171 16.6833V17.55L9.10039 17.7666L8.88373 17.1166L9.10039 16.9ZM9.10039 17.7666H8.23373L8.88373 17.1166L9.10039 17.7666ZM10.1837 16.6833L9.31706 17.55L8.88373 17.1166L9.53373 16.0333H10.1837V16.6833ZM10.1837 16.0333L10.4004 16.25L10.1837 16.6833V16.0333ZM7.80039 14.95L8.45039 14.3V14.5166H8.66706V14.7333H8.88373V14.95H9.10039V15.1666H9.31706V15.3833H9.53373V15.6H9.75039V15.8166H9.96706L10.1837 16.0333L9.75039 16.6833L9.53373 16.4666H9.31706V16.25H9.10039V16.0333H8.88373V15.8166H8.66706V15.6H8.45039V15.3833H8.23373V15.1666H8.01706V14.95H7.80039ZM4.11706 11.4833L4.55039 10.8333H4.76706V11.05H4.98372V11.2666L5.20039 11.4833L5.41706 11.7H5.63372V11.9166L5.85039 12.1333H6.06706V12.35L6.28372 12.5666H6.50039L6.71706 12.7833V13H6.93372L7.15039 13.2166L7.36706 13.4333L7.58372 13.65L7.80039 13.8666L8.01706 14.0833L8.23373 14.3H8.45039L7.80039 14.95L7.58372 14.7333V14.5166H7.36706L7.15039 14.3L6.93372 14.0833L6.71706 13.8666L6.50039 13.65H6.28372V13.4333H6.06706L5.85039 13.2166V13L5.63372 12.7833H5.41706L5.20039 12.5666L4.98372 12.35V12.1333H4.76706L4.55039 11.9166L4.33372 11.7L4.11706 11.4833ZM4.55039 10.8333H4.76706H4.55039ZM8.66706 13.2166L9.31706 13.65H8.66706H8.45039V13.4333H8.23373H8.01706L7.80039 13.2166L7.58372 13H7.36706L7.15039 12.7833H6.93372L6.71706 12.5666H6.50039L6.06706 12.35L5.85039 12.1333H5.63372L5.41706 11.9166H5.20039V11.7H4.98372H4.76706L4.55039 11.4833H4.33372L4.55039 11.2666V10.8333L4.11706 11.4833L3.90039 11.2666V10.8333L4.33372 10.6166H4.55039L4.76706 10.8333H4.98372H5.20039V11.05H5.41706L5.63372 11.2666H5.85039L6.06706 11.4833H6.28372L6.50039 11.7H6.71706L6.93372 11.9166H7.15039L7.36706 12.1333H7.58372L7.80039 12.35L8.01706 12.5666H8.23373H8.45039L8.66706 12.7833H8.88373V13H9.10039L8.66706 13.2166ZM9.31706 13.65L9.10039 13.8666L8.66706 13.65H9.31706ZM9.31706 13.65L8.66706 13.2166L9.10039 13L9.31706 13.65ZM8.66706 13.2166L8.88373 12.7833L9.10039 13L8.66706 13.2166Z" fill="#FEFEFE"/>
<path fill-rule="evenodd" clip-rule="evenodd" d="M8.88343 13.4333H9.10009C9.53343 13.65 11.0501 14.7333 11.2668 14.5166L12.1334 13.4333L13.2168 17.1166L9.10009 17.3333L9.96676 16.25C9.10009 15.6 8.88343 15.3833 8.23343 14.7333C7.58343 14.3 4.76676 11.4833 4.33343 11.2666C3.46676 10.4 8.45009 13.2166 8.88343 13.4333Z" fill="url(#paint2_linear)"/>
<defs>
<linearGradient id="paint0_linear" x1="10.4415" y1="13.5369" x2="14.9634" y2="7.45339" gradientUnits="userSpaceOnUse">
<stop stop-color="#1CC8EB"/>
<stop offset="0.631373" stop-color="#0E96E0"/>
<stop offset="1" stop-color="#0063D4"/>
</linearGradient>
<linearGradient id="paint1_linear" x1="18.4201" y1="20.6016" x2="25.4439" y2="18.8209" gradientUnits="userSpaceOnUse">
<stop stop-color="#04870F"/>
<stop offset="1" stop-color="#03690C"/>
</linearGradient>
<linearGradient id="paint2_linear" x1="12.952" y1="14.8315" x2="4.48288" y2="13.5673" gradientUnits="userSpaceOnUse">
<stop stop-color="#FC4D44"/>
<stop offset="1" stop-color="#C73538"/>
</linearGradient>
</defs>
</svg>
