<svg xmlns="http://www.w3.org/2000/svg" width="121" height="120" viewBox="0 0 120 119" shape-rendering="geometricPrecision" text-rendering="geometricPrecision" image-rendering="optimizeQuality" fill-rule="evenodd" clip-rule="evenodd"><defs><style>.fil1{fill:#fefefe}.fil4{fill:#0098da}.fil3{fill:#2887d2}.fil2,.fil5{fill:#fefefe;fill-rule:nonzero}.fil2{fill:#2887d2}</style></defs><g id="Layer_x0020_1"><path fill="none" d="M1 0h119v119H1z"/><g id="_579861848"><path class="fil1" d="M85 10l1 78H24V25l10-14 1-1h50z"/><path id="1" class="fil2" d="M87 88l-1 2-2-2V10h3v78zm0 0v2h-1l1-2zm-64 0l1-1 1-1h61v4H69l-3-1H32l-2 1h-5v-2h-2zm2-62v-1 63h-2 2-2V27l-1-1v-1l1-1 2 2zm8-17l2 3-10 14-2-2L33 9zm0 0zm1 0l1-1 1 3-1 1-2-3h1zm0 0V8h1l-1 1zm50 1l1 1H51l-2 1H35V8h50l2 2h-3z"/><path class="fil3" d="M35 11v10s1 3-1 4H24L35 9v2z"/><path id="1" class="fil2" d="M36 21h-1l-1-10h1l1 10zm-1 0zm-2 3h2v-3h1v1h-1v2h-1v1l-1-1zm-9 1h9v-1l1 1H23h1zM34 9h1v1L24 25h-1L34 9zm0 0h1-1zm1 2h-1V9h1v2zm-1 0z"/><path class="fil3" transform="matrix(.55722 -.00182 -.00253 -.6414 33 49)" d="M0 0h81v7H0z"/><path class="fil3" transform="matrix(.55722 -.00182 -.00253 -.6414 33 41)" d="M0 0h81v7H0z"/><path class="fil3" transform="matrix(.38083 -.00124 -.00253 -.6414 47 31)" d="M0 0h81v7H0z"/><path class="fil3" transform="matrix(.55722 -.00182 -.00253 -.6414 33 58)" d="M0 0h81v7H0z"/><path class="fil3" transform="matrix(.55722 -.00182 -.00253 -.6414 33 67)" d="M0 0h81v7H0z"/><path class="fil3" transform="matrix(.55722 -.00182 -.00253 -.6414 33 77)" d="M0 0h81v7H0z"/><g><path class="fil1" d="M78 17v78H16V32l10-15h52z"/><path id="1" class="fil2" d="M79 95l-1 2-1-2-1-78h3v78zm0 0v2h-1l1-2zm-64 0l1-2h62v4h-4l-2-1H20l-1 1h-2v-2h-2zm2-62v-1 63h-2 2-2V44l-1-2V32l1-1 2 2zm8-17l2 3-10 14-2-2 10-15zm0 0zm1-1h1l1 3-1 1-2-3 1-1zm0 0h1-1zm50 2l1 1H27v-3h51l1 2h-3z"/><g><path class="fil3" d="M27 17v11s1 3-1 3l-11 1 12-16v1z"/><path id="1" class="fil2" d="M28 28h-1l-1-11h1l1 11zm-1 0zm-2 3h1v-1h1v-2h1v1h-1v2h-1v1l-1-1zm-9 1h-1 8v-1h2l1 1H15h1zm10-16h1L16 32h-1l11-16zm0 0h1-1zm1 1h-1v-1h1v1zm-1 0z"/></g></g><g id="_579830024"><path class="fil4" d="M29 30h40v5H29zM29 41h40v5H29zM29 53h40v5H29zM29 65h40v5H29zM29 78h40v5H29z"/></g><g><path class="fil5" d="M22 63H4v-7h18l3 2-3 5zm0-7h2l1 2-3-2zm29 17v7h-4l-1-1h-4l-1-1h-3l-1-1h-1l-1-1h-1l-1-1h-1l-1-1-1-1h-1l-1-1-1-1-1-1h-1l-1-1v-1l-1-1-1-1-1-1v-1l-1-1v-1l-1-1 6-3 1 1v1l1 1 1 1v1h1v1l1 1h1v1l1 1h1l1 1 1 1h1l1 1h2l1 1h1l1 1h3l1 1h5zm28-17v7l3-2v1l-1 1-1 1v1l-1 1-1 1v1l-1 1-1 1h-1l-1 1-1 1v1h-1l-1 1-1 1h-1l-1 1h-2l-1 1h-1l-1 1h-2l-2 1h-3l-1 1h-4v-7h4l1-1h3l1-1h2l1-1h1l1-1h1l1-1h1v-1h1l1-1 1-1 1-1v-1h1l1-1v-1h1v-2l1-1 3-2zm-3 2l1-2h2l-3 2zm22 5H79v-7h19l3 4-3 3zm0-7h3v4l-3-4zm-4 53V60h7v49l-3 4-4-4zm7 0v4h-3l3-4zm-97-3h94v7H4l-4-4 4-3zm0 7H0v-4l4 4zm3-53v49H0V60l4-4 3 4zm-7 0v-4h4l-4 4z"/><path id="1" d="M4 60h18c5 9 16 16 29 16 12 0 23-7 28-16h19v49H4V60z" fill="#f58634"/></g><path d="M74 108l13-7c3-2 4-4 3-7s-3-4-6-4h-9l7-18v-6c0-3 2-6 4-8 5-5 13-5 18 0 2 2 3 5 3 8l1 6c1 6 4 12 7 18h-10c-2 0-5 1-5 4-1 3 0 5 2 7a58 58 0 0115 8H72l2-1z" fill="#1cc8eb" fill-rule="nonzero"/><g><path d="M53 109h47c1-2 0-5-1-9-2-4-12-5-13-5l-2-3v-3l1-1c2-2 3-4 3-7 2 0 3-2 3-4v-4l-1-3v-6s0-4-2-7c-3-2-6-4-11-4-6 0-5 2-7 3s-3-1-5 2-1 6-1 6v6l-1 3v4l1 4 4 8v3l-1 3-10 2c-4 2-4 10-4 12z" fill="#00afef" fill-rule="nonzero"/><path id="1" class="fil5" d="M99 109l2 1h-4l-3 1H59l-1-1h-5v-2h47l-1 1zm2 1h-1 1zm-3-10h2v2h1v8l-2-1v-5l-1-1v-3zm-13-4l1-2h5v1h3l1 1h2v1h1v1h1v1l1 1h-3v-1h-1l-1-1h-2v-1h-4v-1h-4zm0 0zm-2-4h3v2l-1 2v-1h-1v-1l-1-1v-1zm3-3v3h-3v-3l1-1 2 1zm-3 0v-1h1l-1 1zm1-2l2 1v1h-1l-1-1v-1zm0 0zm4-7l1 2v2h-1v2h-1v2h-1l-2-1 1-1v-1h1v-2h1v-2l1-1zm-1 1l1-1-1 1zm3-4h2v3h-1v1h-1v1h-1l-1-2h1v-1h1v-2zm2-4v4h-2v-4h2zm-3-3h2v-1 1l1 1v2h-2v-1h-1v-2zm0 1v-1 1zm2-7v6h-2v-6h2zm-2 0zm-2-6l1-1h1v1h1v2h1v5l-2-1v-2h-1v-3h-1v-1zm-10-3v-3h3v1h4v1h2v1h1v1h1v1l-1 1h-1v-1h-1v-1h-2l-1-1h-5zm-6 2l-1-2v-1h1l1-1h2v-1h3v3h-4v1h-1v1h-1zm-5 1l-1-1v-1h1v-1h4l1 2h-1v1h-4zm-1-1zm0 7h-3v1-4h1v-3h1v-1h1l1 1v1l-1 1v4zm0 0zm-3 6v-6h3v7l-3-1zm3 0v1-1zm-1 3h-3v-1h1v-2h1v-1l2 2h-1v2zm-3 4v-4h3v4h-3zm4 4h-2v1-1h-1v-2l-1-1v-1h3v2l1 1v1zm0-1v1-1zm5 9h-3v-1h-1v-1l-1-1v-1h-1v-2l-1-1v-1h3v3h1v1l1 1v1h1v1l1 1zm-1-1h1v1l-1-1zm-2 4v-3h3v3h-3zm0 4l-1-3h1v-1h3l-1 1v1h-1v1h-1v1zm0 0zm-10 0l9-3 1 3-10 3-1-3h1zm-1 0h1-1zm-3 12v2l-1-1v-7l1-1v-1l1-1v-1l1-1h1v-1l1 2v1h-1v1l-1 1v2h-1v6l-1-1zm0 2h-1v-1l1 1z"/></g><path fill="#fff212" d="M25 69l5 15h15l-13 9 5 14-12-9-12 9 4-14-12-9h15z"/></g></g></svg>