<svg xmlns="http://www.w3.org/2000/svg" width="125" height="120" xmlns:xlink="http://www.w3.org/1999/xlink" shape-rendering="geometricPrecision" text-rendering="geometricPrecision" image-rendering="optimizeQuality" fill-rule="evenodd" clip-rule="evenodd"><defs><linearGradient id="id0" gradientUnits="userSpaceOnUse" x1="61.4" y1="43.4" x2="111" y2="30.8"><stop offset="0" stop-color="#04870f"/><stop offset="1" stop-color="#03690c"/></linearGradient><linearGradient id="id1" gradientUnits="userSpaceOnUse" xlink:href="#id0" x1="20.4" y1="89.3" x2="70" y2="76.8"/><style>.fil1,.fil4{fill:#fefefe;fill-rule:nonzero}.fil4{fill:#fff212}</style></defs><g id="Layer_x0020_1"><path fill="none" d="M2 0h120v120H2z"/><g id="_865236744"><path class="fil1" d="M27 57l-1-2v-1l1-1v-2h1v-1l1-1v-2h1v-2h1v-2h1v-2h1v-1h1v-2h1v-1l1-1 1-1v-1l3 3-1 1v1l-1 1-1 1v1l-1 1v1l-1 1v1h-1v2h-1v2l-1 1v1l-1 1v1l-1 1v1l-2-2-1 3zm0 0h-2l1-2 1 2zm11-1v4-1h-5l-1-1h-4l-1-1 1-3h5v1h5v1h1l1 3-2-3zm1 0l6 1-5 2-1-3zM16 72l-3-1 1-3 24-12 2 3-24 13zm0 0l-2 1-1-2 3 1zM3 49l3-3v1l1 1v2h1v2l1 1v1l1 1v1l1 1v2h1v2h1v2l1 1v1l1 1v1h1v1l1 1-4 2v-1l-1-1-1-1v-2l-1-1-1-1v-2H8v-2H7v-2l-1-1v-1l-1-1v-1l-1-1v-2l-1-1v-1l-1-1 3-3-2 4zm-1-1l-2-5 5 2-3 3zm2-1l1-2-1 2zm-2 1l-2-5 5 2-3 3zm13 4l-3 1-1-1H9v-1H7v-1H5v-1H3l2-4h1v1h2v1h2v1h2v1h2l-3 1 4 2zm0 0l-1 2-2-1 3-1zm33-31l-2 1h-2l-2 1h-1l-2 1h-1l-2 1-1 1h-1l-2 1-1 1-1 1h-1l-1 1-1 1v1l-1 1-1 1-1 1v1l-1 1-1 1-1 1v2l-1 1-1 1v2l-1 1-1 1-1 2v1l-1 2-4-2 1-1 1-2 1-1v-2l1-1 1-2v-1l1-1 1-2 1-1v-1l1-1 1-1 1-2 1-1 1-1 1-1 1-1 1-1 1-1h1l1-1 2-1 1-1 1-1h2l2-1 1-1h2l2-1h2l2-1 1 4zm24-4l-1 4h-1l-1-1h-3l-1-1h-7l-1 1h-6l-1 1h-2l-1-4h3l1-1h5l1-1h8l1 1h4l1 1h1l1 1-1 3v-4zm-3 1h2v-1h1v4h-1 1-1v1h-2v-4zm0 0zM37 34l1-1h1l1-1 1-1v-1h1l1-1 1-1 1-1h1l1-1h1l1-1 1-1h1l1-1h1l2-1h1l1-1h1l1-1h2l1-1h2l1-1h4v4h-3l-1 1h-3l-1 1h-1l-1 1h-2l-1 1h-1l-1 1h-1l-1 1h-1l-1 1-1 1h-1l-1 1-1 1-1 1h-1l-1 1-1 1-1 1-1 1-3-3z"/><path id="1" d="M39 36c-6 6-8 13-11 19l11 3-24 12L4 47l9 4c9-17 12-27 35-32 7-2 17-3 24 0l-3 1c-9 1-23 7-30 16z" fill="#fc4d44"/><g id="_865238232"><path d="M86 11c14 0 26 12 26 26s-12 26-26 26-25-12-25-26 11-26 25-26z" fill="url(#id0)"/><path id="1" class="fil1" d="M113 37h-2v-4l-1-1v-2l-1-1v-3l-1-1-1-1v-1l-1-1-1-1v-1h-1l-1-1-1-1-1-1h-1l-1-1-1-1h-1l-1-1h-2l-2-1h-3l-1-1h-2v-2h2l1 1h4l1 1h1l2 1h1l1 1h1l1 1 1 1 1 1h1l1 1 1 1 1 1 1 1v1l1 1 1 1v2l1 1v1l1 1v3l1 1v4zM86 64v-2h3l1-1h4l1-1h1l1-1h1l1-1h1l1-1 1-1 1-1h1l1-1v-1l1-1 1-1v-1l1-1 1-1v-2l1-2v-2l1-1v-4h2v4l-1 1v3l-1 1v1l-1 2v1l-1 1-1 1v1l-1 1-1 1-1 1-1 1-1 1h-1l-1 1-1 1-1 1h-1l-1 1h-2l-1 1h-4l-1 1h-3zM60 37h2v6l1 1v3l1 1 1 1v1l1 1v1l1 1 1 1 1 1h1l1 1v1l1 1h1l1 1h2l1 1h1l1 1h3l2 1h2v2h-2l-2-1h-4l-1-1h-1l-1-1h-1l-2-1-1-1-1-1h-1l-1-1-1-1v-1l-1-1-1-1-1-1-1-1v-1l-1-1v-2l-1-1v-1l-1-1v-7zm26-27v2h-1l-1 1h-4l-1 1h-2l-1 1h-2l-1 1-1 1h-1v1l-1 1-1 1h-1l-1 1-1 1v1l-1 1v1l-1 1-1 1v3l-1 1v6h-2v-7l1-1v-1l1-1v-1l1-2v-1l1-1 1-1 1-1 1-1v-1l1-1h1l1-1 1-1 1-1h2l1-1h1l1-1h1l2-1h4l1-1h1z"/><path class="fil4" d="M79 37h-4v8h-4V23h8l6 2 2 5-1 3-3 3 5 9h-5l-4-8zm-4-4h4l3-1v-2-2l-3-1h-4v6z"/><path id="1" class="fil4" d="M105 37l-2 6-4 2-4-1v7h-5V29h4v1l4-2c2 0 4 1 5 3l2 6zm-5 0v-4l-3-1-2 1v7l2 2c2 0 3-2 3-5z"/></g><path class="fil1" d="M98 66l1 3-1 1v2l-1 1v1h-1v2l-1 1v1l-1 1v1l-1 1v1l-1 1-1 1v1l-1 1v1h-1v1l-1 1-4-2 1-1h1v-2h1v-1l1-1v-1h1v-2h1v-1l1-1v-1l1-1v-2h1v-2h1v-1l1-1v-1l1-1 1 3 1-4zm0 0h2l-1 3-1-3zm-11 1v-3h4v1h4l1 1h2l-1 4h-1l-1-1h-4l-1-1h-4l-1-4 2 3zm-1 1l-6-1 5-3 1 4zm24-16l2 1-1 2-24 12-2-3 25-12zm0 0l1-1 1 2-2-1zm12 23l-3 2v-1l-1-1v-2h-1v-2h-1v-2h-1v-3h-1v-2h-1v-2l-1-1-1-1v-2h-1v-1l-1-1v-2l3-1h1v2l1 1v1h1v2l1 1 1 1v2h1v2h1v3h1v2h1v2h1v3h1v1l-3 3 2-4zm1 1l2 5-5-2 3-3zm-2 1l-1 2 1-2zm2-1l2 5-5-2 3-3zm-13-5h5v1h2v1h2v1h2v1h1l-2 4v-1h-2v-1h-2v-1h-2v-1h-2v-1h-1l3-1-4-2zm0 0l1-1 2 1h-3zm-33 31h2l2-1h1l2-1h2l1-1 2-1h1l1-1 1-1h2l1-1 1-1v-1l1-1 1-1 1-1 1-1 1-1v-1l1-1 1-1 1-1v-1l1-1 1-2v-1l1-2 1-1 1-1v-2l1-2 4 2-1 2-1 1-1 2v1l-1 2-1 1-1 1v2l-1 1-1 1-1 1v2l-1 1-1 1-1 1-1 1-1 1-1 1-1 1-1 1-1 1-1 1h-2l-1 1-2 1-1 1h-2l-2 1-1 1h-2l-2 1h-2l-1-4zm-25 4l2-4h1v1h4v1h10v-1h6v-1h2l1 4h-3v1h-6l-1 1h-9l-1-1h-3l-1-1h-2v-1l1-3-1 4zm4-1h-2v1h-2l1-4 1-1h2-1l1 4zm0 0zm32-16l-1 1-1 1-1 1-1 1h-1v1l-1 1h-1l-1 1-1 1h-1l-1 1h-1l-1 1-2 1h-1l-1 1h-1l-1 1h-2l-1 1h-2l-1 1h-2l-1 1h-4l-1-4h4l1-1h3l1-1h2l1-1h1l1-1h1l1-1h1l1-1h1l1-1h1l1-1 1-1 1-1h1l1-1 1-1 1-1 1-1 4 2z"/><path id="1" d="M86 88c6-7 8-13 11-20l-11-2 24-12c5 8 8 15 11 23l-9-5c-9 17-12 27-35 32-7 2-17 3-24 0l3-1c9-1 23-7 30-15z" fill="#f58634"/><g><path d="M45 57c14 0 26 12 26 26s-12 26-26 26-25-12-25-26 11-26 25-26z" fill="url(#id1)"/><path id="1" class="fil1" d="M72 83h-2v-4l-1-1v-2l-1-1v-2l-1-1v-1l-1-1v-1l-1-1-1-1-1-1-1-1-1-1-1-1h-1l-1-1-1-1h-1l-1-1h-1l-1-1h-4l-1-1h-3v-2h2l1 1h4l1 1h3l1 1 1 1h1l1 1 1 1h1l1 1 1 1 1 1 1 1 1 1v1l1 1 1 1v1l1 2v1l1 1v3l1 1v4zm-27 27v-2h3l1-1h4l1-1h1l1-1h1l1-1h1l1-1 1-1 1-1h1v-1l1-1 1-1 1-1v-1l1-1v-1l1-1v-1l1-2v-2l1-1v-4h2v4l-1 1v3l-1 1v1l-1 2v1l-1 1-1 1v1l-1 1-1 1-1 1-1 1-1 1h-1l-1 1-1 1h-1l-1 1-1 1h-2l-1 1h-4l-1 1h-3zM19 83h2v6l1 1v3l1 1 1 1v1l1 1v1l1 1 1 1 1 1h1l1 1v1l1 1h1l1 1h2l1 1h1l1 1h3l2 1h2v2h-3l-1-1h-4l-1-1h-1l-1-1-2-1h-1l-1-1-1-1h-1l-1-1-1-1-1-1v-1l-1-1-1-1-1-1v-1l-1-1v-2l-1-1v-1l-1-1v-7zm26-27v2h-2l-2 1h-3l-1 1h-1l-1 1h-2l-1 1-1 1h-1v1l-1 1-1 1h-1l-1 1-1 1v1l-1 1v1l-1 1-1 1v3l-1 1v6h-2v-7l1-1v-1l1-1v-2l1-1v-1l1-1 1-1 1-1v-1l1-1 1-1 1-1h1l1-1 1-1h2l1-1 1-1h2l2-1h3l2-1h1z"/><path d="M50 91l-1-3-4-2-4-2-3-2-2-3v-3c0-3 0-5 2-7l6-2v-4l1-1h2l1 1v4l6 3 2 6-2 2h-2l-2-2-1-3-3-1-3 1-1 3 1 2 3 2 5 2 3 2 1 3 1 4-2 6-7 2v4l-1 1h-1l-1-1v-4c-3 0-6-1-7-3-2-2-3-3-3-6l2-2h3l2 2 1 3 4 1 3-1 1-2z" fill="#fff212" fill-rule="nonzero"/></g></g></g></svg>