<svg xmlns="http://www.w3.org/2000/svg" width="121" height="120" viewBox="0 0 120 120" shape-rendering="geometricPrecision" text-rendering="geometricPrecision" image-rendering="optimizeQuality" fill-rule="evenodd" clip-rule="evenodd"><defs><style>.fil1{fill:#fefefe}.fil3{fill:#2887d2}.fil2{fill:#966100;fill-rule:nonzero}</style></defs><g id="Layer_x0020_1"><path fill="none" d="M1 0h120v120H1z"/><g id="_801217480"><path class="fil1" d="M27 15h57v80H27z"/><path id="1" class="fil2" d="M84 17H27v-4h57l2 2-2 2zm0-4h2v2l-2-2zm-2 82V15h4v80l-2 2-2-2zm4 0v2h-2l2-2zm-59-2h57v4H27l-2-2 2-2zm0 4h-2v-2l2 2zm2-82v80h-4V15l2-2 2 2zm-4 0v-2h2l-2 2z"/><path class="fil1" d="M118 6l-34 9v80l34 9z"/><path id="1" class="fil2" d="M83 13l35-9 1 4-35 9-2-2 1-2zm-1 2v-2h1l-1 2zm0 80V15h4v80l-3 2-1-2zm1 2h-1v-2l1 2zm35 9l-35-9 1-4 35 9 1 2-2 2zm2-2v2h-2l2-2zm0-98v98h-4V6l2-2 2 2zm-2-2h2v2l-2-2z"/><path class="fil3" d="M49 30c1 3 4 5 8 4 3-1 5-4 4-8 0-3-4-6-8-4-5 1-5 7-4 8zM47 47l-1 37v4c1 1 6 2 6-2l1-4v-9l1-5c0-1 0-3 2-3l1 4 1 13c0 3 0 6 3 7 5 0 4-4 4-6l-1-19-1-14v-2l1-1 2 15c1 3 4 3 5 1s-1-14-1-16c-1-8-7-11-15-11-5 0-10 1-12 5-2 2-2 4-2 7l-1 7-1 8c1 2 5 2 5-2l2-13 1-1z"/><g fill-rule="nonzero"><path d="M66 81H34V70L3 92l31 21v-11h32V81zm0 11" fill="#d40000"/><path id="1" d="M34 80h32v3H34l-2-2 2-1zm0 3h-2v-2l2 2zm1-13v11h-3V70l1-1 2 1zm-2-1l2-2v3l-2-1zM2 91l31-22 1 2L3 93H2v-2zm0 2l-2-1 2-1v2zm31 22L2 93l1-2 31 21 1 1-2 2zm2-2v3l-2-1 2-2zm0-11v11h-3v-11l2-1 1 1zm-3 0v-1h2l-2 1zm34 2H34v-3h32l1 1-1 2zm1-2v2h-1l1-2zm0-21v21h-2V81l1-1 1 1zm-1-1h1v1l-1-1z" fill="#fefefe"/></g><path fill="#966100" d="M113 46l-6 1v16l6 1z"/><g><path d="M108 51c2 0 3 2 3 4s-1 4-3 4-4-2-4-4 2-4 4-4z" fill="#fefefe"/><path id="1" d="M108 51c2 0 3 2 3 4s-1 4-3 4-4-2-4-4 2-4 4-4z" fill="none" fill-rule="nonzero" stroke="#966100" stroke-width=".9"/></g></g></g></svg>