<svg xmlns="http://www.w3.org/2000/svg" width="122" height="120" viewBox="0 0 124 122" shape-rendering="geometricPrecision" text-rendering="geometricPrecision" image-rendering="optimizeQuality" fill-rule="evenodd" clip-rule="evenodd"><defs><style>.str0{stroke:#2887d2;stroke-width:8.47172}.fil0{fill:none}.fil1{fill:#2887d2}</style></defs><g id="Layer_x0020_1"><path class="fil0" d="M0 0h122v122H0z"/><g id="_810129608"><path class="fil0 str0" d="M53 48v37M17 64h73M17 63v22M90 63v22"/><path class="fil1" d="M39 20h29v29H39z"/><circle class="fil1" cx="54" cy="102" r="15"/><circle class="fil1" cx="90" cy="102" r="15"/><circle class="fil1" cx="17" cy="102" r="15"/><g fill-rule="nonzero"><path d="M119 8l-6-5h1V2h2V1h3l1 1h1l1 1-5 5v1h1l1-1zm-6-5h1-1zM88 32l25-29 6 5-25 29-5 1-1-6zm6 5l-2 3-3-2 5-1zM78 21l15 10-4 7-15-11 4-7v1zm0-1v1-1zm-2 7l-6-6h1l1-1h2v-1h2v1h2l-4 7h2zm0-2l-6 4-1-1v-5l1-1v-1l6 6v-2zm0 0v-1 1zm9 26L70 29l6-4 15 21-6 5zm0 0zm5-5v7h-2l-1-1h-1v-1h-1l6-5h-1zm0 7zm0 0v-7 7zm-1-7l6 5h-1v1h-1v1h-3v-7h-1zm6 5zm28-40L95 51l-6-5 27-40 7 5zm-7-5zm1 2l5-5 1 1v1l1 1v3h-1v2l-7-5v2h1zm5-5z" fill="#fefefe"/><path id="1" d="M119 6l-3-1-25 29-15-10h-3v3l15 21 2 1 2-1 28-39-1-3z" fill="#00a859"/></g></g></g></svg>