<svg xmlns="http://www.w3.org/2000/svg" width="120" height="120" shape-rendering="geometricPrecision" text-rendering="geometricPrecision" image-rendering="optimizeQuality" fill-rule="evenodd" clip-rule="evenodd"><defs><linearGradient id="b" gradientUnits="userSpaceOnUse" x1="72.9" y1="101.3" x2="115.7" y2="90.4"><stop offset="0" stop-color="#04870f"/><stop offset="1" stop-color="#03690c"/></linearGradient><linearGradient id="a" gradientUnits="userSpaceOnUse" x1="34.7" y1="87" x2="76.6" y2="30.5"><stop offset="0" stop-color="#1cc8eb"/><stop offset=".6" stop-color="#0e96e0"/><stop offset="1" stop-color="#0063d4"/></linearGradient></defs><path fill="none" d="M0 0h120v120H0z"/><path d="M3 2v96s88-2 88 0V21L81 3l-1-1H3z" fill="#bdbfc1"/><path d="M11 8v99s89-2 89 1V28L91 9l-1-1H11z" fill="#fefefe"/><path d="M9 107V8h5v99l-3 3-2-3zm2 3H9v-3l2 3zm91-2h-4l1 2h-1l-2-1H25l-3 1H11v-5h11l3-1h71l2 1h3l1 3zm-4-79l4-3v81l-4 1h4l-4-1V28v1zM93 8l9 18-4 3-9-19 4-2zm0 0zm-1-1l1 1-3 3-1-1 1-4 2 1zm-2-1h1l1 1-2-1zM14 8H9l2-2h79v5H12l2-3z" fill="#0098da" fill-rule="nonzero"/><path d="M26 86c16 14 41 16 58 1h1l1-1c-4-5-12-7-18-10-1-1-2-2-2-4v-5c1 0 1 0 1-1 2-2 4-5 5-8 2-1 3-3 3-6v-5c0-2-1-3-1-4v-8c0-1 0-6-4-10-3-3-7-5-14-5-8 0-8 0-10 2-2 1-3 1-5 4-4 4-3 8-3 9v8c-1 1-1 2-1 4v5c0 2 1 4 2 5 1 5 4 9 5 10v5c0 2-1 3-2 3l-13 7c-1 1-2 2-3 4z" fill="url(#a)" fill-rule="nonzero"/><g><path d="M94 74c13 0 23 10 23 22s-10 22-23 22c-12 0-22-10-22-22s10-22 22-22z" fill="url(#b)"/><path d="M117 96h-1v-2l-1-1v-4h-1v-2l-1-1v-1l-1-1-1-1v-1l-1-1h-1v-1l-1-1h-1l-1-1h-1l-1-1-1-1h-1l-1-1h-7v-2h5l1 1h2l1 1h1l1 1h1l1 1h1l1 1 1 1 1 1 1 1 1 1v1l1 1 1 1v1l1 1v2l1 1v6zm-23 23v-2h5l1-1h2l1-1h1l1-1h1l1-1 1-1h1v-1l1-1 1-1 1-1 1-1v-1l1-1v-2l1-1v-3l1-1v-2h1v6l-1 1v2l-1 1v1l-1 1-1 1v1h-1l-1 1v1l-1 1-1 1h-1l-1 1-1 1h-1l-1 1h-2l-1 1h-2l-1 1h-4zM71 96h2v4l1 1v2l1 1v1l1 1v1l1 1v1h1l1 1v1l1 1h1l1 1v1h1l1 1h2l1 1h2l1 1h4v2h-3l-1-1h-3l-1-1h-2l-1-1h-1l-1-1v-1h-1l-1-1-1-1-1-1v-1h-1l-1-1v-1l-1-1v-1l-1-1v-1l-1-1v-4l-1-1v-2zm23-23v2h-6l-1 1h-1l-1 1h-1l-1 1h-1v1h-1l-1 1-1 1-1 1-1 1v1l-1 1v1l-1 1v1l-1 1v2l-1 1v4h-2v-3l1-1v-3l1-1v-1l1-1v-1l1-1v-1l1-1 1-1v-1h1l1-1 1-1 1-1 1-1h1l1-1h1l1-1h3l1-1h4z" fill="#fefefe" fill-rule="nonzero"/><path d="M98 102c0-1 0-1-1-2 0-1-1-1-3-2-1 0-2-1-3-1-1-1-2-1-3-2 0-1-1-2-1-2-1-1-1-2-1-4s1-4 2-5 3-2 5-2v-3l1-1h2l1 1v3c2 0 4 1 5 3 1 1 2 2 2 5 0 1-1 2-2 2h-2c-1 0-2-1-2-2 0-2 0-2-1-3 0-1-1-1-2-1s-2 0-3 1c0 1-1 1-1 2s1 2 1 3c1 0 2 1 3 1 2 1 3 2 4 2 1 1 2 1 3 2 0 1 1 1 1 2 1 1 1 2 1 3 0 3-1 4-2 6-2 1-4 2-6 2v3s0 1-1 1h-1l-1-1v-3c-2 0-4-1-6-3-1-1-2-3-2-5 0-1 1-2 2-2h2c1 0 1 1 1 2s1 2 2 2c0 1 1 2 3 2 1 0 2-1 2-1 1-1 1-2 1-3z" fill="#fff212" fill-rule="nonzero"/></g></svg>