<svg xmlns="http://www.w3.org/2000/svg" width="120" height="120" shape-rendering="geometricPrecision" text-rendering="geometricPrecision" image-rendering="optimizeQuality" fill-rule="evenodd" clip-rule="evenodd"><defs><linearGradient id="id0" gradientUnits="userSpaceOnUse" x1="36" y1="52.4" x2="84" y2="112.1"><stop offset="0" stop-color="#1cc8eb"/><stop offset=".3" stop-color="#0e96e0"/><stop offset="1" stop-color="#0063d4"/></linearGradient><linearGradient id="id1" gradientUnits="userSpaceOnUse" x1="40.8" y1="58.9" x2="58.4" y2="35.3"><stop offset="0" stop-color="#1cc8eb"/><stop offset=".6" stop-color="#0e96e0"/><stop offset="1" stop-color="#0063d4"/></linearGradient><style>.fil2{fill:#fefefe}.fil7{fill:#00afef}</style></defs><g id="Layer_x0020_1"><path fill="none" d="M0 0h120v120H0z"/><g id="_911707984"><rect x="2" y="58" width="116" height="49.1" rx="14" ry="13" fill="url(#id0)"/><path class="fil2" d="M89 85v15l-1 2H30c-2 0-2-3-2-4V85h61z"/><path id="1" d="M88 90v-5h3l-1 5h-2zm0 0zm0 10V90h2v10h-2zm0 3v-3h2v3h-2zm-58 0v-1h58v1H30zm-3-5h2v3h1v2h-2v-1h-1v-4zm0-13h2v13h-3v-6h1v-7zm2 0zm0 0h-2 2zm-2 0h1-1zm61 0h2l-1 1H28v-1h61-1zm2 0v1h-1l1-1zm1 0h-3 2-2 3zm-3 0l3-2v2h-3z" fill="#2887d2" fill-rule="nonzero"/><circle cx="105" cy="91" r="6" fill="#fefefe"/><path class="fil2" d="M25 72h67v8H25z"/><path class="fil2" d="M88 74V30l-5-16-50-1v63h55z"/><path d="M87 30h3v47h-3 3-3V30zm3-16v16h-3V14l2-1 1 1zm-1-1h1v1l-1-1zm0-1v1l-2 3v-1l1-4 1 1zm-1-1l1 1-1-1zm-54 2h-3l2-2h55v4H33v1l1-3zm-3 64V13h3v64h-3zm3 0h-3v-1h3v1h-3v-1h3v1z" fill="#0098da" fill-rule="nonzero"/><path d="M37 58v5h25v-5l-7-4-1-1v-2-1l2-3 2-3v-2l-1-2v-3l-1-4-6-2c-3 0-4 0-7 2l-1 4v7l1 2 2 5v2l-1 1-5 3-2 1z" fill="url(#id1)" fill-rule="nonzero"/><path class="fil7" d="M62 24h19v3H62zM62 36h21v3H62zM67 47h16v3H67z"/><path fill="#087eda" d="M33 74h56v3H33z"/><path class="fil7" d="M67 59h16v3H67z"/></g></g></svg>