<?xml version="1.0" encoding="UTF-8"?>
<!DOCTYPE svg PUBLIC "-//W3C//DTD SVG 1.1//EN" "http://www.w3.org/Graphics/SVG/1.1/DTD/svg11.dtd">
<!-- Creator: CorelDRAW X7 -->
<svg xmlns="http://www.w3.org/2000/svg" xml:space="preserve" width="42px" height="48px" version="1.1" style="shape-rendering:geometricPrecision; text-rendering:geometricPrecision; image-rendering:optimizeQuality; fill-rule:evenodd; clip-rule:evenodd"
viewBox="0 0 42 48"
 xmlns:xlink="http://www.w3.org/1999/xlink">
 <defs>
  <style type="text/css">
   <![CDATA[
    .fil0 {fill:#FEFEFE}
    .fil2 {fill:#2887D2}
    .fil3 {fill:#FCBC44}
    .fil4 {fill:#00A859;fill-rule:nonzero}
    .fil1 {fill:#2887D2;fill-rule:nonzero}
    .fil5 {fill:url(#id0);fill-rule:nonzero}
   ]]>
  </style>
  <linearGradient id="id0" gradientUnits="userSpaceOnUse" x1="27.69" y1="42.8722" x2="35.6035" y2="32.2243">
   <stop offset="0" style="stop-opacity:1; stop-color:#1CC8EB"/>
   <stop offset="0.631373" style="stop-opacity:1; stop-color:#0E96E0"/>
   <stop offset="1" style="stop-opacity:1; stop-color:#0063D4"/>
  </linearGradient>
 </defs>
 <g id="Layer_x0020_1">
  <metadata id="CorelCorpID_0Corel-Layer"/>
  <g id="_800886512">
   <g>
    <g>
     <g>
      <g>
       <g>
        <path class="fil0" d="M5 5l-1 38c0,0 28,-1 28,0 0,1 0,-31 0,-31l-5 -7 0 0c0,0 -22,0 -22,0z"/>
        <path id="1" class="fil1" d="M4 43l0 -38 1 0 0 38 -1 0 0 0zm0 0l0 0 0 0 0 0zm28 0l-1 0 0 0 0 0 0 0 0 0 -1 0 0 0 -1 0 -1 0 -1 0 -1 0 -1 0 -1 0 -1 0 -1 0 -1 0 -2 0 -1 0 -1 0 -2 0 -1 0 -1 0 -1 0 -1 0 -1 0 -1 0 -1 0 -1 0 -1 0 0 0 -1 0 0 0 0 0 -1 0 0 -1 1 0 0 0 0 0 1 0 0 0 1 0 1 0 1 0 1 0 1 0 1 0 1 0 1 0 1 0 2 0 1 0 1 0 2 0 1 0 1 0 1 0 1 0 1 0 1 0 1 0 1 0 1 0 0 0 1 0 0 0 1 0 0 1 0 0zm-1 -30l1 -1 0 0 0 0 0 1 0 0 0 1 0 0 0 1 0 1 0 1 0 1 0 2 0 1 0 1 0 2 0 1 0 1 0 2 0 1 0 2 0 1 0 2 0 1 0 1 0 1 0 1 0 1 0 1 0 1 0 1 0 0 0 1 0 0 -1 0 1 0 -1 0 0 0 0 -1 0 0 0 -1 0 -1 0 -1 0 -1 0 -1 0 -1 0 -1 0 -1 0 -2 0 -1 0 -2 0 -1 0 -2 0 -1 0 -1 0 -2 0 -1 0 -1 0 -2 0 -1 0 -1 0 -1 0 -1 0 0 0 -1 0 0 0 -1 0 0 0 1zm-3 -8l4 7 -1 1 -4 -7 1 -1 0 0zm0 0l0 0 0 0 0 0zm-1 -1l1 1 -1 1 0 -1 0 -1 0 0zm0 0l0 0 0 0 0 0zm-22 1l-1 0 0 0 1 -1 0 0 0 0 1 0 0 0 1 0 0 0 1 0 1 0 1 0 1 0 1 0 1 0 1 0 1 0 1 0 1 0 1 0 1 0 1 0 1 0 1 0 1 0 0 0 1 0 1 0 0 0 1 0 0 0 1 0 0 0 0 0 0 2 0 0 0 0 -1 0 0 0 -1 0 0 0 -1 0 -1 0 0 0 -1 0 -1 0 -1 0 -1 0 -1 0 -1 0 -1 0 -1 0 -1 0 -1 0 -1 0 -1 0 -1 0 -1 0 -1 0 -1 0 0 0 -1 0 0 0 -1 0 0 0 0 0 0 -1 0 0zm-1 0l0 0 0 0 0 0z"/>
       </g>
       <g>
        <path class="fil2" d="M27 5l0 5c0,0 0,2 0,2 1,0 5,0 5,0l-5 -7 0 0z"/>
        <path id="1" class="fil1" d="M27 10l0 -5 0 0 0 5 0 0 0 0zm0 0l0 0 0 0 0 0zm0 2l0 0 0 0 0 0 0 0 0 0 0 0 0 0 0 0 0 0 0 0 0 0 0 0 0 -1 0 0 0 0 0 0 0 0 0 0 0 0 0 0 0 0 0 0 0 0 0 0 0 0 0 -1 0 0 0 0 0 0 0 0 0 0 0 0 0 0 0 0 0 0 0 0 0 0 0 0 0 0 0 0 0 0 0 0 0 0 0 1 0 0 0 0 0 0 0 0 0 0 0 0 0 0 0 0 0 0 0 0 0 0 0 0 0 0 0 1 0 0 0 0 0 0 0 0 0 0 0 0 0 0 0 0 0 0 0 0zm5 0l0 0 0 0 0 0 0 0 0 0 0 0 0 0 -1 0 0 0 0 0 0 0 0 0 0 0 0 0 -1 0 0 0 0 0 0 0 0 0 0 0 -1 0 0 0 0 0 0 0 0 0 -1 0 0 0 0 0 0 0 0 0 0 0 0 0 -1 0 0 0 0 0 1 0 0 0 0 0 0 0 0 0 0 0 0 0 0 0 1 0 0 0 0 0 0 0 0 0 1 0 0 0 0 0 0 0 0 0 0 0 1 0 0 0 0 0 0 0 0 0 0 0 0 0 1 0 0 0 0 0 0 0 0 0 0 0 0 0zm-5 -7l5 7 0 0 -5 -7 0 0 0 0zm0 0l0 -1 0 1 0 0zm0 0l0 0 0 0 0 0 0 0 0 0zm0 0l0 0 0 0 0 0z"/>
       </g>
      </g>
      <rect class="fil2" transform="matrix(-0.242767 -0.000871147 0.00110154 -0.306966 27.8223 23.8842)" width="81.0817" height="7.27698"/>
      <rect class="fil2" transform="matrix(-0.242767 -0.000871147 0.00110154 -0.306966 27.8372 19.7497)" width="81.0817" height="7.27698"/>
      <rect class="fil2" transform="matrix(-0.165919 -0.000595387 0.00110154 -0.306966 21.6219 15.3697)" width="81.0817" height="7.27698"/>
      <rect class="fil2" transform="matrix(-0.242767 -0.000871147 0.00110154 -0.306966 27.8065 28.3)" width="81.0817" height="7.27698"/>
      <rect class="fil2" transform="matrix(-0.242767 -0.000871147 0.00110154 -0.306966 27.7907 32.7159)" width="81.0817" height="7.27698"/>
      <rect class="fil2" transform="matrix(-0.242767 -0.000871147 0.00110154 -0.306966 27.775 37.0786)" width="81.0817" height="7.27698"/>
     </g>
     <g>
      <g>
       <path class="fil0" d="M8 7l0 37c0,0 27,0 27,1 0,0 0,-31 0,-31l-5 -7 0 0c0,0 -22,0 -22,0z"/>
       <path id="1" class="fil1" d="M7 44l0 -37 1 0 0 37 0 1 -1 -1zm1 1l-1 0 0 -1 1 1zm27 0l-1 0 0 0 1 0 -1 0 0 0 0 0 -1 0 -1 0 -1 0 0 0 -1 0 -2 0 -1 0 -1 0 -1 0 -1 0 -2 0 -1 0 -1 0 -1 0 -2 0 -1 0 -1 0 -1 0 -1 0 -1 0 -1 0 -1 0 -1 0 0 0 -1 0 0 0 0 0 0 0 0 -1 0 0 0 0 0 0 1 0 0 0 1 0 1 0 1 0 1 0 1 0 1 0 1 0 1 0 2 0 1 0 1 0 1 0 2 0 1 0 1 0 1 0 1 0 2 0 1 0 0 0 1 0 1 0 1 0 0 0 1 0 0 0 0 1 0 0zm-1 -30l1 -1 0 0 0 0 0 1 0 0 0 0 0 1 0 1 0 1 0 1 0 1 0 1 0 2 0 1 0 1 0 2 0 1 0 2 0 1 0 2 0 1 0 1 0 2 0 1 0 1 0 1 0 1 0 1 0 1 0 1 0 0 0 0 0 1 -1 0 1 0 -1 0 0 -1 0 0 0 0 0 -1 0 -1 0 -1 0 -1 0 -1 0 -1 0 -1 0 -2 0 -1 0 -1 0 -2 0 -1 0 -2 0 -1 0 -2 0 -1 0 -1 0 -2 0 -1 0 -1 0 -1 0 -1 0 -1 0 -1 0 0 0 -1 0 0 0 0 0 1zm-3 -8l4 7 -1 1 -4 -7 1 -1 0 0zm0 0l0 0 0 0 0 0zm0 -1l0 1 -1 1 0 -1 0 -1 1 0zm-1 0l0 0 1 0 -1 0zm-22 1l-1 0 0 0 1 -1 0 0 0 0 1 0 0 0 1 0 1 0 0 0 1 0 1 0 1 0 1 0 1 0 1 0 1 0 1 0 1 0 1 0 1 0 1 0 1 0 1 0 1 0 1 0 0 0 1 0 1 0 0 0 1 0 0 0 0 0 0 0 0 1 0 0 0 0 0 0 -1 0 0 0 -1 0 -1 0 0 0 -1 0 -1 0 -1 0 -1 0 -1 0 -1 0 -1 0 -1 0 -1 0 -1 0 -1 0 -1 0 -1 0 -1 0 -1 0 -1 0 0 0 -1 0 -1 0 0 0 -1 0 0 0 0 0 0 0 0 0zm-1 0l0 0 0 0 0 0z"/>
      </g>
      <g>
       <path class="fil2" d="M30 7l0 5c0,0 0,2 1,2 1,0 4,0 4,0l-5 -7 0 0z"/>
       <path id="1" class="fil1" d="M30 12l0 -5 0 0 0 5 0 0 0 0zm0 0l0 0 0 0 0 0zm1 2l0 0 0 0 -1 0 0 0 0 0 0 0 0 0 0 0 0 0 0 0 0 0 0 -1 0 0 0 0 0 0 0 0 0 0 0 0 0 0 0 0 0 0 0 0 0 0 0 -1 0 0 0 0 0 0 0 0 0 0 0 0 0 0 0 0 0 0 0 0 0 0 0 0 0 0 0 0 0 0 0 0 0 0 0 0 0 0 0 0 0 0 0 1 0 0 0 0 0 0 0 0 0 0 0 0 0 0 0 0 0 0 0 0 0 0 0 0 0 0 0 1 0 0 0 0 0 0 0 0 1 0 0 0 0 0 0 0zm4 0l0 0 0 0 0 0 0 0 0 0 0 0 0 0 0 0 0 0 -1 0 0 0 0 0 0 0 0 0 0 0 0 0 -1 0 0 0 0 0 0 0 0 0 -1 0 0 0 0 0 0 0 0 0 0 0 -1 0 0 0 0 0 0 0 0 0 0 0 0 0 0 0 0 0 0 0 0 0 0 0 0 0 0 0 1 0 0 0 0 0 0 0 0 0 0 0 1 0 0 0 0 0 0 0 0 0 1 0 0 0 0 0 0 0 0 0 0 0 0 0 1 0 0 0 0 0 0 0 0 0 0 0 0 0 0 0 0 0zm-5 -7l5 7 0 0 -5 -7 0 0 0 0zm0 0l0 -1 0 1 0 0zm0 0l0 0 0 0 0 0 0 0 0 0zm0 0l0 0 0 0 0 0z"/>
      </g>
     </g>
    </g>
    <g>
     <circle class="fil3" cx="7" cy="7" r="7"/>
     <path class="fil4" d="M9 10c0,-1 0,-1 -1,-1 0,0 0,-1 -1,-1 0,0 0,0 -1,0 0,0 0,-1 -1,-1 0,0 0,0 0,-1 0,0 0,0 0,-1 0,0 0,-1 0,-1 1,-1 1,-1 2,-1l0 -1 1 0 0 1c1,0 1,0 2,1 0,0 0,1 0,2l-1 0c0,-1 0,-1 -1,-1 0,-1 0,-1 -1,-1 0,0 0,0 0,1 0,0 -1,0 -1,0 0,1 1,1 1,1 0,0 0,0 1,1 0,0 1,0 1,0 0,0 0,1 1,1 0,0 0,0 0,1 0,0 0,0 0,1 0,0 0,1 0,1 -1,1 -1,1 -2,1l0 1 -1 0 0 -1c-1,0 -2,0 -2,-1 0,0 -1,-1 -1,-2l2 0c0,1 0,1 0,1 1,0 1,1 1,1 1,0 1,-1 1,-1 1,0 1,0 1,0z"/>
    </g>
   </g>
   <g>
    <rect class="fil2" x="12" y="17" width="18.801" height="2.4996"/>
    <rect class="fil2" x="12" y="21" width="8.78809" height="2.4996"/>
    <rect class="fil2" x="22" y="21" width="8.37735" height="2.4996"/>
    <rect class="fil2" x="12" y="26" width="8.78809" height="2.4996"/>
    <rect class="fil2" x="22" y="26" width="8.37735" height="2.4996"/>
    <rect class="fil2" x="12" y="31" width="8.78809" height="2.4996"/>
    <rect class="fil2" x="22" y="31" width="8.37735" height="2.4996"/>
    <rect class="fil2" x="12" y="36" width="8.78809" height="2.4996"/>
    <rect class="fil2" x="22" y="36" width="8.37735" height="2.4996"/>
   </g>
   <circle class="fil3" cx="32" cy="38" r="10"/>
   <path class="fil5" d="M26 43l0 0c0,0 0,0 0,0 0,0 1,0 1,0 0,0 0,0 0,0 0,0 0,1 0,1 0,0 0,0 1,0 0,0 0,0 0,0 0,0 0,0 0,0 1,0 1,1 2,1 0,0 0,0 0,0 0,0 1,0 1,0 0,0 0,0 0,0 0,0 0,0 1,0 0,0 0,0 0,0 0,0 0,0 0,0 1,0 1,0 1,0 0,0 0,0 0,0 1,0 2,-1 2,-1 0,0 0,0 0,0 0,0 1,0 1,0 0,0 0,0 0,0 0,0 0,-1 0,-1 1,0 1,0 1,0 0,0 0,0 0,0 0,0 0,0 0,0l0 0c0,-1 -2,-2 -3,-2 0,0 0,-1 0,-1l0 -1c0,0 0,0 0,0 0,-1 0,-1 1,-2 0,0 0,0 0,-1l0 -1c0,0 0,0 0,0l0 -2c0,0 0,-1 -1,-2 0,0 -1,-1 -2,-1 -2,0 -1,1 -2,1 0,0 -1,0 -1,0 -1,1 -1,2 -1,2l0 2c0,0 0,0 0,0l0 1c0,1 0,1 1,1 0,1 0,2 0,2l0 1c0,0 0,1 0,1l-2 1c-1,0 -1,0 -1,1z"/>
  </g>
 </g>
</svg>
