<?xml version="1.0" encoding="UTF-8"?>
<!DOCTYPE svg PUBLIC "-//W3C//DTD SVG 1.1//EN" "http://www.w3.org/Graphics/SVG/1.1/DTD/svg11.dtd">
<!-- Creator: CorelDRAW X7 -->
<svg xmlns="http://www.w3.org/2000/svg" xml:space="preserve" width="48px" height="42px" version="1.1" style="shape-rendering:geometricPrecision; text-rendering:geometricPrecision; image-rendering:optimizeQuality; fill-rule:evenodd; clip-rule:evenodd"
viewBox="0 0 48 42"
 xmlns:xlink="http://www.w3.org/1999/xlink">
 <defs>
  <style type="text/css">
   <![CDATA[
    .fil0 {fill:#FEFEFE}
    .fil6 {fill:#FFF8AF}
    .fil7 {fill:#ED3237}
    .fil5 {fill:#B8E5FA}
    .fil4 {fill:#0098DA}
    .fil8 {fill:black}
    .fil12 {fill:black}
    .fil3 {fill:#1CC8EB}
    .fil2 {fill:#2887D2}
    .fil11 {fill:#606062;fill-rule:nonzero}
    .fil10 {fill:#FFCC29;fill-rule:nonzero}
    .fil9 {fill:black;fill-rule:nonzero}
    .fil1 {fill:#2887D2;fill-rule:nonzero}
   ]]>
  </style>
 </defs>
 <g id="Layer_x0020_1">
  <metadata id="CorelCorpID_0Corel-Layer"/>
  <g id="_306940312">
   <g>
    <g>
     <path class="fil0" d="M2 5l0 30 0 0c0,0 0,0 0,0 0,0 0,-6 0,-7 0,-3 0,-5 0,-8 0,-5 0,-10 0,-15l0 1 0 28c4,0 8,0 11,0 3,0 9,0 10,2 0,-1 0,-1 0,-1l0 -25c0,-1 0,-4 0,-4 -1,-3 -17,-4 -21,-1z"/>
     <path id="1" class="fil1" d="M2 35l0 -30 1 0 0 30 -1 0 0 0zm0 0l0 0 0 0 0 0zm0 0l0 0 1 0 0 0 -1 0 0 0zm0 0l0 0 0 0 0 0zm0 0l1 0 -1 1 0 0 0 0 0 0 0 0 0 0 0 0 0 0 0 0 0 0 0 0 0 0 0 0 0 -1 0 0 0 0 0 0 0 0 0 0 0 0 0 0 0 0 0 0 0 0 0 0 0 0 0 0 0 0 0 0 0 0 0 0 0 0 0 0 1 0 0 0 0 0 0 0 0 0 0 0 0 0 0 0 0 0 0 0 0 0 0 0 0 0 0 0 0 0 0 0 0 0 0 0 0 0 0 0 0 0 0 0 0 0 0 0 0 0 0 0 0 0 0 0 0 0 0 0 0 0 0 0 0 0 -1 0zm1 0l0 1 -1 0 1 -1zm-1 -7l1 0 0 0 0 0 0 0 0 0 0 0 0 1 0 0 0 0 0 0 0 1 0 0 0 0 0 0 0 1 0 0 0 0 0 1 0 0 0 0 0 1 0 0 0 0 0 0 0 1 0 0 0 0 0 0 0 1 0 0 0 0 0 0 0 0 0 0 -1 0 0 0 0 0 0 0 0 0 0 0 0 -1 0 0 0 0 0 0 0 -1 0 0 0 0 0 0 0 -1 0 0 0 0 0 -1 0 0 0 0 0 -1 0 0 0 0 0 0 0 -1 0 0 0 0 0 -1 0 0 0 0 0 0 0 0 0 0 0 0zm0 -8l1 0 0 0 0 0 0 1 0 0 0 0 0 0 0 1 0 0 0 0 0 0 0 0 0 1 0 0 0 0 0 0 0 1 0 0 0 0 0 0 0 1 0 0 0 0 0 0 0 1 0 0 0 0 0 0 0 0 0 1 0 0 0 0 0 0 0 1 -1 0 0 -1 0 0 0 0 0 0 0 -1 0 0 0 0 0 0 0 0 0 -1 0 0 0 0 0 0 0 -1 0 0 0 0 0 0 0 -1 0 0 0 0 0 0 0 -1 0 0 0 0 0 0 0 0 0 -1 0 0 0 0 0 0 0 -1 0 0 0 0zm1 -15l-1 0 1 0 0 1 0 0 0 1 0 0 0 0 0 1 0 0 0 1 0 0 0 1 0 0 0 1 0 0 0 1 0 0 0 1 0 0 0 1 0 0 0 1 0 0 0 0 0 1 0 0 0 1 0 0 0 1 0 0 0 1 0 0 0 1 0 0 -1 0 0 0 0 -1 0 0 0 -1 0 0 0 -1 0 0 0 -1 0 0 0 -1 0 0 0 0 0 -1 0 0 0 -1 0 0 0 -1 0 0 0 -1 0 0 0 -1 0 0 0 -1 0 0 0 -1 0 0 0 -1 0 0 0 0 0 -1 0 0 0 -1 1 0zm-1 1l0 -1 1 0 0 1 -1 0 0 0zm0 0l0 0 0 0 0 0zm0 28l0 -28 1 0 0 28 -1 0 0 0zm0 0l0 0 0 0 0 0zm11 -1l0 1 0 0 0 0 0 0 -1 0 0 0 0 0 -1 0 0 0 0 0 -1 0 0 0 0 0 -1 0 0 0 -1 0 0 0 0 0 -1 0 0 0 0 0 -1 0 0 0 0 0 -1 0 0 0 0 0 -1 0 0 0 0 0 -1 0 0 0 0 0 -1 0 0 -1 1 0 0 0 0 0 1 0 0 0 0 0 1 0 0 0 0 0 1 0 0 0 0 0 1 0 0 0 0 0 1 0 0 0 0 0 1 0 0 0 1 0 0 0 0 0 1 0 0 0 0 0 1 0 0 0 0 0 1 0 0 0 0 0 0 0zm9 2l1 1 -1 0 0 0 0 0 0 -1 0 0 0 0 0 0 -1 0 0 0 0 0 0 0 -1 0 0 0 0 0 -1 0 0 0 0 -1 -1 0 0 0 0 0 -1 0 0 0 0 0 -1 0 0 0 -1 0 0 0 0 0 -1 0 0 0 0 0 0 0 -1 0 0 -1 1 0 0 0 0 0 0 0 1 0 0 0 0 0 1 0 0 0 1 0 0 0 0 0 1 0 0 0 0 0 1 1 0 0 1 0 0 0 0 0 1 0 0 0 0 0 1 0 0 0 0 0 0 0 1 1 0 0 0 0 0 0 0 0 -1 0zm1 1l0 1 -1 -1 1 0zm-1 -1l1 0 0 0 0 0 0 0 0 0 0 0 0 0 0 0 0 0 0 0 0 0 0 0 0 0 0 0 0 0 0 0 0 0 0 0 0 0 0 0 0 0 0 0 0 0 0 0 0 0 0 1 0 0 0 0 0 0 0 0 0 0 0 0 0 0 0 0 -1 -1 0 0 0 0 0 0 0 0 0 0 0 0 0 0 0 0 0 0 0 0 0 0 0 0 0 0 0 0 0 0 0 0 0 0 0 0 0 0 0 0 0 0 0 0 0 0 0 0 0 0 0 0 0 0 0 0 0 0 0 0 0 0 0 0 0 0zm1 -25l0 25 -1 0 0 -25 1 0zm-1 -4l1 0 0 0 0 0 0 0 0 0 0 0 0 0 0 0 0 1 0 0 0 0 0 0 0 0 0 0 0 0 0 0 0 1 0 0 0 0 0 0 0 0 0 0 0 0 0 1 0 0 0 0 0 0 0 0 0 0 0 0 0 0 0 1 0 0 0 0 -1 0 0 0 0 0 0 -1 0 0 0 0 0 0 0 0 0 0 0 0 0 0 0 -1 0 0 0 0 0 0 0 0 0 0 0 0 0 -1 0 0 0 0 0 0 0 0 0 0 0 0 0 0 0 -1 0 0 0 0 0 0 0 0 0 0 0 0 0 0zm1 0l0 0 0 0 0 0zm-20 -1l-1 0 0 -1 0 0 1 0 1 0 0 -1 1 0 1 0 0 0 1 0 1 0 1 0 0 0 1 0 1 0 1 0 1 0 1 0 1 0 0 0 1 0 1 0 1 0 1 0 0 1 1 0 1 0 0 0 1 0 0 1 1 0 0 0 0 0 0 1 -1 0 0 0 0 0 0 0 0 -1 -1 0 0 0 -1 0 0 0 -1 -1 -1 0 0 0 -1 0 -1 0 -1 0 0 0 -1 0 -1 0 -1 0 -1 0 -1 0 0 0 -1 0 -1 0 -1 0 -1 0 0 0 -1 0 -1 0 0 1 -1 0 0 0 0 0 0 0zm-1 0l0 -1 0 0 0 1z"/>
    </g>
    <g>
     <path class="fil0" d="M25 6l0 0c0,0 0,14 0,15 0,1 0,14 0,15 1,-2 7,-2 10,-2 3,0 7,0 11,0l0 -28 1 0c0,0 0,0 0,0 -2,-3 -20,-4 -22,0z"/>
     <path id="1" class="fil1" d="M25 6l0 0 1 0 0 0 -1 0 0 0zm0 0l0 0 0 0 0 0zm1 15l-1 0 0 0 0 0 0 0 0 -1 0 0 0 0 0 -1 0 0 0 -1 0 0 0 -1 0 0 0 -1 0 -1 0 0 0 -1 0 -1 0 0 0 -1 0 -1 0 0 0 -1 0 -1 0 0 0 -1 0 0 0 -1 0 0 0 0 0 -1 0 0 0 0 0 0 1 0 0 0 0 0 0 0 0 1 0 0 0 0 0 1 0 0 0 1 0 0 0 1 0 1 0 0 0 1 0 1 0 0 0 1 0 1 0 0 0 1 0 1 0 0 0 1 0 0 0 1 0 0 0 1 0 0 0 0 0 1 0 0 0 0 0 0zm-1 15l1 0 -1 0 0 0 0 0 0 -1 0 0 0 0 0 -1 0 0 0 0 0 -1 0 -1 0 0 0 -1 0 0 0 -1 0 -1 0 0 0 -1 0 -1 0 0 0 -1 0 0 0 -1 0 -1 0 0 0 -1 0 0 0 -1 0 0 0 0 0 -1 0 0 0 0 1 0 0 0 0 0 0 1 0 0 0 0 0 1 0 0 0 1 0 0 0 1 0 1 0 0 0 1 0 0 0 1 0 1 0 0 0 1 0 1 0 0 0 1 0 0 0 1 0 0 0 1 0 0 0 1 0 0 0 0 0 0 0 1 0 -1 -1 1zm1 0l-1 1 0 -1 1 0zm9 -3l0 1 0 0 -1 0 0 0 0 0 0 0 -1 0 0 0 0 0 -1 0 0 0 -1 0 0 0 0 0 -1 0 0 0 0 1 -1 0 0 0 0 0 -1 0 0 0 0 0 -1 0 0 0 0 0 0 0 -1 0 0 0 0 0 0 1 0 0 0 0 0 0 -1 0 0 -1 0 0 0 0 0 0 1 0 0 -1 0 0 0 0 1 0 0 0 0 0 1 0 0 0 0 0 1 0 0 0 1 0 0 0 0 0 1 -1 0 0 0 0 1 0 0 0 1 0 0 0 0 0 1 0 0 0 0 0 0 0 1 0 0 0zm10 1l1 0 0 0 -1 0 0 0 0 0 -1 0 0 0 0 0 -1 0 0 0 0 0 -1 0 0 0 0 0 -1 0 0 0 0 0 -1 0 0 0 -1 0 0 0 0 0 -1 0 0 0 0 0 -1 0 0 0 0 0 -1 0 0 0 0 0 -1 0 0 0 0 0 0 -1 0 0 0 0 1 0 0 0 0 0 1 0 0 0 0 0 1 0 0 0 0 0 1 0 0 0 0 0 1 0 0 0 1 0 0 0 0 0 1 0 0 0 0 0 1 0 0 0 0 0 1 0 0 0 0 0 1 0 0 0 0 0 1 0 -1 1zm1 0l0 0 0 0 0 0zm0 -28l0 28 -1 0 0 -28 1 0 0 0zm-1 0l0 0 1 0 -1 0zm2 0l-1 0 0 0 1 0 0 0 0 0zm0 0l1 0 -1 0 0 0zm-1 0l1 0 0 0 0 0 0 0 0 0 0 0 0 0 -1 0 0 0 0 0 1 0 0 0 0 0 -1 0 0 0 1 0 -1 0 0 0 1 0 -1 0 0 0 1 0 0 0 0 0 -1 0 0 0 1 0 0 0 0 0 0 0 0 0 0 0 0 0 0 0 -1 0 1 0 -1 0 0 0 1 0 0 0 -1 0 0 0 1 0 0 0 0 0 0 0 0 0 0 0 0 0 0 0 0 0 0 0 0 0 0 0 0 0 0 0 0 0 0 0 0 0 0 0 0 0 -1 0 0 0 1 0 0 0 -1 0 0 0 0 0zm0 0l0 0 0 0 0 0zm-20 0l-1 0 0 -1 0 0 0 0 1 -1 0 0 1 0 0 0 1 0 1 -1 1 0 0 0 1 0 1 0 1 0 1 0 1 0 1 0 1 0 1 0 1 0 1 0 1 1 0 0 1 0 1 0 1 0 0 0 1 0 1 1 0 0 1 0 0 0 0 1 -1 0 0 0 0 0 0 0 -1 0 0 -1 -1 0 0 0 -1 0 -1 0 -1 0 0 -1 -1 0 -1 0 -1 0 -1 0 -1 0 -1 0 -1 0 -1 0 -1 0 -1 0 0 0 -1 0 -1 0 -1 1 0 0 -1 0 0 0 -1 0 0 0 0 1 0 0 0 0zm-1 0l0 -1 0 0 0 1z"/>
    </g>
    <path class="fil2" d="M0 36l21 0c0,1 0,1 1,2 0,0 1,0 2,0 2,0 3,-2 3,-2 0,0 0,0 1,0 3,0 6,0 9,0 4,0 8,0 11,0l0 -30 -2 -1 0 29c-4,0 -8,0 -11,0 -3,0 -9,0 -10,2l0 0c0,0 -1,0 -1,0 -1,0 -1,0 -1,0 -1,-3 -7,-2 -10,-2 -3,0 -7,0 -11,0l0 -29 -2 1c0,5 0,10 0,15 0,2 0,5 0,7 0,2 0,8 0,8z"/>
    <path class="fil3" d="M23 36c0,0 0,0 1,0 0,0 1,0 1,0l0 0c0,-1 0,-14 0,-15 0,-1 0,-15 0,-15l-2 0c0,0 0,3 0,3l0 26c0,0 0,0 0,1z"/>
   </g>
   <g>
    <rect class="fil4" x="4" y="10" width="12.2825" height="18.3046" rx="1" ry="2"/>
    <path class="fil5" d="M6 12l9 0c0,0 0,0 0,0l0 3 -9 0 0 -3c0,0 0,0 0,0z"/>
    <g id="_306914440">
     <rect class="fil6" x="14" y="16" width="1.47988" height="1.77897"/>
     <rect class="fil6" x="11" y="16" width="1.47988" height="1.77897"/>
     <rect class="fil6" x="8" y="16" width="1.47988" height="1.77897"/>
     <rect class="fil6" x="6" y="16" width="1.47988" height="1.77897"/>
     <rect class="fil6" x="14" y="20" width="1.47988" height="1.77897"/>
     <rect class="fil6" x="11" y="20" width="1.47988" height="1.77897"/>
     <rect class="fil6" x="8" y="20" width="1.47988" height="1.77897"/>
     <rect class="fil6" x="6" y="20" width="1.47988" height="1.77897"/>
     <rect class="fil7" x="11" y="24" width="3.99772" height="1.77897"/>
     <rect class="fil6" x="8" y="24" width="1.47988" height="1.77897"/>
     <rect class="fil6" x="6" y="24" width="1.47988" height="1.77897"/>
    </g>
   </g>
   <g>
    <g id="_306942088">
     <g>
      <polygon class="fil1" points="44,12 28,12 28,11 44,11 "/>
     </g>
     <g>
      <polygon class="fil1" points="36,31 36,12 36,12 36,31 "/>
     </g>
     <rect class="fil2" x="37" y="14" width="6.60439" height="0.942377"/>
     <rect class="fil2" x="37" y="16" width="6.60439" height="0.942377"/>
     <rect class="fil2" x="37" y="19" width="6.60439" height="0.942377"/>
     <rect class="fil2" x="28" y="21" width="6.60439" height="0.942377"/>
     <rect class="fil2" x="37" y="21" width="6.60439" height="0.942377"/>
     <rect class="fil2" x="28" y="14" width="6.60439" height="0.942377"/>
     <rect class="fil2" x="28" y="16" width="6.60439" height="0.942377"/>
     <rect class="fil2" x="28" y="19" width="6.60439" height="0.942377"/>
     <rect class="fil2" x="28" y="24" width="6.60439" height="0.942377"/>
     <rect class="fil2" x="37" y="24" width="6.60439" height="0.942377"/>
     <rect class="fil2" x="28" y="27" width="6.60439" height="0.942377"/>
     <rect class="fil2" x="37" y="27" width="6.60439" height="0.942377"/>
     <rect class="fil2" x="28" y="29" width="6.60439" height="0.942377"/>
     <rect class="fil2" x="37" y="29" width="6.60439" height="0.942377"/>
    </g>
    <path class="fil1" d="M31 11l0 -3 0 0c1,0 1,0 1,0 0,0 0,0 1,0 0,1 0,1 0,1l0 0c0,1 0,1 0,1 0,0 -1,0 -1,0 0,1 0,1 0,1l-1 0zm0 -3l0 2 0 0c1,0 1,0 1,0 0,0 0,0 0,-1l0 0c0,0 0,0 0,0 0,-1 0,-1 -1,-1l0 0z"/>
    <path class="fil1" d="M42 10c0,0 0,0 -1,0 0,1 0,1 0,1 -1,0 -1,0 -1,-1 0,0 0,0 0,-1l0 0c0,0 0,0 0,-1 0,0 0,0 0,0 0,0 0,0 1,0 0,0 0,0 0,0 1,0 1,1 1,1l-1 0c0,0 0,0 0,-1 0,0 0,0 0,0 -1,0 -1,0 -1,1 0,0 0,0 0,0l0 0c0,1 0,1 0,1 0,0 0,0 1,0 0,0 0,0 0,0 0,0 0,0 0,0l1 0z"/>
   </g>
   <g>
    <g>
     <path class="fil8" d="M19 39l0 0c0,0 0,1 0,1l0 1 0 1c0,-1 0,-1 0,-1l0 -1c0,0 0,-1 0,-1z"/>
     <path class="fil9" d="M20 40c0,0 0,0 -1,0l0 0c0,0 0,0 0,0l-1 -4c0,1 0,1 0,1l2 0c0,0 1,0 1,-1l-1 4z"/>
     <path class="fil10" d="M20 38l0 -1 -2 0c0,0 0,0 0,-1l1 4c0,0 0,0 0,0l0 0c1,0 1,0 1,0 0,-1 0,-1 0,-1 0,0 0,0 0,-1z"/>
     <path class="fil9" d="M21 3l-2 0c0,0 0,0 0,0l0 -2c0,-1 0,-1 0,-1l2 0c0,0 0,0 0,1l0 2c0,0 0,0 0,0z"/>
     <path class="fil10" d="M20 2c0,0 0,0 0,0 0,0 0,-1 0,-1l0 -1 -1 0c0,0 0,0 0,1l0 2c0,0 0,0 0,0l2 0c0,0 0,0 0,0l0 -1 -1 0z"/>
     <path class="fil11" d="M20 37l-2 0c0,0 0,-1 0,-1l0 -32c0,0 0,-1 1,-1l2 0c0,0 0,1 0,1l0 32c0,1 0,1 -1,1z"/>
     <path class="fil9" d="M20 35c-1,0 -1,0 -1,-1l1 -31 -1 0c-1,0 -1,1 -1,1l0 32c0,0 0,1 0,1l2 0c1,0 1,0 1,-1l0 -1 -1 0z"/>
     <polygon class="fil10" points="18,27 21,27 21,32 18,32 "/>
     <polygon class="fil10" points="18,32 18,27 19,27 19,32 "/>
     <polygon class="fil10" points="18,4 21,4 21,27 18,27 "/>
     <polygon class="fil9" points="18,4 18,26 18,27 19,27 19,4 "/>
    </g>
    <path class="fil12" d="M20 3l3 0 0 5c-1,1 -1,1 -1,0l0 -4 -2 0c0,-1 0,0 0,-1z"/>
   </g>
  </g>
 </g>
</svg>
