<?xml version="1.0" encoding="UTF-8"?>
<!DOCTYPE svg PUBLIC "-//W3C//DTD SVG 1.1//EN" "http://www.w3.org/Graphics/SVG/1.1/DTD/svg11.dtd">
<!-- Creator: CorelDRAW X7 -->
<svg xmlns="http://www.w3.org/2000/svg" xml:space="preserve" width="48px" height="47px" version="1.1" style="shape-rendering:geometricPrecision; text-rendering:geometricPrecision; image-rendering:optimizeQuality; fill-rule:evenodd; clip-rule:evenodd"
viewBox="0 0 48 47"
 xmlns:xlink="http://www.w3.org/1999/xlink">
 <defs>
  <style type="text/css">
   <![CDATA[
    .fil1 {fill:#FEFEFE}
    .fil12 {fill:#FFF8AF}
    .fil13 {fill:#ED3237}
    .fil11 {fill:#B8E5FA}
    .fil10 {fill:#0098DA}
    .fil5 {fill:black}
    .fil9 {fill:black}
    .fil2 {fill:#1CC8EB}
    .fil0 {fill:#2887D2}
    .fil8 {fill:#606062;fill-rule:nonzero}
    .fil7 {fill:#FFCC29;fill-rule:nonzero}
    .fil6 {fill:black;fill-rule:nonzero}
    .fil3 {fill:#0063D4;fill-rule:nonzero}
    .fil4 {fill:#E32210;fill-rule:nonzero}
   ]]>
  </style>
 </defs>
 <g id="Layer_x0020_1">
  <metadata id="CorelCorpID_0Corel-Layer"/>
  <g id="_780865664">
   <g>
    <g>
     <path class="fil0" d="M3 46l29 0c1,0 2,-1 2,-3l0 -36c0,-2 -1,-3 -2,-3l-29 0 0 0 -3 0 0 42 3 0z"/>
     <rect class="fil1" x="3" y="5" width="29.7103" height="38.8838"/>
     <path class="fil2" d="M3 4l22 -3c1,-1 2,1 2,2l0 35c0,1 -1,2 -2,2l-22 4 0 -40z"/>
    </g>
    <path class="fil3" d="M9 21l11 0 0 1 3 -3 -3 -4 0 2 -11 0 0 4zm6 0m5 1m2 -1m0 -4m-2 -1m-5 1m-6 2"/>
    <polygon class="fil4" points="23,26 12,26 12,28 9,25 12,21 12,23 20,23 20,23 22,23 23,23 "/>
   </g>
   <g>
    <g>
     <path class="fil5" d="M38 44l0 0c0,0 -1,1 0,1l0 2 0 0c0,0 0,0 0,-1l0 -1c0,-1 0,-1 0,-1z"/>
     <path class="fil6" d="M38 45c0,0 0,0 0,0l0 0c-1,0 -1,0 -1,0l-1 -4c0,0 1,0 1,0l2 0c0,0 0,0 0,0l-1 4z"/>
     <path class="fil7" d="M38 43l0 -2 -1 0c0,0 -1,0 -1,0l1 4c0,0 0,0 1,0l0 0c0,0 0,0 0,0 1,-1 1,-1 1,-1 0,0 -1,0 -1,-1z"/>
     <path class="fil6" d="M39 4l-2 0c0,0 0,0 0,0l0 -3c0,-1 0,-1 1,-1l1 0c1,0 1,1 1,1l0 3c0,0 0,0 -1,0z"/>
     <path class="fil7" d="M39 2c0,0 0,0 0,0 0,0 -1,0 -1,-1l0 -1 0 0c-1,0 -1,0 -1,1l0 3c0,0 0,0 0,0l2 0c1,0 1,0 1,0l0 -2 -1 0z"/>
     <path class="fil8" d="M39 42l-2 0c-1,0 -1,-1 -1,-2l1 -35c0,-1 0,-1 0,-1l2 0c1,0 1,0 1,1l0 35c0,1 -1,2 -1,2z"/>
     <path class="fil6" d="M38 40c0,0 0,-1 0,-1l0 -35 -1 0c0,0 0,0 0,1l-1 35c0,1 0,2 1,2l2 0c0,0 1,-1 1,-2l0 0 -2 0z"/>
     <polygon class="fil7" points="36,30 40,30 40,36 36,36 "/>
     <polygon class="fil7" points="36,36 36,30 38,30 38,36 "/>
     <polygon class="fil7" points="36,4 40,4 40,30 36,30 "/>
     <polygon class="fil6" points="36,4 36,30 36,30 38,30 38,4 "/>
    </g>
    <path class="fil9" d="M39 4l3 0 0 5c-1,1 -1,1 -1,0l0 -5 -2 0c0,0 0,0 0,0z"/>
   </g>
   <g>
    <rect class="fil10" x="29" y="11" width="19.2534" height="28.6937" rx="2" ry="3"/>
    <path class="fil11" d="M32 14l13 0c0,0 1,0 1,0l0 4 -15 0 0 -4c0,0 0,0 1,0z"/>
    <g>
     <rect class="fil12" x="43" y="21" width="2.31978" height="2.78866"/>
     <rect class="fil12" x="39" y="21" width="2.31978" height="2.78866"/>
     <rect class="fil12" x="35" y="21" width="2.31978" height="2.78866"/>
     <rect class="fil12" x="31" y="21" width="2.31978" height="2.78866"/>
     <rect class="fil12" x="43" y="27" width="2.31978" height="2.78866"/>
     <rect class="fil12" x="39" y="27" width="2.31978" height="2.78866"/>
     <rect class="fil12" x="35" y="27" width="2.31978" height="2.78866"/>
     <rect class="fil12" x="31" y="27" width="2.31978" height="2.78866"/>
     <rect class="fil13" x="40" y="33" width="6.26663" height="2.78866"/>
     <rect class="fil12" x="35" y="33" width="2.31978" height="2.78866"/>
     <rect class="fil12" x="31" y="33" width="2.31978" height="2.78866"/>
    </g>
   </g>
  </g>
 </g>
</svg>
