<?xml version="1.0" encoding="UTF-8"?>
<!DOCTYPE svg PUBLIC "-//W3C//DTD SVG 1.1//EN" "http://www.w3.org/Graphics/SVG/1.1/DTD/svg11.dtd">
<!-- Creator: CorelDRAW X7 -->
<svg xmlns="http://www.w3.org/2000/svg" xml:space="preserve" width="103px" height="117px" version="1.1" style="shape-rendering:geometricPrecision; text-rendering:geometricPrecision; image-rendering:optimizeQuality; fill-rule:evenodd; clip-rule:evenodd"
viewBox="0 0 103 117"
 xmlns:xlink="http://www.w3.org/1999/xlink">
 <defs>
  <style type="text/css">
   <![CDATA[
    .fil0 {fill:#FEFEFE}
    .fil2 {fill:#2887D2}
    .fil1 {fill:#2887D2;fill-rule:nonzero}
    .fil3 {fill:url(#id0);fill-rule:nonzero}
   ]]>
  </style>
  <linearGradient id="id0" gradientUnits="userSpaceOnUse" x1="59.4421" y1="57.2542" x2="88.3041" y2="102.955">
   <stop offset="0" style="stop-opacity:1; stop-color:#1CC8EB"/>
   <stop offset="0.360784" style="stop-opacity:1; stop-color:#0E96E0"/>
   <stop offset="1" style="stop-opacity:1; stop-color:#0063D4"/>
  </linearGradient>
 </defs>
 <g id="Layer_x0020_1">
  <metadata id="CorelCorpID_0Corel-Layer"/>
  <g id="_793775760">
   <g>
    <path class="fil0" d="M2 2l0 105c0,0 88,-2 88,0 0,2 1,-85 1,-85l-16 -20c-5,0 -67,0 -72,0 -1,0 -1,0 -1,0z"/>
    <path id="1" class="fil1" d="M0 106l0 -104 4 0 -1 105 -1 2 -2 -3zm2 3l-2 0 0 -3 2 3zm90 -2l-3 0 0 0 1 2 -1 0 -1 0 -1 0 -2 -1 -3 0 -2 0 -3 0 -4 0 -3 0 -4 0 -4 0 -4 0 -4 0 -4 0 -4 0 -4 0 -4 0 -4 0 -4 0 -4 0 -4 0 -3 0 -3 0 -3 0 -3 1 -2 0 -2 0 -2 0 -1 0 -1 0 0 0 0 -5 0 0 1 0 1 0 1 0 2 0 3 0 3 0 3 0 3 0 3 0 4 0 4 0 4 0 4 0 4 0 4 0 4 0 4 0 4 0 4 0 4 0 4 0 3 0 4 0 3 0 2 0 3 0 2 0 1 0 2 1 1 0 1 2 0 0zm-2 -83l2 -3 0 1 0 1 0 0 0 2 0 1 0 2 0 2 0 3 0 3 0 3 0 4 0 3 0 4 0 4 0 4 0 4 0 4 0 4 0 4 0 3 0 4 0 4 0 3 0 4 0 3 0 3 0 2 0 2 0 2 0 2 0 1 0 0 -3 0 3 0 -3 0 0 -1 0 -1 0 -1 0 -2 0 -2 0 -2 0 -3 0 -3 0 -4 0 -3 0 -4 0 -4 0 -3 0 -4 0 -4 0 -4 0 -4 0 -4 0 -4 0 -4 0 -3 0 -4 0 -3 0 -3 0 -3 0 -2 0 -2 0 -1 0 -2 0 0 0 -1 1 2zm-14 -23l16 20 -2 3 -16 -20 1 -4 1 1zm-1 -1l1 0 0 1 -1 -1zm-73 4l1 -4 0 0 0 0 1 0 2 0 1 0 2 0 2 0 2 0 3 0 2 0 3 0 3 0 3 0 3 0 3 0 3 0 3 0 3 0 3 0 3 0 3 0 3 0 3 0 3 0 2 0 3 0 2 0 2 0 2 0 1 0 2 0 1 0 0 0 0 4 0 0 -1 0 -2 0 -1 0 -2 0 -2 0 -2 0 -3 0 -2 0 -3 0 -3 0 -3 0 -3 0 -3 0 -3 0 -3 0 -3 0 -3 0 -3 0 -3 0 -3 0 -3 0 -3 0 -2 0 -3 0 -2 0 -2 0 -2 0 -1 0 -2 0 -1 0 -1 0 0 0zm2 -2l-4 0 0 0 1 -1 0 -1 1 0 0 0 0 0 0 0 0 0 0 0 0 0 0 0 0 0 0 0 0 0 0 0 0 0 0 0 0 0 0 0 0 0 0 0 0 0 0 0 0 0 0 0 0 0 0 0 0 0 0 0 0 0 0 0 0 0 1 0 -1 4 0 0 0 0 0 0 0 0 0 0 0 0 0 0 0 0 0 0 0 0 0 0 0 0 0 0 0 0 0 0 0 0 0 0 0 0 0 0 0 0 0 0 0 0 0 0 0 0 0 0 0 0 0 0 1 0 0 0 0 0 1 -1 0 -1 0 0zm0 0l0 0 0 0 0 0z"/>
   </g>
   <path class="fil2" d="M74 2l-1 14c0,0 0,4 3,5 3,1 14,0 14,0l-16 -20 0 1z"/>
   <rect class="fil2" transform="matrix(-0.795393 -0.00241043 0.00360906 -0.849363 78.2391 54.6204)" width="81.1821" height="7.286"/>
   <rect class="fil2" transform="matrix(-0.795393 -0.00241043 0.00360906 -0.849363 78.2878 43.1662)" width="81.1821" height="7.286"/>
   <rect class="fil2" transform="matrix(-0.543613 -0.00164741 0.00360906 -0.849363 57.899 31.0319)" width="81.1821" height="7.286"/>
   <rect class="fil2" transform="matrix(-0.795393 -0.00241043 0.00360906 -0.849363 78.1871 66.854)" width="81.1821" height="7.286"/>
   <rect class="fil2" transform="matrix(-0.795393 -0.00241043 0.00360906 -0.849363 78.1351 79.0876)" width="81.1821" height="7.286"/>
   <rect class="fil2" transform="matrix(-0.795393 -0.00241043 0.00360906 -0.849363 78.0838 91.1741)" width="81.1821" height="7.286"/>
   <g>
    <path class="fil0" d="M13 10l-1 104c10,0 89,1 89,0 0,-12 0,-84 0,-84l-14 -19 -1 -1c0,0 -66,0 -73,0 0,0 0,0 0,0z"/>
    <path id="1" class="fil1" d="M11 114l0 -104 3 0 0 105 -2 2 -1 -3zm1 3l-1 0 0 -3 1 3zm88 -2l3 -1 0 0 -2 3 -1 0 -1 0 -1 0 -2 0 -2 0 -3 0 -2 0 -3 0 -3 0 -4 0 -3 0 -4 0 -4 0 -4 0 -4 0 -4 0 -4 0 -4 0 -3 0 -4 0 -4 0 -4 0 -3 0 -3 0 -3 0 -3 0 -2 0 -2 0 -2 0 -2 0 -1 0 0 -5 1 0 2 0 2 0 2 0 2 0 3 0 3 0 3 0 3 0 4 0 4 0 4 0 3 0 4 0 4 0 4 0 4 0 4 0 4 0 4 0 3 0 4 0 3 0 3 0 2 0 3 0 2 0 2 0 1 0 1 0 1 0 -1 3 0 0zm0 -83l3 -3 0 1 0 1 0 0 0 1 0 2 0 1 0 2 0 2 0 3 0 3 0 2 0 3 0 4 0 3 0 4 0 3 0 4 0 3 0 4 0 4 0 3 0 4 0 3 0 4 0 3 0 3 0 3 0 3 0 2 0 2 0 2 0 2 0 1 -3 1 0 -2 0 -2 0 -1 0 -3 0 -2 0 -3 0 -3 0 -3 0 -3 0 -4 0 -3 0 -4 0 -3 0 -4 0 -4 0 -3 0 -4 0 -3 0 -4 0 -3 0 -4 0 -3 0 -3 0 -2 0 -3 0 -2 0 -2 0 -1 0 -2 0 -1 0 0 0 -1 0 2zm-12 -22l15 19 -3 3 -14 -19 2 -3 0 0zm0 0l0 0 0 0 0 0zm-1 -2l1 2 -2 3 -1 -2 1 -3 1 0zm-1 0l0 0 1 0 -1 0zm-73 4l0 -4 0 0 1 0 1 0 2 0 1 0 2 0 2 0 3 0 2 0 3 0 3 0 3 0 3 0 3 0 4 0 3 0 3 0 3 0 3 0 4 0 3 0 3 0 2 0 3 0 2 0 3 0 2 0 1 0 2 0 1 0 1 0 1 0 0 0 0 4 0 0 -1 0 -1 0 -1 0 -2 0 -1 0 -2 0 -3 0 -2 0 -3 0 -2 0 -3 0 -3 0 -4 0 -3 0 -3 0 -3 0 -3 0 -4 0 -3 0 -3 0 -3 0 -3 0 -3 0 -2 0 -3 0 -2 0 -2 0 -1 0 -2 0 -1 0 -1 0 0 0zm1 -2l-3 0 2 -2 0 0 0 0 0 0 0 0 0 0 0 0 0 0 0 0 0 0 0 0 0 0 0 0 0 0 0 0 0 0 0 0 0 0 0 0 0 0 0 0 0 0 0 0 0 0 0 0 0 0 0 0 0 0 0 0 0 0 0 0 0 0 0 0 0 4 0 0 0 0 0 0 0 0 0 0 0 0 0 0 0 0 0 0 0 0 0 0 0 0 0 0 0 0 0 0 0 0 0 0 0 0 0 0 0 0 0 0 0 0 0 0 0 0 0 0 0 0 0 0 0 0 0 0 0 0 0 0 0 0 1 -2zm-3 0l0 -2 2 0 -2 2z"/>
   </g>
   <path class="fil2" d="M85 11l-1 14c0,0 0,4 3,5 3,0 14,0 14,0l-16 -20 0 1z"/>
   <rect class="fil2" x="23" y="22" width="43.8661" height="6.92486"/>
   <path class="fil3" d="M84 92c-1,0 -2,-1 -2,-2l0 -4c0,0 1,0 1,-1 1,-2 2,-4 3,-6 2,-1 3,-3 3,-4l0 -5c0,-1 -1,-2 -1,-3l0 -5c0,-1 0,-5 -3,-8 -2,-2 -6,-4 -11,-4 -5,0 -4,2 -6,3 -2,1 -3,-1 -5,2 -3,3 -2,6 -2,7l0 5c-1,1 -1,2 -1,3l0 5c0,1 0,2 2,3 1,4 3,7 3,8l0 4c0,1 0,2 -1,2 -10,5 -13,4 -13,14 0,2 1,4 3,4l40 0c2,0 3,-2 3,-4 0,-10 -2,-8 -13,-14z"/>
   <rect class="fil2" x="23" y="39" width="52.0862" height="6.92486"/>
   <rect class="fil2" x="23" y="55" width="28.193" height="6.92486"/>
   <rect class="fil2" x="23" y="75" width="28.193" height="6.92486"/>
  </g>
 </g>
</svg>
