<?xml version="1.0" encoding="UTF-8"?>
<!DOCTYPE svg PUBLIC "-//W3C//DTD SVG 1.1//EN" "http://www.w3.org/Graphics/SVG/1.1/DTD/svg11.dtd">
<!-- Creator: CorelDRAW X7 -->
<svg xmlns="http://www.w3.org/2000/svg" xml:space="preserve" width="49px" height="47px" version="1.1" style="shape-rendering:geometricPrecision; text-rendering:geometricPrecision; image-rendering:optimizeQuality; fill-rule:evenodd; clip-rule:evenodd"
viewBox="0 0 49 47"
 xmlns:xlink="http://www.w3.org/1999/xlink">
 <defs>
  <style type="text/css">
   <![CDATA[
    .fil0 {fill:#FEFEFE}
    .fil4 {fill:#ED3237}
    .fil6 {fill:#00A859}
    .fil5 {fill:#0063D4}
    .fil2 {fill:#2887D2}
    .fil7 {fill:#FFF212;fill-rule:nonzero}
    .fil1 {fill:#0098DA;fill-rule:nonzero}
    .fil3 {fill:#2887D2;fill-rule:nonzero}
   ]]>
  </style>
 </defs>
 <g id="Layer_x0020_1">
  <metadata id="CorelCorpID_0Corel-Layer"/>
  <g id="_815224848">
   <g>
    <g>
     <g>
      <g>
       <path class="fil0" d="M1 17l21 0c0,0 -1,-16 0,-16 0,0 -17,0 -17,0l-4 2 0 1c0,0 0,13 0,13z"/>
       <path id="1" class="fil1" d="M22 17l-21 0 0 -1 21 0 0 1 0 0zm0 0l0 0 0 0 0 0zm0 -17l0 1 0 0 0 0 0 0 0 0 0 0 0 1 0 0 0 1 0 0 0 1 0 0 0 1 0 1 0 0 0 1 0 1 0 1 0 0 0 1 0 1 0 1 0 0 0 1 0 1 0 0 0 1 0 0 0 1 0 0 0 0 0 1 0 0 0 0 -1 0 0 0 0 0 0 -1 0 0 0 0 0 -1 0 0 0 -1 0 0 0 -1 0 -1 0 0 0 -1 0 -1 0 -1 0 0 0 -1 0 -1 0 0 0 -1 0 -1 0 -1 0 0 0 -1 0 0 0 -1 0 0 0 -1 0 0 0 0 0 -1 1 0 0 0zm-17 1l-1 -1 1 0 0 0 0 0 0 0 0 0 1 0 0 0 1 0 0 0 1 0 1 0 0 0 1 0 1 0 1 0 1 0 0 0 1 0 1 0 1 0 1 0 0 0 1 0 1 0 0 0 1 0 0 0 1 0 0 0 1 0 0 0 0 0 0 1 0 -1 0 1 0 0 0 0 -1 0 0 0 -1 0 0 0 -1 0 0 0 -1 0 -1 0 0 0 -1 0 -1 0 -1 0 -1 0 0 0 -1 0 -1 0 -1 0 -1 0 0 0 -1 0 -1 0 0 0 -1 0 0 0 -1 0 0 0 0 0 0 0 0 0 0 0zm-4 2l3 -3 1 1 -4 3 -1 -1 1 0zm-1 0l0 0 1 0 -1 0zm0 0l0 0 1 1 0 0 -1 0 0 -1zm0 1l0 -1 0 0 0 1zm1 12l0 1 0 0 -1 0 0 0 0 -1 0 0 0 0 0 0 0 -1 0 0 0 -1 0 0 0 -1 0 0 0 -1 0 -1 0 0 0 -1 0 0 0 -1 0 -1 0 0 0 -1 0 0 0 -1 0 0 0 -1 0 0 0 -1 0 0 0 0 0 0 0 0 0 0 1 0 0 0 0 0 0 0 0 0 0 0 0 1 0 0 0 1 0 0 0 1 0 0 0 1 0 0 0 1 0 1 0 0 0 1 0 0 0 1 0 1 0 0 0 1 0 0 0 1 0 0 0 1 0 0 0 0 0 0 0 1 0 0 0 -1 0 0z"/>
      </g>
      <path class="fil2" d="M1 4l3 0c0,0 0,0 1,-1 0,0 0,-2 0,-2l-5 3 1 0z"/>
     </g>
     <g>
      <g>
       <path class="fil0" d="M2 19l21 0c0,0 0,-16 0,-16 1,0 -17,0 -17,0l-4 2 0 1c0,0 0,13 0,13z"/>
       <path id="1" class="fil1" d="M23 20l-21 0 0 -2 21 0 1 1 -1 1zm1 -1l0 1 -1 0 1 -1zm-1 -17l0 2 0 0 1 -1 0 0 0 0 0 1 0 0 0 0 0 1 0 0 0 1 0 1 0 0 0 1 0 1 0 0 0 1 0 1 0 1 0 0 0 1 0 1 0 0 0 1 0 1 0 0 0 1 0 0 0 1 0 0 0 0 0 1 0 0 0 0 -1 0 0 0 0 0 0 -1 0 0 0 0 0 -1 0 0 0 -1 0 0 0 -1 0 -1 0 0 0 -1 0 -1 0 0 0 -1 0 -1 0 -1 0 0 0 -1 0 -1 0 0 0 -1 0 -1 0 0 0 -1 0 0 0 -1 0 0 0 0 0 0 0 -1 0 0zm-17 1l0 -1 0 0 0 0 0 0 1 0 0 0 0 0 1 0 0 0 1 0 1 0 0 0 1 0 1 0 0 0 1 0 1 0 1 0 1 0 1 0 0 0 1 0 1 0 1 0 0 0 1 0 0 0 1 0 0 0 1 0 0 0 0 0 0 0 0 2 0 -2 0 2 0 0 0 0 0 0 -1 0 0 0 -1 0 0 0 -1 0 0 0 -1 0 -1 0 -1 0 0 0 -1 0 -1 0 -1 0 -1 0 -1 0 0 0 -1 0 -1 0 0 0 -1 0 -1 0 0 0 -1 0 0 0 0 0 -1 0 0 0 0 0 0 -1zm-4 2l4 -3 0 1 -3 3 -1 -1 0 0zm0 0l0 0 0 0 0 0zm0 0l0 0 1 1 -1 0 -1 0 1 -1zm-1 1l0 -1 1 0 -1 1zm1 12l0 2 0 0 0 -1 0 0 0 0 -1 -1 0 0 0 0 0 -1 0 0 0 -1 0 0 0 -1 0 0 0 -1 0 -1 0 0 0 -1 0 0 0 -1 0 -1 0 0 0 -1 0 0 0 -1 0 0 0 -1 0 0 0 0 0 -1 0 0 0 0 0 0 0 0 2 0 0 0 0 0 0 0 0 0 0 1 0 0 0 0 0 1 0 0 0 1 0 0 0 1 0 0 0 1 0 1 0 0 0 1 0 0 0 1 0 1 0 0 0 1 0 0 0 1 0 0 0 1 0 0 0 0 0 1 0 0 0 0 -1 -1 0 0z"/>
      </g>
      <path class="fil2" d="M2 6l3 0c0,0 1,0 1,-1 0,0 0,-2 0,-2l-4 3 0 0z"/>
     </g>
    </g>
    <g id="_815230344">
     <g>
      <polygon class="fil3" points="20,6 6,6 6,5 20,5 "/>
     </g>
     <g>
      <polygon class="fil3" points="13,16 13,5 13,5 13,16 "/>
     </g>
     <rect class="fil2" x="14" y="7" width="6.14918" height="0.670418"/>
     <rect class="fil2" x="14" y="9" width="6.14918" height="0.670418"/>
     <rect class="fil2" x="14" y="11" width="6.14918" height="0.670418"/>
     <rect class="fil2" x="6" y="12" width="6.14918" height="0.670418"/>
     <rect class="fil2" x="14" y="12" width="6.14918" height="0.670418"/>
     <rect class="fil2" x="6" y="7" width="6.14918" height="0.670418"/>
     <rect class="fil2" x="6" y="9" width="6.14918" height="0.670418"/>
     <rect class="fil2" x="6" y="11" width="6.14918" height="0.670418"/>
     <rect class="fil2" x="6" y="14" width="6.14918" height="0.670418"/>
     <rect class="fil2" x="14" y="14" width="6.14918" height="0.670418"/>
    </g>
   </g>
   <path class="fil4" d="M27 9l6 0 0 0c3,0 4,2 4,5l0 0 0 8 -1 -1c0,0 -1,0 -1,0l0 0c0,0 0,1 0,1l2 3c1,0 1,0 1,0 0,0 1,0 1,0l2 -3c0,0 0,-1 0,-1l0 0c0,0 -1,0 -1,0l-1 1 0 -8c0,-1 0,-1 0,-2 0,-1 -1,-2 -1,-2 -1,-1 -2,-2 -3,-2 0,0 0,0 -1,0 0,0 0,0 0,0l0 0c-1,0 -1,0 -1,0l-6 0c-1,0 -1,0 -1,1l0 0c0,0 0,0 1,0z"/>
   <path class="fil5" d="M22 37l-6 0 0 0c-3,0 -4,-1 -4,-4l0 0 0 -8 1 1c0,0 1,0 1,0l0 0c0,0 0,-1 0,-1l-2 -3c-1,0 -1,0 -1,0 0,0 -1,0 -1,0l-2 3c-1,0 -1,1 0,1l0 0c0,0 1,0 1,0l1 -1 0 8c0,1 0,1 0,2 0,1 1,1 1,2 1,1 2,2 3,2 0,0 0,0 1,0 0,0 0,0 0,0l0 0c1,0 1,0 1,0l6 0c1,0 1,0 1,-1l0 0c0,0 0,-1 -1,-1z"/>
   <g>
    <g>
     <g>
      <g>
       <path class="fil0" d="M26 44l21 0c0,0 0,-16 0,-16 0,0 -17,0 -17,0l-4 3 0 0c0,0 0,13 0,13z"/>
       <path id="1" class="fil1" d="M47 45l-21 0 0 -2 21 0 1 1 -1 1zm1 -1l0 1 -1 0 1 -1zm-1 -17l0 2 0 0 0 -1 1 0 -1 0 0 1 0 0 0 0 0 1 0 0 0 1 0 1 0 0 0 1 0 1 0 0 0 1 0 1 0 1 0 0 0 1 0 1 0 1 0 0 0 1 0 0 0 1 0 0 1 1 0 0 0 1 0 0 0 0 0 0 -2 0 0 0 0 0 0 0 0 -1 0 0 0 0 0 -1 0 -1 0 0 0 -1 0 0 0 -1 0 -1 0 -1 0 0 0 -1 0 -1 0 -1 0 0 0 -1 0 -1 0 0 0 -1 0 -1 0 0 0 -1 0 0 0 0 0 -1 0 0 1 0 0 -1 0 0zm-17 2l0 -2 0 0 0 0 0 0 0 0 1 0 0 0 0 0 1 0 1 0 0 0 1 0 1 0 0 0 1 0 1 0 1 0 1 0 0 0 1 0 1 0 1 0 1 0 0 0 1 0 1 0 0 0 1 0 0 0 0 0 1 0 0 0 0 0 0 2 0 -2 0 2 0 0 0 0 -1 0 0 0 0 0 -1 0 0 0 -1 0 -1 0 0 0 -1 0 -1 0 -1 0 -1 0 0 0 -1 0 -1 0 -1 0 -1 0 0 0 -1 0 -1 0 0 0 -1 0 -1 0 0 0 0 0 -1 0 0 0 0 0 0 0 0 0zm-4 1l4 -3 0 2 -4 2 0 -1 0 0zm0 0l0 0 0 0 0 0zm-1 0l1 0 0 1 0 0 -1 0 0 -1zm0 1l0 -1 0 0 0 1zm1 12l0 2 0 0 -1 -1 0 0 0 0 0 -1 0 0 0 0 0 -1 0 0 0 -1 0 0 0 -1 0 0 0 -1 0 0 0 -1 0 -1 0 0 0 -1 0 0 0 -1 0 -1 0 0 0 -1 0 0 0 -1 0 0 0 0 0 -1 0 0 0 0 0 0 0 0 1 0 0 0 0 0 0 0 0 0 0 1 0 0 0 0 0 1 0 0 0 1 0 0 0 1 0 1 0 0 0 1 0 0 0 1 0 1 0 0 0 1 0 0 0 1 0 0 0 1 0 0 0 1 0 0 0 0 0 1 0 0 0 0 0 -1 0 0z"/>
      </g>
      <path class="fil2" d="M26 31l3 0c0,0 1,0 1,-1 0,0 0,-2 0,-2l-4 3 0 0z"/>
     </g>
     <g>
      <g>
       <path class="fil0" d="M27 46l21 0c0,0 0,-16 1,-16 0,0 -18,0 -18,0l-4 3 0 0c0,0 0,13 0,13z"/>
       <path id="1" class="fil1" d="M48 47l-21 0 0 -2 21 0 1 1 -1 1zm1 -1l0 1 -1 0 1 -1zm0 -17l0 2 0 0 0 -1 0 0 0 1 0 0 0 0 0 1 0 0 0 1 0 0 0 1 0 0 0 1 0 1 0 1 0 0 0 1 0 1 0 1 0 0 0 1 0 1 0 0 0 1 0 1 0 0 0 1 0 0 0 0 0 1 0 0 0 0 0 0 -1 0 0 0 0 0 0 0 0 -1 0 0 0 0 0 -1 0 0 0 -1 0 -1 0 0 0 -1 0 -1 0 0 0 -1 0 -1 0 -1 0 0 0 -1 0 -1 0 -1 0 0 0 -1 0 0 0 -1 0 -1 0 0 0 0 0 -1 0 0 0 0 1 -1 0 0zm-17 2l-1 -2 0 0 0 0 1 0 0 0 0 0 0 0 1 0 0 0 1 0 1 0 0 0 1 0 1 0 1 0 0 0 1 0 1 0 1 0 1 0 1 0 0 0 1 0 1 0 0 0 1 0 1 0 0 0 1 0 0 0 0 0 0 0 1 0 0 2 0 -2 0 2 -1 0 0 0 0 0 0 0 -1 0 0 0 -1 0 -1 0 0 0 -1 0 -1 0 0 0 -1 0 -1 0 -1 0 -1 0 -1 0 0 0 -1 0 -1 0 -1 0 0 0 -1 0 -1 0 0 0 -1 0 0 0 0 0 0 0 -1 0 0 0 1 0zm-5 1l4 -3 1 2 -4 2 -1 -1 0 0zm0 0l0 0 0 0 0 0zm0 0l0 0 1 1 0 0 -1 0 0 -1zm0 1l0 -1 0 0 0 1zm0 12l0 2 0 0 0 -1 0 0 0 0 0 0 0 -1 0 0 0 -1 0 0 0 0 0 -1 0 -1 0 0 0 -1 0 0 0 -1 0 -1 0 0 0 -1 0 0 0 -1 0 -1 0 0 0 -1 0 0 0 -1 0 0 0 0 0 -1 0 0 0 0 0 0 0 0 1 0 0 0 0 0 0 0 0 0 0 1 0 0 0 0 0 1 0 0 0 1 0 0 0 1 0 1 0 0 0 1 0 0 0 1 0 1 0 0 0 1 0 0 0 1 0 1 0 0 0 0 0 1 0 0 0 0 0 1 0 0 0 0 -1 -1 0 0z"/>
      </g>
      <path class="fil2" d="M27 33l3 0c0,0 1,0 1,0 0,-1 0,-3 0,-3l-4 3 0 0z"/>
     </g>
    </g>
    <g>
     <g>
      <polygon class="fil3" points="46,33 31,33 31,32 46,32 "/>
     </g>
     <g>
      <polygon class="fil3" points="38,43 38,33 39,33 39,43 "/>
     </g>
     <rect class="fil2" x="40" y="34" width="6.14918" height="0.670418"/>
     <rect class="fil2" x="40" y="36" width="6.14918" height="0.670418"/>
     <rect class="fil2" x="40" y="38" width="6.14918" height="0.670418"/>
     <rect class="fil2" x="31" y="40" width="6.14918" height="0.670418"/>
     <rect class="fil2" x="40" y="40" width="6.14918" height="0.670418"/>
     <rect class="fil2" x="31" y="34" width="6.14918" height="0.670418"/>
     <rect class="fil2" x="31" y="36" width="6.14918" height="0.670418"/>
     <rect class="fil2" x="31" y="38" width="6.14918" height="0.670418"/>
     <rect class="fil2" x="31" y="41" width="6.14918" height="0.670418"/>
     <rect class="fil2" x="40" y="41" width="6.14918" height="0.670418"/>
    </g>
   </g>
   <g>
    <circle class="fil6" cx="24" cy="21" r="8"/>
    <path class="fil7" d="M26 23c0,0 0,0 -1,0 0,-1 0,-1 -1,-1 0,0 -1,0 -1,-1 0,0 -1,0 -1,0 0,0 0,-1 0,-1 -1,0 -1,-1 -1,-1 0,-1 1,-2 1,-2 1,-1 1,-1 2,-1l0 -1 1 0 0 1c1,0 1,0 2,1 0,1 1,1 1,2l-2 0c0,0 0,-1 -1,-1 0,0 0,0 -1,0 0,0 0,0 0,0 -1,0 -1,0 -1,1 0,0 0,0 1,1 0,0 0,0 1,0 0,0 1,1 1,1 0,0 1,0 1,0 0,1 0,1 0,1 1,1 1,1 1,1 0,1 -1,2 -1,2 -1,1 -1,1 -2,1l0 1 -1 0 0 -1c-1,0 -2,0 -2,-1 -1,0 -1,-1 -1,-2l2 0c0,0 0,1 0,1 1,0 1,1 1,1 1,0 1,-1 1,-1 1,0 1,0 1,-1z"/>
   </g>
  </g>
 </g>
</svg>
