<?xml version="1.0" encoding="UTF-8"?>
<!DOCTYPE svg PUBLIC "-//W3C//DTD SVG 1.1//EN" "http://www.w3.org/Graphics/SVG/1.1/DTD/svg11.dtd">
<!-- Creator: CorelDRAW X7 -->
<svg xmlns="http://www.w3.org/2000/svg" xml:space="preserve" width="47px" height="48px" version="1.1" style="shape-rendering:geometricPrecision; text-rendering:geometricPrecision; image-rendering:optimizeQuality; fill-rule:evenodd; clip-rule:evenodd"
viewBox="0 0 47 48"
 xmlns:xlink="http://www.w3.org/1999/xlink">
 <defs>
  <style type="text/css">
   <![CDATA[
    .fil2 {fill:#51A8B1}
    .fil0 {fill:#2887D2}
    .fil1 {fill:#FC4D44}
    .fil3 {fill:white}
    .fil4 {fill:#FEFEFE;fill-rule:nonzero}
   ]]>
  </style>
 </defs>
 <g id="Layer_x0020_1">
  <metadata id="CorelCorpID_0Corel-Layer"/>
  <g id="_784068832">
   <g>
    <g>
     <path class="fil0" d="M6 9l39 0c1,0 2,1 2,2l0 29c0,1 -1,1 -2,1l-39 0c-1,0 -1,0 -1,-1l0 -29c0,-1 0,-2 1,-2z"/>
     <path class="fil1" d="M7 5l38 0c1,0 2,0 2,2l0 5 -42 0 0 -5c0,-2 0,-2 2,-2z"/>
     <g>
      <rect class="fil2" x="10" width="2.48795" height="8.86559" rx="1" ry="1"/>
      <rect class="fil2" x="16" width="2.48795" height="8.86559" rx="1" ry="1"/>
      <rect class="fil2" x="34" width="2.48795" height="8.86559" rx="1" ry="1"/>
      <rect class="fil2" x="39" width="2.48795" height="8.86559" rx="1" ry="1"/>
     </g>
    </g>
    <g>
     <rect class="fil3" x="10" y="17" width="32.3257" height="2.36206"/>
     <rect class="fil3" x="10" y="23" width="32.3257" height="2.36206"/>
     <rect class="fil3" x="20" y="29" width="21.5457" height="2.36206"/>
    </g>
   </g>
   <g>
    <circle class="fil1" cx="10" cy="38" r="10"/>
    <g>
     <path class="fil4" d="M4 43l1 -2c0,-1 1,-2 1,-3l0 -1c0,-2 1,-3 3,-4l0 -1c0,-1 0,-1 1,-1 0,0 1,0 1,1l0 1c2,1 3,2 3,4l0 1c0,1 0,2 1,3l1 2c0,0 0,0 0,0 0,0 -1,0 -1,0l-11 0c0,0 0,0 0,0 0,0 0,0 0,0z"/>
     <path class="fil4" d="M10 45c-1,0 -2,-1 -2,-1l4 0c-1,0 -1,1 -2,1z"/>
    </g>
   </g>
  </g>
 </g>
</svg>
