<?xml version="1.0" encoding="UTF-8"?>
<!DOCTYPE svg PUBLIC "-//W3C//DTD SVG 1.1//EN" "http://www.w3.org/Graphics/SVG/1.1/DTD/svg11.dtd">
<!-- Creator: CorelDRAW X7 -->
<svg xmlns="http://www.w3.org/2000/svg" xml:space="preserve" width="48px" height="48px" version="1.1" style="shape-rendering:geometricPrecision; text-rendering:geometricPrecision; image-rendering:optimizeQuality; fill-rule:evenodd; clip-rule:evenodd"
viewBox="0 0 48 48"
 xmlns:xlink="http://www.w3.org/1999/xlink">
 <defs>
  <style type="text/css">
   <![CDATA[
    .fil7 {fill:#FFF212}
    .fil3 {fill:#00A859}
    .fil6 {fill:black}
    .fil2 {fill:#2887D2}
    .fil5 {fill:#4E8AC8}
    .fil8 {fill:#FC4D44}
    .fil11 {fill:#FEFEFE;fill-rule:nonzero}
    .fil4 {fill:#FFF212;fill-rule:nonzero}
    .fil1 {fill:#2887D2;fill-rule:nonzero}
    .fil10 {fill:#4E901E;fill-rule:nonzero}
    .fil9 {fill:#7ED63E;fill-rule:nonzero}
    .fil0 {fill:url(#id0)}
   ]]>
  </style>
  <linearGradient id="id0" gradientUnits="userSpaceOnUse" x1="11.224" y1="35.7213" x2="38.8618" y2="10.7138">
   <stop offset="0" style="stop-opacity:1; stop-color:#DBEFFF"/>
   <stop offset="1" style="stop-opacity:1; stop-color:white"/>
  </linearGradient>
 </defs>
 <g id="Layer_x0020_1">
  <metadata id="CorelCorpID_0Corel-Layer"/>
  <g id="_805224104">
   <path class="fil0" d="M10 3l0 -2c0,0 1,1 2,1 1,0 2,0 3,-1 1,0 1,-1 1,-1 0,0 1,2 2,2 2,0 3,-1 3,-1 1,0 1,0 1,0 0,0 1,1 3,1 2,0 3,-1 3,-1 0,0 1,1 3,1 1,0 2,-1 2,-1 1,0 1,1 3,1 3,0 3,-1 3,-1l0 33 0 9c0,0 1,2 1,2 1,1 -1,0 -1,0 0,0 -10,1 -13,1 -2,0 -11,0 -14,-2 -3,-3 -2,-9 -2,-9l0 -32z"/>
   <g>
    <g>
     <g>
      <path class="fil1" d="M13 3l0 -2 0 0 0 0 0 0 1 0 0 0 0 0 0 0 0 0 0 0 0 0 0 0 0 0 1 0 0 0 0 0 0 0 0 0 0 0 0 0 0 0 0 -1 0 0 0 0 0 0 0 0 0 0 0 0 0 0 1 0 0 0 0 0 0 0 0 0 0 1 0 0 0 0 0 0 0 0 0 0 0 0 0 0 0 0 0 0 0 0 0 0 0 0 0 0 0 0 0 0 0 1 0 0 -1 0 0 0 0 0 0 0 0 0 0 0 0 0 -1 0 0 0 0 0 0 0 0 0 0 1 -1 0 0 0 0 0zm-2 -2l-1 0 1 -1 0 0 0 0 0 0 0 0 0 0 0 0 0 0 0 0 0 0 0 0 0 1 0 0 0 0 0 0 0 0 0 0 0 0 1 0 0 0 0 0 0 0 0 0 0 0 0 0 0 0 0 0 1 0 0 0 0 0 0 0 0 0 0 0 0 2 0 0 0 0 0 0 -1 0 0 -1 0 0 0 0 0 0 0 0 -1 0 0 0 0 0 0 0 0 0 0 0 0 0 0 0 -1 0 0 0 0 -1 0 0 0 0 0 0 0 0 0 0 0 0 0 0 0 0 0 0 0 0 0 0 0 0 1 0zm0 39l-1 0 0 0 0 0 0 -1 0 -1 0 -1 0 -1 0 -1 0 -1 0 -2 0 -1 0 -2 0 -1 0 -2 0 -2 0 -1 0 -2 0 -2 0 -2 0 -1 0 -2 0 -2 0 -1 0 -2 0 -1 0 -2 0 -1 0 -1 0 -1 0 -1 0 -1 0 0 0 0 0 0 1 0 0 0 0 0 0 0 0 1 0 1 0 1 0 1 0 1 0 2 0 1 0 2 0 1 0 2 0 2 0 1 0 2 0 2 0 2 0 1 0 2 0 2 0 1 0 2 0 1 0 2 0 1 0 1 0 1 0 1 0 1 0 1 0 0 0 0zm27 5l1 1 0 0 -1 0 -1 0 -1 0 -1 0 -1 0 -1 0 -1 0 -1 0 -2 0 -1 0 -1 0 -1 0 -1 0 -2 0 -1 0 -1 0 -1 0 -1 0 -1 0 -1 0 -1 -1 -1 0 -1 0 -1 -1 -1 0 0 0 -1 -1 0 0 -1 -1 0 0 0 -1 0 -1 1 0 0 1 0 0 0 1 0 0 1 0 0 1 1 0 1 0 0 1 1 0 1 0 1 0 1 1 1 0 1 0 1 0 1 0 2 0 1 0 1 0 1 0 1 0 1 0 2 0 1 0 1 0 1 0 1 0 1 0 1 0 1 0 0 0 0 0zm4 -1l0 1 0 0 0 0 0 0 0 0 0 0 0 0 0 0 -1 0 0 0 0 0 0 0 0 1 0 0 0 0 0 0 0 0 0 0 -1 0 0 0 0 0 0 0 0 0 0 0 0 0 0 0 0 0 -1 0 0 0 0 0 0 0 0 0 0 0 0 0 -1 -1 1 0 0 0 0 0 0 0 0 0 0 0 0 0 1 0 0 0 0 0 0 0 0 0 0 0 0 0 0 0 0 -1 1 0 0 0 0 0 0 0 0 0 0 0 0 0 0 0 0 0 0 0 0 0 0 0 1 0 0 0 0 0 0 0 0 0zm-3 -2l1 0 0 0 0 1 0 0 0 0 0 0 0 0 0 0 0 0 0 1 0 0 0 0 0 0 0 0 0 0 1 0 0 0 0 0 0 0 0 0 0 0 0 0 0 0 0 0 1 0 0 0 0 0 0 0 0 0 0 0 0 0 0 1 0 0 0 0 0 -1 0 0 -1 0 1 1 0 0 0 0 0 0 0 0 0 0 -1 0 0 0 0 0 0 0 0 0 0 0 0 0 -1 0 0 0 0 0 0 0 0 0 0 0 -1 0 0 -1 0 0 0 0 0 0 0 0 0 -1 0 0 0 0 0 0 0 -1 0 0zm1 -12l0 12 -1 0 0 -12 1 0zm0 -30l0 30 -1 0 0 -30 1 0zm-4 1l1 2 0 0 -1 0 0 0 0 0 0 0 0 -1 -1 0 0 0 0 0 0 0 0 0 0 0 -1 0 0 0 0 0 0 0 0 0 0 0 0 0 0 0 0 -1 0 0 -1 0 0 0 0 0 0 0 0 0 0 0 0 0 0 0 0 0 0 0 0 0 1 -1 0 0 0 0 0 0 0 0 0 0 0 0 0 0 0 0 0 0 0 0 0 1 0 0 0 0 0 0 1 0 0 0 0 0 0 0 0 0 0 0 0 0 0 0 0 0 0 0 1 0 0 0 0 0 0 0 0 0 0 0 0 0 0 0 0 0zm3 -1l1 1 0 0 0 0 0 0 0 0 0 0 0 0 0 0 0 0 0 0 -1 0 0 0 0 0 0 0 0 0 0 0 0 1 0 0 0 0 0 0 -1 0 0 0 0 0 0 0 0 0 0 0 0 0 -1 0 0 0 0 0 0 1 0 0 0 0 -1 -2 1 0 0 0 0 0 0 0 0 0 0 0 0 0 0 0 1 0 0 0 0 0 0 0 0 0 0 0 0 0 0 0 0 0 0 0 0 0 0 -1 1 0 0 0 0 0 0 0 0 0 0 0 0 0 0 0 0 0 0 0 0 0 0 0zm-9 3l0 -2 0 0 1 0 0 0 0 0 0 0 0 0 0 0 0 0 1 0 0 0 0 0 0 0 0 0 0 0 0 0 0 0 0 0 0 0 0 0 1 0 0 0 0 0 0 -1 0 0 0 0 0 0 0 0 0 0 0 0 0 0 0 0 0 0 0 0 1 1 0 0 0 0 0 0 0 0 0 0 0 0 0 0 0 0 0 0 0 0 -1 0 0 0 0 1 0 0 0 0 0 0 0 0 0 0 0 0 -1 0 0 0 0 0 0 0 0 0 0 0 0 0 -1 0 0 1 0 0 0 0 0 0 -1 0 0 0zm-3 -2l1 -1 0 0 0 0 0 0 0 0 0 0 0 0 0 0 0 0 0 0 0 0 0 0 0 0 1 1 0 0 0 0 0 0 0 0 0 0 0 0 0 0 0 0 0 0 0 0 0 0 1 0 0 0 0 0 0 0 0 0 0 0 0 0 0 0 0 2 0 0 0 0 0 -1 0 0 0 0 -1 0 0 0 0 0 0 0 0 0 0 0 -1 0 0 0 0 0 0 0 0 0 0 -1 0 0 0 0 0 0 0 0 0 0 -1 0 0 0 0 0 0 0 0 0 0 0 0 0 0 0 0 0 0 0zm-2 0l0 2 0 0 0 0 -1 0 0 0 0 0 0 -1 0 0 0 0 -1 0 0 0 0 0 0 0 0 0 0 0 0 0 -1 0 0 0 0 0 0 0 0 0 0 -1 0 0 0 0 0 0 0 0 0 0 0 0 0 0 -1 0 0 0 0 0 0 0 0 0 1 -1 0 0 0 0 0 0 0 0 0 0 0 0 0 0 0 0 1 0 0 0 0 1 0 0 0 0 0 0 0 0 0 0 0 0 0 0 0 0 0 0 0 0 1 0 0 0 0 0 0 0 0 0 0 0 0 0 0 0 1 0 0 0 0 0 0 0zm2 -1l1 1 0 0 0 0 0 0 0 0 0 0 0 0 0 0 0 0 0 0 0 0 0 0 0 0 0 0 -1 0 0 0 0 1 0 0 0 0 0 0 0 0 0 0 0 0 -1 0 0 0 0 0 0 0 0 0 0 0 -1 0 0 1 0 0 0 0 0 -2 0 0 0 0 0 0 0 0 0 0 1 0 0 0 0 0 0 0 0 0 0 0 0 0 0 0 0 0 0 0 1 0 0 0 0 0 0 0 0 -1 0 0 0 0 0 0 0 0 0 0 0 0 0 0 0 0 0 0 0 0 0 0 0 0zm-8 3l0 -2 0 0 0 0 0 0 0 0 0 0 1 0 0 0 0 0 0 0 0 0 0 0 0 0 0 0 0 0 1 0 0 0 0 0 0 0 0 0 0 0 0 0 0 0 0 -1 0 0 0 0 0 0 0 0 0 0 0 0 0 0 0 0 0 0 0 0 1 1 0 0 0 0 0 0 0 0 0 0 0 0 0 0 0 0 0 0 0 0 0 0 0 0 0 1 0 0 -1 0 0 0 0 0 0 0 0 0 0 0 0 0 0 0 -1 0 0 0 0 0 0 0 0 0 0 1 -1 0 0 0 0 0 0 0 0 0zm-3 -2l0 -1 0 0 0 0 1 0 0 0 0 0 0 0 0 0 0 0 0 0 0 0 0 0 0 0 0 1 0 0 0 0 0 0 0 0 0 0 0 0 0 0 1 0 0 0 0 0 0 0 0 0 0 0 0 0 0 0 0 0 1 0 0 0 0 0 0 2 0 0 -1 0 0 -1 0 0 0 0 0 0 0 0 -1 0 0 0 0 0 0 0 0 0 0 0 0 0 -1 0 0 0 0 -1 0 0 0 0 0 0 0 0 0 0 0 0 0 0 0 0 0 0 0 0 0 0 0 0 0 0 0 0 0 0z"/>
     </g>
     <g>
      <path class="fil2" d="M47 41c1,-3 1,-12 1,-12 0,0 -1,1 -3,1 -1,0 -1,-1 -1,-1 0,0 -1,1 -2,1 -1,0 -2,-1 -2,-1l-1 0 0 13c0,0 0,3 2,3 3,0 5,-1 6,-4z"/>
      <path id="1" class="fil1" d="M48 29l0 0 0 0 0 0 0 0 0 0 0 0 0 0 0 1 0 0 0 0 0 1 0 0 0 0 0 1 0 0 0 1 0 0 0 1 0 0 0 1 0 0 0 1 0 0 0 1 0 0 0 1 0 0 0 1 0 0 0 1 0 0 0 1 -1 0 0 0 0 0 0 0 0 0 0 -1 0 0 0 -1 0 0 0 -1 0 0 1 -1 0 0 0 -1 0 0 0 -1 0 0 0 -1 0 0 0 -1 0 0 0 -1 0 0 0 -1 0 0 0 0 0 -1 0 0 0 0 0 -1 0 0 0 0 0 0 0 0 0 0 0 0zm-3 1l0 -1 0 0 0 0 1 0 0 0 0 0 0 0 0 0 0 0 0 0 0 0 0 0 1 0 0 0 0 0 0 0 0 0 0 0 0 0 0 0 0 0 0 0 0 0 0 0 1 0 0 0 0 0 0 0 0 0 0 0 0 0 0 0 0 0 0 0 0 0 0 0 0 0 0 0 0 0 0 0 0 0 0 0 0 0 0 0 0 0 0 0 0 0 0 0 -1 0 0 0 0 0 0 1 0 0 0 0 0 0 0 0 0 0 0 0 -1 0 0 0 0 0 0 0 0 0 0 0 0 0 -1 0 0 0 0 0zm-1 -1l0 0 0 0 0 0 0 0 0 0 0 0 0 0 0 0 0 0 0 0 0 0 0 0 0 0 0 0 0 0 0 0 0 0 0 0 0 0 0 0 0 0 0 0 0 0 0 0 0 0 1 0 0 0 0 0 0 0 0 0 0 0 0 0 0 0 0 0 0 1 0 0 0 0 0 0 0 0 0 0 0 0 -1 0 0 0 0 0 0 0 0 0 0 0 0 0 0 0 0 0 0 -1 0 0 0 0 0 0 0 0 0 0 0 0 0 0 0 0 0 0 0 0 0 0 0 0 0 0 0 0 0 0 0 0 0 0zm-2 1l0 0 0 0 0 0 0 0 0 0 0 0 0 0 1 0 0 0 0 0 0 -1 0 0 0 0 0 0 0 0 0 0 0 0 0 0 0 0 0 0 0 0 0 0 0 0 0 0 0 0 0 0 0 0 1 0 0 0 0 0 0 0 0 0 0 0 0 0 0 0 0 0 0 0 0 0 0 0 0 0 0 0 0 0 0 0 0 0 0 0 0 0 0 0 0 1 0 0 0 0 0 0 -1 0 0 0 0 0 0 0 0 0 0 0 0 0 0 0 0 0 0 0 0 0 -1 0 0 0 0 0 0 0 0 0 0 0zm-2 -1l0 0 0 0 0 0 0 0 0 0 0 0 0 0 0 0 0 0 0 0 0 0 0 0 0 0 0 0 0 0 0 0 0 0 1 0 0 0 0 0 0 0 0 0 0 0 0 0 0 0 0 1 0 0 0 0 0 0 1 0 0 0 0 0 0 0 0 0 0 0 0 0 0 0 0 0 -1 0 0 0 0 0 0 0 0 0 0 0 0 0 0 0 0 0 0 0 -1 0 0 0 0 0 0 0 0 0 0 -1 0 0 0 0 0 0 0 0 0 0 0 0 0 0 0 0 0 0 0 0 0 0 0 0 0 0 0 0zm-1 0l1 0 0 0 -1 0 0 0 0 0zm0 0l0 0 0 0 0 0zm0 13l0 -13 0 0 0 13 0 0 0 0zm0 0l0 0 0 0 0 0zm2 3l0 0 0 0 0 0 0 0 0 0 -1 0 0 0 0 0 0 0 0 0 0 0 0 -1 0 0 0 0 -1 0 0 0 0 0 0 0 0 0 0 -1 0 0 0 0 0 0 0 0 0 0 0 0 0 0 0 0 0 0 0 -1 0 0 0 0 0 0 0 0 0 0 0 0 0 0 0 0 0 0 0 0 0 1 1 0 0 0 0 0 0 0 0 0 0 0 0 0 0 0 0 0 0 0 0 1 0 0 0 0 0 0 0 0 0 0 0 0 0 0 0 0 0 0 1 0 0 1 0 0 0 0 0 0 0 0 0 0zm6 -4l0 0 0 0 0 1 0 0 0 0 0 0 0 1 0 0 0 0 -1 0 0 0 0 0 0 1 0 0 0 0 -1 0 0 0 0 0 0 0 -1 1 0 0 0 0 0 0 0 0 -1 0 0 0 0 0 0 0 -1 0 0 0 0 0 0 0 -1 0 0 0 0 0 0 0 1 0 0 0 0 0 0 0 1 0 0 0 0 0 0 -1 0 0 1 0 0 0 0 0 0 0 0 0 1 0 0 0 0 0 0 0 0 -1 1 0 0 0 0 0 0 0 0 0 0 -1 0 0 0 0 1 0 0 0 0 -1 0 0 0 0z"/>
     </g>
    </g>
    <g id="_805229480">
     <circle class="fil3" cx="25" cy="13" r="8"/>
     <path class="fil4" d="M26 15c0,0 0,-1 0,-1 -1,0 -1,0 -1,-1 -1,0 -1,0 -2,0 0,0 0,0 -1,-1 0,0 0,0 0,0 0,-1 0,-1 0,-2 0,0 0,-1 0,-1 1,-1 1,-1 2,-1l0 -2 1 0 0 2c1,0 2,0 2,1 1,0 1,1 1,2l-2 0c0,-1 0,-1 0,-1 -1,-1 -1,-1 -1,-1 -1,0 -1,0 -1,1 0,0 0,0 0,0 0,1 0,1 0,1 0,0 0,1 1,1 0,0 1,0 1,0 1,1 1,1 1,1 0,0 0,1 1,1 0,0 0,0 0,1 0,1 0,1 -1,2 0,0 -1,0 -2,1l0 1 -1 0 0 -1c-1,-1 -1,-1 -2,-1 0,-1 -1,-2 -1,-3l2 0c0,1 0,1 1,2 0,0 0,0 1,0 0,0 0,0 1,0 0,0 0,-1 0,-1z"/>
    </g>
    <g id="_805229744">
     <rect class="fil2" x="14" y="22" width="22.1818" height="2.01067"/>
     <rect class="fil2" x="14" y="27" width="22.1818" height="2.01067"/>
     <rect class="fil2" x="14" y="31" width="22.1818" height="2.01067"/>
    </g>
    <rect class="fil2" x="14" y="36" width="22.1818" height="2.01067"/>
    <g id="_805224056">
     <g>
      <rect class="fil5" x="2" y="28" width="16.3078" height="9.78446" rx="1" ry="1"/>
      <rect class="fil6" x="2" y="30" width="16.3078" height="0.858732"/>
      <g>
       <rect class="fil7" x="3" y="33" width="0.96388" height="1.07136"/>
       <rect class="fil7" x="4" y="33" width="0.96388" height="1.07136"/>
       <rect class="fil7" x="6" y="33" width="0.96388" height="1.07136"/>
       <rect class="fil7" x="7" y="33" width="0.96388" height="1.07136"/>
       <rect class="fil7" x="8" y="33" width="0.96388" height="1.07136"/>
       <rect class="fil7" x="10" y="33" width="0.96388" height="1.07136"/>
      </g>
     </g>
     <g>
      <rect class="fil8" y="31" width="16.3078" height="9.78446" rx="1" ry="1"/>
      <rect class="fil6" y="32" width="16.3078" height="0.858732"/>
      <g>
       <rect class="fil7" x="1" y="35" width="0.96388" height="1.07136"/>
       <rect class="fil7" x="2" y="35" width="0.96388" height="1.07136"/>
       <rect class="fil7" x="4" y="35" width="0.96388" height="1.07136"/>
       <rect class="fil7" x="5" y="35" width="0.96388" height="1.07136"/>
       <rect class="fil7" x="6" y="35" width="0.96388" height="1.07136"/>
       <rect class="fil7" x="8" y="35" width="0.96388" height="1.07136"/>
      </g>
     </g>
     <g>
      <g>
       <polygon class="fil9" points="8,45 30,45 30,33 8,33 "/>
       <path class="fil10" d="M29 37l0 5c-1,0 -2,1 -2,2l-16 0c0,-1 -1,-2 -2,-2l0 -5c1,0 2,-1 2,-3l16 0c0,2 1,3 2,3z"/>
       <path class="fil11" d="M21 39c0,1 -1,2 -2,2 -1,0 -2,-1 -2,-2 0,-1 1,-2 2,-2 1,0 2,1 2,2z"/>
       <path class="fil9" d="M8 38l0 7 8 0c-2,0 -4,-1 -6,-2 -1,-1 -2,-3 -2,-5z"/>
       <polygon class="fil11" points="23,40 25,40 25,39 23,39 "/>
       <polygon class="fil11" points="13,40 15,40 15,39 13,39 "/>
      </g>
      <g>
       <polygon class="fil9" points="5,48 27,48 27,36 5,36 "/>
       <path class="fil10" d="M26 39l0 5c-2,0 -3,1 -3,2l-15 0c0,-1 -1,-2 -2,-2l0 -5c1,0 2,-1 2,-2l15 0c0,1 1,2 3,2z"/>
       <path class="fil11" d="M18 42c0,1 -1,2 -2,2 -1,0 -2,-1 -2,-2 0,-1 1,-2 2,-2 1,0 2,1 2,2z"/>
       <path class="fil9" d="M5 40l0 8 7 0c-2,0 -4,-1 -5,-2 -1,-2 -2,-4 -2,-6z"/>
       <polygon class="fil11" points="20,42 22,42 22,41 20,41 "/>
       <polygon class="fil11" points="9,42 11,42 11,41 9,41 "/>
      </g>
     </g>
    </g>
   </g>
  </g>
 </g>
</svg>
