<?xml version="1.0" encoding="UTF-8"?>
<!DOCTYPE svg PUBLIC "-//W3C//DTD SVG 1.1//EN" "http://www.w3.org/Graphics/SVG/1.1/DTD/svg11.dtd">
<!-- Creator: CorelDRAW X7 -->
<svg xmlns="http://www.w3.org/2000/svg" xml:space="preserve" width="49px" height="48px" version="1.1" style="shape-rendering:geometricPrecision; text-rendering:geometricPrecision; image-rendering:optimizeQuality; fill-rule:evenodd; clip-rule:evenodd"
viewBox="0 0 49 48"
 xmlns:xlink="http://www.w3.org/1999/xlink">
 <defs>
  <style type="text/css">
   <![CDATA[
    .fil0 {fill:#FEFEFE}
    .fil4 {fill:#2887D2}
    .fil5 {fill:#FCBC44}
    .fil6 {fill:#00A859;fill-rule:nonzero}
    .fil3 {fill:#0098DA;fill-rule:nonzero}
    .fil1 {fill:#2887D2;fill-rule:nonzero}
    .fil2 {fill:url(#id0)}
   ]]>
  </style>
  <linearGradient id="id0" gradientUnits="userSpaceOnUse" x1="16.0095" y1="33.654" x2="32.8465" y2="4.65492">
   <stop offset="0" style="stop-opacity:1; stop-color:#DBF7FF"/>
   <stop offset="0.129412" style="stop-opacity:1; stop-color:#ECFAFF"/>
   <stop offset="1" style="stop-opacity:1; stop-color:#FEFEFE"/>
  </linearGradient>
 </defs>
 <g id="Layer_x0020_1">
  <metadata id="CorelCorpID_0Corel-Layer"/>
  <g id="_805238048">
   <g>
    <g>
     <polygon class="fil0" points="1,17 25,2 48,17 25,32 25,32 "/>
     <path id="1" class="fil1" d="M25 2l0 0 0 0 -24 15 -1 0 25 -15zm0 0l0 0 0 0 0 0zm24 15l0 0 -1 0 -23 -15 0 0 24 15zm0 0l0 0 0 0 0 0zm-24 16l0 0 0 -1 23 -15 1 0 -24 16zm0 0l0 0 0 0 0 0zm0 -1l0 0 0 0 0 0 0 1 0 -1zm0 1l0 0 0 0 0 0zm-25 -16l0 0 1 0 24 15 0 1 -25 -16zm0 0l0 0 0 0 0 0z"/>
    </g>
    <g>
     <g>
      <path class="fil2" d="M11 1l0 37c0,0 27,-1 27,0 0,0 0,-30 0,-30l-5 -7 0 0c0,0 -22,0 -22,0z"/>
      <path id="1" class="fil3" d="M11 38l0 -37 1 0 0 37 -1 0 0 0zm0 0l0 0 0 0 0 0zm27 0l-1 0 0 0 0 0 0 0 0 0 -1 0 0 0 -1 0 -1 0 0 0 -1 0 -1 0 -2 0 -1 0 -1 0 -1 0 -1 0 -2 0 -1 0 -1 0 -1 0 -1 0 -2 0 -1 0 -1 0 -1 0 -1 0 0 0 -1 0 -1 0 0 0 0 0 -1 0 0 0 0 -1 0 0 0 0 1 0 0 0 1 0 1 0 0 0 1 0 1 0 1 0 1 0 2 0 1 0 1 0 1 0 1 0 2 0 1 0 1 0 1 0 1 0 2 0 1 0 1 0 0 0 1 0 1 0 1 0 0 0 0 0 1 0 0 1 0 0zm-1 -30l1 -1 0 1 0 0 0 0 0 1 0 0 0 1 0 1 0 1 0 1 0 1 0 1 0 1 0 1 0 2 0 1 0 2 0 1 0 1 0 2 0 1 0 2 0 1 0 1 0 1 0 1 0 1 0 1 0 1 0 1 0 0 0 0 0 1 -1 0 1 0 -1 0 0 -1 0 0 0 0 0 -1 0 -1 0 -1 0 -1 0 -1 0 -1 0 -1 0 -1 0 -2 0 -1 0 -2 0 -1 0 -1 0 -2 0 -1 0 -2 0 -1 0 -1 0 -1 0 -1 0 -1 0 -1 0 -1 0 -1 0 0 0 -1 0 0 0 0 0 0zm-3 -7l4 6 -1 1 -4 -7 1 0 0 0zm0 0l0 0 0 0 0 0zm-1 -1l1 1 -1 0 0 0 0 -1 0 0zm0 0l0 0 0 0 0 0zm-21 1l-1 0 0 0 0 -1 0 0 1 0 0 0 1 0 0 0 1 0 1 0 0 0 1 0 1 0 1 0 1 0 1 0 1 0 1 0 1 0 1 0 1 0 1 0 1 0 1 0 1 0 1 0 0 0 1 0 1 0 0 0 0 0 1 0 0 0 0 0 0 1 0 0 0 0 -1 0 0 0 0 0 -1 0 -1 0 0 0 -1 0 -1 0 -1 0 -1 0 -1 0 -1 0 -1 0 -1 0 -1 0 -1 0 -1 0 -1 0 -1 0 -1 0 -1 0 0 0 -1 0 -1 0 0 0 -1 0 0 0 -1 0 0 0 1 0 0 0z"/>
     </g>
     <path class="fil4" d="M33 1l0 5c0,0 0,1 1,2 0,0 4,0 4,0l-5 -8 0 1z"/>
     <g>
      <g>
       <g>
        <polygon class="fil1" points="34,10 15,10 15,10 34,10 "/>
       </g>
       <g>
        <polygon class="fil1" points="24,33 24,10 25,10 25,33 "/>
       </g>
       <rect class="fil4" x="26" y="13" width="7.75111" height="1.10601"/>
       <rect class="fil4" x="26" y="16" width="7.75111" height="1.10601"/>
       <rect class="fil4" x="26" y="19" width="7.75111" height="1.10601"/>
       <rect class="fil4" x="15" y="22" width="7.75111" height="1.10601"/>
       <rect class="fil4" x="26" y="22" width="7.75111" height="1.10601"/>
       <rect class="fil4" x="15" y="13" width="7.75111" height="1.10601"/>
       <rect class="fil4" x="15" y="16" width="7.75111" height="1.10601"/>
       <rect class="fil4" x="15" y="19" width="7.75111" height="1.10601"/>
       <rect class="fil4" x="15" y="25" width="7.75111" height="1.10601"/>
       <rect class="fil4" x="26" y="25" width="7.75111" height="1.10601"/>
       <rect class="fil4" x="15" y="28" width="7.75111" height="1.10601"/>
       <rect class="fil4" x="26" y="28" width="7.75111" height="1.10601"/>
       <rect class="fil4" x="15" y="31" width="7.75111" height="1.10601"/>
       <rect class="fil4" x="26" y="31" width="7.75111" height="1.10601"/>
      </g>
      <path class="fil1" d="M18 9l0 -3 1 0c0,0 1,0 1,0 0,0 0,0 0,1 1,0 1,0 1,0l0 1c0,0 0,0 -1,0 0,1 0,1 0,1 0,0 -1,0 -1,0l-1 0zm1 -3l0 3 0 0c0,0 1,-1 1,-1 0,0 0,0 0,0l0 -1c0,0 0,0 0,0 0,-1 -1,-1 -1,-1l0 0z"/>
      <path class="fil1" d="M31 8c0,0 0,1 0,1 0,0 -1,0 -1,0 -1,0 -1,0 -1,0 0,-1 0,-1 0,-1l0 -1c0,0 0,0 0,0 0,-1 0,-1 0,-1 0,0 1,0 1,0 0,0 1,0 1,0 0,0 0,1 0,1l0 0c0,0 -1,0 -1,0 0,-1 0,-1 0,-1 0,0 0,0 -1,1 0,0 0,0 0,0l0 1c0,0 0,0 0,0 1,1 1,1 1,1 0,0 0,0 0,0 0,-1 1,-1 1,-1l0 0z"/>
     </g>
    </g>
    <polygon class="fil4" points="1,17 25,32 48,17 48,48 1,48 "/>
   </g>
   <g>
    <circle class="fil5" cx="25" cy="32" r="10"/>
    <path class="fil6" d="M26 35c0,0 0,-1 0,-1 0,0 -1,0 -1,-1 -1,0 -2,0 -2,0 0,-1 -1,-1 -1,-1 0,0 -1,-1 -1,-1 0,0 0,-1 0,-1 0,-1 0,-2 1,-3 0,0 1,-1 2,-1l0 -1 1 0 0 1c1,0 2,1 3,2 0,0 1,1 1,2l-3 0c0,-1 0,-1 0,-1 0,-1 -1,-1 -1,-1 -1,0 -1,0 -1,1 -1,0 -1,0 -1,1 0,0 0,0 1,1 0,0 0,0 1,0 1,1 1,1 2,1 0,0 0,1 1,1 0,0 0,0 0,1 0,0 1,1 1,1 0,1 -1,2 -1,2 -1,1 -2,1 -3,1l0 2 -1 0 0 -2c-1,0 -2,0 -3,-1 0,0 0,-1 0,-2l2 0c0,0 0,1 0,1 1,0 1,1 2,1 0,0 1,-1 1,-1 0,0 0,0 0,-1z"/>
   </g>
  </g>
 </g>
</svg>
